ISO-10303-21;
HEADER;
/* Generated by software containing ST-Developer
 * from STEP Tools, Inc. (www.steptools.com) 
 */
/* OPTION: using custom renumber hook */

FILE_DESCRIPTION(
/* description */ ('STEP AP242 Edition 2',
'CAx-IF Rec.Pracs.---Representation and Presentation of Product Manufa
cturing Information (PMI)---4.0---2014-10-13',
'CAx-IF Rec.Pracs.---3D Tessellated Geometry---0.4---2014-09-14','2;1',
'CAx-IF Rec.Pracs.---User Defined Attributes---1.5---2016-08-15'),
/* implementation_level */ '2;1');

FILE_NAME(
/* name */ 'Part Studio Main - CaseBackplate',
/* time_stamp */ '2026-06-20T20:11:30Z',
/* author */ (''),
/* organization */ (''),
/* preprocessor_version */ 'ST-DEVELOPER v20',
/* originating_system */ 'ONSHAPE BY PTC INC, 1.216',
/* authorisation */ '  ');

FILE_SCHEMA (('AP242_MANAGED_MODEL_BASED_3D_ENGINEERING_MIM_LF { 1 0 10303 442 3 1 4 }'));
ENDSEC;

DATA;
#10=SHAPE_REPRESENTATION_RELATIONSHIP('','',#491,#11);
#11=ADVANCED_BREP_SHAPE_REPRESENTATION('',(#489),#837);
#12=TOROIDAL_SURFACE('',#559,0.0065,0.004);
#13=TOROIDAL_SURFACE('',#560,0.0065,0.004);
#14=CONICAL_SURFACE('',#523,0.003,0.78539816339745);
#15=CONICAL_SURFACE('',#526,0.003,0.78539816339745);
#16=CONICAL_SURFACE('',#529,0.003,0.78539816339745);
#17=CONICAL_SURFACE('',#532,0.003,0.78539816339745);
#18=CONICAL_SURFACE('',#535,0.003,0.78539816339745);
#19=CONICAL_SURFACE('',#538,0.003,0.78539816339745);
#20=CONICAL_SURFACE('',#541,0.003,0.78539816339745);
#21=CONICAL_SURFACE('',#544,0.003,0.78539816339745);
#22=CONICAL_SURFACE('',#547,0.003,0.78539816339745);
#23=CONICAL_SURFACE('',#550,0.003,0.78539816339745);
#24=CYLINDRICAL_SURFACE('',#521,0.0016);
#25=CYLINDRICAL_SURFACE('',#524,0.0016);
#26=CYLINDRICAL_SURFACE('',#527,0.0016);
#27=CYLINDRICAL_SURFACE('',#530,0.0016);
#28=CYLINDRICAL_SURFACE('',#533,0.0016);
#29=CYLINDRICAL_SURFACE('',#536,0.0016);
#30=CYLINDRICAL_SURFACE('',#539,0.0016);
#31=CYLINDRICAL_SURFACE('',#542,0.0016);
#32=CYLINDRICAL_SURFACE('',#545,0.0016);
#33=CYLINDRICAL_SURFACE('',#548,0.0016);
#34=CYLINDRICAL_SURFACE('',#551,0.0025);
#35=CYLINDRICAL_SURFACE('',#555,0.0025);
#36=CIRCLE('',#498,0.003);
#37=CIRCLE('',#499,0.003);
#38=CIRCLE('',#500,0.003);
#39=CIRCLE('',#501,0.003);
#40=CIRCLE('',#502,0.003);
#41=CIRCLE('',#503,0.003);
#42=CIRCLE('',#504,0.003);
#43=CIRCLE('',#505,0.003);
#44=CIRCLE('',#506,0.003);
#45=CIRCLE('',#507,0.003);
#46=CIRCLE('',#509,0.0065);
#47=CIRCLE('',#510,0.0065);
#48=CIRCLE('',#511,0.0016);
#49=CIRCLE('',#512,0.0016);
#50=CIRCLE('',#513,0.0016);
#51=CIRCLE('',#514,0.0016);
#52=CIRCLE('',#515,0.0016);
#53=CIRCLE('',#516,0.0016);
#54=CIRCLE('',#517,0.0016);
#55=CIRCLE('',#518,0.0016);
#56=CIRCLE('',#519,0.0016);
#57=CIRCLE('',#520,0.0016);
#58=CIRCLE('',#522,0.0016);
#59=CIRCLE('',#525,0.0016);
#60=CIRCLE('',#528,0.0016);
#61=CIRCLE('',#531,0.0016);
#62=CIRCLE('',#534,0.0016);
#63=CIRCLE('',#537,0.0016);
#64=CIRCLE('',#540,0.0016);
#65=CIRCLE('',#543,0.0016);
#66=CIRCLE('',#546,0.0016);
#67=CIRCLE('',#549,0.0016);
#68=CIRCLE('',#552,0.0025);
#69=CIRCLE('',#553,0.0025);
#70=CIRCLE('',#556,0.0025);
#71=CIRCLE('',#557,0.0025);
#72=ORIENTED_EDGE('',*,*,#168,.F.);
#73=ORIENTED_EDGE('',*,*,#169,.F.);
#74=ORIENTED_EDGE('',*,*,#170,.T.);
#75=ORIENTED_EDGE('',*,*,#171,.T.);
#76=ORIENTED_EDGE('',*,*,#172,.T.);
#77=ORIENTED_EDGE('',*,*,#173,.F.);
#78=ORIENTED_EDGE('',*,*,#174,.F.);
#79=ORIENTED_EDGE('',*,*,#169,.T.);
#80=ORIENTED_EDGE('',*,*,#175,.T.);
#81=ORIENTED_EDGE('',*,*,#176,.F.);
#82=ORIENTED_EDGE('',*,*,#177,.F.);
#83=ORIENTED_EDGE('',*,*,#173,.T.);
#84=ORIENTED_EDGE('',*,*,#178,.F.);
#85=ORIENTED_EDGE('',*,*,#171,.F.);
#86=ORIENTED_EDGE('',*,*,#179,.T.);
#87=ORIENTED_EDGE('',*,*,#176,.T.);
#88=ORIENTED_EDGE('',*,*,#180,.T.);
#89=ORIENTED_EDGE('',*,*,#181,.T.);
#90=ORIENTED_EDGE('',*,*,#182,.T.);
#91=ORIENTED_EDGE('',*,*,#183,.T.);
#92=ORIENTED_EDGE('',*,*,#184,.T.);
#93=ORIENTED_EDGE('',*,*,#185,.T.);
#94=ORIENTED_EDGE('',*,*,#186,.T.);
#95=ORIENTED_EDGE('',*,*,#187,.T.);
#96=ORIENTED_EDGE('',*,*,#188,.T.);
#97=ORIENTED_EDGE('',*,*,#189,.T.);
#98=ORIENTED_EDGE('',*,*,#170,.F.);
#99=ORIENTED_EDGE('',*,*,#174,.T.);
#100=ORIENTED_EDGE('',*,*,#177,.T.);
#101=ORIENTED_EDGE('',*,*,#179,.F.);
#102=ORIENTED_EDGE('',*,*,#190,.T.);
#103=ORIENTED_EDGE('',*,*,#191,.T.);
#104=ORIENTED_EDGE('',*,*,#192,.F.);
#105=ORIENTED_EDGE('',*,*,#193,.F.);
#106=ORIENTED_EDGE('',*,*,#194,.F.);
#107=ORIENTED_EDGE('',*,*,#195,.F.);
#108=ORIENTED_EDGE('',*,*,#196,.F.);
#109=ORIENTED_EDGE('',*,*,#197,.F.);
#110=ORIENTED_EDGE('',*,*,#198,.F.);
#111=ORIENTED_EDGE('',*,*,#199,.F.);
#112=ORIENTED_EDGE('',*,*,#200,.F.);
#113=ORIENTED_EDGE('',*,*,#201,.F.);
#114=ORIENTED_EDGE('',*,*,#168,.T.);
#115=ORIENTED_EDGE('',*,*,#178,.T.);
#116=ORIENTED_EDGE('',*,*,#175,.F.);
#117=ORIENTED_EDGE('',*,*,#172,.F.);
#118=ORIENTED_EDGE('',*,*,#202,.F.);
#119=ORIENTED_EDGE('',*,*,#201,.T.);
#120=ORIENTED_EDGE('',*,*,#202,.T.);
#121=ORIENTED_EDGE('',*,*,#189,.F.);
#122=ORIENTED_EDGE('',*,*,#203,.F.);
#123=ORIENTED_EDGE('',*,*,#200,.T.);
#124=ORIENTED_EDGE('',*,*,#203,.T.);
#125=ORIENTED_EDGE('',*,*,#188,.F.);
#126=ORIENTED_EDGE('',*,*,#204,.F.);
#127=ORIENTED_EDGE('',*,*,#199,.T.);
#128=ORIENTED_EDGE('',*,*,#204,.T.);
#129=ORIENTED_EDGE('',*,*,#187,.F.);
#130=ORIENTED_EDGE('',*,*,#205,.F.);
#131=ORIENTED_EDGE('',*,*,#198,.T.);
#132=ORIENTED_EDGE('',*,*,#205,.T.);
#133=ORIENTED_EDGE('',*,*,#186,.F.);
#134=ORIENTED_EDGE('',*,*,#206,.F.);
#135=ORIENTED_EDGE('',*,*,#197,.T.);
#136=ORIENTED_EDGE('',*,*,#206,.T.);
#137=ORIENTED_EDGE('',*,*,#185,.F.);
#138=ORIENTED_EDGE('',*,*,#207,.F.);
#139=ORIENTED_EDGE('',*,*,#196,.T.);
#140=ORIENTED_EDGE('',*,*,#207,.T.);
#141=ORIENTED_EDGE('',*,*,#184,.F.);
#142=ORIENTED_EDGE('',*,*,#208,.F.);
#143=ORIENTED_EDGE('',*,*,#195,.T.);
#144=ORIENTED_EDGE('',*,*,#208,.T.);
#145=ORIENTED_EDGE('',*,*,#183,.F.);
#146=ORIENTED_EDGE('',*,*,#209,.F.);
#147=ORIENTED_EDGE('',*,*,#194,.T.);
#148=ORIENTED_EDGE('',*,*,#209,.T.);
#149=ORIENTED_EDGE('',*,*,#182,.F.);
#150=ORIENTED_EDGE('',*,*,#210,.F.);
#151=ORIENTED_EDGE('',*,*,#193,.T.);
#152=ORIENTED_EDGE('',*,*,#210,.T.);
#153=ORIENTED_EDGE('',*,*,#181,.F.);
#154=ORIENTED_EDGE('',*,*,#211,.F.);
#155=ORIENTED_EDGE('',*,*,#192,.T.);
#156=ORIENTED_EDGE('',*,*,#211,.T.);
#157=ORIENTED_EDGE('',*,*,#180,.F.);
#158=ORIENTED_EDGE('',*,*,#212,.T.);
#159=ORIENTED_EDGE('',*,*,#213,.F.);
#160=ORIENTED_EDGE('',*,*,#213,.T.);
#161=ORIENTED_EDGE('',*,*,#214,.T.);
#162=ORIENTED_EDGE('',*,*,#215,.F.);
#163=ORIENTED_EDGE('',*,*,#215,.T.);
#164=ORIENTED_EDGE('',*,*,#190,.F.);
#165=ORIENTED_EDGE('',*,*,#214,.F.);
#166=ORIENTED_EDGE('',*,*,#191,.F.);
#167=ORIENTED_EDGE('',*,*,#212,.F.);
#168=EDGE_CURVE('',#216,#217,#260,.T.);
#169=EDGE_CURVE('',#218,#216,#261,.T.);
#170=EDGE_CURVE('',#218,#219,#262,.T.);
#171=EDGE_CURVE('',#219,#217,#263,.T.);
#172=EDGE_CURVE('',#216,#220,#264,.T.);
#173=EDGE_CURVE('',#221,#220,#265,.T.);
#174=EDGE_CURVE('',#218,#221,#266,.T.);
#175=EDGE_CURVE('',#220,#222,#267,.T.);
#176=EDGE_CURVE('',#223,#222,#268,.T.);
#177=EDGE_CURVE('',#221,#223,#269,.T.);
#178=EDGE_CURVE('',#217,#222,#270,.T.);
#179=EDGE_CURVE('',#219,#223,#271,.T.);
#180=EDGE_CURVE('',#224,#224,#36,.T.);
#181=EDGE_CURVE('',#225,#225,#37,.T.);
#182=EDGE_CURVE('',#226,#226,#38,.T.);
#183=EDGE_CURVE('',#227,#227,#39,.T.);
#184=EDGE_CURVE('',#228,#228,#40,.T.);
#185=EDGE_CURVE('',#229,#229,#41,.T.);
#186=EDGE_CURVE('',#230,#230,#42,.T.);
#187=EDGE_CURVE('',#231,#231,#43,.T.);
#188=EDGE_CURVE('',#232,#232,#44,.T.);
#189=EDGE_CURVE('',#233,#233,#45,.T.);
#190=EDGE_CURVE('',#234,#234,#46,.T.);
#191=EDGE_CURVE('',#235,#235,#47,.T.);
#192=EDGE_CURVE('',#236,#236,#48,.F.);
#193=EDGE_CURVE('',#237,#237,#49,.F.);
#194=EDGE_CURVE('',#238,#238,#50,.F.);
#195=EDGE_CURVE('',#239,#239,#51,.F.);
#196=EDGE_CURVE('',#240,#240,#52,.F.);
#197=EDGE_CURVE('',#241,#241,#53,.F.);
#198=EDGE_CURVE('',#242,#242,#54,.F.);
#199=EDGE_CURVE('',#243,#243,#55,.F.);
#200=EDGE_CURVE('',#244,#244,#56,.F.);
#201=EDGE_CURVE('',#245,#245,#57,.F.);
#202=EDGE_CURVE('',#246,#246,#58,.T.);
#203=EDGE_CURVE('',#247,#247,#59,.T.);
#204=EDGE_CURVE('',#248,#248,#60,.T.);
#205=EDGE_CURVE('',#249,#249,#61,.T.);
#206=EDGE_CURVE('',#250,#250,#62,.T.);
#207=EDGE_CURVE('',#251,#251,#63,.T.);
#208=EDGE_CURVE('',#252,#252,#64,.T.);
#209=EDGE_CURVE('',#253,#253,#65,.T.);
#210=EDGE_CURVE('',#254,#254,#66,.T.);
#211=EDGE_CURVE('',#255,#255,#67,.T.);
#212=EDGE_CURVE('',#256,#256,#68,.F.);
#213=EDGE_CURVE('',#257,#257,#69,.T.);
#214=EDGE_CURVE('',#258,#258,#70,.F.);
#215=EDGE_CURVE('',#259,#259,#71,.T.);
#216=VERTEX_POINT('',#714);
#217=VERTEX_POINT('',#715);
#218=VERTEX_POINT('',#717);
#219=VERTEX_POINT('',#719);
#220=VERTEX_POINT('',#723);
#221=VERTEX_POINT('',#725);
#222=VERTEX_POINT('',#729);
#223=VERTEX_POINT('',#731);
#224=VERTEX_POINT('',#738);
#225=VERTEX_POINT('',#740);
#226=VERTEX_POINT('',#742);
#227=VERTEX_POINT('',#744);
#228=VERTEX_POINT('',#746);
#229=VERTEX_POINT('',#748);
#230=VERTEX_POINT('',#750);
#231=VERTEX_POINT('',#752);
#232=VERTEX_POINT('',#754);
#233=VERTEX_POINT('',#756);
#234=VERTEX_POINT('',#759);
#235=VERTEX_POINT('',#761);
#236=VERTEX_POINT('',#763);
#237=VERTEX_POINT('',#765);
#238=VERTEX_POINT('',#767);
#239=VERTEX_POINT('',#769);
#240=VERTEX_POINT('',#771);
#241=VERTEX_POINT('',#773);
#242=VERTEX_POINT('',#775);
#243=VERTEX_POINT('',#777);
#244=VERTEX_POINT('',#779);
#245=VERTEX_POINT('',#781);
#246=VERTEX_POINT('',#784);
#247=VERTEX_POINT('',#788);
#248=VERTEX_POINT('',#792);
#249=VERTEX_POINT('',#796);
#250=VERTEX_POINT('',#800);
#251=VERTEX_POINT('',#804);
#252=VERTEX_POINT('',#808);
#253=VERTEX_POINT('',#812);
#254=VERTEX_POINT('',#816);
#255=VERTEX_POINT('',#820);
#256=VERTEX_POINT('',#824);
#257=VERTEX_POINT('',#826);
#258=VERTEX_POINT('',#830);
#259=VERTEX_POINT('',#832);
#260=LINE('',#713,#272);
#261=LINE('',#716,#273);
#262=LINE('',#718,#274);
#263=LINE('',#720,#275);
#264=LINE('',#722,#276);
#265=LINE('',#724,#277);
#266=LINE('',#726,#278);
#267=LINE('',#728,#279);
#268=LINE('',#730,#280);
#269=LINE('',#732,#281);
#270=LINE('',#734,#282);
#271=LINE('',#735,#283);
#272=VECTOR('',#565,1.);
#273=VECTOR('',#566,1.);
#274=VECTOR('',#567,1.);
#275=VECTOR('',#568,1.);
#276=VECTOR('',#571,1.);
#277=VECTOR('',#572,1.);
#278=VECTOR('',#573,1.);
#279=VECTOR('',#576,1.);
#280=VECTOR('',#577,1.);
#281=VECTOR('',#578,1.);
#282=VECTOR('',#581,1.);
#283=VECTOR('',#582,1.);
#284=EDGE_LOOP('',(#72,#73,#74,#75));
#285=EDGE_LOOP('',(#76,#77,#78,#79));
#286=EDGE_LOOP('',(#80,#81,#82,#83));
#287=EDGE_LOOP('',(#84,#85,#86,#87));
#288=EDGE_LOOP('',(#88));
#289=EDGE_LOOP('',(#89));
#290=EDGE_LOOP('',(#90));
#291=EDGE_LOOP('',(#91));
#292=EDGE_LOOP('',(#92));
#293=EDGE_LOOP('',(#93));
#294=EDGE_LOOP('',(#94));
#295=EDGE_LOOP('',(#95));
#296=EDGE_LOOP('',(#96));
#297=EDGE_LOOP('',(#97));
#298=EDGE_LOOP('',(#98,#99,#100,#101));
#299=EDGE_LOOP('',(#102));
#300=EDGE_LOOP('',(#103));
#301=EDGE_LOOP('',(#104));
#302=EDGE_LOOP('',(#105));
#303=EDGE_LOOP('',(#106));
#304=EDGE_LOOP('',(#107));
#305=EDGE_LOOP('',(#108));
#306=EDGE_LOOP('',(#109));
#307=EDGE_LOOP('',(#110));
#308=EDGE_LOOP('',(#111));
#309=EDGE_LOOP('',(#112));
#310=EDGE_LOOP('',(#113));
#311=EDGE_LOOP('',(#114,#115,#116,#117));
#312=EDGE_LOOP('',(#118));
#313=EDGE_LOOP('',(#119));
#314=EDGE_LOOP('',(#120));
#315=EDGE_LOOP('',(#121));
#316=EDGE_LOOP('',(#122));
#317=EDGE_LOOP('',(#123));
#318=EDGE_LOOP('',(#124));
#319=EDGE_LOOP('',(#125));
#320=EDGE_LOOP('',(#126));
#321=EDGE_LOOP('',(#127));
#322=EDGE_LOOP('',(#128));
#323=EDGE_LOOP('',(#129));
#324=EDGE_LOOP('',(#130));
#325=EDGE_LOOP('',(#131));
#326=EDGE_LOOP('',(#132));
#327=EDGE_LOOP('',(#133));
#328=EDGE_LOOP('',(#134));
#329=EDGE_LOOP('',(#135));
#330=EDGE_LOOP('',(#136));
#331=EDGE_LOOP('',(#137));
#332=EDGE_LOOP('',(#138));
#333=EDGE_LOOP('',(#139));
#334=EDGE_LOOP('',(#140));
#335=EDGE_LOOP('',(#141));
#336=EDGE_LOOP('',(#142));
#337=EDGE_LOOP('',(#143));
#338=EDGE_LOOP('',(#144));
#339=EDGE_LOOP('',(#145));
#340=EDGE_LOOP('',(#146));
#341=EDGE_LOOP('',(#147));
#342=EDGE_LOOP('',(#148));
#343=EDGE_LOOP('',(#149));
#344=EDGE_LOOP('',(#150));
#345=EDGE_LOOP('',(#151));
#346=EDGE_LOOP('',(#152));
#347=EDGE_LOOP('',(#153));
#348=EDGE_LOOP('',(#154));
#349=EDGE_LOOP('',(#155));
#350=EDGE_LOOP('',(#156));
#351=EDGE_LOOP('',(#157));
#352=EDGE_LOOP('',(#158));
#353=EDGE_LOOP('',(#159));
#354=EDGE_LOOP('',(#160));
#355=EDGE_LOOP('',(#161));
#356=EDGE_LOOP('',(#162));
#357=EDGE_LOOP('',(#163));
#358=EDGE_LOOP('',(#164));
#359=EDGE_LOOP('',(#165));
#360=EDGE_LOOP('',(#166));
#361=EDGE_LOOP('',(#167));
#362=FACE_BOUND('',#284,.T.);
#363=FACE_BOUND('',#285,.T.);
#364=FACE_BOUND('',#286,.T.);
#365=FACE_BOUND('',#287,.T.);
#366=FACE_BOUND('',#288,.T.);
#367=FACE_BOUND('',#289,.T.);
#368=FACE_BOUND('',#290,.T.);
#369=FACE_BOUND('',#291,.T.);
#370=FACE_BOUND('',#292,.T.);
#371=FACE_BOUND('',#293,.T.);
#372=FACE_BOUND('',#294,.T.);
#373=FACE_BOUND('',#295,.T.);
#374=FACE_BOUND('',#296,.T.);
#375=FACE_BOUND('',#297,.T.);
#376=FACE_BOUND('',#298,.T.);
#377=FACE_BOUND('',#299,.T.);
#378=FACE_BOUND('',#300,.T.);
#379=FACE_BOUND('',#301,.T.);
#380=FACE_BOUND('',#302,.T.);
#381=FACE_BOUND('',#303,.T.);
#382=FACE_BOUND('',#304,.T.);
#383=FACE_BOUND('',#305,.T.);
#384=FACE_BOUND('',#306,.T.);
#385=FACE_BOUND('',#307,.T.);
#386=FACE_BOUND('',#308,.T.);
#387=FACE_BOUND('',#309,.T.);
#388=FACE_BOUND('',#310,.T.);
#389=FACE_BOUND('',#311,.T.);
#390=FACE_BOUND('',#312,.T.);
#391=FACE_BOUND('',#313,.T.);
#392=FACE_BOUND('',#314,.T.);
#393=FACE_BOUND('',#315,.T.);
#394=FACE_BOUND('',#316,.T.);
#395=FACE_BOUND('',#317,.T.);
#396=FACE_BOUND('',#318,.T.);
#397=FACE_BOUND('',#319,.T.);
#398=FACE_BOUND('',#320,.T.);
#399=FACE_BOUND('',#321,.T.);
#400=FACE_BOUND('',#322,.T.);
#401=FACE_BOUND('',#323,.T.);
#402=FACE_BOUND('',#324,.T.);
#403=FACE_BOUND('',#325,.T.);
#404=FACE_BOUND('',#326,.T.);
#405=FACE_BOUND('',#327,.T.);
#406=FACE_BOUND('',#328,.T.);
#407=FACE_BOUND('',#329,.T.);
#408=FACE_BOUND('',#330,.T.);
#409=FACE_BOUND('',#331,.T.);
#410=FACE_BOUND('',#332,.T.);
#411=FACE_BOUND('',#333,.T.);
#412=FACE_BOUND('',#334,.T.);
#413=FACE_BOUND('',#335,.T.);
#414=FACE_BOUND('',#336,.T.);
#415=FACE_BOUND('',#337,.T.);
#416=FACE_BOUND('',#338,.T.);
#417=FACE_BOUND('',#339,.T.);
#418=FACE_BOUND('',#340,.T.);
#419=FACE_BOUND('',#341,.T.);
#420=FACE_BOUND('',#342,.T.);
#421=FACE_BOUND('',#343,.T.);
#422=FACE_BOUND('',#344,.T.);
#423=FACE_BOUND('',#345,.T.);
#424=FACE_BOUND('',#346,.T.);
#425=FACE_BOUND('',#347,.T.);
#426=FACE_BOUND('',#348,.T.);
#427=FACE_BOUND('',#349,.T.);
#428=FACE_BOUND('',#350,.T.);
#429=FACE_BOUND('',#351,.T.);
#430=FACE_BOUND('',#352,.T.);
#431=FACE_BOUND('',#353,.T.);
#432=FACE_BOUND('',#354,.T.);
#433=FACE_BOUND('',#355,.T.);
#434=FACE_BOUND('',#356,.T.);
#435=FACE_BOUND('',#357,.T.);
#436=FACE_BOUND('',#358,.T.);
#437=FACE_BOUND('',#359,.T.);
#438=FACE_BOUND('',#360,.T.);
#439=FACE_BOUND('',#361,.T.);
#440=PLANE('',#493);
#441=PLANE('',#494);
#442=PLANE('',#495);
#443=PLANE('',#496);
#444=PLANE('',#497);
#445=PLANE('',#508);
#446=PLANE('',#554);
#447=PLANE('',#558);
#448=ADVANCED_FACE('',(#362),#440,.T.);
#449=ADVANCED_FACE('',(#363),#441,.F.);
#450=ADVANCED_FACE('',(#364),#442,.F.);
#451=ADVANCED_FACE('',(#365),#443,.T.);
#452=ADVANCED_FACE('',(#366,#367,#368,#369,#370,#371,#372,#373,#374,#375,
#376),#444,.T.);
#453=ADVANCED_FACE('',(#377,#378,#379,#380,#381,#382,#383,#384,#385,#386,
#387,#388,#389),#445,.F.);
#454=ADVANCED_FACE('',(#390,#391),#24,.F.);
#455=ADVANCED_FACE('',(#392,#393),#14,.F.);
#456=ADVANCED_FACE('',(#394,#395),#25,.F.);
#457=ADVANCED_FACE('',(#396,#397),#15,.F.);
#458=ADVANCED_FACE('',(#398,#399),#26,.F.);
#459=ADVANCED_FACE('',(#400,#401),#16,.F.);
#460=ADVANCED_FACE('',(#402,#403),#27,.F.);
#461=ADVANCED_FACE('',(#404,#405),#17,.F.);
#462=ADVANCED_FACE('',(#406,#407),#28,.F.);
#463=ADVANCED_FACE('',(#408,#409),#18,.F.);
#464=ADVANCED_FACE('',(#410,#411),#29,.F.);
#465=ADVANCED_FACE('',(#412,#413),#19,.F.);
#466=ADVANCED_FACE('',(#414,#415),#30,.F.);
#467=ADVANCED_FACE('',(#416,#417),#20,.F.);
#468=ADVANCED_FACE('',(#418,#419),#31,.F.);
#469=ADVANCED_FACE('',(#420,#421),#21,.F.);
#470=ADVANCED_FACE('',(#422,#423),#32,.F.);
#471=ADVANCED_FACE('',(#424,#425),#22,.F.);
#472=ADVANCED_FACE('',(#426,#427),#33,.F.);
#473=ADVANCED_FACE('',(#428,#429),#23,.F.);
#474=ADVANCED_FACE('',(#430,#431),#34,.T.);
#475=ADVANCED_FACE('',(#432),#446,.T.);
#476=ADVANCED_FACE('',(#433,#434),#35,.T.);
#477=ADVANCED_FACE('',(#435),#447,.T.);
#478=ADVANCED_FACE('',(#436,#437),#12,.F.);
#479=ADVANCED_FACE('',(#438,#439),#13,.F.);
#480=CLOSED_SHELL('',(#448,#449,#450,#451,#452,#453,#454,#455,#456,#457,
#458,#459,#460,#461,#462,#463,#464,#465,#466,#467,#468,#469,#470,#471,#472,
#473,#474,#475,#476,#477,#478,#479));
#481=STYLED_ITEM('',(#482),#489);
#482=PRESENTATION_STYLE_ASSIGNMENT((#483));
#483=SURFACE_STYLE_USAGE(.BOTH.,#484);
#484=SURFACE_SIDE_STYLE('',(#485));
#485=SURFACE_STYLE_FILL_AREA(#486);
#486=FILL_AREA_STYLE('',(#487));
#487=FILL_AREA_STYLE_COLOUR('',#488);
#488=COLOUR_RGB('',0.647058823529412,0.647058823529412,0.647058823529412);
#489=MANIFOLD_SOLID_BREP('CaseBackplate',#480);
#490=SHAPE_DEFINITION_REPRESENTATION(#842,#491);
#491=SHAPE_REPRESENTATION('CaseBackplate',(#492),#837);
#492=AXIS2_PLACEMENT_3D('',#711,#561,#562);
#493=AXIS2_PLACEMENT_3D('',#712,#563,#564);
#494=AXIS2_PLACEMENT_3D('',#721,#569,#570);
#495=AXIS2_PLACEMENT_3D('',#727,#574,#575);
#496=AXIS2_PLACEMENT_3D('',#733,#579,#580);
#497=AXIS2_PLACEMENT_3D('',#736,#583,#584);
#498=AXIS2_PLACEMENT_3D('',#737,#585,#586);
#499=AXIS2_PLACEMENT_3D('',#739,#587,#588);
#500=AXIS2_PLACEMENT_3D('',#741,#589,#590);
#501=AXIS2_PLACEMENT_3D('',#743,#591,#592);
#502=AXIS2_PLACEMENT_3D('',#745,#593,#594);
#503=AXIS2_PLACEMENT_3D('',#747,#595,#596);
#504=AXIS2_PLACEMENT_3D('',#749,#597,#598);
#505=AXIS2_PLACEMENT_3D('',#751,#599,#600);
#506=AXIS2_PLACEMENT_3D('',#753,#601,#602);
#507=AXIS2_PLACEMENT_3D('',#755,#603,#604);
#508=AXIS2_PLACEMENT_3D('',#757,#605,#606);
#509=AXIS2_PLACEMENT_3D('',#758,#607,#608);
#510=AXIS2_PLACEMENT_3D('',#760,#609,#610);
#511=AXIS2_PLACEMENT_3D('',#762,#611,#612);
#512=AXIS2_PLACEMENT_3D('',#764,#613,#614);
#513=AXIS2_PLACEMENT_3D('',#766,#615,#616);
#514=AXIS2_PLACEMENT_3D('',#768,#617,#618);
#515=AXIS2_PLACEMENT_3D('',#770,#619,#620);
#516=AXIS2_PLACEMENT_3D('',#772,#621,#622);
#517=AXIS2_PLACEMENT_3D('',#774,#623,#624);
#518=AXIS2_PLACEMENT_3D('',#776,#625,#626);
#519=AXIS2_PLACEMENT_3D('',#778,#627,#628);
#520=AXIS2_PLACEMENT_3D('',#780,#629,#630);
#521=AXIS2_PLACEMENT_3D('',#782,#631,#632);
#522=AXIS2_PLACEMENT_3D('',#783,#633,#634);
#523=AXIS2_PLACEMENT_3D('',#785,#635,#636);
#524=AXIS2_PLACEMENT_3D('',#786,#637,#638);
#525=AXIS2_PLACEMENT_3D('',#787,#639,#640);
#526=AXIS2_PLACEMENT_3D('',#789,#641,#642);
#527=AXIS2_PLACEMENT_3D('',#790,#643,#644);
#528=AXIS2_PLACEMENT_3D('',#791,#645,#646);
#529=AXIS2_PLACEMENT_3D('',#793,#647,#648);
#530=AXIS2_PLACEMENT_3D('',#794,#649,#650);
#531=AXIS2_PLACEMENT_3D('',#795,#651,#652);
#532=AXIS2_PLACEMENT_3D('',#797,#653,#654);
#533=AXIS2_PLACEMENT_3D('',#798,#655,#656);
#534=AXIS2_PLACEMENT_3D('',#799,#657,#658);
#535=AXIS2_PLACEMENT_3D('',#801,#659,#660);
#536=AXIS2_PLACEMENT_3D('',#802,#661,#662);
#537=AXIS2_PLACEMENT_3D('',#803,#663,#664);
#538=AXIS2_PLACEMENT_3D('',#805,#665,#666);
#539=AXIS2_PLACEMENT_3D('',#806,#667,#668);
#540=AXIS2_PLACEMENT_3D('',#807,#669,#670);
#541=AXIS2_PLACEMENT_3D('',#809,#671,#672);
#542=AXIS2_PLACEMENT_3D('',#810,#673,#674);
#543=AXIS2_PLACEMENT_3D('',#811,#675,#676);
#544=AXIS2_PLACEMENT_3D('',#813,#677,#678);
#545=AXIS2_PLACEMENT_3D('',#814,#679,#680);
#546=AXIS2_PLACEMENT_3D('',#815,#681,#682);
#547=AXIS2_PLACEMENT_3D('',#817,#683,#684);
#548=AXIS2_PLACEMENT_3D('',#818,#685,#686);
#549=AXIS2_PLACEMENT_3D('',#819,#687,#688);
#550=AXIS2_PLACEMENT_3D('',#821,#689,#690);
#551=AXIS2_PLACEMENT_3D('',#822,#691,#692);
#552=AXIS2_PLACEMENT_3D('',#823,#693,#694);
#553=AXIS2_PLACEMENT_3D('',#825,#695,#696);
#554=AXIS2_PLACEMENT_3D('',#827,#697,#698);
#555=AXIS2_PLACEMENT_3D('',#828,#699,#700);
#556=AXIS2_PLACEMENT_3D('',#829,#701,#702);
#557=AXIS2_PLACEMENT_3D('',#831,#703,#704);
#558=AXIS2_PLACEMENT_3D('',#833,#705,#706);
#559=AXIS2_PLACEMENT_3D('',#834,#707,#708);
#560=AXIS2_PLACEMENT_3D('',#835,#709,#710);
#561=DIRECTION('',(0.,0.,1.));
#562=DIRECTION('',(1.,0.,0.));
#563=DIRECTION('',(0.,0.,1.));
#564=DIRECTION('',(0.,-1.,0.));
#565=DIRECTION('',(1.,0.,0.));
#566=DIRECTION('',(0.,1.,0.));
#567=DIRECTION('',(1.,0.,0.));
#568=DIRECTION('',(0.,1.,0.));
#569=DIRECTION('',(1.,0.,0.));
#570=DIRECTION('',(0.,-1.,0.));
#571=DIRECTION('',(0.,0.,-1.));
#572=DIRECTION('',(0.,1.,0.));
#573=DIRECTION('',(0.,0.,-1.));
#574=DIRECTION('',(0.,0.,1.));
#575=DIRECTION('',(0.,-1.,0.));
#576=DIRECTION('',(1.,0.,0.));
#577=DIRECTION('',(0.,1.,0.));
#578=DIRECTION('',(1.,0.,0.));
#579=DIRECTION('',(1.,0.,1.16132115546564E-16));
#580=DIRECTION('',(1.16132115546564E-16,0.,-1.));
#581=DIRECTION('',(1.16132115546564E-16,0.,-1.));
#582=DIRECTION('',(1.16132115546564E-16,0.,-1.));
#583=DIRECTION('',(0.,-1.,0.));
#584=DIRECTION('',(1.,0.,0.));
#585=DIRECTION('',(0.,1.,0.));
#586=DIRECTION('',(1.,0.,0.));
#587=DIRECTION('',(0.,1.,0.));
#588=DIRECTION('',(1.,0.,0.));
#589=DIRECTION('',(0.,1.,0.));
#590=DIRECTION('',(1.,0.,0.));
#591=DIRECTION('',(0.,1.,0.));
#592=DIRECTION('',(1.,0.,0.));
#593=DIRECTION('',(0.,1.,0.));
#594=DIRECTION('',(1.,0.,0.));
#595=DIRECTION('',(0.,1.,0.));
#596=DIRECTION('',(1.,0.,0.));
#597=DIRECTION('',(0.,1.,0.));
#598=DIRECTION('',(1.,0.,0.));
#599=DIRECTION('',(0.,1.,0.));
#600=DIRECTION('',(1.,0.,0.));
#601=DIRECTION('',(0.,1.,0.));
#602=DIRECTION('',(1.,0.,0.));
#603=DIRECTION('',(0.,1.,0.));
#604=DIRECTION('',(1.,0.,0.));
#605=DIRECTION('',(0.,-1.,0.));
#606=DIRECTION('',(1.,0.,0.));
#607=DIRECTION('',(0.,-1.,0.));
#608=DIRECTION('',(-1.,0.,0.));
#609=DIRECTION('',(0.,-1.,0.));
#610=DIRECTION('',(-1.,0.,0.));
#611=DIRECTION('',(0.,-1.,0.));
#612=DIRECTION('',(-1.,0.,0.));
#613=DIRECTION('',(0.,-1.,0.));
#614=DIRECTION('',(-1.,0.,0.));
#615=DIRECTION('',(0.,-1.,0.));
#616=DIRECTION('',(-1.,0.,0.));
#617=DIRECTION('',(0.,-1.,0.));
#618=DIRECTION('',(-1.,0.,0.));
#619=DIRECTION('',(0.,-1.,0.));
#620=DIRECTION('',(-1.,0.,0.));
#621=DIRECTION('',(0.,-1.,0.));
#622=DIRECTION('',(-1.,0.,0.));
#623=DIRECTION('',(0.,-1.,0.));
#624=DIRECTION('',(-1.,0.,0.));
#625=DIRECTION('',(0.,-1.,0.));
#626=DIRECTION('',(-1.,0.,0.));
#627=DIRECTION('',(0.,-1.,0.));
#628=DIRECTION('',(-1.,0.,0.));
#629=DIRECTION('',(0.,-1.,0.));
#630=DIRECTION('',(-1.,0.,0.));
#631=DIRECTION('',(0.,1.,0.));
#632=DIRECTION('',(1.,0.,0.));
#633=DIRECTION('',(0.,1.,0.));
#634=DIRECTION('',(1.,0.,0.));
#635=DIRECTION('',(0.,-1.,0.));
#636=DIRECTION('',(-1.,0.,0.));
#637=DIRECTION('',(0.,1.,0.));
#638=DIRECTION('',(1.,0.,0.));
#639=DIRECTION('',(0.,1.,0.));
#640=DIRECTION('',(1.,0.,0.));
#641=DIRECTION('',(0.,-1.,0.));
#642=DIRECTION('',(-1.,0.,0.));
#643=DIRECTION('',(0.,1.,0.));
#644=DIRECTION('',(1.,0.,0.));
#645=DIRECTION('',(0.,1.,0.));
#646=DIRECTION('',(1.,0.,0.));
#647=DIRECTION('',(0.,-1.,0.));
#648=DIRECTION('',(-1.,0.,0.));
#649=DIRECTION('',(0.,1.,0.));
#650=DIRECTION('',(1.,0.,0.));
#651=DIRECTION('',(0.,1.,0.));
#652=DIRECTION('',(1.,0.,0.));
#653=DIRECTION('',(0.,-1.,0.));
#654=DIRECTION('',(-1.,0.,0.));
#655=DIRECTION('',(0.,1.,0.));
#656=DIRECTION('',(1.,0.,0.));
#657=DIRECTION('',(0.,1.,0.));
#658=DIRECTION('',(1.,0.,0.));
#659=DIRECTION('',(0.,-1.,0.));
#660=DIRECTION('',(-1.,0.,0.));
#661=DIRECTION('',(0.,1.,0.));
#662=DIRECTION('',(1.,0.,0.));
#663=DIRECTION('',(0.,1.,0.));
#664=DIRECTION('',(1.,0.,0.));
#665=DIRECTION('',(0.,-1.,0.));
#666=DIRECTION('',(-1.,0.,0.));
#667=DIRECTION('',(0.,1.,0.));
#668=DIRECTION('',(1.,0.,0.));
#669=DIRECTION('',(0.,1.,0.));
#670=DIRECTION('',(1.,0.,0.));
#671=DIRECTION('',(0.,-1.,0.));
#672=DIRECTION('',(-1.,0.,0.));
#673=DIRECTION('',(0.,1.,0.));
#674=DIRECTION('',(1.,0.,0.));
#675=DIRECTION('',(0.,1.,0.));
#676=DIRECTION('',(1.,0.,0.));
#677=DIRECTION('',(0.,-1.,0.));
#678=DIRECTION('',(-1.,0.,0.));
#679=DIRECTION('',(0.,1.,0.));
#680=DIRECTION('',(1.,0.,0.));
#681=DIRECTION('',(0.,1.,0.));
#682=DIRECTION('',(1.,0.,0.));
#683=DIRECTION('',(0.,-1.,0.));
#684=DIRECTION('',(-1.,0.,0.));
#685=DIRECTION('',(0.,1.,0.));
#686=DIRECTION('',(1.,0.,0.));
#687=DIRECTION('',(0.,1.,0.));
#688=DIRECTION('',(1.,0.,0.));
#689=DIRECTION('',(0.,-1.,0.));
#690=DIRECTION('',(-1.,0.,0.));
#691=DIRECTION('',(0.,-1.,0.));
#692=DIRECTION('',(-1.,0.,0.));
#693=DIRECTION('',(0.,-1.,0.));
#694=DIRECTION('',(-1.,0.,0.));
#695=DIRECTION('',(0.,1.,0.));
#696=DIRECTION('',(1.,0.,0.));
#697=DIRECTION('',(0.,1.,0.));
#698=DIRECTION('',(1.,0.,0.));
#699=DIRECTION('',(0.,-1.,0.));
#700=DIRECTION('',(-1.,0.,0.));
#701=DIRECTION('',(0.,-1.,0.));
#702=DIRECTION('',(-1.,0.,0.));
#703=DIRECTION('',(0.,1.,0.));
#704=DIRECTION('',(1.,0.,0.));
#705=DIRECTION('',(0.,1.,0.));
#706=DIRECTION('',(1.,0.,0.));
#707=DIRECTION('',(0.,-1.,0.));
#708=DIRECTION('',(-1.,0.,0.));
#709=DIRECTION('',(0.,-1.,0.));
#710=DIRECTION('',(-1.,0.,0.));
#711=CARTESIAN_POINT('',(0.,0.,0.));
#712=CARTESIAN_POINT('',(0.,-0.02545,0.15314999638695));
#713=CARTESIAN_POINT('',(0.,-0.02245,0.15314999638695));
#714=CARTESIAN_POINT('',(-0.243,-0.02245,0.15314999638695));
#715=CARTESIAN_POINT('',(0.243,-0.02245,0.15314999638695));
#716=CARTESIAN_POINT('',(-0.243,-0.02545,0.15314999638695));
#717=CARTESIAN_POINT('',(-0.243,-0.02545,0.15314999638695));
#718=CARTESIAN_POINT('',(0.,-0.02545,0.15314999638695));
#719=CARTESIAN_POINT('',(0.243,-0.02545,0.15314999638695));
#720=CARTESIAN_POINT('',(0.243,-0.02545,0.15314999638695));
#721=CARTESIAN_POINT('',(-0.243,-0.02545,0.0301499963869497));
#722=CARTESIAN_POINT('',(-0.243,-0.02245,0.0301499963869497));
#723=CARTESIAN_POINT('',(-0.243,-0.02245,-0.0928500036130503));
#724=CARTESIAN_POINT('',(-0.243,-0.02545,-0.0928500036130503));
#725=CARTESIAN_POINT('',(-0.243,-0.02545,-0.0928500036130503));
#726=CARTESIAN_POINT('',(-0.243,-0.02545,0.0301499963869497));
#727=CARTESIAN_POINT('',(0.,-0.02545,-0.0928500036130503));
#728=CARTESIAN_POINT('',(0.,-0.02245,-0.0928500036130503));
#729=CARTESIAN_POINT('',(0.243,-0.02245,-0.0928500036130503));
#730=CARTESIAN_POINT('',(0.243,-0.02545,-0.0928500036130503));
#731=CARTESIAN_POINT('',(0.243,-0.02545,-0.0928500036130503));
#732=CARTESIAN_POINT('',(0.,-0.02545,-0.0928500036130503));
#733=CARTESIAN_POINT('',(0.243,-0.02545,0.0301499963869497));
#734=CARTESIAN_POINT('',(0.243,-0.02245,0.0301499963869497));
#735=CARTESIAN_POINT('',(0.243,-0.02545,0.0301499963869497));
#736=CARTESIAN_POINT('',(0.,-0.02545,0.0301499963869497));
#737=CARTESIAN_POINT('',(0.191,-0.02545,0.0301499963869497));
#738=CARTESIAN_POINT('',(0.194,-0.02545,0.0301499963869497));
#739=CARTESIAN_POINT('',(0.111,-0.02545,0.0301499963869497));
#740=CARTESIAN_POINT('',(0.114,-0.02545,0.0301499963869497));
#741=CARTESIAN_POINT('',(-0.109,-0.02545,0.0301499963869497));
#742=CARTESIAN_POINT('',(-0.106,-0.02545,0.0301499963869497));
#743=CARTESIAN_POINT('',(-0.189,-0.02545,0.0301499963869497));
#744=CARTESIAN_POINT('',(-0.186,-0.02545,0.0301499963869497));
#745=CARTESIAN_POINT('',(-0.239,-0.02545,0.0301499963869497));
#746=CARTESIAN_POINT('',(-0.236,-0.02545,0.0301499963869497));
#747=CARTESIAN_POINT('',(-0.239,-0.02545,-0.0888500036130503));
#748=CARTESIAN_POINT('',(-0.236,-0.02545,-0.0888500036130503));
#749=CARTESIAN_POINT('',(0.239,-0.02545,-0.0888500036130503));
#750=CARTESIAN_POINT('',(0.242,-0.02545,-0.0888500036130503));
#751=CARTESIAN_POINT('',(0.239,-0.02545,0.14914999638695));
#752=CARTESIAN_POINT('',(0.242,-0.02545,0.14914999638695));
#753=CARTESIAN_POINT('',(0.111,-0.02545,-0.0148500036130502));
#754=CARTESIAN_POINT('',(0.114,-0.02545,-0.0148500036130502));
#755=CARTESIAN_POINT('',(-0.239,-0.02545,0.14914999638695));
#756=CARTESIAN_POINT('',(-0.236,-0.02545,0.14914999638695));
#757=CARTESIAN_POINT('',(0.,-0.02245,0.0301499963869497));
#758=CARTESIAN_POINT('',(-1.53080849893419E-19,-0.02245,0.095));
#759=CARTESIAN_POINT('',(-0.0065,-0.02245,0.095));
#760=CARTESIAN_POINT('',(-1.53080849893419E-19,-0.02245,-0.025));
#761=CARTESIAN_POINT('',(-0.0065,-0.02245,-0.025));
#762=CARTESIAN_POINT('',(0.191,-0.02245,0.0301499963869497));
#763=CARTESIAN_POINT('',(0.1894,-0.02245,0.0301499963869497));
#764=CARTESIAN_POINT('',(0.111,-0.02245,0.0301499963869497));
#765=CARTESIAN_POINT('',(0.1094,-0.02245,0.0301499963869497));
#766=CARTESIAN_POINT('',(-0.109,-0.02245,0.0301499963869497));
#767=CARTESIAN_POINT('',(-0.1106,-0.02245,0.0301499963869497));
#768=CARTESIAN_POINT('',(-0.189,-0.02245,0.0301499963869497));
#769=CARTESIAN_POINT('',(-0.1906,-0.02245,0.0301499963869497));
#770=CARTESIAN_POINT('',(-0.239,-0.02245,0.0301499963869497));
#771=CARTESIAN_POINT('',(-0.2406,-0.02245,0.0301499963869497));
#772=CARTESIAN_POINT('',(-0.239,-0.02245,-0.0888500036130503));
#773=CARTESIAN_POINT('',(-0.2406,-0.02245,-0.0888500036130503));
#774=CARTESIAN_POINT('',(0.239,-0.02245,-0.0888500036130503));
#775=CARTESIAN_POINT('',(0.2374,-0.02245,-0.0888500036130503));
#776=CARTESIAN_POINT('',(0.239,-0.02245,0.14914999638695));
#777=CARTESIAN_POINT('',(0.2374,-0.02245,0.14914999638695));
#778=CARTESIAN_POINT('',(0.111,-0.02245,-0.0148500036130502));
#779=CARTESIAN_POINT('',(0.1094,-0.02245,-0.0148500036130502));
#780=CARTESIAN_POINT('',(-0.239,-0.02245,0.14914999638695));
#781=CARTESIAN_POINT('',(-0.2406,-0.02245,0.14914999638695));
#782=CARTESIAN_POINT('',(-0.239,-0.02545,0.14914999638695));
#783=CARTESIAN_POINT('',(-0.239,-0.02405,0.14914999638695));
#784=CARTESIAN_POINT('',(-0.2374,-0.02405,0.14914999638695));
#785=CARTESIAN_POINT('',(-0.239,-0.02545,0.14914999638695));
#786=CARTESIAN_POINT('',(0.111,-0.02545,-0.0148500036130502));
#787=CARTESIAN_POINT('',(0.111,-0.02405,-0.0148500036130502));
#788=CARTESIAN_POINT('',(0.1126,-0.02405,-0.0148500036130502));
#789=CARTESIAN_POINT('',(0.111,-0.02545,-0.0148500036130502));
#790=CARTESIAN_POINT('',(0.239,-0.02545,0.14914999638695));
#791=CARTESIAN_POINT('',(0.239,-0.02405,0.14914999638695));
#792=CARTESIAN_POINT('',(0.2406,-0.02405,0.14914999638695));
#793=CARTESIAN_POINT('',(0.239,-0.02545,0.14914999638695));
#794=CARTESIAN_POINT('',(0.239,-0.02545,-0.0888500036130503));
#795=CARTESIAN_POINT('',(0.239,-0.02405,-0.0888500036130503));
#796=CARTESIAN_POINT('',(0.2406,-0.02405,-0.0888500036130503));
#797=CARTESIAN_POINT('',(0.239,-0.02545,-0.0888500036130503));
#798=CARTESIAN_POINT('',(-0.239,-0.02545,-0.0888500036130503));
#799=CARTESIAN_POINT('',(-0.239,-0.02405,-0.0888500036130503));
#800=CARTESIAN_POINT('',(-0.2374,-0.02405,-0.0888500036130503));
#801=CARTESIAN_POINT('',(-0.239,-0.02545,-0.0888500036130503));
#802=CARTESIAN_POINT('',(-0.239,-0.02545,0.0301499963869497));
#803=CARTESIAN_POINT('',(-0.239,-0.02405,0.0301499963869497));
#804=CARTESIAN_POINT('',(-0.2374,-0.02405,0.0301499963869497));
#805=CARTESIAN_POINT('',(-0.239,-0.02545,0.0301499963869497));
#806=CARTESIAN_POINT('',(-0.189,-0.02545,0.0301499963869497));
#807=CARTESIAN_POINT('',(-0.189,-0.02405,0.0301499963869497));
#808=CARTESIAN_POINT('',(-0.1874,-0.02405,0.0301499963869497));
#809=CARTESIAN_POINT('',(-0.189,-0.02545,0.0301499963869497));
#810=CARTESIAN_POINT('',(-0.109,-0.02545,0.0301499963869497));
#811=CARTESIAN_POINT('',(-0.109,-0.02405,0.0301499963869497));
#812=CARTESIAN_POINT('',(-0.1074,-0.02405,0.0301499963869497));
#813=CARTESIAN_POINT('',(-0.109,-0.02545,0.0301499963869497));
#814=CARTESIAN_POINT('',(0.111,-0.02545,0.0301499963869497));
#815=CARTESIAN_POINT('',(0.111,-0.02405,0.0301499963869497));
#816=CARTESIAN_POINT('',(0.1126,-0.02405,0.0301499963869497));
#817=CARTESIAN_POINT('',(0.111,-0.02545,0.0301499963869497));
#818=CARTESIAN_POINT('',(0.191,-0.02545,0.0301499963869497));
#819=CARTESIAN_POINT('',(0.191,-0.02405,0.0301499963869497));
#820=CARTESIAN_POINT('',(0.1926,-0.02405,0.0301499963869497));
#821=CARTESIAN_POINT('',(0.191,-0.02545,0.0301499963869497));
#822=CARTESIAN_POINT('',(-1.53080849893419E-19,-0.00151,-0.025));
#823=CARTESIAN_POINT('',(-1.53080849893419E-19,-0.01845,-0.025));
#824=CARTESIAN_POINT('',(-0.0025,-0.01845,-0.025));
#825=CARTESIAN_POINT('',(-1.53080849893419E-19,-0.00151,-0.025));
#826=CARTESIAN_POINT('',(0.0025,-0.00151,-0.025));
#827=CARTESIAN_POINT('',(0.,-0.00151,0.0301499963869497));
#828=CARTESIAN_POINT('',(-1.53080849893419E-19,-0.00051,0.095));
#829=CARTESIAN_POINT('',(-1.53080849893419E-19,-0.01845,0.095));
#830=CARTESIAN_POINT('',(-0.0025,-0.01845,0.095));
#831=CARTESIAN_POINT('',(-1.53080849893419E-19,-0.00051,0.095));
#832=CARTESIAN_POINT('',(0.0025,-0.00051,0.095));
#833=CARTESIAN_POINT('',(0.,-0.00051,0.0301499963869497));
#834=CARTESIAN_POINT('',(-1.53080849893419E-19,-0.01845,0.095));
#835=CARTESIAN_POINT('',(-1.53080849893419E-19,-0.01845,-0.025));
#836=MECHANICAL_DESIGN_GEOMETRIC_PRESENTATION_REPRESENTATION('',(#481),
#837);
#837=(
GEOMETRIC_REPRESENTATION_CONTEXT(3)
GLOBAL_UNCERTAINTY_ASSIGNED_CONTEXT((#838))
GLOBAL_UNIT_ASSIGNED_CONTEXT((#841,#840,#839))
REPRESENTATION_CONTEXT('CaseBackplate','TOP_LEVEL_ASSEMBLY_PART')
);
#838=UNCERTAINTY_MEASURE_WITH_UNIT(LENGTH_MEASURE(1.E-8),#841,
'DISTANCE_ACCURACY_VALUE','Maximum Tolerance applied to model');
#839=(
NAMED_UNIT(*)
SI_UNIT($,.STERADIAN.)
SOLID_ANGLE_UNIT()
);
#840=(
NAMED_UNIT(*)
PLANE_ANGLE_UNIT()
SI_UNIT($,.RADIAN.)
);
#841=(
LENGTH_UNIT()
NAMED_UNIT(*)
SI_UNIT($,.METRE.)
);
#842=PRODUCT_DEFINITION_SHAPE('','',#843);
#843=PRODUCT_DEFINITION('','',#845,#844);
#844=PRODUCT_DEFINITION_CONTEXT('',#851,'design');
#845=PRODUCT_DEFINITION_FORMATION_WITH_SPECIFIED_SOURCE('','',#847,
 .NOT_KNOWN.);
#846=PRODUCT_RELATED_PRODUCT_CATEGORY('','',(#847));
#847=PRODUCT('CaseBackplate','CaseBackplate','CaseBackplate',(#849));
#848=PRODUCT_CATEGORY('','');
#849=PRODUCT_CONTEXT('',#851,'mechanical');
#850=APPLICATION_PROTOCOL_DEFINITION('international standard',
'ap242_managed_model_based_3d_engineering',2020,#851);
#851=APPLICATION_CONTEXT('managed model based 3d engineering');
ENDSEC;
END-ISO-10303-21;
