ISO-10303-21;
HEADER;
/* Generated by software containing ST-Developer
 * from STEP Tools, Inc. (www.steptools.com) 
 */
/* OPTION: using custom renumber hook */

FILE_DESCRIPTION(
/* description */ ('STEP AP242 Edition 2',
'CAx-IF Rec.Pracs.---Representation and Presentation of Product Manufa
cturing Information (PMI)---4.0---2014-10-13',
'CAx-IF Rec.Pracs.---3D Tessellated Geometry---0.4---2014-09-14','2;1',
'CAx-IF Rec.Pracs.---User Defined Attributes---1.5---2016-08-15'),
/* implementation_level */ '2;1');

FILE_NAME(
/* name */ 'Part Studio 2 - ChCueKeycap',
/* time_stamp */ '2026-06-20T20:03:28Z',
/* author */ (''),
/* organization */ (''),
/* preprocessor_version */ 'ST-DEVELOPER v20',
/* originating_system */ 'ONSHAPE BY PTC INC, 1.216',
/* authorisation */ '  ');

FILE_SCHEMA (('AP242_MANAGED_MODEL_BASED_3D_ENGINEERING_MIM_LF { 1 0 10303 442 3 1 4 }'));
ENDSEC;

DATA;
#10=SHAPE_REPRESENTATION_RELATIONSHIP('','',#481,#11);
#11=ADVANCED_BREP_SHAPE_REPRESENTATION('',(#479),#805);
#12=SPHERICAL_SURFACE('',#519,0.001);
#13=SPHERICAL_SURFACE('',#522,0.001);
#14=SPHERICAL_SURFACE('',#525,0.001);
#15=SPHERICAL_SURFACE('',#528,0.001);
#16=CYLINDRICAL_SURFACE('',#489,0.0015);
#17=CYLINDRICAL_SURFACE('',#507,0.001);
#18=CYLINDRICAL_SURFACE('',#510,0.001);
#19=CYLINDRICAL_SURFACE('',#513,0.001);
#20=CYLINDRICAL_SURFACE('',#516,0.001);
#21=CYLINDRICAL_SURFACE('',#521,0.001);
#22=CYLINDRICAL_SURFACE('',#524,0.001);
#23=CYLINDRICAL_SURFACE('',#527,0.001);
#24=CYLINDRICAL_SURFACE('',#530,0.001);
#25=CIRCLE('',#488,0.0015);
#26=CIRCLE('',#490,0.0015);
#27=CIRCLE('',#495,0.001);
#28=CIRCLE('',#496,0.001);
#29=CIRCLE('',#497,0.001);
#30=CIRCLE('',#498,0.001);
#31=CIRCLE('',#508,0.001);
#32=CIRCLE('',#509,0.001);
#33=CIRCLE('',#511,0.001);
#34=CIRCLE('',#512,0.001);
#35=CIRCLE('',#514,0.001);
#36=CIRCLE('',#515,0.001);
#37=CIRCLE('',#517,0.001);
#38=CIRCLE('',#518,0.001);
#39=CIRCLE('',#520,0.001);
#40=CIRCLE('',#523,0.001);
#41=CIRCLE('',#526,0.001);
#42=CIRCLE('',#529,0.001);
#43=ORIENTED_EDGE('',*,*,#167,.F.);
#44=ORIENTED_EDGE('',*,*,#168,.T.);
#45=ORIENTED_EDGE('',*,*,#169,.T.);
#46=ORIENTED_EDGE('',*,*,#170,.F.);
#47=ORIENTED_EDGE('',*,*,#171,.F.);
#48=ORIENTED_EDGE('',*,*,#167,.T.);
#49=ORIENTED_EDGE('',*,*,#172,.T.);
#50=ORIENTED_EDGE('',*,*,#173,.F.);
#51=ORIENTED_EDGE('',*,*,#174,.F.);
#52=ORIENTED_EDGE('',*,*,#173,.T.);
#53=ORIENTED_EDGE('',*,*,#175,.T.);
#54=ORIENTED_EDGE('',*,*,#176,.F.);
#55=ORIENTED_EDGE('',*,*,#169,.F.);
#56=ORIENTED_EDGE('',*,*,#177,.T.);
#57=ORIENTED_EDGE('',*,*,#176,.T.);
#58=ORIENTED_EDGE('',*,*,#178,.F.);
#59=ORIENTED_EDGE('',*,*,#179,.T.);
#60=ORIENTED_EDGE('',*,*,#170,.T.);
#61=ORIENTED_EDGE('',*,*,#178,.T.);
#62=ORIENTED_EDGE('',*,*,#175,.F.);
#63=ORIENTED_EDGE('',*,*,#172,.F.);
#64=ORIENTED_EDGE('',*,*,#180,.T.);
#65=ORIENTED_EDGE('',*,*,#179,.F.);
#66=ORIENTED_EDGE('',*,*,#180,.F.);
#67=ORIENTED_EDGE('',*,*,#168,.F.);
#68=ORIENTED_EDGE('',*,*,#171,.T.);
#69=ORIENTED_EDGE('',*,*,#174,.T.);
#70=ORIENTED_EDGE('',*,*,#177,.F.);
#71=ORIENTED_EDGE('',*,*,#181,.T.);
#72=ORIENTED_EDGE('',*,*,#182,.F.);
#73=ORIENTED_EDGE('',*,*,#183,.F.);
#74=ORIENTED_EDGE('',*,*,#184,.T.);
#75=ORIENTED_EDGE('',*,*,#185,.F.);
#76=ORIENTED_EDGE('',*,*,#186,.F.);
#77=ORIENTED_EDGE('',*,*,#187,.T.);
#78=ORIENTED_EDGE('',*,*,#182,.T.);
#79=ORIENTED_EDGE('',*,*,#188,.F.);
#80=ORIENTED_EDGE('',*,*,#189,.T.);
#81=ORIENTED_EDGE('',*,*,#190,.F.);
#82=ORIENTED_EDGE('',*,*,#191,.T.);
#83=ORIENTED_EDGE('',*,*,#192,.T.);
#84=ORIENTED_EDGE('',*,*,#193,.T.);
#85=ORIENTED_EDGE('',*,*,#194,.T.);
#86=ORIENTED_EDGE('',*,*,#195,.T.);
#87=ORIENTED_EDGE('',*,*,#196,.T.);
#88=ORIENTED_EDGE('',*,*,#197,.F.);
#89=ORIENTED_EDGE('',*,*,#198,.F.);
#90=ORIENTED_EDGE('',*,*,#186,.T.);
#91=ORIENTED_EDGE('',*,*,#199,.T.);
#92=ORIENTED_EDGE('',*,*,#184,.F.);
#93=ORIENTED_EDGE('',*,*,#200,.F.);
#94=ORIENTED_EDGE('',*,*,#197,.T.);
#95=ORIENTED_EDGE('',*,*,#183,.T.);
#96=ORIENTED_EDGE('',*,*,#187,.F.);
#97=ORIENTED_EDGE('',*,*,#198,.T.);
#98=ORIENTED_EDGE('',*,*,#200,.T.);
#99=ORIENTED_EDGE('',*,*,#181,.F.);
#100=ORIENTED_EDGE('',*,*,#199,.F.);
#101=ORIENTED_EDGE('',*,*,#196,.F.);
#102=ORIENTED_EDGE('',*,*,#185,.T.);
#103=ORIENTED_EDGE('',*,*,#201,.T.);
#104=ORIENTED_EDGE('',*,*,#202,.T.);
#105=ORIENTED_EDGE('',*,*,#203,.T.);
#106=ORIENTED_EDGE('',*,*,#204,.T.);
#107=ORIENTED_EDGE('',*,*,#190,.T.);
#108=ORIENTED_EDGE('',*,*,#205,.T.);
#109=ORIENTED_EDGE('',*,*,#206,.T.);
#110=ORIENTED_EDGE('',*,*,#207,.T.);
#111=ORIENTED_EDGE('',*,*,#208,.T.);
#112=ORIENTED_EDGE('',*,*,#209,.T.);
#113=ORIENTED_EDGE('',*,*,#192,.F.);
#114=ORIENTED_EDGE('',*,*,#210,.T.);
#115=ORIENTED_EDGE('',*,*,#211,.T.);
#116=ORIENTED_EDGE('',*,*,#212,.T.);
#117=ORIENTED_EDGE('',*,*,#194,.F.);
#118=ORIENTED_EDGE('',*,*,#213,.T.);
#119=ORIENTED_EDGE('',*,*,#214,.T.);
#120=ORIENTED_EDGE('',*,*,#215,.T.);
#121=ORIENTED_EDGE('',*,*,#188,.T.);
#122=ORIENTED_EDGE('',*,*,#216,.T.);
#123=ORIENTED_EDGE('',*,*,#206,.F.);
#124=ORIENTED_EDGE('',*,*,#217,.T.);
#125=ORIENTED_EDGE('',*,*,#203,.F.);
#126=ORIENTED_EDGE('',*,*,#218,.T.);
#127=ORIENTED_EDGE('',*,*,#204,.F.);
#128=ORIENTED_EDGE('',*,*,#219,.T.);
#129=ORIENTED_EDGE('',*,*,#214,.F.);
#130=ORIENTED_EDGE('',*,*,#220,.T.);
#131=ORIENTED_EDGE('',*,*,#202,.F.);
#132=ORIENTED_EDGE('',*,*,#221,.T.);
#133=ORIENTED_EDGE('',*,*,#208,.F.);
#134=ORIENTED_EDGE('',*,*,#222,.T.);
#135=ORIENTED_EDGE('',*,*,#201,.F.);
#136=ORIENTED_EDGE('',*,*,#223,.T.);
#137=ORIENTED_EDGE('',*,*,#211,.F.);
#138=ORIENTED_EDGE('',*,*,#224,.T.);
#139=ORIENTED_EDGE('',*,*,#219,.F.);
#140=ORIENTED_EDGE('',*,*,#217,.F.);
#141=ORIENTED_EDGE('',*,*,#225,.F.);
#142=ORIENTED_EDGE('',*,*,#225,.T.);
#143=ORIENTED_EDGE('',*,*,#205,.F.);
#144=ORIENTED_EDGE('',*,*,#189,.F.);
#145=ORIENTED_EDGE('',*,*,#215,.F.);
#146=ORIENTED_EDGE('',*,*,#223,.F.);
#147=ORIENTED_EDGE('',*,*,#220,.F.);
#148=ORIENTED_EDGE('',*,*,#226,.F.);
#149=ORIENTED_EDGE('',*,*,#226,.T.);
#150=ORIENTED_EDGE('',*,*,#216,.F.);
#151=ORIENTED_EDGE('',*,*,#195,.F.);
#152=ORIENTED_EDGE('',*,*,#212,.F.);
#153=ORIENTED_EDGE('',*,*,#221,.F.);
#154=ORIENTED_EDGE('',*,*,#224,.F.);
#155=ORIENTED_EDGE('',*,*,#227,.F.);
#156=ORIENTED_EDGE('',*,*,#227,.T.);
#157=ORIENTED_EDGE('',*,*,#213,.F.);
#158=ORIENTED_EDGE('',*,*,#193,.F.);
#159=ORIENTED_EDGE('',*,*,#209,.F.);
#160=ORIENTED_EDGE('',*,*,#218,.F.);
#161=ORIENTED_EDGE('',*,*,#222,.F.);
#162=ORIENTED_EDGE('',*,*,#228,.F.);
#163=ORIENTED_EDGE('',*,*,#228,.T.);
#164=ORIENTED_EDGE('',*,*,#210,.F.);
#165=ORIENTED_EDGE('',*,*,#191,.F.);
#166=ORIENTED_EDGE('',*,*,#207,.F.);
#167=EDGE_CURVE('',#229,#230,#267,.T.);
#168=EDGE_CURVE('',#229,#231,#268,.T.);
#169=EDGE_CURVE('',#231,#232,#269,.T.);
#170=EDGE_CURVE('',#230,#232,#270,.T.);
#171=EDGE_CURVE('',#229,#233,#271,.T.);
#172=EDGE_CURVE('',#230,#234,#272,.T.);
#173=EDGE_CURVE('',#233,#234,#273,.T.);
#174=EDGE_CURVE('',#233,#235,#274,.T.);
#175=EDGE_CURVE('',#234,#236,#275,.T.);
#176=EDGE_CURVE('',#235,#236,#276,.T.);
#177=EDGE_CURVE('',#231,#235,#277,.T.);
#178=EDGE_CURVE('',#232,#236,#278,.T.);
#179=EDGE_CURVE('',#237,#237,#25,.T.);
#180=EDGE_CURVE('',#238,#238,#26,.T.);
#181=EDGE_CURVE('',#239,#240,#279,.T.);
#182=EDGE_CURVE('',#241,#240,#280,.T.);
#183=EDGE_CURVE('',#242,#241,#281,.T.);
#184=EDGE_CURVE('',#242,#239,#282,.T.);
#185=EDGE_CURVE('',#243,#240,#283,.T.);
#186=EDGE_CURVE('',#244,#243,#284,.T.);
#187=EDGE_CURVE('',#244,#241,#285,.T.);
#188=EDGE_CURVE('',#245,#246,#286,.T.);
#189=EDGE_CURVE('',#245,#247,#27,.T.);
#190=EDGE_CURVE('',#248,#247,#287,.T.);
#191=EDGE_CURVE('',#248,#249,#28,.T.);
#192=EDGE_CURVE('',#249,#250,#288,.T.);
#193=EDGE_CURVE('',#250,#251,#29,.T.);
#194=EDGE_CURVE('',#251,#252,#289,.T.);
#195=EDGE_CURVE('',#252,#246,#30,.T.);
#196=EDGE_CURVE('',#243,#253,#290,.T.);
#197=EDGE_CURVE('',#254,#253,#291,.T.);
#198=EDGE_CURVE('',#244,#254,#292,.T.);
#199=EDGE_CURVE('',#253,#239,#293,.T.);
#200=EDGE_CURVE('',#254,#242,#294,.T.);
#201=EDGE_CURVE('',#255,#256,#295,.T.);
#202=EDGE_CURVE('',#256,#257,#296,.T.);
#203=EDGE_CURVE('',#257,#258,#297,.F.);
#204=EDGE_CURVE('',#258,#255,#298,.F.);
#205=EDGE_CURVE('',#247,#259,#299,.F.);
#206=EDGE_CURVE('',#259,#260,#300,.T.);
#207=EDGE_CURVE('',#260,#248,#301,.T.);
#208=EDGE_CURVE('',#261,#262,#302,.F.);
#209=EDGE_CURVE('',#262,#250,#303,.T.);
#210=EDGE_CURVE('',#249,#261,#304,.F.);
#211=EDGE_CURVE('',#263,#264,#305,.F.);
#212=EDGE_CURVE('',#264,#252,#306,.T.);
#213=EDGE_CURVE('',#251,#263,#307,.F.);
#214=EDGE_CURVE('',#265,#266,#308,.T.);
#215=EDGE_CURVE('',#266,#245,#309,.T.);
#216=EDGE_CURVE('',#246,#265,#310,.F.);
#217=EDGE_CURVE('',#259,#258,#31,.T.);
#218=EDGE_CURVE('',#257,#260,#32,.F.);
#219=EDGE_CURVE('',#258,#266,#33,.F.);
#220=EDGE_CURVE('',#265,#255,#34,.T.);
#221=EDGE_CURVE('',#256,#262,#35,.F.);
#222=EDGE_CURVE('',#261,#257,#36,.T.);
#223=EDGE_CURVE('',#255,#264,#37,.F.);
#224=EDGE_CURVE('',#263,#256,#38,.T.);
#225=EDGE_CURVE('',#266,#259,#39,.T.);
#226=EDGE_CURVE('',#264,#265,#40,.T.);
#227=EDGE_CURVE('',#262,#263,#41,.T.);
#228=EDGE_CURVE('',#260,#261,#42,.T.);
#229=VERTEX_POINT('',#676);
#230=VERTEX_POINT('',#677);
#231=VERTEX_POINT('',#679);
#232=VERTEX_POINT('',#681);
#233=VERTEX_POINT('',#685);
#234=VERTEX_POINT('',#687);
#235=VERTEX_POINT('',#691);
#236=VERTEX_POINT('',#693);
#237=VERTEX_POINT('',#700);
#238=VERTEX_POINT('',#703);
#239=VERTEX_POINT('',#707);
#240=VERTEX_POINT('',#708);
#241=VERTEX_POINT('',#710);
#242=VERTEX_POINT('',#712);
#243=VERTEX_POINT('',#716);
#244=VERTEX_POINT('',#718);
#245=VERTEX_POINT('',#722);
#246=VERTEX_POINT('',#723);
#247=VERTEX_POINT('',#725);
#248=VERTEX_POINT('',#727);
#249=VERTEX_POINT('',#729);
#250=VERTEX_POINT('',#731);
#251=VERTEX_POINT('',#733);
#252=VERTEX_POINT('',#735);
#253=VERTEX_POINT('',#738);
#254=VERTEX_POINT('',#740);
#255=VERTEX_POINT('',#749);
#256=VERTEX_POINT('',#750);
#257=VERTEX_POINT('',#752);
#258=VERTEX_POINT('',#754);
#259=VERTEX_POINT('',#758);
#260=VERTEX_POINT('',#760);
#261=VERTEX_POINT('',#764);
#262=VERTEX_POINT('',#765);
#263=VERTEX_POINT('',#770);
#264=VERTEX_POINT('',#771);
#265=VERTEX_POINT('',#776);
#266=VERTEX_POINT('',#777);
#267=LINE('',#675,#311);
#268=LINE('',#678,#312);
#269=LINE('',#680,#313);
#270=LINE('',#682,#314);
#271=LINE('',#684,#315);
#272=LINE('',#686,#316);
#273=LINE('',#688,#317);
#274=LINE('',#690,#318);
#275=LINE('',#692,#319);
#276=LINE('',#694,#320);
#277=LINE('',#696,#321);
#278=LINE('',#697,#322);
#279=LINE('',#706,#323);
#280=LINE('',#709,#324);
#281=LINE('',#711,#325);
#282=LINE('',#713,#326);
#283=LINE('',#715,#327);
#284=LINE('',#717,#328);
#285=LINE('',#719,#329);
#286=LINE('',#721,#330);
#287=LINE('',#726,#331);
#288=LINE('',#730,#332);
#289=LINE('',#734,#333);
#290=LINE('',#737,#334);
#291=LINE('',#739,#335);
#292=LINE('',#741,#336);
#293=LINE('',#743,#337);
#294=LINE('',#744,#338);
#295=LINE('',#748,#339);
#296=LINE('',#751,#340);
#297=LINE('',#753,#341);
#298=LINE('',#755,#342);
#299=LINE('',#757,#343);
#300=LINE('',#759,#344);
#301=LINE('',#761,#345);
#302=LINE('',#763,#346);
#303=LINE('',#766,#347);
#304=LINE('',#767,#348);
#305=LINE('',#769,#349);
#306=LINE('',#772,#350);
#307=LINE('',#773,#351);
#308=LINE('',#775,#352);
#309=LINE('',#778,#353);
#310=LINE('',#779,#354);
#311=VECTOR('',#535,1.);
#312=VECTOR('',#536,1.);
#313=VECTOR('',#537,1.);
#314=VECTOR('',#538,1.);
#315=VECTOR('',#541,1.);
#316=VECTOR('',#542,1.);
#317=VECTOR('',#543,1.);
#318=VECTOR('',#546,1.);
#319=VECTOR('',#547,1.);
#320=VECTOR('',#548,1.);
#321=VECTOR('',#551,1.);
#322=VECTOR('',#552,1.);
#323=VECTOR('',#565,1.);
#324=VECTOR('',#566,1.);
#325=VECTOR('',#567,1.);
#326=VECTOR('',#568,1.);
#327=VECTOR('',#571,1.);
#328=VECTOR('',#572,1.);
#329=VECTOR('',#573,1.);
#330=VECTOR('',#576,1.);
#331=VECTOR('',#579,1.);
#332=VECTOR('',#582,1.);
#333=VECTOR('',#585,1.);
#334=VECTOR('',#588,1.);
#335=VECTOR('',#589,1.);
#336=VECTOR('',#590,1.);
#337=VECTOR('',#593,1.);
#338=VECTOR('',#594,1.);
#339=VECTOR('',#601,1.);
#340=VECTOR('',#602,1.);
#341=VECTOR('',#603,1.);
#342=VECTOR('',#604,1.);
#343=VECTOR('',#607,1.);
#344=VECTOR('',#608,1.);
#345=VECTOR('',#609,1.);
#346=VECTOR('',#612,1.);
#347=VECTOR('',#613,1.);
#348=VECTOR('',#614,1.);
#349=VECTOR('',#617,1.);
#350=VECTOR('',#618,1.);
#351=VECTOR('',#619,1.);
#352=VECTOR('',#622,1.);
#353=VECTOR('',#623,1.);
#354=VECTOR('',#624,1.);
#355=EDGE_LOOP('',(#43,#44,#45,#46));
#356=EDGE_LOOP('',(#47,#48,#49,#50));
#357=EDGE_LOOP('',(#51,#52,#53,#54));
#358=EDGE_LOOP('',(#55,#56,#57,#58));
#359=EDGE_LOOP('',(#59));
#360=EDGE_LOOP('',(#60,#61,#62,#63));
#361=EDGE_LOOP('',(#64));
#362=EDGE_LOOP('',(#65));
#363=EDGE_LOOP('',(#66));
#364=EDGE_LOOP('',(#67,#68,#69,#70));
#365=EDGE_LOOP('',(#71,#72,#73,#74));
#366=EDGE_LOOP('',(#75,#76,#77,#78));
#367=EDGE_LOOP('',(#79,#80,#81,#82,#83,#84,#85,#86));
#368=EDGE_LOOP('',(#87,#88,#89,#90));
#369=EDGE_LOOP('',(#91,#92,#93,#94));
#370=EDGE_LOOP('',(#95,#96,#97,#98));
#371=EDGE_LOOP('',(#99,#100,#101,#102));
#372=EDGE_LOOP('',(#103,#104,#105,#106));
#373=EDGE_LOOP('',(#107,#108,#109,#110));
#374=EDGE_LOOP('',(#111,#112,#113,#114));
#375=EDGE_LOOP('',(#115,#116,#117,#118));
#376=EDGE_LOOP('',(#119,#120,#121,#122));
#377=EDGE_LOOP('',(#123,#124,#125,#126));
#378=EDGE_LOOP('',(#127,#128,#129,#130));
#379=EDGE_LOOP('',(#131,#132,#133,#134));
#380=EDGE_LOOP('',(#135,#136,#137,#138));
#381=EDGE_LOOP('',(#139,#140,#141));
#382=EDGE_LOOP('',(#142,#143,#144,#145));
#383=EDGE_LOOP('',(#146,#147,#148));
#384=EDGE_LOOP('',(#149,#150,#151,#152));
#385=EDGE_LOOP('',(#153,#154,#155));
#386=EDGE_LOOP('',(#156,#157,#158,#159));
#387=EDGE_LOOP('',(#160,#161,#162));
#388=EDGE_LOOP('',(#163,#164,#165,#166));
#389=FACE_BOUND('',#355,.T.);
#390=FACE_BOUND('',#356,.T.);
#391=FACE_BOUND('',#357,.T.);
#392=FACE_BOUND('',#358,.T.);
#393=FACE_BOUND('',#359,.T.);
#394=FACE_BOUND('',#360,.T.);
#395=FACE_BOUND('',#361,.T.);
#396=FACE_BOUND('',#362,.T.);
#397=FACE_BOUND('',#363,.T.);
#398=FACE_BOUND('',#364,.T.);
#399=FACE_BOUND('',#365,.T.);
#400=FACE_BOUND('',#366,.T.);
#401=FACE_BOUND('',#367,.T.);
#402=FACE_BOUND('',#368,.T.);
#403=FACE_BOUND('',#369,.T.);
#404=FACE_BOUND('',#370,.T.);
#405=FACE_BOUND('',#371,.T.);
#406=FACE_BOUND('',#372,.T.);
#407=FACE_BOUND('',#373,.T.);
#408=FACE_BOUND('',#374,.T.);
#409=FACE_BOUND('',#375,.T.);
#410=FACE_BOUND('',#376,.T.);
#411=FACE_BOUND('',#377,.T.);
#412=FACE_BOUND('',#378,.T.);
#413=FACE_BOUND('',#379,.T.);
#414=FACE_BOUND('',#380,.T.);
#415=FACE_BOUND('',#381,.T.);
#416=FACE_BOUND('',#382,.T.);
#417=FACE_BOUND('',#383,.T.);
#418=FACE_BOUND('',#384,.T.);
#419=FACE_BOUND('',#385,.T.);
#420=FACE_BOUND('',#386,.T.);
#421=FACE_BOUND('',#387,.T.);
#422=FACE_BOUND('',#388,.T.);
#423=PLANE('',#483);
#424=PLANE('',#484);
#425=PLANE('',#485);
#426=PLANE('',#486);
#427=PLANE('',#487);
#428=PLANE('',#491);
#429=PLANE('',#492);
#430=PLANE('',#493);
#431=PLANE('',#494);
#432=PLANE('',#499);
#433=PLANE('',#500);
#434=PLANE('',#501);
#435=PLANE('',#502);
#436=PLANE('',#503);
#437=PLANE('',#504);
#438=PLANE('',#505);
#439=PLANE('',#506);
#440=ADVANCED_FACE('',(#389),#423,.T.);
#441=ADVANCED_FACE('',(#390),#424,.F.);
#442=ADVANCED_FACE('',(#391),#425,.F.);
#443=ADVANCED_FACE('',(#392),#426,.T.);
#444=ADVANCED_FACE('',(#393,#394),#427,.F.);
#445=ADVANCED_FACE('',(#395,#396),#16,.T.);
#446=ADVANCED_FACE('',(#397),#428,.F.);
#447=ADVANCED_FACE('',(#398,#399),#429,.F.);
#448=ADVANCED_FACE('',(#400),#430,.T.);
#449=ADVANCED_FACE('',(#401,#402),#431,.F.);
#450=ADVANCED_FACE('',(#403),#432,.F.);
#451=ADVANCED_FACE('',(#404),#433,.T.);
#452=ADVANCED_FACE('',(#405),#434,.F.);
#453=ADVANCED_FACE('',(#406),#435,.T.);
#454=ADVANCED_FACE('',(#407),#436,.T.);
#455=ADVANCED_FACE('',(#408),#437,.F.);
#456=ADVANCED_FACE('',(#409),#438,.F.);
#457=ADVANCED_FACE('',(#410),#439,.T.);
#458=ADVANCED_FACE('',(#411),#17,.T.);
#459=ADVANCED_FACE('',(#412),#18,.T.);
#460=ADVANCED_FACE('',(#413),#19,.T.);
#461=ADVANCED_FACE('',(#414),#20,.T.);
#462=ADVANCED_FACE('',(#415),#12,.T.);
#463=ADVANCED_FACE('',(#416),#21,.T.);
#464=ADVANCED_FACE('',(#417),#13,.T.);
#465=ADVANCED_FACE('',(#418),#22,.T.);
#466=ADVANCED_FACE('',(#419),#14,.T.);
#467=ADVANCED_FACE('',(#420),#23,.T.);
#468=ADVANCED_FACE('',(#421),#15,.T.);
#469=ADVANCED_FACE('',(#422),#24,.T.);
#470=CLOSED_SHELL('',(#440,#441,#442,#443,#444,#445,#446,#447,#448,#449,
#450,#451,#452,#453,#454,#455,#456,#457,#458,#459,#460,#461,#462,#463,#464,
#465,#466,#467,#468,#469));
#471=STYLED_ITEM('',(#472),#479);
#472=PRESENTATION_STYLE_ASSIGNMENT((#473));
#473=SURFACE_STYLE_USAGE(.BOTH.,#474);
#474=SURFACE_SIDE_STYLE('',(#475));
#475=SURFACE_STYLE_FILL_AREA(#476);
#476=FILL_AREA_STYLE('',(#477));
#477=FILL_AREA_STYLE_COLOUR('',#478);
#478=COLOUR_RGB('',0.615686274509804,0.811764705882353,0.929411764705882);
#479=MANIFOLD_SOLID_BREP('ChCueKeycap',#470);
#480=SHAPE_DEFINITION_REPRESENTATION(#810,#481);
#481=SHAPE_REPRESENTATION('ChCueKeycap',(#482),#805);
#482=AXIS2_PLACEMENT_3D('',#673,#531,#532);
#483=AXIS2_PLACEMENT_3D('',#674,#533,#534);
#484=AXIS2_PLACEMENT_3D('',#683,#539,#540);
#485=AXIS2_PLACEMENT_3D('',#689,#544,#545);
#486=AXIS2_PLACEMENT_3D('',#695,#549,#550);
#487=AXIS2_PLACEMENT_3D('',#698,#553,#554);
#488=AXIS2_PLACEMENT_3D('',#699,#555,#556);
#489=AXIS2_PLACEMENT_3D('',#701,#557,#558);
#490=AXIS2_PLACEMENT_3D('',#702,#559,#560);
#491=AXIS2_PLACEMENT_3D('',#704,#561,#562);
#492=AXIS2_PLACEMENT_3D('',#705,#563,#564);
#493=AXIS2_PLACEMENT_3D('',#714,#569,#570);
#494=AXIS2_PLACEMENT_3D('',#720,#574,#575);
#495=AXIS2_PLACEMENT_3D('',#724,#577,#578);
#496=AXIS2_PLACEMENT_3D('',#728,#580,#581);
#497=AXIS2_PLACEMENT_3D('',#732,#583,#584);
#498=AXIS2_PLACEMENT_3D('',#736,#586,#587);
#499=AXIS2_PLACEMENT_3D('',#742,#591,#592);
#500=AXIS2_PLACEMENT_3D('',#745,#595,#596);
#501=AXIS2_PLACEMENT_3D('',#746,#597,#598);
#502=AXIS2_PLACEMENT_3D('',#747,#599,#600);
#503=AXIS2_PLACEMENT_3D('',#756,#605,#606);
#504=AXIS2_PLACEMENT_3D('',#762,#610,#611);
#505=AXIS2_PLACEMENT_3D('',#768,#615,#616);
#506=AXIS2_PLACEMENT_3D('',#774,#620,#621);
#507=AXIS2_PLACEMENT_3D('',#780,#625,#626);
#508=AXIS2_PLACEMENT_3D('',#781,#627,#628);
#509=AXIS2_PLACEMENT_3D('',#782,#629,#630);
#510=AXIS2_PLACEMENT_3D('',#783,#631,#632);
#511=AXIS2_PLACEMENT_3D('',#784,#633,#634);
#512=AXIS2_PLACEMENT_3D('',#785,#635,#636);
#513=AXIS2_PLACEMENT_3D('',#786,#637,#638);
#514=AXIS2_PLACEMENT_3D('',#787,#639,#640);
#515=AXIS2_PLACEMENT_3D('',#788,#641,#642);
#516=AXIS2_PLACEMENT_3D('',#789,#643,#644);
#517=AXIS2_PLACEMENT_3D('',#790,#645,#646);
#518=AXIS2_PLACEMENT_3D('',#791,#647,#648);
#519=AXIS2_PLACEMENT_3D('',#792,#649,#650);
#520=AXIS2_PLACEMENT_3D('',#793,#651,#652);
#521=AXIS2_PLACEMENT_3D('',#794,#653,#654);
#522=AXIS2_PLACEMENT_3D('',#795,#655,#656);
#523=AXIS2_PLACEMENT_3D('',#796,#657,#658);
#524=AXIS2_PLACEMENT_3D('',#797,#659,#660);
#525=AXIS2_PLACEMENT_3D('',#798,#661,#662);
#526=AXIS2_PLACEMENT_3D('',#799,#663,#664);
#527=AXIS2_PLACEMENT_3D('',#800,#665,#666);
#528=AXIS2_PLACEMENT_3D('',#801,#667,#668);
#529=AXIS2_PLACEMENT_3D('',#802,#669,#670);
#530=AXIS2_PLACEMENT_3D('',#803,#671,#672);
#531=DIRECTION('',(0.,0.,1.));
#532=DIRECTION('',(1.,0.,0.));
#533=DIRECTION('',(1.48690583655155E-16,0.,1.));
#534=DIRECTION('',(1.,0.,-1.48690583655155E-16));
#535=DIRECTION('',(0.,-1.,0.));
#536=DIRECTION('',(-1.,-3.22739251344522E-16,1.48690583655155E-16));
#537=DIRECTION('',(0.,-1.,0.));
#538=DIRECTION('',(-1.,0.,1.48690583655155E-16));
#539=DIRECTION('',(-1.,0.,0.));
#540=DIRECTION('',(0.,1.,0.));
#541=DIRECTION('',(0.,4.79882876508448E-32,-1.));
#542=DIRECTION('',(0.,0.,-1.));
#543=DIRECTION('',(0.,-1.,0.));
#544=DIRECTION('',(9.91270557701033E-17,0.,1.));
#545=DIRECTION('',(1.,0.,-9.91270557701033E-17));
#546=DIRECTION('',(-1.,-3.22739251344522E-16,9.91270557701033E-17));
#547=DIRECTION('',(-1.,0.,9.91270557701033E-17));
#548=DIRECTION('',(0.,-1.,0.));
#549=DIRECTION('',(-1.,0.,0.));
#550=DIRECTION('',(0.,1.,0.));
#551=DIRECTION('',(0.,4.79882876508448E-32,-1.));
#552=DIRECTION('',(0.,0.,-1.));
#553=DIRECTION('',(0.,1.,0.));
#554=DIRECTION('',(1.,0.,0.));
#555=DIRECTION('',(0.,1.,0.));
#556=DIRECTION('',(1.,0.,0.));
#557=DIRECTION('',(0.,1.,0.));
#558=DIRECTION('',(1.,0.,0.));
#559=DIRECTION('',(0.,1.,0.));
#560=DIRECTION('',(1.,0.,0.));
#561=DIRECTION('',(0.,1.,0.));
#562=DIRECTION('',(1.,0.,0.));
#563=DIRECTION('',(-3.22739251344522E-16,1.,4.79882876508448E-32));
#564=DIRECTION('',(1.,3.22739251344522E-16,0.));
#565=DIRECTION('',(1.,3.22739251344522E-16,-1.48690583655155E-16));
#566=DIRECTION('',(-1.48690583655155E-16,0.,-1.));
#567=DIRECTION('',(1.,3.22739251344522E-16,-1.48690583655155E-16));
#568=DIRECTION('',(-1.48690583655155E-16,0.,-1.));
#569=DIRECTION('',(1.,1.73472347597681E-15,-1.48690583655155E-16));
#570=DIRECTION('',(1.73472347597681E-15,-1.,0.));
#571=DIRECTION('',(1.73472347597681E-15,-1.,-2.5793704612329E-31));
#572=DIRECTION('',(-1.48690583655155E-16,0.,-1.));
#573=DIRECTION('',(1.73472347597681E-15,-1.,-2.5793704612329E-31));
#574=DIRECTION('',(0.,-1.,0.));
#575=DIRECTION('',(-1.,0.,0.));
#576=DIRECTION('',(1.,0.,-1.48690583655155E-16));
#577=DIRECTION('',(0.,-1.,0.));
#578=DIRECTION('',(-1.,0.,0.));
#579=DIRECTION('',(0.,0.,1.));
#580=DIRECTION('',(0.,-1.,0.));
#581=DIRECTION('',(-1.,0.,0.));
#582=DIRECTION('',(1.,0.,-9.91270557701033E-17));
#583=DIRECTION('',(0.,-1.,0.));
#584=DIRECTION('',(-1.,0.,0.));
#585=DIRECTION('',(0.,0.,1.));
#586=DIRECTION('',(0.,-1.,0.));
#587=DIRECTION('',(-1.,0.,0.));
#588=DIRECTION('',(-1.,0.,1.48690583655155E-16));
#589=DIRECTION('',(-1.48690583655155E-16,0.,-1.));
#590=DIRECTION('',(-1.,0.,1.48690583655155E-16));
#591=DIRECTION('',(1.,1.73472347597681E-15,-1.48690583655155E-16));
#592=DIRECTION('',(1.73472347597681E-15,-1.,0.));
#593=DIRECTION('',(1.73472347597681E-15,-1.,-2.5793704612329E-31));
#594=DIRECTION('',(1.73472347597681E-15,-1.,-2.5793704612329E-31));
#595=DIRECTION('',(1.48690583655155E-16,0.,1.));
#596=DIRECTION('',(1.,0.,-1.48690583655155E-16));
#597=DIRECTION('',(1.48690583655155E-16,0.,1.));
#598=DIRECTION('',(1.,0.,-1.48690583655155E-16));
#599=DIRECTION('',(0.,1.,0.));
#600=DIRECTION('',(1.,0.,0.));
#601=DIRECTION('',(0.,0.,-1.));
#602=DIRECTION('',(-1.,0.,9.91270557701033E-17));
#603=DIRECTION('',(0.,0.,-1.));
#604=DIRECTION('',(-1.,0.,1.48690583655155E-16));
#605=DIRECTION('',(-1.,0.,0.));
#606=DIRECTION('',(0.,1.,0.));
#607=DIRECTION('',(0.,-1.,0.));
#608=DIRECTION('',(0.,0.,-1.));
#609=DIRECTION('',(0.,-1.,0.));
#610=DIRECTION('',(9.91270557701033E-17,0.,1.));
#611=DIRECTION('',(1.,0.,-9.91270557701033E-17));
#612=DIRECTION('',(-1.,0.,9.91270557701033E-17));
#613=DIRECTION('',(0.,-1.,0.));
#614=DIRECTION('',(0.,-1.,0.));
#615=DIRECTION('',(-1.,0.,0.));
#616=DIRECTION('',(0.,1.,0.));
#617=DIRECTION('',(0.,0.,-1.));
#618=DIRECTION('',(0.,-1.,0.));
#619=DIRECTION('',(0.,-1.,0.));
#620=DIRECTION('',(1.48690583655155E-16,0.,1.));
#621=DIRECTION('',(1.,0.,-1.48690583655155E-16));
#622=DIRECTION('',(-1.,0.,1.48690583655155E-16));
#623=DIRECTION('',(0.,-1.,0.));
#624=DIRECTION('',(0.,-1.,0.));
#625=DIRECTION('',(0.,0.,-1.));
#626=DIRECTION('',(0.,1.,0.));
#627=DIRECTION('',(0.,0.,-1.));
#628=DIRECTION('',(0.,1.,0.));
#629=DIRECTION('',(0.,0.,-1.));
#630=DIRECTION('',(0.,1.,0.));
#631=DIRECTION('',(-1.,0.,1.48690583655155E-16));
#632=DIRECTION('',(1.48690583655155E-16,0.,1.));
#633=DIRECTION('',(-1.,0.,1.48690583655155E-16));
#634=DIRECTION('',(1.48690583655155E-16,0.,1.));
#635=DIRECTION('',(-1.,0.,1.48690583655155E-16));
#636=DIRECTION('',(1.48690583655155E-16,0.,1.));
#637=DIRECTION('',(1.,0.,-9.91270557701033E-17));
#638=DIRECTION('',(-9.91270557701033E-17,0.,-1.));
#639=DIRECTION('',(1.,0.,-9.91270557701033E-17));
#640=DIRECTION('',(-9.91270557701033E-17,0.,-1.));
#641=DIRECTION('',(1.,0.,-9.91270557701033E-17));
#642=DIRECTION('',(-9.91270557701033E-17,0.,-1.));
#643=DIRECTION('',(0.,0.,1.));
#644=DIRECTION('',(0.,-1.,0.));
#645=DIRECTION('',(0.,0.,1.));
#646=DIRECTION('',(0.,-1.,0.));
#647=DIRECTION('',(0.,0.,1.));
#648=DIRECTION('',(0.,-1.,0.));
#649=DIRECTION('',(0.,1.,0.));
#650=DIRECTION('',(1.,0.,0.));
#651=DIRECTION('',(0.,-1.,0.));
#652=DIRECTION('',(-1.,0.,0.));
#653=DIRECTION('',(0.,-1.,0.));
#654=DIRECTION('',(-1.,0.,0.));
#655=DIRECTION('',(0.,1.,0.));
#656=DIRECTION('',(1.,0.,0.));
#657=DIRECTION('',(0.,-1.,0.));
#658=DIRECTION('',(-1.,0.,0.));
#659=DIRECTION('',(0.,1.,0.));
#660=DIRECTION('',(1.,0.,0.));
#661=DIRECTION('',(0.,1.,0.));
#662=DIRECTION('',(1.,0.,0.));
#663=DIRECTION('',(0.,-1.,0.));
#664=DIRECTION('',(-1.,0.,0.));
#665=DIRECTION('',(0.,-1.,0.));
#666=DIRECTION('',(-1.,0.,0.));
#667=DIRECTION('',(0.,1.,0.));
#668=DIRECTION('',(1.,0.,0.));
#669=DIRECTION('',(0.,-1.,0.));
#670=DIRECTION('',(-1.,0.,0.));
#671=DIRECTION('',(0.,1.,0.));
#672=DIRECTION('',(1.,0.,0.));
#673=CARTESIAN_POINT('',(0.,0.,0.));
#674=CARTESIAN_POINT('',(0.,0.01,0.002875));
#675=CARTESIAN_POINT('',(0.004375,0.01,0.002875));
#676=CARTESIAN_POINT('',(0.004375,0.0055,0.002875));
#677=CARTESIAN_POINT('',(0.004375,0.,0.002875));
#678=CARTESIAN_POINT('',(1.45232663105035E-18,0.0055,0.002875));
#679=CARTESIAN_POINT('',(-0.004375,0.0055,0.002875));
#680=CARTESIAN_POINT('',(-0.004375,0.01,0.002875));
#681=CARTESIAN_POINT('',(-0.004375,0.,0.002875));
#682=CARTESIAN_POINT('',(0.,0.,0.002875));
#683=CARTESIAN_POINT('',(0.004375,0.01,-8.67361737988404E-19));
#684=CARTESIAN_POINT('',(0.004375,0.0055,-8.67361737988404E-19));
#685=CARTESIAN_POINT('',(0.004375,0.0055,-0.002875));
#686=CARTESIAN_POINT('',(0.004375,0.,-8.67361737988404E-19));
#687=CARTESIAN_POINT('',(0.004375,0.,-0.002875));
#688=CARTESIAN_POINT('',(0.004375,0.01,-0.002875));
#689=CARTESIAN_POINT('',(0.,0.01,-0.002875));
#690=CARTESIAN_POINT('',(1.45232663105035E-18,0.0055,-0.002875));
#691=CARTESIAN_POINT('',(-0.004375,0.0055,-0.002875));
#692=CARTESIAN_POINT('',(0.,0.,-0.002875));
#693=CARTESIAN_POINT('',(-0.004375,0.,-0.002875));
#694=CARTESIAN_POINT('',(-0.004375,0.01,-0.002875));
#695=CARTESIAN_POINT('',(-0.004375,0.01,4.33680868994202E-19));
#696=CARTESIAN_POINT('',(-0.004375,0.0055,4.33680868994201E-19));
#697=CARTESIAN_POINT('',(-0.004375,0.,4.33680868994202E-19));
#698=CARTESIAN_POINT('',(0.,0.,0.));
#699=CARTESIAN_POINT('',(0.,0.,-9.18485099360515E-20));
#700=CARTESIAN_POINT('',(0.0015,0.,-9.18485099360515E-20));
#701=CARTESIAN_POINT('',(0.,-0.001,-9.18485099360515E-20));
#702=CARTESIAN_POINT('',(0.,-0.001,-9.18485099360515E-20));
#703=CARTESIAN_POINT('',(0.0015,-0.001,-9.18485099360515E-20));
#704=CARTESIAN_POINT('',(0.,-0.001,0.));
#705=CARTESIAN_POINT('',(1.01605232164356E-18,0.0055,0.003875));
#706=CARTESIAN_POINT('',(-1.36299701683892E-19,0.0055,-0.003875));
#707=CARTESIAN_POINT('',(-0.005375,0.0055,-0.003875));
#708=CARTESIAN_POINT('',(0.005375,0.0055,-0.003875));
#709=CARTESIAN_POINT('',(0.005375,0.0055,0.003875));
#710=CARTESIAN_POINT('',(0.005375,0.0055,0.003875));
#711=CARTESIAN_POINT('',(1.01605232164356E-18,0.0055,0.003875));
#712=CARTESIAN_POINT('',(-0.005375,0.0055,0.003875));
#713=CARTESIAN_POINT('',(-0.005375,0.0055,0.003875));
#714=CARTESIAN_POINT('',(0.005375,0.00575,0.003875));
#715=CARTESIAN_POINT('',(0.005375,0.00575,-0.003875));
#716=CARTESIAN_POINT('',(0.005375,0.006,-0.003875));
#717=CARTESIAN_POINT('',(0.005375,0.006,0.003875));
#718=CARTESIAN_POINT('',(0.005375,0.006,0.003875));
#719=CARTESIAN_POINT('',(0.005375,0.00575,0.003875));
#720=CARTESIAN_POINT('',(-0.0026875,0.006,0.003875));
#721=CARTESIAN_POINT('',(0.,0.006,0.002875));
#722=CARTESIAN_POINT('',(-0.003375,0.006,0.002875));
#723=CARTESIAN_POINT('',(0.003375,0.006,0.002875));
#724=CARTESIAN_POINT('',(-0.003375,0.006,0.001875));
#725=CARTESIAN_POINT('',(-0.004375,0.006,0.001875));
#726=CARTESIAN_POINT('',(-0.004375,0.006,4.33680868994202E-19));
#727=CARTESIAN_POINT('',(-0.004375,0.006,-0.001875));
#728=CARTESIAN_POINT('',(-0.003375,0.006,-0.001875));
#729=CARTESIAN_POINT('',(-0.003375,0.006,-0.002875));
#730=CARTESIAN_POINT('',(0.,0.006,-0.002875));
#731=CARTESIAN_POINT('',(0.003375,0.006,-0.002875));
#732=CARTESIAN_POINT('',(0.003375,0.006,-0.001875));
#733=CARTESIAN_POINT('',(0.004375,0.006,-0.001875));
#734=CARTESIAN_POINT('',(0.004375,0.006,-8.67361737988404E-19));
#735=CARTESIAN_POINT('',(0.004375,0.006,0.001875));
#736=CARTESIAN_POINT('',(0.003375,0.006,0.001875));
#737=CARTESIAN_POINT('',(-0.0026875,0.006,-0.003875));
#738=CARTESIAN_POINT('',(-0.005375,0.006,-0.003875));
#739=CARTESIAN_POINT('',(-0.005375,0.006,0.003875));
#740=CARTESIAN_POINT('',(-0.005375,0.006,0.003875));
#741=CARTESIAN_POINT('',(-0.0026875,0.006,0.003875));
#742=CARTESIAN_POINT('',(-0.005375,0.00575,0.003875));
#743=CARTESIAN_POINT('',(-0.005375,0.00575,-0.003875));
#744=CARTESIAN_POINT('',(-0.005375,0.00575,0.003875));
#745=CARTESIAN_POINT('',(5.76176011663725E-19,0.005,0.003875));
#746=CARTESIAN_POINT('',(-5.76176011663725E-19,0.005,-0.003875));
#747=CARTESIAN_POINT('',(0.,0.01,0.));
#748=CARTESIAN_POINT('',(0.003375,0.01,-0.002875));
#749=CARTESIAN_POINT('',(0.003375,0.01,0.001875));
#750=CARTESIAN_POINT('',(0.003375,0.01,-0.001875));
#751=CARTESIAN_POINT('',(-0.004375,0.01,-0.001875));
#752=CARTESIAN_POINT('',(-0.003375,0.01,-0.001875));
#753=CARTESIAN_POINT('',(-0.003375,0.01,0.));
#754=CARTESIAN_POINT('',(-0.003375,0.01,0.001875));
#755=CARTESIAN_POINT('',(2.78794844353415E-19,0.01,0.001875));
#756=CARTESIAN_POINT('',(-0.004375,0.01,4.33680868994202E-19));
#757=CARTESIAN_POINT('',(-0.004375,0.01,0.001875));
#758=CARTESIAN_POINT('',(-0.004375,0.009,0.001875));
#759=CARTESIAN_POINT('',(-0.004375,0.009,4.33680868994202E-19));
#760=CARTESIAN_POINT('',(-0.004375,0.009,-0.001875));
#761=CARTESIAN_POINT('',(-0.004375,0.006,-0.001875));
#762=CARTESIAN_POINT('',(0.,0.01,-0.002875));
#763=CARTESIAN_POINT('',(0.004375,0.009,-0.002875));
#764=CARTESIAN_POINT('',(-0.003375,0.009,-0.002875));
#765=CARTESIAN_POINT('',(0.003375,0.009,-0.002875));
#766=CARTESIAN_POINT('',(0.003375,0.01,-0.002875));
#767=CARTESIAN_POINT('',(-0.003375,0.009,-0.002875));
#768=CARTESIAN_POINT('',(0.004375,0.01,-8.67361737988404E-19));
#769=CARTESIAN_POINT('',(0.004375,0.009,0.002875));
#770=CARTESIAN_POINT('',(0.004375,0.009,-0.001875));
#771=CARTESIAN_POINT('',(0.004375,0.009,0.001875));
#772=CARTESIAN_POINT('',(0.004375,0.006,0.001875));
#773=CARTESIAN_POINT('',(0.004375,0.01,-0.001875));
#774=CARTESIAN_POINT('',(0.,0.01,0.002875));
#775=CARTESIAN_POINT('',(0.,0.009,0.002875));
#776=CARTESIAN_POINT('',(0.003375,0.009,0.002875));
#777=CARTESIAN_POINT('',(-0.003375,0.009,0.002875));
#778=CARTESIAN_POINT('',(-0.003375,0.01,0.002875));
#779=CARTESIAN_POINT('',(0.003375,0.009,0.002875));
#780=CARTESIAN_POINT('',(-0.003375,0.009,4.33680868994202E-19));
#781=CARTESIAN_POINT('',(-0.003375,0.009,0.001875));
#782=CARTESIAN_POINT('',(-0.003375,0.009,-0.001875));
#783=CARTESIAN_POINT('',(-1.48690583655155E-19,0.009,0.001875));
#784=CARTESIAN_POINT('',(-0.003375,0.009,0.001875));
#785=CARTESIAN_POINT('',(0.003375,0.009,0.001875));
#786=CARTESIAN_POINT('',(-1.85863229568944E-19,0.009,-0.001875));
#787=CARTESIAN_POINT('',(0.003375,0.009,-0.001875));
#788=CARTESIAN_POINT('',(-0.003375,0.009,-0.001875));
#789=CARTESIAN_POINT('',(0.003375,0.009,0.));
#790=CARTESIAN_POINT('',(0.003375,0.009,0.001875));
#791=CARTESIAN_POINT('',(0.003375,0.009,-0.001875));
#792=CARTESIAN_POINT('',(-0.003375,0.009,0.001875));
#793=CARTESIAN_POINT('',(-0.003375,0.009,0.001875));
#794=CARTESIAN_POINT('',(-0.003375,0.01,0.001875));
#795=CARTESIAN_POINT('',(0.003375,0.009,0.001875));
#796=CARTESIAN_POINT('',(0.003375,0.009,0.001875));
#797=CARTESIAN_POINT('',(0.003375,0.01,0.001875));
#798=CARTESIAN_POINT('',(0.003375,0.009,-0.001875));
#799=CARTESIAN_POINT('',(0.003375,0.009,-0.001875));
#800=CARTESIAN_POINT('',(0.003375,0.01,-0.001875));
#801=CARTESIAN_POINT('',(-0.003375,0.009,-0.001875));
#802=CARTESIAN_POINT('',(-0.003375,0.009,-0.001875));
#803=CARTESIAN_POINT('',(-0.003375,0.01,-0.001875));
#804=MECHANICAL_DESIGN_GEOMETRIC_PRESENTATION_REPRESENTATION('',(#471),
#805);
#805=(
GEOMETRIC_REPRESENTATION_CONTEXT(3)
GLOBAL_UNCERTAINTY_ASSIGNED_CONTEXT((#806))
GLOBAL_UNIT_ASSIGNED_CONTEXT((#809,#808,#807))
REPRESENTATION_CONTEXT('ChCueKeycap','TOP_LEVEL_ASSEMBLY_PART')
);
#806=UNCERTAINTY_MEASURE_WITH_UNIT(LENGTH_MEASURE(1.E-8),#809,
'DISTANCE_ACCURACY_VALUE','Maximum Tolerance applied to model');
#807=(
NAMED_UNIT(*)
SI_UNIT($,.STERADIAN.)
SOLID_ANGLE_UNIT()
);
#808=(
NAMED_UNIT(*)
PLANE_ANGLE_UNIT()
SI_UNIT($,.RADIAN.)
);
#809=(
LENGTH_UNIT()
NAMED_UNIT(*)
SI_UNIT($,.METRE.)
);
#810=PRODUCT_DEFINITION_SHAPE('','',#811);
#811=PRODUCT_DEFINITION('','',#813,#812);
#812=PRODUCT_DEFINITION_CONTEXT('',#819,'design');
#813=PRODUCT_DEFINITION_FORMATION_WITH_SPECIFIED_SOURCE('','',#815,
 .NOT_KNOWN.);
#814=PRODUCT_RELATED_PRODUCT_CATEGORY('','',(#815));
#815=PRODUCT('ChCueKeycap','ChCueKeycap','ChCueKeycap',(#817));
#816=PRODUCT_CATEGORY('','');
#817=PRODUCT_CONTEXT('',#819,'mechanical');
#818=APPLICATION_PROTOCOL_DEFINITION('international standard',
'ap242_managed_model_based_3d_engineering',2020,#819);
#819=APPLICATION_CONTEXT('managed model based 3d engineering');
ENDSEC;
END-ISO-10303-21;
