ISO-10303-21;
HEADER;
/* Generated by software containing ST-Developer
 * from STEP Tools, Inc. (www.steptools.com) 
 */
/* OPTION: using custom renumber hook */

FILE_DESCRIPTION(
/* description */ ('STEP AP242 Edition 2',
'CAx-IF Rec.Pracs.---Representation and Presentation of Product Manufa
cturing Information (PMI)---4.0---2014-10-13',
'CAx-IF Rec.Pracs.---3D Tessellated Geometry---0.4---2014-09-14','2;1',
'CAx-IF Rec.Pracs.---User Defined Attributes---1.5---2016-08-15'),
/* implementation_level */ '2;1');

FILE_NAME(
/* name */ 'Part Studio 2 - EncoderMagnetMount',
/* time_stamp */ '2026-06-20T19:59:00Z',
/* author */ (''),
/* organization */ (''),
/* preprocessor_version */ 'ST-DEVELOPER v20',
/* originating_system */ 'ONSHAPE BY PTC INC, 1.216',
/* authorisation */ '  ');

FILE_SCHEMA (('AP242_MANAGED_MODEL_BASED_3D_ENGINEERING_MIM_LF { 1 0 10303 442 3 1 4 }'));
ENDSEC;

DATA;
#10=SHAPE_REPRESENTATION_RELATIONSHIP('','',#181,#11);
#11=ADVANCED_BREP_SHAPE_REPRESENTATION('',(#179),#297);
#12=LINE('',#270,#24);
#13=LINE('',#273,#25);
#14=LINE('',#275,#26);
#15=LINE('',#277,#27);
#16=LINE('',#280,#28);
#17=LINE('',#283,#29);
#18=LINE('',#285,#30);
#19=LINE('',#287,#31);
#20=LINE('',#289,#32);
#21=LINE('',#290,#33);
#22=LINE('',#292,#34);
#23=LINE('',#294,#35);
#24=VECTOR('',#227,1.);
#25=VECTOR('',#228,1.);
#26=VECTOR('',#229,1.);
#27=VECTOR('',#230,1.);
#28=VECTOR('',#235,1.);
#29=VECTOR('',#236,1.);
#30=VECTOR('',#237,1.);
#31=VECTOR('',#238,1.);
#32=VECTOR('',#241,1.);
#33=VECTOR('',#242,1.);
#34=VECTOR('',#245,1.);
#35=VECTOR('',#248,1.);
#36=PLANE('',#189);
#37=PLANE('',#190);
#38=PLANE('',#194);
#39=PLANE('',#195);
#40=PLANE('',#196);
#41=PLANE('',#197);
#42=PLANE('',#198);
#43=PLANE('',#199);
#44=PLANE('',#200);
#45=ORIENTED_EDGE('',*,*,#81,.T.);
#46=ORIENTED_EDGE('',*,*,#82,.F.);
#47=ORIENTED_EDGE('',*,*,#83,.T.);
#48=ORIENTED_EDGE('',*,*,#84,.F.);
#49=ORIENTED_EDGE('',*,*,#83,.F.);
#50=ORIENTED_EDGE('',*,*,#82,.T.);
#51=ORIENTED_EDGE('',*,*,#84,.T.);
#52=ORIENTED_EDGE('',*,*,#85,.T.);
#53=ORIENTED_EDGE('',*,*,#86,.F.);
#54=ORIENTED_EDGE('',*,*,#87,.T.);
#55=ORIENTED_EDGE('',*,*,#88,.T.);
#56=ORIENTED_EDGE('',*,*,#89,.F.);
#57=ORIENTED_EDGE('',*,*,#90,.F.);
#58=ORIENTED_EDGE('',*,*,#85,.F.);
#59=ORIENTED_EDGE('',*,*,#81,.F.);
#60=ORIENTED_EDGE('',*,*,#86,.T.);
#61=ORIENTED_EDGE('',*,*,#91,.T.);
#62=ORIENTED_EDGE('',*,*,#92,.T.);
#63=ORIENTED_EDGE('',*,*,#93,.F.);
#64=ORIENTED_EDGE('',*,*,#94,.F.);
#65=ORIENTED_EDGE('',*,*,#89,.T.);
#66=ORIENTED_EDGE('',*,*,#95,.F.);
#67=ORIENTED_EDGE('',*,*,#92,.F.);
#68=ORIENTED_EDGE('',*,*,#96,.T.);
#69=ORIENTED_EDGE('',*,*,#95,.T.);
#70=ORIENTED_EDGE('',*,*,#88,.F.);
#71=ORIENTED_EDGE('',*,*,#97,.F.);
#72=ORIENTED_EDGE('',*,*,#93,.T.);
#73=ORIENTED_EDGE('',*,*,#97,.T.);
#74=ORIENTED_EDGE('',*,*,#87,.F.);
#75=ORIENTED_EDGE('',*,*,#98,.F.);
#76=ORIENTED_EDGE('',*,*,#94,.T.);
#77=ORIENTED_EDGE('',*,*,#90,.T.);
#78=ORIENTED_EDGE('',*,*,#96,.F.);
#79=ORIENTED_EDGE('',*,*,#91,.F.);
#80=ORIENTED_EDGE('',*,*,#98,.T.);
#81=EDGE_CURVE('',#99,#99,#113,.T.);
#82=EDGE_CURVE('',#100,#100,#114,.T.);
#83=EDGE_CURVE('',#101,#101,#115,.T.);
#84=EDGE_CURVE('',#102,#102,#116,.T.);
#85=EDGE_CURVE('',#103,#103,#117,.T.);
#86=EDGE_CURVE('',#104,#104,#118,.T.);
#87=EDGE_CURVE('',#105,#106,#12,.T.);
#88=EDGE_CURVE('',#106,#107,#13,.T.);
#89=EDGE_CURVE('',#108,#107,#14,.T.);
#90=EDGE_CURVE('',#105,#108,#15,.T.);
#91=EDGE_CURVE('',#109,#110,#16,.T.);
#92=EDGE_CURVE('',#110,#111,#17,.T.);
#93=EDGE_CURVE('',#112,#111,#18,.T.);
#94=EDGE_CURVE('',#109,#112,#19,.T.);
#95=EDGE_CURVE('',#111,#107,#20,.T.);
#96=EDGE_CURVE('',#110,#108,#21,.T.);
#97=EDGE_CURVE('',#112,#106,#22,.T.);
#98=EDGE_CURVE('',#109,#105,#23,.T.);
#99=VERTEX_POINT('',#254);
#100=VERTEX_POINT('',#256);
#101=VERTEX_POINT('',#259);
#102=VERTEX_POINT('',#261);
#103=VERTEX_POINT('',#266);
#104=VERTEX_POINT('',#268);
#105=VERTEX_POINT('',#271);
#106=VERTEX_POINT('',#272);
#107=VERTEX_POINT('',#274);
#108=VERTEX_POINT('',#276);
#109=VERTEX_POINT('',#281);
#110=VERTEX_POINT('',#282);
#111=VERTEX_POINT('',#284);
#112=VERTEX_POINT('',#286);
#113=CIRCLE('',#184,0.004);
#114=CIRCLE('',#185,0.004);
#115=CIRCLE('',#187,0.003);
#116=CIRCLE('',#188,0.003);
#117=CIRCLE('',#192,0.005);
#118=CIRCLE('',#193,0.005);
#119=EDGE_LOOP('',(#45));
#120=EDGE_LOOP('',(#46));
#121=EDGE_LOOP('',(#47));
#122=EDGE_LOOP('',(#48));
#123=EDGE_LOOP('',(#49));
#124=EDGE_LOOP('',(#50));
#125=EDGE_LOOP('',(#51));
#126=EDGE_LOOP('',(#52));
#127=EDGE_LOOP('',(#53));
#128=EDGE_LOOP('',(#54,#55,#56,#57));
#129=EDGE_LOOP('',(#58));
#130=EDGE_LOOP('',(#59));
#131=EDGE_LOOP('',(#60));
#132=EDGE_LOOP('',(#61,#62,#63,#64));
#133=EDGE_LOOP('',(#65,#66,#67,#68));
#134=EDGE_LOOP('',(#69,#70,#71,#72));
#135=EDGE_LOOP('',(#73,#74,#75,#76));
#136=EDGE_LOOP('',(#77,#78,#79,#80));
#137=FACE_BOUND('',#119,.T.);
#138=FACE_BOUND('',#120,.T.);
#139=FACE_BOUND('',#121,.T.);
#140=FACE_BOUND('',#122,.T.);
#141=FACE_BOUND('',#123,.T.);
#142=FACE_BOUND('',#124,.T.);
#143=FACE_BOUND('',#125,.T.);
#144=FACE_BOUND('',#126,.T.);
#145=FACE_BOUND('',#127,.T.);
#146=FACE_BOUND('',#128,.T.);
#147=FACE_BOUND('',#129,.T.);
#148=FACE_BOUND('',#130,.T.);
#149=FACE_BOUND('',#131,.T.);
#150=FACE_BOUND('',#132,.T.);
#151=FACE_BOUND('',#133,.T.);
#152=FACE_BOUND('',#134,.T.);
#153=FACE_BOUND('',#135,.T.);
#154=FACE_BOUND('',#136,.T.);
#155=CYLINDRICAL_SURFACE('',#183,0.004);
#156=CYLINDRICAL_SURFACE('',#186,0.003);
#157=CYLINDRICAL_SURFACE('',#191,0.005);
#158=ADVANCED_FACE('',(#137,#138),#155,.T.);
#159=ADVANCED_FACE('',(#139,#140),#156,.F.);
#160=ADVANCED_FACE('',(#141,#142),#36,.T.);
#161=ADVANCED_FACE('',(#143),#37,.T.);
#162=ADVANCED_FACE('',(#144,#145),#157,.T.);
#163=ADVANCED_FACE('',(#146,#147),#38,.F.);
#164=ADVANCED_FACE('',(#148,#149),#39,.T.);
#165=ADVANCED_FACE('',(#150),#40,.F.);
#166=ADVANCED_FACE('',(#151),#41,.F.);
#167=ADVANCED_FACE('',(#152),#42,.T.);
#168=ADVANCED_FACE('',(#153),#43,.T.);
#169=ADVANCED_FACE('',(#154),#44,.F.);
#170=CLOSED_SHELL('',(#158,#159,#160,#161,#162,#163,#164,#165,#166,#167,
#168,#169));
#171=STYLED_ITEM('',(#172),#179);
#172=PRESENTATION_STYLE_ASSIGNMENT((#173));
#173=SURFACE_STYLE_USAGE(.BOTH.,#174);
#174=SURFACE_SIDE_STYLE('',(#175));
#175=SURFACE_STYLE_FILL_AREA(#176);
#176=FILL_AREA_STYLE('',(#177));
#177=FILL_AREA_STYLE_COLOUR('',#178);
#178=COLOUR_RGB('',0.972549019607843,0.529411764705882,0.00392156862745098);
#179=MANIFOLD_SOLID_BREP('EncoderMagnetMount',#170);
#180=SHAPE_DEFINITION_REPRESENTATION(#302,#181);
#181=SHAPE_REPRESENTATION('EncoderMagnetMount',(#182),#297);
#182=AXIS2_PLACEMENT_3D('',#251,#201,#202);
#183=AXIS2_PLACEMENT_3D('',#252,#203,#204);
#184=AXIS2_PLACEMENT_3D('',#253,#205,#206);
#185=AXIS2_PLACEMENT_3D('',#255,#207,#208);
#186=AXIS2_PLACEMENT_3D('',#257,#209,#210);
#187=AXIS2_PLACEMENT_3D('',#258,#211,#212);
#188=AXIS2_PLACEMENT_3D('',#260,#213,#214);
#189=AXIS2_PLACEMENT_3D('',#262,#215,#216);
#190=AXIS2_PLACEMENT_3D('',#263,#217,#218);
#191=AXIS2_PLACEMENT_3D('',#264,#219,#220);
#192=AXIS2_PLACEMENT_3D('',#265,#221,#222);
#193=AXIS2_PLACEMENT_3D('',#267,#223,#224);
#194=AXIS2_PLACEMENT_3D('',#269,#225,#226);
#195=AXIS2_PLACEMENT_3D('',#278,#231,#232);
#196=AXIS2_PLACEMENT_3D('',#279,#233,#234);
#197=AXIS2_PLACEMENT_3D('',#288,#239,#240);
#198=AXIS2_PLACEMENT_3D('',#291,#243,#244);
#199=AXIS2_PLACEMENT_3D('',#293,#246,#247);
#200=AXIS2_PLACEMENT_3D('',#295,#249,#250);
#201=DIRECTION('',(0.,0.,1.));
#202=DIRECTION('',(1.,0.,0.));
#203=DIRECTION('',(0.,-1.,0.));
#204=DIRECTION('',(-1.,0.,0.));
#205=DIRECTION('',(0.,1.,0.));
#206=DIRECTION('',(1.,0.,0.));
#207=DIRECTION('',(0.,1.,0.));
#208=DIRECTION('',(1.,0.,0.));
#209=DIRECTION('',(0.,-1.,0.));
#210=DIRECTION('',(-1.,0.,0.));
#211=DIRECTION('',(0.,1.,0.));
#212=DIRECTION('',(1.,0.,0.));
#213=DIRECTION('',(0.,1.,0.));
#214=DIRECTION('',(1.,0.,0.));
#215=DIRECTION('',(0.,1.,0.));
#216=DIRECTION('',(1.,0.,0.));
#217=DIRECTION('',(0.,1.,0.));
#218=DIRECTION('',(1.,0.,0.));
#219=DIRECTION('',(0.,1.,0.));
#220=DIRECTION('',(1.,0.,0.));
#221=DIRECTION('',(0.,1.,0.));
#222=DIRECTION('',(1.,0.,0.));
#223=DIRECTION('',(0.,1.,0.));
#224=DIRECTION('',(1.,0.,0.));
#225=DIRECTION('',(0.,1.,0.));
#226=DIRECTION('',(1.,0.,0.));
#227=DIRECTION('',(8.67361737988404E-17,0.,-1.));
#228=DIRECTION('',(-1.,0.,1.7347234759768E-16));
#229=DIRECTION('',(8.67361737988404E-17,0.,-1.));
#230=DIRECTION('',(-1.,0.,1.7347234759768E-16));
#231=DIRECTION('',(0.,1.,0.));
#232=DIRECTION('',(1.,0.,0.));
#233=DIRECTION('',(0.,1.,0.));
#234=DIRECTION('',(1.,0.,0.));
#235=DIRECTION('',(-1.,0.,1.7347234759768E-16));
#236=DIRECTION('',(8.67361737988404E-17,0.,-1.));
#237=DIRECTION('',(-1.,0.,1.7347234759768E-16));
#238=DIRECTION('',(8.67361737988404E-17,0.,-1.));
#239=DIRECTION('',(1.,0.,8.67361737988404E-17));
#240=DIRECTION('',(8.67361737988404E-17,0.,-1.));
#241=DIRECTION('',(0.,1.,0.));
#242=DIRECTION('',(0.,1.,0.));
#243=DIRECTION('',(-1.7347234759768E-16,0.,-1.));
#244=DIRECTION('',(-1.,0.,1.7347234759768E-16));
#245=DIRECTION('',(0.,1.,0.));
#246=DIRECTION('',(1.,0.,8.67361737988404E-17));
#247=DIRECTION('',(8.67361737988404E-17,0.,-1.));
#248=DIRECTION('',(0.,1.,0.));
#249=DIRECTION('',(-1.7347234759768E-16,0.,-1.));
#250=DIRECTION('',(-1.,0.,1.7347234759768E-16));
#251=CARTESIAN_POINT('',(0.,0.,0.));
#252=CARTESIAN_POINT('',(0.,0.005,-2.4492935982947E-19));
#253=CARTESIAN_POINT('',(0.,0.,-2.4492935982947E-19));
#254=CARTESIAN_POINT('',(0.004,0.,-2.4492935982947E-19));
#255=CARTESIAN_POINT('',(0.,0.007,-2.4492935982947E-19));
#256=CARTESIAN_POINT('',(0.004,0.007,-2.4492935982947E-19));
#257=CARTESIAN_POINT('',(0.,0.007,-1.83697019872103E-19));
#258=CARTESIAN_POINT('',(0.,0.007,-1.83697019872103E-19));
#259=CARTESIAN_POINT('',(0.003,0.007,-1.83697019872103E-19));
#260=CARTESIAN_POINT('',(0.,0.005,-1.83697019872103E-19));
#261=CARTESIAN_POINT('',(0.003,0.005,-1.83697019872103E-19));
#262=CARTESIAN_POINT('',(0.,0.007,0.));
#263=CARTESIAN_POINT('',(0.,0.005,0.));
#264=CARTESIAN_POINT('',(0.,-0.002,-3.06161699786838E-19));
#265=CARTESIAN_POINT('',(0.,-0.002,-3.06161699786838E-19));
#266=CARTESIAN_POINT('',(0.005,-0.002,-3.06161699786838E-19));
#267=CARTESIAN_POINT('',(0.,0.,-3.06161699786838E-19));
#268=CARTESIAN_POINT('',(0.005,0.,-3.06161699786838E-19));
#269=CARTESIAN_POINT('',(0.,-0.002,0.));
#270=CARTESIAN_POINT('',(0.0025,-0.002,-4.33680868994202E-19));
#271=CARTESIAN_POINT('',(0.0025,-0.002,0.0025));
#272=CARTESIAN_POINT('',(0.0025,-0.002,-0.0025));
#273=CARTESIAN_POINT('',(8.67361737988404E-19,-0.002,-0.0025));
#274=CARTESIAN_POINT('',(-0.0025,-0.002,-0.0025));
#275=CARTESIAN_POINT('',(-0.0025,-0.002,0.));
#276=CARTESIAN_POINT('',(-0.0025,-0.002,0.0025));
#277=CARTESIAN_POINT('',(4.33680868994202E-19,-0.002,0.0025));
#278=CARTESIAN_POINT('',(0.,0.,0.));
#279=CARTESIAN_POINT('',(0.,-0.007,0.));
#280=CARTESIAN_POINT('',(4.33680868994202E-19,-0.007,0.0025));
#281=CARTESIAN_POINT('',(0.0025,-0.007,0.0025));
#282=CARTESIAN_POINT('',(-0.0025,-0.007,0.0025));
#283=CARTESIAN_POINT('',(-0.0025,-0.007,0.));
#284=CARTESIAN_POINT('',(-0.0025,-0.007,-0.0025));
#285=CARTESIAN_POINT('',(8.67361737988404E-19,-0.007,-0.0025));
#286=CARTESIAN_POINT('',(0.0025,-0.007,-0.0025));
#287=CARTESIAN_POINT('',(0.0025,-0.007,-4.33680868994202E-19));
#288=CARTESIAN_POINT('',(-0.0025,-0.007,0.));
#289=CARTESIAN_POINT('',(-0.0025,-0.007,-0.0025));
#290=CARTESIAN_POINT('',(-0.0025,-0.007,0.0025));
#291=CARTESIAN_POINT('',(8.67361737988404E-19,-0.007,-0.0025));
#292=CARTESIAN_POINT('',(0.0025,-0.007,-0.0025));
#293=CARTESIAN_POINT('',(0.0025,-0.007,-4.33680868994202E-19));
#294=CARTESIAN_POINT('',(0.0025,-0.007,0.0025));
#295=CARTESIAN_POINT('',(4.33680868994202E-19,-0.007,0.0025));
#296=MECHANICAL_DESIGN_GEOMETRIC_PRESENTATION_REPRESENTATION('',(#171),
#297);
#297=(
GEOMETRIC_REPRESENTATION_CONTEXT(3)
GLOBAL_UNCERTAINTY_ASSIGNED_CONTEXT((#298))
GLOBAL_UNIT_ASSIGNED_CONTEXT((#301,#300,#299))
REPRESENTATION_CONTEXT('EncoderMagnetMount','TOP_LEVEL_ASSEMBLY_PART')
);
#298=UNCERTAINTY_MEASURE_WITH_UNIT(LENGTH_MEASURE(1.E-8),#301,
'DISTANCE_ACCURACY_VALUE','Maximum Tolerance applied to model');
#299=(
NAMED_UNIT(*)
SI_UNIT($,.STERADIAN.)
SOLID_ANGLE_UNIT()
);
#300=(
NAMED_UNIT(*)
PLANE_ANGLE_UNIT()
SI_UNIT($,.RADIAN.)
);
#301=(
LENGTH_UNIT()
NAMED_UNIT(*)
SI_UNIT($,.METRE.)
);
#302=PRODUCT_DEFINITION_SHAPE('','',#303);
#303=PRODUCT_DEFINITION('','',#305,#304);
#304=PRODUCT_DEFINITION_CONTEXT('',#311,'design');
#305=PRODUCT_DEFINITION_FORMATION_WITH_SPECIFIED_SOURCE('','',#307,
 .NOT_KNOWN.);
#306=PRODUCT_RELATED_PRODUCT_CATEGORY('','',(#307));
#307=PRODUCT('EncoderMagnetMount','EncoderMagnetMount',
'EncoderMagnetMount',(#309));
#308=PRODUCT_CATEGORY('','');
#309=PRODUCT_CONTEXT('',#311,'mechanical');
#310=APPLICATION_PROTOCOL_DEFINITION('international standard',
'ap242_managed_model_based_3d_engineering',2020,#311);
#311=APPLICATION_CONTEXT('managed model based 3d engineering');
ENDSEC;
END-ISO-10303-21;
