ISO-10303-21;
HEADER;
/* Generated by software containing ST-Developer
 * from STEP Tools, Inc. (www.steptools.com) 
 */
/* OPTION: using custom renumber hook */

FILE_DESCRIPTION(
/* description */ ('STEP AP242 Edition 2',
'CAx-IF Rec.Pracs.---Representation and Presentation of Product Manufa
cturing Information (PMI)---4.0---2014-10-13',
'CAx-IF Rec.Pracs.---3D Tessellated Geometry---0.4---2014-09-14','2;1',
'CAx-IF Rec.Pracs.---User Defined Attributes---1.5---2016-08-15'),
/* implementation_level */ '2;1');

FILE_NAME(
/* name */ 'Part Studio 2 - FaderKnob',
/* time_stamp */ '2026-06-20T20:01:19Z',
/* author */ (''),
/* organization */ (''),
/* preprocessor_version */ 'ST-DEVELOPER v20',
/* originating_system */ 'ONSHAPE BY PTC INC, 1.216',
/* authorisation */ '  ');

FILE_SCHEMA (('AP242_MANAGED_MODEL_BASED_3D_ENGINEERING_MIM_LF { 1 0 10303 442 3 1 4 }'));
ENDSEC;

DATA;
#10=SHAPE_REPRESENTATION_RELATIONSHIP('','',#365,#11);
#11=ADVANCED_BREP_SHAPE_REPRESENTATION('',(#363),#627);
#12=TOROIDAL_SURFACE('',#390,0.01,0.001);
#13=TOROIDAL_SURFACE('',#398,0.01,0.001);
#14=SPHERICAL_SURFACE('',#383,0.001);
#15=SPHERICAL_SURFACE('',#394,0.001);
#16=SPHERICAL_SURFACE('',#396,0.001);
#17=SPHERICAL_SURFACE('',#402,0.001);
#18=CYLINDRICAL_SURFACE('',#373,0.009);
#19=CYLINDRICAL_SURFACE('',#381,0.001);
#20=CYLINDRICAL_SURFACE('',#386,0.001);
#21=CYLINDRICAL_SURFACE('',#388,0.001);
#22=CYLINDRICAL_SURFACE('',#392,0.001);
#23=CYLINDRICAL_SURFACE('',#400,0.001);
#24=CYLINDRICAL_SURFACE('',#404,0.001);
#25=CIRCLE('',#368,0.001);
#26=CIRCLE('',#369,0.001);
#27=CIRCLE('',#370,0.001);
#28=CIRCLE('',#371,0.001);
#29=CIRCLE('',#374,0.009);
#30=CIRCLE('',#375,0.009);
#31=CIRCLE('',#378,0.01);
#32=CIRCLE('',#380,0.01);
#33=CIRCLE('',#382,0.001);
#34=CIRCLE('',#384,0.001);
#35=CIRCLE('',#385,0.001);
#36=CIRCLE('',#387,0.001);
#37=CIRCLE('',#389,0.001);
#38=CIRCLE('',#391,0.001);
#39=CIRCLE('',#393,0.001);
#40=CIRCLE('',#395,0.001);
#41=CIRCLE('',#397,0.001);
#42=CIRCLE('',#399,0.001);
#43=CIRCLE('',#401,0.001);
#44=CIRCLE('',#403,0.001);
#45=ORIENTED_EDGE('',*,*,#141,.F.);
#46=ORIENTED_EDGE('',*,*,#142,.T.);
#47=ORIENTED_EDGE('',*,*,#143,.T.);
#48=ORIENTED_EDGE('',*,*,#144,.T.);
#49=ORIENTED_EDGE('',*,*,#145,.T.);
#50=ORIENTED_EDGE('',*,*,#146,.T.);
#51=ORIENTED_EDGE('',*,*,#147,.F.);
#52=ORIENTED_EDGE('',*,*,#148,.T.);
#53=ORIENTED_EDGE('',*,*,#149,.F.);
#54=ORIENTED_EDGE('',*,*,#150,.T.);
#55=ORIENTED_EDGE('',*,*,#151,.T.);
#56=ORIENTED_EDGE('',*,*,#152,.F.);
#57=ORIENTED_EDGE('',*,*,#153,.T.);
#58=ORIENTED_EDGE('',*,*,#154,.T.);
#59=ORIENTED_EDGE('',*,*,#141,.T.);
#60=ORIENTED_EDGE('',*,*,#155,.T.);
#61=ORIENTED_EDGE('',*,*,#156,.T.);
#62=ORIENTED_EDGE('',*,*,#157,.T.);
#63=ORIENTED_EDGE('',*,*,#158,.T.);
#64=ORIENTED_EDGE('',*,*,#159,.T.);
#65=ORIENTED_EDGE('',*,*,#160,.T.);
#66=ORIENTED_EDGE('',*,*,#161,.T.);
#67=ORIENTED_EDGE('',*,*,#145,.F.);
#68=ORIENTED_EDGE('',*,*,#162,.T.);
#69=ORIENTED_EDGE('',*,*,#143,.F.);
#70=ORIENTED_EDGE('',*,*,#163,.T.);
#71=ORIENTED_EDGE('',*,*,#164,.T.);
#72=ORIENTED_EDGE('',*,*,#165,.T.);
#73=ORIENTED_EDGE('',*,*,#166,.T.);
#74=ORIENTED_EDGE('',*,*,#167,.T.);
#75=ORIENTED_EDGE('',*,*,#147,.T.);
#76=ORIENTED_EDGE('',*,*,#168,.T.);
#77=ORIENTED_EDGE('',*,*,#169,.F.);
#78=ORIENTED_EDGE('',*,*,#168,.F.);
#79=ORIENTED_EDGE('',*,*,#146,.F.);
#80=ORIENTED_EDGE('',*,*,#161,.F.);
#81=ORIENTED_EDGE('',*,*,#170,.F.);
#82=ORIENTED_EDGE('',*,*,#169,.T.);
#83=ORIENTED_EDGE('',*,*,#171,.F.);
#84=ORIENTED_EDGE('',*,*,#144,.F.);
#85=ORIENTED_EDGE('',*,*,#165,.F.);
#86=ORIENTED_EDGE('',*,*,#172,.F.);
#87=ORIENTED_EDGE('',*,*,#162,.F.);
#88=ORIENTED_EDGE('',*,*,#171,.T.);
#89=ORIENTED_EDGE('',*,*,#160,.F.);
#90=ORIENTED_EDGE('',*,*,#173,.F.);
#91=ORIENTED_EDGE('',*,*,#159,.F.);
#92=ORIENTED_EDGE('',*,*,#170,.T.);
#93=ORIENTED_EDGE('',*,*,#158,.F.);
#94=ORIENTED_EDGE('',*,*,#174,.F.);
#95=ORIENTED_EDGE('',*,*,#166,.F.);
#96=ORIENTED_EDGE('',*,*,#148,.F.);
#97=ORIENTED_EDGE('',*,*,#167,.F.);
#98=ORIENTED_EDGE('',*,*,#175,.F.);
#99=ORIENTED_EDGE('',*,*,#155,.F.);
#100=ORIENTED_EDGE('',*,*,#173,.T.);
#101=ORIENTED_EDGE('',*,*,#172,.T.);
#102=ORIENTED_EDGE('',*,*,#176,.F.);
#103=ORIENTED_EDGE('',*,*,#175,.T.);
#104=ORIENTED_EDGE('',*,*,#174,.T.);
#105=ORIENTED_EDGE('',*,*,#177,.F.);
#106=ORIENTED_EDGE('',*,*,#176,.T.);
#107=ORIENTED_EDGE('',*,*,#164,.F.);
#108=ORIENTED_EDGE('',*,*,#178,.F.);
#109=ORIENTED_EDGE('',*,*,#156,.F.);
#110=ORIENTED_EDGE('',*,*,#177,.T.);
#111=ORIENTED_EDGE('',*,*,#157,.F.);
#112=ORIENTED_EDGE('',*,*,#179,.F.);
#113=ORIENTED_EDGE('',*,*,#153,.F.);
#114=ORIENTED_EDGE('',*,*,#179,.T.);
#115=ORIENTED_EDGE('',*,*,#178,.T.);
#116=ORIENTED_EDGE('',*,*,#180,.F.);
#117=ORIENTED_EDGE('',*,*,#142,.F.);
#118=ORIENTED_EDGE('',*,*,#154,.F.);
#119=ORIENTED_EDGE('',*,*,#180,.T.);
#120=ORIENTED_EDGE('',*,*,#163,.F.);
#121=ORIENTED_EDGE('',*,*,#150,.F.);
#122=ORIENTED_EDGE('',*,*,#181,.F.);
#123=ORIENTED_EDGE('',*,*,#182,.T.);
#124=ORIENTED_EDGE('',*,*,#183,.T.);
#125=ORIENTED_EDGE('',*,*,#149,.T.);
#126=ORIENTED_EDGE('',*,*,#184,.F.);
#127=ORIENTED_EDGE('',*,*,#185,.F.);
#128=ORIENTED_EDGE('',*,*,#181,.T.);
#129=ORIENTED_EDGE('',*,*,#152,.T.);
#130=ORIENTED_EDGE('',*,*,#186,.F.);
#131=ORIENTED_EDGE('',*,*,#187,.F.);
#132=ORIENTED_EDGE('',*,*,#184,.T.);
#133=ORIENTED_EDGE('',*,*,#151,.F.);
#134=ORIENTED_EDGE('',*,*,#183,.F.);
#135=ORIENTED_EDGE('',*,*,#188,.T.);
#136=ORIENTED_EDGE('',*,*,#186,.T.);
#137=ORIENTED_EDGE('',*,*,#182,.F.);
#138=ORIENTED_EDGE('',*,*,#185,.T.);
#139=ORIENTED_EDGE('',*,*,#187,.T.);
#140=ORIENTED_EDGE('',*,*,#188,.F.);
#141=EDGE_CURVE('',#189,#190,#217,.T.);
#142=EDGE_CURVE('',#189,#191,#25,.T.);
#143=EDGE_CURVE('',#191,#192,#218,.T.);
#144=EDGE_CURVE('',#192,#193,#26,.T.);
#145=EDGE_CURVE('',#193,#194,#219,.T.);
#146=EDGE_CURVE('',#194,#195,#27,.T.);
#147=EDGE_CURVE('',#196,#195,#220,.T.);
#148=EDGE_CURVE('',#196,#190,#28,.T.);
#149=EDGE_CURVE('',#197,#198,#221,.T.);
#150=EDGE_CURVE('',#197,#199,#222,.T.);
#151=EDGE_CURVE('',#199,#200,#223,.T.);
#152=EDGE_CURVE('',#198,#200,#224,.T.);
#153=EDGE_CURVE('',#201,#202,#225,.T.);
#154=EDGE_CURVE('',#202,#189,#226,.F.);
#155=EDGE_CURVE('',#190,#201,#227,.T.);
#156=EDGE_CURVE('',#203,#204,#29,.T.);
#157=EDGE_CURVE('',#204,#205,#228,.T.);
#158=EDGE_CURVE('',#205,#206,#30,.F.);
#159=EDGE_CURVE('',#206,#203,#229,.F.);
#160=EDGE_CURVE('',#207,#208,#230,.T.);
#161=EDGE_CURVE('',#208,#194,#231,.F.);
#162=EDGE_CURVE('',#193,#207,#232,.T.);
#163=EDGE_CURVE('',#191,#209,#233,.T.);
#164=EDGE_CURVE('',#209,#210,#31,.F.);
#165=EDGE_CURVE('',#210,#192,#234,.F.);
#166=EDGE_CURVE('',#211,#212,#32,.T.);
#167=EDGE_CURVE('',#212,#196,#235,.F.);
#168=EDGE_CURVE('',#195,#211,#236,.T.);
#169=EDGE_CURVE('',#211,#208,#33,.T.);
#170=EDGE_CURVE('',#211,#206,#34,.F.);
#171=EDGE_CURVE('',#206,#208,#35,.F.);
#172=EDGE_CURVE('',#207,#210,#36,.T.);
#173=EDGE_CURVE('',#203,#207,#37,.T.);
#174=EDGE_CURVE('',#212,#205,#38,.T.);
#175=EDGE_CURVE('',#201,#212,#39,.T.);
#176=EDGE_CURVE('',#203,#210,#40,.F.);
#177=EDGE_CURVE('',#201,#205,#41,.F.);
#178=EDGE_CURVE('',#204,#209,#42,.T.);
#179=EDGE_CURVE('',#202,#204,#43,.T.);
#180=EDGE_CURVE('',#202,#209,#44,.F.);
#181=EDGE_CURVE('',#213,#197,#237,.T.);
#182=EDGE_CURVE('',#213,#214,#238,.T.);
#183=EDGE_CURVE('',#214,#199,#239,.T.);
#184=EDGE_CURVE('',#215,#198,#240,.T.);
#185=EDGE_CURVE('',#213,#215,#241,.T.);
#186=EDGE_CURVE('',#216,#200,#242,.T.);
#187=EDGE_CURVE('',#215,#216,#243,.T.);
#188=EDGE_CURVE('',#214,#216,#244,.T.);
#189=VERTEX_POINT('',#529);
#190=VERTEX_POINT('',#530);
#191=VERTEX_POINT('',#532);
#192=VERTEX_POINT('',#534);
#193=VERTEX_POINT('',#536);
#194=VERTEX_POINT('',#538);
#195=VERTEX_POINT('',#540);
#196=VERTEX_POINT('',#542);
#197=VERTEX_POINT('',#545);
#198=VERTEX_POINT('',#546);
#199=VERTEX_POINT('',#548);
#200=VERTEX_POINT('',#550);
#201=VERTEX_POINT('',#554);
#202=VERTEX_POINT('',#555);
#203=VERTEX_POINT('',#560);
#204=VERTEX_POINT('',#561);
#205=VERTEX_POINT('',#563);
#206=VERTEX_POINT('',#565);
#207=VERTEX_POINT('',#569);
#208=VERTEX_POINT('',#570);
#209=VERTEX_POINT('',#575);
#210=VERTEX_POINT('',#577);
#211=VERTEX_POINT('',#581);
#212=VERTEX_POINT('',#582);
#213=VERTEX_POINT('',#611);
#214=VERTEX_POINT('',#613);
#215=VERTEX_POINT('',#617);
#216=VERTEX_POINT('',#621);
#217=LINE('',#528,#245);
#218=LINE('',#533,#246);
#219=LINE('',#537,#247);
#220=LINE('',#541,#248);
#221=LINE('',#544,#249);
#222=LINE('',#547,#250);
#223=LINE('',#549,#251);
#224=LINE('',#551,#252);
#225=LINE('',#553,#253);
#226=LINE('',#556,#254);
#227=LINE('',#557,#255);
#228=LINE('',#562,#256);
#229=LINE('',#566,#257);
#230=LINE('',#568,#258);
#231=LINE('',#571,#259);
#232=LINE('',#572,#260);
#233=LINE('',#574,#261);
#234=LINE('',#578,#262);
#235=LINE('',#583,#263);
#236=LINE('',#584,#264);
#237=LINE('',#610,#265);
#238=LINE('',#612,#266);
#239=LINE('',#614,#267);
#240=LINE('',#616,#268);
#241=LINE('',#618,#269);
#242=LINE('',#620,#270);
#243=LINE('',#622,#271);
#244=LINE('',#624,#272);
#245=VECTOR('',#414,1.);
#246=VECTOR('',#417,1.);
#247=VECTOR('',#420,1.);
#248=VECTOR('',#423,1.);
#249=VECTOR('',#426,1.);
#250=VECTOR('',#427,1.);
#251=VECTOR('',#428,1.);
#252=VECTOR('',#429,1.);
#253=VECTOR('',#432,1.);
#254=VECTOR('',#433,1.);
#255=VECTOR('',#434,1.);
#256=VECTOR('',#439,1.);
#257=VECTOR('',#442,1.);
#258=VECTOR('',#445,1.);
#259=VECTOR('',#446,1.);
#260=VECTOR('',#447,1.);
#261=VECTOR('',#450,1.);
#262=VECTOR('',#453,1.);
#263=VECTOR('',#458,1.);
#264=VECTOR('',#459,1.);
#265=VECTOR('',#510,1.);
#266=VECTOR('',#511,1.);
#267=VECTOR('',#512,1.);
#268=VECTOR('',#515,1.);
#269=VECTOR('',#516,1.);
#270=VECTOR('',#519,1.);
#271=VECTOR('',#520,1.);
#272=VECTOR('',#523,1.);
#273=EDGE_LOOP('',(#45,#46,#47,#48,#49,#50,#51,#52));
#274=EDGE_LOOP('',(#53,#54,#55,#56));
#275=EDGE_LOOP('',(#57,#58,#59,#60));
#276=EDGE_LOOP('',(#61,#62,#63,#64));
#277=EDGE_LOOP('',(#65,#66,#67,#68));
#278=EDGE_LOOP('',(#69,#70,#71,#72));
#279=EDGE_LOOP('',(#73,#74,#75,#76));
#280=EDGE_LOOP('',(#77,#78,#79,#80));
#281=EDGE_LOOP('',(#81,#82,#83));
#282=EDGE_LOOP('',(#84,#85,#86,#87));
#283=EDGE_LOOP('',(#88,#89,#90,#91));
#284=EDGE_LOOP('',(#92,#93,#94,#95));
#285=EDGE_LOOP('',(#96,#97,#98,#99));
#286=EDGE_LOOP('',(#100,#101,#102));
#287=EDGE_LOOP('',(#103,#104,#105));
#288=EDGE_LOOP('',(#106,#107,#108,#109));
#289=EDGE_LOOP('',(#110,#111,#112,#113));
#290=EDGE_LOOP('',(#114,#115,#116));
#291=EDGE_LOOP('',(#117,#118,#119,#120));
#292=EDGE_LOOP('',(#121,#122,#123,#124));
#293=EDGE_LOOP('',(#125,#126,#127,#128));
#294=EDGE_LOOP('',(#129,#130,#131,#132));
#295=EDGE_LOOP('',(#133,#134,#135,#136));
#296=EDGE_LOOP('',(#137,#138,#139,#140));
#297=FACE_BOUND('',#273,.T.);
#298=FACE_BOUND('',#274,.T.);
#299=FACE_BOUND('',#275,.T.);
#300=FACE_BOUND('',#276,.T.);
#301=FACE_BOUND('',#277,.T.);
#302=FACE_BOUND('',#278,.T.);
#303=FACE_BOUND('',#279,.T.);
#304=FACE_BOUND('',#280,.T.);
#305=FACE_BOUND('',#281,.T.);
#306=FACE_BOUND('',#282,.T.);
#307=FACE_BOUND('',#283,.T.);
#308=FACE_BOUND('',#284,.T.);
#309=FACE_BOUND('',#285,.T.);
#310=FACE_BOUND('',#286,.T.);
#311=FACE_BOUND('',#287,.T.);
#312=FACE_BOUND('',#288,.T.);
#313=FACE_BOUND('',#289,.T.);
#314=FACE_BOUND('',#290,.T.);
#315=FACE_BOUND('',#291,.T.);
#316=FACE_BOUND('',#292,.T.);
#317=FACE_BOUND('',#293,.T.);
#318=FACE_BOUND('',#294,.T.);
#319=FACE_BOUND('',#295,.T.);
#320=FACE_BOUND('',#296,.T.);
#321=PLANE('',#367);
#322=PLANE('',#372);
#323=PLANE('',#376);
#324=PLANE('',#377);
#325=PLANE('',#379);
#326=PLANE('',#405);
#327=PLANE('',#406);
#328=PLANE('',#407);
#329=PLANE('',#408);
#330=PLANE('',#409);
#331=ADVANCED_FACE('',(#297,#298),#321,.T.);
#332=ADVANCED_FACE('',(#299),#322,.F.);
#333=ADVANCED_FACE('',(#300),#18,.F.);
#334=ADVANCED_FACE('',(#301),#323,.T.);
#335=ADVANCED_FACE('',(#302),#324,.T.);
#336=ADVANCED_FACE('',(#303),#325,.F.);
#337=ADVANCED_FACE('',(#304),#19,.T.);
#338=ADVANCED_FACE('',(#305),#14,.T.);
#339=ADVANCED_FACE('',(#306),#20,.T.);
#340=ADVANCED_FACE('',(#307),#21,.T.);
#341=ADVANCED_FACE('',(#308),#12,.T.);
#342=ADVANCED_FACE('',(#309),#22,.T.);
#343=ADVANCED_FACE('',(#310),#15,.T.);
#344=ADVANCED_FACE('',(#311),#16,.T.);
#345=ADVANCED_FACE('',(#312),#13,.T.);
#346=ADVANCED_FACE('',(#313),#23,.T.);
#347=ADVANCED_FACE('',(#314),#17,.T.);
#348=ADVANCED_FACE('',(#315),#24,.T.);
#349=ADVANCED_FACE('',(#316),#326,.T.);
#350=ADVANCED_FACE('',(#317),#327,.F.);
#351=ADVANCED_FACE('',(#318),#328,.F.);
#352=ADVANCED_FACE('',(#319),#329,.T.);
#353=ADVANCED_FACE('',(#320),#330,.T.);
#354=CLOSED_SHELL('',(#331,#332,#333,#334,#335,#336,#337,#338,#339,#340,
#341,#342,#343,#344,#345,#346,#347,#348,#349,#350,#351,#352,#353));
#355=STYLED_ITEM('',(#356),#363);
#356=PRESENTATION_STYLE_ASSIGNMENT((#357));
#357=SURFACE_STYLE_USAGE(.BOTH.,#358);
#358=SURFACE_SIDE_STYLE('',(#359));
#359=SURFACE_STYLE_FILL_AREA(#360);
#360=FILL_AREA_STYLE('',(#361));
#361=FILL_AREA_STYLE_COLOUR('',#362);
#362=COLOUR_RGB('',0.980392156862745,0.713725490196078,0.00392156862745098);
#363=MANIFOLD_SOLID_BREP('FaderKnob',#354);
#364=SHAPE_DEFINITION_REPRESENTATION(#632,#365);
#365=SHAPE_REPRESENTATION('FaderKnob',(#366),#627);
#366=AXIS2_PLACEMENT_3D('',#526,#410,#411);
#367=AXIS2_PLACEMENT_3D('',#527,#412,#413);
#368=AXIS2_PLACEMENT_3D('',#531,#415,#416);
#369=AXIS2_PLACEMENT_3D('',#535,#418,#419);
#370=AXIS2_PLACEMENT_3D('',#539,#421,#422);
#371=AXIS2_PLACEMENT_3D('',#543,#424,#425);
#372=AXIS2_PLACEMENT_3D('',#552,#430,#431);
#373=AXIS2_PLACEMENT_3D('',#558,#435,#436);
#374=AXIS2_PLACEMENT_3D('',#559,#437,#438);
#375=AXIS2_PLACEMENT_3D('',#564,#440,#441);
#376=AXIS2_PLACEMENT_3D('',#567,#443,#444);
#377=AXIS2_PLACEMENT_3D('',#573,#448,#449);
#378=AXIS2_PLACEMENT_3D('',#576,#451,#452);
#379=AXIS2_PLACEMENT_3D('',#579,#454,#455);
#380=AXIS2_PLACEMENT_3D('',#580,#456,#457);
#381=AXIS2_PLACEMENT_3D('',#585,#460,#461);
#382=AXIS2_PLACEMENT_3D('',#586,#462,#463);
#383=AXIS2_PLACEMENT_3D('',#587,#464,#465);
#384=AXIS2_PLACEMENT_3D('',#588,#466,#467);
#385=AXIS2_PLACEMENT_3D('',#589,#468,#469);
#386=AXIS2_PLACEMENT_3D('',#590,#470,#471);
#387=AXIS2_PLACEMENT_3D('',#591,#472,#473);
#388=AXIS2_PLACEMENT_3D('',#592,#474,#475);
#389=AXIS2_PLACEMENT_3D('',#593,#476,#477);
#390=AXIS2_PLACEMENT_3D('',#594,#478,#479);
#391=AXIS2_PLACEMENT_3D('',#595,#480,#481);
#392=AXIS2_PLACEMENT_3D('',#596,#482,#483);
#393=AXIS2_PLACEMENT_3D('',#597,#484,#485);
#394=AXIS2_PLACEMENT_3D('',#598,#486,#487);
#395=AXIS2_PLACEMENT_3D('',#599,#488,#489);
#396=AXIS2_PLACEMENT_3D('',#600,#490,#491);
#397=AXIS2_PLACEMENT_3D('',#601,#492,#493);
#398=AXIS2_PLACEMENT_3D('',#602,#494,#495);
#399=AXIS2_PLACEMENT_3D('',#603,#496,#497);
#400=AXIS2_PLACEMENT_3D('',#604,#498,#499);
#401=AXIS2_PLACEMENT_3D('',#605,#500,#501);
#402=AXIS2_PLACEMENT_3D('',#606,#502,#503);
#403=AXIS2_PLACEMENT_3D('',#607,#504,#505);
#404=AXIS2_PLACEMENT_3D('',#608,#506,#507);
#405=AXIS2_PLACEMENT_3D('',#609,#508,#509);
#406=AXIS2_PLACEMENT_3D('',#615,#513,#514);
#407=AXIS2_PLACEMENT_3D('',#619,#517,#518);
#408=AXIS2_PLACEMENT_3D('',#623,#521,#522);
#409=AXIS2_PLACEMENT_3D('',#625,#524,#525);
#410=DIRECTION('',(0.,0.,1.));
#411=DIRECTION('',(1.,0.,0.));
#412=DIRECTION('',(0.,-1.,0.));
#413=DIRECTION('',(-1.,0.,0.));
#414=DIRECTION('',(-1.,0.,0.));
#415=DIRECTION('',(0.,-1.,0.));
#416=DIRECTION('',(-1.,0.,0.));
#417=DIRECTION('',(0.,0.,1.));
#418=DIRECTION('',(0.,-1.,0.));
#419=DIRECTION('',(-1.,0.,0.));
#420=DIRECTION('',(-1.,0.,0.));
#421=DIRECTION('',(0.,-1.,0.));
#422=DIRECTION('',(-1.,0.,0.));
#423=DIRECTION('',(0.,0.,1.));
#424=DIRECTION('',(0.,-1.,0.));
#425=DIRECTION('',(-1.,0.,0.));
#426=DIRECTION('',(0.,0.,1.));
#427=DIRECTION('',(-1.,0.,0.));
#428=DIRECTION('',(1.0842021724855E-16,0.,1.));
#429=DIRECTION('',(-1.,0.,0.));
#430=DIRECTION('',(0.,0.,1.));
#431=DIRECTION('',(0.,-1.,0.));
#432=DIRECTION('',(1.,0.,0.));
#433=DIRECTION('',(0.,1.,0.));
#434=DIRECTION('',(0.,1.,0.));
#435=DIRECTION('',(-1.,0.,0.));
#436=DIRECTION('',(0.,1.,0.));
#437=DIRECTION('',(1.,0.,0.));
#438=DIRECTION('',(0.,-1.,0.));
#439=DIRECTION('',(-1.,0.,0.));
#440=DIRECTION('',(1.,0.,0.));
#441=DIRECTION('',(0.,-1.,0.));
#442=DIRECTION('',(-1.,0.,0.));
#443=DIRECTION('',(0.,-2.16840434497101E-16,1.));
#444=DIRECTION('',(0.,-1.,-2.16840434497101E-16));
#445=DIRECTION('',(-1.,0.,0.));
#446=DIRECTION('',(0.,1.,2.16840434497101E-16));
#447=DIRECTION('',(0.,1.,2.16840434497101E-16));
#448=DIRECTION('',(1.,0.,0.));
#449=DIRECTION('',(0.,0.,-1.));
#450=DIRECTION('',(0.,1.,0.));
#451=DIRECTION('',(1.,0.,0.));
#452=DIRECTION('',(0.,-1.,0.));
#453=DIRECTION('',(0.,1.,2.16840434497101E-16));
#454=DIRECTION('',(1.,0.,0.));
#455=DIRECTION('',(0.,0.,-1.));
#456=DIRECTION('',(1.,0.,0.));
#457=DIRECTION('',(0.,-1.,0.));
#458=DIRECTION('',(0.,1.,0.));
#459=DIRECTION('',(0.,1.,2.16840434497101E-16));
#460=DIRECTION('',(0.,-1.,-2.16840434497101E-16));
#461=DIRECTION('',(0.,2.16840434497101E-16,-1.));
#462=DIRECTION('',(0.,1.,8.67361737988404E-16));
#463=DIRECTION('',(0.,-8.67361737988404E-16,1.));
#464=DIRECTION('',(-1.,-8.67361737988404E-16,0.));
#465=DIRECTION('',(-8.67361737988404E-16,1.,0.));
#466=DIRECTION('',(1.0106077345734E-16,0.4,0.916515138991168));
#467=DIRECTION('',(0.,-0.916515138991168,0.4));
#468=DIRECTION('',(-1.,0.,0.));
#469=DIRECTION('',(0.,1.,0.));
#470=DIRECTION('',(0.,1.,2.16840434497101E-16));
#471=DIRECTION('',(0.,-2.16840434497101E-16,1.));
#472=DIRECTION('',(-8.67361737988404E-16,1.,0.));
#473=DIRECTION('',(1.,8.67361737988404E-16,0.));
#474=DIRECTION('',(-1.,0.,0.));
#475=DIRECTION('',(0.,1.,0.));
#476=DIRECTION('',(1.,0.,0.));
#477=DIRECTION('',(0.,-1.,0.));
#478=DIRECTION('',(1.,0.,0.));
#479=DIRECTION('',(0.,-1.,0.));
#480=DIRECTION('',(0.,0.4,-0.916515138991168));
#481=DIRECTION('',(0.,0.916515138991168,0.4));
#482=DIRECTION('',(0.,1.,0.));
#483=DIRECTION('',(1.,0.,0.));
#484=DIRECTION('',(-8.67361737988404E-16,1.,0.));
#485=DIRECTION('',(1.,8.67361737988404E-16,0.));
#486=DIRECTION('',(1.,-1.73472347597681E-15,0.));
#487=DIRECTION('',(-1.73472347597681E-15,-1.,0.));
#488=DIRECTION('',(0.,0.4,0.916515138991168));
#489=DIRECTION('',(0.,-0.916515138991168,0.4));
#490=DIRECTION('',(-1.,0.,0.));
#491=DIRECTION('',(0.,1.,0.));
#492=DIRECTION('',(-1.,0.,0.));
#493=DIRECTION('',(0.,1.,0.));
#494=DIRECTION('',(1.,0.,0.));
#495=DIRECTION('',(0.,-1.,0.));
#496=DIRECTION('',(2.45883921738021E-16,0.4,-0.916515138991168));
#497=DIRECTION('',(0.,0.916515138991168,0.4));
#498=DIRECTION('',(-1.,0.,0.));
#499=DIRECTION('',(0.,1.,0.));
#500=DIRECTION('',(1.,0.,0.));
#501=DIRECTION('',(0.,-1.,0.));
#502=DIRECTION('',(1.,0.,0.));
#503=DIRECTION('',(0.,-1.,0.));
#504=DIRECTION('',(0.,1.,8.67361737988404E-16));
#505=DIRECTION('',(0.,-8.67361737988404E-16,1.));
#506=DIRECTION('',(0.,-1.,0.));
#507=DIRECTION('',(-1.,0.,0.));
#508=DIRECTION('',(0.,0.,1.));
#509=DIRECTION('',(0.,-1.,0.));
#510=DIRECTION('',(0.,-1.,0.));
#511=DIRECTION('',(-1.,0.,0.));
#512=DIRECTION('',(0.,-1.,0.));
#513=DIRECTION('',(1.,0.,0.));
#514=DIRECTION('',(0.,-1.,0.));
#515=DIRECTION('',(0.,-1.,0.));
#516=DIRECTION('',(0.,0.,1.));
#517=DIRECTION('',(0.,0.,1.));
#518=DIRECTION('',(0.,-1.,0.));
#519=DIRECTION('',(0.,-1.,0.));
#520=DIRECTION('',(-1.,0.,0.));
#521=DIRECTION('',(1.,0.,-1.0842021724855E-16));
#522=DIRECTION('',(-1.0842021724855E-16,0.,-1.));
#523=DIRECTION('',(1.0842021724855E-16,0.,1.));
#524=DIRECTION('',(0.,-1.,0.));
#525=DIRECTION('',(1.,0.,0.));
#526=CARTESIAN_POINT('',(0.,0.,0.));
#527=CARTESIAN_POINT('',(0.005,0.,0.0025));
#528=CARTESIAN_POINT('',(0.005,0.,-0.005));
#529=CARTESIAN_POINT('',(0.004,0.,-0.005));
#530=CARTESIAN_POINT('',(0.001,0.,-0.005));
#531=CARTESIAN_POINT('',(0.004,0.,-0.004));
#532=CARTESIAN_POINT('',(0.005,0.,-0.004));
#533=CARTESIAN_POINT('',(0.005,0.,0.0025));
#534=CARTESIAN_POINT('',(0.005,0.,0.004));
#535=CARTESIAN_POINT('',(0.004,0.,0.004));
#536=CARTESIAN_POINT('',(0.004,-4.33680868994202E-19,0.005));
#537=CARTESIAN_POINT('',(0.005,-4.33680868994202E-19,0.005));
#538=CARTESIAN_POINT('',(0.001,-4.33680868994202E-19,0.005));
#539=CARTESIAN_POINT('',(0.001,0.,0.004));
#540=CARTESIAN_POINT('',(0.,0.,0.004));
#541=CARTESIAN_POINT('',(0.,0.,0.0025));
#542=CARTESIAN_POINT('',(0.,0.,-0.004));
#543=CARTESIAN_POINT('',(0.001,0.,-0.004));
#544=CARTESIAN_POINT('',(0.0031,0.,-2.16840434497101E-19));
#545=CARTESIAN_POINT('',(0.0031,0.,-0.002));
#546=CARTESIAN_POINT('',(0.0031,0.,0.002));
#547=CARTESIAN_POINT('',(0.0025,0.,-0.002));
#548=CARTESIAN_POINT('',(0.0019,0.,-0.002));
#549=CARTESIAN_POINT('',(0.0019,0.,0.001));
#550=CARTESIAN_POINT('',(0.0019,0.,0.002));
#551=CARTESIAN_POINT('',(0.0025,0.,0.002));
#552=CARTESIAN_POINT('',(0.005,0.004,-0.005));
#553=CARTESIAN_POINT('',(0.005,0.0063181633836362,-0.005));
#554=CARTESIAN_POINT('',(0.001,0.0063181633836362,-0.005));
#555=CARTESIAN_POINT('',(0.004,0.0063181633836362,-0.005));
#556=CARTESIAN_POINT('',(0.004,0.,-0.005));
#557=CARTESIAN_POINT('',(0.001,0.004,-0.005));
#558=CARTESIAN_POINT('',(0.005,0.0154833147735479,0.));
#559=CARTESIAN_POINT('',(0.004,0.0154833147735479,0.));
#560=CARTESIAN_POINT('',(0.004,0.00723467852262737,0.0036));
#561=CARTESIAN_POINT('',(0.004,0.00723467852262737,-0.0036));
#562=CARTESIAN_POINT('',(0.005,0.00723467852262737,-0.0036));
#563=CARTESIAN_POINT('',(0.001,0.00723467852262737,-0.0036));
#564=CARTESIAN_POINT('',(0.001,0.0154833147735479,0.));
#565=CARTESIAN_POINT('',(0.001,0.00723467852262737,0.0036));
#566=CARTESIAN_POINT('',(0.005,0.00723467852262737,0.0036));
#567=CARTESIAN_POINT('',(0.005,0.004,0.005));
#568=CARTESIAN_POINT('',(0.005,0.0063181633836362,0.005));
#569=CARTESIAN_POINT('',(0.004,0.0063181633836362,0.005));
#570=CARTESIAN_POINT('',(0.001,0.0063181633836362,0.005));
#571=CARTESIAN_POINT('',(0.001,-1.0842021724855E-18,0.005));
#572=CARTESIAN_POINT('',(0.004,0.004,0.005));
#573=CARTESIAN_POINT('',(0.005,0.004,0.));
#574=CARTESIAN_POINT('',(0.005,0.008,-0.004));
#575=CARTESIAN_POINT('',(0.005,0.0063181633836362,-0.004));
#576=CARTESIAN_POINT('',(0.005,0.0154833147735479,0.));
#577=CARTESIAN_POINT('',(0.005,0.0063181633836362,0.004));
#578=CARTESIAN_POINT('',(0.005,0.004,0.004));
#579=CARTESIAN_POINT('',(0.,0.004,0.));
#580=CARTESIAN_POINT('',(0.,0.0154833147735479,0.));
#581=CARTESIAN_POINT('',(0.,0.0063181633836362,0.004));
#582=CARTESIAN_POINT('',(0.,0.0063181633836362,-0.004));
#583=CARTESIAN_POINT('',(0.,0.004,-0.004));
#584=CARTESIAN_POINT('',(0.,0.008,0.004));
#585=CARTESIAN_POINT('',(0.001,0.004,0.004));
#586=CARTESIAN_POINT('',(0.001,0.0063181633836362,0.004));
#587=CARTESIAN_POINT('',(0.001,0.0063181633836362,0.004));
#588=CARTESIAN_POINT('',(0.001,0.0063181633836362,0.004));
#589=CARTESIAN_POINT('',(0.001,0.0063181633836362,0.004));
#590=CARTESIAN_POINT('',(0.004,0.004,0.004));
#591=CARTESIAN_POINT('',(0.004,0.0063181633836362,0.004));
#592=CARTESIAN_POINT('',(0.005,0.0063181633836362,0.004));
#593=CARTESIAN_POINT('',(0.004,0.0063181633836362,0.004));
#594=CARTESIAN_POINT('',(0.001,0.0154833147735479,0.));
#595=CARTESIAN_POINT('',(0.001,0.0063181633836362,-0.004));
#596=CARTESIAN_POINT('',(0.001,0.004,-0.004));
#597=CARTESIAN_POINT('',(0.001,0.0063181633836362,-0.004));
#598=CARTESIAN_POINT('',(0.004,0.0063181633836362,0.004));
#599=CARTESIAN_POINT('',(0.004,0.0063181633836362,0.004));
#600=CARTESIAN_POINT('',(0.001,0.0063181633836362,-0.004));
#601=CARTESIAN_POINT('',(0.001,0.0063181633836362,-0.004));
#602=CARTESIAN_POINT('',(0.004,0.0154833147735479,0.));
#603=CARTESIAN_POINT('',(0.004,0.0063181633836362,-0.004));
#604=CARTESIAN_POINT('',(0.005,0.0063181633836362,-0.004));
#605=CARTESIAN_POINT('',(0.004,0.0063181633836362,-0.004));
#606=CARTESIAN_POINT('',(0.004,0.0063181633836362,-0.004));
#607=CARTESIAN_POINT('',(0.004,0.0063181633836362,-0.004));
#608=CARTESIAN_POINT('',(0.004,0.004,-0.004));
#609=CARTESIAN_POINT('',(0.0025,0.004,-0.002));
#610=CARTESIAN_POINT('',(0.0031,0.004,-0.002));
#611=CARTESIAN_POINT('',(0.0031,0.004,-0.002));
#612=CARTESIAN_POINT('',(0.0025,0.004,-0.002));
#613=CARTESIAN_POINT('',(0.0019,0.004,-0.002));
#614=CARTESIAN_POINT('',(0.0019,0.004,-0.002));
#615=CARTESIAN_POINT('',(0.0031,0.004,-2.16840434497101E-19));
#616=CARTESIAN_POINT('',(0.0031,0.004,0.002));
#617=CARTESIAN_POINT('',(0.0031,0.004,0.002));
#618=CARTESIAN_POINT('',(0.0031,0.004,-2.16840434497101E-19));
#619=CARTESIAN_POINT('',(0.0025,0.004,0.002));
#620=CARTESIAN_POINT('',(0.0019,0.004,0.002));
#621=CARTESIAN_POINT('',(0.0019,0.004,0.002));
#622=CARTESIAN_POINT('',(0.0025,0.004,0.002));
#623=CARTESIAN_POINT('',(0.0019,0.004,0.001));
#624=CARTESIAN_POINT('',(0.0019,0.004,0.001));
#625=CARTESIAN_POINT('',(0.0025,0.004,0.));
#626=MECHANICAL_DESIGN_GEOMETRIC_PRESENTATION_REPRESENTATION('',(#355),
#627);
#627=(
GEOMETRIC_REPRESENTATION_CONTEXT(3)
GLOBAL_UNCERTAINTY_ASSIGNED_CONTEXT((#628))
GLOBAL_UNIT_ASSIGNED_CONTEXT((#631,#630,#629))
REPRESENTATION_CONTEXT('FaderKnob','TOP_LEVEL_ASSEMBLY_PART')
);
#628=UNCERTAINTY_MEASURE_WITH_UNIT(LENGTH_MEASURE(1.E-8),#631,
'DISTANCE_ACCURACY_VALUE','Maximum Tolerance applied to model');
#629=(
NAMED_UNIT(*)
SI_UNIT($,.STERADIAN.)
SOLID_ANGLE_UNIT()
);
#630=(
NAMED_UNIT(*)
PLANE_ANGLE_UNIT()
SI_UNIT($,.RADIAN.)
);
#631=(
LENGTH_UNIT()
NAMED_UNIT(*)
SI_UNIT($,.METRE.)
);
#632=PRODUCT_DEFINITION_SHAPE('','',#633);
#633=PRODUCT_DEFINITION('','',#635,#634);
#634=PRODUCT_DEFINITION_CONTEXT('',#641,'design');
#635=PRODUCT_DEFINITION_FORMATION_WITH_SPECIFIED_SOURCE('','',#637,
 .NOT_KNOWN.);
#636=PRODUCT_RELATED_PRODUCT_CATEGORY('','',(#637));
#637=PRODUCT('FaderKnob','FaderKnob','FaderKnob',(#639));
#638=PRODUCT_CATEGORY('','');
#639=PRODUCT_CONTEXT('',#641,'mechanical');
#640=APPLICATION_PROTOCOL_DEFINITION('international standard',
'ap242_managed_model_based_3d_engineering',2020,#641);
#641=APPLICATION_CONTEXT('managed model based 3d engineering');
ENDSEC;
END-ISO-10303-21;
