ISO-10303-21;
HEADER;
/* Generated by software containing ST-Developer
 * from STEP Tools, Inc. (www.steptools.com) 
 */
/* OPTION: using custom renumber hook */

FILE_DESCRIPTION(
/* description */ ('STEP AP242 Edition 2',
'CAx-IF Rec.Pracs.---Representation and Presentation of Product Manufa
cturing Information (PMI)---4.0---2014-10-13',
'CAx-IF Rec.Pracs.---3D Tessellated Geometry---0.4---2014-09-14','2;1',
'CAx-IF Rec.Pracs.---User Defined Attributes---1.5---2016-08-15'),
/* implementation_level */ '2;1');

FILE_NAME(
/* name */ 'Part Studio 2 - PadKeycap',
/* time_stamp */ '2026-06-20T19:58:11Z',
/* author */ (''),
/* organization */ (''),
/* preprocessor_version */ 'ST-DEVELOPER v20',
/* originating_system */ 'ONSHAPE BY PTC INC, 1.216',
/* authorisation */ '  ');

FILE_SCHEMA (('AP242_MANAGED_MODEL_BASED_3D_ENGINEERING_MIM_LF { 1 0 10303 442 3 1 4 }'));
ENDSEC;

DATA;
#10=SHAPE_REPRESENTATION_RELATIONSHIP('','',#391,#11);
#11=ADVANCED_BREP_SHAPE_REPRESENTATION('',(#389),#663);
#12=SPHERICAL_SURFACE('',#424,0.001);
#13=SPHERICAL_SURFACE('',#427,0.001);
#14=SPHERICAL_SURFACE('',#430,0.001);
#15=SPHERICAL_SURFACE('',#433,0.001);
#16=CYLINDRICAL_SURFACE('',#400,0.005);
#17=CYLINDRICAL_SURFACE('',#412,0.001);
#18=CYLINDRICAL_SURFACE('',#415,0.001);
#19=CYLINDRICAL_SURFACE('',#418,0.001);
#20=CYLINDRICAL_SURFACE('',#421,0.001);
#21=CYLINDRICAL_SURFACE('',#426,0.001);
#22=CYLINDRICAL_SURFACE('',#429,0.001);
#23=CYLINDRICAL_SURFACE('',#432,0.001);
#24=CYLINDRICAL_SURFACE('',#435,0.001);
#25=CIRCLE('',#394,0.005);
#26=CIRCLE('',#401,0.005);
#27=CIRCLE('',#403,0.001);
#28=CIRCLE('',#404,0.001);
#29=CIRCLE('',#405,0.001);
#30=CIRCLE('',#406,0.001);
#31=CIRCLE('',#413,0.001);
#32=CIRCLE('',#414,0.001);
#33=CIRCLE('',#416,0.001);
#34=CIRCLE('',#417,0.001);
#35=CIRCLE('',#419,0.001);
#36=CIRCLE('',#420,0.001);
#37=CIRCLE('',#422,0.001);
#38=CIRCLE('',#423,0.001);
#39=CIRCLE('',#425,0.001);
#40=CIRCLE('',#428,0.001);
#41=CIRCLE('',#431,0.001);
#42=CIRCLE('',#434,0.001);
#43=ORIENTED_EDGE('',*,*,#143,.F.);
#44=ORIENTED_EDGE('',*,*,#144,.F.);
#45=ORIENTED_EDGE('',*,*,#145,.T.);
#46=ORIENTED_EDGE('',*,*,#146,.T.);
#47=ORIENTED_EDGE('',*,*,#147,.F.);
#48=ORIENTED_EDGE('',*,*,#144,.T.);
#49=ORIENTED_EDGE('',*,*,#148,.F.);
#50=ORIENTED_EDGE('',*,*,#149,.F.);
#51=ORIENTED_EDGE('',*,*,#150,.T.);
#52=ORIENTED_EDGE('',*,*,#145,.F.);
#53=ORIENTED_EDGE('',*,*,#150,.F.);
#54=ORIENTED_EDGE('',*,*,#151,.T.);
#55=ORIENTED_EDGE('',*,*,#152,.T.);
#56=ORIENTED_EDGE('',*,*,#146,.F.);
#57=ORIENTED_EDGE('',*,*,#152,.F.);
#58=ORIENTED_EDGE('',*,*,#153,.T.);
#59=ORIENTED_EDGE('',*,*,#154,.T.);
#60=ORIENTED_EDGE('',*,*,#143,.T.);
#61=ORIENTED_EDGE('',*,*,#154,.F.);
#62=ORIENTED_EDGE('',*,*,#155,.F.);
#63=ORIENTED_EDGE('',*,*,#148,.T.);
#64=ORIENTED_EDGE('',*,*,#149,.T.);
#65=ORIENTED_EDGE('',*,*,#155,.T.);
#66=ORIENTED_EDGE('',*,*,#153,.F.);
#67=ORIENTED_EDGE('',*,*,#151,.F.);
#68=ORIENTED_EDGE('',*,*,#156,.F.);
#69=ORIENTED_EDGE('',*,*,#147,.T.);
#70=ORIENTED_EDGE('',*,*,#157,.T.);
#71=ORIENTED_EDGE('',*,*,#158,.T.);
#72=ORIENTED_EDGE('',*,*,#159,.T.);
#73=ORIENTED_EDGE('',*,*,#160,.T.);
#74=ORIENTED_EDGE('',*,*,#161,.F.);
#75=ORIENTED_EDGE('',*,*,#162,.T.);
#76=ORIENTED_EDGE('',*,*,#163,.F.);
#77=ORIENTED_EDGE('',*,*,#164,.T.);
#78=ORIENTED_EDGE('',*,*,#156,.T.);
#79=ORIENTED_EDGE('',*,*,#165,.T.);
#80=ORIENTED_EDGE('',*,*,#166,.T.);
#81=ORIENTED_EDGE('',*,*,#167,.T.);
#82=ORIENTED_EDGE('',*,*,#168,.T.);
#83=ORIENTED_EDGE('',*,*,#159,.F.);
#84=ORIENTED_EDGE('',*,*,#169,.T.);
#85=ORIENTED_EDGE('',*,*,#170,.T.);
#86=ORIENTED_EDGE('',*,*,#171,.T.);
#87=ORIENTED_EDGE('',*,*,#161,.T.);
#88=ORIENTED_EDGE('',*,*,#172,.T.);
#89=ORIENTED_EDGE('',*,*,#173,.T.);
#90=ORIENTED_EDGE('',*,*,#174,.T.);
#91=ORIENTED_EDGE('',*,*,#163,.T.);
#92=ORIENTED_EDGE('',*,*,#175,.T.);
#93=ORIENTED_EDGE('',*,*,#176,.T.);
#94=ORIENTED_EDGE('',*,*,#177,.T.);
#95=ORIENTED_EDGE('',*,*,#178,.T.);
#96=ORIENTED_EDGE('',*,*,#179,.T.);
#97=ORIENTED_EDGE('',*,*,#157,.F.);
#98=ORIENTED_EDGE('',*,*,#180,.T.);
#99=ORIENTED_EDGE('',*,*,#170,.F.);
#100=ORIENTED_EDGE('',*,*,#181,.T.);
#101=ORIENTED_EDGE('',*,*,#168,.F.);
#102=ORIENTED_EDGE('',*,*,#182,.T.);
#103=ORIENTED_EDGE('',*,*,#165,.F.);
#104=ORIENTED_EDGE('',*,*,#183,.T.);
#105=ORIENTED_EDGE('',*,*,#178,.F.);
#106=ORIENTED_EDGE('',*,*,#184,.T.);
#107=ORIENTED_EDGE('',*,*,#173,.F.);
#108=ORIENTED_EDGE('',*,*,#185,.T.);
#109=ORIENTED_EDGE('',*,*,#167,.F.);
#110=ORIENTED_EDGE('',*,*,#186,.T.);
#111=ORIENTED_EDGE('',*,*,#176,.F.);
#112=ORIENTED_EDGE('',*,*,#187,.T.);
#113=ORIENTED_EDGE('',*,*,#166,.F.);
#114=ORIENTED_EDGE('',*,*,#188,.T.);
#115=ORIENTED_EDGE('',*,*,#183,.F.);
#116=ORIENTED_EDGE('',*,*,#181,.F.);
#117=ORIENTED_EDGE('',*,*,#189,.F.);
#118=ORIENTED_EDGE('',*,*,#189,.T.);
#119=ORIENTED_EDGE('',*,*,#169,.F.);
#120=ORIENTED_EDGE('',*,*,#158,.F.);
#121=ORIENTED_EDGE('',*,*,#179,.F.);
#122=ORIENTED_EDGE('',*,*,#182,.F.);
#123=ORIENTED_EDGE('',*,*,#185,.F.);
#124=ORIENTED_EDGE('',*,*,#190,.F.);
#125=ORIENTED_EDGE('',*,*,#190,.T.);
#126=ORIENTED_EDGE('',*,*,#172,.F.);
#127=ORIENTED_EDGE('',*,*,#160,.F.);
#128=ORIENTED_EDGE('',*,*,#171,.F.);
#129=ORIENTED_EDGE('',*,*,#186,.F.);
#130=ORIENTED_EDGE('',*,*,#187,.F.);
#131=ORIENTED_EDGE('',*,*,#191,.F.);
#132=ORIENTED_EDGE('',*,*,#191,.T.);
#133=ORIENTED_EDGE('',*,*,#175,.F.);
#134=ORIENTED_EDGE('',*,*,#162,.F.);
#135=ORIENTED_EDGE('',*,*,#174,.F.);
#136=ORIENTED_EDGE('',*,*,#188,.F.);
#137=ORIENTED_EDGE('',*,*,#184,.F.);
#138=ORIENTED_EDGE('',*,*,#192,.F.);
#139=ORIENTED_EDGE('',*,*,#192,.T.);
#140=ORIENTED_EDGE('',*,*,#180,.F.);
#141=ORIENTED_EDGE('',*,*,#164,.F.);
#142=ORIENTED_EDGE('',*,*,#177,.F.);
#143=EDGE_CURVE('',#193,#194,#223,.T.);
#144=EDGE_CURVE('',#195,#193,#224,.T.);
#145=EDGE_CURVE('',#195,#196,#225,.T.);
#146=EDGE_CURVE('',#196,#194,#226,.T.);
#147=EDGE_CURVE('',#197,#197,#25,.T.);
#148=EDGE_CURVE('',#198,#193,#227,.T.);
#149=EDGE_CURVE('',#199,#198,#228,.T.);
#150=EDGE_CURVE('',#199,#195,#229,.T.);
#151=EDGE_CURVE('',#199,#200,#230,.T.);
#152=EDGE_CURVE('',#200,#196,#231,.T.);
#153=EDGE_CURVE('',#200,#201,#232,.T.);
#154=EDGE_CURVE('',#201,#194,#233,.T.);
#155=EDGE_CURVE('',#198,#201,#234,.T.);
#156=EDGE_CURVE('',#202,#202,#26,.T.);
#157=EDGE_CURVE('',#203,#204,#235,.T.);
#158=EDGE_CURVE('',#204,#205,#27,.F.);
#159=EDGE_CURVE('',#205,#206,#236,.T.);
#160=EDGE_CURVE('',#206,#207,#28,.F.);
#161=EDGE_CURVE('',#208,#207,#237,.T.);
#162=EDGE_CURVE('',#208,#209,#29,.F.);
#163=EDGE_CURVE('',#210,#209,#238,.T.);
#164=EDGE_CURVE('',#210,#203,#30,.F.);
#165=EDGE_CURVE('',#211,#212,#239,.F.);
#166=EDGE_CURVE('',#212,#213,#240,.T.);
#167=EDGE_CURVE('',#213,#214,#241,.T.);
#168=EDGE_CURVE('',#214,#211,#242,.F.);
#169=EDGE_CURVE('',#205,#215,#243,.F.);
#170=EDGE_CURVE('',#215,#216,#244,.T.);
#171=EDGE_CURVE('',#216,#206,#245,.T.);
#172=EDGE_CURVE('',#207,#217,#246,.F.);
#173=EDGE_CURVE('',#217,#218,#247,.F.);
#174=EDGE_CURVE('',#218,#208,#248,.T.);
#175=EDGE_CURVE('',#209,#219,#249,.F.);
#176=EDGE_CURVE('',#219,#220,#250,.F.);
#177=EDGE_CURVE('',#220,#210,#251,.T.);
#178=EDGE_CURVE('',#221,#222,#252,.T.);
#179=EDGE_CURVE('',#222,#204,#253,.T.);
#180=EDGE_CURVE('',#203,#221,#254,.F.);
#181=EDGE_CURVE('',#215,#211,#31,.T.);
#182=EDGE_CURVE('',#214,#216,#32,.F.);
#183=EDGE_CURVE('',#211,#222,#33,.F.);
#184=EDGE_CURVE('',#221,#212,#34,.T.);
#185=EDGE_CURVE('',#217,#214,#35,.T.);
#186=EDGE_CURVE('',#213,#218,#36,.F.);
#187=EDGE_CURVE('',#219,#213,#37,.T.);
#188=EDGE_CURVE('',#212,#220,#38,.F.);
#189=EDGE_CURVE('',#222,#215,#39,.T.);
#190=EDGE_CURVE('',#216,#217,#40,.T.);
#191=EDGE_CURVE('',#218,#219,#41,.T.);
#192=EDGE_CURVE('',#220,#221,#42,.T.);
#193=VERTEX_POINT('',#559);
#194=VERTEX_POINT('',#560);
#195=VERTEX_POINT('',#562);
#196=VERTEX_POINT('',#564);
#197=VERTEX_POINT('',#567);
#198=VERTEX_POINT('',#570);
#199=VERTEX_POINT('',#572);
#200=VERTEX_POINT('',#576);
#201=VERTEX_POINT('',#580);
#202=VERTEX_POINT('',#587);
#203=VERTEX_POINT('',#590);
#204=VERTEX_POINT('',#591);
#205=VERTEX_POINT('',#593);
#206=VERTEX_POINT('',#595);
#207=VERTEX_POINT('',#597);
#208=VERTEX_POINT('',#599);
#209=VERTEX_POINT('',#601);
#210=VERTEX_POINT('',#603);
#211=VERTEX_POINT('',#607);
#212=VERTEX_POINT('',#608);
#213=VERTEX_POINT('',#610);
#214=VERTEX_POINT('',#612);
#215=VERTEX_POINT('',#616);
#216=VERTEX_POINT('',#618);
#217=VERTEX_POINT('',#622);
#218=VERTEX_POINT('',#624);
#219=VERTEX_POINT('',#628);
#220=VERTEX_POINT('',#630);
#221=VERTEX_POINT('',#634);
#222=VERTEX_POINT('',#635);
#223=LINE('',#558,#255);
#224=LINE('',#561,#256);
#225=LINE('',#563,#257);
#226=LINE('',#565,#258);
#227=LINE('',#569,#259);
#228=LINE('',#571,#260);
#229=LINE('',#573,#261);
#230=LINE('',#575,#262);
#231=LINE('',#577,#263);
#232=LINE('',#579,#264);
#233=LINE('',#581,#265);
#234=LINE('',#583,#266);
#235=LINE('',#589,#267);
#236=LINE('',#594,#268);
#237=LINE('',#598,#269);
#238=LINE('',#602,#270);
#239=LINE('',#606,#271);
#240=LINE('',#609,#272);
#241=LINE('',#611,#273);
#242=LINE('',#613,#274);
#243=LINE('',#615,#275);
#244=LINE('',#617,#276);
#245=LINE('',#619,#277);
#246=LINE('',#621,#278);
#247=LINE('',#623,#279);
#248=LINE('',#625,#280);
#249=LINE('',#627,#281);
#250=LINE('',#629,#282);
#251=LINE('',#631,#283);
#252=LINE('',#633,#284);
#253=LINE('',#636,#285);
#254=LINE('',#637,#286);
#255=VECTOR('',#440,1.);
#256=VECTOR('',#441,1.);
#257=VECTOR('',#442,1.);
#258=VECTOR('',#443,1.);
#259=VECTOR('',#448,1.);
#260=VECTOR('',#449,1.);
#261=VECTOR('',#450,1.);
#262=VECTOR('',#453,1.);
#263=VECTOR('',#454,1.);
#264=VECTOR('',#457,1.);
#265=VECTOR('',#458,1.);
#266=VECTOR('',#461,1.);
#267=VECTOR('',#470,1.);
#268=VECTOR('',#473,1.);
#269=VECTOR('',#476,1.);
#270=VECTOR('',#479,1.);
#271=VECTOR('',#484,1.);
#272=VECTOR('',#485,1.);
#273=VECTOR('',#486,1.);
#274=VECTOR('',#487,1.);
#275=VECTOR('',#490,1.);
#276=VECTOR('',#491,1.);
#277=VECTOR('',#492,1.);
#278=VECTOR('',#495,1.);
#279=VECTOR('',#496,1.);
#280=VECTOR('',#497,1.);
#281=VECTOR('',#500,1.);
#282=VECTOR('',#501,1.);
#283=VECTOR('',#502,1.);
#284=VECTOR('',#505,1.);
#285=VECTOR('',#506,1.);
#286=VECTOR('',#507,1.);
#287=EDGE_LOOP('',(#43,#44,#45,#46));
#288=EDGE_LOOP('',(#47));
#289=EDGE_LOOP('',(#48,#49,#50,#51));
#290=EDGE_LOOP('',(#52,#53,#54,#55));
#291=EDGE_LOOP('',(#56,#57,#58,#59));
#292=EDGE_LOOP('',(#60,#61,#62,#63));
#293=EDGE_LOOP('',(#64,#65,#66,#67));
#294=EDGE_LOOP('',(#68));
#295=EDGE_LOOP('',(#69));
#296=EDGE_LOOP('',(#70,#71,#72,#73,#74,#75,#76,#77));
#297=EDGE_LOOP('',(#78));
#298=EDGE_LOOP('',(#79,#80,#81,#82));
#299=EDGE_LOOP('',(#83,#84,#85,#86));
#300=EDGE_LOOP('',(#87,#88,#89,#90));
#301=EDGE_LOOP('',(#91,#92,#93,#94));
#302=EDGE_LOOP('',(#95,#96,#97,#98));
#303=EDGE_LOOP('',(#99,#100,#101,#102));
#304=EDGE_LOOP('',(#103,#104,#105,#106));
#305=EDGE_LOOP('',(#107,#108,#109,#110));
#306=EDGE_LOOP('',(#111,#112,#113,#114));
#307=EDGE_LOOP('',(#115,#116,#117));
#308=EDGE_LOOP('',(#118,#119,#120,#121));
#309=EDGE_LOOP('',(#122,#123,#124));
#310=EDGE_LOOP('',(#125,#126,#127,#128));
#311=EDGE_LOOP('',(#129,#130,#131));
#312=EDGE_LOOP('',(#132,#133,#134,#135));
#313=EDGE_LOOP('',(#136,#137,#138));
#314=EDGE_LOOP('',(#139,#140,#141,#142));
#315=FACE_BOUND('',#287,.T.);
#316=FACE_BOUND('',#288,.T.);
#317=FACE_BOUND('',#289,.T.);
#318=FACE_BOUND('',#290,.T.);
#319=FACE_BOUND('',#291,.T.);
#320=FACE_BOUND('',#292,.T.);
#321=FACE_BOUND('',#293,.T.);
#322=FACE_BOUND('',#294,.T.);
#323=FACE_BOUND('',#295,.T.);
#324=FACE_BOUND('',#296,.T.);
#325=FACE_BOUND('',#297,.T.);
#326=FACE_BOUND('',#298,.T.);
#327=FACE_BOUND('',#299,.T.);
#328=FACE_BOUND('',#300,.T.);
#329=FACE_BOUND('',#301,.T.);
#330=FACE_BOUND('',#302,.T.);
#331=FACE_BOUND('',#303,.T.);
#332=FACE_BOUND('',#304,.T.);
#333=FACE_BOUND('',#305,.T.);
#334=FACE_BOUND('',#306,.T.);
#335=FACE_BOUND('',#307,.T.);
#336=FACE_BOUND('',#308,.T.);
#337=FACE_BOUND('',#309,.T.);
#338=FACE_BOUND('',#310,.T.);
#339=FACE_BOUND('',#311,.T.);
#340=FACE_BOUND('',#312,.T.);
#341=FACE_BOUND('',#313,.T.);
#342=FACE_BOUND('',#314,.T.);
#343=PLANE('',#393);
#344=PLANE('',#395);
#345=PLANE('',#396);
#346=PLANE('',#397);
#347=PLANE('',#398);
#348=PLANE('',#399);
#349=PLANE('',#402);
#350=PLANE('',#407);
#351=PLANE('',#408);
#352=PLANE('',#409);
#353=PLANE('',#410);
#354=PLANE('',#411);
#355=ADVANCED_FACE('',(#315,#316),#343,.F.);
#356=ADVANCED_FACE('',(#317),#344,.F.);
#357=ADVANCED_FACE('',(#318),#345,.T.);
#358=ADVANCED_FACE('',(#319),#346,.T.);
#359=ADVANCED_FACE('',(#320),#347,.F.);
#360=ADVANCED_FACE('',(#321),#348,.F.);
#361=ADVANCED_FACE('',(#322,#323),#16,.T.);
#362=ADVANCED_FACE('',(#324,#325),#349,.F.);
#363=ADVANCED_FACE('',(#326),#350,.T.);
#364=ADVANCED_FACE('',(#327),#351,.T.);
#365=ADVANCED_FACE('',(#328),#352,.F.);
#366=ADVANCED_FACE('',(#329),#353,.F.);
#367=ADVANCED_FACE('',(#330),#354,.T.);
#368=ADVANCED_FACE('',(#331),#17,.T.);
#369=ADVANCED_FACE('',(#332),#18,.T.);
#370=ADVANCED_FACE('',(#333),#19,.T.);
#371=ADVANCED_FACE('',(#334),#20,.T.);
#372=ADVANCED_FACE('',(#335),#12,.T.);
#373=ADVANCED_FACE('',(#336),#21,.T.);
#374=ADVANCED_FACE('',(#337),#13,.T.);
#375=ADVANCED_FACE('',(#338),#22,.T.);
#376=ADVANCED_FACE('',(#339),#14,.T.);
#377=ADVANCED_FACE('',(#340),#23,.T.);
#378=ADVANCED_FACE('',(#341),#15,.T.);
#379=ADVANCED_FACE('',(#342),#24,.T.);
#380=CLOSED_SHELL('',(#355,#356,#357,#358,#359,#360,#361,#362,#363,#364,
#365,#366,#367,#368,#369,#370,#371,#372,#373,#374,#375,#376,#377,#378,#379));
#381=STYLED_ITEM('',(#382),#389);
#382=PRESENTATION_STYLE_ASSIGNMENT((#383));
#383=SURFACE_STYLE_USAGE(.BOTH.,#384);
#384=SURFACE_SIDE_STYLE('',(#385));
#385=SURFACE_STYLE_FILL_AREA(#386);
#386=FILL_AREA_STYLE('',(#387));
#387=FILL_AREA_STYLE_COLOUR('',#388);
#388=COLOUR_RGB('',0.647058823529412,0.647058823529412,0.647058823529412);
#389=MANIFOLD_SOLID_BREP('PadKeycap',#380);
#390=SHAPE_DEFINITION_REPRESENTATION(#668,#391);
#391=SHAPE_REPRESENTATION('PadKeycap',(#392),#663);
#392=AXIS2_PLACEMENT_3D('',#556,#436,#437);
#393=AXIS2_PLACEMENT_3D('',#557,#438,#439);
#394=AXIS2_PLACEMENT_3D('',#566,#444,#445);
#395=AXIS2_PLACEMENT_3D('',#568,#446,#447);
#396=AXIS2_PLACEMENT_3D('',#574,#451,#452);
#397=AXIS2_PLACEMENT_3D('',#578,#455,#456);
#398=AXIS2_PLACEMENT_3D('',#582,#459,#460);
#399=AXIS2_PLACEMENT_3D('',#584,#462,#463);
#400=AXIS2_PLACEMENT_3D('',#585,#464,#465);
#401=AXIS2_PLACEMENT_3D('',#586,#466,#467);
#402=AXIS2_PLACEMENT_3D('',#588,#468,#469);
#403=AXIS2_PLACEMENT_3D('',#592,#471,#472);
#404=AXIS2_PLACEMENT_3D('',#596,#474,#475);
#405=AXIS2_PLACEMENT_3D('',#600,#477,#478);
#406=AXIS2_PLACEMENT_3D('',#604,#480,#481);
#407=AXIS2_PLACEMENT_3D('',#605,#482,#483);
#408=AXIS2_PLACEMENT_3D('',#614,#488,#489);
#409=AXIS2_PLACEMENT_3D('',#620,#493,#494);
#410=AXIS2_PLACEMENT_3D('',#626,#498,#499);
#411=AXIS2_PLACEMENT_3D('',#632,#503,#504);
#412=AXIS2_PLACEMENT_3D('',#638,#508,#509);
#413=AXIS2_PLACEMENT_3D('',#639,#510,#511);
#414=AXIS2_PLACEMENT_3D('',#640,#512,#513);
#415=AXIS2_PLACEMENT_3D('',#641,#514,#515);
#416=AXIS2_PLACEMENT_3D('',#642,#516,#517);
#417=AXIS2_PLACEMENT_3D('',#643,#518,#519);
#418=AXIS2_PLACEMENT_3D('',#644,#520,#521);
#419=AXIS2_PLACEMENT_3D('',#645,#522,#523);
#420=AXIS2_PLACEMENT_3D('',#646,#524,#525);
#421=AXIS2_PLACEMENT_3D('',#647,#526,#527);
#422=AXIS2_PLACEMENT_3D('',#648,#528,#529);
#423=AXIS2_PLACEMENT_3D('',#649,#530,#531);
#424=AXIS2_PLACEMENT_3D('',#650,#532,#533);
#425=AXIS2_PLACEMENT_3D('',#651,#534,#535);
#426=AXIS2_PLACEMENT_3D('',#652,#536,#537);
#427=AXIS2_PLACEMENT_3D('',#653,#538,#539);
#428=AXIS2_PLACEMENT_3D('',#654,#540,#541);
#429=AXIS2_PLACEMENT_3D('',#655,#542,#543);
#430=AXIS2_PLACEMENT_3D('',#656,#544,#545);
#431=AXIS2_PLACEMENT_3D('',#657,#546,#547);
#432=AXIS2_PLACEMENT_3D('',#658,#548,#549);
#433=AXIS2_PLACEMENT_3D('',#659,#550,#551);
#434=AXIS2_PLACEMENT_3D('',#660,#552,#553);
#435=AXIS2_PLACEMENT_3D('',#661,#554,#555);
#436=DIRECTION('',(0.,0.,1.));
#437=DIRECTION('',(1.,0.,0.));
#438=DIRECTION('',(0.,1.,0.));
#439=DIRECTION('',(1.,0.,0.));
#440=DIRECTION('',(5.70632722360792E-17,0.,-1.));
#441=DIRECTION('',(-1.,0.,1.14126544472158E-16));
#442=DIRECTION('',(5.70632722360792E-17,0.,-1.));
#443=DIRECTION('',(-1.,0.,1.14126544472158E-16));
#444=DIRECTION('',(0.,1.,0.));
#445=DIRECTION('',(1.,0.,0.));
#446=DIRECTION('',(1.14126544472158E-16,0.,1.));
#447=DIRECTION('',(1.,0.,-1.14126544472158E-16));
#448=DIRECTION('',(0.,-1.,0.));
#449=DIRECTION('',(-1.,0.,1.14126544472158E-16));
#450=DIRECTION('',(0.,-1.,0.));
#451=DIRECTION('',(-1.,0.,-5.70632722360792E-17));
#452=DIRECTION('',(-5.70632722360792E-17,0.,1.));
#453=DIRECTION('',(5.70632722360792E-17,0.,-1.));
#454=DIRECTION('',(0.,-1.,0.));
#455=DIRECTION('',(1.14126544472158E-16,0.,1.));
#456=DIRECTION('',(1.,0.,-1.14126544472158E-16));
#457=DIRECTION('',(-1.,0.,1.14126544472158E-16));
#458=DIRECTION('',(0.,-1.,0.));
#459=DIRECTION('',(-1.,0.,-5.70632722360792E-17));
#460=DIRECTION('',(-5.70632722360792E-17,0.,1.));
#461=DIRECTION('',(5.70632722360792E-17,0.,-1.));
#462=DIRECTION('',(0.,1.,0.));
#463=DIRECTION('',(1.,0.,0.));
#464=DIRECTION('',(0.,-1.,0.));
#465=DIRECTION('',(-1.,0.,0.));
#466=DIRECTION('',(0.,1.,0.));
#467=DIRECTION('',(1.,0.,0.));
#468=DIRECTION('',(0.,1.,0.));
#469=DIRECTION('',(1.,0.,0.));
#470=DIRECTION('',(-1.,0.,0.));
#471=DIRECTION('',(0.,1.,0.));
#472=DIRECTION('',(1.,0.,0.));
#473=DIRECTION('',(0.,0.,-1.));
#474=DIRECTION('',(0.,1.,0.));
#475=DIRECTION('',(1.,0.,0.));
#476=DIRECTION('',(-1.,0.,1.41610079671576E-16));
#477=DIRECTION('',(0.,1.,0.));
#478=DIRECTION('',(1.,0.,0.));
#479=DIRECTION('',(0.,0.,-1.));
#480=DIRECTION('',(0.,1.,0.));
#481=DIRECTION('',(1.,0.,0.));
#482=DIRECTION('',(0.,1.,0.));
#483=DIRECTION('',(1.,0.,0.));
#484=DIRECTION('',(-1.,0.,0.));
#485=DIRECTION('',(0.,0.,-1.));
#486=DIRECTION('',(-1.,0.,1.41610079671576E-16));
#487=DIRECTION('',(1.41610079671576E-16,0.,-1.));
#488=DIRECTION('',(-1.,0.,-1.41610079671576E-16));
#489=DIRECTION('',(-1.41610079671576E-16,0.,1.));
#490=DIRECTION('',(0.,-1.,0.));
#491=DIRECTION('',(1.41610079671576E-16,0.,-1.));
#492=DIRECTION('',(0.,-1.,0.));
#493=DIRECTION('',(1.41610079671576E-16,0.,1.));
#494=DIRECTION('',(1.,0.,-1.41610079671576E-16));
#495=DIRECTION('',(0.,-1.,0.));
#496=DIRECTION('',(-1.,0.,1.41610079671576E-16));
#497=DIRECTION('',(0.,-1.,0.));
#498=DIRECTION('',(-1.,0.,0.));
#499=DIRECTION('',(0.,1.,0.));
#500=DIRECTION('',(0.,-1.,0.));
#501=DIRECTION('',(0.,0.,-1.));
#502=DIRECTION('',(0.,-1.,0.));
#503=DIRECTION('',(0.,0.,1.));
#504=DIRECTION('',(0.,-1.,0.));
#505=DIRECTION('',(-1.,0.,0.));
#506=DIRECTION('',(0.,-1.,0.));
#507=DIRECTION('',(0.,-1.,0.));
#508=DIRECTION('',(1.41610079671576E-16,0.,-1.));
#509=DIRECTION('',(-1.,0.,-1.41610079671576E-16));
#510=DIRECTION('',(1.41610079671576E-16,0.,-1.));
#511=DIRECTION('',(-1.,0.,-1.41610079671576E-16));
#512=DIRECTION('',(1.41610079671576E-16,0.,-1.));
#513=DIRECTION('',(-1.,0.,-1.41610079671576E-16));
#514=DIRECTION('',(-1.,0.,0.));
#515=DIRECTION('',(0.,1.,0.));
#516=DIRECTION('',(-1.,0.,0.));
#517=DIRECTION('',(0.,1.,0.));
#518=DIRECTION('',(-1.,0.,0.));
#519=DIRECTION('',(0.,1.,0.));
#520=DIRECTION('',(1.,0.,-1.41610079671576E-16));
#521=DIRECTION('',(-1.41610079671576E-16,0.,-1.));
#522=DIRECTION('',(1.,0.,-1.41610079671576E-16));
#523=DIRECTION('',(-1.41610079671576E-16,0.,-1.));
#524=DIRECTION('',(1.,0.,-1.41610079671576E-16));
#525=DIRECTION('',(-1.41610079671576E-16,0.,-1.));
#526=DIRECTION('',(0.,0.,1.));
#527=DIRECTION('',(0.,-1.,0.));
#528=DIRECTION('',(0.,0.,1.));
#529=DIRECTION('',(0.,-1.,0.));
#530=DIRECTION('',(0.,0.,1.));
#531=DIRECTION('',(0.,-1.,0.));
#532=DIRECTION('',(0.,1.,0.));
#533=DIRECTION('',(1.,0.,0.));
#534=DIRECTION('',(0.,-1.,0.));
#535=DIRECTION('',(-1.,0.,0.));
#536=DIRECTION('',(0.,-1.,0.));
#537=DIRECTION('',(-1.,0.,0.));
#538=DIRECTION('',(0.,1.,0.));
#539=DIRECTION('',(1.,0.,0.));
#540=DIRECTION('',(0.,-1.,0.));
#541=DIRECTION('',(-1.,0.,0.));
#542=DIRECTION('',(0.,1.,0.));
#543=DIRECTION('',(1.,0.,0.));
#544=DIRECTION('',(0.,1.,0.));
#545=DIRECTION('',(1.,0.,0.));
#546=DIRECTION('',(0.,-1.,0.));
#547=DIRECTION('',(-1.,0.,0.));
#548=DIRECTION('',(0.,-1.,0.));
#549=DIRECTION('',(-1.,0.,0.));
#550=DIRECTION('',(0.,1.,0.));
#551=DIRECTION('',(1.,0.,0.));
#552=DIRECTION('',(0.,-1.,0.));
#553=DIRECTION('',(-1.,0.,0.));
#554=DIRECTION('',(0.,1.,0.));
#555=DIRECTION('',(1.,0.,0.));
#556=CARTESIAN_POINT('',(0.,0.,0.));
#557=CARTESIAN_POINT('',(0.,0.,0.));
#558=CARTESIAN_POINT('',(-0.0019,0.,0.));
#559=CARTESIAN_POINT('',(-0.0019,0.,0.0019));
#560=CARTESIAN_POINT('',(-0.0019,0.,-0.0019));
#561=CARTESIAN_POINT('',(-6.50521303491303E-19,0.,0.0019));
#562=CARTESIAN_POINT('',(0.0019,0.,0.0019));
#563=CARTESIAN_POINT('',(0.0019,0.,-8.67361737988404E-19));
#564=CARTESIAN_POINT('',(0.0019,0.,-0.0019));
#565=CARTESIAN_POINT('',(-4.33680868994202E-19,0.,-0.0019));
#566=CARTESIAN_POINT('',(0.,0.,-3.06161699786838E-19));
#567=CARTESIAN_POINT('',(0.005,0.,-3.06161699786838E-19));
#568=CARTESIAN_POINT('',(-6.50521303491303E-19,0.002,0.0019));
#569=CARTESIAN_POINT('',(-0.0019,0.002,0.0019));
#570=CARTESIAN_POINT('',(-0.0019,0.002,0.0019));
#571=CARTESIAN_POINT('',(-6.50521303491303E-19,0.002,0.0019));
#572=CARTESIAN_POINT('',(0.0019,0.002,0.0019));
#573=CARTESIAN_POINT('',(0.0019,0.002,0.0019));
#574=CARTESIAN_POINT('',(0.0019,0.002,-8.67361737988404E-19));
#575=CARTESIAN_POINT('',(0.0019,0.002,-8.67361737988404E-19));
#576=CARTESIAN_POINT('',(0.0019,0.002,-0.0019));
#577=CARTESIAN_POINT('',(0.0019,0.002,-0.0019));
#578=CARTESIAN_POINT('',(-4.33680868994202E-19,0.002,-0.0019));
#579=CARTESIAN_POINT('',(-4.33680868994202E-19,0.002,-0.0019));
#580=CARTESIAN_POINT('',(-0.0019,0.002,-0.0019));
#581=CARTESIAN_POINT('',(-0.0019,0.002,-0.0019));
#582=CARTESIAN_POINT('',(-0.0019,0.002,0.));
#583=CARTESIAN_POINT('',(-0.0019,0.002,0.));
#584=CARTESIAN_POINT('',(0.,0.002,0.));
#585=CARTESIAN_POINT('',(0.,0.004,-3.06161699786838E-19));
#586=CARTESIAN_POINT('',(0.,0.004,-3.06161699786838E-19));
#587=CARTESIAN_POINT('',(0.005,0.004,-3.06161699786838E-19));
#588=CARTESIAN_POINT('',(0.,0.004,0.));
#589=CARTESIAN_POINT('',(0.006125,0.004,0.01225));
#590=CARTESIAN_POINT('',(0.01125,0.004,0.01225));
#591=CARTESIAN_POINT('',(-0.01125,0.004,0.01225));
#592=CARTESIAN_POINT('',(-0.01125,0.004,0.01125));
#593=CARTESIAN_POINT('',(-0.01225,0.004,0.01125));
#594=CARTESIAN_POINT('',(-0.01225,0.004,0.006125));
#595=CARTESIAN_POINT('',(-0.01225,0.004,-0.01125));
#596=CARTESIAN_POINT('',(-0.01125,0.004,-0.01125));
#597=CARTESIAN_POINT('',(-0.01125,0.004,-0.01225));
#598=CARTESIAN_POINT('',(0.006125,0.004,-0.01225));
#599=CARTESIAN_POINT('',(0.01125,0.004,-0.01225));
#600=CARTESIAN_POINT('',(0.01125,0.004,-0.01125));
#601=CARTESIAN_POINT('',(0.01225,0.004,-0.01125));
#602=CARTESIAN_POINT('',(0.01225,0.004,0.006125));
#603=CARTESIAN_POINT('',(0.01225,0.004,0.01125));
#604=CARTESIAN_POINT('',(0.01125,0.004,0.01125));
#605=CARTESIAN_POINT('',(0.,0.01,0.));
#606=CARTESIAN_POINT('',(0.,0.01,0.01125));
#607=CARTESIAN_POINT('',(-0.01125,0.01,0.01125));
#608=CARTESIAN_POINT('',(0.01125,0.01,0.01125));
#609=CARTESIAN_POINT('',(0.01125,0.01,-0.01225));
#610=CARTESIAN_POINT('',(0.01125,0.01,-0.01125));
#611=CARTESIAN_POINT('',(-0.01225,0.01,-0.01125));
#612=CARTESIAN_POINT('',(-0.01125,0.01,-0.01125));
#613=CARTESIAN_POINT('',(-0.01125,0.01,-1.59311339630523E-18));
#614=CARTESIAN_POINT('',(-0.01225,0.01,-0.006125));
#615=CARTESIAN_POINT('',(-0.01225,0.01,0.01125));
#616=CARTESIAN_POINT('',(-0.01225,0.009,0.01125));
#617=CARTESIAN_POINT('',(-0.01225,0.009,-0.006125));
#618=CARTESIAN_POINT('',(-0.01225,0.009,-0.01125));
#619=CARTESIAN_POINT('',(-0.01225,0.004,-0.01125));
#620=CARTESIAN_POINT('',(0.006125,0.01,-0.01225));
#621=CARTESIAN_POINT('',(-0.01125,0.009,-0.01225));
#622=CARTESIAN_POINT('',(-0.01125,0.009,-0.01225));
#623=CARTESIAN_POINT('',(0.01225,0.009,-0.01225));
#624=CARTESIAN_POINT('',(0.01125,0.009,-0.01225));
#625=CARTESIAN_POINT('',(0.01125,0.01,-0.01225));
#626=CARTESIAN_POINT('',(0.01225,0.01,0.006125));
#627=CARTESIAN_POINT('',(0.01225,0.01,-0.01125));
#628=CARTESIAN_POINT('',(0.01225,0.009,-0.01125));
#629=CARTESIAN_POINT('',(0.01225,0.009,0.01225));
#630=CARTESIAN_POINT('',(0.01225,0.009,0.01125));
#631=CARTESIAN_POINT('',(0.01225,0.004,0.01125));
#632=CARTESIAN_POINT('',(0.006125,0.01,0.01225));
#633=CARTESIAN_POINT('',(0.006125,0.009,0.01225));
#634=CARTESIAN_POINT('',(0.01125,0.009,0.01225));
#635=CARTESIAN_POINT('',(-0.01125,0.009,0.01225));
#636=CARTESIAN_POINT('',(-0.01125,0.01,0.01225));
#637=CARTESIAN_POINT('',(0.01125,0.009,0.01225));
#638=CARTESIAN_POINT('',(-0.01125,0.009,-0.006125));
#639=CARTESIAN_POINT('',(-0.01125,0.009,0.01125));
#640=CARTESIAN_POINT('',(-0.01125,0.009,-0.01125));
#641=CARTESIAN_POINT('',(0.006125,0.009,0.01125));
#642=CARTESIAN_POINT('',(-0.01125,0.009,0.01125));
#643=CARTESIAN_POINT('',(0.01125,0.009,0.01125));
#644=CARTESIAN_POINT('',(-1.59311339630523E-18,0.009,-0.01125));
#645=CARTESIAN_POINT('',(-0.01125,0.009,-0.01125));
#646=CARTESIAN_POINT('',(0.01125,0.009,-0.01125));
#647=CARTESIAN_POINT('',(0.01125,0.009,0.));
#648=CARTESIAN_POINT('',(0.01125,0.009,-0.01125));
#649=CARTESIAN_POINT('',(0.01125,0.009,0.01125));
#650=CARTESIAN_POINT('',(-0.01125,0.009,0.01125));
#651=CARTESIAN_POINT('',(-0.01125,0.009,0.01125));
#652=CARTESIAN_POINT('',(-0.01125,0.01,0.01125));
#653=CARTESIAN_POINT('',(-0.01125,0.009,-0.01125));
#654=CARTESIAN_POINT('',(-0.01125,0.009,-0.01125));
#655=CARTESIAN_POINT('',(-0.01125,0.01,-0.01125));
#656=CARTESIAN_POINT('',(0.01125,0.009,-0.01125));
#657=CARTESIAN_POINT('',(0.01125,0.009,-0.01125));
#658=CARTESIAN_POINT('',(0.01125,0.01,-0.01125));
#659=CARTESIAN_POINT('',(0.01125,0.009,0.01125));
#660=CARTESIAN_POINT('',(0.01125,0.009,0.01125));
#661=CARTESIAN_POINT('',(0.01125,0.01,0.01125));
#662=MECHANICAL_DESIGN_GEOMETRIC_PRESENTATION_REPRESENTATION('',(#381),
#663);
#663=(
GEOMETRIC_REPRESENTATION_CONTEXT(3)
GLOBAL_UNCERTAINTY_ASSIGNED_CONTEXT((#664))
GLOBAL_UNIT_ASSIGNED_CONTEXT((#667,#666,#665))
REPRESENTATION_CONTEXT('PadKeycap','TOP_LEVEL_ASSEMBLY_PART')
);
#664=UNCERTAINTY_MEASURE_WITH_UNIT(LENGTH_MEASURE(1.E-8),#667,
'DISTANCE_ACCURACY_VALUE','Maximum Tolerance applied to model');
#665=(
NAMED_UNIT(*)
SI_UNIT($,.STERADIAN.)
SOLID_ANGLE_UNIT()
);
#666=(
NAMED_UNIT(*)
PLANE_ANGLE_UNIT()
SI_UNIT($,.RADIAN.)
);
#667=(
LENGTH_UNIT()
NAMED_UNIT(*)
SI_UNIT($,.METRE.)
);
#668=PRODUCT_DEFINITION_SHAPE('','',#669);
#669=PRODUCT_DEFINITION('','',#671,#670);
#670=PRODUCT_DEFINITION_CONTEXT('',#677,'design');
#671=PRODUCT_DEFINITION_FORMATION_WITH_SPECIFIED_SOURCE('','',#673,
 .NOT_KNOWN.);
#672=PRODUCT_RELATED_PRODUCT_CATEGORY('','',(#673));
#673=PRODUCT('PadKeycap','PadKeycap','PadKeycap',(#675));
#674=PRODUCT_CATEGORY('','');
#675=PRODUCT_CONTEXT('',#677,'mechanical');
#676=APPLICATION_PROTOCOL_DEFINITION('international standard',
'ap242_managed_model_based_3d_engineering',2020,#677);
#677=APPLICATION_CONTEXT('managed model based 3d engineering');
ENDSEC;
END-ISO-10303-21;
