ISO-10303-21;
HEADER;
/* Generated by software containing ST-Developer
 * from STEP Tools, Inc. (www.steptools.com) 
 */
/* OPTION: using custom renumber hook */

FILE_DESCRIPTION(
/* description */ ('STEP AP242 Edition 2',
'CAx-IF Rec.Pracs.---Representation and Presentation of Product Manufa
cturing Information (PMI)---4.0---2014-10-13',
'CAx-IF Rec.Pracs.---3D Tessellated Geometry---0.4---2014-09-14','2;1',
'CAx-IF Rec.Pracs.---User Defined Attributes---1.5---2016-08-15'),
/* implementation_level */ '2;1');

FILE_NAME(
/* name */ 'Part Studio 2 - PlayCueKeycap',
/* time_stamp */ '2026-06-20T19:58:22Z',
/* author */ (''),
/* organization */ (''),
/* preprocessor_version */ 'ST-DEVELOPER v20',
/* originating_system */ 'ONSHAPE BY PTC INC, 1.216',
/* authorisation */ '  ');

FILE_SCHEMA (('AP242_MANAGED_MODEL_BASED_3D_ENGINEERING_MIM_LF { 1 0 10303 442 3 1 4 }'));
ENDSEC;

DATA;
#10=SHAPE_REPRESENTATION_RELATIONSHIP('','',#170,#11);
#11=ADVANCED_BREP_SHAPE_REPRESENTATION('',(#168),#277);
#12=TOROIDAL_SURFACE('',#187,0.01125,0.001);
#13=CYLINDRICAL_SURFACE('',#179,0.005);
#14=CYLINDRICAL_SURFACE('',#185,0.01225);
#15=CIRCLE('',#173,0.005);
#16=CIRCLE('',#180,0.005);
#17=CIRCLE('',#182,0.01225);
#18=CIRCLE('',#184,0.01125);
#19=CIRCLE('',#186,0.01225);
#20=ORIENTED_EDGE('',*,*,#54,.F.);
#21=ORIENTED_EDGE('',*,*,#55,.F.);
#22=ORIENTED_EDGE('',*,*,#56,.T.);
#23=ORIENTED_EDGE('',*,*,#57,.T.);
#24=ORIENTED_EDGE('',*,*,#58,.F.);
#25=ORIENTED_EDGE('',*,*,#55,.T.);
#26=ORIENTED_EDGE('',*,*,#59,.F.);
#27=ORIENTED_EDGE('',*,*,#60,.F.);
#28=ORIENTED_EDGE('',*,*,#61,.T.);
#29=ORIENTED_EDGE('',*,*,#56,.F.);
#30=ORIENTED_EDGE('',*,*,#61,.F.);
#31=ORIENTED_EDGE('',*,*,#62,.T.);
#32=ORIENTED_EDGE('',*,*,#63,.T.);
#33=ORIENTED_EDGE('',*,*,#57,.F.);
#34=ORIENTED_EDGE('',*,*,#63,.F.);
#35=ORIENTED_EDGE('',*,*,#64,.T.);
#36=ORIENTED_EDGE('',*,*,#65,.T.);
#37=ORIENTED_EDGE('',*,*,#54,.T.);
#38=ORIENTED_EDGE('',*,*,#65,.F.);
#39=ORIENTED_EDGE('',*,*,#66,.F.);
#40=ORIENTED_EDGE('',*,*,#59,.T.);
#41=ORIENTED_EDGE('',*,*,#60,.T.);
#42=ORIENTED_EDGE('',*,*,#66,.T.);
#43=ORIENTED_EDGE('',*,*,#64,.F.);
#44=ORIENTED_EDGE('',*,*,#62,.F.);
#45=ORIENTED_EDGE('',*,*,#67,.F.);
#46=ORIENTED_EDGE('',*,*,#58,.T.);
#47=ORIENTED_EDGE('',*,*,#67,.T.);
#48=ORIENTED_EDGE('',*,*,#68,.F.);
#49=ORIENTED_EDGE('',*,*,#69,.T.);
#50=ORIENTED_EDGE('',*,*,#70,.T.);
#51=ORIENTED_EDGE('',*,*,#68,.T.);
#52=ORIENTED_EDGE('',*,*,#70,.F.);
#53=ORIENTED_EDGE('',*,*,#69,.F.);
#54=EDGE_CURVE('',#71,#72,#84,.T.);
#55=EDGE_CURVE('',#73,#71,#85,.T.);
#56=EDGE_CURVE('',#73,#74,#86,.T.);
#57=EDGE_CURVE('',#74,#72,#87,.T.);
#58=EDGE_CURVE('',#75,#75,#15,.T.);
#59=EDGE_CURVE('',#76,#71,#88,.T.);
#60=EDGE_CURVE('',#77,#76,#89,.T.);
#61=EDGE_CURVE('',#77,#73,#90,.T.);
#62=EDGE_CURVE('',#77,#78,#91,.T.);
#63=EDGE_CURVE('',#78,#74,#92,.T.);
#64=EDGE_CURVE('',#78,#79,#93,.T.);
#65=EDGE_CURVE('',#79,#72,#94,.T.);
#66=EDGE_CURVE('',#76,#79,#95,.T.);
#67=EDGE_CURVE('',#80,#80,#16,.T.);
#68=EDGE_CURVE('',#81,#81,#17,.T.);
#69=EDGE_CURVE('',#82,#82,#18,.T.);
#70=EDGE_CURVE('',#83,#83,#19,.F.);
#71=VERTEX_POINT('',#237);
#72=VERTEX_POINT('',#238);
#73=VERTEX_POINT('',#240);
#74=VERTEX_POINT('',#242);
#75=VERTEX_POINT('',#245);
#76=VERTEX_POINT('',#248);
#77=VERTEX_POINT('',#250);
#78=VERTEX_POINT('',#254);
#79=VERTEX_POINT('',#258);
#80=VERTEX_POINT('',#265);
#81=VERTEX_POINT('',#268);
#82=VERTEX_POINT('',#271);
#83=VERTEX_POINT('',#274);
#84=LINE('',#236,#96);
#85=LINE('',#239,#97);
#86=LINE('',#241,#98);
#87=LINE('',#243,#99);
#88=LINE('',#247,#100);
#89=LINE('',#249,#101);
#90=LINE('',#251,#102);
#91=LINE('',#253,#103);
#92=LINE('',#255,#104);
#93=LINE('',#257,#105);
#94=LINE('',#259,#106);
#95=LINE('',#261,#107);
#96=VECTOR('',#192,1.);
#97=VECTOR('',#193,1.);
#98=VECTOR('',#194,1.);
#99=VECTOR('',#195,1.);
#100=VECTOR('',#200,1.);
#101=VECTOR('',#201,1.);
#102=VECTOR('',#202,1.);
#103=VECTOR('',#205,1.);
#104=VECTOR('',#206,1.);
#105=VECTOR('',#209,1.);
#106=VECTOR('',#210,1.);
#107=VECTOR('',#213,1.);
#108=EDGE_LOOP('',(#20,#21,#22,#23));
#109=EDGE_LOOP('',(#24));
#110=EDGE_LOOP('',(#25,#26,#27,#28));
#111=EDGE_LOOP('',(#29,#30,#31,#32));
#112=EDGE_LOOP('',(#33,#34,#35,#36));
#113=EDGE_LOOP('',(#37,#38,#39,#40));
#114=EDGE_LOOP('',(#41,#42,#43,#44));
#115=EDGE_LOOP('',(#45));
#116=EDGE_LOOP('',(#46));
#117=EDGE_LOOP('',(#47));
#118=EDGE_LOOP('',(#48));
#119=EDGE_LOOP('',(#49));
#120=EDGE_LOOP('',(#50));
#121=EDGE_LOOP('',(#51));
#122=EDGE_LOOP('',(#52));
#123=EDGE_LOOP('',(#53));
#124=FACE_BOUND('',#108,.T.);
#125=FACE_BOUND('',#109,.T.);
#126=FACE_BOUND('',#110,.T.);
#127=FACE_BOUND('',#111,.T.);
#128=FACE_BOUND('',#112,.T.);
#129=FACE_BOUND('',#113,.T.);
#130=FACE_BOUND('',#114,.T.);
#131=FACE_BOUND('',#115,.T.);
#132=FACE_BOUND('',#116,.T.);
#133=FACE_BOUND('',#117,.T.);
#134=FACE_BOUND('',#118,.T.);
#135=FACE_BOUND('',#119,.T.);
#136=FACE_BOUND('',#120,.T.);
#137=FACE_BOUND('',#121,.T.);
#138=FACE_BOUND('',#122,.T.);
#139=FACE_BOUND('',#123,.T.);
#140=PLANE('',#172);
#141=PLANE('',#174);
#142=PLANE('',#175);
#143=PLANE('',#176);
#144=PLANE('',#177);
#145=PLANE('',#178);
#146=PLANE('',#181);
#147=PLANE('',#183);
#148=ADVANCED_FACE('',(#124,#125),#140,.F.);
#149=ADVANCED_FACE('',(#126),#141,.F.);
#150=ADVANCED_FACE('',(#127),#142,.T.);
#151=ADVANCED_FACE('',(#128),#143,.T.);
#152=ADVANCED_FACE('',(#129),#144,.F.);
#153=ADVANCED_FACE('',(#130),#145,.F.);
#154=ADVANCED_FACE('',(#131,#132),#13,.T.);
#155=ADVANCED_FACE('',(#133,#134),#146,.F.);
#156=ADVANCED_FACE('',(#135),#147,.T.);
#157=ADVANCED_FACE('',(#136,#137),#14,.T.);
#158=ADVANCED_FACE('',(#138,#139),#12,.T.);
#159=CLOSED_SHELL('',(#148,#149,#150,#151,#152,#153,#154,#155,#156,#157,
#158));
#160=STYLED_ITEM('',(#161),#168);
#161=PRESENTATION_STYLE_ASSIGNMENT((#162));
#162=SURFACE_STYLE_USAGE(.BOTH.,#163);
#163=SURFACE_SIDE_STYLE('',(#164));
#164=SURFACE_STYLE_FILL_AREA(#165);
#165=FILL_AREA_STYLE('',(#166));
#166=FILL_AREA_STYLE_COLOUR('',#167);
#167=COLOUR_RGB('',0.231372549019608,0.380392156862745,0.705882352941177);
#168=MANIFOLD_SOLID_BREP('PlayCueKeycap',#159);
#169=SHAPE_DEFINITION_REPRESENTATION(#282,#170);
#170=SHAPE_REPRESENTATION('PlayCueKeycap',(#171),#277);
#171=AXIS2_PLACEMENT_3D('',#234,#188,#189);
#172=AXIS2_PLACEMENT_3D('',#235,#190,#191);
#173=AXIS2_PLACEMENT_3D('',#244,#196,#197);
#174=AXIS2_PLACEMENT_3D('',#246,#198,#199);
#175=AXIS2_PLACEMENT_3D('',#252,#203,#204);
#176=AXIS2_PLACEMENT_3D('',#256,#207,#208);
#177=AXIS2_PLACEMENT_3D('',#260,#211,#212);
#178=AXIS2_PLACEMENT_3D('',#262,#214,#215);
#179=AXIS2_PLACEMENT_3D('',#263,#216,#217);
#180=AXIS2_PLACEMENT_3D('',#264,#218,#219);
#181=AXIS2_PLACEMENT_3D('',#266,#220,#221);
#182=AXIS2_PLACEMENT_3D('',#267,#222,#223);
#183=AXIS2_PLACEMENT_3D('',#269,#224,#225);
#184=AXIS2_PLACEMENT_3D('',#270,#226,#227);
#185=AXIS2_PLACEMENT_3D('',#272,#228,#229);
#186=AXIS2_PLACEMENT_3D('',#273,#230,#231);
#187=AXIS2_PLACEMENT_3D('',#275,#232,#233);
#188=DIRECTION('',(0.,0.,1.));
#189=DIRECTION('',(1.,0.,0.));
#190=DIRECTION('',(0.,1.,0.));
#191=DIRECTION('',(1.,0.,0.));
#192=DIRECTION('',(5.70632722360792E-17,0.,-1.));
#193=DIRECTION('',(-1.,0.,1.14126544472158E-16));
#194=DIRECTION('',(5.70632722360792E-17,0.,-1.));
#195=DIRECTION('',(-1.,0.,1.14126544472158E-16));
#196=DIRECTION('',(0.,1.,0.));
#197=DIRECTION('',(1.,0.,0.));
#198=DIRECTION('',(1.14126544472158E-16,0.,1.));
#199=DIRECTION('',(1.,0.,-1.14126544472158E-16));
#200=DIRECTION('',(0.,-1.,0.));
#201=DIRECTION('',(-1.,0.,1.14126544472158E-16));
#202=DIRECTION('',(0.,-1.,0.));
#203=DIRECTION('',(-1.,0.,-5.70632722360792E-17));
#204=DIRECTION('',(-5.70632722360792E-17,0.,1.));
#205=DIRECTION('',(5.70632722360792E-17,0.,-1.));
#206=DIRECTION('',(0.,-1.,0.));
#207=DIRECTION('',(1.14126544472158E-16,0.,1.));
#208=DIRECTION('',(1.,0.,-1.14126544472158E-16));
#209=DIRECTION('',(-1.,0.,1.14126544472158E-16));
#210=DIRECTION('',(0.,-1.,0.));
#211=DIRECTION('',(-1.,0.,-5.70632722360792E-17));
#212=DIRECTION('',(-5.70632722360792E-17,0.,1.));
#213=DIRECTION('',(5.70632722360792E-17,0.,-1.));
#214=DIRECTION('',(0.,1.,0.));
#215=DIRECTION('',(1.,0.,0.));
#216=DIRECTION('',(0.,-1.,0.));
#217=DIRECTION('',(-1.,0.,0.));
#218=DIRECTION('',(0.,1.,0.));
#219=DIRECTION('',(1.,0.,0.));
#220=DIRECTION('',(0.,1.,0.));
#221=DIRECTION('',(1.,0.,0.));
#222=DIRECTION('',(0.,1.,0.));
#223=DIRECTION('',(1.,0.,0.));
#224=DIRECTION('',(0.,1.,0.));
#225=DIRECTION('',(1.,0.,0.));
#226=DIRECTION('',(0.,1.,0.));
#227=DIRECTION('',(1.,0.,0.));
#228=DIRECTION('',(0.,-1.,0.));
#229=DIRECTION('',(-1.,0.,0.));
#230=DIRECTION('',(0.,1.,0.));
#231=DIRECTION('',(1.,0.,0.));
#232=DIRECTION('',(0.,1.,0.));
#233=DIRECTION('',(1.,0.,0.));
#234=CARTESIAN_POINT('',(0.,0.,0.));
#235=CARTESIAN_POINT('',(0.,0.,0.));
#236=CARTESIAN_POINT('',(-0.0019,0.,0.));
#237=CARTESIAN_POINT('',(-0.0019,0.,0.0019));
#238=CARTESIAN_POINT('',(-0.0019,0.,-0.0019));
#239=CARTESIAN_POINT('',(-6.50521303491303E-19,0.,0.0019));
#240=CARTESIAN_POINT('',(0.0019,0.,0.0019));
#241=CARTESIAN_POINT('',(0.0019,0.,-8.67361737988404E-19));
#242=CARTESIAN_POINT('',(0.0019,0.,-0.0019));
#243=CARTESIAN_POINT('',(-4.33680868994202E-19,0.,-0.0019));
#244=CARTESIAN_POINT('',(0.,0.,-3.06161699786838E-19));
#245=CARTESIAN_POINT('',(0.005,0.,-3.06161699786838E-19));
#246=CARTESIAN_POINT('',(-6.50521303491303E-19,0.002,0.0019));
#247=CARTESIAN_POINT('',(-0.0019,0.002,0.0019));
#248=CARTESIAN_POINT('',(-0.0019,0.002,0.0019));
#249=CARTESIAN_POINT('',(-6.50521303491303E-19,0.002,0.0019));
#250=CARTESIAN_POINT('',(0.0019,0.002,0.0019));
#251=CARTESIAN_POINT('',(0.0019,0.002,0.0019));
#252=CARTESIAN_POINT('',(0.0019,0.002,-8.67361737988404E-19));
#253=CARTESIAN_POINT('',(0.0019,0.002,-8.67361737988404E-19));
#254=CARTESIAN_POINT('',(0.0019,0.002,-0.0019));
#255=CARTESIAN_POINT('',(0.0019,0.002,-0.0019));
#256=CARTESIAN_POINT('',(-4.33680868994202E-19,0.002,-0.0019));
#257=CARTESIAN_POINT('',(-4.33680868994202E-19,0.002,-0.0019));
#258=CARTESIAN_POINT('',(-0.0019,0.002,-0.0019));
#259=CARTESIAN_POINT('',(-0.0019,0.002,-0.0019));
#260=CARTESIAN_POINT('',(-0.0019,0.002,0.));
#261=CARTESIAN_POINT('',(-0.0019,0.002,0.));
#262=CARTESIAN_POINT('',(0.,0.002,0.));
#263=CARTESIAN_POINT('',(0.,0.004,-3.06161699786838E-19));
#264=CARTESIAN_POINT('',(0.,0.004,-3.06161699786838E-19));
#265=CARTESIAN_POINT('',(0.005,0.004,-3.06161699786838E-19));
#266=CARTESIAN_POINT('',(0.,0.004,0.));
#267=CARTESIAN_POINT('',(1.22289659593353E-18,0.004,1.59794467817241E-18));
#268=CARTESIAN_POINT('',(0.01225,0.004,1.59794467817241E-18));
#269=CARTESIAN_POINT('',(0.,0.01,0.));
#270=CARTESIAN_POINT('',(1.22289659593353E-18,0.01,1.59794467817241E-18));
#271=CARTESIAN_POINT('',(0.01125,0.01,1.59794467817241E-18));
#272=CARTESIAN_POINT('',(1.22289659593353E-18,0.01,1.59794467817241E-18));
#273=CARTESIAN_POINT('',(1.22289659593353E-18,0.009,1.59794467817241E-18));
#274=CARTESIAN_POINT('',(0.01225,0.009,1.59794467817241E-18));
#275=CARTESIAN_POINT('',(1.22289659593353E-18,0.009,1.59794467817241E-18));
#276=MECHANICAL_DESIGN_GEOMETRIC_PRESENTATION_REPRESENTATION('',(#160),
#277);
#277=(
GEOMETRIC_REPRESENTATION_CONTEXT(3)
GLOBAL_UNCERTAINTY_ASSIGNED_CONTEXT((#278))
GLOBAL_UNIT_ASSIGNED_CONTEXT((#281,#280,#279))
REPRESENTATION_CONTEXT('PlayCueKeycap','TOP_LEVEL_ASSEMBLY_PART')
);
#278=UNCERTAINTY_MEASURE_WITH_UNIT(LENGTH_MEASURE(1.E-8),#281,
'DISTANCE_ACCURACY_VALUE','Maximum Tolerance applied to model');
#279=(
NAMED_UNIT(*)
SI_UNIT($,.STERADIAN.)
SOLID_ANGLE_UNIT()
);
#280=(
NAMED_UNIT(*)
PLANE_ANGLE_UNIT()
SI_UNIT($,.RADIAN.)
);
#281=(
LENGTH_UNIT()
NAMED_UNIT(*)
SI_UNIT($,.METRE.)
);
#282=PRODUCT_DEFINITION_SHAPE('','',#283);
#283=PRODUCT_DEFINITION('','',#285,#284);
#284=PRODUCT_DEFINITION_CONTEXT('',#291,'design');
#285=PRODUCT_DEFINITION_FORMATION_WITH_SPECIFIED_SOURCE('','',#287,
 .NOT_KNOWN.);
#286=PRODUCT_RELATED_PRODUCT_CATEGORY('','',(#287));
#287=PRODUCT('PlayCueKeycap','PlayCueKeycap','PlayCueKeycap',(#289));
#288=PRODUCT_CATEGORY('','');
#289=PRODUCT_CONTEXT('',#291,'mechanical');
#290=APPLICATION_PROTOCOL_DEFINITION('international standard',
'ap242_managed_model_based_3d_engineering',2020,#291);
#291=APPLICATION_CONTEXT('managed model based 3d engineering');
ENDSEC;
END-ISO-10303-21;
