ISO-10303-21;
HEADER;
/* Generated by software containing ST-Developer
 * from STEP Tools, Inc. (www.steptools.com) 
 */
/* OPTION: using custom renumber hook */

FILE_DESCRIPTION(
/* description */ ('STEP AP242 Edition 2',
'CAx-IF Rec.Pracs.---Representation and Presentation of Product Manufa
cturing Information (PMI)---4.0---2014-10-13',
'CAx-IF Rec.Pracs.---3D Tessellated Geometry---0.4---2014-09-14','2;1',
'CAx-IF Rec.Pracs.---User Defined Attributes---1.5---2016-08-15'),
/* implementation_level */ '2;1');

FILE_NAME(
/* name */ 'Part Studio 2 - RotaryEncoderKnob',
/* time_stamp */ '2026-06-20T20:15:22Z',
/* author */ (''),
/* organization */ (''),
/* preprocessor_version */ 'ST-DEVELOPER v20',
/* originating_system */ 'ONSHAPE BY PTC INC, 1.216',
/* authorisation */ '  ');

FILE_SCHEMA (('AP242_MANAGED_MODEL_BASED_3D_ENGINEERING_MIM_LF { 1 0 10303 442 3 1 4 }'));
ENDSEC;

DATA;
#10=SHAPE_REPRESENTATION_RELATIONSHIP('','',#104,#11);
#11=ADVANCED_BREP_SHAPE_REPRESENTATION('',(#102),#173);
#12=TOROIDAL_SURFACE('',#117,0.009,0.001);
#13=LINE('',#158,#17);
#14=LINE('',#163,#18);
#15=LINE('',#165,#19);
#16=LINE('',#167,#20);
#17=VECTOR('',#132,1.);
#18=VECTOR('',#137,1.);
#19=VECTOR('',#138,1.);
#20=VECTOR('',#139,1.);
#21=PLANE('',#109);
#22=PLANE('',#111);
#23=PLANE('',#113);
#24=PLANE('',#116);
#25=ORIENTED_EDGE('',*,*,#43,.T.);
#26=ORIENTED_EDGE('',*,*,#44,.T.);
#27=ORIENTED_EDGE('',*,*,#45,.T.);
#28=ORIENTED_EDGE('',*,*,#46,.T.);
#29=ORIENTED_EDGE('',*,*,#47,.T.);
#30=ORIENTED_EDGE('',*,*,#44,.F.);
#31=ORIENTED_EDGE('',*,*,#46,.F.);
#32=ORIENTED_EDGE('',*,*,#48,.F.);
#33=ORIENTED_EDGE('',*,*,#49,.T.);
#34=ORIENTED_EDGE('',*,*,#50,.T.);
#35=ORIENTED_EDGE('',*,*,#47,.F.);
#36=ORIENTED_EDGE('',*,*,#50,.F.);
#37=ORIENTED_EDGE('',*,*,#51,.T.);
#38=ORIENTED_EDGE('',*,*,#48,.T.);
#39=ORIENTED_EDGE('',*,*,#49,.F.);
#40=ORIENTED_EDGE('',*,*,#51,.F.);
#41=ORIENTED_EDGE('',*,*,#43,.F.);
#42=ORIENTED_EDGE('',*,*,#45,.F.);
#43=EDGE_CURVE('',#52,#52,#59,.F.);
#44=EDGE_CURVE('',#53,#53,#60,.T.);
#45=EDGE_CURVE('',#54,#54,#61,.T.);
#46=EDGE_CURVE('',#55,#56,#13,.T.);
#47=EDGE_CURVE('',#56,#55,#62,.T.);
#48=EDGE_CURVE('',#57,#55,#14,.T.);
#49=EDGE_CURVE('',#57,#58,#15,.T.);
#50=EDGE_CURVE('',#58,#56,#16,.T.);
#51=EDGE_CURVE('',#58,#57,#63,.T.);
#52=VERTEX_POINT('',#151);
#53=VERTEX_POINT('',#153);
#54=VERTEX_POINT('',#156);
#55=VERTEX_POINT('',#159);
#56=VERTEX_POINT('',#160);
#57=VERTEX_POINT('',#164);
#58=VERTEX_POINT('',#166);
#59=CIRCLE('',#107,0.01);
#60=CIRCLE('',#108,0.01);
#61=CIRCLE('',#110,0.009);
#62=CIRCLE('',#112,0.003);
#63=CIRCLE('',#115,0.003);
#64=EDGE_LOOP('',(#25));
#65=EDGE_LOOP('',(#26));
#66=EDGE_LOOP('',(#27));
#67=EDGE_LOOP('',(#28,#29));
#68=EDGE_LOOP('',(#30));
#69=EDGE_LOOP('',(#31,#32,#33,#34));
#70=EDGE_LOOP('',(#35,#36,#37,#38));
#71=EDGE_LOOP('',(#39,#40));
#72=EDGE_LOOP('',(#41));
#73=EDGE_LOOP('',(#42));
#74=FACE_BOUND('',#64,.T.);
#75=FACE_BOUND('',#65,.T.);
#76=FACE_BOUND('',#66,.T.);
#77=FACE_BOUND('',#67,.T.);
#78=FACE_BOUND('',#68,.T.);
#79=FACE_BOUND('',#69,.T.);
#80=FACE_BOUND('',#70,.T.);
#81=FACE_BOUND('',#71,.T.);
#82=FACE_BOUND('',#72,.T.);
#83=FACE_BOUND('',#73,.T.);
#84=CYLINDRICAL_SURFACE('',#106,0.01);
#85=CYLINDRICAL_SURFACE('',#114,0.003);
#86=ADVANCED_FACE('',(#74,#75),#84,.T.);
#87=ADVANCED_FACE('',(#76),#21,.T.);
#88=ADVANCED_FACE('',(#77,#78),#22,.F.);
#89=ADVANCED_FACE('',(#79),#23,.T.);
#90=ADVANCED_FACE('',(#80),#85,.F.);
#91=ADVANCED_FACE('',(#81),#24,.F.);
#92=ADVANCED_FACE('',(#82,#83),#12,.T.);
#93=CLOSED_SHELL('',(#86,#87,#88,#89,#90,#91,#92));
#94=STYLED_ITEM('',(#95),#102);
#95=PRESENTATION_STYLE_ASSIGNMENT((#96));
#96=SURFACE_STYLE_USAGE(.BOTH.,#97);
#97=SURFACE_SIDE_STYLE('',(#98));
#98=SURFACE_STYLE_FILL_AREA(#99);
#99=FILL_AREA_STYLE('',(#100));
#100=FILL_AREA_STYLE_COLOUR('',#101);
#101=COLOUR_RGB('',0.647058823529412,0.647058823529412,0.647058823529412);
#102=MANIFOLD_SOLID_BREP('RotaryEncoderKnob',#93);
#103=SHAPE_DEFINITION_REPRESENTATION(#178,#104);
#104=SHAPE_REPRESENTATION('RotaryEncoderKnob',(#105),#173);
#105=AXIS2_PLACEMENT_3D('',#148,#118,#119);
#106=AXIS2_PLACEMENT_3D('',#149,#120,#121);
#107=AXIS2_PLACEMENT_3D('',#150,#122,#123);
#108=AXIS2_PLACEMENT_3D('',#152,#124,#125);
#109=AXIS2_PLACEMENT_3D('',#154,#126,#127);
#110=AXIS2_PLACEMENT_3D('',#155,#128,#129);
#111=AXIS2_PLACEMENT_3D('',#157,#130,#131);
#112=AXIS2_PLACEMENT_3D('',#161,#133,#134);
#113=AXIS2_PLACEMENT_3D('',#162,#135,#136);
#114=AXIS2_PLACEMENT_3D('',#168,#140,#141);
#115=AXIS2_PLACEMENT_3D('',#169,#142,#143);
#116=AXIS2_PLACEMENT_3D('',#170,#144,#145);
#117=AXIS2_PLACEMENT_3D('',#171,#146,#147);
#118=DIRECTION('',(0.,0.,1.));
#119=DIRECTION('',(1.,0.,0.));
#120=DIRECTION('',(0.,-1.,0.));
#121=DIRECTION('',(-1.,0.,0.));
#122=DIRECTION('',(0.,1.,0.));
#123=DIRECTION('',(1.,0.,0.));
#124=DIRECTION('',(0.,1.,0.));
#125=DIRECTION('',(1.,0.,0.));
#126=DIRECTION('',(0.,1.,0.));
#127=DIRECTION('',(1.,0.,0.));
#128=DIRECTION('',(0.,1.,0.));
#129=DIRECTION('',(1.,0.,0.));
#130=DIRECTION('',(0.,1.,0.));
#131=DIRECTION('',(1.,0.,0.));
#132=DIRECTION('',(0.,0.,-1.));
#133=DIRECTION('',(0.,1.,0.));
#134=DIRECTION('',(1.,0.,0.));
#135=DIRECTION('',(-1.,0.,0.));
#136=DIRECTION('',(0.,1.,0.));
#137=DIRECTION('',(0.,-1.,0.));
#138=DIRECTION('',(0.,0.,-1.));
#139=DIRECTION('',(0.,-1.,0.));
#140=DIRECTION('',(0.,-1.,0.));
#141=DIRECTION('',(-1.,0.,0.));
#142=DIRECTION('',(0.,1.,0.));
#143=DIRECTION('',(1.,0.,0.));
#144=DIRECTION('',(0.,1.,0.));
#145=DIRECTION('',(1.,0.,0.));
#146=DIRECTION('',(0.,1.,0.));
#147=DIRECTION('',(1.,0.,0.));
#148=CARTESIAN_POINT('',(0.,0.,0.));
#149=CARTESIAN_POINT('',(0.,0.015,-6.12323399573677E-19));
#150=CARTESIAN_POINT('',(0.,0.014,-6.12323399573677E-19));
#151=CARTESIAN_POINT('',(0.01,0.014,-6.12323399573677E-19));
#152=CARTESIAN_POINT('',(0.,0.,-6.12323399573677E-19));
#153=CARTESIAN_POINT('',(0.01,0.,-6.12323399573677E-19));
#154=CARTESIAN_POINT('',(0.,0.015,0.));
#155=CARTESIAN_POINT('',(0.,0.015,-6.12323399573677E-19));
#156=CARTESIAN_POINT('',(0.009,0.015,-6.12323399573677E-19));
#157=CARTESIAN_POINT('',(0.,0.,0.));
#158=CARTESIAN_POINT('',(0.0015,0.,0.00129903810567666));
#159=CARTESIAN_POINT('',(0.0015,0.,0.00259807621135332));
#160=CARTESIAN_POINT('',(0.0015,0.,-0.00259807621135332));
#161=CARTESIAN_POINT('',(-7.58941520739853E-19,0.,5.00369615578292E-19));
#162=CARTESIAN_POINT('',(0.0015,0.012,0.00129903810567666));
#163=CARTESIAN_POINT('',(0.0015,0.012,0.00259807621135332));
#164=CARTESIAN_POINT('',(0.0015,0.012,0.00259807621135332));
#165=CARTESIAN_POINT('',(0.0015,0.012,0.00129903810567666));
#166=CARTESIAN_POINT('',(0.0015,0.012,-0.00259807621135332));
#167=CARTESIAN_POINT('',(0.0015,0.012,-0.00259807621135332));
#168=CARTESIAN_POINT('',(-7.58941520739853E-19,0.012,5.00369615578292E-19));
#169=CARTESIAN_POINT('',(-7.58941520739853E-19,0.012,5.00369615578292E-19));
#170=CARTESIAN_POINT('',(0.,0.012,0.));
#171=CARTESIAN_POINT('',(0.,0.014,-6.12323399573677E-19));
#172=MECHANICAL_DESIGN_GEOMETRIC_PRESENTATION_REPRESENTATION('',(#94),#173);
#173=(
GEOMETRIC_REPRESENTATION_CONTEXT(3)
GLOBAL_UNCERTAINTY_ASSIGNED_CONTEXT((#174))
GLOBAL_UNIT_ASSIGNED_CONTEXT((#177,#176,#175))
REPRESENTATION_CONTEXT('RotaryEncoderKnob','TOP_LEVEL_ASSEMBLY_PART')
);
#174=UNCERTAINTY_MEASURE_WITH_UNIT(LENGTH_MEASURE(1.E-8),#177,
'DISTANCE_ACCURACY_VALUE','Maximum Tolerance applied to model');
#175=(
NAMED_UNIT(*)
SI_UNIT($,.STERADIAN.)
SOLID_ANGLE_UNIT()
);
#176=(
NAMED_UNIT(*)
PLANE_ANGLE_UNIT()
SI_UNIT($,.RADIAN.)
);
#177=(
LENGTH_UNIT()
NAMED_UNIT(*)
SI_UNIT($,.METRE.)
);
#178=PRODUCT_DEFINITION_SHAPE('','',#179);
#179=PRODUCT_DEFINITION('','',#181,#180);
#180=PRODUCT_DEFINITION_CONTEXT('',#187,'design');
#181=PRODUCT_DEFINITION_FORMATION_WITH_SPECIFIED_SOURCE('','',#183,
 .NOT_KNOWN.);
#182=PRODUCT_RELATED_PRODUCT_CATEGORY('','',(#183));
#183=PRODUCT('RotaryEncoderKnob','RotaryEncoderKnob',
'RotaryEncoderKnob',(#185));
#184=PRODUCT_CATEGORY('','');
#185=PRODUCT_CONTEXT('',#187,'mechanical');
#186=APPLICATION_PROTOCOL_DEFINITION('international standard',
'ap242_managed_model_based_3d_engineering',2020,#187);
#187=APPLICATION_CONTEXT('managed model based 3d engineering');
ENDSEC;
END-ISO-10303-21;
