ISO-10303-21;
HEADER;
/* Generated by software containing ST-Developer
 * from STEP Tools, Inc. (www.steptools.com) 
 */
/* OPTION: using custom renumber hook */

FILE_DESCRIPTION(
/* description */ ('STEP AP242 Edition 2',
'CAx-IF Rec.Pracs.---Representation and Presentation of Product Manufa
cturing Information (PMI)---4.0---2014-10-13',
'CAx-IF Rec.Pracs.---3D Tessellated Geometry---0.4---2014-09-14','2;1',
'CAx-IF Rec.Pracs.---User Defined Attributes---1.5---2016-08-15'),
/* implementation_level */ '2;1');

FILE_NAME(
/* name */ 'Part Studio 2 - SPDTSWExtender',
/* time_stamp */ '2026-06-20T20:03:50Z',
/* author */ (''),
/* organization */ (''),
/* preprocessor_version */ 'ST-DEVELOPER v20',
/* originating_system */ 'ONSHAPE BY PTC INC, 1.216',
/* authorisation */ '  ');

FILE_SCHEMA (('AP242_MANAGED_MODEL_BASED_3D_ENGINEERING_MIM_LF { 1 0 10303 442 3 1 4 }'));
ENDSEC;

DATA;
#10=SHAPE_REPRESENTATION_RELATIONSHIP('','',#369,#11);
#11=ADVANCED_BREP_SHAPE_REPRESENTATION('',(#367),#623);
#12=SPHERICAL_SURFACE('',#393,0.0005);
#13=SPHERICAL_SURFACE('',#395,0.0005);
#14=SPHERICAL_SURFACE('',#405,0.0005);
#15=SPHERICAL_SURFACE('',#407,0.0005);
#16=CYLINDRICAL_SURFACE('',#386,0.0005);
#17=CYLINDRICAL_SURFACE('',#388,0.0005);
#18=CYLINDRICAL_SURFACE('',#391,0.0005);
#19=CYLINDRICAL_SURFACE('',#397,0.0005);
#20=CYLINDRICAL_SURFACE('',#399,0.0005);
#21=CYLINDRICAL_SURFACE('',#401,0.0005);
#22=CYLINDRICAL_SURFACE('',#403,0.0005);
#23=CYLINDRICAL_SURFACE('',#409,0.0005);
#24=CIRCLE('',#377,0.0005);
#25=CIRCLE('',#378,0.0005);
#26=CIRCLE('',#379,0.0005);
#27=CIRCLE('',#380,0.0005);
#28=CIRCLE('',#387,0.0005);
#29=CIRCLE('',#389,0.0005);
#30=CIRCLE('',#390,0.0005);
#31=CIRCLE('',#392,0.0005);
#32=CIRCLE('',#394,0.0005);
#33=CIRCLE('',#396,0.0005);
#34=CIRCLE('',#398,0.0005);
#35=CIRCLE('',#400,0.0005);
#36=CIRCLE('',#402,0.0005);
#37=CIRCLE('',#404,0.0005);
#38=CIRCLE('',#406,0.0005);
#39=CIRCLE('',#408,0.0005);
#40=ORIENTED_EDGE('',*,*,#136,.F.);
#41=ORIENTED_EDGE('',*,*,#137,.T.);
#42=ORIENTED_EDGE('',*,*,#138,.T.);
#43=ORIENTED_EDGE('',*,*,#139,.T.);
#44=ORIENTED_EDGE('',*,*,#140,.T.);
#45=ORIENTED_EDGE('',*,*,#141,.T.);
#46=ORIENTED_EDGE('',*,*,#142,.T.);
#47=ORIENTED_EDGE('',*,*,#143,.T.);
#48=ORIENTED_EDGE('',*,*,#144,.T.);
#49=ORIENTED_EDGE('',*,*,#145,.T.);
#50=ORIENTED_EDGE('',*,*,#146,.T.);
#51=ORIENTED_EDGE('',*,*,#147,.T.);
#52=ORIENTED_EDGE('',*,*,#148,.T.);
#53=ORIENTED_EDGE('',*,*,#149,.T.);
#54=ORIENTED_EDGE('',*,*,#150,.F.);
#55=ORIENTED_EDGE('',*,*,#151,.T.);
#56=ORIENTED_EDGE('',*,*,#152,.T.);
#57=ORIENTED_EDGE('',*,*,#153,.T.);
#58=ORIENTED_EDGE('',*,*,#154,.T.);
#59=ORIENTED_EDGE('',*,*,#155,.T.);
#60=ORIENTED_EDGE('',*,*,#156,.F.);
#61=ORIENTED_EDGE('',*,*,#157,.F.);
#62=ORIENTED_EDGE('',*,*,#158,.T.);
#63=ORIENTED_EDGE('',*,*,#159,.T.);
#64=ORIENTED_EDGE('',*,*,#142,.F.);
#65=ORIENTED_EDGE('',*,*,#160,.T.);
#66=ORIENTED_EDGE('',*,*,#136,.T.);
#67=ORIENTED_EDGE('',*,*,#161,.T.);
#68=ORIENTED_EDGE('',*,*,#150,.T.);
#69=ORIENTED_EDGE('',*,*,#162,.T.);
#70=ORIENTED_EDGE('',*,*,#146,.F.);
#71=ORIENTED_EDGE('',*,*,#163,.T.);
#72=ORIENTED_EDGE('',*,*,#157,.T.);
#73=ORIENTED_EDGE('',*,*,#164,.F.);
#74=ORIENTED_EDGE('',*,*,#165,.F.);
#75=ORIENTED_EDGE('',*,*,#166,.T.);
#76=ORIENTED_EDGE('',*,*,#158,.F.);
#77=ORIENTED_EDGE('',*,*,#166,.F.);
#78=ORIENTED_EDGE('',*,*,#167,.T.);
#79=ORIENTED_EDGE('',*,*,#168,.T.);
#80=ORIENTED_EDGE('',*,*,#159,.F.);
#81=ORIENTED_EDGE('',*,*,#168,.F.);
#82=ORIENTED_EDGE('',*,*,#169,.T.);
#83=ORIENTED_EDGE('',*,*,#170,.T.);
#84=ORIENTED_EDGE('',*,*,#156,.T.);
#85=ORIENTED_EDGE('',*,*,#170,.F.);
#86=ORIENTED_EDGE('',*,*,#171,.F.);
#87=ORIENTED_EDGE('',*,*,#164,.T.);
#88=ORIENTED_EDGE('',*,*,#165,.T.);
#89=ORIENTED_EDGE('',*,*,#171,.T.);
#90=ORIENTED_EDGE('',*,*,#169,.F.);
#91=ORIENTED_EDGE('',*,*,#167,.F.);
#92=ORIENTED_EDGE('',*,*,#160,.F.);
#93=ORIENTED_EDGE('',*,*,#141,.F.);
#94=ORIENTED_EDGE('',*,*,#172,.F.);
#95=ORIENTED_EDGE('',*,*,#137,.F.);
#96=ORIENTED_EDGE('',*,*,#173,.F.);
#97=ORIENTED_EDGE('',*,*,#138,.F.);
#98=ORIENTED_EDGE('',*,*,#174,.F.);
#99=ORIENTED_EDGE('',*,*,#155,.F.);
#100=ORIENTED_EDGE('',*,*,#161,.F.);
#101=ORIENTED_EDGE('',*,*,#139,.F.);
#102=ORIENTED_EDGE('',*,*,#175,.F.);
#103=ORIENTED_EDGE('',*,*,#151,.F.);
#104=ORIENTED_EDGE('',*,*,#174,.T.);
#105=ORIENTED_EDGE('',*,*,#172,.T.);
#106=ORIENTED_EDGE('',*,*,#176,.F.);
#107=ORIENTED_EDGE('',*,*,#175,.T.);
#108=ORIENTED_EDGE('',*,*,#173,.T.);
#109=ORIENTED_EDGE('',*,*,#177,.F.);
#110=ORIENTED_EDGE('',*,*,#163,.F.);
#111=ORIENTED_EDGE('',*,*,#145,.F.);
#112=ORIENTED_EDGE('',*,*,#178,.F.);
#113=ORIENTED_EDGE('',*,*,#143,.F.);
#114=ORIENTED_EDGE('',*,*,#176,.T.);
#115=ORIENTED_EDGE('',*,*,#140,.F.);
#116=ORIENTED_EDGE('',*,*,#179,.F.);
#117=ORIENTED_EDGE('',*,*,#152,.F.);
#118=ORIENTED_EDGE('',*,*,#177,.T.);
#119=ORIENTED_EDGE('',*,*,#154,.F.);
#120=ORIENTED_EDGE('',*,*,#180,.F.);
#121=ORIENTED_EDGE('',*,*,#148,.F.);
#122=ORIENTED_EDGE('',*,*,#162,.F.);
#123=ORIENTED_EDGE('',*,*,#149,.F.);
#124=ORIENTED_EDGE('',*,*,#181,.F.);
#125=ORIENTED_EDGE('',*,*,#147,.F.);
#126=ORIENTED_EDGE('',*,*,#179,.T.);
#127=ORIENTED_EDGE('',*,*,#178,.T.);
#128=ORIENTED_EDGE('',*,*,#182,.F.);
#129=ORIENTED_EDGE('',*,*,#181,.T.);
#130=ORIENTED_EDGE('',*,*,#180,.T.);
#131=ORIENTED_EDGE('',*,*,#183,.F.);
#132=ORIENTED_EDGE('',*,*,#182,.T.);
#133=ORIENTED_EDGE('',*,*,#144,.F.);
#134=ORIENTED_EDGE('',*,*,#183,.T.);
#135=ORIENTED_EDGE('',*,*,#153,.F.);
#136=EDGE_CURVE('',#184,#185,#212,.T.);
#137=EDGE_CURVE('',#184,#186,#213,.F.);
#138=EDGE_CURVE('',#186,#187,#214,.T.);
#139=EDGE_CURVE('',#187,#185,#215,.T.);
#140=EDGE_CURVE('',#188,#189,#216,.F.);
#141=EDGE_CURVE('',#189,#190,#217,.T.);
#142=EDGE_CURVE('',#190,#191,#218,.T.);
#143=EDGE_CURVE('',#191,#188,#219,.F.);
#144=EDGE_CURVE('',#192,#193,#220,.F.);
#145=EDGE_CURVE('',#193,#194,#221,.T.);
#146=EDGE_CURVE('',#194,#195,#222,.T.);
#147=EDGE_CURVE('',#195,#192,#223,.F.);
#148=EDGE_CURVE('',#196,#197,#224,.T.);
#149=EDGE_CURVE('',#197,#198,#225,.T.);
#150=EDGE_CURVE('',#199,#198,#226,.T.);
#151=EDGE_CURVE('',#199,#196,#227,.F.);
#152=EDGE_CURVE('',#200,#201,#228,.T.);
#153=EDGE_CURVE('',#201,#202,#229,.T.);
#154=EDGE_CURVE('',#202,#203,#230,.F.);
#155=EDGE_CURVE('',#203,#200,#231,.F.);
#156=EDGE_CURVE('',#204,#205,#232,.T.);
#157=EDGE_CURVE('',#206,#204,#233,.T.);
#158=EDGE_CURVE('',#206,#207,#234,.T.);
#159=EDGE_CURVE('',#207,#205,#235,.T.);
#160=EDGE_CURVE('',#190,#184,#24,.F.);
#161=EDGE_CURVE('',#185,#199,#25,.F.);
#162=EDGE_CURVE('',#198,#195,#26,.F.);
#163=EDGE_CURVE('',#194,#191,#27,.F.);
#164=EDGE_CURVE('',#208,#204,#236,.T.);
#165=EDGE_CURVE('',#209,#208,#237,.T.);
#166=EDGE_CURVE('',#209,#206,#238,.T.);
#167=EDGE_CURVE('',#209,#210,#239,.T.);
#168=EDGE_CURVE('',#210,#207,#240,.T.);
#169=EDGE_CURVE('',#210,#211,#241,.T.);
#170=EDGE_CURVE('',#211,#205,#242,.T.);
#171=EDGE_CURVE('',#208,#211,#243,.T.);
#172=EDGE_CURVE('',#186,#189,#28,.T.);
#173=EDGE_CURVE('',#187,#203,#29,.T.);
#174=EDGE_CURVE('',#200,#186,#30,.T.);
#175=EDGE_CURVE('',#196,#187,#31,.T.);
#176=EDGE_CURVE('',#200,#189,#32,.F.);
#177=EDGE_CURVE('',#196,#203,#33,.F.);
#178=EDGE_CURVE('',#188,#193,#34,.T.);
#179=EDGE_CURVE('',#201,#188,#35,.T.);
#180=EDGE_CURVE('',#197,#202,#36,.T.);
#181=EDGE_CURVE('',#192,#197,#37,.T.);
#182=EDGE_CURVE('',#201,#193,#38,.F.);
#183=EDGE_CURVE('',#192,#202,#39,.F.);
#184=VERTEX_POINT('',#525);
#185=VERTEX_POINT('',#526);
#186=VERTEX_POINT('',#528);
#187=VERTEX_POINT('',#530);
#188=VERTEX_POINT('',#534);
#189=VERTEX_POINT('',#535);
#190=VERTEX_POINT('',#537);
#191=VERTEX_POINT('',#539);
#192=VERTEX_POINT('',#543);
#193=VERTEX_POINT('',#544);
#194=VERTEX_POINT('',#546);
#195=VERTEX_POINT('',#548);
#196=VERTEX_POINT('',#552);
#197=VERTEX_POINT('',#553);
#198=VERTEX_POINT('',#555);
#199=VERTEX_POINT('',#557);
#200=VERTEX_POINT('',#561);
#201=VERTEX_POINT('',#562);
#202=VERTEX_POINT('',#564);
#203=VERTEX_POINT('',#566);
#204=VERTEX_POINT('',#570);
#205=VERTEX_POINT('',#571);
#206=VERTEX_POINT('',#573);
#207=VERTEX_POINT('',#575);
#208=VERTEX_POINT('',#583);
#209=VERTEX_POINT('',#585);
#210=VERTEX_POINT('',#589);
#211=VERTEX_POINT('',#593);
#212=LINE('',#524,#244);
#213=LINE('',#527,#245);
#214=LINE('',#529,#246);
#215=LINE('',#531,#247);
#216=LINE('',#533,#248);
#217=LINE('',#536,#249);
#218=LINE('',#538,#250);
#219=LINE('',#540,#251);
#220=LINE('',#542,#252);
#221=LINE('',#545,#253);
#222=LINE('',#547,#254);
#223=LINE('',#549,#255);
#224=LINE('',#551,#256);
#225=LINE('',#554,#257);
#226=LINE('',#556,#258);
#227=LINE('',#558,#259);
#228=LINE('',#560,#260);
#229=LINE('',#563,#261);
#230=LINE('',#565,#262);
#231=LINE('',#567,#263);
#232=LINE('',#569,#264);
#233=LINE('',#572,#265);
#234=LINE('',#574,#266);
#235=LINE('',#576,#267);
#236=LINE('',#582,#268);
#237=LINE('',#584,#269);
#238=LINE('',#586,#270);
#239=LINE('',#588,#271);
#240=LINE('',#590,#272);
#241=LINE('',#592,#273);
#242=LINE('',#594,#274);
#243=LINE('',#596,#275);
#244=VECTOR('',#414,1.);
#245=VECTOR('',#415,1.);
#246=VECTOR('',#416,1.);
#247=VECTOR('',#417,1.);
#248=VECTOR('',#420,1.);
#249=VECTOR('',#421,1.);
#250=VECTOR('',#422,1.);
#251=VECTOR('',#423,1.);
#252=VECTOR('',#426,1.);
#253=VECTOR('',#427,1.);
#254=VECTOR('',#428,1.);
#255=VECTOR('',#429,1.);
#256=VECTOR('',#432,1.);
#257=VECTOR('',#433,1.);
#258=VECTOR('',#434,1.);
#259=VECTOR('',#435,1.);
#260=VECTOR('',#438,1.);
#261=VECTOR('',#439,1.);
#262=VECTOR('',#440,1.);
#263=VECTOR('',#441,1.);
#264=VECTOR('',#444,1.);
#265=VECTOR('',#445,1.);
#266=VECTOR('',#446,1.);
#267=VECTOR('',#447,1.);
#268=VECTOR('',#458,1.);
#269=VECTOR('',#459,1.);
#270=VECTOR('',#460,1.);
#271=VECTOR('',#463,1.);
#272=VECTOR('',#464,1.);
#273=VECTOR('',#467,1.);
#274=VECTOR('',#468,1.);
#275=VECTOR('',#471,1.);
#276=EDGE_LOOP('',(#40,#41,#42,#43));
#277=EDGE_LOOP('',(#44,#45,#46,#47));
#278=EDGE_LOOP('',(#48,#49,#50,#51));
#279=EDGE_LOOP('',(#52,#53,#54,#55));
#280=EDGE_LOOP('',(#56,#57,#58,#59));
#281=EDGE_LOOP('',(#60,#61,#62,#63));
#282=EDGE_LOOP('',(#64,#65,#66,#67,#68,#69,#70,#71));
#283=EDGE_LOOP('',(#72,#73,#74,#75));
#284=EDGE_LOOP('',(#76,#77,#78,#79));
#285=EDGE_LOOP('',(#80,#81,#82,#83));
#286=EDGE_LOOP('',(#84,#85,#86,#87));
#287=EDGE_LOOP('',(#88,#89,#90,#91));
#288=EDGE_LOOP('',(#92,#93,#94,#95));
#289=EDGE_LOOP('',(#96,#97,#98,#99));
#290=EDGE_LOOP('',(#100,#101,#102,#103));
#291=EDGE_LOOP('',(#104,#105,#106));
#292=EDGE_LOOP('',(#107,#108,#109));
#293=EDGE_LOOP('',(#110,#111,#112,#113));
#294=EDGE_LOOP('',(#114,#115,#116,#117));
#295=EDGE_LOOP('',(#118,#119,#120,#121));
#296=EDGE_LOOP('',(#122,#123,#124,#125));
#297=EDGE_LOOP('',(#126,#127,#128));
#298=EDGE_LOOP('',(#129,#130,#131));
#299=EDGE_LOOP('',(#132,#133,#134,#135));
#300=FACE_BOUND('',#276,.T.);
#301=FACE_BOUND('',#277,.T.);
#302=FACE_BOUND('',#278,.T.);
#303=FACE_BOUND('',#279,.T.);
#304=FACE_BOUND('',#280,.T.);
#305=FACE_BOUND('',#281,.T.);
#306=FACE_BOUND('',#282,.T.);
#307=FACE_BOUND('',#283,.T.);
#308=FACE_BOUND('',#284,.T.);
#309=FACE_BOUND('',#285,.T.);
#310=FACE_BOUND('',#286,.T.);
#311=FACE_BOUND('',#287,.T.);
#312=FACE_BOUND('',#288,.T.);
#313=FACE_BOUND('',#289,.T.);
#314=FACE_BOUND('',#290,.T.);
#315=FACE_BOUND('',#291,.T.);
#316=FACE_BOUND('',#292,.T.);
#317=FACE_BOUND('',#293,.T.);
#318=FACE_BOUND('',#294,.T.);
#319=FACE_BOUND('',#295,.T.);
#320=FACE_BOUND('',#296,.T.);
#321=FACE_BOUND('',#297,.T.);
#322=FACE_BOUND('',#298,.T.);
#323=FACE_BOUND('',#299,.T.);
#324=PLANE('',#371);
#325=PLANE('',#372);
#326=PLANE('',#373);
#327=PLANE('',#374);
#328=PLANE('',#375);
#329=PLANE('',#376);
#330=PLANE('',#381);
#331=PLANE('',#382);
#332=PLANE('',#383);
#333=PLANE('',#384);
#334=PLANE('',#385);
#335=ADVANCED_FACE('',(#300),#324,.T.);
#336=ADVANCED_FACE('',(#301),#325,.F.);
#337=ADVANCED_FACE('',(#302),#326,.F.);
#338=ADVANCED_FACE('',(#303),#327,.T.);
#339=ADVANCED_FACE('',(#304),#328,.T.);
#340=ADVANCED_FACE('',(#305,#306),#329,.F.);
#341=ADVANCED_FACE('',(#307),#330,.F.);
#342=ADVANCED_FACE('',(#308),#331,.T.);
#343=ADVANCED_FACE('',(#309),#332,.T.);
#344=ADVANCED_FACE('',(#310),#333,.F.);
#345=ADVANCED_FACE('',(#311),#334,.F.);
#346=ADVANCED_FACE('',(#312),#16,.T.);
#347=ADVANCED_FACE('',(#313),#17,.T.);
#348=ADVANCED_FACE('',(#314),#18,.T.);
#349=ADVANCED_FACE('',(#315),#12,.T.);
#350=ADVANCED_FACE('',(#316),#13,.T.);
#351=ADVANCED_FACE('',(#317),#19,.T.);
#352=ADVANCED_FACE('',(#318),#20,.T.);
#353=ADVANCED_FACE('',(#319),#21,.T.);
#354=ADVANCED_FACE('',(#320),#22,.T.);
#355=ADVANCED_FACE('',(#321),#14,.T.);
#356=ADVANCED_FACE('',(#322),#15,.T.);
#357=ADVANCED_FACE('',(#323),#23,.T.);
#358=CLOSED_SHELL('',(#335,#336,#337,#338,#339,#340,#341,#342,#343,#344,
#345,#346,#347,#348,#349,#350,#351,#352,#353,#354,#355,#356,#357));
#359=STYLED_ITEM('',(#360),#367);
#360=PRESENTATION_STYLE_ASSIGNMENT((#361));
#361=SURFACE_STYLE_USAGE(.BOTH.,#362);
#362=SURFACE_SIDE_STYLE('',(#363));
#363=SURFACE_STYLE_FILL_AREA(#364);
#364=FILL_AREA_STYLE('',(#365));
#365=FILL_AREA_STYLE_COLOUR('',#366);
#366=COLOUR_RGB('',0.231372549019608,0.380392156862745,0.705882352941177);
#367=MANIFOLD_SOLID_BREP('SPDTSWExtender',#358);
#368=SHAPE_DEFINITION_REPRESENTATION(#628,#369);
#369=SHAPE_REPRESENTATION('SPDTSWExtender',(#370),#623);
#370=AXIS2_PLACEMENT_3D('',#522,#410,#411);
#371=AXIS2_PLACEMENT_3D('',#523,#412,#413);
#372=AXIS2_PLACEMENT_3D('',#532,#418,#419);
#373=AXIS2_PLACEMENT_3D('',#541,#424,#425);
#374=AXIS2_PLACEMENT_3D('',#550,#430,#431);
#375=AXIS2_PLACEMENT_3D('',#559,#436,#437);
#376=AXIS2_PLACEMENT_3D('',#568,#442,#443);
#377=AXIS2_PLACEMENT_3D('',#577,#448,#449);
#378=AXIS2_PLACEMENT_3D('',#578,#450,#451);
#379=AXIS2_PLACEMENT_3D('',#579,#452,#453);
#380=AXIS2_PLACEMENT_3D('',#580,#454,#455);
#381=AXIS2_PLACEMENT_3D('',#581,#456,#457);
#382=AXIS2_PLACEMENT_3D('',#587,#461,#462);
#383=AXIS2_PLACEMENT_3D('',#591,#465,#466);
#384=AXIS2_PLACEMENT_3D('',#595,#469,#470);
#385=AXIS2_PLACEMENT_3D('',#597,#472,#473);
#386=AXIS2_PLACEMENT_3D('',#598,#474,#475);
#387=AXIS2_PLACEMENT_3D('',#599,#476,#477);
#388=AXIS2_PLACEMENT_3D('',#600,#478,#479);
#389=AXIS2_PLACEMENT_3D('',#601,#480,#481);
#390=AXIS2_PLACEMENT_3D('',#602,#482,#483);
#391=AXIS2_PLACEMENT_3D('',#603,#484,#485);
#392=AXIS2_PLACEMENT_3D('',#604,#486,#487);
#393=AXIS2_PLACEMENT_3D('',#605,#488,#489);
#394=AXIS2_PLACEMENT_3D('',#606,#490,#491);
#395=AXIS2_PLACEMENT_3D('',#607,#492,#493);
#396=AXIS2_PLACEMENT_3D('',#608,#494,#495);
#397=AXIS2_PLACEMENT_3D('',#609,#496,#497);
#398=AXIS2_PLACEMENT_3D('',#610,#498,#499);
#399=AXIS2_PLACEMENT_3D('',#611,#500,#501);
#400=AXIS2_PLACEMENT_3D('',#612,#502,#503);
#401=AXIS2_PLACEMENT_3D('',#613,#504,#505);
#402=AXIS2_PLACEMENT_3D('',#614,#506,#507);
#403=AXIS2_PLACEMENT_3D('',#615,#508,#509);
#404=AXIS2_PLACEMENT_3D('',#616,#510,#511);
#405=AXIS2_PLACEMENT_3D('',#617,#512,#513);
#406=AXIS2_PLACEMENT_3D('',#618,#514,#515);
#407=AXIS2_PLACEMENT_3D('',#619,#516,#517);
#408=AXIS2_PLACEMENT_3D('',#620,#518,#519);
#409=AXIS2_PLACEMENT_3D('',#621,#520,#521);
#410=DIRECTION('',(0.,0.,1.));
#411=DIRECTION('',(1.,0.,0.));
#412=DIRECTION('',(1.44560289664734E-16,0.,1.));
#413=DIRECTION('',(1.,0.,-1.44560289664734E-16));
#414=DIRECTION('',(-1.,0.,1.44560289664734E-16));
#415=DIRECTION('',(0.,-1.,0.));
#416=DIRECTION('',(-1.,0.,1.44560289664734E-16));
#417=DIRECTION('',(0.,-1.,0.));
#418=DIRECTION('',(-1.,0.,0.));
#419=DIRECTION('',(0.,1.,0.));
#420=DIRECTION('',(0.,0.,-1.));
#421=DIRECTION('',(0.,-1.,0.));
#422=DIRECTION('',(0.,0.,-1.));
#423=DIRECTION('',(0.,-1.,0.));
#424=DIRECTION('',(1.44560289664734E-16,0.,1.));
#425=DIRECTION('',(1.,0.,-1.44560289664734E-16));
#426=DIRECTION('',(-1.,0.,1.44560289664734E-16));
#427=DIRECTION('',(0.,-1.,0.));
#428=DIRECTION('',(-1.,0.,1.44560289664734E-16));
#429=DIRECTION('',(0.,-1.,0.));
#430=DIRECTION('',(-1.,0.,0.));
#431=DIRECTION('',(0.,1.,0.));
#432=DIRECTION('',(0.,0.,-1.));
#433=DIRECTION('',(0.,-1.,0.));
#434=DIRECTION('',(0.,0.,-1.));
#435=DIRECTION('',(0.,-1.,0.));
#436=DIRECTION('',(0.,1.,0.));
#437=DIRECTION('',(1.,0.,0.));
#438=DIRECTION('',(0.,0.,-1.));
#439=DIRECTION('',(-1.,0.,1.44560289664734E-16));
#440=DIRECTION('',(0.,0.,-1.));
#441=DIRECTION('',(-1.,0.,1.44560289664734E-16));
#442=DIRECTION('',(0.,1.,0.));
#443=DIRECTION('',(1.,0.,0.));
#444=DIRECTION('',(7.2280144832367E-17,0.,-1.));
#445=DIRECTION('',(-1.,0.,7.2280144832367E-17));
#446=DIRECTION('',(7.2280144832367E-17,0.,-1.));
#447=DIRECTION('',(-1.,0.,1.44560289664734E-16));
#448=DIRECTION('',(0.,1.,0.));
#449=DIRECTION('',(1.,0.,0.));
#450=DIRECTION('',(0.,1.,0.));
#451=DIRECTION('',(1.,0.,0.));
#452=DIRECTION('',(0.,1.,0.));
#453=DIRECTION('',(1.,0.,0.));
#454=DIRECTION('',(0.,1.,0.));
#455=DIRECTION('',(1.,0.,0.));
#456=DIRECTION('',(7.2280144832367E-17,0.,1.));
#457=DIRECTION('',(1.,0.,-7.2280144832367E-17));
#458=DIRECTION('',(0.,-1.,0.));
#459=DIRECTION('',(-1.,0.,7.2280144832367E-17));
#460=DIRECTION('',(0.,-1.,0.));
#461=DIRECTION('',(-1.,0.,-7.2280144832367E-17));
#462=DIRECTION('',(-7.2280144832367E-17,0.,1.));
#463=DIRECTION('',(7.2280144832367E-17,0.,-1.));
#464=DIRECTION('',(0.,-1.,0.));
#465=DIRECTION('',(1.44560289664734E-16,0.,1.));
#466=DIRECTION('',(1.,0.,-1.44560289664734E-16));
#467=DIRECTION('',(-1.,0.,1.44560289664734E-16));
#468=DIRECTION('',(0.,-1.,0.));
#469=DIRECTION('',(-1.,0.,-7.2280144832367E-17));
#470=DIRECTION('',(-7.2280144832367E-17,0.,1.));
#471=DIRECTION('',(7.2280144832367E-17,0.,-1.));
#472=DIRECTION('',(0.,1.,0.));
#473=DIRECTION('',(1.,0.,0.));
#474=DIRECTION('',(0.,1.,0.));
#475=DIRECTION('',(1.,0.,0.));
#476=DIRECTION('',(0.,1.,0.));
#477=DIRECTION('',(1.,0.,0.));
#478=DIRECTION('',(-1.,0.,1.44560289664734E-16));
#479=DIRECTION('',(1.44560289664734E-16,0.,1.));
#480=DIRECTION('',(-1.,0.,0.));
#481=DIRECTION('',(0.,1.,0.));
#482=DIRECTION('',(1.,0.,0.));
#483=DIRECTION('',(0.,-1.,0.));
#484=DIRECTION('',(0.,-1.,0.));
#485=DIRECTION('',(-1.,0.,0.));
#486=DIRECTION('',(0.,1.,0.));
#487=DIRECTION('',(1.,0.,0.));
#488=DIRECTION('',(0.,0.,1.));
#489=DIRECTION('',(0.,-1.,0.));
#490=DIRECTION('',(0.,0.,1.));
#491=DIRECTION('',(0.,-1.,0.));
#492=DIRECTION('',(0.,0.,1.));
#493=DIRECTION('',(0.,-1.,0.));
#494=DIRECTION('',(0.,0.,1.));
#495=DIRECTION('',(0.,-1.,0.));
#496=DIRECTION('',(0.,-1.,0.));
#497=DIRECTION('',(-1.,0.,0.));
#498=DIRECTION('',(0.,1.,0.));
#499=DIRECTION('',(1.,0.,0.));
#500=DIRECTION('',(0.,0.,1.));
#501=DIRECTION('',(0.,-1.,0.));
#502=DIRECTION('',(0.,0.,-1.));
#503=DIRECTION('',(0.,1.,0.));
#504=DIRECTION('',(0.,0.,-1.));
#505=DIRECTION('',(0.,1.,0.));
#506=DIRECTION('',(0.,0.,-1.));
#507=DIRECTION('',(0.,1.,0.));
#508=DIRECTION('',(0.,1.,0.));
#509=DIRECTION('',(1.,0.,0.));
#510=DIRECTION('',(0.,1.,0.));
#511=DIRECTION('',(1.,0.,0.));
#512=DIRECTION('',(1.,0.,0.));
#513=DIRECTION('',(0.,-1.,0.));
#514=DIRECTION('',(1.,0.,0.));
#515=DIRECTION('',(0.,-1.,0.));
#516=DIRECTION('',(-1.,0.,0.));
#517=DIRECTION('',(0.,1.,0.));
#518=DIRECTION('',(-1.,0.,0.));
#519=DIRECTION('',(0.,1.,0.));
#520=DIRECTION('',(1.,0.,-1.44560289664734E-16));
#521=DIRECTION('',(-1.44560289664734E-16,0.,-1.));
#522=CARTESIAN_POINT('',(0.,0.,0.));
#523=CARTESIAN_POINT('',(0.,0.015,0.0015));
#524=CARTESIAN_POINT('',(0.,0.,0.0015));
#525=CARTESIAN_POINT('',(0.001,0.,0.0015));
#526=CARTESIAN_POINT('',(-0.001,0.,0.0015));
#527=CARTESIAN_POINT('',(0.001,0.015,0.0015));
#528=CARTESIAN_POINT('',(0.001,0.0145,0.0015));
#529=CARTESIAN_POINT('',(0.,0.0145,0.0015));
#530=CARTESIAN_POINT('',(-0.001,0.0145,0.0015));
#531=CARTESIAN_POINT('',(-0.001,0.015,0.0015));
#532=CARTESIAN_POINT('',(0.0015,0.015,-2.16840434497101E-19));
#533=CARTESIAN_POINT('',(0.0015,0.0145,0.0015));
#534=CARTESIAN_POINT('',(0.0015,0.0145,-0.001));
#535=CARTESIAN_POINT('',(0.0015,0.0145,0.001));
#536=CARTESIAN_POINT('',(0.0015,0.,0.001));
#537=CARTESIAN_POINT('',(0.0015,0.,0.001));
#538=CARTESIAN_POINT('',(0.0015,0.,-2.16840434497101E-19));
#539=CARTESIAN_POINT('',(0.0015,0.,-0.001));
#540=CARTESIAN_POINT('',(0.0015,0.015,-0.001));
#541=CARTESIAN_POINT('',(0.,0.015,-0.0015));
#542=CARTESIAN_POINT('',(0.0015,0.0145,-0.0015));
#543=CARTESIAN_POINT('',(-0.001,0.0145,-0.0015));
#544=CARTESIAN_POINT('',(0.001,0.0145,-0.0015));
#545=CARTESIAN_POINT('',(0.001,0.015,-0.0015));
#546=CARTESIAN_POINT('',(0.001,0.,-0.0015));
#547=CARTESIAN_POINT('',(0.,0.,-0.0015));
#548=CARTESIAN_POINT('',(-0.001,0.,-0.0015));
#549=CARTESIAN_POINT('',(-0.001,0.015,-0.0015));
#550=CARTESIAN_POINT('',(-0.0015,0.015,0.));
#551=CARTESIAN_POINT('',(-0.0015,0.0145,0.));
#552=CARTESIAN_POINT('',(-0.0015,0.0145,0.001));
#553=CARTESIAN_POINT('',(-0.0015,0.0145,-0.001));
#554=CARTESIAN_POINT('',(-0.0015,0.,-0.001));
#555=CARTESIAN_POINT('',(-0.0015,0.,-0.001));
#556=CARTESIAN_POINT('',(-0.0015,0.,0.));
#557=CARTESIAN_POINT('',(-0.0015,0.,0.001));
#558=CARTESIAN_POINT('',(-0.0015,0.015,0.001));
#559=CARTESIAN_POINT('',(0.,0.015,0.));
#560=CARTESIAN_POINT('',(0.001,0.015,-0.0015));
#561=CARTESIAN_POINT('',(0.001,0.015,0.001));
#562=CARTESIAN_POINT('',(0.001,0.015,-0.001));
#563=CARTESIAN_POINT('',(-0.0015,0.015,-0.001));
#564=CARTESIAN_POINT('',(-0.001,0.015,-0.001));
#565=CARTESIAN_POINT('',(-0.001,0.015,0.));
#566=CARTESIAN_POINT('',(-0.001,0.015,0.001));
#567=CARTESIAN_POINT('',(1.44560289664734E-19,0.015,0.001));
#568=CARTESIAN_POINT('',(0.,0.,0.));
#569=CARTESIAN_POINT('',(-0.00075,0.,4.33680868994202E-19));
#570=CARTESIAN_POINT('',(-0.00075,0.,0.00075));
#571=CARTESIAN_POINT('',(-0.00075,0.,-0.00075));
#572=CARTESIAN_POINT('',(2.16840434497101E-19,0.,0.00075));
#573=CARTESIAN_POINT('',(0.00075,0.,0.00075));
#574=CARTESIAN_POINT('',(0.00075,0.,4.33680868994202E-19));
#575=CARTESIAN_POINT('',(0.00075,0.,-0.00075));
#576=CARTESIAN_POINT('',(3.25260651745652E-19,0.,-0.00075));
#577=CARTESIAN_POINT('',(0.001,0.,0.001));
#578=CARTESIAN_POINT('',(-0.001,0.,0.001));
#579=CARTESIAN_POINT('',(-0.001,0.,-0.001));
#580=CARTESIAN_POINT('',(0.001,0.,-0.001));
#581=CARTESIAN_POINT('',(2.16840434497101E-19,0.002,0.00075));
#582=CARTESIAN_POINT('',(-0.00075,0.002,0.00075));
#583=CARTESIAN_POINT('',(-0.00075,0.002,0.00075));
#584=CARTESIAN_POINT('',(2.16840434497101E-19,0.002,0.00075));
#585=CARTESIAN_POINT('',(0.00075,0.002,0.00075));
#586=CARTESIAN_POINT('',(0.00075,0.002,0.00075));
#587=CARTESIAN_POINT('',(0.00075,0.002,4.33680868994202E-19));
#588=CARTESIAN_POINT('',(0.00075,0.002,4.33680868994202E-19));
#589=CARTESIAN_POINT('',(0.00075,0.002,-0.00075));
#590=CARTESIAN_POINT('',(0.00075,0.002,-0.00075));
#591=CARTESIAN_POINT('',(3.25260651745652E-19,0.002,-0.00075));
#592=CARTESIAN_POINT('',(3.25260651745652E-19,0.002,-0.00075));
#593=CARTESIAN_POINT('',(-0.00075,0.002,-0.00075));
#594=CARTESIAN_POINT('',(-0.00075,0.002,-0.00075));
#595=CARTESIAN_POINT('',(-0.00075,0.002,4.33680868994202E-19));
#596=CARTESIAN_POINT('',(-0.00075,0.002,4.33680868994202E-19));
#597=CARTESIAN_POINT('',(0.,0.002,0.));
#598=CARTESIAN_POINT('',(0.001,0.015,0.001));
#599=CARTESIAN_POINT('',(0.001,0.0145,0.001));
#600=CARTESIAN_POINT('',(-7.2280144832367E-20,0.0145,0.001));
#601=CARTESIAN_POINT('',(-0.001,0.0145,0.001));
#602=CARTESIAN_POINT('',(0.001,0.0145,0.001));
#603=CARTESIAN_POINT('',(-0.001,0.015,0.001));
#604=CARTESIAN_POINT('',(-0.001,0.0145,0.001));
#605=CARTESIAN_POINT('',(0.001,0.0145,0.001));
#606=CARTESIAN_POINT('',(0.001,0.0145,0.001));
#607=CARTESIAN_POINT('',(-0.001,0.0145,0.001));
#608=CARTESIAN_POINT('',(-0.001,0.0145,0.001));
#609=CARTESIAN_POINT('',(0.001,0.015,-0.001));
#610=CARTESIAN_POINT('',(0.001,0.0145,-0.001));
#611=CARTESIAN_POINT('',(0.001,0.0145,0.));
#612=CARTESIAN_POINT('',(0.001,0.0145,-0.001));
#613=CARTESIAN_POINT('',(-0.001,0.0145,0.));
#614=CARTESIAN_POINT('',(-0.001,0.0145,-0.001));
#615=CARTESIAN_POINT('',(-0.001,0.015,-0.001));
#616=CARTESIAN_POINT('',(-0.001,0.0145,-0.001));
#617=CARTESIAN_POINT('',(0.001,0.0145,-0.001));
#618=CARTESIAN_POINT('',(0.001,0.0145,-0.001));
#619=CARTESIAN_POINT('',(-0.001,0.0145,-0.001));
#620=CARTESIAN_POINT('',(-0.001,0.0145,-0.001));
#621=CARTESIAN_POINT('',(-1.44560289664734E-19,0.0145,-0.001));
#622=MECHANICAL_DESIGN_GEOMETRIC_PRESENTATION_REPRESENTATION('',(#359),
#623);
#623=(
GEOMETRIC_REPRESENTATION_CONTEXT(3)
GLOBAL_UNCERTAINTY_ASSIGNED_CONTEXT((#624))
GLOBAL_UNIT_ASSIGNED_CONTEXT((#627,#626,#625))
REPRESENTATION_CONTEXT('SPDTSWExtender','TOP_LEVEL_ASSEMBLY_PART')
);
#624=UNCERTAINTY_MEASURE_WITH_UNIT(LENGTH_MEASURE(1.E-8),#627,
'DISTANCE_ACCURACY_VALUE','Maximum Tolerance applied to model');
#625=(
NAMED_UNIT(*)
SI_UNIT($,.STERADIAN.)
SOLID_ANGLE_UNIT()
);
#626=(
NAMED_UNIT(*)
PLANE_ANGLE_UNIT()
SI_UNIT($,.RADIAN.)
);
#627=(
LENGTH_UNIT()
NAMED_UNIT(*)
SI_UNIT($,.METRE.)
);
#628=PRODUCT_DEFINITION_SHAPE('','',#629);
#629=PRODUCT_DEFINITION('','',#631,#630);
#630=PRODUCT_DEFINITION_CONTEXT('',#637,'design');
#631=PRODUCT_DEFINITION_FORMATION_WITH_SPECIFIED_SOURCE('','',#633,
 .NOT_KNOWN.);
#632=PRODUCT_RELATED_PRODUCT_CATEGORY('','',(#633));
#633=PRODUCT('SPDTSWExtender','SPDTSWExtender','SPDTSWExtender',(#635));
#634=PRODUCT_CATEGORY('','');
#635=PRODUCT_CONTEXT('',#637,'mechanical');
#636=APPLICATION_PROTOCOL_DEFINITION('international standard',
'ap242_managed_model_based_3d_engineering',2020,#637);
#637=APPLICATION_CONTEXT('managed model based 3d engineering');
ENDSEC;
END-ISO-10303-21;
