ISO-10303-21;
HEADER;
/* Generated by software containing ST-Developer
 * from STEP Tools, Inc. (www.steptools.com) 
 */
/* OPTION: using custom renumber hook */

FILE_DESCRIPTION(
/* description */ ('STEP AP242 Edition 2',
'CAx-IF Rec.Pracs.---Representation and Presentation of Product Manufa
cturing Information (PMI)---4.0---2014-10-13',
'CAx-IF Rec.Pracs.---3D Tessellated Geometry---0.4---2014-09-14','2;1',
'CAx-IF Rec.Pracs.---User Defined Attributes---1.5---2016-08-15'),
/* implementation_level */ '2;1');

FILE_NAME(
/* name */ 'Part Studio 2 - 608ZZ Bearing',
/* time_stamp */ '2026-06-20T19:57:57Z',
/* author */ (''),
/* organization */ (''),
/* preprocessor_version */ 'ST-DEVELOPER v20',
/* originating_system */ 'ONSHAPE BY PTC INC, 1.216',
/* authorisation */ '  ');

FILE_SCHEMA (('AP242_MANAGED_MODEL_BASED_3D_ENGINEERING_MIM_LF { 1 0 10303 442 3 1 4 }'));
ENDSEC;

DATA;
#10=SHAPE_REPRESENTATION_RELATIONSHIP('','',#155,#11);
#11=ADVANCED_BREP_SHAPE_REPRESENTATION('',(#153),#269);
#12=PLANE('',#171);
#13=PLANE('',#176);
#14=TOROIDAL_SURFACE('',#163,0.0095,0.0015);
#15=TOROIDAL_SURFACE('',#165,0.0055,0.0015);
#16=TOROIDAL_SURFACE('',#167,0.0095,0.0015);
#17=TOROIDAL_SURFACE('',#169,0.0055,0.0015);
#18=TOROIDAL_SURFACE('',#174,0.01,0.0005);
#19=TOROIDAL_SURFACE('',#175,0.005,0.0005);
#20=TOROIDAL_SURFACE('',#179,0.01,0.0005);
#21=TOROIDAL_SURFACE('',#180,0.005,0.0005);
#22=ORIENTED_EDGE('',*,*,#46,.T.);
#23=ORIENTED_EDGE('',*,*,#47,.T.);
#24=ORIENTED_EDGE('',*,*,#48,.T.);
#25=ORIENTED_EDGE('',*,*,#49,.T.);
#26=ORIENTED_EDGE('',*,*,#50,.T.);
#27=ORIENTED_EDGE('',*,*,#48,.F.);
#28=ORIENTED_EDGE('',*,*,#51,.T.);
#29=ORIENTED_EDGE('',*,*,#46,.F.);
#30=ORIENTED_EDGE('',*,*,#52,.T.);
#31=ORIENTED_EDGE('',*,*,#49,.F.);
#32=ORIENTED_EDGE('',*,*,#53,.T.);
#33=ORIENTED_EDGE('',*,*,#47,.F.);
#34=ORIENTED_EDGE('',*,*,#54,.T.);
#35=ORIENTED_EDGE('',*,*,#55,.T.);
#36=ORIENTED_EDGE('',*,*,#52,.F.);
#37=ORIENTED_EDGE('',*,*,#55,.F.);
#38=ORIENTED_EDGE('',*,*,#53,.F.);
#39=ORIENTED_EDGE('',*,*,#54,.F.);
#40=ORIENTED_EDGE('',*,*,#56,.T.);
#41=ORIENTED_EDGE('',*,*,#57,.T.);
#42=ORIENTED_EDGE('',*,*,#50,.F.);
#43=ORIENTED_EDGE('',*,*,#57,.F.);
#44=ORIENTED_EDGE('',*,*,#51,.F.);
#45=ORIENTED_EDGE('',*,*,#56,.F.);
#46=EDGE_CURVE('',#58,#58,#70,.F.);
#47=EDGE_CURVE('',#59,#59,#71,.T.);
#48=EDGE_CURVE('',#60,#60,#72,.T.);
#49=EDGE_CURVE('',#61,#61,#73,.F.);
#50=EDGE_CURVE('',#62,#62,#74,.T.);
#51=EDGE_CURVE('',#63,#63,#75,.F.);
#52=EDGE_CURVE('',#64,#64,#76,.T.);
#53=EDGE_CURVE('',#65,#65,#77,.F.);
#54=EDGE_CURVE('',#66,#66,#78,.F.);
#55=EDGE_CURVE('',#67,#67,#79,.F.);
#56=EDGE_CURVE('',#68,#68,#80,.F.);
#57=EDGE_CURVE('',#69,#69,#81,.F.);
#58=VERTEX_POINT('',#234);
#59=VERTEX_POINT('',#236);
#60=VERTEX_POINT('',#239);
#61=VERTEX_POINT('',#241);
#62=VERTEX_POINT('',#244);
#63=VERTEX_POINT('',#247);
#64=VERTEX_POINT('',#250);
#65=VERTEX_POINT('',#253);
#66=VERTEX_POINT('',#256);
#67=VERTEX_POINT('',#258);
#68=VERTEX_POINT('',#263);
#69=VERTEX_POINT('',#265);
#70=CIRCLE('',#158,0.004);
#71=CIRCLE('',#159,0.004);
#72=CIRCLE('',#161,0.011);
#73=CIRCLE('',#162,0.011);
#74=CIRCLE('',#164,0.01025);
#75=CIRCLE('',#166,0.00475);
#76=CIRCLE('',#168,0.01025);
#77=CIRCLE('',#170,0.00475);
#78=CIRCLE('',#172,0.00548171652200114);
#79=CIRCLE('',#173,0.00951828347799886);
#80=CIRCLE('',#177,0.00548171652200114);
#81=CIRCLE('',#178,0.00951828347799886);
#82=EDGE_LOOP('',(#22));
#83=EDGE_LOOP('',(#23));
#84=EDGE_LOOP('',(#24));
#85=EDGE_LOOP('',(#25));
#86=EDGE_LOOP('',(#26));
#87=EDGE_LOOP('',(#27));
#88=EDGE_LOOP('',(#28));
#89=EDGE_LOOP('',(#29));
#90=EDGE_LOOP('',(#30));
#91=EDGE_LOOP('',(#31));
#92=EDGE_LOOP('',(#32));
#93=EDGE_LOOP('',(#33));
#94=EDGE_LOOP('',(#34));
#95=EDGE_LOOP('',(#35));
#96=EDGE_LOOP('',(#36));
#97=EDGE_LOOP('',(#37));
#98=EDGE_LOOP('',(#38));
#99=EDGE_LOOP('',(#39));
#100=EDGE_LOOP('',(#40));
#101=EDGE_LOOP('',(#41));
#102=EDGE_LOOP('',(#42));
#103=EDGE_LOOP('',(#43));
#104=EDGE_LOOP('',(#44));
#105=EDGE_LOOP('',(#45));
#106=FACE_BOUND('',#82,.T.);
#107=FACE_BOUND('',#83,.T.);
#108=FACE_BOUND('',#84,.T.);
#109=FACE_BOUND('',#85,.T.);
#110=FACE_BOUND('',#86,.T.);
#111=FACE_BOUND('',#87,.T.);
#112=FACE_BOUND('',#88,.T.);
#113=FACE_BOUND('',#89,.T.);
#114=FACE_BOUND('',#90,.T.);
#115=FACE_BOUND('',#91,.T.);
#116=FACE_BOUND('',#92,.T.);
#117=FACE_BOUND('',#93,.T.);
#118=FACE_BOUND('',#94,.T.);
#119=FACE_BOUND('',#95,.T.);
#120=FACE_BOUND('',#96,.T.);
#121=FACE_BOUND('',#97,.T.);
#122=FACE_BOUND('',#98,.T.);
#123=FACE_BOUND('',#99,.T.);
#124=FACE_BOUND('',#100,.T.);
#125=FACE_BOUND('',#101,.T.);
#126=FACE_BOUND('',#102,.T.);
#127=FACE_BOUND('',#103,.T.);
#128=FACE_BOUND('',#104,.T.);
#129=FACE_BOUND('',#105,.T.);
#130=CYLINDRICAL_SURFACE('',#157,0.004);
#131=CYLINDRICAL_SURFACE('',#160,0.011);
#132=ADVANCED_FACE('',(#106,#107),#130,.F.);
#133=ADVANCED_FACE('',(#108,#109),#131,.T.);
#134=ADVANCED_FACE('',(#110,#111),#14,.T.);
#135=ADVANCED_FACE('',(#112,#113),#15,.T.);
#136=ADVANCED_FACE('',(#114,#115),#16,.T.);
#137=ADVANCED_FACE('',(#116,#117),#17,.T.);
#138=ADVANCED_FACE('',(#118,#119),#12,.T.);
#139=ADVANCED_FACE('',(#120,#121),#18,.T.);
#140=ADVANCED_FACE('',(#122,#123),#19,.T.);
#141=ADVANCED_FACE('',(#124,#125),#13,.F.);
#142=ADVANCED_FACE('',(#126,#127),#20,.T.);
#143=ADVANCED_FACE('',(#128,#129),#21,.T.);
#144=CLOSED_SHELL('',(#132,#133,#134,#135,#136,#137,#138,#139,#140,#141,
#142,#143));
#145=STYLED_ITEM('',(#146),#153);
#146=PRESENTATION_STYLE_ASSIGNMENT((#147));
#147=SURFACE_STYLE_USAGE(.BOTH.,#148);
#148=SURFACE_SIDE_STYLE('',(#149));
#149=SURFACE_STYLE_FILL_AREA(#150);
#150=FILL_AREA_STYLE('',(#151));
#151=FILL_AREA_STYLE_COLOUR('',#152);
#152=COLOUR_RGB('',0.623529411764706,0.666666666666667,0.701960784313725);
#153=MANIFOLD_SOLID_BREP('608ZZ Bearing',#144);
#154=SHAPE_DEFINITION_REPRESENTATION(#274,#155);
#155=SHAPE_REPRESENTATION('608ZZ Bearing',(#156),#269);
#156=AXIS2_PLACEMENT_3D('',#231,#181,#182);
#157=AXIS2_PLACEMENT_3D('',#232,#183,#184);
#158=AXIS2_PLACEMENT_3D('',#233,#185,#186);
#159=AXIS2_PLACEMENT_3D('',#235,#187,#188);
#160=AXIS2_PLACEMENT_3D('',#237,#189,#190);
#161=AXIS2_PLACEMENT_3D('',#238,#191,#192);
#162=AXIS2_PLACEMENT_3D('',#240,#193,#194);
#163=AXIS2_PLACEMENT_3D('',#242,#195,#196);
#164=AXIS2_PLACEMENT_3D('',#243,#197,#198);
#165=AXIS2_PLACEMENT_3D('',#245,#199,#200);
#166=AXIS2_PLACEMENT_3D('',#246,#201,#202);
#167=AXIS2_PLACEMENT_3D('',#248,#203,#204);
#168=AXIS2_PLACEMENT_3D('',#249,#205,#206);
#169=AXIS2_PLACEMENT_3D('',#251,#207,#208);
#170=AXIS2_PLACEMENT_3D('',#252,#209,#210);
#171=AXIS2_PLACEMENT_3D('',#254,#211,#212);
#172=AXIS2_PLACEMENT_3D('',#255,#213,#214);
#173=AXIS2_PLACEMENT_3D('',#257,#215,#216);
#174=AXIS2_PLACEMENT_3D('',#259,#217,#218);
#175=AXIS2_PLACEMENT_3D('',#260,#219,#220);
#176=AXIS2_PLACEMENT_3D('',#261,#221,#222);
#177=AXIS2_PLACEMENT_3D('',#262,#223,#224);
#178=AXIS2_PLACEMENT_3D('',#264,#225,#226);
#179=AXIS2_PLACEMENT_3D('',#266,#227,#228);
#180=AXIS2_PLACEMENT_3D('',#267,#229,#230);
#181=DIRECTION('',(0.,0.,1.));
#182=DIRECTION('',(1.,0.,0.));
#183=DIRECTION('',(0.,-1.,0.));
#184=DIRECTION('',(-1.,0.,0.));
#185=DIRECTION('',(0.,1.,0.));
#186=DIRECTION('',(1.,0.,0.));
#187=DIRECTION('',(0.,1.,0.));
#188=DIRECTION('',(1.,0.,0.));
#189=DIRECTION('',(0.,-1.,0.));
#190=DIRECTION('',(-1.,0.,0.));
#191=DIRECTION('',(0.,1.,0.));
#192=DIRECTION('',(1.,0.,0.));
#193=DIRECTION('',(0.,1.,0.));
#194=DIRECTION('',(1.,0.,0.));
#195=DIRECTION('',(0.,1.,0.));
#196=DIRECTION('',(1.,0.,0.));
#197=DIRECTION('',(0.,1.,0.));
#198=DIRECTION('',(1.,0.,0.));
#199=DIRECTION('',(0.,1.,0.));
#200=DIRECTION('',(1.,0.,0.));
#201=DIRECTION('',(0.,1.,0.));
#202=DIRECTION('',(1.,0.,0.));
#203=DIRECTION('',(0.,1.,0.));
#204=DIRECTION('',(1.,0.,0.));
#205=DIRECTION('',(0.,-1.,0.));
#206=DIRECTION('',(-1.,0.,0.));
#207=DIRECTION('',(0.,1.,0.));
#208=DIRECTION('',(1.,0.,0.));
#209=DIRECTION('',(0.,-1.,0.));
#210=DIRECTION('',(-1.,0.,0.));
#211=DIRECTION('',(0.,1.,0.));
#212=DIRECTION('',(1.,0.,0.));
#213=DIRECTION('',(0.,1.,0.));
#214=DIRECTION('',(1.,0.,0.));
#215=DIRECTION('',(0.,-1.,0.));
#216=DIRECTION('',(-1.,0.,0.));
#217=DIRECTION('',(0.,-1.,0.));
#218=DIRECTION('',(-1.,0.,0.));
#219=DIRECTION('',(0.,1.,0.));
#220=DIRECTION('',(1.,0.,0.));
#221=DIRECTION('',(0.,1.,0.));
#222=DIRECTION('',(1.,0.,0.));
#223=DIRECTION('',(0.,-1.,0.));
#224=DIRECTION('',(-1.,0.,0.));
#225=DIRECTION('',(0.,1.,0.));
#226=DIRECTION('',(1.,0.,0.));
#227=DIRECTION('',(0.,1.,0.));
#228=DIRECTION('',(1.,0.,0.));
#229=DIRECTION('',(0.,-1.,0.));
#230=DIRECTION('',(-1.,0.,0.));
#231=CARTESIAN_POINT('',(0.,0.,0.));
#232=CARTESIAN_POINT('',(0.,0.007,-2.4492935982947E-19));
#233=CARTESIAN_POINT('',(0.,0.0015,-2.4492935982947E-19));
#234=CARTESIAN_POINT('',(0.004,0.0015,-2.4492935982947E-19));
#235=CARTESIAN_POINT('',(0.,0.0055,-2.4492935982947E-19));
#236=CARTESIAN_POINT('',(0.004,0.0055,-2.4492935982947E-19));
#237=CARTESIAN_POINT('',(0.,0.007,-6.73555739531044E-19));
#238=CARTESIAN_POINT('',(0.,0.0015,-6.73555739531044E-19));
#239=CARTESIAN_POINT('',(0.011,0.0015,-6.73555739531044E-19));
#240=CARTESIAN_POINT('',(0.,0.0055,-6.73555739531044E-19));
#241=CARTESIAN_POINT('',(0.011,0.0055,-6.73555739531044E-19));
#242=CARTESIAN_POINT('',(0.,0.0015,-6.73555739531044E-19));
#243=CARTESIAN_POINT('',(0.,0.000200961894323366,-6.73555739531044E-19));
#244=CARTESIAN_POINT('',(0.01025,0.000200961894323366,-6.73555739531044E-19));
#245=CARTESIAN_POINT('',(0.,0.0015,-2.4492935982947E-19));
#246=CARTESIAN_POINT('',(0.,0.000200961894323337,-2.4492935982947E-19));
#247=CARTESIAN_POINT('',(0.00475,0.000200961894323337,-2.4492935982947E-19));
#248=CARTESIAN_POINT('',(0.,0.0055,-6.73555739531044E-19));
#249=CARTESIAN_POINT('',(0.,0.00679903810567669,-6.73555739531044E-19));
#250=CARTESIAN_POINT('',(-0.01025,0.00679903810567669,-6.73555739531044E-19));
#251=CARTESIAN_POINT('',(0.,0.0055,-2.4492935982947E-19));
#252=CARTESIAN_POINT('',(0.,0.00679903810567666,-2.4492935982947E-19));
#253=CARTESIAN_POINT('',(-0.00475,0.00679903810567666,-2.4492935982947E-19));
#254=CARTESIAN_POINT('',(0.,0.0065,0.));
#255=CARTESIAN_POINT('',(0.,0.0065,-2.4492935982947E-19));
#256=CARTESIAN_POINT('',(0.00548171652200114,0.0065,-2.4492935982947E-19));
#257=CARTESIAN_POINT('',(0.,0.0065,-6.73555739531044E-19));
#258=CARTESIAN_POINT('',(-0.00951828347799886,0.0065,-6.73555739531044E-19));
#259=CARTESIAN_POINT('',(0.,0.00636602540378444,-6.73555739531044E-19));
#260=CARTESIAN_POINT('',(0.,0.00636602540378444,-2.4492935982947E-19));
#261=CARTESIAN_POINT('',(0.,0.0005,0.));
#262=CARTESIAN_POINT('',(0.,0.0005,-2.4492935982947E-19));
#263=CARTESIAN_POINT('',(-0.00548171652200114,0.0005,-2.4492935982947E-19));
#264=CARTESIAN_POINT('',(0.,0.0005,-6.73555739531044E-19));
#265=CARTESIAN_POINT('',(0.00951828347799886,0.0005,-6.73555739531044E-19));
#266=CARTESIAN_POINT('',(0.,0.000633974596215562,-6.73555739531044E-19));
#267=CARTESIAN_POINT('',(0.,0.000633974596215562,-2.4492935982947E-19));
#268=MECHANICAL_DESIGN_GEOMETRIC_PRESENTATION_REPRESENTATION('',(#145),
#269);
#269=(
GEOMETRIC_REPRESENTATION_CONTEXT(3)
GLOBAL_UNCERTAINTY_ASSIGNED_CONTEXT((#270))
GLOBAL_UNIT_ASSIGNED_CONTEXT((#273,#272,#271))
REPRESENTATION_CONTEXT('608ZZ Bearing','TOP_LEVEL_ASSEMBLY_PART')
);
#270=UNCERTAINTY_MEASURE_WITH_UNIT(LENGTH_MEASURE(1.E-8),#273,
'DISTANCE_ACCURACY_VALUE','Maximum Tolerance applied to model');
#271=(
NAMED_UNIT(*)
SI_UNIT($,.STERADIAN.)
SOLID_ANGLE_UNIT()
);
#272=(
NAMED_UNIT(*)
PLANE_ANGLE_UNIT()
SI_UNIT($,.RADIAN.)
);
#273=(
LENGTH_UNIT()
NAMED_UNIT(*)
SI_UNIT($,.METRE.)
);
#274=PRODUCT_DEFINITION_SHAPE('','',#275);
#275=PRODUCT_DEFINITION('','',#277,#276);
#276=PRODUCT_DEFINITION_CONTEXT('',#283,'design');
#277=PRODUCT_DEFINITION_FORMATION_WITH_SPECIFIED_SOURCE('','',#279,
 .NOT_KNOWN.);
#278=PRODUCT_RELATED_PRODUCT_CATEGORY('','',(#279));
#279=PRODUCT('608ZZ Bearing','608ZZ Bearing','608ZZ Bearing',(#281));
#280=PRODUCT_CATEGORY('','');
#281=PRODUCT_CONTEXT('',#283,'mechanical');
#282=APPLICATION_PROTOCOL_DEFINITION('international standard',
'ap242_managed_model_based_3d_engineering',2020,#283);
#283=APPLICATION_CONTEXT('managed model based 3d engineering');
ENDSEC;
END-ISO-10303-21;
