%TF.GenerationSoftware,KiCad,Pcbnew,10.0.0*%
%TF.CreationDate,2026-06-20T17:04:25-04:00*%
%TF.ProjectId,DJ but to separate PCBs,444a2062-7574-4207-946f-207365706172,rev?*%
%TF.SameCoordinates,Original*%
%TF.FileFunction,Legend,Top*%
%TF.FilePolarity,Positive*%
%FSLAX46Y46*%
G04 Gerber Fmt 4.6, Leading zero omitted, Abs format (unit mm)*
G04 Created by KiCad (PCBNEW 10.0.0) date 2026-06-20 17:04:25*
%MOMM*%
%LPD*%
G01*
G04 APERTURE LIST*
%ADD10C,0.100000*%
G04 APERTURE END LIST*
D10*
X19847976Y-26369800D02*
X19990833Y-26417419D01*
X19990833Y-26417419D02*
X20228928Y-26417419D01*
X20228928Y-26417419D02*
X20324166Y-26369800D01*
X20324166Y-26369800D02*
X20371785Y-26322180D01*
X20371785Y-26322180D02*
X20419404Y-26226942D01*
X20419404Y-26226942D02*
X20419404Y-26131704D01*
X20419404Y-26131704D02*
X20371785Y-26036466D01*
X20371785Y-26036466D02*
X20324166Y-25988847D01*
X20324166Y-25988847D02*
X20228928Y-25941228D01*
X20228928Y-25941228D02*
X20038452Y-25893609D01*
X20038452Y-25893609D02*
X19943214Y-25845990D01*
X19943214Y-25845990D02*
X19895595Y-25798371D01*
X19895595Y-25798371D02*
X19847976Y-25703133D01*
X19847976Y-25703133D02*
X19847976Y-25607895D01*
X19847976Y-25607895D02*
X19895595Y-25512657D01*
X19895595Y-25512657D02*
X19943214Y-25465038D01*
X19943214Y-25465038D02*
X20038452Y-25417419D01*
X20038452Y-25417419D02*
X20276547Y-25417419D01*
X20276547Y-25417419D02*
X20419404Y-25465038D01*
X20752738Y-25417419D02*
X20990833Y-26417419D01*
X20990833Y-26417419D02*
X21181309Y-25703133D01*
X21181309Y-25703133D02*
X21371785Y-26417419D01*
X21371785Y-26417419D02*
X21609881Y-25417419D01*
X21895595Y-25417419D02*
X22514642Y-25417419D01*
X22514642Y-25417419D02*
X22181309Y-25798371D01*
X22181309Y-25798371D02*
X22324166Y-25798371D01*
X22324166Y-25798371D02*
X22419404Y-25845990D01*
X22419404Y-25845990D02*
X22467023Y-25893609D01*
X22467023Y-25893609D02*
X22514642Y-25988847D01*
X22514642Y-25988847D02*
X22514642Y-26226942D01*
X22514642Y-26226942D02*
X22467023Y-26322180D01*
X22467023Y-26322180D02*
X22419404Y-26369800D01*
X22419404Y-26369800D02*
X22324166Y-26417419D01*
X22324166Y-26417419D02*
X22038452Y-26417419D01*
X22038452Y-26417419D02*
X21943214Y-26369800D01*
X21943214Y-26369800D02*
X21895595Y-26322180D01*
X23086071Y-25845990D02*
X22990833Y-25798371D01*
X22990833Y-25798371D02*
X22943214Y-25750752D01*
X22943214Y-25750752D02*
X22895595Y-25655514D01*
X22895595Y-25655514D02*
X22895595Y-25607895D01*
X22895595Y-25607895D02*
X22943214Y-25512657D01*
X22943214Y-25512657D02*
X22990833Y-25465038D01*
X22990833Y-25465038D02*
X23086071Y-25417419D01*
X23086071Y-25417419D02*
X23276547Y-25417419D01*
X23276547Y-25417419D02*
X23371785Y-25465038D01*
X23371785Y-25465038D02*
X23419404Y-25512657D01*
X23419404Y-25512657D02*
X23467023Y-25607895D01*
X23467023Y-25607895D02*
X23467023Y-25655514D01*
X23467023Y-25655514D02*
X23419404Y-25750752D01*
X23419404Y-25750752D02*
X23371785Y-25798371D01*
X23371785Y-25798371D02*
X23276547Y-25845990D01*
X23276547Y-25845990D02*
X23086071Y-25845990D01*
X23086071Y-25845990D02*
X22990833Y-25893609D01*
X22990833Y-25893609D02*
X22943214Y-25941228D01*
X22943214Y-25941228D02*
X22895595Y-26036466D01*
X22895595Y-26036466D02*
X22895595Y-26226942D01*
X22895595Y-26226942D02*
X22943214Y-26322180D01*
X22943214Y-26322180D02*
X22990833Y-26369800D01*
X22990833Y-26369800D02*
X23086071Y-26417419D01*
X23086071Y-26417419D02*
X23276547Y-26417419D01*
X23276547Y-26417419D02*
X23371785Y-26369800D01*
X23371785Y-26369800D02*
X23419404Y-26322180D01*
X23419404Y-26322180D02*
X23467023Y-26226942D01*
X23467023Y-26226942D02*
X23467023Y-26036466D01*
X23467023Y-26036466D02*
X23419404Y-25941228D01*
X23419404Y-25941228D02*
X23371785Y-25893609D01*
X23371785Y-25893609D02*
X23276547Y-25845990D01*
X38440476Y-24159800D02*
X38583333Y-24207419D01*
X38583333Y-24207419D02*
X38821428Y-24207419D01*
X38821428Y-24207419D02*
X38916666Y-24159800D01*
X38916666Y-24159800D02*
X38964285Y-24112180D01*
X38964285Y-24112180D02*
X39011904Y-24016942D01*
X39011904Y-24016942D02*
X39011904Y-23921704D01*
X39011904Y-23921704D02*
X38964285Y-23826466D01*
X38964285Y-23826466D02*
X38916666Y-23778847D01*
X38916666Y-23778847D02*
X38821428Y-23731228D01*
X38821428Y-23731228D02*
X38630952Y-23683609D01*
X38630952Y-23683609D02*
X38535714Y-23635990D01*
X38535714Y-23635990D02*
X38488095Y-23588371D01*
X38488095Y-23588371D02*
X38440476Y-23493133D01*
X38440476Y-23493133D02*
X38440476Y-23397895D01*
X38440476Y-23397895D02*
X38488095Y-23302657D01*
X38488095Y-23302657D02*
X38535714Y-23255038D01*
X38535714Y-23255038D02*
X38630952Y-23207419D01*
X38630952Y-23207419D02*
X38869047Y-23207419D01*
X38869047Y-23207419D02*
X39011904Y-23255038D01*
X39345238Y-23207419D02*
X39583333Y-24207419D01*
X39583333Y-24207419D02*
X39773809Y-23493133D01*
X39773809Y-23493133D02*
X39964285Y-24207419D01*
X39964285Y-24207419D02*
X40202381Y-23207419D01*
X40488095Y-23207419D02*
X41107142Y-23207419D01*
X41107142Y-23207419D02*
X40773809Y-23588371D01*
X40773809Y-23588371D02*
X40916666Y-23588371D01*
X40916666Y-23588371D02*
X41011904Y-23635990D01*
X41011904Y-23635990D02*
X41059523Y-23683609D01*
X41059523Y-23683609D02*
X41107142Y-23778847D01*
X41107142Y-23778847D02*
X41107142Y-24016942D01*
X41107142Y-24016942D02*
X41059523Y-24112180D01*
X41059523Y-24112180D02*
X41011904Y-24159800D01*
X41011904Y-24159800D02*
X40916666Y-24207419D01*
X40916666Y-24207419D02*
X40630952Y-24207419D01*
X40630952Y-24207419D02*
X40535714Y-24159800D01*
X40535714Y-24159800D02*
X40488095Y-24112180D01*
X42059523Y-24207419D02*
X41488095Y-24207419D01*
X41773809Y-24207419D02*
X41773809Y-23207419D01*
X41773809Y-23207419D02*
X41678571Y-23350276D01*
X41678571Y-23350276D02*
X41583333Y-23445514D01*
X41583333Y-23445514D02*
X41488095Y-23493133D01*
%TO.C,SW38*%
X15750000Y-21000000D02*
X27750000Y-21000000D01*
X27750000Y-26500000D01*
X15750000Y-26500000D01*
X15750000Y-21000000D01*
%TO.C,SW31*%
X34250000Y-17750000D02*
X46250000Y-17750000D01*
X46250000Y-29750000D01*
X34250000Y-29750000D01*
X34250000Y-17750000D01*
%TD*%
M02*
