%TF.GenerationSoftware,KiCad,Pcbnew,10.0.0*%
%TF.CreationDate,2026-06-20T17:04:25-04:00*%
%TF.ProjectId,DJ but to separate PCBs,444a2062-7574-4207-946f-207365706172,rev?*%
%TF.SameCoordinates,Original*%
%TF.FileFunction,Copper,L1,Top*%
%TF.FilePolarity,Positive*%
%FSLAX46Y46*%
G04 Gerber Fmt 4.6, Leading zero omitted, Abs format (unit mm)*
G04 Created by KiCad (PCBNEW 10.0.0) date 2026-06-20 17:04:25*
%MOMM*%
%LPD*%
G01*
G04 APERTURE LIST*
%TA.AperFunction,ComponentPad*%
%ADD10C,2.000000*%
%TD*%
%TA.AperFunction,Conductor*%
%ADD11C,0.300000*%
%TD*%
G04 APERTURE END LIST*
D10*
%TO.P,R48,1*%
%TO.N,+3.3V*%
X25950000Y-35000000D03*
%TO.P,R48,2*%
%TO.N,Net-(R48-Pad2)*%
X34550000Y-35000000D03*
%TD*%
%TO.P,R47,1*%
%TO.N,Net-(R47-Pad1)*%
X37700000Y-35000000D03*
%TO.P,R47,2*%
%TO.N,+3.3V*%
X46300000Y-35000000D03*
%TD*%
%TO.P,SW38,1,A_1*%
%TO.N,/Performance Pads I2C/Deck Select 1*%
X18750000Y-23750000D03*
%TO.P,SW38,2,B_2*%
%TO.N,GND*%
X21750000Y-23750000D03*
%TO.P,SW38,3,C_3*%
%TO.N,/Performance Pads I2C/Deck Select 3*%
X24750000Y-23750000D03*
%TD*%
%TO.P,R18,1*%
%TO.N,+3.3V*%
X30250000Y-12950000D03*
%TO.P,R18,2*%
%TO.N,/Performance Pads I2C/Deck Select 3*%
X30250000Y-21550000D03*
%TD*%
%TO.P,SW31,A,A_A*%
%TO.N,Net-(R48-Pad2)*%
X37750000Y-31250000D03*
%TO.P,SW31,B,B_B*%
%TO.N,Net-(R47-Pad1)*%
X42750000Y-31250000D03*
%TO.P,SW31,C,C_C*%
%TO.N,GND*%
X40250000Y-31250000D03*
%TO.P,SW31,S1,S1_S1*%
X37750000Y-16750000D03*
%TO.P,SW31,S2,S2_S2*%
%TO.N,Net-(R43-Pad2)*%
X42750000Y-16750000D03*
%TD*%
%TO.P,R17,1*%
%TO.N,+3.3V*%
X26250000Y-29250000D03*
%TO.P,R17,2*%
%TO.N,/Performance Pads I2C/Deck Select 1*%
X17650000Y-29250000D03*
%TD*%
%TO.P,R43,1*%
%TO.N,+3.3V*%
X34200000Y-13000000D03*
%TO.P,R43,2*%
%TO.N,Net-(R43-Pad2)*%
X42800000Y-13000000D03*
%TD*%
%TO.N,/Performance Pads I2C/Deck Select 1*%
D11*
X18750000Y-23750000D02*
X17650000Y-24850000D01*
%TO.N,Net-(R47-Pad1)*%
X41750000Y-35000000D02*
X37700000Y-35000000D01*
%TO.N,+3.3V*%
X43500000Y-20750000D02*
X40250000Y-17500000D01*
%TO.N,Net-(R47-Pad1)*%
X42750000Y-34000000D02*
X41750000Y-35000000D01*
%TO.N,+3.3V*%
X43500000Y-27250000D02*
X43500000Y-20750000D01*
%TO.N,GND*%
X24500000Y-26500000D02*
X37750000Y-26500000D01*
%TO.N,Net-(R48-Pad2)*%
X35750000Y-31250000D02*
X37750000Y-31250000D01*
%TO.N,/Performance Pads I2C/Deck Select 3*%
X26950000Y-21550000D02*
X30250000Y-21550000D01*
%TO.N,+3.3V*%
X27600000Y-36650000D02*
X44650000Y-36650000D01*
%TO.N,Net-(R43-Pad2)*%
X42750000Y-16750000D02*
X42750000Y-13050000D01*
%TO.N,+3.3V*%
X40250000Y-15250000D02*
X38000000Y-13000000D01*
X26250000Y-29250000D02*
X26250000Y-34700000D01*
%TO.N,Net-(R47-Pad1)*%
X42750000Y-31250000D02*
X42750000Y-34000000D01*
%TO.N,/Performance Pads I2C/Deck Select 3*%
X24750000Y-23750000D02*
X26950000Y-21550000D01*
%TO.N,GND*%
X37750000Y-26500000D02*
X40250000Y-29000000D01*
X21750000Y-23750000D02*
X24500000Y-26500000D01*
%TO.N,Net-(R48-Pad2)*%
X34550000Y-35000000D02*
X34550000Y-32450000D01*
%TO.N,+3.3V*%
X26250000Y-34700000D02*
X25950000Y-35000000D01*
%TO.N,Net-(R43-Pad2)*%
X42750000Y-13050000D02*
X42800000Y-13000000D01*
%TO.N,+3.3V*%
X46300000Y-35000000D02*
X46300000Y-30050000D01*
X34150000Y-12950000D02*
X34200000Y-13000000D01*
%TO.N,GND*%
X40250000Y-29000000D02*
X40250000Y-31250000D01*
%TO.N,+3.3V*%
X25950000Y-35000000D02*
X27600000Y-36650000D01*
X38000000Y-13000000D02*
X34200000Y-13000000D01*
%TO.N,GND*%
X37750000Y-16750000D02*
X40250000Y-19250000D01*
%TO.N,/Performance Pads I2C/Deck Select 1*%
X17650000Y-24850000D02*
X17650000Y-29250000D01*
%TO.N,Net-(R48-Pad2)*%
X34550000Y-32450000D02*
X35750000Y-31250000D01*
%TO.N,+3.3V*%
X44650000Y-36650000D02*
X46300000Y-35000000D01*
X30250000Y-12950000D02*
X34150000Y-12950000D01*
%TO.N,GND*%
X40250000Y-19250000D02*
X40250000Y-29000000D01*
%TO.N,+3.3V*%
X46300000Y-30050000D02*
X43500000Y-27250000D01*
X40250000Y-17500000D02*
X40250000Y-15250000D01*
%TD*%
M02*
