%TF.GenerationSoftware,KiCad,Pcbnew,10.0.0*%
%TF.CreationDate,2026-06-20T17:04:25-04:00*%
%TF.ProjectId,DJ but to separate PCBs,444a2062-7574-4207-946f-207365706172,rev?*%
%TF.SameCoordinates,Original*%
%TF.FileFunction,Copper,L2,Bot*%
%TF.FilePolarity,Positive*%
%FSLAX46Y46*%
G04 Gerber Fmt 4.6, Leading zero omitted, Abs format (unit mm)*
G04 Created by KiCad (PCBNEW 10.0.0) date 2026-06-20 17:04:25*
%MOMM*%
%LPD*%
G01*
G04 APERTURE LIST*
G04 Aperture macros list*
%AMRoundRect*
0 Rectangle with rounded corners*
0 $1 Rounding radius*
0 $2 $3 $4 $5 $6 $7 $8 $9 X,Y pos of 4 corners*
0 Add a 4 corners polygon primitive as box body*
4,1,4,$2,$3,$4,$5,$6,$7,$8,$9,$2,$3,0*
0 Add four circle primitives for the rounded corners*
1,1,$1+$1,$2,$3*
1,1,$1+$1,$4,$5*
1,1,$1+$1,$6,$7*
1,1,$1+$1,$8,$9*
0 Add four rect primitives between the rounded corners*
20,1,$1+$1,$2,$3,$4,$5,0*
20,1,$1+$1,$4,$5,$6,$7,0*
20,1,$1+$1,$6,$7,$8,$9,0*
20,1,$1+$1,$8,$9,$2,$3,0*%
G04 Aperture macros list end*
%TA.AperFunction,ComponentPad*%
%ADD10C,2.000000*%
%TD*%
%TA.AperFunction,SMDPad,CuDef*%
%ADD11RoundRect,0.500000X1.500000X-0.500000X1.500000X0.500000X-1.500000X0.500000X-1.500000X-0.500000X0*%
%TD*%
%TA.AperFunction,SMDPad,CuDef*%
%ADD12RoundRect,0.500000X0.500000X1.500000X-0.500000X1.500000X-0.500000X-1.500000X0.500000X-1.500000X0*%
%TD*%
%TA.AperFunction,Conductor*%
%ADD13C,0.300000*%
%TD*%
G04 APERTURE END LIST*
D10*
%TO.P,R48,1*%
%TO.N,+3.3V*%
X25950000Y-35000000D03*
%TO.P,R48,2*%
%TO.N,Net-(R48-Pad2)*%
X34550000Y-35000000D03*
%TD*%
D11*
%TO.P,REA2,1*%
%TO.N,Net-(R48-Pad2)*%
X49500000Y-22500000D03*
%TD*%
D10*
%TO.P,R47,1*%
%TO.N,Net-(R47-Pad1)*%
X37700000Y-35000000D03*
%TO.P,R47,2*%
%TO.N,+3.3V*%
X46300000Y-35000000D03*
%TD*%
D12*
%TO.P,DSSW3,1*%
%TO.N,/Performance Pads I2C/Deck Select 3*%
X25200000Y-19000000D03*
%TD*%
D10*
%TO.P,SW38,1,A_1*%
%TO.N,/Performance Pads I2C/Deck Select 1*%
X18750000Y-23750000D03*
%TO.P,SW38,2,B_2*%
%TO.N,GND*%
X21750000Y-23750000D03*
%TO.P,SW38,3,C_3*%
%TO.N,/Performance Pads I2C/Deck Select 3*%
X24750000Y-23750000D03*
%TD*%
D12*
%TO.P,GND8,1*%
%TO.N,GND*%
X21700000Y-19000000D03*
%TD*%
D10*
%TO.P,R18,1*%
%TO.N,+3.3V*%
X30250000Y-12950000D03*
%TO.P,R18,2*%
%TO.N,/Performance Pads I2C/Deck Select 3*%
X30250000Y-21550000D03*
%TD*%
D11*
%TO.P,RESW2,1*%
%TO.N,Net-(R43-Pad2)*%
X49500000Y-19500000D03*
%TD*%
D10*
%TO.P,SW31,A,A_A*%
%TO.N,Net-(R48-Pad2)*%
X37750000Y-31250000D03*
%TO.P,SW31,B,B_B*%
%TO.N,Net-(R47-Pad1)*%
X42750000Y-31250000D03*
%TO.P,SW31,C,C_C*%
%TO.N,GND*%
X40250000Y-31250000D03*
%TO.P,SW31,S1,S1_S1*%
X37750000Y-16750000D03*
%TO.P,SW31,S2,S2_S2*%
%TO.N,Net-(R43-Pad2)*%
X42750000Y-16750000D03*
%TD*%
D11*
%TO.P,VCC4,1*%
%TO.N,+3.3V*%
X49500000Y-28500000D03*
%TD*%
D10*
%TO.P,R17,1*%
%TO.N,+3.3V*%
X26250000Y-29250000D03*
%TO.P,R17,2*%
%TO.N,/Performance Pads I2C/Deck Select 1*%
X17650000Y-29250000D03*
%TD*%
D12*
%TO.P,DSSW1,1*%
%TO.N,/Performance Pads I2C/Deck Select 1*%
X18200000Y-19000000D03*
%TD*%
D11*
%TO.P,REB2,1*%
%TO.N,Net-(R47-Pad1)*%
X49500000Y-25500000D03*
%TD*%
D10*
%TO.P,R43,1*%
%TO.N,+3.3V*%
X34200000Y-13000000D03*
%TO.P,R43,2*%
%TO.N,Net-(R43-Pad2)*%
X42800000Y-13000000D03*
%TD*%
%TO.N,GND*%
D13*
X21700000Y-19000000D02*
X21700000Y-23700000D01*
%TO.N,/Performance Pads I2C/Deck Select 3*%
X27750000Y-21550000D02*
X30250000Y-21550000D01*
%TO.N,Net-(R48-Pad2)*%
X47750000Y-22500000D02*
X46250000Y-21000000D01*
%TO.N,+3.3V*%
X46300000Y-31700000D02*
X46300000Y-35000000D01*
%TO.N,Net-(R47-Pad1)*%
X49500000Y-25500000D02*
X48500000Y-25500000D01*
%TO.N,Net-(R43-Pad2)*%
X45500000Y-19500000D02*
X42750000Y-16750000D01*
%TO.N,/Performance Pads I2C/Deck Select 1*%
X18200000Y-23200000D02*
X18750000Y-23750000D01*
X18200000Y-19000000D02*
X18200000Y-23200000D01*
%TO.N,/Performance Pads I2C/Deck Select 3*%
X25200000Y-19000000D02*
X27750000Y-21550000D01*
%TO.N,Net-(R48-Pad2)*%
X49500000Y-22500000D02*
X47750000Y-22500000D01*
X43250000Y-21000000D02*
X37750000Y-26500000D01*
%TO.N,Net-(R43-Pad2)*%
X49500000Y-19500000D02*
X45500000Y-19500000D01*
%TO.N,Net-(R48-Pad2)*%
X46250000Y-21000000D02*
X43250000Y-21000000D01*
%TO.N,GND*%
X21700000Y-23700000D02*
X21750000Y-23750000D01*
%TO.N,+3.3V*%
X49500000Y-28500000D02*
X46300000Y-31700000D01*
%TO.N,Net-(R48-Pad2)*%
X37750000Y-26500000D02*
X37750000Y-31250000D01*
%TO.N,Net-(R47-Pad1)*%
X48500000Y-25500000D02*
X42750000Y-31250000D01*
%TD*%
M02*
