%TF.GenerationSoftware,KiCad,Pcbnew,10.0.0*%
%TF.CreationDate,2026-06-20T17:04:25-04:00*%
%TF.ProjectId,DJ but to separate PCBs,444a2062-7574-4207-946f-207365706172,rev?*%
%TF.SameCoordinates,Original*%
%TF.FileFunction,Legend,Bot*%
%TF.FilePolarity,Positive*%
%FSLAX46Y46*%
G04 Gerber Fmt 4.6, Leading zero omitted, Abs format (unit mm)*
G04 Created by KiCad (PCBNEW 10.0.0) date 2026-06-20 17:04:25*
%MOMM*%
%LPD*%
G01*
G04 APERTURE LIST*
%ADD10C,0.100000*%
%ADD11C,0.150000*%
G04 APERTURE END LIST*
D10*
X29607142Y-34542580D02*
X29273809Y-35018771D01*
X29035714Y-34542580D02*
X29035714Y-35542580D01*
X29035714Y-35542580D02*
X29416666Y-35542580D01*
X29416666Y-35542580D02*
X29511904Y-35494961D01*
X29511904Y-35494961D02*
X29559523Y-35447342D01*
X29559523Y-35447342D02*
X29607142Y-35352104D01*
X29607142Y-35352104D02*
X29607142Y-35209247D01*
X29607142Y-35209247D02*
X29559523Y-35114009D01*
X29559523Y-35114009D02*
X29511904Y-35066390D01*
X29511904Y-35066390D02*
X29416666Y-35018771D01*
X29416666Y-35018771D02*
X29035714Y-35018771D01*
X30464285Y-35209247D02*
X30464285Y-34542580D01*
X30226190Y-35590200D02*
X29988095Y-34875914D01*
X29988095Y-34875914D02*
X30607142Y-34875914D01*
X31130952Y-35114009D02*
X31035714Y-35161628D01*
X31035714Y-35161628D02*
X30988095Y-35209247D01*
X30988095Y-35209247D02*
X30940476Y-35304485D01*
X30940476Y-35304485D02*
X30940476Y-35352104D01*
X30940476Y-35352104D02*
X30988095Y-35447342D01*
X30988095Y-35447342D02*
X31035714Y-35494961D01*
X31035714Y-35494961D02*
X31130952Y-35542580D01*
X31130952Y-35542580D02*
X31321428Y-35542580D01*
X31321428Y-35542580D02*
X31416666Y-35494961D01*
X31416666Y-35494961D02*
X31464285Y-35447342D01*
X31464285Y-35447342D02*
X31511904Y-35352104D01*
X31511904Y-35352104D02*
X31511904Y-35304485D01*
X31511904Y-35304485D02*
X31464285Y-35209247D01*
X31464285Y-35209247D02*
X31416666Y-35161628D01*
X31416666Y-35161628D02*
X31321428Y-35114009D01*
X31321428Y-35114009D02*
X31130952Y-35114009D01*
X31130952Y-35114009D02*
X31035714Y-35066390D01*
X31035714Y-35066390D02*
X30988095Y-35018771D01*
X30988095Y-35018771D02*
X30940476Y-34923533D01*
X30940476Y-34923533D02*
X30940476Y-34733057D01*
X30940476Y-34733057D02*
X30988095Y-34637819D01*
X30988095Y-34637819D02*
X31035714Y-34590200D01*
X31035714Y-34590200D02*
X31130952Y-34542580D01*
X31130952Y-34542580D02*
X31321428Y-34542580D01*
X31321428Y-34542580D02*
X31416666Y-34590200D01*
X31416666Y-34590200D02*
X31464285Y-34637819D01*
X31464285Y-34637819D02*
X31511904Y-34733057D01*
X31511904Y-34733057D02*
X31511904Y-34923533D01*
X31511904Y-34923533D02*
X31464285Y-35018771D01*
X31464285Y-35018771D02*
X31416666Y-35066390D01*
X31416666Y-35066390D02*
X31321428Y-35114009D01*
D11*
X54404819Y-21452380D02*
X53928628Y-21119047D01*
X54404819Y-20880952D02*
X53404819Y-20880952D01*
X53404819Y-20880952D02*
X53404819Y-21261904D01*
X53404819Y-21261904D02*
X53452438Y-21357142D01*
X53452438Y-21357142D02*
X53500057Y-21404761D01*
X53500057Y-21404761D02*
X53595295Y-21452380D01*
X53595295Y-21452380D02*
X53738152Y-21452380D01*
X53738152Y-21452380D02*
X53833390Y-21404761D01*
X53833390Y-21404761D02*
X53881009Y-21357142D01*
X53881009Y-21357142D02*
X53928628Y-21261904D01*
X53928628Y-21261904D02*
X53928628Y-20880952D01*
X53881009Y-21880952D02*
X53881009Y-22214285D01*
X54404819Y-22357142D02*
X54404819Y-21880952D01*
X54404819Y-21880952D02*
X53404819Y-21880952D01*
X53404819Y-21880952D02*
X53404819Y-22357142D01*
X54119104Y-22738095D02*
X54119104Y-23214285D01*
X54404819Y-22642857D02*
X53404819Y-22976190D01*
X53404819Y-22976190D02*
X54404819Y-23309523D01*
X53500057Y-23595238D02*
X53452438Y-23642857D01*
X53452438Y-23642857D02*
X53404819Y-23738095D01*
X53404819Y-23738095D02*
X53404819Y-23976190D01*
X53404819Y-23976190D02*
X53452438Y-24071428D01*
X53452438Y-24071428D02*
X53500057Y-24119047D01*
X53500057Y-24119047D02*
X53595295Y-24166666D01*
X53595295Y-24166666D02*
X53690533Y-24166666D01*
X53690533Y-24166666D02*
X53833390Y-24119047D01*
X53833390Y-24119047D02*
X54404819Y-23547619D01*
X54404819Y-23547619D02*
X54404819Y-24166666D01*
D10*
X41357142Y-34542580D02*
X41023809Y-35018771D01*
X40785714Y-34542580D02*
X40785714Y-35542580D01*
X40785714Y-35542580D02*
X41166666Y-35542580D01*
X41166666Y-35542580D02*
X41261904Y-35494961D01*
X41261904Y-35494961D02*
X41309523Y-35447342D01*
X41309523Y-35447342D02*
X41357142Y-35352104D01*
X41357142Y-35352104D02*
X41357142Y-35209247D01*
X41357142Y-35209247D02*
X41309523Y-35114009D01*
X41309523Y-35114009D02*
X41261904Y-35066390D01*
X41261904Y-35066390D02*
X41166666Y-35018771D01*
X41166666Y-35018771D02*
X40785714Y-35018771D01*
X42214285Y-35209247D02*
X42214285Y-34542580D01*
X41976190Y-35590200D02*
X41738095Y-34875914D01*
X41738095Y-34875914D02*
X42357142Y-34875914D01*
X42642857Y-35542580D02*
X43309523Y-35542580D01*
X43309523Y-35542580D02*
X42880952Y-34542580D01*
D11*
X25654819Y-11488095D02*
X24654819Y-11488095D01*
X24654819Y-11488095D02*
X24654819Y-11726190D01*
X24654819Y-11726190D02*
X24702438Y-11869047D01*
X24702438Y-11869047D02*
X24797676Y-11964285D01*
X24797676Y-11964285D02*
X24892914Y-12011904D01*
X24892914Y-12011904D02*
X25083390Y-12059523D01*
X25083390Y-12059523D02*
X25226247Y-12059523D01*
X25226247Y-12059523D02*
X25416723Y-12011904D01*
X25416723Y-12011904D02*
X25511961Y-11964285D01*
X25511961Y-11964285D02*
X25607200Y-11869047D01*
X25607200Y-11869047D02*
X25654819Y-11726190D01*
X25654819Y-11726190D02*
X25654819Y-11488095D01*
X25607200Y-12440476D02*
X25654819Y-12583333D01*
X25654819Y-12583333D02*
X25654819Y-12821428D01*
X25654819Y-12821428D02*
X25607200Y-12916666D01*
X25607200Y-12916666D02*
X25559580Y-12964285D01*
X25559580Y-12964285D02*
X25464342Y-13011904D01*
X25464342Y-13011904D02*
X25369104Y-13011904D01*
X25369104Y-13011904D02*
X25273866Y-12964285D01*
X25273866Y-12964285D02*
X25226247Y-12916666D01*
X25226247Y-12916666D02*
X25178628Y-12821428D01*
X25178628Y-12821428D02*
X25131009Y-12630952D01*
X25131009Y-12630952D02*
X25083390Y-12535714D01*
X25083390Y-12535714D02*
X25035771Y-12488095D01*
X25035771Y-12488095D02*
X24940533Y-12440476D01*
X24940533Y-12440476D02*
X24845295Y-12440476D01*
X24845295Y-12440476D02*
X24750057Y-12488095D01*
X24750057Y-12488095D02*
X24702438Y-12535714D01*
X24702438Y-12535714D02*
X24654819Y-12630952D01*
X24654819Y-12630952D02*
X24654819Y-12869047D01*
X24654819Y-12869047D02*
X24702438Y-13011904D01*
X25607200Y-13392857D02*
X25654819Y-13535714D01*
X25654819Y-13535714D02*
X25654819Y-13773809D01*
X25654819Y-13773809D02*
X25607200Y-13869047D01*
X25607200Y-13869047D02*
X25559580Y-13916666D01*
X25559580Y-13916666D02*
X25464342Y-13964285D01*
X25464342Y-13964285D02*
X25369104Y-13964285D01*
X25369104Y-13964285D02*
X25273866Y-13916666D01*
X25273866Y-13916666D02*
X25226247Y-13869047D01*
X25226247Y-13869047D02*
X25178628Y-13773809D01*
X25178628Y-13773809D02*
X25131009Y-13583333D01*
X25131009Y-13583333D02*
X25083390Y-13488095D01*
X25083390Y-13488095D02*
X25035771Y-13440476D01*
X25035771Y-13440476D02*
X24940533Y-13392857D01*
X24940533Y-13392857D02*
X24845295Y-13392857D01*
X24845295Y-13392857D02*
X24750057Y-13440476D01*
X24750057Y-13440476D02*
X24702438Y-13488095D01*
X24702438Y-13488095D02*
X24654819Y-13583333D01*
X24654819Y-13583333D02*
X24654819Y-13821428D01*
X24654819Y-13821428D02*
X24702438Y-13964285D01*
X24654819Y-14297619D02*
X25654819Y-14535714D01*
X25654819Y-14535714D02*
X24940533Y-14726190D01*
X24940533Y-14726190D02*
X25654819Y-14916666D01*
X25654819Y-14916666D02*
X24654819Y-15154762D01*
X24654819Y-15440476D02*
X24654819Y-16059523D01*
X24654819Y-16059523D02*
X25035771Y-15726190D01*
X25035771Y-15726190D02*
X25035771Y-15869047D01*
X25035771Y-15869047D02*
X25083390Y-15964285D01*
X25083390Y-15964285D02*
X25131009Y-16011904D01*
X25131009Y-16011904D02*
X25226247Y-16059523D01*
X25226247Y-16059523D02*
X25464342Y-16059523D01*
X25464342Y-16059523D02*
X25559580Y-16011904D01*
X25559580Y-16011904D02*
X25607200Y-15964285D01*
X25607200Y-15964285D02*
X25654819Y-15869047D01*
X25654819Y-15869047D02*
X25654819Y-15583333D01*
X25654819Y-15583333D02*
X25607200Y-15488095D01*
X25607200Y-15488095D02*
X25559580Y-15440476D01*
X21202438Y-13011904D02*
X21154819Y-12916666D01*
X21154819Y-12916666D02*
X21154819Y-12773809D01*
X21154819Y-12773809D02*
X21202438Y-12630952D01*
X21202438Y-12630952D02*
X21297676Y-12535714D01*
X21297676Y-12535714D02*
X21392914Y-12488095D01*
X21392914Y-12488095D02*
X21583390Y-12440476D01*
X21583390Y-12440476D02*
X21726247Y-12440476D01*
X21726247Y-12440476D02*
X21916723Y-12488095D01*
X21916723Y-12488095D02*
X22011961Y-12535714D01*
X22011961Y-12535714D02*
X22107200Y-12630952D01*
X22107200Y-12630952D02*
X22154819Y-12773809D01*
X22154819Y-12773809D02*
X22154819Y-12869047D01*
X22154819Y-12869047D02*
X22107200Y-13011904D01*
X22107200Y-13011904D02*
X22059580Y-13059523D01*
X22059580Y-13059523D02*
X21726247Y-13059523D01*
X21726247Y-13059523D02*
X21726247Y-12869047D01*
X22154819Y-13488095D02*
X21154819Y-13488095D01*
X21154819Y-13488095D02*
X22154819Y-14059523D01*
X22154819Y-14059523D02*
X21154819Y-14059523D01*
X22154819Y-14535714D02*
X21154819Y-14535714D01*
X21154819Y-14535714D02*
X21154819Y-14773809D01*
X21154819Y-14773809D02*
X21202438Y-14916666D01*
X21202438Y-14916666D02*
X21297676Y-15011904D01*
X21297676Y-15011904D02*
X21392914Y-15059523D01*
X21392914Y-15059523D02*
X21583390Y-15107142D01*
X21583390Y-15107142D02*
X21726247Y-15107142D01*
X21726247Y-15107142D02*
X21916723Y-15059523D01*
X21916723Y-15059523D02*
X22011961Y-15011904D01*
X22011961Y-15011904D02*
X22107200Y-14916666D01*
X22107200Y-14916666D02*
X22154819Y-14773809D01*
X22154819Y-14773809D02*
X22154819Y-14535714D01*
X21583390Y-15678571D02*
X21535771Y-15583333D01*
X21535771Y-15583333D02*
X21488152Y-15535714D01*
X21488152Y-15535714D02*
X21392914Y-15488095D01*
X21392914Y-15488095D02*
X21345295Y-15488095D01*
X21345295Y-15488095D02*
X21250057Y-15535714D01*
X21250057Y-15535714D02*
X21202438Y-15583333D01*
X21202438Y-15583333D02*
X21154819Y-15678571D01*
X21154819Y-15678571D02*
X21154819Y-15869047D01*
X21154819Y-15869047D02*
X21202438Y-15964285D01*
X21202438Y-15964285D02*
X21250057Y-16011904D01*
X21250057Y-16011904D02*
X21345295Y-16059523D01*
X21345295Y-16059523D02*
X21392914Y-16059523D01*
X21392914Y-16059523D02*
X21488152Y-16011904D01*
X21488152Y-16011904D02*
X21535771Y-15964285D01*
X21535771Y-15964285D02*
X21583390Y-15869047D01*
X21583390Y-15869047D02*
X21583390Y-15678571D01*
X21583390Y-15678571D02*
X21631009Y-15583333D01*
X21631009Y-15583333D02*
X21678628Y-15535714D01*
X21678628Y-15535714D02*
X21773866Y-15488095D01*
X21773866Y-15488095D02*
X21964342Y-15488095D01*
X21964342Y-15488095D02*
X22059580Y-15535714D01*
X22059580Y-15535714D02*
X22107200Y-15583333D01*
X22107200Y-15583333D02*
X22154819Y-15678571D01*
X22154819Y-15678571D02*
X22154819Y-15869047D01*
X22154819Y-15869047D02*
X22107200Y-15964285D01*
X22107200Y-15964285D02*
X22059580Y-16011904D01*
X22059580Y-16011904D02*
X21964342Y-16059523D01*
X21964342Y-16059523D02*
X21773866Y-16059523D01*
X21773866Y-16059523D02*
X21678628Y-16011904D01*
X21678628Y-16011904D02*
X21631009Y-15964285D01*
X21631009Y-15964285D02*
X21583390Y-15869047D01*
D10*
X30707419Y-16607142D02*
X30231228Y-16273809D01*
X30707419Y-16035714D02*
X29707419Y-16035714D01*
X29707419Y-16035714D02*
X29707419Y-16416666D01*
X29707419Y-16416666D02*
X29755038Y-16511904D01*
X29755038Y-16511904D02*
X29802657Y-16559523D01*
X29802657Y-16559523D02*
X29897895Y-16607142D01*
X29897895Y-16607142D02*
X30040752Y-16607142D01*
X30040752Y-16607142D02*
X30135990Y-16559523D01*
X30135990Y-16559523D02*
X30183609Y-16511904D01*
X30183609Y-16511904D02*
X30231228Y-16416666D01*
X30231228Y-16416666D02*
X30231228Y-16035714D01*
X30707419Y-17559523D02*
X30707419Y-16988095D01*
X30707419Y-17273809D02*
X29707419Y-17273809D01*
X29707419Y-17273809D02*
X29850276Y-17178571D01*
X29850276Y-17178571D02*
X29945514Y-17083333D01*
X29945514Y-17083333D02*
X29993133Y-16988095D01*
X30135990Y-18130952D02*
X30088371Y-18035714D01*
X30088371Y-18035714D02*
X30040752Y-17988095D01*
X30040752Y-17988095D02*
X29945514Y-17940476D01*
X29945514Y-17940476D02*
X29897895Y-17940476D01*
X29897895Y-17940476D02*
X29802657Y-17988095D01*
X29802657Y-17988095D02*
X29755038Y-18035714D01*
X29755038Y-18035714D02*
X29707419Y-18130952D01*
X29707419Y-18130952D02*
X29707419Y-18321428D01*
X29707419Y-18321428D02*
X29755038Y-18416666D01*
X29755038Y-18416666D02*
X29802657Y-18464285D01*
X29802657Y-18464285D02*
X29897895Y-18511904D01*
X29897895Y-18511904D02*
X29945514Y-18511904D01*
X29945514Y-18511904D02*
X30040752Y-18464285D01*
X30040752Y-18464285D02*
X30088371Y-18416666D01*
X30088371Y-18416666D02*
X30135990Y-18321428D01*
X30135990Y-18321428D02*
X30135990Y-18130952D01*
X30135990Y-18130952D02*
X30183609Y-18035714D01*
X30183609Y-18035714D02*
X30231228Y-17988095D01*
X30231228Y-17988095D02*
X30326466Y-17940476D01*
X30326466Y-17940476D02*
X30516942Y-17940476D01*
X30516942Y-17940476D02*
X30612180Y-17988095D01*
X30612180Y-17988095D02*
X30659800Y-18035714D01*
X30659800Y-18035714D02*
X30707419Y-18130952D01*
X30707419Y-18130952D02*
X30707419Y-18321428D01*
X30707419Y-18321428D02*
X30659800Y-18416666D01*
X30659800Y-18416666D02*
X30612180Y-18464285D01*
X30612180Y-18464285D02*
X30516942Y-18511904D01*
X30516942Y-18511904D02*
X30326466Y-18511904D01*
X30326466Y-18511904D02*
X30231228Y-18464285D01*
X30231228Y-18464285D02*
X30183609Y-18416666D01*
X30183609Y-18416666D02*
X30135990Y-18321428D01*
D11*
X53154819Y-17833333D02*
X52678628Y-17500000D01*
X53154819Y-17261905D02*
X52154819Y-17261905D01*
X52154819Y-17261905D02*
X52154819Y-17642857D01*
X52154819Y-17642857D02*
X52202438Y-17738095D01*
X52202438Y-17738095D02*
X52250057Y-17785714D01*
X52250057Y-17785714D02*
X52345295Y-17833333D01*
X52345295Y-17833333D02*
X52488152Y-17833333D01*
X52488152Y-17833333D02*
X52583390Y-17785714D01*
X52583390Y-17785714D02*
X52631009Y-17738095D01*
X52631009Y-17738095D02*
X52678628Y-17642857D01*
X52678628Y-17642857D02*
X52678628Y-17261905D01*
X52631009Y-18261905D02*
X52631009Y-18595238D01*
X53154819Y-18738095D02*
X53154819Y-18261905D01*
X53154819Y-18261905D02*
X52154819Y-18261905D01*
X52154819Y-18261905D02*
X52154819Y-18738095D01*
X53107200Y-19119048D02*
X53154819Y-19261905D01*
X53154819Y-19261905D02*
X53154819Y-19500000D01*
X53154819Y-19500000D02*
X53107200Y-19595238D01*
X53107200Y-19595238D02*
X53059580Y-19642857D01*
X53059580Y-19642857D02*
X52964342Y-19690476D01*
X52964342Y-19690476D02*
X52869104Y-19690476D01*
X52869104Y-19690476D02*
X52773866Y-19642857D01*
X52773866Y-19642857D02*
X52726247Y-19595238D01*
X52726247Y-19595238D02*
X52678628Y-19500000D01*
X52678628Y-19500000D02*
X52631009Y-19309524D01*
X52631009Y-19309524D02*
X52583390Y-19214286D01*
X52583390Y-19214286D02*
X52535771Y-19166667D01*
X52535771Y-19166667D02*
X52440533Y-19119048D01*
X52440533Y-19119048D02*
X52345295Y-19119048D01*
X52345295Y-19119048D02*
X52250057Y-19166667D01*
X52250057Y-19166667D02*
X52202438Y-19214286D01*
X52202438Y-19214286D02*
X52154819Y-19309524D01*
X52154819Y-19309524D02*
X52154819Y-19547619D01*
X52154819Y-19547619D02*
X52202438Y-19690476D01*
X52154819Y-20023810D02*
X53154819Y-20261905D01*
X53154819Y-20261905D02*
X52440533Y-20452381D01*
X52440533Y-20452381D02*
X53154819Y-20642857D01*
X53154819Y-20642857D02*
X52154819Y-20880953D01*
X52250057Y-21214286D02*
X52202438Y-21261905D01*
X52202438Y-21261905D02*
X52154819Y-21357143D01*
X52154819Y-21357143D02*
X52154819Y-21595238D01*
X52154819Y-21595238D02*
X52202438Y-21690476D01*
X52202438Y-21690476D02*
X52250057Y-21738095D01*
X52250057Y-21738095D02*
X52345295Y-21785714D01*
X52345295Y-21785714D02*
X52440533Y-21785714D01*
X52440533Y-21785714D02*
X52583390Y-21738095D01*
X52583390Y-21738095D02*
X53154819Y-21166667D01*
X53154819Y-21166667D02*
X53154819Y-21785714D01*
X53404819Y-26940476D02*
X54404819Y-27273809D01*
X54404819Y-27273809D02*
X53404819Y-27607142D01*
X54309580Y-28511904D02*
X54357200Y-28464285D01*
X54357200Y-28464285D02*
X54404819Y-28321428D01*
X54404819Y-28321428D02*
X54404819Y-28226190D01*
X54404819Y-28226190D02*
X54357200Y-28083333D01*
X54357200Y-28083333D02*
X54261961Y-27988095D01*
X54261961Y-27988095D02*
X54166723Y-27940476D01*
X54166723Y-27940476D02*
X53976247Y-27892857D01*
X53976247Y-27892857D02*
X53833390Y-27892857D01*
X53833390Y-27892857D02*
X53642914Y-27940476D01*
X53642914Y-27940476D02*
X53547676Y-27988095D01*
X53547676Y-27988095D02*
X53452438Y-28083333D01*
X53452438Y-28083333D02*
X53404819Y-28226190D01*
X53404819Y-28226190D02*
X53404819Y-28321428D01*
X53404819Y-28321428D02*
X53452438Y-28464285D01*
X53452438Y-28464285D02*
X53500057Y-28511904D01*
X54309580Y-29511904D02*
X54357200Y-29464285D01*
X54357200Y-29464285D02*
X54404819Y-29321428D01*
X54404819Y-29321428D02*
X54404819Y-29226190D01*
X54404819Y-29226190D02*
X54357200Y-29083333D01*
X54357200Y-29083333D02*
X54261961Y-28988095D01*
X54261961Y-28988095D02*
X54166723Y-28940476D01*
X54166723Y-28940476D02*
X53976247Y-28892857D01*
X53976247Y-28892857D02*
X53833390Y-28892857D01*
X53833390Y-28892857D02*
X53642914Y-28940476D01*
X53642914Y-28940476D02*
X53547676Y-28988095D01*
X53547676Y-28988095D02*
X53452438Y-29083333D01*
X53452438Y-29083333D02*
X53404819Y-29226190D01*
X53404819Y-29226190D02*
X53404819Y-29321428D01*
X53404819Y-29321428D02*
X53452438Y-29464285D01*
X53452438Y-29464285D02*
X53500057Y-29511904D01*
X53738152Y-30369047D02*
X54404819Y-30369047D01*
X53357200Y-30130952D02*
X54071485Y-29892857D01*
X54071485Y-29892857D02*
X54071485Y-30511904D01*
D10*
X22592857Y-29707419D02*
X22926190Y-29231228D01*
X23164285Y-29707419D02*
X23164285Y-28707419D01*
X23164285Y-28707419D02*
X22783333Y-28707419D01*
X22783333Y-28707419D02*
X22688095Y-28755038D01*
X22688095Y-28755038D02*
X22640476Y-28802657D01*
X22640476Y-28802657D02*
X22592857Y-28897895D01*
X22592857Y-28897895D02*
X22592857Y-29040752D01*
X22592857Y-29040752D02*
X22640476Y-29135990D01*
X22640476Y-29135990D02*
X22688095Y-29183609D01*
X22688095Y-29183609D02*
X22783333Y-29231228D01*
X22783333Y-29231228D02*
X23164285Y-29231228D01*
X21640476Y-29707419D02*
X22211904Y-29707419D01*
X21926190Y-29707419D02*
X21926190Y-28707419D01*
X21926190Y-28707419D02*
X22021428Y-28850276D01*
X22021428Y-28850276D02*
X22116666Y-28945514D01*
X22116666Y-28945514D02*
X22211904Y-28993133D01*
X21307142Y-28707419D02*
X20640476Y-28707419D01*
X20640476Y-28707419D02*
X21069047Y-29707419D01*
D11*
X18654819Y-11488095D02*
X17654819Y-11488095D01*
X17654819Y-11488095D02*
X17654819Y-11726190D01*
X17654819Y-11726190D02*
X17702438Y-11869047D01*
X17702438Y-11869047D02*
X17797676Y-11964285D01*
X17797676Y-11964285D02*
X17892914Y-12011904D01*
X17892914Y-12011904D02*
X18083390Y-12059523D01*
X18083390Y-12059523D02*
X18226247Y-12059523D01*
X18226247Y-12059523D02*
X18416723Y-12011904D01*
X18416723Y-12011904D02*
X18511961Y-11964285D01*
X18511961Y-11964285D02*
X18607200Y-11869047D01*
X18607200Y-11869047D02*
X18654819Y-11726190D01*
X18654819Y-11726190D02*
X18654819Y-11488095D01*
X18607200Y-12440476D02*
X18654819Y-12583333D01*
X18654819Y-12583333D02*
X18654819Y-12821428D01*
X18654819Y-12821428D02*
X18607200Y-12916666D01*
X18607200Y-12916666D02*
X18559580Y-12964285D01*
X18559580Y-12964285D02*
X18464342Y-13011904D01*
X18464342Y-13011904D02*
X18369104Y-13011904D01*
X18369104Y-13011904D02*
X18273866Y-12964285D01*
X18273866Y-12964285D02*
X18226247Y-12916666D01*
X18226247Y-12916666D02*
X18178628Y-12821428D01*
X18178628Y-12821428D02*
X18131009Y-12630952D01*
X18131009Y-12630952D02*
X18083390Y-12535714D01*
X18083390Y-12535714D02*
X18035771Y-12488095D01*
X18035771Y-12488095D02*
X17940533Y-12440476D01*
X17940533Y-12440476D02*
X17845295Y-12440476D01*
X17845295Y-12440476D02*
X17750057Y-12488095D01*
X17750057Y-12488095D02*
X17702438Y-12535714D01*
X17702438Y-12535714D02*
X17654819Y-12630952D01*
X17654819Y-12630952D02*
X17654819Y-12869047D01*
X17654819Y-12869047D02*
X17702438Y-13011904D01*
X18607200Y-13392857D02*
X18654819Y-13535714D01*
X18654819Y-13535714D02*
X18654819Y-13773809D01*
X18654819Y-13773809D02*
X18607200Y-13869047D01*
X18607200Y-13869047D02*
X18559580Y-13916666D01*
X18559580Y-13916666D02*
X18464342Y-13964285D01*
X18464342Y-13964285D02*
X18369104Y-13964285D01*
X18369104Y-13964285D02*
X18273866Y-13916666D01*
X18273866Y-13916666D02*
X18226247Y-13869047D01*
X18226247Y-13869047D02*
X18178628Y-13773809D01*
X18178628Y-13773809D02*
X18131009Y-13583333D01*
X18131009Y-13583333D02*
X18083390Y-13488095D01*
X18083390Y-13488095D02*
X18035771Y-13440476D01*
X18035771Y-13440476D02*
X17940533Y-13392857D01*
X17940533Y-13392857D02*
X17845295Y-13392857D01*
X17845295Y-13392857D02*
X17750057Y-13440476D01*
X17750057Y-13440476D02*
X17702438Y-13488095D01*
X17702438Y-13488095D02*
X17654819Y-13583333D01*
X17654819Y-13583333D02*
X17654819Y-13821428D01*
X17654819Y-13821428D02*
X17702438Y-13964285D01*
X17654819Y-14297619D02*
X18654819Y-14535714D01*
X18654819Y-14535714D02*
X17940533Y-14726190D01*
X17940533Y-14726190D02*
X18654819Y-14916666D01*
X18654819Y-14916666D02*
X17654819Y-15154762D01*
X18654819Y-16059523D02*
X18654819Y-15488095D01*
X18654819Y-15773809D02*
X17654819Y-15773809D01*
X17654819Y-15773809D02*
X17797676Y-15678571D01*
X17797676Y-15678571D02*
X17892914Y-15583333D01*
X17892914Y-15583333D02*
X17940533Y-15488095D01*
X53154819Y-24380952D02*
X52678628Y-24047619D01*
X53154819Y-23809524D02*
X52154819Y-23809524D01*
X52154819Y-23809524D02*
X52154819Y-24190476D01*
X52154819Y-24190476D02*
X52202438Y-24285714D01*
X52202438Y-24285714D02*
X52250057Y-24333333D01*
X52250057Y-24333333D02*
X52345295Y-24380952D01*
X52345295Y-24380952D02*
X52488152Y-24380952D01*
X52488152Y-24380952D02*
X52583390Y-24333333D01*
X52583390Y-24333333D02*
X52631009Y-24285714D01*
X52631009Y-24285714D02*
X52678628Y-24190476D01*
X52678628Y-24190476D02*
X52678628Y-23809524D01*
X52631009Y-24809524D02*
X52631009Y-25142857D01*
X53154819Y-25285714D02*
X53154819Y-24809524D01*
X53154819Y-24809524D02*
X52154819Y-24809524D01*
X52154819Y-24809524D02*
X52154819Y-25285714D01*
X52631009Y-26047619D02*
X52678628Y-26190476D01*
X52678628Y-26190476D02*
X52726247Y-26238095D01*
X52726247Y-26238095D02*
X52821485Y-26285714D01*
X52821485Y-26285714D02*
X52964342Y-26285714D01*
X52964342Y-26285714D02*
X53059580Y-26238095D01*
X53059580Y-26238095D02*
X53107200Y-26190476D01*
X53107200Y-26190476D02*
X53154819Y-26095238D01*
X53154819Y-26095238D02*
X53154819Y-25714286D01*
X53154819Y-25714286D02*
X52154819Y-25714286D01*
X52154819Y-25714286D02*
X52154819Y-26047619D01*
X52154819Y-26047619D02*
X52202438Y-26142857D01*
X52202438Y-26142857D02*
X52250057Y-26190476D01*
X52250057Y-26190476D02*
X52345295Y-26238095D01*
X52345295Y-26238095D02*
X52440533Y-26238095D01*
X52440533Y-26238095D02*
X52535771Y-26190476D01*
X52535771Y-26190476D02*
X52583390Y-26142857D01*
X52583390Y-26142857D02*
X52631009Y-26047619D01*
X52631009Y-26047619D02*
X52631009Y-25714286D01*
X52250057Y-26666667D02*
X52202438Y-26714286D01*
X52202438Y-26714286D02*
X52154819Y-26809524D01*
X52154819Y-26809524D02*
X52154819Y-27047619D01*
X52154819Y-27047619D02*
X52202438Y-27142857D01*
X52202438Y-27142857D02*
X52250057Y-27190476D01*
X52250057Y-27190476D02*
X52345295Y-27238095D01*
X52345295Y-27238095D02*
X52440533Y-27238095D01*
X52440533Y-27238095D02*
X52583390Y-27190476D01*
X52583390Y-27190476D02*
X53154819Y-26619048D01*
X53154819Y-26619048D02*
X53154819Y-27238095D01*
D10*
X37857142Y-12542580D02*
X37523809Y-13018771D01*
X37285714Y-12542580D02*
X37285714Y-13542580D01*
X37285714Y-13542580D02*
X37666666Y-13542580D01*
X37666666Y-13542580D02*
X37761904Y-13494961D01*
X37761904Y-13494961D02*
X37809523Y-13447342D01*
X37809523Y-13447342D02*
X37857142Y-13352104D01*
X37857142Y-13352104D02*
X37857142Y-13209247D01*
X37857142Y-13209247D02*
X37809523Y-13114009D01*
X37809523Y-13114009D02*
X37761904Y-13066390D01*
X37761904Y-13066390D02*
X37666666Y-13018771D01*
X37666666Y-13018771D02*
X37285714Y-13018771D01*
X38714285Y-13209247D02*
X38714285Y-12542580D01*
X38476190Y-13590200D02*
X38238095Y-12875914D01*
X38238095Y-12875914D02*
X38857142Y-12875914D01*
X39142857Y-13542580D02*
X39761904Y-13542580D01*
X39761904Y-13542580D02*
X39428571Y-13161628D01*
X39428571Y-13161628D02*
X39571428Y-13161628D01*
X39571428Y-13161628D02*
X39666666Y-13114009D01*
X39666666Y-13114009D02*
X39714285Y-13066390D01*
X39714285Y-13066390D02*
X39761904Y-12971152D01*
X39761904Y-12971152D02*
X39761904Y-12733057D01*
X39761904Y-12733057D02*
X39714285Y-12637819D01*
X39714285Y-12637819D02*
X39666666Y-12590200D01*
X39666666Y-12590200D02*
X39571428Y-12542580D01*
X39571428Y-12542580D02*
X39285714Y-12542580D01*
X39285714Y-12542580D02*
X39190476Y-12590200D01*
X39190476Y-12590200D02*
X39142857Y-12637819D01*
%TO.C,R48*%
X27100000Y-35000000D02*
X27000000Y-35000000D01*
X33400000Y-35000000D02*
X33500000Y-35000000D01*
X27100000Y-33750000D02*
X33400000Y-33750000D01*
X33400000Y-36250000D01*
X27100000Y-36250000D01*
X27100000Y-33750000D01*
%TO.C,R47*%
X38850000Y-35000000D02*
X38750000Y-35000000D01*
X45150000Y-35000000D02*
X45250000Y-35000000D01*
X38850000Y-33750000D02*
X45150000Y-33750000D01*
X45150000Y-36250000D01*
X38850000Y-36250000D01*
X38850000Y-33750000D01*
%TO.C,R18*%
X30250000Y-14100000D02*
X30250000Y-14000000D01*
X30250000Y-20400000D02*
X30250000Y-20500000D01*
X29000000Y-14100000D02*
X31500000Y-14100000D01*
X31500000Y-20400000D01*
X29000000Y-20400000D01*
X29000000Y-14100000D01*
%TO.C,R17*%
X18800000Y-29250000D02*
X18700000Y-29250000D01*
X25100000Y-29250000D02*
X25200000Y-29250000D01*
X18800000Y-28000000D02*
X25100000Y-28000000D01*
X25100000Y-30500000D01*
X18800000Y-30500000D01*
X18800000Y-28000000D01*
%TO.C,R43*%
X35350000Y-13000000D02*
X35250000Y-13000000D01*
X41650000Y-13000000D02*
X41750000Y-13000000D01*
X35350000Y-11750000D02*
X41650000Y-11750000D01*
X41650000Y-14250000D01*
X35350000Y-14250000D01*
X35350000Y-11750000D01*
%TD*%
M02*
