%TF.GenerationSoftware,KiCad,Pcbnew,10.0.0*%
%TF.CreationDate,2026-06-20T16:57:28-04:00*%
%TF.ProjectId,DJ but to separate PCBs,444a2062-7574-4207-946f-207365706172,rev?*%
%TF.SameCoordinates,Original*%
%TF.FileFunction,Copper,L1,Top*%
%TF.FilePolarity,Positive*%
%FSLAX46Y46*%
G04 Gerber Fmt 4.6, Leading zero omitted, Abs format (unit mm)*
G04 Created by KiCad (PCBNEW 10.0.0) date 2026-06-20 16:57:28*
%MOMM*%
%LPD*%
G01*
G04 APERTURE LIST*
%TA.AperFunction,ComponentPad*%
%ADD10C,2.000000*%
%TD*%
%TA.AperFunction,ComponentPad*%
%ADD11C,2.540000*%
%TD*%
%TA.AperFunction,ViaPad*%
%ADD12C,0.600000*%
%TD*%
%TA.AperFunction,Conductor*%
%ADD13C,0.300000*%
%TD*%
G04 APERTURE END LIST*
D10*
%TO.P,R19,1*%
%TO.N,/Misc Switches/CueCh3*%
X106000000Y-70200000D03*
%TO.P,R19,2*%
%TO.N,+3.3V*%
X106000000Y-78800000D03*
%TD*%
D11*
%TO.P,RV28,1,1_1*%
%TO.N,+3.3V*%
X56000000Y-141500000D03*
%TO.P,RV28,2,2_2*%
%TO.N,Net-(U7-I13)*%
X56000000Y-145000000D03*
%TO.P,RV28,3,3_3*%
%TO.N,GND*%
X114500000Y-141500000D03*
%TD*%
D10*
%TO.P,SW27,1,1_1*%
%TO.N,GND*%
X94500000Y-65500000D03*
X101000000Y-65500000D03*
%TO.P,SW27,2,2_2*%
%TO.N,/Misc Switches/CueCh3*%
X94500000Y-70000000D03*
X101000000Y-70000000D03*
%TD*%
D11*
%TO.P,RV31,1,1_1*%
%TO.N,+3.3V*%
X145250000Y-53400000D03*
%TO.P,RV31,2,2_2*%
%TO.N,Net-(U7-I4)*%
X150250000Y-53400000D03*
%TO.P,RV31,3,3_3*%
%TO.N,GND*%
X155250000Y-53400000D03*
%TD*%
%TO.P,RV30,1,1_1*%
%TO.N,+3.3V*%
X117750000Y-34400000D03*
%TO.P,RV30,2,2_2*%
%TO.N,Net-(U7-I6)*%
X122750000Y-34400000D03*
%TO.P,RV30,3,3_3*%
%TO.N,GND*%
X127750000Y-34400000D03*
%TD*%
%TO.P,RV1,1,1_1*%
%TO.N,+3.3V*%
X15250000Y-23400000D03*
%TO.P,RV1,2,2_2*%
%TO.N,Net-(U7-I10)*%
X20250000Y-23400000D03*
%TO.P,RV1,3,3_3*%
%TO.N,GND*%
X25250000Y-23400000D03*
%TD*%
%TO.P,RV25,1,1_1*%
%TO.N,+3.3V*%
X96000000Y-132000000D03*
%TO.P,RV25,2,2_2*%
%TO.N,Net-(U7-I2)*%
X99500000Y-132000000D03*
%TO.P,RV25,3,3_3*%
%TO.N,GND*%
X96000000Y-73500000D03*
%TD*%
D10*
%TO.P,C2,1*%
%TO.N,+3.3V*%
X82750000Y-69625000D03*
%TO.P,C2,2*%
%TO.N,GND*%
X87750000Y-69625000D03*
%TD*%
D11*
%TO.P,RV5,1,1_1*%
%TO.N,+3.3V*%
X15250000Y-53400000D03*
%TO.P,RV5,2,2_2*%
%TO.N,Net-(U7-I11)*%
X20250000Y-53400000D03*
%TO.P,RV5,3,3_3*%
%TO.N,GND*%
X25250000Y-53400000D03*
%TD*%
%TO.P,RV29,1,1_1*%
%TO.N,+3.3V*%
X121000000Y-132000000D03*
%TO.P,RV29,2,2_2*%
%TO.N,Net-(U7-I3)*%
X124500000Y-132000000D03*
%TO.P,RV29,3,3_3*%
%TO.N,GND*%
X121000000Y-73500000D03*
%TD*%
%TO.P,RV24,1,1_1*%
%TO.N,+3.3V*%
X67750000Y-34400000D03*
%TO.P,RV24,2,2_2*%
%TO.N,Net-(U7-I8)*%
X72750000Y-34400000D03*
%TO.P,RV24,3,3_3*%
%TO.N,GND*%
X77750000Y-34400000D03*
%TD*%
%TO.P,RV27,1,1_1*%
%TO.N,+3.3V*%
X145250000Y-23400000D03*
%TO.P,RV27,2,2_2*%
%TO.N,Net-(U7-I5)*%
X150250000Y-23400000D03*
%TO.P,RV27,3,3_3*%
%TO.N,GND*%
X155250000Y-23400000D03*
%TD*%
%TO.P,RV7,1,1_1*%
%TO.N,+3.3V*%
X71000000Y-132000000D03*
%TO.P,RV7,2,2_2*%
%TO.N,Net-(U7-I14)*%
X74500000Y-132000000D03*
%TO.P,RV7,3,3_3*%
%TO.N,GND*%
X71000000Y-73500000D03*
%TD*%
D10*
%TO.P,SW35,1,1_1*%
%TO.N,GND*%
X69500000Y-65500000D03*
X76000000Y-65500000D03*
%TO.P,SW35,2,2_2*%
%TO.N,/Performance Pads I2C/CueCh2*%
X69500000Y-70000000D03*
X76000000Y-70000000D03*
%TD*%
%TO.P,R38,1*%
%TO.N,/Performance Pads I2C/CueCh2*%
X65500000Y-70200000D03*
%TO.P,R38,2*%
%TO.N,+3.3V*%
X65500000Y-78800000D03*
%TD*%
D11*
%TO.P,RV26,1,1_1*%
%TO.N,+3.3V*%
X92750000Y-34400000D03*
%TO.P,RV26,2,2_2*%
%TO.N,Net-(U7-I7)*%
X97750000Y-34400000D03*
%TO.P,RV26,3,3_3*%
%TO.N,GND*%
X102750000Y-34400000D03*
%TD*%
D10*
%TO.P,R37,1*%
%TO.N,/Performance Pads I2C/CueCh1*%
X61500000Y-70200000D03*
%TO.P,R37,2*%
%TO.N,+3.3V*%
X61500000Y-78800000D03*
%TD*%
D11*
%TO.P,RV4,1,1_1*%
%TO.N,+3.3V*%
X42750000Y-34400000D03*
%TO.P,RV4,2,2_2*%
%TO.N,Net-(U7-I9)*%
X47750000Y-34400000D03*
%TO.P,RV4,3,3_3*%
%TO.N,GND*%
X52750000Y-34400000D03*
%TD*%
D10*
%TO.P,SW28,1,1_1*%
%TO.N,GND*%
X119500000Y-65500000D03*
X126000000Y-65500000D03*
%TO.P,SW28,2,2_2*%
%TO.N,/Misc Switches/CueCh4*%
X119500000Y-70000000D03*
X126000000Y-70000000D03*
%TD*%
%TO.P,SW29,1,1_1*%
%TO.N,GND*%
X44500000Y-65500000D03*
X51000000Y-65500000D03*
%TO.P,SW29,2,2_2*%
%TO.N,/Performance Pads I2C/CueCh1*%
X44500000Y-70000000D03*
X51000000Y-70000000D03*
%TD*%
D11*
%TO.P,RV3,1,1_1*%
%TO.N,+3.3V*%
X46000000Y-132000000D03*
%TO.P,RV3,2,2_2*%
%TO.N,Net-(U7-I12)*%
X49500000Y-132000000D03*
%TO.P,RV3,3,3_3*%
%TO.N,GND*%
X46000000Y-73500000D03*
%TD*%
D10*
%TO.P,R20,1*%
%TO.N,/Misc Switches/CueCh4*%
X110000000Y-70200000D03*
%TO.P,R20,2*%
%TO.N,+3.3V*%
X110000000Y-78800000D03*
%TD*%
D12*
%TO.N,/Performance Pads I2C/CueCh1*%
X37250000Y-38750000D03*
%TO.N,+3.3V*%
X67750000Y-42500000D03*
X27500000Y-37750000D03*
%TO.N,GND*%
X141000000Y-47500000D03*
%TO.N,/Performance Pads I2C/CueCh2*%
X64750000Y-48000000D03*
%TO.N,+3.3V*%
X52000000Y-31000000D03*
X77941752Y-49558248D03*
%TO.N,/Misc Switches/CueCh3*%
X97750000Y-51500000D03*
%TO.N,/Misc Switches/CueCh4*%
X114500000Y-40750000D03*
%TD*%
%TO.N,+3.3V*%
D13*
X42750000Y-34400000D02*
X39400000Y-37750000D01*
X15250000Y-53400000D02*
X37600000Y-75750000D01*
%TO.N,GND*%
X51000000Y-66914213D02*
X46000000Y-71914213D01*
X52750000Y-34400000D02*
X52750000Y-63750000D01*
%TO.N,+3.3V*%
X71000000Y-84300000D02*
X71000000Y-132000000D01*
%TO.N,/Misc Switches/CueCh4*%
X119300000Y-70200000D02*
X119500000Y-70000000D01*
%TO.N,/Performance Pads I2C/CueCh2*%
X64750000Y-57000000D02*
X72500000Y-64750000D01*
%TO.N,GND*%
X125830000Y-36320000D02*
X104670000Y-36320000D01*
%TO.N,+3.3V*%
X37600000Y-75750000D02*
X58450000Y-75750000D01*
X82750000Y-69625000D02*
X77941752Y-64816752D01*
X65500000Y-78800000D02*
X71000000Y-84300000D01*
%TO.N,GND*%
X127750000Y-34400000D02*
X140850000Y-47500000D01*
%TO.N,/Misc Switches/CueCh3*%
X97750000Y-51500000D02*
X97750000Y-66750000D01*
%TO.N,GND*%
X101000000Y-65500000D02*
X101000000Y-66914213D01*
%TO.N,+3.3V*%
X128750000Y-23400000D02*
X145250000Y-23400000D01*
%TO.N,GND*%
X54670000Y-36320000D02*
X52750000Y-34400000D01*
X155250000Y-23400000D02*
X155250000Y-53400000D01*
X75830000Y-36320000D02*
X54670000Y-36320000D01*
%TO.N,+3.3V*%
X67750000Y-34400000D02*
X64350000Y-31000000D01*
%TO.N,GND*%
X96000000Y-71914213D02*
X96000000Y-73500000D01*
%TO.N,+3.3V*%
X115830000Y-32480000D02*
X94670000Y-32480000D01*
%TO.N,GND*%
X41750000Y-23400000D02*
X25250000Y-23400000D01*
%TO.N,+3.3V*%
X90830000Y-32480000D02*
X69670000Y-32480000D01*
%TO.N,GND*%
X121000000Y-71914213D02*
X121000000Y-73500000D01*
X76000000Y-65500000D02*
X76000000Y-66914213D01*
X126000000Y-66914213D02*
X121000000Y-71914213D01*
%TO.N,/Misc Switches/CueCh3*%
X97750000Y-66750000D02*
X94500000Y-70000000D01*
%TO.N,GND*%
X101000000Y-66914213D02*
X96000000Y-71914213D01*
%TO.N,+3.3V*%
X145250000Y-23400000D02*
X145250000Y-53400000D01*
%TO.N,GND*%
X121000000Y-75296051D02*
X121000000Y-73500000D01*
%TO.N,+3.3V*%
X110000000Y-78800000D02*
X121000000Y-89800000D01*
%TO.N,/Performance Pads I2C/CueCh1*%
X37250000Y-62750000D02*
X44500000Y-70000000D01*
%TO.N,+3.3V*%
X111250000Y-132000000D02*
X121000000Y-132000000D01*
%TO.N,GND*%
X71000000Y-71914213D02*
X71000000Y-73500000D01*
%TO.N,+3.3V*%
X39400000Y-37750000D02*
X27500000Y-37750000D01*
%TO.N,GND*%
X52750000Y-63750000D02*
X51000000Y-65500000D01*
X83875000Y-73500000D02*
X71000000Y-73500000D01*
%TO.N,+3.3V*%
X92750000Y-34400000D02*
X90830000Y-32480000D01*
%TO.N,/Misc Switches/CueCh4*%
X122500000Y-48750000D02*
X122500000Y-67000000D01*
%TO.N,/Performance Pads I2C/CueCh2*%
X64750000Y-48000000D02*
X64750000Y-57000000D01*
%TO.N,GND*%
X51000000Y-65500000D02*
X51000000Y-66914213D01*
X91875000Y-65500000D02*
X94500000Y-65500000D01*
%TO.N,/Performance Pads I2C/CueCh1*%
X37250000Y-38750000D02*
X37250000Y-62750000D01*
%TO.N,GND*%
X140850000Y-47500000D02*
X141000000Y-47500000D01*
X76000000Y-66914213D02*
X71000000Y-71914213D01*
X79670000Y-36320000D02*
X77750000Y-34400000D01*
%TO.N,+3.3V*%
X106000000Y-78800000D02*
X110000000Y-78800000D01*
%TO.N,GND*%
X87750000Y-69625000D02*
X91875000Y-65500000D01*
%TO.N,+3.3V*%
X86500000Y-141500000D02*
X101750000Y-141500000D01*
%TO.N,GND*%
X52750000Y-34400000D02*
X41750000Y-23400000D01*
%TO.N,/Misc Switches/CueCh4*%
X122500000Y-67000000D02*
X119500000Y-70000000D01*
%TO.N,GND*%
X114500000Y-141500000D02*
X119750000Y-141500000D01*
X130250000Y-131000000D02*
X130250000Y-84546051D01*
X100830000Y-36320000D02*
X79670000Y-36320000D01*
%TO.N,+3.3V*%
X46000000Y-132000000D02*
X55500000Y-141500000D01*
X55500000Y-141500000D02*
X56000000Y-141500000D01*
%TO.N,/Performance Pads I2C/CueCh2*%
X72500000Y-67000000D02*
X69500000Y-70000000D01*
%TO.N,+3.3V*%
X65500000Y-132000000D02*
X71000000Y-132000000D01*
X117750000Y-34400000D02*
X115830000Y-32480000D01*
%TO.N,GND*%
X126000000Y-65500000D02*
X126000000Y-66914213D01*
X119750000Y-141500000D02*
X130250000Y-131000000D01*
%TO.N,+3.3V*%
X101750000Y-141500000D02*
X111250000Y-132000000D01*
%TO.N,/Performance Pads I2C/CueCh1*%
X61500000Y-70200000D02*
X51200000Y-70200000D01*
%TO.N,GND*%
X25250000Y-53400000D02*
X25250000Y-23400000D01*
%TO.N,/Misc Switches/CueCh4*%
X110000000Y-70200000D02*
X119300000Y-70200000D01*
%TO.N,+3.3V*%
X61500000Y-78800000D02*
X65500000Y-78800000D01*
%TO.N,GND*%
X77750000Y-34400000D02*
X75830000Y-36320000D01*
X127750000Y-34400000D02*
X125830000Y-36320000D01*
%TO.N,/Performance Pads I2C/CueCh1*%
X51200000Y-70200000D02*
X51000000Y-70000000D01*
%TO.N,GND*%
X51000000Y-65500000D02*
X69500000Y-65500000D01*
%TO.N,+3.3V*%
X77941752Y-52750000D02*
X67750000Y-42558248D01*
X15250000Y-53400000D02*
X15250000Y-23400000D01*
%TO.N,GND*%
X104670000Y-36320000D02*
X102750000Y-34400000D01*
%TO.N,+3.3V*%
X58450000Y-75750000D02*
X61500000Y-78800000D01*
%TO.N,GND*%
X46000000Y-71914213D02*
X46000000Y-73500000D01*
%TO.N,+3.3V*%
X77941752Y-64816752D02*
X77941752Y-52750000D01*
X77941752Y-52750000D02*
X77941752Y-49558248D01*
X64350000Y-31000000D02*
X52000000Y-31000000D01*
X69670000Y-32480000D02*
X67750000Y-34400000D01*
%TO.N,/Performance Pads I2C/CueCh2*%
X72500000Y-64750000D02*
X72500000Y-67000000D01*
%TO.N,+3.3V*%
X117750000Y-34400000D02*
X128750000Y-23400000D01*
X56000000Y-141500000D02*
X86500000Y-141500000D01*
%TO.N,GND*%
X87750000Y-69625000D02*
X83875000Y-73500000D01*
%TO.N,+3.3V*%
X121000000Y-89800000D02*
X121000000Y-132000000D01*
%TO.N,GND*%
X130250000Y-84546051D02*
X121000000Y-75296051D01*
%TO.N,+3.3V*%
X56000000Y-141500000D02*
X65500000Y-132000000D01*
X86500000Y-141500000D02*
X96000000Y-132000000D01*
X67750000Y-42558248D02*
X67750000Y-42500000D01*
%TO.N,GND*%
X102750000Y-34400000D02*
X100830000Y-36320000D01*
X101000000Y-65500000D02*
X119500000Y-65500000D01*
%TO.N,/Misc Switches/CueCh4*%
X114500000Y-40750000D02*
X122500000Y-48750000D01*
%TO.N,+3.3V*%
X94670000Y-32480000D02*
X92750000Y-34400000D01*
%TD*%
M02*
