M48
; DRILL file KiCad 10.0.0 date 2026-06-20T16:57:31
; FORMAT={-:-/ absolute / metric / decimal}
; #@! TF.CreationDate,2026-06-20T16:57:31-04:00
; #@! TF.GenerationSoftware,Kicad,Pcbnew,10.0.0
; #@! TF.FileFunction,NonPlated,1,2,NPTH
FMAT,2
METRIC
; #@! TA.AperFunction,NonPlated,NPTH,ComponentDrill
T1C0.600
; #@! TA.AperFunction,NonPlated,NPTH,ComponentDrill
T2C3.200
%
G90
G05
T2
X15.5Y-15.25
X35.25Y-32.0
X42.157Y-144.15
X135.25Y-32.0
X152.5Y-83.85
X152.5Y-144.15
X154.5Y-15.75
T1
G00X43.55Y-79.45
M15
G01X43.55Y-78.25
M16
G05
G00X43.55Y-127.25
M15
G01X43.55Y-126.05
M16
G05
G00X51.95Y-78.25
M15
G01X51.95Y-77.05
M16
G05
G00X51.95Y-128.45
M15
G01X51.95Y-127.25
M16
G05
G00X59.55Y-147.45
M15
G01X60.75Y-147.45
M16
G05
G00X60.75Y-139.05
M15
G01X61.95Y-139.05
M16
G05
G00X68.55Y-79.45
M15
G01X68.55Y-78.25
M16
G05
G00X68.55Y-127.25
M15
G01X68.55Y-126.05
M16
G05
G00X76.95Y-78.25
M15
G01X76.95Y-77.05
M16
G05
G00X76.95Y-128.45
M15
G01X76.95Y-127.25
M16
G05
G00X93.55Y-79.45
M15
G01X93.55Y-78.25
M16
G05
G00X93.55Y-127.25
M15
G01X93.55Y-126.05
M16
G05
G00X101.95Y-78.25
M15
G01X101.95Y-77.05
M16
G05
G00X101.95Y-128.45
M15
G01X101.95Y-127.25
M16
G05
G00X108.55Y-139.05
M15
G01X109.75Y-139.05
M16
G05
G00X109.75Y-147.45
M15
G01X110.95Y-147.45
M16
G05
G00X118.55Y-79.45
M15
G01X118.55Y-78.25
M16
G05
G00X118.55Y-127.25
M15
G01X118.55Y-126.05
M16
G05
G00X126.95Y-78.25
M15
G01X126.95Y-77.05
M16
G05
G00X126.95Y-128.45
M15
G01X126.95Y-127.25
M16
G05
M30
