%TF.GenerationSoftware,KiCad,Pcbnew,10.0.0*%
%TF.CreationDate,2026-06-20T16:57:28-04:00*%
%TF.ProjectId,DJ but to separate PCBs,444a2062-7574-4207-946f-207365706172,rev?*%
%TF.SameCoordinates,Original*%
%TF.FileFunction,Legend,Bot*%
%TF.FilePolarity,Positive*%
%FSLAX46Y46*%
G04 Gerber Fmt 4.6, Leading zero omitted, Abs format (unit mm)*
G04 Created by KiCad (PCBNEW 10.0.0) date 2026-06-20 16:57:28*
%MOMM*%
%LPD*%
G01*
G04 APERTURE LIST*
%ADD10C,0.150000*%
%ADD11C,0.100000*%
%ADD12C,0.120000*%
G04 APERTURE END LIST*
D10*
X103609580Y-16202380D02*
X103657200Y-16154761D01*
X103657200Y-16154761D02*
X103704819Y-16011904D01*
X103704819Y-16011904D02*
X103704819Y-15916666D01*
X103704819Y-15916666D02*
X103657200Y-15773809D01*
X103657200Y-15773809D02*
X103561961Y-15678571D01*
X103561961Y-15678571D02*
X103466723Y-15630952D01*
X103466723Y-15630952D02*
X103276247Y-15583333D01*
X103276247Y-15583333D02*
X103133390Y-15583333D01*
X103133390Y-15583333D02*
X102942914Y-15630952D01*
X102942914Y-15630952D02*
X102847676Y-15678571D01*
X102847676Y-15678571D02*
X102752438Y-15773809D01*
X102752438Y-15773809D02*
X102704819Y-15916666D01*
X102704819Y-15916666D02*
X102704819Y-16011904D01*
X102704819Y-16011904D02*
X102752438Y-16154761D01*
X102752438Y-16154761D02*
X102800057Y-16202380D01*
X103038152Y-17059523D02*
X103704819Y-17059523D01*
X103038152Y-16630952D02*
X103561961Y-16630952D01*
X103561961Y-16630952D02*
X103657200Y-16678571D01*
X103657200Y-16678571D02*
X103704819Y-16773809D01*
X103704819Y-16773809D02*
X103704819Y-16916666D01*
X103704819Y-16916666D02*
X103657200Y-17011904D01*
X103657200Y-17011904D02*
X103609580Y-17059523D01*
X103657200Y-17916666D02*
X103704819Y-17821428D01*
X103704819Y-17821428D02*
X103704819Y-17630952D01*
X103704819Y-17630952D02*
X103657200Y-17535714D01*
X103657200Y-17535714D02*
X103561961Y-17488095D01*
X103561961Y-17488095D02*
X103181009Y-17488095D01*
X103181009Y-17488095D02*
X103085771Y-17535714D01*
X103085771Y-17535714D02*
X103038152Y-17630952D01*
X103038152Y-17630952D02*
X103038152Y-17821428D01*
X103038152Y-17821428D02*
X103085771Y-17916666D01*
X103085771Y-17916666D02*
X103181009Y-17964285D01*
X103181009Y-17964285D02*
X103276247Y-17964285D01*
X103276247Y-17964285D02*
X103371485Y-17488095D01*
X102704819Y-18297619D02*
X102704819Y-18916666D01*
X102704819Y-18916666D02*
X103085771Y-18583333D01*
X103085771Y-18583333D02*
X103085771Y-18726190D01*
X103085771Y-18726190D02*
X103133390Y-18821428D01*
X103133390Y-18821428D02*
X103181009Y-18869047D01*
X103181009Y-18869047D02*
X103276247Y-18916666D01*
X103276247Y-18916666D02*
X103514342Y-18916666D01*
X103514342Y-18916666D02*
X103609580Y-18869047D01*
X103609580Y-18869047D02*
X103657200Y-18821428D01*
X103657200Y-18821428D02*
X103704819Y-18726190D01*
X103704819Y-18726190D02*
X103704819Y-18440476D01*
X103704819Y-18440476D02*
X103657200Y-18345238D01*
X103657200Y-18345238D02*
X103609580Y-18297619D01*
D11*
X106457419Y-73857142D02*
X105981228Y-73523809D01*
X106457419Y-73285714D02*
X105457419Y-73285714D01*
X105457419Y-73285714D02*
X105457419Y-73666666D01*
X105457419Y-73666666D02*
X105505038Y-73761904D01*
X105505038Y-73761904D02*
X105552657Y-73809523D01*
X105552657Y-73809523D02*
X105647895Y-73857142D01*
X105647895Y-73857142D02*
X105790752Y-73857142D01*
X105790752Y-73857142D02*
X105885990Y-73809523D01*
X105885990Y-73809523D02*
X105933609Y-73761904D01*
X105933609Y-73761904D02*
X105981228Y-73666666D01*
X105981228Y-73666666D02*
X105981228Y-73285714D01*
X106457419Y-74809523D02*
X106457419Y-74238095D01*
X106457419Y-74523809D02*
X105457419Y-74523809D01*
X105457419Y-74523809D02*
X105600276Y-74428571D01*
X105600276Y-74428571D02*
X105695514Y-74333333D01*
X105695514Y-74333333D02*
X105743133Y-74238095D01*
X106457419Y-75285714D02*
X106457419Y-75476190D01*
X106457419Y-75476190D02*
X106409800Y-75571428D01*
X106409800Y-75571428D02*
X106362180Y-75619047D01*
X106362180Y-75619047D02*
X106219323Y-75714285D01*
X106219323Y-75714285D02*
X106028847Y-75761904D01*
X106028847Y-75761904D02*
X105647895Y-75761904D01*
X105647895Y-75761904D02*
X105552657Y-75714285D01*
X105552657Y-75714285D02*
X105505038Y-75666666D01*
X105505038Y-75666666D02*
X105457419Y-75571428D01*
X105457419Y-75571428D02*
X105457419Y-75380952D01*
X105457419Y-75380952D02*
X105505038Y-75285714D01*
X105505038Y-75285714D02*
X105552657Y-75238095D01*
X105552657Y-75238095D02*
X105647895Y-75190476D01*
X105647895Y-75190476D02*
X105885990Y-75190476D01*
X105885990Y-75190476D02*
X105981228Y-75238095D01*
X105981228Y-75238095D02*
X106028847Y-75285714D01*
X106028847Y-75285714D02*
X106076466Y-75380952D01*
X106076466Y-75380952D02*
X106076466Y-75571428D01*
X106076466Y-75571428D02*
X106028847Y-75666666D01*
X106028847Y-75666666D02*
X105981228Y-75714285D01*
X105981228Y-75714285D02*
X105885990Y-75761904D01*
D10*
X96109580Y-15738095D02*
X96157200Y-15690476D01*
X96157200Y-15690476D02*
X96204819Y-15547619D01*
X96204819Y-15547619D02*
X96204819Y-15452381D01*
X96204819Y-15452381D02*
X96157200Y-15309524D01*
X96157200Y-15309524D02*
X96061961Y-15214286D01*
X96061961Y-15214286D02*
X95966723Y-15166667D01*
X95966723Y-15166667D02*
X95776247Y-15119048D01*
X95776247Y-15119048D02*
X95633390Y-15119048D01*
X95633390Y-15119048D02*
X95442914Y-15166667D01*
X95442914Y-15166667D02*
X95347676Y-15214286D01*
X95347676Y-15214286D02*
X95252438Y-15309524D01*
X95252438Y-15309524D02*
X95204819Y-15452381D01*
X95204819Y-15452381D02*
X95204819Y-15547619D01*
X95204819Y-15547619D02*
X95252438Y-15690476D01*
X95252438Y-15690476D02*
X95300057Y-15738095D01*
X95204819Y-16357143D02*
X95204819Y-16547619D01*
X95204819Y-16547619D02*
X95252438Y-16642857D01*
X95252438Y-16642857D02*
X95347676Y-16738095D01*
X95347676Y-16738095D02*
X95538152Y-16785714D01*
X95538152Y-16785714D02*
X95871485Y-16785714D01*
X95871485Y-16785714D02*
X96061961Y-16738095D01*
X96061961Y-16738095D02*
X96157200Y-16642857D01*
X96157200Y-16642857D02*
X96204819Y-16547619D01*
X96204819Y-16547619D02*
X96204819Y-16357143D01*
X96204819Y-16357143D02*
X96157200Y-16261905D01*
X96157200Y-16261905D02*
X96061961Y-16166667D01*
X96061961Y-16166667D02*
X95871485Y-16119048D01*
X95871485Y-16119048D02*
X95538152Y-16119048D01*
X95538152Y-16119048D02*
X95347676Y-16166667D01*
X95347676Y-16166667D02*
X95252438Y-16261905D01*
X95252438Y-16261905D02*
X95204819Y-16357143D01*
X96204819Y-17214286D02*
X95204819Y-17214286D01*
X95204819Y-17214286D02*
X95919104Y-17547619D01*
X95919104Y-17547619D02*
X95204819Y-17880952D01*
X95204819Y-17880952D02*
X96204819Y-17880952D01*
X95300057Y-18309524D02*
X95252438Y-18357143D01*
X95252438Y-18357143D02*
X95204819Y-18452381D01*
X95204819Y-18452381D02*
X95204819Y-18690476D01*
X95204819Y-18690476D02*
X95252438Y-18785714D01*
X95252438Y-18785714D02*
X95300057Y-18833333D01*
X95300057Y-18833333D02*
X95395295Y-18880952D01*
X95395295Y-18880952D02*
X95490533Y-18880952D01*
X95490533Y-18880952D02*
X95633390Y-18833333D01*
X95633390Y-18833333D02*
X96204819Y-18261905D01*
X96204819Y-18261905D02*
X96204819Y-18880952D01*
D11*
X85416666Y-67487180D02*
X85464285Y-67534800D01*
X85464285Y-67534800D02*
X85607142Y-67582419D01*
X85607142Y-67582419D02*
X85702380Y-67582419D01*
X85702380Y-67582419D02*
X85845237Y-67534800D01*
X85845237Y-67534800D02*
X85940475Y-67439561D01*
X85940475Y-67439561D02*
X85988094Y-67344323D01*
X85988094Y-67344323D02*
X86035713Y-67153847D01*
X86035713Y-67153847D02*
X86035713Y-67010990D01*
X86035713Y-67010990D02*
X85988094Y-66820514D01*
X85988094Y-66820514D02*
X85940475Y-66725276D01*
X85940475Y-66725276D02*
X85845237Y-66630038D01*
X85845237Y-66630038D02*
X85702380Y-66582419D01*
X85702380Y-66582419D02*
X85607142Y-66582419D01*
X85607142Y-66582419D02*
X85464285Y-66630038D01*
X85464285Y-66630038D02*
X85416666Y-66677657D01*
X85035713Y-66677657D02*
X84988094Y-66630038D01*
X84988094Y-66630038D02*
X84892856Y-66582419D01*
X84892856Y-66582419D02*
X84654761Y-66582419D01*
X84654761Y-66582419D02*
X84559523Y-66630038D01*
X84559523Y-66630038D02*
X84511904Y-66677657D01*
X84511904Y-66677657D02*
X84464285Y-66772895D01*
X84464285Y-66772895D02*
X84464285Y-66868133D01*
X84464285Y-66868133D02*
X84511904Y-67010990D01*
X84511904Y-67010990D02*
X85083332Y-67582419D01*
X85083332Y-67582419D02*
X84464285Y-67582419D01*
D10*
X92754819Y-11333332D02*
X92278628Y-10999999D01*
X92754819Y-10761904D02*
X91754819Y-10761904D01*
X91754819Y-10761904D02*
X91754819Y-11142856D01*
X91754819Y-11142856D02*
X91802438Y-11238094D01*
X91802438Y-11238094D02*
X91850057Y-11285713D01*
X91850057Y-11285713D02*
X91945295Y-11333332D01*
X91945295Y-11333332D02*
X92088152Y-11333332D01*
X92088152Y-11333332D02*
X92183390Y-11285713D01*
X92183390Y-11285713D02*
X92231009Y-11238094D01*
X92231009Y-11238094D02*
X92278628Y-11142856D01*
X92278628Y-11142856D02*
X92278628Y-10761904D01*
X92754819Y-11761904D02*
X92088152Y-11761904D01*
X91754819Y-11761904D02*
X91802438Y-11714285D01*
X91802438Y-11714285D02*
X91850057Y-11761904D01*
X91850057Y-11761904D02*
X91802438Y-11809523D01*
X91802438Y-11809523D02*
X91754819Y-11761904D01*
X91754819Y-11761904D02*
X91850057Y-11761904D01*
X92088152Y-12666665D02*
X92897676Y-12666665D01*
X92897676Y-12666665D02*
X92992914Y-12619046D01*
X92992914Y-12619046D02*
X93040533Y-12571427D01*
X93040533Y-12571427D02*
X93088152Y-12476189D01*
X93088152Y-12476189D02*
X93088152Y-12333332D01*
X93088152Y-12333332D02*
X93040533Y-12238094D01*
X92707200Y-12666665D02*
X92754819Y-12571427D01*
X92754819Y-12571427D02*
X92754819Y-12380951D01*
X92754819Y-12380951D02*
X92707200Y-12285713D01*
X92707200Y-12285713D02*
X92659580Y-12238094D01*
X92659580Y-12238094D02*
X92564342Y-12190475D01*
X92564342Y-12190475D02*
X92278628Y-12190475D01*
X92278628Y-12190475D02*
X92183390Y-12238094D01*
X92183390Y-12238094D02*
X92135771Y-12285713D01*
X92135771Y-12285713D02*
X92088152Y-12380951D01*
X92088152Y-12380951D02*
X92088152Y-12571427D01*
X92088152Y-12571427D02*
X92135771Y-12666665D01*
X92754819Y-13142856D02*
X91754819Y-13142856D01*
X92754819Y-13571427D02*
X92231009Y-13571427D01*
X92231009Y-13571427D02*
X92135771Y-13523808D01*
X92135771Y-13523808D02*
X92088152Y-13428570D01*
X92088152Y-13428570D02*
X92088152Y-13285713D01*
X92088152Y-13285713D02*
X92135771Y-13190475D01*
X92135771Y-13190475D02*
X92183390Y-13142856D01*
X92088152Y-13904761D02*
X92088152Y-14285713D01*
X91754819Y-14047618D02*
X92611961Y-14047618D01*
X92611961Y-14047618D02*
X92707200Y-14095237D01*
X92707200Y-14095237D02*
X92754819Y-14190475D01*
X92754819Y-14190475D02*
X92754819Y-14285713D01*
X92231009Y-14952380D02*
X92231009Y-14619047D01*
X92754819Y-14619047D02*
X91754819Y-14619047D01*
X91754819Y-14619047D02*
X91754819Y-15095237D01*
X92754819Y-15904761D02*
X92231009Y-15904761D01*
X92231009Y-15904761D02*
X92135771Y-15857142D01*
X92135771Y-15857142D02*
X92088152Y-15761904D01*
X92088152Y-15761904D02*
X92088152Y-15571428D01*
X92088152Y-15571428D02*
X92135771Y-15476190D01*
X92707200Y-15904761D02*
X92754819Y-15809523D01*
X92754819Y-15809523D02*
X92754819Y-15571428D01*
X92754819Y-15571428D02*
X92707200Y-15476190D01*
X92707200Y-15476190D02*
X92611961Y-15428571D01*
X92611961Y-15428571D02*
X92516723Y-15428571D01*
X92516723Y-15428571D02*
X92421485Y-15476190D01*
X92421485Y-15476190D02*
X92373866Y-15571428D01*
X92373866Y-15571428D02*
X92373866Y-15809523D01*
X92373866Y-15809523D02*
X92326247Y-15904761D01*
X92754819Y-16809523D02*
X91754819Y-16809523D01*
X92707200Y-16809523D02*
X92754819Y-16714285D01*
X92754819Y-16714285D02*
X92754819Y-16523809D01*
X92754819Y-16523809D02*
X92707200Y-16428571D01*
X92707200Y-16428571D02*
X92659580Y-16380952D01*
X92659580Y-16380952D02*
X92564342Y-16333333D01*
X92564342Y-16333333D02*
X92278628Y-16333333D01*
X92278628Y-16333333D02*
X92183390Y-16380952D01*
X92183390Y-16380952D02*
X92135771Y-16428571D01*
X92135771Y-16428571D02*
X92088152Y-16523809D01*
X92088152Y-16523809D02*
X92088152Y-16714285D01*
X92088152Y-16714285D02*
X92135771Y-16809523D01*
X92707200Y-17666666D02*
X92754819Y-17571428D01*
X92754819Y-17571428D02*
X92754819Y-17380952D01*
X92754819Y-17380952D02*
X92707200Y-17285714D01*
X92707200Y-17285714D02*
X92611961Y-17238095D01*
X92611961Y-17238095D02*
X92231009Y-17238095D01*
X92231009Y-17238095D02*
X92135771Y-17285714D01*
X92135771Y-17285714D02*
X92088152Y-17380952D01*
X92088152Y-17380952D02*
X92088152Y-17571428D01*
X92088152Y-17571428D02*
X92135771Y-17666666D01*
X92135771Y-17666666D02*
X92231009Y-17714285D01*
X92231009Y-17714285D02*
X92326247Y-17714285D01*
X92326247Y-17714285D02*
X92421485Y-17238095D01*
X92754819Y-18142857D02*
X92088152Y-18142857D01*
X92278628Y-18142857D02*
X92183390Y-18190476D01*
X92183390Y-18190476D02*
X92135771Y-18238095D01*
X92135771Y-18238095D02*
X92088152Y-18333333D01*
X92088152Y-18333333D02*
X92088152Y-18428571D01*
X92754819Y-19285714D02*
X92754819Y-18714286D01*
X92754819Y-19000000D02*
X91754819Y-19000000D01*
X91754819Y-19000000D02*
X91897676Y-18904762D01*
X91897676Y-18904762D02*
X91992914Y-18809524D01*
X91992914Y-18809524D02*
X92040533Y-18714286D01*
X81957200Y-16261905D02*
X82004819Y-16404762D01*
X82004819Y-16404762D02*
X82004819Y-16642857D01*
X82004819Y-16642857D02*
X81957200Y-16738095D01*
X81957200Y-16738095D02*
X81909580Y-16785714D01*
X81909580Y-16785714D02*
X81814342Y-16833333D01*
X81814342Y-16833333D02*
X81719104Y-16833333D01*
X81719104Y-16833333D02*
X81623866Y-16785714D01*
X81623866Y-16785714D02*
X81576247Y-16738095D01*
X81576247Y-16738095D02*
X81528628Y-16642857D01*
X81528628Y-16642857D02*
X81481009Y-16452381D01*
X81481009Y-16452381D02*
X81433390Y-16357143D01*
X81433390Y-16357143D02*
X81385771Y-16309524D01*
X81385771Y-16309524D02*
X81290533Y-16261905D01*
X81290533Y-16261905D02*
X81195295Y-16261905D01*
X81195295Y-16261905D02*
X81100057Y-16309524D01*
X81100057Y-16309524D02*
X81052438Y-16357143D01*
X81052438Y-16357143D02*
X81004819Y-16452381D01*
X81004819Y-16452381D02*
X81004819Y-16690476D01*
X81004819Y-16690476D02*
X81052438Y-16833333D01*
X82004819Y-17785714D02*
X82004819Y-17214286D01*
X82004819Y-17500000D02*
X81004819Y-17500000D01*
X81004819Y-17500000D02*
X81147676Y-17404762D01*
X81147676Y-17404762D02*
X81242914Y-17309524D01*
X81242914Y-17309524D02*
X81290533Y-17214286D01*
X81100057Y-18166667D02*
X81052438Y-18214286D01*
X81052438Y-18214286D02*
X81004819Y-18309524D01*
X81004819Y-18309524D02*
X81004819Y-18547619D01*
X81004819Y-18547619D02*
X81052438Y-18642857D01*
X81052438Y-18642857D02*
X81100057Y-18690476D01*
X81100057Y-18690476D02*
X81195295Y-18738095D01*
X81195295Y-18738095D02*
X81290533Y-18738095D01*
X81290533Y-18738095D02*
X81433390Y-18690476D01*
X81433390Y-18690476D02*
X82004819Y-18119048D01*
X82004819Y-18119048D02*
X82004819Y-18738095D01*
X89004819Y-11861903D02*
X89004819Y-11385713D01*
X89004819Y-11385713D02*
X88004819Y-11385713D01*
X88957200Y-12576189D02*
X89004819Y-12480951D01*
X89004819Y-12480951D02*
X89004819Y-12290475D01*
X89004819Y-12290475D02*
X88957200Y-12195237D01*
X88957200Y-12195237D02*
X88861961Y-12147618D01*
X88861961Y-12147618D02*
X88481009Y-12147618D01*
X88481009Y-12147618D02*
X88385771Y-12195237D01*
X88385771Y-12195237D02*
X88338152Y-12290475D01*
X88338152Y-12290475D02*
X88338152Y-12480951D01*
X88338152Y-12480951D02*
X88385771Y-12576189D01*
X88385771Y-12576189D02*
X88481009Y-12623808D01*
X88481009Y-12623808D02*
X88576247Y-12623808D01*
X88576247Y-12623808D02*
X88671485Y-12147618D01*
X88338152Y-12909523D02*
X88338152Y-13290475D01*
X89004819Y-13052380D02*
X88147676Y-13052380D01*
X88147676Y-13052380D02*
X88052438Y-13099999D01*
X88052438Y-13099999D02*
X88004819Y-13195237D01*
X88004819Y-13195237D02*
X88004819Y-13290475D01*
X88338152Y-13480952D02*
X88338152Y-13861904D01*
X88004819Y-13623809D02*
X88861961Y-13623809D01*
X88861961Y-13623809D02*
X88957200Y-13671428D01*
X88957200Y-13671428D02*
X89004819Y-13766666D01*
X89004819Y-13766666D02*
X89004819Y-13861904D01*
X88481009Y-14528571D02*
X88481009Y-14195238D01*
X89004819Y-14195238D02*
X88004819Y-14195238D01*
X88004819Y-14195238D02*
X88004819Y-14671428D01*
X89004819Y-15480952D02*
X88481009Y-15480952D01*
X88481009Y-15480952D02*
X88385771Y-15433333D01*
X88385771Y-15433333D02*
X88338152Y-15338095D01*
X88338152Y-15338095D02*
X88338152Y-15147619D01*
X88338152Y-15147619D02*
X88385771Y-15052381D01*
X88957200Y-15480952D02*
X89004819Y-15385714D01*
X89004819Y-15385714D02*
X89004819Y-15147619D01*
X89004819Y-15147619D02*
X88957200Y-15052381D01*
X88957200Y-15052381D02*
X88861961Y-15004762D01*
X88861961Y-15004762D02*
X88766723Y-15004762D01*
X88766723Y-15004762D02*
X88671485Y-15052381D01*
X88671485Y-15052381D02*
X88623866Y-15147619D01*
X88623866Y-15147619D02*
X88623866Y-15385714D01*
X88623866Y-15385714D02*
X88576247Y-15480952D01*
X89004819Y-16385714D02*
X88004819Y-16385714D01*
X88957200Y-16385714D02*
X89004819Y-16290476D01*
X89004819Y-16290476D02*
X89004819Y-16100000D01*
X89004819Y-16100000D02*
X88957200Y-16004762D01*
X88957200Y-16004762D02*
X88909580Y-15957143D01*
X88909580Y-15957143D02*
X88814342Y-15909524D01*
X88814342Y-15909524D02*
X88528628Y-15909524D01*
X88528628Y-15909524D02*
X88433390Y-15957143D01*
X88433390Y-15957143D02*
X88385771Y-16004762D01*
X88385771Y-16004762D02*
X88338152Y-16100000D01*
X88338152Y-16100000D02*
X88338152Y-16290476D01*
X88338152Y-16290476D02*
X88385771Y-16385714D01*
X88957200Y-17242857D02*
X89004819Y-17147619D01*
X89004819Y-17147619D02*
X89004819Y-16957143D01*
X89004819Y-16957143D02*
X88957200Y-16861905D01*
X88957200Y-16861905D02*
X88861961Y-16814286D01*
X88861961Y-16814286D02*
X88481009Y-16814286D01*
X88481009Y-16814286D02*
X88385771Y-16861905D01*
X88385771Y-16861905D02*
X88338152Y-16957143D01*
X88338152Y-16957143D02*
X88338152Y-17147619D01*
X88338152Y-17147619D02*
X88385771Y-17242857D01*
X88385771Y-17242857D02*
X88481009Y-17290476D01*
X88481009Y-17290476D02*
X88576247Y-17290476D01*
X88576247Y-17290476D02*
X88671485Y-16814286D01*
X89004819Y-17719048D02*
X88338152Y-17719048D01*
X88528628Y-17719048D02*
X88433390Y-17766667D01*
X88433390Y-17766667D02*
X88385771Y-17814286D01*
X88385771Y-17814286D02*
X88338152Y-17909524D01*
X88338152Y-17909524D02*
X88338152Y-18004762D01*
X89004819Y-18861905D02*
X89004819Y-18290477D01*
X89004819Y-18576191D02*
X88004819Y-18576191D01*
X88004819Y-18576191D02*
X88147676Y-18480953D01*
X88147676Y-18480953D02*
X88242914Y-18385715D01*
X88242914Y-18385715D02*
X88290533Y-18290477D01*
X78457200Y-16261905D02*
X78504819Y-16404762D01*
X78504819Y-16404762D02*
X78504819Y-16642857D01*
X78504819Y-16642857D02*
X78457200Y-16738095D01*
X78457200Y-16738095D02*
X78409580Y-16785714D01*
X78409580Y-16785714D02*
X78314342Y-16833333D01*
X78314342Y-16833333D02*
X78219104Y-16833333D01*
X78219104Y-16833333D02*
X78123866Y-16785714D01*
X78123866Y-16785714D02*
X78076247Y-16738095D01*
X78076247Y-16738095D02*
X78028628Y-16642857D01*
X78028628Y-16642857D02*
X77981009Y-16452381D01*
X77981009Y-16452381D02*
X77933390Y-16357143D01*
X77933390Y-16357143D02*
X77885771Y-16309524D01*
X77885771Y-16309524D02*
X77790533Y-16261905D01*
X77790533Y-16261905D02*
X77695295Y-16261905D01*
X77695295Y-16261905D02*
X77600057Y-16309524D01*
X77600057Y-16309524D02*
X77552438Y-16357143D01*
X77552438Y-16357143D02*
X77504819Y-16452381D01*
X77504819Y-16452381D02*
X77504819Y-16690476D01*
X77504819Y-16690476D02*
X77552438Y-16833333D01*
X77504819Y-17166667D02*
X77504819Y-17785714D01*
X77504819Y-17785714D02*
X77885771Y-17452381D01*
X77885771Y-17452381D02*
X77885771Y-17595238D01*
X77885771Y-17595238D02*
X77933390Y-17690476D01*
X77933390Y-17690476D02*
X77981009Y-17738095D01*
X77981009Y-17738095D02*
X78076247Y-17785714D01*
X78076247Y-17785714D02*
X78314342Y-17785714D01*
X78314342Y-17785714D02*
X78409580Y-17738095D01*
X78409580Y-17738095D02*
X78457200Y-17690476D01*
X78457200Y-17690476D02*
X78504819Y-17595238D01*
X78504819Y-17595238D02*
X78504819Y-17309524D01*
X78504819Y-17309524D02*
X78457200Y-17214286D01*
X78457200Y-17214286D02*
X78409580Y-17166667D01*
X77600057Y-18166667D02*
X77552438Y-18214286D01*
X77552438Y-18214286D02*
X77504819Y-18309524D01*
X77504819Y-18309524D02*
X77504819Y-18547619D01*
X77504819Y-18547619D02*
X77552438Y-18642857D01*
X77552438Y-18642857D02*
X77600057Y-18690476D01*
X77600057Y-18690476D02*
X77695295Y-18738095D01*
X77695295Y-18738095D02*
X77790533Y-18738095D01*
X77790533Y-18738095D02*
X77933390Y-18690476D01*
X77933390Y-18690476D02*
X78504819Y-18119048D01*
X78504819Y-18119048D02*
X78504819Y-18738095D01*
X98752438Y-15761904D02*
X98704819Y-15666666D01*
X98704819Y-15666666D02*
X98704819Y-15523809D01*
X98704819Y-15523809D02*
X98752438Y-15380952D01*
X98752438Y-15380952D02*
X98847676Y-15285714D01*
X98847676Y-15285714D02*
X98942914Y-15238095D01*
X98942914Y-15238095D02*
X99133390Y-15190476D01*
X99133390Y-15190476D02*
X99276247Y-15190476D01*
X99276247Y-15190476D02*
X99466723Y-15238095D01*
X99466723Y-15238095D02*
X99561961Y-15285714D01*
X99561961Y-15285714D02*
X99657200Y-15380952D01*
X99657200Y-15380952D02*
X99704819Y-15523809D01*
X99704819Y-15523809D02*
X99704819Y-15619047D01*
X99704819Y-15619047D02*
X99657200Y-15761904D01*
X99657200Y-15761904D02*
X99609580Y-15809523D01*
X99609580Y-15809523D02*
X99276247Y-15809523D01*
X99276247Y-15809523D02*
X99276247Y-15619047D01*
X99704819Y-16238095D02*
X98704819Y-16238095D01*
X98704819Y-16238095D02*
X99704819Y-16809523D01*
X99704819Y-16809523D02*
X98704819Y-16809523D01*
X99704819Y-17285714D02*
X98704819Y-17285714D01*
X98704819Y-17285714D02*
X98704819Y-17523809D01*
X98704819Y-17523809D02*
X98752438Y-17666666D01*
X98752438Y-17666666D02*
X98847676Y-17761904D01*
X98847676Y-17761904D02*
X98942914Y-17809523D01*
X98942914Y-17809523D02*
X99133390Y-17857142D01*
X99133390Y-17857142D02*
X99276247Y-17857142D01*
X99276247Y-17857142D02*
X99466723Y-17809523D01*
X99466723Y-17809523D02*
X99561961Y-17761904D01*
X99561961Y-17761904D02*
X99657200Y-17666666D01*
X99657200Y-17666666D02*
X99704819Y-17523809D01*
X99704819Y-17523809D02*
X99704819Y-17285714D01*
X98704819Y-18714285D02*
X98704819Y-18523809D01*
X98704819Y-18523809D02*
X98752438Y-18428571D01*
X98752438Y-18428571D02*
X98800057Y-18380952D01*
X98800057Y-18380952D02*
X98942914Y-18285714D01*
X98942914Y-18285714D02*
X99133390Y-18238095D01*
X99133390Y-18238095D02*
X99514342Y-18238095D01*
X99514342Y-18238095D02*
X99609580Y-18285714D01*
X99609580Y-18285714D02*
X99657200Y-18333333D01*
X99657200Y-18333333D02*
X99704819Y-18428571D01*
X99704819Y-18428571D02*
X99704819Y-18619047D01*
X99704819Y-18619047D02*
X99657200Y-18714285D01*
X99657200Y-18714285D02*
X99609580Y-18761904D01*
X99609580Y-18761904D02*
X99514342Y-18809523D01*
X99514342Y-18809523D02*
X99276247Y-18809523D01*
X99276247Y-18809523D02*
X99181009Y-18761904D01*
X99181009Y-18761904D02*
X99133390Y-18714285D01*
X99133390Y-18714285D02*
X99085771Y-18619047D01*
X99085771Y-18619047D02*
X99085771Y-18428571D01*
X99085771Y-18428571D02*
X99133390Y-18333333D01*
X99133390Y-18333333D02*
X99181009Y-18285714D01*
X99181009Y-18285714D02*
X99276247Y-18238095D01*
D11*
X65957419Y-73857142D02*
X65481228Y-73523809D01*
X65957419Y-73285714D02*
X64957419Y-73285714D01*
X64957419Y-73285714D02*
X64957419Y-73666666D01*
X64957419Y-73666666D02*
X65005038Y-73761904D01*
X65005038Y-73761904D02*
X65052657Y-73809523D01*
X65052657Y-73809523D02*
X65147895Y-73857142D01*
X65147895Y-73857142D02*
X65290752Y-73857142D01*
X65290752Y-73857142D02*
X65385990Y-73809523D01*
X65385990Y-73809523D02*
X65433609Y-73761904D01*
X65433609Y-73761904D02*
X65481228Y-73666666D01*
X65481228Y-73666666D02*
X65481228Y-73285714D01*
X64957419Y-74190476D02*
X64957419Y-74809523D01*
X64957419Y-74809523D02*
X65338371Y-74476190D01*
X65338371Y-74476190D02*
X65338371Y-74619047D01*
X65338371Y-74619047D02*
X65385990Y-74714285D01*
X65385990Y-74714285D02*
X65433609Y-74761904D01*
X65433609Y-74761904D02*
X65528847Y-74809523D01*
X65528847Y-74809523D02*
X65766942Y-74809523D01*
X65766942Y-74809523D02*
X65862180Y-74761904D01*
X65862180Y-74761904D02*
X65909800Y-74714285D01*
X65909800Y-74714285D02*
X65957419Y-74619047D01*
X65957419Y-74619047D02*
X65957419Y-74333333D01*
X65957419Y-74333333D02*
X65909800Y-74238095D01*
X65909800Y-74238095D02*
X65862180Y-74190476D01*
X65385990Y-75380952D02*
X65338371Y-75285714D01*
X65338371Y-75285714D02*
X65290752Y-75238095D01*
X65290752Y-75238095D02*
X65195514Y-75190476D01*
X65195514Y-75190476D02*
X65147895Y-75190476D01*
X65147895Y-75190476D02*
X65052657Y-75238095D01*
X65052657Y-75238095D02*
X65005038Y-75285714D01*
X65005038Y-75285714D02*
X64957419Y-75380952D01*
X64957419Y-75380952D02*
X64957419Y-75571428D01*
X64957419Y-75571428D02*
X65005038Y-75666666D01*
X65005038Y-75666666D02*
X65052657Y-75714285D01*
X65052657Y-75714285D02*
X65147895Y-75761904D01*
X65147895Y-75761904D02*
X65195514Y-75761904D01*
X65195514Y-75761904D02*
X65290752Y-75714285D01*
X65290752Y-75714285D02*
X65338371Y-75666666D01*
X65338371Y-75666666D02*
X65385990Y-75571428D01*
X65385990Y-75571428D02*
X65385990Y-75380952D01*
X65385990Y-75380952D02*
X65433609Y-75285714D01*
X65433609Y-75285714D02*
X65481228Y-75238095D01*
X65481228Y-75238095D02*
X65576466Y-75190476D01*
X65576466Y-75190476D02*
X65766942Y-75190476D01*
X65766942Y-75190476D02*
X65862180Y-75238095D01*
X65862180Y-75238095D02*
X65909800Y-75285714D01*
X65909800Y-75285714D02*
X65957419Y-75380952D01*
X65957419Y-75380952D02*
X65957419Y-75571428D01*
X65957419Y-75571428D02*
X65909800Y-75666666D01*
X65909800Y-75666666D02*
X65862180Y-75714285D01*
X65862180Y-75714285D02*
X65766942Y-75761904D01*
X65766942Y-75761904D02*
X65576466Y-75761904D01*
X65576466Y-75761904D02*
X65481228Y-75714285D01*
X65481228Y-75714285D02*
X65433609Y-75666666D01*
X65433609Y-75666666D02*
X65385990Y-75571428D01*
D10*
X74907200Y-16261905D02*
X74954819Y-16404762D01*
X74954819Y-16404762D02*
X74954819Y-16642857D01*
X74954819Y-16642857D02*
X74907200Y-16738095D01*
X74907200Y-16738095D02*
X74859580Y-16785714D01*
X74859580Y-16785714D02*
X74764342Y-16833333D01*
X74764342Y-16833333D02*
X74669104Y-16833333D01*
X74669104Y-16833333D02*
X74573866Y-16785714D01*
X74573866Y-16785714D02*
X74526247Y-16738095D01*
X74526247Y-16738095D02*
X74478628Y-16642857D01*
X74478628Y-16642857D02*
X74431009Y-16452381D01*
X74431009Y-16452381D02*
X74383390Y-16357143D01*
X74383390Y-16357143D02*
X74335771Y-16309524D01*
X74335771Y-16309524D02*
X74240533Y-16261905D01*
X74240533Y-16261905D02*
X74145295Y-16261905D01*
X74145295Y-16261905D02*
X74050057Y-16309524D01*
X74050057Y-16309524D02*
X74002438Y-16357143D01*
X74002438Y-16357143D02*
X73954819Y-16452381D01*
X73954819Y-16452381D02*
X73954819Y-16690476D01*
X73954819Y-16690476D02*
X74002438Y-16833333D01*
X74050057Y-17214286D02*
X74002438Y-17261905D01*
X74002438Y-17261905D02*
X73954819Y-17357143D01*
X73954819Y-17357143D02*
X73954819Y-17595238D01*
X73954819Y-17595238D02*
X74002438Y-17690476D01*
X74002438Y-17690476D02*
X74050057Y-17738095D01*
X74050057Y-17738095D02*
X74145295Y-17785714D01*
X74145295Y-17785714D02*
X74240533Y-17785714D01*
X74240533Y-17785714D02*
X74383390Y-17738095D01*
X74383390Y-17738095D02*
X74954819Y-17166667D01*
X74954819Y-17166667D02*
X74954819Y-17785714D01*
X74050057Y-18166667D02*
X74002438Y-18214286D01*
X74002438Y-18214286D02*
X73954819Y-18309524D01*
X73954819Y-18309524D02*
X73954819Y-18547619D01*
X73954819Y-18547619D02*
X74002438Y-18642857D01*
X74002438Y-18642857D02*
X74050057Y-18690476D01*
X74050057Y-18690476D02*
X74145295Y-18738095D01*
X74145295Y-18738095D02*
X74240533Y-18738095D01*
X74240533Y-18738095D02*
X74383390Y-18690476D01*
X74383390Y-18690476D02*
X74954819Y-18119048D01*
X74954819Y-18119048D02*
X74954819Y-18738095D01*
X64859580Y-16202380D02*
X64907200Y-16154761D01*
X64907200Y-16154761D02*
X64954819Y-16011904D01*
X64954819Y-16011904D02*
X64954819Y-15916666D01*
X64954819Y-15916666D02*
X64907200Y-15773809D01*
X64907200Y-15773809D02*
X64811961Y-15678571D01*
X64811961Y-15678571D02*
X64716723Y-15630952D01*
X64716723Y-15630952D02*
X64526247Y-15583333D01*
X64526247Y-15583333D02*
X64383390Y-15583333D01*
X64383390Y-15583333D02*
X64192914Y-15630952D01*
X64192914Y-15630952D02*
X64097676Y-15678571D01*
X64097676Y-15678571D02*
X64002438Y-15773809D01*
X64002438Y-15773809D02*
X63954819Y-15916666D01*
X63954819Y-15916666D02*
X63954819Y-16011904D01*
X63954819Y-16011904D02*
X64002438Y-16154761D01*
X64002438Y-16154761D02*
X64050057Y-16202380D01*
X64288152Y-17059523D02*
X64954819Y-17059523D01*
X64288152Y-16630952D02*
X64811961Y-16630952D01*
X64811961Y-16630952D02*
X64907200Y-16678571D01*
X64907200Y-16678571D02*
X64954819Y-16773809D01*
X64954819Y-16773809D02*
X64954819Y-16916666D01*
X64954819Y-16916666D02*
X64907200Y-17011904D01*
X64907200Y-17011904D02*
X64859580Y-17059523D01*
X64907200Y-17916666D02*
X64954819Y-17821428D01*
X64954819Y-17821428D02*
X64954819Y-17630952D01*
X64954819Y-17630952D02*
X64907200Y-17535714D01*
X64907200Y-17535714D02*
X64811961Y-17488095D01*
X64811961Y-17488095D02*
X64431009Y-17488095D01*
X64431009Y-17488095D02*
X64335771Y-17535714D01*
X64335771Y-17535714D02*
X64288152Y-17630952D01*
X64288152Y-17630952D02*
X64288152Y-17821428D01*
X64288152Y-17821428D02*
X64335771Y-17916666D01*
X64335771Y-17916666D02*
X64431009Y-17964285D01*
X64431009Y-17964285D02*
X64526247Y-17964285D01*
X64526247Y-17964285D02*
X64621485Y-17488095D01*
X64954819Y-18916666D02*
X64954819Y-18345238D01*
X64954819Y-18630952D02*
X63954819Y-18630952D01*
X63954819Y-18630952D02*
X64097676Y-18535714D01*
X64097676Y-18535714D02*
X64192914Y-18440476D01*
X64192914Y-18440476D02*
X64240533Y-18345238D01*
X86011904Y-49054819D02*
X86011904Y-49864342D01*
X86011904Y-49864342D02*
X85964285Y-49959580D01*
X85964285Y-49959580D02*
X85916666Y-50007200D01*
X85916666Y-50007200D02*
X85821428Y-50054819D01*
X85821428Y-50054819D02*
X85630952Y-50054819D01*
X85630952Y-50054819D02*
X85535714Y-50007200D01*
X85535714Y-50007200D02*
X85488095Y-49959580D01*
X85488095Y-49959580D02*
X85440476Y-49864342D01*
X85440476Y-49864342D02*
X85440476Y-49054819D01*
X85059523Y-49054819D02*
X84392857Y-49054819D01*
X84392857Y-49054819D02*
X84821428Y-50054819D01*
D11*
X61957419Y-73857142D02*
X61481228Y-73523809D01*
X61957419Y-73285714D02*
X60957419Y-73285714D01*
X60957419Y-73285714D02*
X60957419Y-73666666D01*
X60957419Y-73666666D02*
X61005038Y-73761904D01*
X61005038Y-73761904D02*
X61052657Y-73809523D01*
X61052657Y-73809523D02*
X61147895Y-73857142D01*
X61147895Y-73857142D02*
X61290752Y-73857142D01*
X61290752Y-73857142D02*
X61385990Y-73809523D01*
X61385990Y-73809523D02*
X61433609Y-73761904D01*
X61433609Y-73761904D02*
X61481228Y-73666666D01*
X61481228Y-73666666D02*
X61481228Y-73285714D01*
X60957419Y-74190476D02*
X60957419Y-74809523D01*
X60957419Y-74809523D02*
X61338371Y-74476190D01*
X61338371Y-74476190D02*
X61338371Y-74619047D01*
X61338371Y-74619047D02*
X61385990Y-74714285D01*
X61385990Y-74714285D02*
X61433609Y-74761904D01*
X61433609Y-74761904D02*
X61528847Y-74809523D01*
X61528847Y-74809523D02*
X61766942Y-74809523D01*
X61766942Y-74809523D02*
X61862180Y-74761904D01*
X61862180Y-74761904D02*
X61909800Y-74714285D01*
X61909800Y-74714285D02*
X61957419Y-74619047D01*
X61957419Y-74619047D02*
X61957419Y-74333333D01*
X61957419Y-74333333D02*
X61909800Y-74238095D01*
X61909800Y-74238095D02*
X61862180Y-74190476D01*
X60957419Y-75142857D02*
X60957419Y-75809523D01*
X60957419Y-75809523D02*
X61957419Y-75380952D01*
D10*
X107109580Y-16202380D02*
X107157200Y-16154761D01*
X107157200Y-16154761D02*
X107204819Y-16011904D01*
X107204819Y-16011904D02*
X107204819Y-15916666D01*
X107204819Y-15916666D02*
X107157200Y-15773809D01*
X107157200Y-15773809D02*
X107061961Y-15678571D01*
X107061961Y-15678571D02*
X106966723Y-15630952D01*
X106966723Y-15630952D02*
X106776247Y-15583333D01*
X106776247Y-15583333D02*
X106633390Y-15583333D01*
X106633390Y-15583333D02*
X106442914Y-15630952D01*
X106442914Y-15630952D02*
X106347676Y-15678571D01*
X106347676Y-15678571D02*
X106252438Y-15773809D01*
X106252438Y-15773809D02*
X106204819Y-15916666D01*
X106204819Y-15916666D02*
X106204819Y-16011904D01*
X106204819Y-16011904D02*
X106252438Y-16154761D01*
X106252438Y-16154761D02*
X106300057Y-16202380D01*
X106538152Y-17059523D02*
X107204819Y-17059523D01*
X106538152Y-16630952D02*
X107061961Y-16630952D01*
X107061961Y-16630952D02*
X107157200Y-16678571D01*
X107157200Y-16678571D02*
X107204819Y-16773809D01*
X107204819Y-16773809D02*
X107204819Y-16916666D01*
X107204819Y-16916666D02*
X107157200Y-17011904D01*
X107157200Y-17011904D02*
X107109580Y-17059523D01*
X107157200Y-17916666D02*
X107204819Y-17821428D01*
X107204819Y-17821428D02*
X107204819Y-17630952D01*
X107204819Y-17630952D02*
X107157200Y-17535714D01*
X107157200Y-17535714D02*
X107061961Y-17488095D01*
X107061961Y-17488095D02*
X106681009Y-17488095D01*
X106681009Y-17488095D02*
X106585771Y-17535714D01*
X106585771Y-17535714D02*
X106538152Y-17630952D01*
X106538152Y-17630952D02*
X106538152Y-17821428D01*
X106538152Y-17821428D02*
X106585771Y-17916666D01*
X106585771Y-17916666D02*
X106681009Y-17964285D01*
X106681009Y-17964285D02*
X106776247Y-17964285D01*
X106776247Y-17964285D02*
X106871485Y-17488095D01*
X106538152Y-18821428D02*
X107204819Y-18821428D01*
X106157200Y-18583333D02*
X106871485Y-18345238D01*
X106871485Y-18345238D02*
X106871485Y-18964285D01*
D11*
X110457419Y-73857142D02*
X109981228Y-73523809D01*
X110457419Y-73285714D02*
X109457419Y-73285714D01*
X109457419Y-73285714D02*
X109457419Y-73666666D01*
X109457419Y-73666666D02*
X109505038Y-73761904D01*
X109505038Y-73761904D02*
X109552657Y-73809523D01*
X109552657Y-73809523D02*
X109647895Y-73857142D01*
X109647895Y-73857142D02*
X109790752Y-73857142D01*
X109790752Y-73857142D02*
X109885990Y-73809523D01*
X109885990Y-73809523D02*
X109933609Y-73761904D01*
X109933609Y-73761904D02*
X109981228Y-73666666D01*
X109981228Y-73666666D02*
X109981228Y-73285714D01*
X109552657Y-74238095D02*
X109505038Y-74285714D01*
X109505038Y-74285714D02*
X109457419Y-74380952D01*
X109457419Y-74380952D02*
X109457419Y-74619047D01*
X109457419Y-74619047D02*
X109505038Y-74714285D01*
X109505038Y-74714285D02*
X109552657Y-74761904D01*
X109552657Y-74761904D02*
X109647895Y-74809523D01*
X109647895Y-74809523D02*
X109743133Y-74809523D01*
X109743133Y-74809523D02*
X109885990Y-74761904D01*
X109885990Y-74761904D02*
X110457419Y-74190476D01*
X110457419Y-74190476D02*
X110457419Y-74809523D01*
X109457419Y-75428571D02*
X109457419Y-75523809D01*
X109457419Y-75523809D02*
X109505038Y-75619047D01*
X109505038Y-75619047D02*
X109552657Y-75666666D01*
X109552657Y-75666666D02*
X109647895Y-75714285D01*
X109647895Y-75714285D02*
X109838371Y-75761904D01*
X109838371Y-75761904D02*
X110076466Y-75761904D01*
X110076466Y-75761904D02*
X110266942Y-75714285D01*
X110266942Y-75714285D02*
X110362180Y-75666666D01*
X110362180Y-75666666D02*
X110409800Y-75619047D01*
X110409800Y-75619047D02*
X110457419Y-75523809D01*
X110457419Y-75523809D02*
X110457419Y-75428571D01*
X110457419Y-75428571D02*
X110409800Y-75333333D01*
X110409800Y-75333333D02*
X110362180Y-75285714D01*
X110362180Y-75285714D02*
X110266942Y-75238095D01*
X110266942Y-75238095D02*
X110076466Y-75190476D01*
X110076466Y-75190476D02*
X109838371Y-75190476D01*
X109838371Y-75190476D02*
X109647895Y-75238095D01*
X109647895Y-75238095D02*
X109552657Y-75285714D01*
X109552657Y-75285714D02*
X109505038Y-75333333D01*
X109505038Y-75333333D02*
X109457419Y-75428571D01*
D10*
X70704819Y-15190476D02*
X71704819Y-15523809D01*
X71704819Y-15523809D02*
X70704819Y-15857142D01*
X71609580Y-16761904D02*
X71657200Y-16714285D01*
X71657200Y-16714285D02*
X71704819Y-16571428D01*
X71704819Y-16571428D02*
X71704819Y-16476190D01*
X71704819Y-16476190D02*
X71657200Y-16333333D01*
X71657200Y-16333333D02*
X71561961Y-16238095D01*
X71561961Y-16238095D02*
X71466723Y-16190476D01*
X71466723Y-16190476D02*
X71276247Y-16142857D01*
X71276247Y-16142857D02*
X71133390Y-16142857D01*
X71133390Y-16142857D02*
X70942914Y-16190476D01*
X70942914Y-16190476D02*
X70847676Y-16238095D01*
X70847676Y-16238095D02*
X70752438Y-16333333D01*
X70752438Y-16333333D02*
X70704819Y-16476190D01*
X70704819Y-16476190D02*
X70704819Y-16571428D01*
X70704819Y-16571428D02*
X70752438Y-16714285D01*
X70752438Y-16714285D02*
X70800057Y-16761904D01*
X71609580Y-17761904D02*
X71657200Y-17714285D01*
X71657200Y-17714285D02*
X71704819Y-17571428D01*
X71704819Y-17571428D02*
X71704819Y-17476190D01*
X71704819Y-17476190D02*
X71657200Y-17333333D01*
X71657200Y-17333333D02*
X71561961Y-17238095D01*
X71561961Y-17238095D02*
X71466723Y-17190476D01*
X71466723Y-17190476D02*
X71276247Y-17142857D01*
X71276247Y-17142857D02*
X71133390Y-17142857D01*
X71133390Y-17142857D02*
X70942914Y-17190476D01*
X70942914Y-17190476D02*
X70847676Y-17238095D01*
X70847676Y-17238095D02*
X70752438Y-17333333D01*
X70752438Y-17333333D02*
X70704819Y-17476190D01*
X70704819Y-17476190D02*
X70704819Y-17571428D01*
X70704819Y-17571428D02*
X70752438Y-17714285D01*
X70752438Y-17714285D02*
X70800057Y-17761904D01*
X70800057Y-18142857D02*
X70752438Y-18190476D01*
X70752438Y-18190476D02*
X70704819Y-18285714D01*
X70704819Y-18285714D02*
X70704819Y-18523809D01*
X70704819Y-18523809D02*
X70752438Y-18619047D01*
X70752438Y-18619047D02*
X70800057Y-18666666D01*
X70800057Y-18666666D02*
X70895295Y-18714285D01*
X70895295Y-18714285D02*
X70990533Y-18714285D01*
X70990533Y-18714285D02*
X71133390Y-18666666D01*
X71133390Y-18666666D02*
X71704819Y-18095238D01*
X71704819Y-18095238D02*
X71704819Y-18714285D01*
X68109580Y-15952380D02*
X68157200Y-15904761D01*
X68157200Y-15904761D02*
X68204819Y-15761904D01*
X68204819Y-15761904D02*
X68204819Y-15666666D01*
X68204819Y-15666666D02*
X68157200Y-15523809D01*
X68157200Y-15523809D02*
X68061961Y-15428571D01*
X68061961Y-15428571D02*
X67966723Y-15380952D01*
X67966723Y-15380952D02*
X67776247Y-15333333D01*
X67776247Y-15333333D02*
X67633390Y-15333333D01*
X67633390Y-15333333D02*
X67442914Y-15380952D01*
X67442914Y-15380952D02*
X67347676Y-15428571D01*
X67347676Y-15428571D02*
X67252438Y-15523809D01*
X67252438Y-15523809D02*
X67204819Y-15666666D01*
X67204819Y-15666666D02*
X67204819Y-15761904D01*
X67204819Y-15761904D02*
X67252438Y-15904761D01*
X67252438Y-15904761D02*
X67300057Y-15952380D01*
X67538152Y-16809523D02*
X68204819Y-16809523D01*
X67538152Y-16380952D02*
X68061961Y-16380952D01*
X68061961Y-16380952D02*
X68157200Y-16428571D01*
X68157200Y-16428571D02*
X68204819Y-16523809D01*
X68204819Y-16523809D02*
X68204819Y-16666666D01*
X68204819Y-16666666D02*
X68157200Y-16761904D01*
X68157200Y-16761904D02*
X68109580Y-16809523D01*
X68157200Y-17666666D02*
X68204819Y-17571428D01*
X68204819Y-17571428D02*
X68204819Y-17380952D01*
X68204819Y-17380952D02*
X68157200Y-17285714D01*
X68157200Y-17285714D02*
X68061961Y-17238095D01*
X68061961Y-17238095D02*
X67681009Y-17238095D01*
X67681009Y-17238095D02*
X67585771Y-17285714D01*
X67585771Y-17285714D02*
X67538152Y-17380952D01*
X67538152Y-17380952D02*
X67538152Y-17571428D01*
X67538152Y-17571428D02*
X67585771Y-17666666D01*
X67585771Y-17666666D02*
X67681009Y-17714285D01*
X67681009Y-17714285D02*
X67776247Y-17714285D01*
X67776247Y-17714285D02*
X67871485Y-17238095D01*
X67300057Y-18095238D02*
X67252438Y-18142857D01*
X67252438Y-18142857D02*
X67204819Y-18238095D01*
X67204819Y-18238095D02*
X67204819Y-18476190D01*
X67204819Y-18476190D02*
X67252438Y-18571428D01*
X67252438Y-18571428D02*
X67300057Y-18619047D01*
X67300057Y-18619047D02*
X67395295Y-18666666D01*
X67395295Y-18666666D02*
X67490533Y-18666666D01*
X67490533Y-18666666D02*
X67633390Y-18619047D01*
X67633390Y-18619047D02*
X68204819Y-18047619D01*
X68204819Y-18047619D02*
X68204819Y-18666666D01*
X85457200Y-16261905D02*
X85504819Y-16404762D01*
X85504819Y-16404762D02*
X85504819Y-16642857D01*
X85504819Y-16642857D02*
X85457200Y-16738095D01*
X85457200Y-16738095D02*
X85409580Y-16785714D01*
X85409580Y-16785714D02*
X85314342Y-16833333D01*
X85314342Y-16833333D02*
X85219104Y-16833333D01*
X85219104Y-16833333D02*
X85123866Y-16785714D01*
X85123866Y-16785714D02*
X85076247Y-16738095D01*
X85076247Y-16738095D02*
X85028628Y-16642857D01*
X85028628Y-16642857D02*
X84981009Y-16452381D01*
X84981009Y-16452381D02*
X84933390Y-16357143D01*
X84933390Y-16357143D02*
X84885771Y-16309524D01*
X84885771Y-16309524D02*
X84790533Y-16261905D01*
X84790533Y-16261905D02*
X84695295Y-16261905D01*
X84695295Y-16261905D02*
X84600057Y-16309524D01*
X84600057Y-16309524D02*
X84552438Y-16357143D01*
X84552438Y-16357143D02*
X84504819Y-16452381D01*
X84504819Y-16452381D02*
X84504819Y-16690476D01*
X84504819Y-16690476D02*
X84552438Y-16833333D01*
X84504819Y-17452381D02*
X84504819Y-17547619D01*
X84504819Y-17547619D02*
X84552438Y-17642857D01*
X84552438Y-17642857D02*
X84600057Y-17690476D01*
X84600057Y-17690476D02*
X84695295Y-17738095D01*
X84695295Y-17738095D02*
X84885771Y-17785714D01*
X84885771Y-17785714D02*
X85123866Y-17785714D01*
X85123866Y-17785714D02*
X85314342Y-17738095D01*
X85314342Y-17738095D02*
X85409580Y-17690476D01*
X85409580Y-17690476D02*
X85457200Y-17642857D01*
X85457200Y-17642857D02*
X85504819Y-17547619D01*
X85504819Y-17547619D02*
X85504819Y-17452381D01*
X85504819Y-17452381D02*
X85457200Y-17357143D01*
X85457200Y-17357143D02*
X85409580Y-17309524D01*
X85409580Y-17309524D02*
X85314342Y-17261905D01*
X85314342Y-17261905D02*
X85123866Y-17214286D01*
X85123866Y-17214286D02*
X84885771Y-17214286D01*
X84885771Y-17214286D02*
X84695295Y-17261905D01*
X84695295Y-17261905D02*
X84600057Y-17309524D01*
X84600057Y-17309524D02*
X84552438Y-17357143D01*
X84552438Y-17357143D02*
X84504819Y-17452381D01*
X84600057Y-18166667D02*
X84552438Y-18214286D01*
X84552438Y-18214286D02*
X84504819Y-18309524D01*
X84504819Y-18309524D02*
X84504819Y-18547619D01*
X84504819Y-18547619D02*
X84552438Y-18642857D01*
X84552438Y-18642857D02*
X84600057Y-18690476D01*
X84600057Y-18690476D02*
X84695295Y-18738095D01*
X84695295Y-18738095D02*
X84790533Y-18738095D01*
X84790533Y-18738095D02*
X84933390Y-18690476D01*
X84933390Y-18690476D02*
X85504819Y-18119048D01*
X85504819Y-18119048D02*
X85504819Y-18738095D01*
%TO.C,R19*%
D11*
X106000000Y-71350000D02*
X106000000Y-71250000D01*
X106000000Y-77650000D02*
X106000000Y-77750000D01*
X104750000Y-71350000D02*
X107250000Y-71350000D01*
X107250000Y-77650000D01*
X104750000Y-77650000D01*
X104750000Y-71350000D01*
%TO.C,C2*%
X82750000Y-68125000D02*
X87750000Y-68125000D01*
X87750000Y-71125000D01*
X82750000Y-71125000D01*
X82750000Y-68125000D01*
%TO.C,R38*%
X65500000Y-71350000D02*
X65500000Y-71250000D01*
X65500000Y-77650000D02*
X65500000Y-77750000D01*
X64250000Y-71350000D02*
X66750000Y-71350000D01*
X66750000Y-77650000D01*
X64250000Y-77650000D01*
X64250000Y-71350000D01*
%TO.C,U7*%
D12*
X81390000Y-50440000D02*
X81390000Y-50705000D01*
X81390000Y-65795000D02*
X81390000Y-66060000D01*
X81390000Y-66060000D02*
X89110000Y-66060000D01*
X89110000Y-50440000D02*
X81390000Y-50440000D01*
X89110000Y-50705000D02*
X89110000Y-50440000D01*
X89110000Y-66060000D02*
X89110000Y-65795000D01*
X89900000Y-50700000D02*
X89560000Y-50230000D01*
X90240000Y-50230000D01*
X89900000Y-50700000D01*
G36*
X89900000Y-50700000D02*
G01*
X89560000Y-50230000D01*
X90240000Y-50230000D01*
X89900000Y-50700000D01*
G37*
%TO.C,R37*%
D11*
X61500000Y-71350000D02*
X61500000Y-71250000D01*
X61500000Y-77650000D02*
X61500000Y-77750000D01*
X60250000Y-71350000D02*
X62750000Y-71350000D01*
X62750000Y-77650000D01*
X60250000Y-77650000D01*
X60250000Y-71350000D01*
%TO.C,R20*%
X110000000Y-71350000D02*
X110000000Y-71250000D01*
X110000000Y-77650000D02*
X110000000Y-77750000D01*
X108750000Y-71350000D02*
X111250000Y-71350000D01*
X111250000Y-77650000D01*
X108750000Y-77650000D01*
X108750000Y-71350000D01*
%TD*%
M02*
