M48
; DRILL file KiCad 10.0.0 date 2026-06-20T16:57:31
; FORMAT={-:-/ absolute / metric / decimal}
; #@! TF.CreationDate,2026-06-20T16:57:31-04:00
; #@! TF.GenerationSoftware,Kicad,Pcbnew,10.0.0
; #@! TF.FileFunction,Plated,1,2,PTH
FMAT,2
METRIC
; #@! TA.AperFunction,Plated,PTH,ViaDrill
T1C0.300
; #@! TA.AperFunction,Plated,PTH,ComponentDrill
T2C0.800
; #@! TA.AperFunction,Plated,PTH,ComponentDrill
T3C1.000
; #@! TA.AperFunction,Plated,PTH,ComponentDrill
T4C1.200
%
G90
G05
T1
X27.5Y-37.75
X37.25Y-38.75
X52.0Y-31.0
X64.75Y-48.0
X67.75Y-42.5
X77.942Y-49.558
X97.75Y-51.5
X114.5Y-40.75
X141.0Y-47.5
T2
X61.5Y-70.2
X61.5Y-78.8
X65.5Y-70.2
X65.5Y-78.8
X82.75Y-69.625
X87.75Y-69.625
X106.0Y-70.2
X106.0Y-78.8
X110.0Y-70.2
X110.0Y-78.8
T3
X15.25Y-23.4
X15.25Y-53.4
X20.25Y-23.4
X20.25Y-53.4
X25.25Y-23.4
X25.25Y-53.4
X42.75Y-34.4
X44.5Y-65.5
X44.5Y-70.0
X47.75Y-34.4
X51.0Y-65.5
X51.0Y-70.0
X52.75Y-34.4
X67.75Y-34.4
X69.5Y-65.5
X69.5Y-70.0
X72.75Y-34.4
X76.0Y-65.5
X76.0Y-70.0
X77.75Y-34.4
X92.75Y-34.4
X94.5Y-65.5
X94.5Y-70.0
X97.75Y-34.4
X101.0Y-65.5
X101.0Y-70.0
X102.75Y-34.4
X117.75Y-34.4
X119.5Y-65.5
X119.5Y-70.0
X122.75Y-34.4
X126.0Y-65.5
X126.0Y-70.0
X127.75Y-34.4
X145.25Y-23.4
X145.25Y-53.4
X150.25Y-23.4
X150.25Y-53.4
X155.25Y-23.4
X155.25Y-53.4
T4
X46.0Y-73.5
X46.0Y-132.0
X49.5Y-132.0
X56.0Y-141.5
X56.0Y-145.0
X71.0Y-73.5
X71.0Y-132.0
X74.5Y-132.0
X96.0Y-73.5
X96.0Y-132.0
X99.5Y-132.0
X114.5Y-141.5
X121.0Y-73.5
X121.0Y-132.0
X124.5Y-132.0
M30
