M48
; DRILL file KiCad 10.0.0 date 2026-06-20T16:58:11
; FORMAT={-:-/ absolute / metric / decimal}
; #@! TF.CreationDate,2026-06-20T16:58:11-04:00
; #@! TF.GenerationSoftware,Kicad,Pcbnew,10.0.0
; #@! TF.FileFunction,Plated,1,2,PTH
FMAT,2
METRIC
; #@! TA.AperFunction,Plated,PTH,ComponentDrill
T1C0.800
; #@! TA.AperFunction,Plated,PTH,ComponentDrill
T2C1.000
%
G90
G05
T1
X62.0Y-51.0
X67.0Y-51.0
T2
X22.0Y-20.75
X22.0Y-48.75
X22.0Y-76.75
X22.0Y-104.75
X27.0Y-20.75
X27.0Y-48.75
X27.0Y-76.75
X27.0Y-104.75
X32.0Y-20.75
X32.0Y-48.75
X32.0Y-76.75
X32.0Y-104.75
X47.0Y-20.75
X47.0Y-48.75
X47.0Y-76.75
X47.0Y-104.75
X52.0Y-20.75
X52.0Y-48.75
X52.0Y-76.75
X52.0Y-104.75
X57.0Y-20.75
X57.0Y-48.75
X57.0Y-76.75
X57.0Y-104.75
X72.0Y-20.75
X72.0Y-48.75
X72.0Y-76.75
X72.0Y-104.75
X77.0Y-20.75
X77.0Y-48.75
X77.0Y-76.75
X77.0Y-104.75
X82.0Y-20.75
X82.0Y-48.75
X82.0Y-76.75
X82.0Y-104.75
X97.0Y-20.75
X97.0Y-48.75
X97.0Y-76.75
X97.0Y-104.75
X102.0Y-20.75
X102.0Y-48.75
X102.0Y-76.75
X102.0Y-104.75
X107.0Y-20.75
X107.0Y-48.75
X107.0Y-76.75
X107.0Y-104.75
M30
