%TF.GenerationSoftware,KiCad,Pcbnew,10.0.0*%
%TF.CreationDate,2026-06-20T16:58:06-04:00*%
%TF.ProjectId,DJ but to separate PCBs,444a2062-7574-4207-946f-207365706172,rev?*%
%TF.SameCoordinates,Original*%
%TF.FileFunction,Legend,Top*%
%TF.FilePolarity,Positive*%
%FSLAX46Y46*%
G04 Gerber Fmt 4.6, Leading zero omitted, Abs format (unit mm)*
G04 Created by KiCad (PCBNEW 10.0.0) date 2026-06-20 16:58:06*
%MOMM*%
%LPD*%
G01*
G04 APERTURE LIST*
%ADD10C,0.100000*%
G04 APERTURE END LIST*
D10*
X26404761Y-35557419D02*
X26071428Y-35081228D01*
X25833333Y-35557419D02*
X25833333Y-34557419D01*
X25833333Y-34557419D02*
X26214285Y-34557419D01*
X26214285Y-34557419D02*
X26309523Y-34605038D01*
X26309523Y-34605038D02*
X26357142Y-34652657D01*
X26357142Y-34652657D02*
X26404761Y-34747895D01*
X26404761Y-34747895D02*
X26404761Y-34890752D01*
X26404761Y-34890752D02*
X26357142Y-34985990D01*
X26357142Y-34985990D02*
X26309523Y-35033609D01*
X26309523Y-35033609D02*
X26214285Y-35081228D01*
X26214285Y-35081228D02*
X25833333Y-35081228D01*
X26690476Y-34557419D02*
X27023809Y-35557419D01*
X27023809Y-35557419D02*
X27357142Y-34557419D01*
X27833333Y-34985990D02*
X27738095Y-34938371D01*
X27738095Y-34938371D02*
X27690476Y-34890752D01*
X27690476Y-34890752D02*
X27642857Y-34795514D01*
X27642857Y-34795514D02*
X27642857Y-34747895D01*
X27642857Y-34747895D02*
X27690476Y-34652657D01*
X27690476Y-34652657D02*
X27738095Y-34605038D01*
X27738095Y-34605038D02*
X27833333Y-34557419D01*
X27833333Y-34557419D02*
X28023809Y-34557419D01*
X28023809Y-34557419D02*
X28119047Y-34605038D01*
X28119047Y-34605038D02*
X28166666Y-34652657D01*
X28166666Y-34652657D02*
X28214285Y-34747895D01*
X28214285Y-34747895D02*
X28214285Y-34795514D01*
X28214285Y-34795514D02*
X28166666Y-34890752D01*
X28166666Y-34890752D02*
X28119047Y-34938371D01*
X28119047Y-34938371D02*
X28023809Y-34985990D01*
X28023809Y-34985990D02*
X27833333Y-34985990D01*
X27833333Y-34985990D02*
X27738095Y-35033609D01*
X27738095Y-35033609D02*
X27690476Y-35081228D01*
X27690476Y-35081228D02*
X27642857Y-35176466D01*
X27642857Y-35176466D02*
X27642857Y-35366942D01*
X27642857Y-35366942D02*
X27690476Y-35462180D01*
X27690476Y-35462180D02*
X27738095Y-35509800D01*
X27738095Y-35509800D02*
X27833333Y-35557419D01*
X27833333Y-35557419D02*
X28023809Y-35557419D01*
X28023809Y-35557419D02*
X28119047Y-35509800D01*
X28119047Y-35509800D02*
X28166666Y-35462180D01*
X28166666Y-35462180D02*
X28214285Y-35366942D01*
X28214285Y-35366942D02*
X28214285Y-35176466D01*
X28214285Y-35176466D02*
X28166666Y-35081228D01*
X28166666Y-35081228D02*
X28119047Y-35033609D01*
X28119047Y-35033609D02*
X28023809Y-34985990D01*
X75928571Y-35557419D02*
X75595238Y-35081228D01*
X75357143Y-35557419D02*
X75357143Y-34557419D01*
X75357143Y-34557419D02*
X75738095Y-34557419D01*
X75738095Y-34557419D02*
X75833333Y-34605038D01*
X75833333Y-34605038D02*
X75880952Y-34652657D01*
X75880952Y-34652657D02*
X75928571Y-34747895D01*
X75928571Y-34747895D02*
X75928571Y-34890752D01*
X75928571Y-34890752D02*
X75880952Y-34985990D01*
X75880952Y-34985990D02*
X75833333Y-35033609D01*
X75833333Y-35033609D02*
X75738095Y-35081228D01*
X75738095Y-35081228D02*
X75357143Y-35081228D01*
X76214286Y-34557419D02*
X76547619Y-35557419D01*
X76547619Y-35557419D02*
X76880952Y-34557419D01*
X77738095Y-35557419D02*
X77166667Y-35557419D01*
X77452381Y-35557419D02*
X77452381Y-34557419D01*
X77452381Y-34557419D02*
X77357143Y-34700276D01*
X77357143Y-34700276D02*
X77261905Y-34795514D01*
X77261905Y-34795514D02*
X77166667Y-34843133D01*
X78357143Y-34557419D02*
X78452381Y-34557419D01*
X78452381Y-34557419D02*
X78547619Y-34605038D01*
X78547619Y-34605038D02*
X78595238Y-34652657D01*
X78595238Y-34652657D02*
X78642857Y-34747895D01*
X78642857Y-34747895D02*
X78690476Y-34938371D01*
X78690476Y-34938371D02*
X78690476Y-35176466D01*
X78690476Y-35176466D02*
X78642857Y-35366942D01*
X78642857Y-35366942D02*
X78595238Y-35462180D01*
X78595238Y-35462180D02*
X78547619Y-35509800D01*
X78547619Y-35509800D02*
X78452381Y-35557419D01*
X78452381Y-35557419D02*
X78357143Y-35557419D01*
X78357143Y-35557419D02*
X78261905Y-35509800D01*
X78261905Y-35509800D02*
X78214286Y-35462180D01*
X78214286Y-35462180D02*
X78166667Y-35366942D01*
X78166667Y-35366942D02*
X78119048Y-35176466D01*
X78119048Y-35176466D02*
X78119048Y-34938371D01*
X78119048Y-34938371D02*
X78166667Y-34747895D01*
X78166667Y-34747895D02*
X78214286Y-34652657D01*
X78214286Y-34652657D02*
X78261905Y-34605038D01*
X78261905Y-34605038D02*
X78357143Y-34557419D01*
X100928571Y-35557419D02*
X100595238Y-35081228D01*
X100357143Y-35557419D02*
X100357143Y-34557419D01*
X100357143Y-34557419D02*
X100738095Y-34557419D01*
X100738095Y-34557419D02*
X100833333Y-34605038D01*
X100833333Y-34605038D02*
X100880952Y-34652657D01*
X100880952Y-34652657D02*
X100928571Y-34747895D01*
X100928571Y-34747895D02*
X100928571Y-34890752D01*
X100928571Y-34890752D02*
X100880952Y-34985990D01*
X100880952Y-34985990D02*
X100833333Y-35033609D01*
X100833333Y-35033609D02*
X100738095Y-35081228D01*
X100738095Y-35081228D02*
X100357143Y-35081228D01*
X101214286Y-34557419D02*
X101547619Y-35557419D01*
X101547619Y-35557419D02*
X101880952Y-34557419D01*
X102738095Y-35557419D02*
X102166667Y-35557419D01*
X102452381Y-35557419D02*
X102452381Y-34557419D01*
X102452381Y-34557419D02*
X102357143Y-34700276D01*
X102357143Y-34700276D02*
X102261905Y-34795514D01*
X102261905Y-34795514D02*
X102166667Y-34843133D01*
X103690476Y-35557419D02*
X103119048Y-35557419D01*
X103404762Y-35557419D02*
X103404762Y-34557419D01*
X103404762Y-34557419D02*
X103309524Y-34700276D01*
X103309524Y-34700276D02*
X103214286Y-34795514D01*
X103214286Y-34795514D02*
X103119048Y-34843133D01*
X25928571Y-63557419D02*
X25595238Y-63081228D01*
X25357143Y-63557419D02*
X25357143Y-62557419D01*
X25357143Y-62557419D02*
X25738095Y-62557419D01*
X25738095Y-62557419D02*
X25833333Y-62605038D01*
X25833333Y-62605038D02*
X25880952Y-62652657D01*
X25880952Y-62652657D02*
X25928571Y-62747895D01*
X25928571Y-62747895D02*
X25928571Y-62890752D01*
X25928571Y-62890752D02*
X25880952Y-62985990D01*
X25880952Y-62985990D02*
X25833333Y-63033609D01*
X25833333Y-63033609D02*
X25738095Y-63081228D01*
X25738095Y-63081228D02*
X25357143Y-63081228D01*
X26214286Y-62557419D02*
X26547619Y-63557419D01*
X26547619Y-63557419D02*
X26880952Y-62557419D01*
X27738095Y-63557419D02*
X27166667Y-63557419D01*
X27452381Y-63557419D02*
X27452381Y-62557419D01*
X27452381Y-62557419D02*
X27357143Y-62700276D01*
X27357143Y-62700276D02*
X27261905Y-62795514D01*
X27261905Y-62795514D02*
X27166667Y-62843133D01*
X28119048Y-62652657D02*
X28166667Y-62605038D01*
X28166667Y-62605038D02*
X28261905Y-62557419D01*
X28261905Y-62557419D02*
X28500000Y-62557419D01*
X28500000Y-62557419D02*
X28595238Y-62605038D01*
X28595238Y-62605038D02*
X28642857Y-62652657D01*
X28642857Y-62652657D02*
X28690476Y-62747895D01*
X28690476Y-62747895D02*
X28690476Y-62843133D01*
X28690476Y-62843133D02*
X28642857Y-62985990D01*
X28642857Y-62985990D02*
X28071429Y-63557419D01*
X28071429Y-63557419D02*
X28690476Y-63557419D01*
X75928571Y-91557419D02*
X75595238Y-91081228D01*
X75357143Y-91557419D02*
X75357143Y-90557419D01*
X75357143Y-90557419D02*
X75738095Y-90557419D01*
X75738095Y-90557419D02*
X75833333Y-90605038D01*
X75833333Y-90605038D02*
X75880952Y-90652657D01*
X75880952Y-90652657D02*
X75928571Y-90747895D01*
X75928571Y-90747895D02*
X75928571Y-90890752D01*
X75928571Y-90890752D02*
X75880952Y-90985990D01*
X75880952Y-90985990D02*
X75833333Y-91033609D01*
X75833333Y-91033609D02*
X75738095Y-91081228D01*
X75738095Y-91081228D02*
X75357143Y-91081228D01*
X76214286Y-90557419D02*
X76547619Y-91557419D01*
X76547619Y-91557419D02*
X76880952Y-90557419D01*
X77738095Y-91557419D02*
X77166667Y-91557419D01*
X77452381Y-91557419D02*
X77452381Y-90557419D01*
X77452381Y-90557419D02*
X77357143Y-90700276D01*
X77357143Y-90700276D02*
X77261905Y-90795514D01*
X77261905Y-90795514D02*
X77166667Y-90843133D01*
X78309524Y-90985990D02*
X78214286Y-90938371D01*
X78214286Y-90938371D02*
X78166667Y-90890752D01*
X78166667Y-90890752D02*
X78119048Y-90795514D01*
X78119048Y-90795514D02*
X78119048Y-90747895D01*
X78119048Y-90747895D02*
X78166667Y-90652657D01*
X78166667Y-90652657D02*
X78214286Y-90605038D01*
X78214286Y-90605038D02*
X78309524Y-90557419D01*
X78309524Y-90557419D02*
X78500000Y-90557419D01*
X78500000Y-90557419D02*
X78595238Y-90605038D01*
X78595238Y-90605038D02*
X78642857Y-90652657D01*
X78642857Y-90652657D02*
X78690476Y-90747895D01*
X78690476Y-90747895D02*
X78690476Y-90795514D01*
X78690476Y-90795514D02*
X78642857Y-90890752D01*
X78642857Y-90890752D02*
X78595238Y-90938371D01*
X78595238Y-90938371D02*
X78500000Y-90985990D01*
X78500000Y-90985990D02*
X78309524Y-90985990D01*
X78309524Y-90985990D02*
X78214286Y-91033609D01*
X78214286Y-91033609D02*
X78166667Y-91081228D01*
X78166667Y-91081228D02*
X78119048Y-91176466D01*
X78119048Y-91176466D02*
X78119048Y-91366942D01*
X78119048Y-91366942D02*
X78166667Y-91462180D01*
X78166667Y-91462180D02*
X78214286Y-91509800D01*
X78214286Y-91509800D02*
X78309524Y-91557419D01*
X78309524Y-91557419D02*
X78500000Y-91557419D01*
X78500000Y-91557419D02*
X78595238Y-91509800D01*
X78595238Y-91509800D02*
X78642857Y-91462180D01*
X78642857Y-91462180D02*
X78690476Y-91366942D01*
X78690476Y-91366942D02*
X78690476Y-91176466D01*
X78690476Y-91176466D02*
X78642857Y-91081228D01*
X78642857Y-91081228D02*
X78595238Y-91033609D01*
X78595238Y-91033609D02*
X78500000Y-90985990D01*
X50928571Y-63557419D02*
X50595238Y-63081228D01*
X50357143Y-63557419D02*
X50357143Y-62557419D01*
X50357143Y-62557419D02*
X50738095Y-62557419D01*
X50738095Y-62557419D02*
X50833333Y-62605038D01*
X50833333Y-62605038D02*
X50880952Y-62652657D01*
X50880952Y-62652657D02*
X50928571Y-62747895D01*
X50928571Y-62747895D02*
X50928571Y-62890752D01*
X50928571Y-62890752D02*
X50880952Y-62985990D01*
X50880952Y-62985990D02*
X50833333Y-63033609D01*
X50833333Y-63033609D02*
X50738095Y-63081228D01*
X50738095Y-63081228D02*
X50357143Y-63081228D01*
X51214286Y-62557419D02*
X51547619Y-63557419D01*
X51547619Y-63557419D02*
X51880952Y-62557419D01*
X52738095Y-63557419D02*
X52166667Y-63557419D01*
X52452381Y-63557419D02*
X52452381Y-62557419D01*
X52452381Y-62557419D02*
X52357143Y-62700276D01*
X52357143Y-62700276D02*
X52261905Y-62795514D01*
X52261905Y-62795514D02*
X52166667Y-62843133D01*
X53071429Y-62557419D02*
X53690476Y-62557419D01*
X53690476Y-62557419D02*
X53357143Y-62938371D01*
X53357143Y-62938371D02*
X53500000Y-62938371D01*
X53500000Y-62938371D02*
X53595238Y-62985990D01*
X53595238Y-62985990D02*
X53642857Y-63033609D01*
X53642857Y-63033609D02*
X53690476Y-63128847D01*
X53690476Y-63128847D02*
X53690476Y-63366942D01*
X53690476Y-63366942D02*
X53642857Y-63462180D01*
X53642857Y-63462180D02*
X53595238Y-63509800D01*
X53595238Y-63509800D02*
X53500000Y-63557419D01*
X53500000Y-63557419D02*
X53214286Y-63557419D01*
X53214286Y-63557419D02*
X53119048Y-63509800D01*
X53119048Y-63509800D02*
X53071429Y-63462180D01*
X51404761Y-35557419D02*
X51071428Y-35081228D01*
X50833333Y-35557419D02*
X50833333Y-34557419D01*
X50833333Y-34557419D02*
X51214285Y-34557419D01*
X51214285Y-34557419D02*
X51309523Y-34605038D01*
X51309523Y-34605038D02*
X51357142Y-34652657D01*
X51357142Y-34652657D02*
X51404761Y-34747895D01*
X51404761Y-34747895D02*
X51404761Y-34890752D01*
X51404761Y-34890752D02*
X51357142Y-34985990D01*
X51357142Y-34985990D02*
X51309523Y-35033609D01*
X51309523Y-35033609D02*
X51214285Y-35081228D01*
X51214285Y-35081228D02*
X50833333Y-35081228D01*
X51690476Y-34557419D02*
X52023809Y-35557419D01*
X52023809Y-35557419D02*
X52357142Y-34557419D01*
X52738095Y-35557419D02*
X52928571Y-35557419D01*
X52928571Y-35557419D02*
X53023809Y-35509800D01*
X53023809Y-35509800D02*
X53071428Y-35462180D01*
X53071428Y-35462180D02*
X53166666Y-35319323D01*
X53166666Y-35319323D02*
X53214285Y-35128847D01*
X53214285Y-35128847D02*
X53214285Y-34747895D01*
X53214285Y-34747895D02*
X53166666Y-34652657D01*
X53166666Y-34652657D02*
X53119047Y-34605038D01*
X53119047Y-34605038D02*
X53023809Y-34557419D01*
X53023809Y-34557419D02*
X52833333Y-34557419D01*
X52833333Y-34557419D02*
X52738095Y-34605038D01*
X52738095Y-34605038D02*
X52690476Y-34652657D01*
X52690476Y-34652657D02*
X52642857Y-34747895D01*
X52642857Y-34747895D02*
X52642857Y-34985990D01*
X52642857Y-34985990D02*
X52690476Y-35081228D01*
X52690476Y-35081228D02*
X52738095Y-35128847D01*
X52738095Y-35128847D02*
X52833333Y-35176466D01*
X52833333Y-35176466D02*
X53023809Y-35176466D01*
X53023809Y-35176466D02*
X53119047Y-35128847D01*
X53119047Y-35128847D02*
X53166666Y-35081228D01*
X53166666Y-35081228D02*
X53214285Y-34985990D01*
X75928571Y-119557419D02*
X75595238Y-119081228D01*
X75357143Y-119557419D02*
X75357143Y-118557419D01*
X75357143Y-118557419D02*
X75738095Y-118557419D01*
X75738095Y-118557419D02*
X75833333Y-118605038D01*
X75833333Y-118605038D02*
X75880952Y-118652657D01*
X75880952Y-118652657D02*
X75928571Y-118747895D01*
X75928571Y-118747895D02*
X75928571Y-118890752D01*
X75928571Y-118890752D02*
X75880952Y-118985990D01*
X75880952Y-118985990D02*
X75833333Y-119033609D01*
X75833333Y-119033609D02*
X75738095Y-119081228D01*
X75738095Y-119081228D02*
X75357143Y-119081228D01*
X76214286Y-118557419D02*
X76547619Y-119557419D01*
X76547619Y-119557419D02*
X76880952Y-118557419D01*
X77166667Y-118652657D02*
X77214286Y-118605038D01*
X77214286Y-118605038D02*
X77309524Y-118557419D01*
X77309524Y-118557419D02*
X77547619Y-118557419D01*
X77547619Y-118557419D02*
X77642857Y-118605038D01*
X77642857Y-118605038D02*
X77690476Y-118652657D01*
X77690476Y-118652657D02*
X77738095Y-118747895D01*
X77738095Y-118747895D02*
X77738095Y-118843133D01*
X77738095Y-118843133D02*
X77690476Y-118985990D01*
X77690476Y-118985990D02*
X77119048Y-119557419D01*
X77119048Y-119557419D02*
X77738095Y-119557419D01*
X78119048Y-118652657D02*
X78166667Y-118605038D01*
X78166667Y-118605038D02*
X78261905Y-118557419D01*
X78261905Y-118557419D02*
X78500000Y-118557419D01*
X78500000Y-118557419D02*
X78595238Y-118605038D01*
X78595238Y-118605038D02*
X78642857Y-118652657D01*
X78642857Y-118652657D02*
X78690476Y-118747895D01*
X78690476Y-118747895D02*
X78690476Y-118843133D01*
X78690476Y-118843133D02*
X78642857Y-118985990D01*
X78642857Y-118985990D02*
X78071429Y-119557419D01*
X78071429Y-119557419D02*
X78690476Y-119557419D01*
X100928571Y-119557419D02*
X100595238Y-119081228D01*
X100357143Y-119557419D02*
X100357143Y-118557419D01*
X100357143Y-118557419D02*
X100738095Y-118557419D01*
X100738095Y-118557419D02*
X100833333Y-118605038D01*
X100833333Y-118605038D02*
X100880952Y-118652657D01*
X100880952Y-118652657D02*
X100928571Y-118747895D01*
X100928571Y-118747895D02*
X100928571Y-118890752D01*
X100928571Y-118890752D02*
X100880952Y-118985990D01*
X100880952Y-118985990D02*
X100833333Y-119033609D01*
X100833333Y-119033609D02*
X100738095Y-119081228D01*
X100738095Y-119081228D02*
X100357143Y-119081228D01*
X101214286Y-118557419D02*
X101547619Y-119557419D01*
X101547619Y-119557419D02*
X101880952Y-118557419D01*
X102166667Y-118652657D02*
X102214286Y-118605038D01*
X102214286Y-118605038D02*
X102309524Y-118557419D01*
X102309524Y-118557419D02*
X102547619Y-118557419D01*
X102547619Y-118557419D02*
X102642857Y-118605038D01*
X102642857Y-118605038D02*
X102690476Y-118652657D01*
X102690476Y-118652657D02*
X102738095Y-118747895D01*
X102738095Y-118747895D02*
X102738095Y-118843133D01*
X102738095Y-118843133D02*
X102690476Y-118985990D01*
X102690476Y-118985990D02*
X102119048Y-119557419D01*
X102119048Y-119557419D02*
X102738095Y-119557419D01*
X103071429Y-118557419D02*
X103690476Y-118557419D01*
X103690476Y-118557419D02*
X103357143Y-118938371D01*
X103357143Y-118938371D02*
X103500000Y-118938371D01*
X103500000Y-118938371D02*
X103595238Y-118985990D01*
X103595238Y-118985990D02*
X103642857Y-119033609D01*
X103642857Y-119033609D02*
X103690476Y-119128847D01*
X103690476Y-119128847D02*
X103690476Y-119366942D01*
X103690476Y-119366942D02*
X103642857Y-119462180D01*
X103642857Y-119462180D02*
X103595238Y-119509800D01*
X103595238Y-119509800D02*
X103500000Y-119557419D01*
X103500000Y-119557419D02*
X103214286Y-119557419D01*
X103214286Y-119557419D02*
X103119048Y-119509800D01*
X103119048Y-119509800D02*
X103071429Y-119462180D01*
X25928571Y-91557419D02*
X25595238Y-91081228D01*
X25357143Y-91557419D02*
X25357143Y-90557419D01*
X25357143Y-90557419D02*
X25738095Y-90557419D01*
X25738095Y-90557419D02*
X25833333Y-90605038D01*
X25833333Y-90605038D02*
X25880952Y-90652657D01*
X25880952Y-90652657D02*
X25928571Y-90747895D01*
X25928571Y-90747895D02*
X25928571Y-90890752D01*
X25928571Y-90890752D02*
X25880952Y-90985990D01*
X25880952Y-90985990D02*
X25833333Y-91033609D01*
X25833333Y-91033609D02*
X25738095Y-91081228D01*
X25738095Y-91081228D02*
X25357143Y-91081228D01*
X26214286Y-90557419D02*
X26547619Y-91557419D01*
X26547619Y-91557419D02*
X26880952Y-90557419D01*
X27738095Y-91557419D02*
X27166667Y-91557419D01*
X27452381Y-91557419D02*
X27452381Y-90557419D01*
X27452381Y-90557419D02*
X27357143Y-90700276D01*
X27357143Y-90700276D02*
X27261905Y-90795514D01*
X27261905Y-90795514D02*
X27166667Y-90843133D01*
X28595238Y-90557419D02*
X28404762Y-90557419D01*
X28404762Y-90557419D02*
X28309524Y-90605038D01*
X28309524Y-90605038D02*
X28261905Y-90652657D01*
X28261905Y-90652657D02*
X28166667Y-90795514D01*
X28166667Y-90795514D02*
X28119048Y-90985990D01*
X28119048Y-90985990D02*
X28119048Y-91366942D01*
X28119048Y-91366942D02*
X28166667Y-91462180D01*
X28166667Y-91462180D02*
X28214286Y-91509800D01*
X28214286Y-91509800D02*
X28309524Y-91557419D01*
X28309524Y-91557419D02*
X28500000Y-91557419D01*
X28500000Y-91557419D02*
X28595238Y-91509800D01*
X28595238Y-91509800D02*
X28642857Y-91462180D01*
X28642857Y-91462180D02*
X28690476Y-91366942D01*
X28690476Y-91366942D02*
X28690476Y-91128847D01*
X28690476Y-91128847D02*
X28642857Y-91033609D01*
X28642857Y-91033609D02*
X28595238Y-90985990D01*
X28595238Y-90985990D02*
X28500000Y-90938371D01*
X28500000Y-90938371D02*
X28309524Y-90938371D01*
X28309524Y-90938371D02*
X28214286Y-90985990D01*
X28214286Y-90985990D02*
X28166667Y-91033609D01*
X28166667Y-91033609D02*
X28119048Y-91128847D01*
X75928571Y-63557419D02*
X75595238Y-63081228D01*
X75357143Y-63557419D02*
X75357143Y-62557419D01*
X75357143Y-62557419D02*
X75738095Y-62557419D01*
X75738095Y-62557419D02*
X75833333Y-62605038D01*
X75833333Y-62605038D02*
X75880952Y-62652657D01*
X75880952Y-62652657D02*
X75928571Y-62747895D01*
X75928571Y-62747895D02*
X75928571Y-62890752D01*
X75928571Y-62890752D02*
X75880952Y-62985990D01*
X75880952Y-62985990D02*
X75833333Y-63033609D01*
X75833333Y-63033609D02*
X75738095Y-63081228D01*
X75738095Y-63081228D02*
X75357143Y-63081228D01*
X76214286Y-62557419D02*
X76547619Y-63557419D01*
X76547619Y-63557419D02*
X76880952Y-62557419D01*
X77738095Y-63557419D02*
X77166667Y-63557419D01*
X77452381Y-63557419D02*
X77452381Y-62557419D01*
X77452381Y-62557419D02*
X77357143Y-62700276D01*
X77357143Y-62700276D02*
X77261905Y-62795514D01*
X77261905Y-62795514D02*
X77166667Y-62843133D01*
X78595238Y-62890752D02*
X78595238Y-63557419D01*
X78357143Y-62509800D02*
X78119048Y-63224085D01*
X78119048Y-63224085D02*
X78738095Y-63224085D01*
X100928571Y-91557419D02*
X100595238Y-91081228D01*
X100357143Y-91557419D02*
X100357143Y-90557419D01*
X100357143Y-90557419D02*
X100738095Y-90557419D01*
X100738095Y-90557419D02*
X100833333Y-90605038D01*
X100833333Y-90605038D02*
X100880952Y-90652657D01*
X100880952Y-90652657D02*
X100928571Y-90747895D01*
X100928571Y-90747895D02*
X100928571Y-90890752D01*
X100928571Y-90890752D02*
X100880952Y-90985990D01*
X100880952Y-90985990D02*
X100833333Y-91033609D01*
X100833333Y-91033609D02*
X100738095Y-91081228D01*
X100738095Y-91081228D02*
X100357143Y-91081228D01*
X101214286Y-90557419D02*
X101547619Y-91557419D01*
X101547619Y-91557419D02*
X101880952Y-90557419D01*
X102738095Y-91557419D02*
X102166667Y-91557419D01*
X102452381Y-91557419D02*
X102452381Y-90557419D01*
X102452381Y-90557419D02*
X102357143Y-90700276D01*
X102357143Y-90700276D02*
X102261905Y-90795514D01*
X102261905Y-90795514D02*
X102166667Y-90843133D01*
X103214286Y-91557419D02*
X103404762Y-91557419D01*
X103404762Y-91557419D02*
X103500000Y-91509800D01*
X103500000Y-91509800D02*
X103547619Y-91462180D01*
X103547619Y-91462180D02*
X103642857Y-91319323D01*
X103642857Y-91319323D02*
X103690476Y-91128847D01*
X103690476Y-91128847D02*
X103690476Y-90747895D01*
X103690476Y-90747895D02*
X103642857Y-90652657D01*
X103642857Y-90652657D02*
X103595238Y-90605038D01*
X103595238Y-90605038D02*
X103500000Y-90557419D01*
X103500000Y-90557419D02*
X103309524Y-90557419D01*
X103309524Y-90557419D02*
X103214286Y-90605038D01*
X103214286Y-90605038D02*
X103166667Y-90652657D01*
X103166667Y-90652657D02*
X103119048Y-90747895D01*
X103119048Y-90747895D02*
X103119048Y-90985990D01*
X103119048Y-90985990D02*
X103166667Y-91081228D01*
X103166667Y-91081228D02*
X103214286Y-91128847D01*
X103214286Y-91128847D02*
X103309524Y-91176466D01*
X103309524Y-91176466D02*
X103500000Y-91176466D01*
X103500000Y-91176466D02*
X103595238Y-91128847D01*
X103595238Y-91128847D02*
X103642857Y-91081228D01*
X103642857Y-91081228D02*
X103690476Y-90985990D01*
X50928571Y-119557419D02*
X50595238Y-119081228D01*
X50357143Y-119557419D02*
X50357143Y-118557419D01*
X50357143Y-118557419D02*
X50738095Y-118557419D01*
X50738095Y-118557419D02*
X50833333Y-118605038D01*
X50833333Y-118605038D02*
X50880952Y-118652657D01*
X50880952Y-118652657D02*
X50928571Y-118747895D01*
X50928571Y-118747895D02*
X50928571Y-118890752D01*
X50928571Y-118890752D02*
X50880952Y-118985990D01*
X50880952Y-118985990D02*
X50833333Y-119033609D01*
X50833333Y-119033609D02*
X50738095Y-119081228D01*
X50738095Y-119081228D02*
X50357143Y-119081228D01*
X51214286Y-118557419D02*
X51547619Y-119557419D01*
X51547619Y-119557419D02*
X51880952Y-118557419D01*
X52166667Y-118652657D02*
X52214286Y-118605038D01*
X52214286Y-118605038D02*
X52309524Y-118557419D01*
X52309524Y-118557419D02*
X52547619Y-118557419D01*
X52547619Y-118557419D02*
X52642857Y-118605038D01*
X52642857Y-118605038D02*
X52690476Y-118652657D01*
X52690476Y-118652657D02*
X52738095Y-118747895D01*
X52738095Y-118747895D02*
X52738095Y-118843133D01*
X52738095Y-118843133D02*
X52690476Y-118985990D01*
X52690476Y-118985990D02*
X52119048Y-119557419D01*
X52119048Y-119557419D02*
X52738095Y-119557419D01*
X53690476Y-119557419D02*
X53119048Y-119557419D01*
X53404762Y-119557419D02*
X53404762Y-118557419D01*
X53404762Y-118557419D02*
X53309524Y-118700276D01*
X53309524Y-118700276D02*
X53214286Y-118795514D01*
X53214286Y-118795514D02*
X53119048Y-118843133D01*
X100928571Y-63557419D02*
X100595238Y-63081228D01*
X100357143Y-63557419D02*
X100357143Y-62557419D01*
X100357143Y-62557419D02*
X100738095Y-62557419D01*
X100738095Y-62557419D02*
X100833333Y-62605038D01*
X100833333Y-62605038D02*
X100880952Y-62652657D01*
X100880952Y-62652657D02*
X100928571Y-62747895D01*
X100928571Y-62747895D02*
X100928571Y-62890752D01*
X100928571Y-62890752D02*
X100880952Y-62985990D01*
X100880952Y-62985990D02*
X100833333Y-63033609D01*
X100833333Y-63033609D02*
X100738095Y-63081228D01*
X100738095Y-63081228D02*
X100357143Y-63081228D01*
X101214286Y-62557419D02*
X101547619Y-63557419D01*
X101547619Y-63557419D02*
X101880952Y-62557419D01*
X102738095Y-63557419D02*
X102166667Y-63557419D01*
X102452381Y-63557419D02*
X102452381Y-62557419D01*
X102452381Y-62557419D02*
X102357143Y-62700276D01*
X102357143Y-62700276D02*
X102261905Y-62795514D01*
X102261905Y-62795514D02*
X102166667Y-62843133D01*
X103642857Y-62557419D02*
X103166667Y-62557419D01*
X103166667Y-62557419D02*
X103119048Y-63033609D01*
X103119048Y-63033609D02*
X103166667Y-62985990D01*
X103166667Y-62985990D02*
X103261905Y-62938371D01*
X103261905Y-62938371D02*
X103500000Y-62938371D01*
X103500000Y-62938371D02*
X103595238Y-62985990D01*
X103595238Y-62985990D02*
X103642857Y-63033609D01*
X103642857Y-63033609D02*
X103690476Y-63128847D01*
X103690476Y-63128847D02*
X103690476Y-63366942D01*
X103690476Y-63366942D02*
X103642857Y-63462180D01*
X103642857Y-63462180D02*
X103595238Y-63509800D01*
X103595238Y-63509800D02*
X103500000Y-63557419D01*
X103500000Y-63557419D02*
X103261905Y-63557419D01*
X103261905Y-63557419D02*
X103166667Y-63509800D01*
X103166667Y-63509800D02*
X103119048Y-63462180D01*
X50928571Y-91557419D02*
X50595238Y-91081228D01*
X50357143Y-91557419D02*
X50357143Y-90557419D01*
X50357143Y-90557419D02*
X50738095Y-90557419D01*
X50738095Y-90557419D02*
X50833333Y-90605038D01*
X50833333Y-90605038D02*
X50880952Y-90652657D01*
X50880952Y-90652657D02*
X50928571Y-90747895D01*
X50928571Y-90747895D02*
X50928571Y-90890752D01*
X50928571Y-90890752D02*
X50880952Y-90985990D01*
X50880952Y-90985990D02*
X50833333Y-91033609D01*
X50833333Y-91033609D02*
X50738095Y-91081228D01*
X50738095Y-91081228D02*
X50357143Y-91081228D01*
X51214286Y-90557419D02*
X51547619Y-91557419D01*
X51547619Y-91557419D02*
X51880952Y-90557419D01*
X52738095Y-91557419D02*
X52166667Y-91557419D01*
X52452381Y-91557419D02*
X52452381Y-90557419D01*
X52452381Y-90557419D02*
X52357143Y-90700276D01*
X52357143Y-90700276D02*
X52261905Y-90795514D01*
X52261905Y-90795514D02*
X52166667Y-90843133D01*
X53071429Y-90557419D02*
X53738095Y-90557419D01*
X53738095Y-90557419D02*
X53309524Y-91557419D01*
X25928571Y-119557419D02*
X25595238Y-119081228D01*
X25357143Y-119557419D02*
X25357143Y-118557419D01*
X25357143Y-118557419D02*
X25738095Y-118557419D01*
X25738095Y-118557419D02*
X25833333Y-118605038D01*
X25833333Y-118605038D02*
X25880952Y-118652657D01*
X25880952Y-118652657D02*
X25928571Y-118747895D01*
X25928571Y-118747895D02*
X25928571Y-118890752D01*
X25928571Y-118890752D02*
X25880952Y-118985990D01*
X25880952Y-118985990D02*
X25833333Y-119033609D01*
X25833333Y-119033609D02*
X25738095Y-119081228D01*
X25738095Y-119081228D02*
X25357143Y-119081228D01*
X26214286Y-118557419D02*
X26547619Y-119557419D01*
X26547619Y-119557419D02*
X26880952Y-118557419D01*
X27166667Y-118652657D02*
X27214286Y-118605038D01*
X27214286Y-118605038D02*
X27309524Y-118557419D01*
X27309524Y-118557419D02*
X27547619Y-118557419D01*
X27547619Y-118557419D02*
X27642857Y-118605038D01*
X27642857Y-118605038D02*
X27690476Y-118652657D01*
X27690476Y-118652657D02*
X27738095Y-118747895D01*
X27738095Y-118747895D02*
X27738095Y-118843133D01*
X27738095Y-118843133D02*
X27690476Y-118985990D01*
X27690476Y-118985990D02*
X27119048Y-119557419D01*
X27119048Y-119557419D02*
X27738095Y-119557419D01*
X28357143Y-118557419D02*
X28452381Y-118557419D01*
X28452381Y-118557419D02*
X28547619Y-118605038D01*
X28547619Y-118605038D02*
X28595238Y-118652657D01*
X28595238Y-118652657D02*
X28642857Y-118747895D01*
X28642857Y-118747895D02*
X28690476Y-118938371D01*
X28690476Y-118938371D02*
X28690476Y-119176466D01*
X28690476Y-119176466D02*
X28642857Y-119366942D01*
X28642857Y-119366942D02*
X28595238Y-119462180D01*
X28595238Y-119462180D02*
X28547619Y-119509800D01*
X28547619Y-119509800D02*
X28452381Y-119557419D01*
X28452381Y-119557419D02*
X28357143Y-119557419D01*
X28357143Y-119557419D02*
X28261905Y-119509800D01*
X28261905Y-119509800D02*
X28214286Y-119462180D01*
X28214286Y-119462180D02*
X28166667Y-119366942D01*
X28166667Y-119366942D02*
X28119048Y-119176466D01*
X28119048Y-119176466D02*
X28119048Y-118938371D01*
X28119048Y-118938371D02*
X28166667Y-118747895D01*
X28166667Y-118747895D02*
X28214286Y-118652657D01*
X28214286Y-118652657D02*
X28261905Y-118605038D01*
X28261905Y-118605038D02*
X28357143Y-118557419D01*
%TO.C,RV8*%
X18850000Y-18250000D02*
X18850000Y-35100000D01*
X18850000Y-18250000D02*
X35150000Y-18250000D01*
X18850000Y-23250000D02*
X35150000Y-23250000D01*
X35150000Y-35100000D02*
X35150000Y-18250000D01*
X35150000Y-35100000D02*
G75*
G02*
X18850000Y-35100000I-8150000J0D01*
G01*
X18850000Y-35100000D02*
G75*
G02*
X35150000Y-35100000I8150000J0D01*
G01*
%TO.C,RV10*%
X68850000Y-18250000D02*
X68850000Y-35100000D01*
X68850000Y-18250000D02*
X85150000Y-18250000D01*
X68850000Y-23250000D02*
X85150000Y-23250000D01*
X85150000Y-35100000D02*
X85150000Y-18250000D01*
X85150000Y-35100000D02*
G75*
G02*
X68850000Y-35100000I-8150000J0D01*
G01*
X68850000Y-35100000D02*
G75*
G02*
X85150000Y-35100000I8150000J0D01*
G01*
%TO.C,RV11*%
X93850000Y-18250000D02*
X93850000Y-35100000D01*
X93850000Y-18250000D02*
X110150000Y-18250000D01*
X93850000Y-23250000D02*
X110150000Y-23250000D01*
X110150000Y-35100000D02*
X110150000Y-18250000D01*
X110150000Y-35100000D02*
G75*
G02*
X93850000Y-35100000I-8150000J0D01*
G01*
X93850000Y-35100000D02*
G75*
G02*
X110150000Y-35100000I8150000J0D01*
G01*
%TO.C,RV12*%
X18850000Y-46250000D02*
X18850000Y-63100000D01*
X18850000Y-46250000D02*
X35150000Y-46250000D01*
X18850000Y-51250000D02*
X35150000Y-51250000D01*
X35150000Y-63100000D02*
X35150000Y-46250000D01*
X35150000Y-63100000D02*
G75*
G02*
X18850000Y-63100000I-8150000J0D01*
G01*
X18850000Y-63100000D02*
G75*
G02*
X35150000Y-63100000I8150000J0D01*
G01*
%TO.C,RV18*%
X68850000Y-74250000D02*
X68850000Y-91100000D01*
X68850000Y-74250000D02*
X85150000Y-74250000D01*
X68850000Y-79250000D02*
X85150000Y-79250000D01*
X85150000Y-91100000D02*
X85150000Y-74250000D01*
X85150000Y-91100000D02*
G75*
G02*
X68850000Y-91100000I-8150000J0D01*
G01*
X68850000Y-91100000D02*
G75*
G02*
X85150000Y-91100000I8150000J0D01*
G01*
%TO.C,RV13*%
X43850000Y-46250000D02*
X43850000Y-63100000D01*
X43850000Y-46250000D02*
X60150000Y-46250000D01*
X43850000Y-51250000D02*
X60150000Y-51250000D01*
X60150000Y-63100000D02*
X60150000Y-46250000D01*
X60150000Y-63100000D02*
G75*
G02*
X43850000Y-63100000I-8150000J0D01*
G01*
X43850000Y-63100000D02*
G75*
G02*
X60150000Y-63100000I8150000J0D01*
G01*
%TO.C,RV9*%
X43850000Y-18250000D02*
X43850000Y-35100000D01*
X43850000Y-18250000D02*
X60150000Y-18250000D01*
X43850000Y-23250000D02*
X60150000Y-23250000D01*
X60150000Y-35100000D02*
X60150000Y-18250000D01*
X60150000Y-35100000D02*
G75*
G02*
X43850000Y-35100000I-8150000J0D01*
G01*
X43850000Y-35100000D02*
G75*
G02*
X60150000Y-35100000I8150000J0D01*
G01*
%TO.C,RV22*%
X68850000Y-102250000D02*
X68850000Y-119100000D01*
X68850000Y-102250000D02*
X85150000Y-102250000D01*
X68850000Y-107250000D02*
X85150000Y-107250000D01*
X85150000Y-119100000D02*
X85150000Y-102250000D01*
X85150000Y-119100000D02*
G75*
G02*
X68850000Y-119100000I-8150000J0D01*
G01*
X68850000Y-119100000D02*
G75*
G02*
X85150000Y-119100000I8150000J0D01*
G01*
%TO.C,RV23*%
X93850000Y-102250000D02*
X93850000Y-119100000D01*
X93850000Y-102250000D02*
X110150000Y-102250000D01*
X93850000Y-107250000D02*
X110150000Y-107250000D01*
X110150000Y-119100000D02*
X110150000Y-102250000D01*
X110150000Y-119100000D02*
G75*
G02*
X93850000Y-119100000I-8150000J0D01*
G01*
X93850000Y-119100000D02*
G75*
G02*
X110150000Y-119100000I8150000J0D01*
G01*
%TO.C,RV16*%
X18850000Y-74250000D02*
X18850000Y-91100000D01*
X18850000Y-74250000D02*
X35150000Y-74250000D01*
X18850000Y-79250000D02*
X35150000Y-79250000D01*
X35150000Y-91100000D02*
X35150000Y-74250000D01*
X35150000Y-91100000D02*
G75*
G02*
X18850000Y-91100000I-8150000J0D01*
G01*
X18850000Y-91100000D02*
G75*
G02*
X35150000Y-91100000I8150000J0D01*
G01*
%TO.C,RV14*%
X68850000Y-46250000D02*
X68850000Y-63100000D01*
X68850000Y-46250000D02*
X85150000Y-46250000D01*
X68850000Y-51250000D02*
X85150000Y-51250000D01*
X85150000Y-63100000D02*
X85150000Y-46250000D01*
X85150000Y-63100000D02*
G75*
G02*
X68850000Y-63100000I-8150000J0D01*
G01*
X68850000Y-63100000D02*
G75*
G02*
X85150000Y-63100000I8150000J0D01*
G01*
%TO.C,RV19*%
X93850000Y-74250000D02*
X93850000Y-91100000D01*
X93850000Y-74250000D02*
X110150000Y-74250000D01*
X93850000Y-79250000D02*
X110150000Y-79250000D01*
X110150000Y-91100000D02*
X110150000Y-74250000D01*
X110150000Y-91100000D02*
G75*
G02*
X93850000Y-91100000I-8150000J0D01*
G01*
X93850000Y-91100000D02*
G75*
G02*
X110150000Y-91100000I8150000J0D01*
G01*
%TO.C,RV21*%
X43850000Y-102250000D02*
X43850000Y-119100000D01*
X43850000Y-102250000D02*
X60150000Y-102250000D01*
X43850000Y-107250000D02*
X60150000Y-107250000D01*
X60150000Y-119100000D02*
X60150000Y-102250000D01*
X60150000Y-119100000D02*
G75*
G02*
X43850000Y-119100000I-8150000J0D01*
G01*
X43850000Y-119100000D02*
G75*
G02*
X60150000Y-119100000I8150000J0D01*
G01*
%TO.C,RV15*%
X93850000Y-46250000D02*
X93850000Y-63100000D01*
X93850000Y-46250000D02*
X110150000Y-46250000D01*
X93850000Y-51250000D02*
X110150000Y-51250000D01*
X110150000Y-63100000D02*
X110150000Y-46250000D01*
X110150000Y-63100000D02*
G75*
G02*
X93850000Y-63100000I-8150000J0D01*
G01*
X93850000Y-63100000D02*
G75*
G02*
X110150000Y-63100000I8150000J0D01*
G01*
%TO.C,RV17*%
X43850000Y-74250000D02*
X43850000Y-91100000D01*
X43850000Y-74250000D02*
X60150000Y-74250000D01*
X43850000Y-79250000D02*
X60150000Y-79250000D01*
X60150000Y-91100000D02*
X60150000Y-74250000D01*
X60150000Y-91100000D02*
G75*
G02*
X43850000Y-91100000I-8150000J0D01*
G01*
X43850000Y-91100000D02*
G75*
G02*
X60150000Y-91100000I8150000J0D01*
G01*
%TO.C,RV20*%
X18850000Y-102250000D02*
X18850000Y-119100000D01*
X18850000Y-102250000D02*
X35150000Y-102250000D01*
X18850000Y-107250000D02*
X35150000Y-107250000D01*
X35150000Y-119100000D02*
X35150000Y-102250000D01*
X35150000Y-119100000D02*
G75*
G02*
X18850000Y-119100000I-8150000J0D01*
G01*
X18850000Y-119100000D02*
G75*
G02*
X35150000Y-119100000I8150000J0D01*
G01*
%TD*%
M02*
