%TF.GenerationSoftware,KiCad,Pcbnew,10.0.0*%
%TF.CreationDate,2026-06-20T16:58:06-04:00*%
%TF.ProjectId,DJ but to separate PCBs,444a2062-7574-4207-946f-207365706172,rev?*%
%TF.SameCoordinates,Original*%
%TF.FileFunction,Copper,L2,Bot*%
%TF.FilePolarity,Positive*%
%FSLAX46Y46*%
G04 Gerber Fmt 4.6, Leading zero omitted, Abs format (unit mm)*
G04 Created by KiCad (PCBNEW 10.0.0) date 2026-06-20 16:58:06*
%MOMM*%
%LPD*%
G01*
G04 APERTURE LIST*
G04 Aperture macros list*
%AMRoundRect*
0 Rectangle with rounded corners*
0 $1 Rounding radius*
0 $2 $3 $4 $5 $6 $7 $8 $9 X,Y pos of 4 corners*
0 Add a 4 corners polygon primitive as box body*
4,1,4,$2,$3,$4,$5,$6,$7,$8,$9,$2,$3,0*
0 Add four circle primitives for the rounded corners*
1,1,$1+$1,$2,$3*
1,1,$1+$1,$4,$5*
1,1,$1+$1,$6,$7*
1,1,$1+$1,$8,$9*
0 Add four rect primitives between the rounded corners*
20,1,$1+$1,$2,$3,$4,$5,0*
20,1,$1+$1,$4,$5,$6,$7,0*
20,1,$1+$1,$6,$7,$8,$9,0*
20,1,$1+$1,$8,$9,$2,$3,0*%
G04 Aperture macros list end*
%TA.AperFunction,ComponentPad*%
%ADD10C,2.540000*%
%TD*%
%TA.AperFunction,SMDPad,CuDef*%
%ADD11RoundRect,0.500000X0.500000X1.500000X-0.500000X1.500000X-0.500000X-1.500000X0.500000X-1.500000X0*%
%TD*%
%TA.AperFunction,ComponentPad*%
%ADD12C,2.000000*%
%TD*%
%TA.AperFunction,SMDPad,CuDef*%
%ADD13RoundRect,0.150000X0.875000X0.150000X-0.875000X0.150000X-0.875000X-0.150000X0.875000X-0.150000X0*%
%TD*%
%TA.AperFunction,Conductor*%
%ADD14C,0.300000*%
%TD*%
G04 APERTURE END LIST*
D10*
%TO.P,RV8,1,1_1*%
%TO.N,+3.3V*%
X22000000Y-20750000D03*
%TO.P,RV8,2,2_2*%
%TO.N,Net-(U3-I10)*%
X27000000Y-20750000D03*
%TO.P,RV8,3,3_3*%
%TO.N,GND*%
X32000000Y-20750000D03*
%TD*%
D11*
%TO.P,COM1,1*%
%TO.N,Net-(U3-COM)*%
X68000000Y-16750000D03*
%TD*%
D10*
%TO.P,RV10,1,1_1*%
%TO.N,+3.3V*%
X72000000Y-20750000D03*
%TO.P,RV10,2,2_2*%
%TO.N,Net-(U3-I6)*%
X77000000Y-20750000D03*
%TO.P,RV10,3,3_3*%
%TO.N,GND*%
X82000000Y-20750000D03*
%TD*%
%TO.P,RV11,1,1_1*%
%TO.N,GND*%
X97000000Y-20750000D03*
%TO.P,RV11,2,2_2*%
%TO.N,Net-(U3-I5)*%
X102000000Y-20750000D03*
%TO.P,RV11,3,3_3*%
%TO.N,+3.3V*%
X107000000Y-20750000D03*
%TD*%
D11*
%TO.P,S1,1*%
%TO.N,Net-(U3-S1)*%
X61000000Y-16750000D03*
%TD*%
%TO.P,S2,1*%
%TO.N,Net-(U3-S2)*%
X54000000Y-16750000D03*
%TD*%
D10*
%TO.P,RV12,1,1_1*%
%TO.N,+3.3V*%
X22000000Y-48750000D03*
%TO.P,RV12,2,2_2*%
%TO.N,Net-(U3-I11)*%
X27000000Y-48750000D03*
%TO.P,RV12,3,3_3*%
%TO.N,GND*%
X32000000Y-48750000D03*
%TD*%
D12*
%TO.P,C1,1*%
%TO.N,+3.3V*%
X62000000Y-51000000D03*
%TO.P,C1,2*%
%TO.N,GND*%
X67000000Y-51000000D03*
%TD*%
D10*
%TO.P,RV18,1,1_1*%
%TO.N,GND*%
X72000000Y-76750000D03*
%TO.P,RV18,2,2_2*%
%TO.N,Net-(U3-I0)*%
X77000000Y-76750000D03*
%TO.P,RV18,3,3_3*%
%TO.N,+3.3V*%
X82000000Y-76750000D03*
%TD*%
D11*
%TO.P,S0,1*%
%TO.N,Net-(U3-S0)*%
X64500000Y-16750000D03*
%TD*%
%TO.P,GND5,1*%
%TO.N,GND*%
X75000000Y-16750000D03*
%TD*%
D10*
%TO.P,RV13,1,1_1*%
%TO.N,GND*%
X47000000Y-48750000D03*
%TO.P,RV13,2,2_2*%
%TO.N,Net-(U3-I8)*%
X52000000Y-48750000D03*
%TO.P,RV13,3,3_3*%
%TO.N,+3.3V*%
X57000000Y-48750000D03*
%TD*%
D13*
%TO.P,U3,1,COM_1*%
%TO.N,Net-(U3-COM)*%
X69150000Y-54015000D03*
%TO.P,U3,2,I7_2*%
%TO.N,Net-(U3-I7)*%
X69150000Y-55285000D03*
%TO.P,U3,3,I6_3*%
%TO.N,Net-(U3-I6)*%
X69150000Y-56555000D03*
%TO.P,U3,4,I5_4*%
%TO.N,Net-(U3-I5)*%
X69150000Y-57825000D03*
%TO.P,U3,5,I4_5*%
%TO.N,Net-(U3-I4)*%
X69150000Y-59095000D03*
%TO.P,U3,6,I3_6*%
%TO.N,Net-(U3-I3)*%
X69150000Y-60365000D03*
%TO.P,U3,7,I2_7*%
%TO.N,Net-(U3-I2)*%
X69150000Y-61635000D03*
%TO.P,U3,8,I1_8*%
%TO.N,Net-(U3-I1)*%
X69150000Y-62905000D03*
%TO.P,U3,9,I0_9*%
%TO.N,Net-(U3-I0)*%
X69150000Y-64175000D03*
%TO.P,U3,10,S0_10*%
%TO.N,Net-(U3-S0)*%
X69150000Y-65445000D03*
%TO.P,U3,11,S1_11*%
%TO.N,Net-(U3-S1)*%
X69150000Y-66715000D03*
%TO.P,U3,12,GND_12*%
%TO.N,GND*%
X69150000Y-67985000D03*
%TO.P,U3,13,S3_13*%
%TO.N,Net-(U3-S3)*%
X59850000Y-67985000D03*
%TO.P,U3,14,S2_14*%
%TO.N,Net-(U3-S2)*%
X59850000Y-66715000D03*
%TO.P,U3,15,~{E}_15*%
%TO.N,GND*%
X59850000Y-65445000D03*
%TO.P,U3,16,I15_16*%
%TO.N,Net-(U3-I15)*%
X59850000Y-64175000D03*
%TO.P,U3,17,I14_17*%
%TO.N,Net-(U3-I14)*%
X59850000Y-62905000D03*
%TO.P,U3,18,I13_18*%
%TO.N,Net-(U3-I13)*%
X59850000Y-61635000D03*
%TO.P,U3,19,I12_19*%
%TO.N,Net-(U3-I12)*%
X59850000Y-60365000D03*
%TO.P,U3,20,I11_20*%
%TO.N,Net-(U3-I11)*%
X59850000Y-59095000D03*
%TO.P,U3,21,I10_21*%
%TO.N,Net-(U3-I10)*%
X59850000Y-57825000D03*
%TO.P,U3,22,I9_22*%
%TO.N,Net-(U3-I9)*%
X59850000Y-56555000D03*
%TO.P,U3,23,I8_23*%
%TO.N,Net-(U3-I8)*%
X59850000Y-55285000D03*
%TO.P,U3,24,VCC_24*%
%TO.N,+3.3V*%
X59850000Y-54015000D03*
%TD*%
D10*
%TO.P,RV9,1,1_1*%
%TO.N,GND*%
X47000000Y-20750000D03*
%TO.P,RV9,2,2_2*%
%TO.N,Net-(U3-I9)*%
X52000000Y-20750000D03*
%TO.P,RV9,3,3_3*%
%TO.N,+3.3V*%
X57000000Y-20750000D03*
%TD*%
D11*
%TO.P,VCC1,1*%
%TO.N,+3.3V*%
X71500000Y-16750000D03*
%TD*%
D10*
%TO.P,RV22,1,1_1*%
%TO.N,GND*%
X72000000Y-104750000D03*
%TO.P,RV22,2,2_2*%
%TO.N,Net-(U3-I1)*%
X77000000Y-104750000D03*
%TO.P,RV22,3,3_3*%
%TO.N,+3.3V*%
X82000000Y-104750000D03*
%TD*%
%TO.P,RV23,1,1_1*%
%TO.N,+3.3V*%
X97000000Y-104750000D03*
%TO.P,RV23,2,2_2*%
%TO.N,Net-(U3-I2)*%
X102000000Y-104750000D03*
%TO.P,RV23,3,3_3*%
%TO.N,GND*%
X107000000Y-104750000D03*
%TD*%
%TO.P,RV16,1,1_1*%
%TO.N,GND*%
X22000000Y-76750000D03*
%TO.P,RV16,2,2_2*%
%TO.N,Net-(U3-I12)*%
X27000000Y-76750000D03*
%TO.P,RV16,3,3_3*%
%TO.N,+3.3V*%
X32000000Y-76750000D03*
%TD*%
%TO.P,RV14,1,1_1*%
%TO.N,+3.3V*%
X72000000Y-48750000D03*
%TO.P,RV14,2,2_2*%
%TO.N,Net-(U3-I7)*%
X77000000Y-48750000D03*
%TO.P,RV14,3,3_3*%
%TO.N,GND*%
X82000000Y-48750000D03*
%TD*%
%TO.P,RV19,1,1_1*%
%TO.N,+3.3V*%
X97000000Y-76750000D03*
%TO.P,RV19,2,2_2*%
%TO.N,Net-(U3-I3)*%
X102000000Y-76750000D03*
%TO.P,RV19,3,3_3*%
%TO.N,GND*%
X107000000Y-76750000D03*
%TD*%
D11*
%TO.P,S3,1*%
%TO.N,Net-(U3-S3)*%
X57500000Y-16750000D03*
%TD*%
D10*
%TO.P,RV21,1,1_1*%
%TO.N,+3.3V*%
X47000000Y-104750000D03*
%TO.P,RV21,2,2_2*%
%TO.N,Net-(U3-I14)*%
X52000000Y-104750000D03*
%TO.P,RV21,3,3_3*%
%TO.N,GND*%
X57000000Y-104750000D03*
%TD*%
%TO.P,RV15,1,1_1*%
%TO.N,GND*%
X97000000Y-48750000D03*
%TO.P,RV15,2,2_2*%
%TO.N,Net-(U3-I4)*%
X102000000Y-48750000D03*
%TO.P,RV15,3,3_3*%
%TO.N,+3.3V*%
X107000000Y-48750000D03*
%TD*%
%TO.P,RV17,1,1_1*%
%TO.N,+3.3V*%
X47000000Y-76750000D03*
%TO.P,RV17,2,2_2*%
%TO.N,Net-(U3-I15)*%
X52000000Y-76750000D03*
%TO.P,RV17,3,3_3*%
%TO.N,GND*%
X57000000Y-76750000D03*
%TD*%
%TO.P,RV20,1,1_1*%
%TO.N,GND*%
X22000000Y-104750000D03*
%TO.P,RV20,2,2_2*%
%TO.N,Net-(U3-I13)*%
X27000000Y-104750000D03*
%TO.P,RV20,3,3_3*%
%TO.N,+3.3V*%
X32000000Y-104750000D03*
%TD*%
%TO.N,Net-(U3-I13)*%
D14*
X51865000Y-61635000D02*
X27000000Y-86500000D01*
%TO.N,Net-(U3-I9)*%
X47555000Y-56555000D02*
X43500000Y-52500000D01*
%TO.N,Net-(U3-S3)*%
X57500000Y-17000000D02*
X64450000Y-23950000D01*
%TO.N,Net-(U3-I8)*%
X58535000Y-55285000D02*
X52000000Y-48750000D01*
%TO.N,Net-(U3-I0)*%
X70175000Y-64175000D02*
X77000000Y-71000000D01*
%TO.N,Net-(U3-I10)*%
X27000000Y-37750000D02*
X27000000Y-20750000D01*
%TO.N,Net-(U3-S2)*%
X63650000Y-63939999D02*
X60874999Y-66715000D01*
%TO.N,+3.3V*%
X62000000Y-51865000D02*
X62000000Y-51000000D01*
%TO.N,Net-(U3-I11)*%
X37345000Y-59095000D02*
X27000000Y-48750000D01*
%TO.N,Net-(U3-I14)*%
X52345000Y-62905000D02*
X43000000Y-72250000D01*
%TO.N,Net-(U3-I11)*%
X59850000Y-59095000D02*
X37345000Y-59095000D01*
%TO.N,Net-(U3-S0)*%
X68195000Y-65445000D02*
X69150000Y-65445000D01*
%TO.N,GND*%
X75000000Y-16750000D02*
X78000000Y-16750000D01*
%TO.N,Net-(U3-S0)*%
X66750000Y-64000000D02*
X68195000Y-65445000D01*
%TO.N,Net-(U3-I7)*%
X70465000Y-55285000D02*
X77000000Y-48750000D01*
%TO.N,Net-(U3-S3)*%
X64450000Y-23950000D02*
X64450000Y-64409999D01*
%TO.N,GND*%
X69150000Y-67985000D02*
X72000000Y-70835000D01*
%TO.N,Net-(U3-COM)*%
X68000000Y-16750000D02*
X68000000Y-20250000D01*
%TO.N,Net-(U3-I1)*%
X86250000Y-74000000D02*
X86250000Y-95500000D01*
%TO.N,Net-(U3-I12)*%
X59850000Y-60365000D02*
X43385000Y-60365000D01*
%TO.N,Net-(U3-I15)*%
X59850000Y-64175000D02*
X58825001Y-64175000D01*
%TO.N,Net-(U3-S3)*%
X57500000Y-16750000D02*
X57500000Y-17000000D01*
%TO.N,Net-(U3-S1)*%
X68125001Y-66715000D02*
X69150000Y-66715000D01*
%TO.N,Net-(U3-COM)*%
X70000000Y-53165000D02*
X69150000Y-54015000D01*
%TO.N,GND*%
X72000000Y-70835000D02*
X72000000Y-76750000D01*
%TO.N,Net-(U3-I8)*%
X59850000Y-55285000D02*
X58535000Y-55285000D01*
%TO.N,GND*%
X78000000Y-16750000D02*
X82000000Y-20750000D01*
%TO.N,Net-(U3-S2)*%
X54000000Y-20750000D02*
X63650000Y-30400000D01*
%TO.N,Net-(U3-I6)*%
X85000000Y-28750000D02*
X77000000Y-20750000D01*
%TO.N,Net-(U3-I9)*%
X43500000Y-29250000D02*
X52000000Y-20750000D01*
%TO.N,Net-(U3-I12)*%
X43385000Y-60365000D02*
X27000000Y-76750000D01*
%TO.N,Net-(U3-I3)*%
X69150000Y-60365000D02*
X85615000Y-60365000D01*
%TO.N,Net-(U3-I10)*%
X59850000Y-57825000D02*
X47075000Y-57825000D01*
%TO.N,Net-(U3-S2)*%
X63650000Y-30400000D02*
X63650000Y-63939999D01*
%TO.N,Net-(U3-S1)*%
X65250000Y-63839999D02*
X68125001Y-66715000D01*
%TO.N,Net-(U3-I4)*%
X91655000Y-59095000D02*
X102000000Y-48750000D01*
%TO.N,Net-(U3-S2)*%
X54000000Y-16750000D02*
X54000000Y-20750000D01*
%TO.N,Net-(U3-S3)*%
X64450000Y-64409999D02*
X60874999Y-67985000D01*
%TO.N,Net-(U3-I6)*%
X85000000Y-52750000D02*
X85000000Y-28750000D01*
%TO.N,Net-(U3-S0)*%
X68950000Y-22331370D02*
X68950000Y-52054472D01*
%TO.N,Net-(U3-I9)*%
X59850000Y-56555000D02*
X47555000Y-56555000D01*
%TO.N,GND*%
X58825001Y-65445000D02*
X57000000Y-67270001D01*
%TO.N,+3.3V*%
X71500000Y-20250000D02*
X72000000Y-20750000D01*
%TO.N,Net-(U3-I7)*%
X69150000Y-55285000D02*
X70465000Y-55285000D01*
%TO.N,Net-(U3-I0)*%
X69150000Y-64175000D02*
X70175000Y-64175000D01*
%TO.N,Net-(U3-I2)*%
X75635000Y-61635000D02*
X102000000Y-88000000D01*
%TO.N,Net-(U3-S0)*%
X64500000Y-16750000D02*
X64500000Y-17881370D01*
%TO.N,Net-(U3-I15)*%
X52000000Y-71000001D02*
X52000000Y-76750000D01*
%TO.N,Net-(U3-S1)*%
X61000000Y-18500000D02*
X65250000Y-22750000D01*
%TO.N,Net-(U3-I14)*%
X43000000Y-95750000D02*
X52000000Y-104750000D01*
%TO.N,+3.3V*%
X59850000Y-54015000D02*
X62000000Y-51865000D01*
%TO.N,Net-(U3-S0)*%
X64500000Y-17881370D02*
X68950000Y-22331370D01*
%TO.N,Net-(U3-I6)*%
X81195000Y-56555000D02*
X85000000Y-52750000D01*
%TO.N,Net-(U3-I0)*%
X77000000Y-71000000D02*
X77000000Y-76750000D01*
%TO.N,Net-(U3-S0)*%
X68950000Y-52054472D02*
X66750000Y-54254472D01*
%TO.N,Net-(U3-I1)*%
X86250000Y-95500000D02*
X77000000Y-104750000D01*
X69150000Y-62905000D02*
X75155000Y-62905000D01*
%TO.N,Net-(U3-COM)*%
X70000000Y-22250000D02*
X70000000Y-53165000D01*
%TO.N,Net-(U3-I6)*%
X69150000Y-56555000D02*
X81195000Y-56555000D01*
%TO.N,Net-(U3-COM)*%
X68000000Y-20250000D02*
X70000000Y-22250000D01*
%TO.N,Net-(U3-I14)*%
X59850000Y-62905000D02*
X52345000Y-62905000D01*
%TO.N,GND*%
X59850000Y-65445000D02*
X58825001Y-65445000D01*
%TO.N,Net-(U3-I3)*%
X85615000Y-60365000D02*
X102000000Y-76750000D01*
%TO.N,Net-(U3-I13)*%
X27000000Y-86500000D02*
X27000000Y-104750000D01*
%TO.N,Net-(U3-I5)*%
X102000000Y-37500000D02*
X102000000Y-20750000D01*
%TO.N,Net-(U3-I2)*%
X69150000Y-61635000D02*
X75635000Y-61635000D01*
%TO.N,Net-(U3-S3)*%
X60874999Y-67985000D02*
X59850000Y-67985000D01*
%TO.N,Net-(U3-I10)*%
X47075000Y-57825000D02*
X27000000Y-37750000D01*
%TO.N,Net-(U3-I15)*%
X58825001Y-64175000D02*
X52000000Y-71000001D01*
%TO.N,Net-(U3-I1)*%
X75155000Y-62905000D02*
X86250000Y-74000000D01*
%TO.N,Net-(U3-S1)*%
X61000000Y-16750000D02*
X61000000Y-18500000D01*
%TO.N,Net-(U3-I4)*%
X69150000Y-59095000D02*
X91655000Y-59095000D01*
%TO.N,GND*%
X57000000Y-67270001D02*
X57000000Y-76750000D01*
%TO.N,Net-(U3-I9)*%
X43500000Y-52500000D02*
X43500000Y-29250000D01*
%TO.N,+3.3V*%
X71500000Y-16750000D02*
X71500000Y-20250000D01*
%TO.N,Net-(U3-I13)*%
X59850000Y-61635000D02*
X51865000Y-61635000D01*
%TO.N,Net-(U3-I5)*%
X81675000Y-57825000D02*
X102000000Y-37500000D01*
%TO.N,Net-(U3-S2)*%
X60874999Y-66715000D02*
X59850000Y-66715000D01*
%TO.N,Net-(U3-I2)*%
X102000000Y-88000000D02*
X102000000Y-104750000D01*
%TO.N,Net-(U3-S0)*%
X66750000Y-54254472D02*
X66750000Y-64000000D01*
%TO.N,Net-(U3-I14)*%
X43000000Y-72250000D02*
X43000000Y-95750000D01*
%TO.N,Net-(U3-I5)*%
X69150000Y-57825000D02*
X81675000Y-57825000D01*
%TO.N,Net-(U3-S1)*%
X65250000Y-22750000D02*
X65250000Y-63839999D01*
%TD*%
M02*
