%TF.GenerationSoftware,KiCad,Pcbnew,10.0.0*%
%TF.CreationDate,2026-06-20T16:58:06-04:00*%
%TF.ProjectId,DJ but to separate PCBs,444a2062-7574-4207-946f-207365706172,rev?*%
%TF.SameCoordinates,Original*%
%TF.FileFunction,Copper,L1,Top*%
%TF.FilePolarity,Positive*%
%FSLAX46Y46*%
G04 Gerber Fmt 4.6, Leading zero omitted, Abs format (unit mm)*
G04 Created by KiCad (PCBNEW 10.0.0) date 2026-06-20 16:58:06*
%MOMM*%
%LPD*%
G01*
G04 APERTURE LIST*
%TA.AperFunction,ComponentPad*%
%ADD10C,2.540000*%
%TD*%
%TA.AperFunction,ComponentPad*%
%ADD11C,2.000000*%
%TD*%
%TA.AperFunction,Conductor*%
%ADD12C,0.300000*%
%TD*%
G04 APERTURE END LIST*
D10*
%TO.P,RV8,1,1_1*%
%TO.N,+3.3V*%
X22000000Y-20750000D03*
%TO.P,RV8,2,2_2*%
%TO.N,Net-(U3-I10)*%
X27000000Y-20750000D03*
%TO.P,RV8,3,3_3*%
%TO.N,GND*%
X32000000Y-20750000D03*
%TD*%
%TO.P,RV10,1,1_1*%
%TO.N,+3.3V*%
X72000000Y-20750000D03*
%TO.P,RV10,2,2_2*%
%TO.N,Net-(U3-I6)*%
X77000000Y-20750000D03*
%TO.P,RV10,3,3_3*%
%TO.N,GND*%
X82000000Y-20750000D03*
%TD*%
%TO.P,RV11,1,1_1*%
%TO.N,GND*%
X97000000Y-20750000D03*
%TO.P,RV11,2,2_2*%
%TO.N,Net-(U3-I5)*%
X102000000Y-20750000D03*
%TO.P,RV11,3,3_3*%
%TO.N,+3.3V*%
X107000000Y-20750000D03*
%TD*%
%TO.P,RV12,1,1_1*%
%TO.N,+3.3V*%
X22000000Y-48750000D03*
%TO.P,RV12,2,2_2*%
%TO.N,Net-(U3-I11)*%
X27000000Y-48750000D03*
%TO.P,RV12,3,3_3*%
%TO.N,GND*%
X32000000Y-48750000D03*
%TD*%
D11*
%TO.P,C1,1*%
%TO.N,+3.3V*%
X62000000Y-51000000D03*
%TO.P,C1,2*%
%TO.N,GND*%
X67000000Y-51000000D03*
%TD*%
D10*
%TO.P,RV18,1,1_1*%
%TO.N,GND*%
X72000000Y-76750000D03*
%TO.P,RV18,2,2_2*%
%TO.N,Net-(U3-I0)*%
X77000000Y-76750000D03*
%TO.P,RV18,3,3_3*%
%TO.N,+3.3V*%
X82000000Y-76750000D03*
%TD*%
%TO.P,RV13,1,1_1*%
%TO.N,GND*%
X47000000Y-48750000D03*
%TO.P,RV13,2,2_2*%
%TO.N,Net-(U3-I8)*%
X52000000Y-48750000D03*
%TO.P,RV13,3,3_3*%
%TO.N,+3.3V*%
X57000000Y-48750000D03*
%TD*%
%TO.P,RV9,1,1_1*%
%TO.N,GND*%
X47000000Y-20750000D03*
%TO.P,RV9,2,2_2*%
%TO.N,Net-(U3-I9)*%
X52000000Y-20750000D03*
%TO.P,RV9,3,3_3*%
%TO.N,+3.3V*%
X57000000Y-20750000D03*
%TD*%
%TO.P,RV22,1,1_1*%
%TO.N,GND*%
X72000000Y-104750000D03*
%TO.P,RV22,2,2_2*%
%TO.N,Net-(U3-I1)*%
X77000000Y-104750000D03*
%TO.P,RV22,3,3_3*%
%TO.N,+3.3V*%
X82000000Y-104750000D03*
%TD*%
%TO.P,RV23,1,1_1*%
%TO.N,+3.3V*%
X97000000Y-104750000D03*
%TO.P,RV23,2,2_2*%
%TO.N,Net-(U3-I2)*%
X102000000Y-104750000D03*
%TO.P,RV23,3,3_3*%
%TO.N,GND*%
X107000000Y-104750000D03*
%TD*%
%TO.P,RV16,1,1_1*%
%TO.N,GND*%
X22000000Y-76750000D03*
%TO.P,RV16,2,2_2*%
%TO.N,Net-(U3-I12)*%
X27000000Y-76750000D03*
%TO.P,RV16,3,3_3*%
%TO.N,+3.3V*%
X32000000Y-76750000D03*
%TD*%
%TO.P,RV14,1,1_1*%
%TO.N,+3.3V*%
X72000000Y-48750000D03*
%TO.P,RV14,2,2_2*%
%TO.N,Net-(U3-I7)*%
X77000000Y-48750000D03*
%TO.P,RV14,3,3_3*%
%TO.N,GND*%
X82000000Y-48750000D03*
%TD*%
%TO.P,RV19,1,1_1*%
%TO.N,+3.3V*%
X97000000Y-76750000D03*
%TO.P,RV19,2,2_2*%
%TO.N,Net-(U3-I3)*%
X102000000Y-76750000D03*
%TO.P,RV19,3,3_3*%
%TO.N,GND*%
X107000000Y-76750000D03*
%TD*%
%TO.P,RV21,1,1_1*%
%TO.N,+3.3V*%
X47000000Y-104750000D03*
%TO.P,RV21,2,2_2*%
%TO.N,Net-(U3-I14)*%
X52000000Y-104750000D03*
%TO.P,RV21,3,3_3*%
%TO.N,GND*%
X57000000Y-104750000D03*
%TD*%
%TO.P,RV15,1,1_1*%
%TO.N,GND*%
X97000000Y-48750000D03*
%TO.P,RV15,2,2_2*%
%TO.N,Net-(U3-I4)*%
X102000000Y-48750000D03*
%TO.P,RV15,3,3_3*%
%TO.N,+3.3V*%
X107000000Y-48750000D03*
%TD*%
%TO.P,RV17,1,1_1*%
%TO.N,+3.3V*%
X47000000Y-76750000D03*
%TO.P,RV17,2,2_2*%
%TO.N,Net-(U3-I15)*%
X52000000Y-76750000D03*
%TO.P,RV17,3,3_3*%
%TO.N,GND*%
X57000000Y-76750000D03*
%TD*%
%TO.P,RV20,1,1_1*%
%TO.N,GND*%
X22000000Y-104750000D03*
%TO.P,RV20,2,2_2*%
%TO.N,Net-(U3-I13)*%
X27000000Y-104750000D03*
%TO.P,RV20,3,3_3*%
%TO.N,+3.3V*%
X32000000Y-104750000D03*
%TD*%
%TO.N,GND*%
D12*
X82000000Y-20750000D02*
X97000000Y-20750000D01*
%TO.N,+3.3V*%
X72000000Y-48750000D02*
X72000000Y-20750000D01*
X62000000Y-61750000D02*
X62000000Y-51000000D01*
X62000000Y-51000000D02*
X64250000Y-48750000D01*
%TO.N,GND*%
X72000000Y-76750000D02*
X57000000Y-76750000D01*
%TO.N,+3.3V*%
X64250000Y-48750000D02*
X72000000Y-48750000D01*
%TO.N,GND*%
X72000000Y-76750000D02*
X72000000Y-104750000D01*
X32000000Y-20750000D02*
X47000000Y-20750000D01*
X97000000Y-48750000D02*
X97000000Y-20750000D01*
X67000000Y-51000000D02*
X79750000Y-51000000D01*
%TO.N,+3.3V*%
X32000000Y-76750000D02*
X47000000Y-76750000D01*
%TO.N,GND*%
X22000000Y-73750000D02*
X47000000Y-48750000D01*
%TO.N,+3.3V*%
X32000000Y-76750000D02*
X32000000Y-104750000D01*
X97000000Y-76750000D02*
X97000000Y-58750000D01*
%TO.N,GND*%
X53750000Y-108000000D02*
X57000000Y-104750000D01*
X32000000Y-48750000D02*
X47000000Y-48750000D01*
%TO.N,+3.3V*%
X47000000Y-76750000D02*
X62000000Y-61750000D01*
X72000000Y-20750000D02*
X74500000Y-18250000D01*
X57000000Y-20750000D02*
X54000000Y-17750000D01*
%TO.N,GND*%
X22000000Y-104750000D02*
X25250000Y-108000000D01*
%TO.N,+3.3V*%
X25000000Y-17750000D02*
X22000000Y-20750000D01*
%TO.N,GND*%
X25250000Y-108000000D02*
X53750000Y-108000000D01*
%TO.N,+3.3V*%
X57000000Y-48750000D02*
X59750000Y-48750000D01*
X59750000Y-48750000D02*
X62000000Y-51000000D01*
%TO.N,GND*%
X32000000Y-48750000D02*
X32000000Y-20750000D01*
%TO.N,+3.3V*%
X104500000Y-18250000D02*
X107000000Y-20750000D01*
X54000000Y-17750000D02*
X25000000Y-17750000D01*
%TO.N,GND*%
X75500000Y-108250000D02*
X103500000Y-108250000D01*
%TO.N,+3.3V*%
X32000000Y-104750000D02*
X47000000Y-104750000D01*
X82000000Y-76750000D02*
X97000000Y-76750000D01*
X22000000Y-48750000D02*
X22000000Y-20750000D01*
%TO.N,GND*%
X107000000Y-104750000D02*
X107000000Y-76750000D01*
%TO.N,+3.3V*%
X97000000Y-58750000D02*
X107000000Y-48750000D01*
X74500000Y-18250000D02*
X104500000Y-18250000D01*
%TO.N,GND*%
X72000000Y-76750000D02*
X97000000Y-51750000D01*
X22000000Y-76750000D02*
X22000000Y-104750000D01*
%TO.N,+3.3V*%
X107000000Y-48750000D02*
X107000000Y-20750000D01*
%TO.N,GND*%
X57000000Y-104750000D02*
X72000000Y-104750000D01*
X82000000Y-48750000D02*
X97000000Y-48750000D01*
X72000000Y-104750000D02*
X75500000Y-108250000D01*
%TO.N,+3.3V*%
X97000000Y-76750000D02*
X97000000Y-104750000D01*
X82000000Y-104750000D02*
X97000000Y-104750000D01*
%TO.N,GND*%
X79750000Y-51000000D02*
X82000000Y-48750000D01*
X22000000Y-76750000D02*
X22000000Y-73750000D01*
%TO.N,+3.3V*%
X57000000Y-20750000D02*
X72000000Y-20750000D01*
%TO.N,GND*%
X97000000Y-51750000D02*
X97000000Y-48750000D01*
X103500000Y-108250000D02*
X107000000Y-104750000D01*
%TD*%
M02*
