%TF.GenerationSoftware,KiCad,Pcbnew,10.0.0*%
%TF.CreationDate,2026-06-20T16:59:38-04:00*%
%TF.ProjectId,DJ but to separate PCBs,444a2062-7574-4207-946f-207365706172,rev?*%
%TF.SameCoordinates,Original*%
%TF.FileFunction,Legend,Bot*%
%TF.FilePolarity,Positive*%
%FSLAX46Y46*%
G04 Gerber Fmt 4.6, Leading zero omitted, Abs format (unit mm)*
G04 Created by KiCad (PCBNEW 10.0.0) date 2026-06-20 16:59:38*
%MOMM*%
%LPD*%
G01*
G04 APERTURE LIST*
%ADD10C,0.100000*%
%ADD11C,0.150000*%
G04 APERTURE END LIST*
D10*
X18750000Y-16500000D02*
X31750000Y-16500000D01*
X31750000Y-20500000D01*
X18750000Y-20500000D01*
X18750000Y-16500000D01*
X22000000Y-16500000D02*
X22000000Y-20500000D01*
X25250000Y-16500000D02*
X25250000Y-20500000D01*
X28500000Y-16500000D02*
X28500000Y-20500000D01*
X17112180Y-24833333D02*
X17159800Y-24785714D01*
X17159800Y-24785714D02*
X17207419Y-24642857D01*
X17207419Y-24642857D02*
X17207419Y-24547619D01*
X17207419Y-24547619D02*
X17159800Y-24404762D01*
X17159800Y-24404762D02*
X17064561Y-24309524D01*
X17064561Y-24309524D02*
X16969323Y-24261905D01*
X16969323Y-24261905D02*
X16778847Y-24214286D01*
X16778847Y-24214286D02*
X16635990Y-24214286D01*
X16635990Y-24214286D02*
X16445514Y-24261905D01*
X16445514Y-24261905D02*
X16350276Y-24309524D01*
X16350276Y-24309524D02*
X16255038Y-24404762D01*
X16255038Y-24404762D02*
X16207419Y-24547619D01*
X16207419Y-24547619D02*
X16207419Y-24642857D01*
X16207419Y-24642857D02*
X16255038Y-24785714D01*
X16255038Y-24785714D02*
X16302657Y-24833333D01*
X16635990Y-25404762D02*
X16588371Y-25309524D01*
X16588371Y-25309524D02*
X16540752Y-25261905D01*
X16540752Y-25261905D02*
X16445514Y-25214286D01*
X16445514Y-25214286D02*
X16397895Y-25214286D01*
X16397895Y-25214286D02*
X16302657Y-25261905D01*
X16302657Y-25261905D02*
X16255038Y-25309524D01*
X16255038Y-25309524D02*
X16207419Y-25404762D01*
X16207419Y-25404762D02*
X16207419Y-25595238D01*
X16207419Y-25595238D02*
X16255038Y-25690476D01*
X16255038Y-25690476D02*
X16302657Y-25738095D01*
X16302657Y-25738095D02*
X16397895Y-25785714D01*
X16397895Y-25785714D02*
X16445514Y-25785714D01*
X16445514Y-25785714D02*
X16540752Y-25738095D01*
X16540752Y-25738095D02*
X16588371Y-25690476D01*
X16588371Y-25690476D02*
X16635990Y-25595238D01*
X16635990Y-25595238D02*
X16635990Y-25404762D01*
X16635990Y-25404762D02*
X16683609Y-25309524D01*
X16683609Y-25309524D02*
X16731228Y-25261905D01*
X16731228Y-25261905D02*
X16826466Y-25214286D01*
X16826466Y-25214286D02*
X17016942Y-25214286D01*
X17016942Y-25214286D02*
X17112180Y-25261905D01*
X17112180Y-25261905D02*
X17159800Y-25309524D01*
X17159800Y-25309524D02*
X17207419Y-25404762D01*
X17207419Y-25404762D02*
X17207419Y-25595238D01*
X17207419Y-25595238D02*
X17159800Y-25690476D01*
X17159800Y-25690476D02*
X17112180Y-25738095D01*
X17112180Y-25738095D02*
X17016942Y-25785714D01*
X17016942Y-25785714D02*
X16826466Y-25785714D01*
X16826466Y-25785714D02*
X16731228Y-25738095D01*
X16731228Y-25738095D02*
X16683609Y-25690476D01*
X16683609Y-25690476D02*
X16635990Y-25595238D01*
D11*
X27181009Y-17095238D02*
X27228628Y-17238095D01*
X27228628Y-17238095D02*
X27276247Y-17285714D01*
X27276247Y-17285714D02*
X27371485Y-17333333D01*
X27371485Y-17333333D02*
X27514342Y-17333333D01*
X27514342Y-17333333D02*
X27609580Y-17285714D01*
X27609580Y-17285714D02*
X27657200Y-17238095D01*
X27657200Y-17238095D02*
X27704819Y-17142857D01*
X27704819Y-17142857D02*
X27704819Y-16761905D01*
X27704819Y-16761905D02*
X26704819Y-16761905D01*
X26704819Y-16761905D02*
X26704819Y-17095238D01*
X26704819Y-17095238D02*
X26752438Y-17190476D01*
X26752438Y-17190476D02*
X26800057Y-17238095D01*
X26800057Y-17238095D02*
X26895295Y-17285714D01*
X26895295Y-17285714D02*
X26990533Y-17285714D01*
X26990533Y-17285714D02*
X27085771Y-17238095D01*
X27085771Y-17238095D02*
X27133390Y-17190476D01*
X27133390Y-17190476D02*
X27181009Y-17095238D01*
X27181009Y-17095238D02*
X27181009Y-16761905D01*
X27704819Y-18285714D02*
X27704819Y-17714286D01*
X27704819Y-18000000D02*
X26704819Y-18000000D01*
X26704819Y-18000000D02*
X26847676Y-17904762D01*
X26847676Y-17904762D02*
X26942914Y-17809524D01*
X26942914Y-17809524D02*
X26990533Y-17714286D01*
X19752438Y-17261904D02*
X19704819Y-17166666D01*
X19704819Y-17166666D02*
X19704819Y-17023809D01*
X19704819Y-17023809D02*
X19752438Y-16880952D01*
X19752438Y-16880952D02*
X19847676Y-16785714D01*
X19847676Y-16785714D02*
X19942914Y-16738095D01*
X19942914Y-16738095D02*
X20133390Y-16690476D01*
X20133390Y-16690476D02*
X20276247Y-16690476D01*
X20276247Y-16690476D02*
X20466723Y-16738095D01*
X20466723Y-16738095D02*
X20561961Y-16785714D01*
X20561961Y-16785714D02*
X20657200Y-16880952D01*
X20657200Y-16880952D02*
X20704819Y-17023809D01*
X20704819Y-17023809D02*
X20704819Y-17119047D01*
X20704819Y-17119047D02*
X20657200Y-17261904D01*
X20657200Y-17261904D02*
X20609580Y-17309523D01*
X20609580Y-17309523D02*
X20276247Y-17309523D01*
X20276247Y-17309523D02*
X20276247Y-17119047D01*
X20704819Y-17738095D02*
X19704819Y-17738095D01*
X19704819Y-17738095D02*
X20704819Y-18309523D01*
X20704819Y-18309523D02*
X19704819Y-18309523D01*
X20704819Y-18785714D02*
X19704819Y-18785714D01*
X19704819Y-18785714D02*
X19704819Y-19023809D01*
X19704819Y-19023809D02*
X19752438Y-19166666D01*
X19752438Y-19166666D02*
X19847676Y-19261904D01*
X19847676Y-19261904D02*
X19942914Y-19309523D01*
X19942914Y-19309523D02*
X20133390Y-19357142D01*
X20133390Y-19357142D02*
X20276247Y-19357142D01*
X20276247Y-19357142D02*
X20466723Y-19309523D01*
X20466723Y-19309523D02*
X20561961Y-19261904D01*
X20561961Y-19261904D02*
X20657200Y-19166666D01*
X20657200Y-19166666D02*
X20704819Y-19023809D01*
X20704819Y-19023809D02*
X20704819Y-18785714D01*
X20704819Y-20309523D02*
X20704819Y-19738095D01*
X20704819Y-20023809D02*
X19704819Y-20023809D01*
X19704819Y-20023809D02*
X19847676Y-19928571D01*
X19847676Y-19928571D02*
X19942914Y-19833333D01*
X19942914Y-19833333D02*
X19990533Y-19738095D01*
X22954819Y-16690476D02*
X23954819Y-17023809D01*
X23954819Y-17023809D02*
X22954819Y-17357142D01*
X23954819Y-17690476D02*
X22954819Y-17690476D01*
X22954819Y-17690476D02*
X22954819Y-17928571D01*
X22954819Y-17928571D02*
X23002438Y-18071428D01*
X23002438Y-18071428D02*
X23097676Y-18166666D01*
X23097676Y-18166666D02*
X23192914Y-18214285D01*
X23192914Y-18214285D02*
X23383390Y-18261904D01*
X23383390Y-18261904D02*
X23526247Y-18261904D01*
X23526247Y-18261904D02*
X23716723Y-18214285D01*
X23716723Y-18214285D02*
X23811961Y-18166666D01*
X23811961Y-18166666D02*
X23907200Y-18071428D01*
X23907200Y-18071428D02*
X23954819Y-17928571D01*
X23954819Y-17928571D02*
X23954819Y-17690476D01*
X23954819Y-18690476D02*
X22954819Y-18690476D01*
X22954819Y-18690476D02*
X22954819Y-18928571D01*
X22954819Y-18928571D02*
X23002438Y-19071428D01*
X23002438Y-19071428D02*
X23097676Y-19166666D01*
X23097676Y-19166666D02*
X23192914Y-19214285D01*
X23192914Y-19214285D02*
X23383390Y-19261904D01*
X23383390Y-19261904D02*
X23526247Y-19261904D01*
X23526247Y-19261904D02*
X23716723Y-19214285D01*
X23716723Y-19214285D02*
X23811961Y-19166666D01*
X23811961Y-19166666D02*
X23907200Y-19071428D01*
X23907200Y-19071428D02*
X23954819Y-18928571D01*
X23954819Y-18928571D02*
X23954819Y-18690476D01*
X23954819Y-20214285D02*
X23954819Y-19642857D01*
X23954819Y-19928571D02*
X22954819Y-19928571D01*
X22954819Y-19928571D02*
X23097676Y-19833333D01*
X23097676Y-19833333D02*
X23192914Y-19738095D01*
X23192914Y-19738095D02*
X23240533Y-19642857D01*
X30419104Y-16785714D02*
X30419104Y-17261904D01*
X30704819Y-16690476D02*
X29704819Y-17023809D01*
X29704819Y-17023809D02*
X30704819Y-17357142D01*
X29800057Y-17642857D02*
X29752438Y-17690476D01*
X29752438Y-17690476D02*
X29704819Y-17785714D01*
X29704819Y-17785714D02*
X29704819Y-18023809D01*
X29704819Y-18023809D02*
X29752438Y-18119047D01*
X29752438Y-18119047D02*
X29800057Y-18166666D01*
X29800057Y-18166666D02*
X29895295Y-18214285D01*
X29895295Y-18214285D02*
X29990533Y-18214285D01*
X29990533Y-18214285D02*
X30133390Y-18166666D01*
X30133390Y-18166666D02*
X30704819Y-17595238D01*
X30704819Y-17595238D02*
X30704819Y-18214285D01*
%TO.C,C8*%
D10*
X18250000Y-22500000D02*
X21250000Y-22500000D01*
X21250000Y-27500000D01*
X18250000Y-27500000D01*
X18250000Y-22500000D01*
%TD*%
M02*
