%TF.GenerationSoftware,KiCad,Pcbnew,10.0.0*%
%TF.CreationDate,2026-06-20T16:59:38-04:00*%
%TF.ProjectId,DJ but to separate PCBs,444a2062-7574-4207-946f-207365706172,rev?*%
%TF.SameCoordinates,Original*%
%TF.FileFunction,Legend,Top*%
%TF.FilePolarity,Positive*%
%FSLAX46Y46*%
G04 Gerber Fmt 4.6, Leading zero omitted, Abs format (unit mm)*
G04 Created by KiCad (PCBNEW 10.0.0) date 2026-06-20 16:59:38*
%MOMM*%
%LPD*%
G01*
G04 APERTURE LIST*
%ADD10C,0.150000*%
%ADD11C,0.120000*%
G04 APERTURE END LIST*
D10*
X24988095Y-21054819D02*
X24988095Y-21864342D01*
X24988095Y-21864342D02*
X25035714Y-21959580D01*
X25035714Y-21959580D02*
X25083333Y-22007200D01*
X25083333Y-22007200D02*
X25178571Y-22054819D01*
X25178571Y-22054819D02*
X25369047Y-22054819D01*
X25369047Y-22054819D02*
X25464285Y-22007200D01*
X25464285Y-22007200D02*
X25511904Y-21959580D01*
X25511904Y-21959580D02*
X25559523Y-21864342D01*
X25559523Y-21864342D02*
X25559523Y-21054819D01*
X26083333Y-22054819D02*
X26273809Y-22054819D01*
X26273809Y-22054819D02*
X26369047Y-22007200D01*
X26369047Y-22007200D02*
X26416666Y-21959580D01*
X26416666Y-21959580D02*
X26511904Y-21816723D01*
X26511904Y-21816723D02*
X26559523Y-21626247D01*
X26559523Y-21626247D02*
X26559523Y-21245295D01*
X26559523Y-21245295D02*
X26511904Y-21150057D01*
X26511904Y-21150057D02*
X26464285Y-21102438D01*
X26464285Y-21102438D02*
X26369047Y-21054819D01*
X26369047Y-21054819D02*
X26178571Y-21054819D01*
X26178571Y-21054819D02*
X26083333Y-21102438D01*
X26083333Y-21102438D02*
X26035714Y-21150057D01*
X26035714Y-21150057D02*
X25988095Y-21245295D01*
X25988095Y-21245295D02*
X25988095Y-21483390D01*
X25988095Y-21483390D02*
X26035714Y-21578628D01*
X26035714Y-21578628D02*
X26083333Y-21626247D01*
X26083333Y-21626247D02*
X26178571Y-21673866D01*
X26178571Y-21673866D02*
X26369047Y-21673866D01*
X26369047Y-21673866D02*
X26464285Y-21626247D01*
X26464285Y-21626247D02*
X26511904Y-21578628D01*
X26511904Y-21578628D02*
X26559523Y-21483390D01*
%TO.C,U9*%
D11*
X23690000Y-22440000D02*
X27810000Y-22440000D01*
X23690000Y-22535000D02*
X23690000Y-22440000D01*
X23690000Y-27560000D02*
X23690000Y-27465000D01*
X27810000Y-22440000D02*
X27810000Y-22535000D01*
X27810000Y-27465000D02*
X27810000Y-27560000D01*
X27810000Y-27560000D02*
X23690000Y-27560000D01*
X23150000Y-22530000D02*
X22910000Y-22200000D01*
X23390000Y-22200000D01*
X23150000Y-22530000D01*
G36*
X23150000Y-22530000D02*
G01*
X22910000Y-22200000D01*
X23390000Y-22200000D01*
X23150000Y-22530000D01*
G37*
%TD*%
M02*
