%TF.GenerationSoftware,KiCad,Pcbnew,10.0.0*%
%TF.CreationDate,2026-06-20T17:03:39-04:00*%
%TF.ProjectId,DJ but to separate PCBs,444a2062-7574-4207-946f-207365706172,rev?*%
%TF.SameCoordinates,Original*%
%TF.FileFunction,Copper,L1,Top*%
%TF.FilePolarity,Positive*%
%FSLAX46Y46*%
G04 Gerber Fmt 4.6, Leading zero omitted, Abs format (unit mm)*
G04 Created by KiCad (PCBNEW 10.0.0) date 2026-06-20 17:03:39*
%MOMM*%
%LPD*%
G01*
G04 APERTURE LIST*
G04 Aperture macros list*
%AMRoundRect*
0 Rectangle with rounded corners*
0 $1 Rounding radius*
0 $2 $3 $4 $5 $6 $7 $8 $9 X,Y pos of 4 corners*
0 Add a 4 corners polygon primitive as box body*
4,1,4,$2,$3,$4,$5,$6,$7,$8,$9,$2,$3,0*
0 Add four circle primitives for the rounded corners*
1,1,$1+$1,$2,$3*
1,1,$1+$1,$4,$5*
1,1,$1+$1,$6,$7*
1,1,$1+$1,$8,$9*
0 Add four rect primitives between the rounded corners*
20,1,$1+$1,$2,$3,$4,$5,0*
20,1,$1+$1,$4,$5,$6,$7,0*
20,1,$1+$1,$6,$7,$8,$9,0*
20,1,$1+$1,$8,$9,$2,$3,0*%
G04 Aperture macros list end*
%TA.AperFunction,SMDPad,CuDef*%
%ADD10RoundRect,0.090000X-0.660000X-0.360000X0.660000X-0.360000X0.660000X0.360000X-0.660000X0.360000X0*%
%TD*%
%TA.AperFunction,ComponentPad*%
%ADD11C,2.000000*%
%TD*%
%TA.AperFunction,ComponentPad*%
%ADD12C,2.540000*%
%TD*%
%TA.AperFunction,ViaPad*%
%ADD13C,0.600000*%
%TD*%
%TA.AperFunction,Conductor*%
%ADD14C,0.300000*%
%TD*%
G04 APERTURE END LIST*
D10*
%TO.P,D5,1,VDD_1*%
%TO.N,+5V*%
X137800000Y-25950000D03*
%TO.P,D5,2,DOUT_2*%
%TO.N,Net-(D5-DOUT)*%
X137800000Y-29250000D03*
%TO.P,D5,3,VSS_3*%
%TO.N,GND*%
X142700000Y-29250000D03*
%TO.P,D5,4,DIN_4*%
%TO.N,Net-(D4-DOUT)*%
X142700000Y-25950000D03*
%TD*%
D11*
%TO.P,R35,1*%
%TO.N,/Performance Pads I2C/SW_L7*%
X121750000Y-65000000D03*
%TO.P,R35,2*%
%TO.N,+5V*%
X121750000Y-56400000D03*
%TD*%
D10*
%TO.P,D6,1,VDD_1*%
%TO.N,+5V*%
X137800000Y-53950000D03*
%TO.P,D6,2,DOUT_2*%
%TO.N,Net-(D6-DOUT)*%
X137800000Y-57250000D03*
%TO.P,D6,3,VSS_3*%
%TO.N,GND*%
X142700000Y-57250000D03*
%TO.P,D6,4,DIN_4*%
%TO.N,Net-(D5-DOUT)*%
X142700000Y-53950000D03*
%TD*%
D12*
%TO.P,SW15,1,1_1*%
%TO.N,GND*%
X134000000Y-34250000D03*
X146500000Y-34250000D03*
%TO.P,SW15,2,2_2*%
%TO.N,/Performance Pads I2C/SW_L4*%
X134000000Y-39250000D03*
X146500000Y-39250000D03*
%TD*%
D11*
%TO.P,R12,1*%
%TO.N,+5V*%
X30750000Y-58150000D03*
%TO.P,R12,2*%
%TO.N,/Performance Pads I2C/PlayA*%
X30750000Y-66750000D03*
%TD*%
D10*
%TO.P,D9,1,VDD_1*%
%TO.N,+5V*%
X53800000Y-53950000D03*
%TO.P,D9,2,DOUT_2*%
%TO.N,Net-(D10-DIN)*%
X53800000Y-57250000D03*
%TO.P,D9,3,VSS_3*%
%TO.N,GND*%
X58700000Y-57250000D03*
%TO.P,D9,4,DIN_4*%
%TO.N,Net-(D8-DOUT)*%
X58700000Y-53950000D03*
%TD*%
D12*
%TO.P,SW10,1,1_1*%
%TO.N,GND*%
X50000000Y-62250000D03*
X62500000Y-62250000D03*
%TO.P,SW10,2,2_2*%
%TO.N,/Performance Pads I2C/SW_L5*%
X50000000Y-67250000D03*
X62500000Y-67250000D03*
%TD*%
D11*
%TO.P,R30,1*%
%TO.N,/Performance Pads I2C/SW_L2*%
X74750000Y-37000000D03*
%TO.P,R30,2*%
%TO.N,+5V*%
X74750000Y-28400000D03*
%TD*%
D12*
%TO.P,SW9,1,1_1*%
%TO.N,GND*%
X50000000Y-34250000D03*
X62500000Y-34250000D03*
%TO.P,SW9,2,2_2*%
%TO.N,/Performance Pads I2C/SW_L1*%
X50000000Y-39250000D03*
X62500000Y-39250000D03*
%TD*%
%TO.P,SW16,1,1_1*%
%TO.N,GND*%
X134000000Y-62250000D03*
X146500000Y-62250000D03*
%TO.P,SW16,2,2_2*%
%TO.N,/Performance Pads I2C/SW_L8*%
X134000000Y-67250000D03*
X146500000Y-67250000D03*
%TD*%
D10*
%TO.P,D7,1,VDD_1*%
%TO.N,+5V*%
X109800000Y-53950000D03*
%TO.P,D7,2,DOUT_2*%
%TO.N,Net-(D7-DOUT)*%
X109800000Y-57250000D03*
%TO.P,D7,3,VSS_3*%
%TO.N,GND*%
X114700000Y-57250000D03*
%TO.P,D7,4,DIN_4*%
%TO.N,Net-(D6-DOUT)*%
X114700000Y-53950000D03*
%TD*%
D11*
%TO.P,C3,1*%
%TO.N,+5V*%
X97750000Y-35000000D03*
%TO.P,C3,2*%
%TO.N,GND*%
X102750000Y-35000000D03*
%TD*%
D12*
%TO.P,SW12,1,1_1*%
%TO.N,GND*%
X78000000Y-62250000D03*
X90500000Y-62250000D03*
%TO.P,SW12,2,2_2*%
%TO.N,/Performance Pads I2C/SW_L6*%
X78000000Y-67250000D03*
X90500000Y-67250000D03*
%TD*%
D11*
%TO.P,C6,1*%
%TO.N,+5V*%
X31000000Y-22500000D03*
%TO.P,C6,2*%
%TO.N,GND*%
X26000000Y-22500000D03*
%TD*%
D12*
%TO.P,SW30,1,1_1*%
%TO.N,GND*%
X15000000Y-63250000D03*
X27500000Y-63250000D03*
%TO.P,SW30,2,2_2*%
%TO.N,/Performance Pads I2C/PlayA*%
X15000000Y-68250000D03*
X27500000Y-68250000D03*
%TD*%
%TO.P,SW11,1,1_1*%
%TO.N,GND*%
X78000000Y-34250000D03*
X90500000Y-34250000D03*
%TO.P,SW11,2,2_2*%
%TO.N,/Performance Pads I2C/SW_L2*%
X78000000Y-39250000D03*
X90500000Y-39250000D03*
%TD*%
D11*
%TO.P,R34,1*%
%TO.N,/Performance Pads I2C/SW_L6*%
X74750000Y-65000000D03*
%TO.P,R34,2*%
%TO.N,+5V*%
X74750000Y-56400000D03*
%TD*%
%TO.P,R32,1*%
%TO.N,/Performance Pads I2C/SW_L4*%
X130750000Y-37000000D03*
%TO.P,R32,2*%
%TO.N,+5V*%
X130750000Y-28400000D03*
%TD*%
D10*
%TO.P,D4,1,VDD_1*%
%TO.N,+5V*%
X109800000Y-25950000D03*
%TO.P,D4,2,DOUT_2*%
%TO.N,Net-(D4-DOUT)*%
X109800000Y-29250000D03*
%TO.P,D4,3,VSS_3*%
%TO.N,GND*%
X114700000Y-29250000D03*
%TO.P,D4,4,DIN_4*%
%TO.N,Net-(D3-DOUT)*%
X114700000Y-25950000D03*
%TD*%
D11*
%TO.P,R16,1*%
%TO.N,+5V*%
X132000000Y-18500000D03*
%TO.P,R16,2*%
%TO.N,/Performance Pads I2C/PModeA*%
X140600000Y-18500000D03*
%TD*%
D12*
%TO.P,RV2,1,1_1*%
%TO.N,+3.3V*%
X170500000Y-76500000D03*
%TO.P,RV2,2,2_2*%
%TO.N,Net-(Fader1-Pad1)*%
X174000000Y-76500000D03*
%TO.P,RV2,3,3_3*%
%TO.N,GND*%
X170500000Y-18000000D03*
%TD*%
D10*
%TO.P,D8,1,VDD_1*%
%TO.N,+5V*%
X81800000Y-53950000D03*
%TO.P,D8,2,DOUT_2*%
%TO.N,Net-(D8-DOUT)*%
X81800000Y-57250000D03*
%TO.P,D8,3,VSS_3*%
%TO.N,GND*%
X86700000Y-57250000D03*
%TO.P,D8,4,DIN_4*%
%TO.N,Net-(D7-DOUT)*%
X86700000Y-53950000D03*
%TD*%
D11*
%TO.P,R29,1*%
%TO.N,/Performance Pads I2C/SW_L1*%
X65750000Y-37000000D03*
%TO.P,R29,2*%
%TO.N,+5V*%
X65750000Y-28400000D03*
%TD*%
D12*
%TO.P,SW14,1,1_1*%
%TO.N,GND*%
X106000000Y-34250000D03*
X118500000Y-34250000D03*
%TO.P,SW14,2,2_2*%
%TO.N,/Performance Pads I2C/SW_L3*%
X106000000Y-39250000D03*
X118500000Y-39250000D03*
%TD*%
D11*
%TO.P,R31,1*%
%TO.N,/Performance Pads I2C/SW_L3*%
X121750000Y-37000000D03*
%TO.P,R31,2*%
%TO.N,+5V*%
X121750000Y-28400000D03*
%TD*%
D10*
%TO.P,D3,1,VDD_1*%
%TO.N,+5V*%
X81800000Y-25950000D03*
%TO.P,D3,2,DOUT_2*%
%TO.N,Net-(D3-DOUT)*%
X81800000Y-29250000D03*
%TO.P,D3,3,VSS_3*%
%TO.N,GND*%
X86700000Y-29250000D03*
%TO.P,D3,4,DIN_4*%
%TO.N,Net-(D2-DOUT)*%
X86700000Y-25950000D03*
%TD*%
%TO.P,D2,1,VDD_1*%
%TO.N,+5V*%
X53800000Y-25950000D03*
%TO.P,D2,2,DOUT_2*%
%TO.N,Net-(D2-DOUT)*%
X53800000Y-29250000D03*
%TO.P,D2,3,VSS_3*%
%TO.N,GND*%
X58700000Y-29250000D03*
%TO.P,D2,4,DIN_4*%
%TO.N,Net-(D1-DOUT)*%
X58700000Y-25950000D03*
%TD*%
%TO.P,D10,1,VDD_1*%
%TO.N,+5V*%
X18800000Y-54950000D03*
%TO.P,D10,2,DOUT_2*%
%TO.N,unconnected-(D10-DOUT-Pad2)*%
X18800000Y-58250000D03*
%TO.P,D10,3,VSS_3*%
%TO.N,GND*%
X23700000Y-58250000D03*
%TO.P,D10,4,DIN_4*%
%TO.N,Net-(D10-DIN)*%
X23700000Y-54950000D03*
%TD*%
D12*
%TO.P,SW13,1,1_1*%
%TO.N,GND*%
X106000000Y-62250000D03*
X118500000Y-62250000D03*
%TO.P,SW13,2,2_2*%
%TO.N,/Performance Pads I2C/SW_L7*%
X106000000Y-67250000D03*
X118500000Y-67250000D03*
%TD*%
D11*
%TO.P,R36,1*%
%TO.N,/Performance Pads I2C/SW_L8*%
X130750000Y-65250000D03*
%TO.P,R36,2*%
%TO.N,+5V*%
X130750000Y-56650000D03*
%TD*%
D12*
%TO.P,SW33,1,1_1*%
%TO.N,GND*%
X15000000Y-33250000D03*
X27500000Y-33250000D03*
%TO.P,SW33,2,2_2*%
%TO.N,/Performance Pads I2C/CueA*%
X15000000Y-38250000D03*
X27500000Y-38250000D03*
%TD*%
D11*
%TO.P,R33,1*%
%TO.N,/Performance Pads I2C/SW_L5*%
X65750000Y-65000000D03*
%TO.P,R33,2*%
%TO.N,+5V*%
X65750000Y-56400000D03*
%TD*%
%TO.P,SW23,1,1_1*%
%TO.N,GND*%
X144500000Y-14000000D03*
X151000000Y-14000000D03*
%TO.P,SW23,2,2_2*%
%TO.N,/Performance Pads I2C/PModeA*%
X144500000Y-18500000D03*
X151000000Y-18500000D03*
%TD*%
D10*
%TO.P,D1,1,VDD_1*%
%TO.N,+5V*%
X18800000Y-24950000D03*
%TO.P,D1,2,DOUT_2*%
%TO.N,Net-(D1-DOUT)*%
X18800000Y-28250000D03*
%TO.P,D1,3,VSS_3*%
%TO.N,GND*%
X23700000Y-28250000D03*
%TO.P,D1,4,DIN_4*%
%TO.N,Net-(D1-DIN)*%
X23700000Y-24950000D03*
%TD*%
D11*
%TO.P,R14,1*%
%TO.N,+5V*%
X30750000Y-28150000D03*
%TO.P,R14,2*%
%TO.N,/Performance Pads I2C/CueA*%
X30750000Y-36750000D03*
%TD*%
D13*
%TO.N,Net-(D1-DIN)*%
X23750000Y-19250000D03*
%TO.N,GND*%
X96800000Y-40875748D03*
X27500000Y-28250000D03*
%TO.N,+5V*%
X105000000Y-41750000D03*
%TD*%
%TO.N,GND*%
D14*
X58700000Y-58450000D02*
X58700000Y-57250000D01*
%TO.N,Net-(D1-DIN)*%
X23750000Y-19250000D02*
X23700000Y-19300000D01*
%TO.N,GND*%
X17500000Y-35750000D02*
X17500000Y-41000000D01*
%TO.N,+5V*%
X83500000Y-52250000D02*
X81800000Y-53950000D01*
%TO.N,GND*%
X49000000Y-63250000D02*
X50000000Y-62250000D01*
%TO.N,Net-(D1-DIN)*%
X23700000Y-19300000D02*
X23700000Y-24950000D01*
%TO.N,+5V*%
X18800000Y-33300000D02*
X15750000Y-30250000D01*
X117600000Y-52250000D02*
X111500000Y-52250000D01*
%TO.N,GND*%
X142700000Y-58450000D02*
X142700000Y-57250000D01*
X118500000Y-62250000D02*
X134000000Y-62250000D01*
%TO.N,Net-(D7-DOUT)*%
X109800000Y-57250000D02*
X90000000Y-57250000D01*
%TO.N,GND*%
X15000000Y-43500000D02*
X15000000Y-63250000D01*
%TO.N,Net-(D3-DOUT)*%
X113400000Y-27250000D02*
X114700000Y-25950000D01*
%TO.N,Net-(D5-DOUT)*%
X142700000Y-34150000D02*
X142700000Y-53950000D01*
%TO.N,GND*%
X148250000Y-23700000D02*
X148250000Y-16750000D01*
%TO.N,+5V*%
X82900000Y-24850000D02*
X108700000Y-24850000D01*
X30750000Y-28150000D02*
X32950000Y-25950000D01*
%TO.N,GND*%
X90500000Y-34250000D02*
X86700000Y-30450000D01*
%TO.N,Net-(D2-DOUT)*%
X81930988Y-27050000D02*
X82868630Y-27050000D01*
%TO.N,+5V*%
X18800000Y-54950000D02*
X18800000Y-33300000D01*
%TO.N,Net-(D3-DOUT)*%
X81800000Y-29250000D02*
X83800000Y-27250000D01*
%TO.N,+5V*%
X20600000Y-26750000D02*
X29350000Y-26750000D01*
%TO.N,Net-(D2-DOUT)*%
X82868630Y-27050000D02*
X83968630Y-25950000D01*
%TO.N,Net-(D1-DOUT)*%
X57150000Y-27500000D02*
X58700000Y-25950000D01*
%TO.N,+5V*%
X109800000Y-53950000D02*
X108100000Y-52250000D01*
%TO.N,Net-(D6-DOUT)*%
X137800000Y-57250000D02*
X136550000Y-58500000D01*
%TO.N,Net-(D1-DOUT)*%
X20350000Y-29800000D02*
X48450000Y-29800000D01*
%TO.N,Net-(D6-DOUT)*%
X136550000Y-58500000D02*
X119250000Y-58500000D01*
%TO.N,GND*%
X118500000Y-34250000D02*
X114700000Y-30450000D01*
%TO.N,+5V*%
X20750000Y-53000000D02*
X52850000Y-53000000D01*
%TO.N,GND*%
X118500000Y-62250000D02*
X114700000Y-58450000D01*
%TO.N,+5V*%
X61600000Y-52250000D02*
X55500000Y-52250000D01*
%TO.N,Net-(D8-DOUT)*%
X81800000Y-57250000D02*
X80800000Y-58250000D01*
%TO.N,GND*%
X90500000Y-62250000D02*
X86700000Y-58450000D01*
%TO.N,+5V*%
X53800000Y-25950000D02*
X54900000Y-24850000D01*
%TO.N,Net-(D2-DOUT)*%
X57890685Y-27890685D02*
X60890685Y-27890685D01*
X60890685Y-27890685D02*
X63500000Y-30500000D01*
%TO.N,+5V*%
X55500000Y-52250000D02*
X53800000Y-53950000D01*
%TO.N,Net-(D2-DOUT)*%
X53800000Y-29250000D02*
X56531371Y-29250000D01*
%TO.N,+5V*%
X20600000Y-56750000D02*
X18800000Y-54950000D01*
X121750000Y-28400000D02*
X117600000Y-24250000D01*
%TO.N,Net-(D3-DOUT)*%
X83800000Y-27250000D02*
X113400000Y-27250000D01*
%TO.N,+5V*%
X121750000Y-56400000D02*
X117600000Y-52250000D01*
X122000000Y-56650000D02*
X121750000Y-56400000D01*
%TO.N,GND*%
X142700000Y-29250000D02*
X148250000Y-23700000D01*
%TO.N,+5V*%
X132000000Y-27150000D02*
X132000000Y-18500000D01*
%TO.N,GND*%
X159250000Y-29250000D02*
X170500000Y-18000000D01*
%TO.N,+5V*%
X133200000Y-25950000D02*
X130750000Y-28400000D01*
%TO.N,GND*%
X148250000Y-16750000D02*
X151000000Y-14000000D01*
%TO.N,+5V*%
X105000000Y-41750000D02*
X107000000Y-41750000D01*
X15750000Y-28000000D02*
X18800000Y-24950000D01*
%TO.N,GND*%
X62500000Y-62250000D02*
X58700000Y-58450000D01*
%TO.N,+5V*%
X74750000Y-56400000D02*
X65750000Y-56400000D01*
X18800000Y-54950000D02*
X20750000Y-53000000D01*
%TO.N,GND*%
X23700000Y-28250000D02*
X27500000Y-28250000D01*
X100625000Y-37125000D02*
X102750000Y-35000000D01*
%TO.N,Net-(D1-DOUT)*%
X48450000Y-29800000D02*
X50750000Y-27500000D01*
%TO.N,GND*%
X146500000Y-62250000D02*
X142700000Y-58450000D01*
%TO.N,+5V*%
X30750000Y-58150000D02*
X29350000Y-56750000D01*
X130750000Y-56650000D02*
X122000000Y-56650000D01*
X29350000Y-56750000D02*
X20600000Y-56750000D01*
X109500000Y-33050000D02*
X104600000Y-28150000D01*
%TO.N,Net-(D5-DOUT)*%
X137800000Y-29250000D02*
X142700000Y-34150000D01*
%TO.N,+5V*%
X29350000Y-26750000D02*
X30750000Y-28150000D01*
%TO.N,Net-(D2-DOUT)*%
X78480988Y-30500000D02*
X81930988Y-27050000D01*
%TO.N,+5V*%
X113250000Y-24250000D02*
X111550000Y-25950000D01*
%TO.N,Net-(D2-DOUT)*%
X56531371Y-29250000D02*
X57890685Y-27890685D01*
%TO.N,+5V*%
X108100000Y-52250000D02*
X83500000Y-52250000D01*
X130750000Y-28400000D02*
X121750000Y-28400000D01*
X65750000Y-56400000D02*
X61600000Y-52250000D01*
%TO.N,GND*%
X17500000Y-41000000D02*
X15000000Y-43500000D01*
%TO.N,+5V*%
X65750000Y-28400000D02*
X74750000Y-28400000D01*
%TO.N,GND*%
X15000000Y-33250000D02*
X17500000Y-35750000D01*
X62500000Y-62250000D02*
X78000000Y-62250000D01*
X142700000Y-30450000D02*
X142700000Y-29250000D01*
%TO.N,Net-(D6-DOUT)*%
X119250000Y-58500000D02*
X114700000Y-53950000D01*
%TO.N,Net-(D1-DOUT)*%
X18800000Y-28250000D02*
X20350000Y-29800000D01*
%TO.N,+5V*%
X32950000Y-25950000D02*
X53800000Y-25950000D01*
X137800000Y-25950000D02*
X133200000Y-25950000D01*
X121500000Y-28150000D02*
X121750000Y-28400000D01*
%TO.N,GND*%
X97000000Y-40750000D02*
X100625000Y-37125000D01*
%TO.N,+5V*%
X117600000Y-24250000D02*
X113250000Y-24250000D01*
%TO.N,Net-(D10-DIN)*%
X53800000Y-57250000D02*
X51500000Y-54950000D01*
%TO.N,+5V*%
X74750000Y-28400000D02*
X74850000Y-28400000D01*
%TO.N,GND*%
X58700000Y-30450000D02*
X58700000Y-29250000D01*
%TO.N,+5V*%
X81800000Y-25950000D02*
X82900000Y-24850000D01*
X52850000Y-53000000D02*
X53800000Y-53950000D01*
%TO.N,GND*%
X114700000Y-30450000D02*
X114700000Y-29250000D01*
%TO.N,+5V*%
X107000000Y-41750000D02*
X109500000Y-39250000D01*
X74750000Y-56400000D02*
X77200000Y-53950000D01*
X109500000Y-39250000D02*
X109500000Y-33050000D01*
X77200000Y-53950000D02*
X81800000Y-53950000D01*
X15750000Y-30250000D02*
X15750000Y-28000000D01*
%TO.N,GND*%
X86700000Y-58450000D02*
X86700000Y-57250000D01*
X114700000Y-58450000D02*
X114700000Y-57250000D01*
%TO.N,+5V*%
X74850000Y-28400000D02*
X77300000Y-25950000D01*
%TO.N,GND*%
X27500000Y-63250000D02*
X49000000Y-63250000D01*
%TO.N,+5V*%
X31000000Y-22500000D02*
X31000000Y-27900000D01*
%TO.N,Net-(D7-DOUT)*%
X90000000Y-57250000D02*
X86700000Y-53950000D01*
%TO.N,+5V*%
X104600000Y-28150000D02*
X121500000Y-28150000D01*
%TO.N,Net-(D8-DOUT)*%
X80800000Y-58250000D02*
X63000000Y-58250000D01*
%TO.N,+5V*%
X77300000Y-25950000D02*
X81800000Y-25950000D01*
%TO.N,GND*%
X90500000Y-34250000D02*
X93375000Y-37125000D01*
X90500000Y-62250000D02*
X106000000Y-62250000D01*
X93375000Y-37125000D02*
X100625000Y-37125000D01*
X142700000Y-29250000D02*
X159250000Y-29250000D01*
%TO.N,+5V*%
X111500000Y-52250000D02*
X109800000Y-53950000D01*
%TO.N,GND*%
X62500000Y-34250000D02*
X78000000Y-34250000D01*
X96925748Y-40750000D02*
X97000000Y-40750000D01*
%TO.N,+5V*%
X18800000Y-24950000D02*
X18800000Y-25050000D01*
X133450000Y-53950000D02*
X130750000Y-56650000D01*
X54900000Y-24850000D02*
X62200000Y-24850000D01*
X62200000Y-24850000D02*
X65750000Y-28400000D01*
X31000000Y-27900000D02*
X30750000Y-28150000D01*
X137800000Y-53950000D02*
X133450000Y-53950000D01*
%TO.N,GND*%
X118500000Y-34250000D02*
X134000000Y-34250000D01*
%TO.N,+5V*%
X97750000Y-35000000D02*
X104600000Y-28150000D01*
%TO.N,Net-(D8-DOUT)*%
X63000000Y-58250000D02*
X58700000Y-53950000D01*
%TO.N,+5V*%
X108700000Y-24850000D02*
X109800000Y-25950000D01*
X18800000Y-24950000D02*
X20600000Y-26750000D01*
%TO.N,GND*%
X49000000Y-33250000D02*
X50000000Y-34250000D01*
X23700000Y-59450000D02*
X23700000Y-58250000D01*
X146500000Y-34250000D02*
X142700000Y-30450000D01*
%TO.N,Net-(D2-DOUT)*%
X63500000Y-30500000D02*
X78480988Y-30500000D01*
%TO.N,GND*%
X86700000Y-30450000D02*
X86700000Y-29250000D01*
X27500000Y-63250000D02*
X23700000Y-59450000D01*
%TO.N,Net-(D10-DIN)*%
X51500000Y-54950000D02*
X23700000Y-54950000D01*
%TO.N,GND*%
X96800000Y-40875748D02*
X96925748Y-40750000D01*
X62500000Y-34250000D02*
X58700000Y-30450000D01*
X27500000Y-33250000D02*
X49000000Y-33250000D01*
%TO.N,Net-(D2-DOUT)*%
X83968630Y-25950000D02*
X86700000Y-25950000D01*
%TO.N,+5V*%
X111550000Y-25950000D02*
X109800000Y-25950000D01*
X130750000Y-28400000D02*
X132000000Y-27150000D01*
%TO.N,Net-(D1-DOUT)*%
X50750000Y-27500000D02*
X57150000Y-27500000D01*
%TD*%
M02*
