%TF.GenerationSoftware,KiCad,Pcbnew,10.0.0*%
%TF.CreationDate,2026-06-20T17:03:39-04:00*%
%TF.ProjectId,DJ but to separate PCBs,444a2062-7574-4207-946f-207365706172,rev?*%
%TF.SameCoordinates,Original*%
%TF.FileFunction,Paste,Top*%
%TF.FilePolarity,Positive*%
%FSLAX46Y46*%
G04 Gerber Fmt 4.6, Leading zero omitted, Abs format (unit mm)*
G04 Created by KiCad (PCBNEW 10.0.0) date 2026-06-20 17:03:39*
%MOMM*%
%LPD*%
G01*
G04 APERTURE LIST*
G04 Aperture macros list*
%AMRoundRect*
0 Rectangle with rounded corners*
0 $1 Rounding radius*
0 $2 $3 $4 $5 $6 $7 $8 $9 X,Y pos of 4 corners*
0 Add a 4 corners polygon primitive as box body*
4,1,4,$2,$3,$4,$5,$6,$7,$8,$9,$2,$3,0*
0 Add four circle primitives for the rounded corners*
1,1,$1+$1,$2,$3*
1,1,$1+$1,$4,$5*
1,1,$1+$1,$6,$7*
1,1,$1+$1,$8,$9*
0 Add four rect primitives between the rounded corners*
20,1,$1+$1,$2,$3,$4,$5,0*
20,1,$1+$1,$4,$5,$6,$7,0*
20,1,$1+$1,$6,$7,$8,$9,0*
20,1,$1+$1,$8,$9,$2,$3,0*%
G04 Aperture macros list end*
%ADD10RoundRect,0.090000X-0.660000X-0.360000X0.660000X-0.360000X0.660000X0.360000X-0.660000X0.360000X0*%
G04 APERTURE END LIST*
D10*
%TO.C,D5*%
X137800000Y-25950000D03*
X137800000Y-29250000D03*
X142700000Y-29250000D03*
X142700000Y-25950000D03*
%TD*%
%TO.C,D6*%
X137800000Y-53950000D03*
X137800000Y-57250000D03*
X142700000Y-57250000D03*
X142700000Y-53950000D03*
%TD*%
%TO.C,D9*%
X53800000Y-53950000D03*
X53800000Y-57250000D03*
X58700000Y-57250000D03*
X58700000Y-53950000D03*
%TD*%
%TO.C,D7*%
X109800000Y-53950000D03*
X109800000Y-57250000D03*
X114700000Y-57250000D03*
X114700000Y-53950000D03*
%TD*%
%TO.C,D4*%
X109800000Y-25950000D03*
X109800000Y-29250000D03*
X114700000Y-29250000D03*
X114700000Y-25950000D03*
%TD*%
%TO.C,D8*%
X81800000Y-53950000D03*
X81800000Y-57250000D03*
X86700000Y-57250000D03*
X86700000Y-53950000D03*
%TD*%
%TO.C,D3*%
X81800000Y-25950000D03*
X81800000Y-29250000D03*
X86700000Y-29250000D03*
X86700000Y-25950000D03*
%TD*%
%TO.C,D2*%
X53800000Y-25950000D03*
X53800000Y-29250000D03*
X58700000Y-29250000D03*
X58700000Y-25950000D03*
%TD*%
%TO.C,D10*%
X18800000Y-54950000D03*
X18800000Y-58250000D03*
X23700000Y-58250000D03*
X23700000Y-54950000D03*
%TD*%
%TO.C,D1*%
X18800000Y-24950000D03*
X18800000Y-28250000D03*
X23700000Y-28250000D03*
X23700000Y-24950000D03*
%TD*%
M02*
