%TF.GenerationSoftware,KiCad,Pcbnew,10.0.0*%
%TF.CreationDate,2026-06-20T17:03:39-04:00*%
%TF.ProjectId,DJ but to separate PCBs,444a2062-7574-4207-946f-207365706172,rev?*%
%TF.SameCoordinates,Original*%
%TF.FileFunction,Legend,Bot*%
%TF.FilePolarity,Positive*%
%FSLAX46Y46*%
G04 Gerber Fmt 4.6, Leading zero omitted, Abs format (unit mm)*
G04 Created by KiCad (PCBNEW 10.0.0) date 2026-06-20 17:03:39*
%MOMM*%
%LPD*%
G01*
G04 APERTURE LIST*
%ADD10C,0.100000*%
%ADD11C,0.150000*%
%ADD12C,0.120000*%
G04 APERTURE END LIST*
D10*
X121292580Y-61342857D02*
X121768771Y-61676190D01*
X121292580Y-61914285D02*
X122292580Y-61914285D01*
X122292580Y-61914285D02*
X122292580Y-61533333D01*
X122292580Y-61533333D02*
X122244961Y-61438095D01*
X122244961Y-61438095D02*
X122197342Y-61390476D01*
X122197342Y-61390476D02*
X122102104Y-61342857D01*
X122102104Y-61342857D02*
X121959247Y-61342857D01*
X121959247Y-61342857D02*
X121864009Y-61390476D01*
X121864009Y-61390476D02*
X121816390Y-61438095D01*
X121816390Y-61438095D02*
X121768771Y-61533333D01*
X121768771Y-61533333D02*
X121768771Y-61914285D01*
X122292580Y-61009523D02*
X122292580Y-60390476D01*
X122292580Y-60390476D02*
X121911628Y-60723809D01*
X121911628Y-60723809D02*
X121911628Y-60580952D01*
X121911628Y-60580952D02*
X121864009Y-60485714D01*
X121864009Y-60485714D02*
X121816390Y-60438095D01*
X121816390Y-60438095D02*
X121721152Y-60390476D01*
X121721152Y-60390476D02*
X121483057Y-60390476D01*
X121483057Y-60390476D02*
X121387819Y-60438095D01*
X121387819Y-60438095D02*
X121340200Y-60485714D01*
X121340200Y-60485714D02*
X121292580Y-60580952D01*
X121292580Y-60580952D02*
X121292580Y-60866666D01*
X121292580Y-60866666D02*
X121340200Y-60961904D01*
X121340200Y-60961904D02*
X121387819Y-61009523D01*
X122292580Y-59485714D02*
X122292580Y-59961904D01*
X122292580Y-59961904D02*
X121816390Y-60009523D01*
X121816390Y-60009523D02*
X121864009Y-59961904D01*
X121864009Y-59961904D02*
X121911628Y-59866666D01*
X121911628Y-59866666D02*
X121911628Y-59628571D01*
X121911628Y-59628571D02*
X121864009Y-59533333D01*
X121864009Y-59533333D02*
X121816390Y-59485714D01*
X121816390Y-59485714D02*
X121721152Y-59438095D01*
X121721152Y-59438095D02*
X121483057Y-59438095D01*
X121483057Y-59438095D02*
X121387819Y-59485714D01*
X121387819Y-59485714D02*
X121340200Y-59533333D01*
X121340200Y-59533333D02*
X121292580Y-59628571D01*
X121292580Y-59628571D02*
X121292580Y-59866666D01*
X121292580Y-59866666D02*
X121340200Y-59961904D01*
X121340200Y-59961904D02*
X121387819Y-60009523D01*
D11*
X81454819Y-17999999D02*
X81454819Y-17523809D01*
X81454819Y-17523809D02*
X80454819Y-17523809D01*
X81454819Y-18333333D02*
X80788152Y-18333333D01*
X80454819Y-18333333D02*
X80502438Y-18285714D01*
X80502438Y-18285714D02*
X80550057Y-18333333D01*
X80550057Y-18333333D02*
X80502438Y-18380952D01*
X80502438Y-18380952D02*
X80454819Y-18333333D01*
X80454819Y-18333333D02*
X80550057Y-18333333D01*
X80788152Y-19238094D02*
X81597676Y-19238094D01*
X81597676Y-19238094D02*
X81692914Y-19190475D01*
X81692914Y-19190475D02*
X81740533Y-19142856D01*
X81740533Y-19142856D02*
X81788152Y-19047618D01*
X81788152Y-19047618D02*
X81788152Y-18904761D01*
X81788152Y-18904761D02*
X81740533Y-18809523D01*
X81407200Y-19238094D02*
X81454819Y-19142856D01*
X81454819Y-19142856D02*
X81454819Y-18952380D01*
X81454819Y-18952380D02*
X81407200Y-18857142D01*
X81407200Y-18857142D02*
X81359580Y-18809523D01*
X81359580Y-18809523D02*
X81264342Y-18761904D01*
X81264342Y-18761904D02*
X80978628Y-18761904D01*
X80978628Y-18761904D02*
X80883390Y-18809523D01*
X80883390Y-18809523D02*
X80835771Y-18857142D01*
X80835771Y-18857142D02*
X80788152Y-18952380D01*
X80788152Y-18952380D02*
X80788152Y-19142856D01*
X80788152Y-19142856D02*
X80835771Y-19238094D01*
X81454819Y-19714285D02*
X80454819Y-19714285D01*
X81454819Y-20142856D02*
X80931009Y-20142856D01*
X80931009Y-20142856D02*
X80835771Y-20095237D01*
X80835771Y-20095237D02*
X80788152Y-19999999D01*
X80788152Y-19999999D02*
X80788152Y-19857142D01*
X80788152Y-19857142D02*
X80835771Y-19761904D01*
X80835771Y-19761904D02*
X80883390Y-19714285D01*
X80788152Y-20476190D02*
X80788152Y-20857142D01*
X80454819Y-20619047D02*
X81311961Y-20619047D01*
X81311961Y-20619047D02*
X81407200Y-20666666D01*
X81407200Y-20666666D02*
X81454819Y-20761904D01*
X81454819Y-20761904D02*
X81454819Y-20857142D01*
X81407200Y-21142857D02*
X81454819Y-21238095D01*
X81454819Y-21238095D02*
X81454819Y-21428571D01*
X81454819Y-21428571D02*
X81407200Y-21523809D01*
X81407200Y-21523809D02*
X81311961Y-21571428D01*
X81311961Y-21571428D02*
X81264342Y-21571428D01*
X81264342Y-21571428D02*
X81169104Y-21523809D01*
X81169104Y-21523809D02*
X81121485Y-21428571D01*
X81121485Y-21428571D02*
X81121485Y-21285714D01*
X81121485Y-21285714D02*
X81073866Y-21190476D01*
X81073866Y-21190476D02*
X80978628Y-21142857D01*
X80978628Y-21142857D02*
X80931009Y-21142857D01*
X80931009Y-21142857D02*
X80835771Y-21190476D01*
X80835771Y-21190476D02*
X80788152Y-21285714D01*
X80788152Y-21285714D02*
X80788152Y-21428571D01*
X80788152Y-21428571D02*
X80835771Y-21523809D01*
X81454819Y-22523809D02*
X81454819Y-21952381D01*
X81454819Y-22238095D02*
X80454819Y-22238095D01*
X80454819Y-22238095D02*
X80597676Y-22142857D01*
X80597676Y-22142857D02*
X80692914Y-22047619D01*
X80692914Y-22047619D02*
X80740533Y-21952381D01*
D10*
X31207419Y-61807142D02*
X30731228Y-61473809D01*
X31207419Y-61235714D02*
X30207419Y-61235714D01*
X30207419Y-61235714D02*
X30207419Y-61616666D01*
X30207419Y-61616666D02*
X30255038Y-61711904D01*
X30255038Y-61711904D02*
X30302657Y-61759523D01*
X30302657Y-61759523D02*
X30397895Y-61807142D01*
X30397895Y-61807142D02*
X30540752Y-61807142D01*
X30540752Y-61807142D02*
X30635990Y-61759523D01*
X30635990Y-61759523D02*
X30683609Y-61711904D01*
X30683609Y-61711904D02*
X30731228Y-61616666D01*
X30731228Y-61616666D02*
X30731228Y-61235714D01*
X31207419Y-62759523D02*
X31207419Y-62188095D01*
X31207419Y-62473809D02*
X30207419Y-62473809D01*
X30207419Y-62473809D02*
X30350276Y-62378571D01*
X30350276Y-62378571D02*
X30445514Y-62283333D01*
X30445514Y-62283333D02*
X30493133Y-62188095D01*
X30302657Y-63140476D02*
X30255038Y-63188095D01*
X30255038Y-63188095D02*
X30207419Y-63283333D01*
X30207419Y-63283333D02*
X30207419Y-63521428D01*
X30207419Y-63521428D02*
X30255038Y-63616666D01*
X30255038Y-63616666D02*
X30302657Y-63664285D01*
X30302657Y-63664285D02*
X30397895Y-63711904D01*
X30397895Y-63711904D02*
X30493133Y-63711904D01*
X30493133Y-63711904D02*
X30635990Y-63664285D01*
X30635990Y-63664285D02*
X31207419Y-63092857D01*
X31207419Y-63092857D02*
X31207419Y-63711904D01*
D11*
X88557200Y-17559524D02*
X88604819Y-17702381D01*
X88604819Y-17702381D02*
X88604819Y-17940476D01*
X88604819Y-17940476D02*
X88557200Y-18035714D01*
X88557200Y-18035714D02*
X88509580Y-18083333D01*
X88509580Y-18083333D02*
X88414342Y-18130952D01*
X88414342Y-18130952D02*
X88319104Y-18130952D01*
X88319104Y-18130952D02*
X88223866Y-18083333D01*
X88223866Y-18083333D02*
X88176247Y-18035714D01*
X88176247Y-18035714D02*
X88128628Y-17940476D01*
X88128628Y-17940476D02*
X88081009Y-17750000D01*
X88081009Y-17750000D02*
X88033390Y-17654762D01*
X88033390Y-17654762D02*
X87985771Y-17607143D01*
X87985771Y-17607143D02*
X87890533Y-17559524D01*
X87890533Y-17559524D02*
X87795295Y-17559524D01*
X87795295Y-17559524D02*
X87700057Y-17607143D01*
X87700057Y-17607143D02*
X87652438Y-17654762D01*
X87652438Y-17654762D02*
X87604819Y-17750000D01*
X87604819Y-17750000D02*
X87604819Y-17988095D01*
X87604819Y-17988095D02*
X87652438Y-18130952D01*
X88604819Y-18559524D02*
X87604819Y-18559524D01*
X87604819Y-18559524D02*
X87604819Y-18797619D01*
X87604819Y-18797619D02*
X87652438Y-18940476D01*
X87652438Y-18940476D02*
X87747676Y-19035714D01*
X87747676Y-19035714D02*
X87842914Y-19083333D01*
X87842914Y-19083333D02*
X88033390Y-19130952D01*
X88033390Y-19130952D02*
X88176247Y-19130952D01*
X88176247Y-19130952D02*
X88366723Y-19083333D01*
X88366723Y-19083333D02*
X88461961Y-19035714D01*
X88461961Y-19035714D02*
X88557200Y-18940476D01*
X88557200Y-18940476D02*
X88604819Y-18797619D01*
X88604819Y-18797619D02*
X88604819Y-18559524D01*
X88319104Y-19511905D02*
X88319104Y-19988095D01*
X88604819Y-19416667D02*
X87604819Y-19750000D01*
X87604819Y-19750000D02*
X88604819Y-20083333D01*
X88604819Y-20940476D02*
X88604819Y-20369048D01*
X88604819Y-20654762D02*
X87604819Y-20654762D01*
X87604819Y-20654762D02*
X87747676Y-20559524D01*
X87747676Y-20559524D02*
X87842914Y-20464286D01*
X87842914Y-20464286D02*
X87890533Y-20369048D01*
D10*
X74292580Y-33342857D02*
X74768771Y-33676190D01*
X74292580Y-33914285D02*
X75292580Y-33914285D01*
X75292580Y-33914285D02*
X75292580Y-33533333D01*
X75292580Y-33533333D02*
X75244961Y-33438095D01*
X75244961Y-33438095D02*
X75197342Y-33390476D01*
X75197342Y-33390476D02*
X75102104Y-33342857D01*
X75102104Y-33342857D02*
X74959247Y-33342857D01*
X74959247Y-33342857D02*
X74864009Y-33390476D01*
X74864009Y-33390476D02*
X74816390Y-33438095D01*
X74816390Y-33438095D02*
X74768771Y-33533333D01*
X74768771Y-33533333D02*
X74768771Y-33914285D01*
X75292580Y-33009523D02*
X75292580Y-32390476D01*
X75292580Y-32390476D02*
X74911628Y-32723809D01*
X74911628Y-32723809D02*
X74911628Y-32580952D01*
X74911628Y-32580952D02*
X74864009Y-32485714D01*
X74864009Y-32485714D02*
X74816390Y-32438095D01*
X74816390Y-32438095D02*
X74721152Y-32390476D01*
X74721152Y-32390476D02*
X74483057Y-32390476D01*
X74483057Y-32390476D02*
X74387819Y-32438095D01*
X74387819Y-32438095D02*
X74340200Y-32485714D01*
X74340200Y-32485714D02*
X74292580Y-32580952D01*
X74292580Y-32580952D02*
X74292580Y-32866666D01*
X74292580Y-32866666D02*
X74340200Y-32961904D01*
X74340200Y-32961904D02*
X74387819Y-33009523D01*
X75292580Y-31771428D02*
X75292580Y-31676190D01*
X75292580Y-31676190D02*
X75244961Y-31580952D01*
X75244961Y-31580952D02*
X75197342Y-31533333D01*
X75197342Y-31533333D02*
X75102104Y-31485714D01*
X75102104Y-31485714D02*
X74911628Y-31438095D01*
X74911628Y-31438095D02*
X74673533Y-31438095D01*
X74673533Y-31438095D02*
X74483057Y-31485714D01*
X74483057Y-31485714D02*
X74387819Y-31533333D01*
X74387819Y-31533333D02*
X74340200Y-31580952D01*
X74340200Y-31580952D02*
X74292580Y-31676190D01*
X74292580Y-31676190D02*
X74292580Y-31771428D01*
X74292580Y-31771428D02*
X74340200Y-31866666D01*
X74340200Y-31866666D02*
X74387819Y-31914285D01*
X74387819Y-31914285D02*
X74483057Y-31961904D01*
X74483057Y-31961904D02*
X74673533Y-32009523D01*
X74673533Y-32009523D02*
X74911628Y-32009523D01*
X74911628Y-32009523D02*
X75102104Y-31961904D01*
X75102104Y-31961904D02*
X75197342Y-31914285D01*
X75197342Y-31914285D02*
X75244961Y-31866666D01*
X75244961Y-31866666D02*
X75292580Y-31771428D01*
D11*
X99011904Y-55604819D02*
X99011904Y-56414342D01*
X99011904Y-56414342D02*
X98964285Y-56509580D01*
X98964285Y-56509580D02*
X98916666Y-56557200D01*
X98916666Y-56557200D02*
X98821428Y-56604819D01*
X98821428Y-56604819D02*
X98630952Y-56604819D01*
X98630952Y-56604819D02*
X98535714Y-56557200D01*
X98535714Y-56557200D02*
X98488095Y-56509580D01*
X98488095Y-56509580D02*
X98440476Y-56414342D01*
X98440476Y-56414342D02*
X98440476Y-55604819D01*
X97440476Y-56604819D02*
X98011904Y-56604819D01*
X97726190Y-56604819D02*
X97726190Y-55604819D01*
X97726190Y-55604819D02*
X97821428Y-55747676D01*
X97821428Y-55747676D02*
X97916666Y-55842914D01*
X97916666Y-55842914D02*
X98011904Y-55890533D01*
X102204819Y-17797619D02*
X102204819Y-18416666D01*
X102204819Y-18416666D02*
X102585771Y-18083333D01*
X102585771Y-18083333D02*
X102585771Y-18226190D01*
X102585771Y-18226190D02*
X102633390Y-18321428D01*
X102633390Y-18321428D02*
X102681009Y-18369047D01*
X102681009Y-18369047D02*
X102776247Y-18416666D01*
X102776247Y-18416666D02*
X103014342Y-18416666D01*
X103014342Y-18416666D02*
X103109580Y-18369047D01*
X103109580Y-18369047D02*
X103157200Y-18321428D01*
X103157200Y-18321428D02*
X103204819Y-18226190D01*
X103204819Y-18226190D02*
X103204819Y-17940476D01*
X103204819Y-17940476D02*
X103157200Y-17845238D01*
X103157200Y-17845238D02*
X103109580Y-17797619D01*
X103109580Y-18845238D02*
X103157200Y-18892857D01*
X103157200Y-18892857D02*
X103204819Y-18845238D01*
X103204819Y-18845238D02*
X103157200Y-18797619D01*
X103157200Y-18797619D02*
X103109580Y-18845238D01*
X103109580Y-18845238D02*
X103204819Y-18845238D01*
X102204819Y-19226190D02*
X102204819Y-19845237D01*
X102204819Y-19845237D02*
X102585771Y-19511904D01*
X102585771Y-19511904D02*
X102585771Y-19654761D01*
X102585771Y-19654761D02*
X102633390Y-19749999D01*
X102633390Y-19749999D02*
X102681009Y-19797618D01*
X102681009Y-19797618D02*
X102776247Y-19845237D01*
X102776247Y-19845237D02*
X103014342Y-19845237D01*
X103014342Y-19845237D02*
X103109580Y-19797618D01*
X103109580Y-19797618D02*
X103157200Y-19749999D01*
X103157200Y-19749999D02*
X103204819Y-19654761D01*
X103204819Y-19654761D02*
X103204819Y-19369047D01*
X103204819Y-19369047D02*
X103157200Y-19273809D01*
X103157200Y-19273809D02*
X103109580Y-19226190D01*
X102204819Y-20130952D02*
X103204819Y-20464285D01*
X103204819Y-20464285D02*
X102204819Y-20797618D01*
X103204819Y-21654761D02*
X103204819Y-21083333D01*
X103204819Y-21369047D02*
X102204819Y-21369047D01*
X102204819Y-21369047D02*
X102347676Y-21273809D01*
X102347676Y-21273809D02*
X102442914Y-21178571D01*
X102442914Y-21178571D02*
X102490533Y-21083333D01*
D10*
X100416666Y-32862180D02*
X100464285Y-32909800D01*
X100464285Y-32909800D02*
X100607142Y-32957419D01*
X100607142Y-32957419D02*
X100702380Y-32957419D01*
X100702380Y-32957419D02*
X100845237Y-32909800D01*
X100845237Y-32909800D02*
X100940475Y-32814561D01*
X100940475Y-32814561D02*
X100988094Y-32719323D01*
X100988094Y-32719323D02*
X101035713Y-32528847D01*
X101035713Y-32528847D02*
X101035713Y-32385990D01*
X101035713Y-32385990D02*
X100988094Y-32195514D01*
X100988094Y-32195514D02*
X100940475Y-32100276D01*
X100940475Y-32100276D02*
X100845237Y-32005038D01*
X100845237Y-32005038D02*
X100702380Y-31957419D01*
X100702380Y-31957419D02*
X100607142Y-31957419D01*
X100607142Y-31957419D02*
X100464285Y-32005038D01*
X100464285Y-32005038D02*
X100416666Y-32052657D01*
X100083332Y-31957419D02*
X99464285Y-31957419D01*
X99464285Y-31957419D02*
X99797618Y-32338371D01*
X99797618Y-32338371D02*
X99654761Y-32338371D01*
X99654761Y-32338371D02*
X99559523Y-32385990D01*
X99559523Y-32385990D02*
X99511904Y-32433609D01*
X99511904Y-32433609D02*
X99464285Y-32528847D01*
X99464285Y-32528847D02*
X99464285Y-32766942D01*
X99464285Y-32766942D02*
X99511904Y-32862180D01*
X99511904Y-32862180D02*
X99559523Y-32909800D01*
X99559523Y-32909800D02*
X99654761Y-32957419D01*
X99654761Y-32957419D02*
X99940475Y-32957419D01*
X99940475Y-32957419D02*
X100035713Y-32909800D01*
X100035713Y-32909800D02*
X100083332Y-32862180D01*
D11*
X84204819Y-18833333D02*
X84204819Y-18357143D01*
X84204819Y-18357143D02*
X84681009Y-18309524D01*
X84681009Y-18309524D02*
X84633390Y-18357143D01*
X84633390Y-18357143D02*
X84585771Y-18452381D01*
X84585771Y-18452381D02*
X84585771Y-18690476D01*
X84585771Y-18690476D02*
X84633390Y-18785714D01*
X84633390Y-18785714D02*
X84681009Y-18833333D01*
X84681009Y-18833333D02*
X84776247Y-18880952D01*
X84776247Y-18880952D02*
X85014342Y-18880952D01*
X85014342Y-18880952D02*
X85109580Y-18833333D01*
X85109580Y-18833333D02*
X85157200Y-18785714D01*
X85157200Y-18785714D02*
X85204819Y-18690476D01*
X85204819Y-18690476D02*
X85204819Y-18452381D01*
X85204819Y-18452381D02*
X85157200Y-18357143D01*
X85157200Y-18357143D02*
X85109580Y-18309524D01*
X84204819Y-19166667D02*
X85204819Y-19500000D01*
X85204819Y-19500000D02*
X84204819Y-19833333D01*
X85204819Y-20690476D02*
X85204819Y-20119048D01*
X85204819Y-20404762D02*
X84204819Y-20404762D01*
X84204819Y-20404762D02*
X84347676Y-20309524D01*
X84347676Y-20309524D02*
X84442914Y-20214286D01*
X84442914Y-20214286D02*
X84490533Y-20119048D01*
D10*
X28666666Y-21612180D02*
X28714285Y-21659800D01*
X28714285Y-21659800D02*
X28857142Y-21707419D01*
X28857142Y-21707419D02*
X28952380Y-21707419D01*
X28952380Y-21707419D02*
X29095237Y-21659800D01*
X29095237Y-21659800D02*
X29190475Y-21564561D01*
X29190475Y-21564561D02*
X29238094Y-21469323D01*
X29238094Y-21469323D02*
X29285713Y-21278847D01*
X29285713Y-21278847D02*
X29285713Y-21135990D01*
X29285713Y-21135990D02*
X29238094Y-20945514D01*
X29238094Y-20945514D02*
X29190475Y-20850276D01*
X29190475Y-20850276D02*
X29095237Y-20755038D01*
X29095237Y-20755038D02*
X28952380Y-20707419D01*
X28952380Y-20707419D02*
X28857142Y-20707419D01*
X28857142Y-20707419D02*
X28714285Y-20755038D01*
X28714285Y-20755038D02*
X28666666Y-20802657D01*
X27809523Y-20707419D02*
X27999999Y-20707419D01*
X27999999Y-20707419D02*
X28095237Y-20755038D01*
X28095237Y-20755038D02*
X28142856Y-20802657D01*
X28142856Y-20802657D02*
X28238094Y-20945514D01*
X28238094Y-20945514D02*
X28285713Y-21135990D01*
X28285713Y-21135990D02*
X28285713Y-21516942D01*
X28285713Y-21516942D02*
X28238094Y-21612180D01*
X28238094Y-21612180D02*
X28190475Y-21659800D01*
X28190475Y-21659800D02*
X28095237Y-21707419D01*
X28095237Y-21707419D02*
X27904761Y-21707419D01*
X27904761Y-21707419D02*
X27809523Y-21659800D01*
X27809523Y-21659800D02*
X27761904Y-21612180D01*
X27761904Y-21612180D02*
X27714285Y-21516942D01*
X27714285Y-21516942D02*
X27714285Y-21278847D01*
X27714285Y-21278847D02*
X27761904Y-21183609D01*
X27761904Y-21183609D02*
X27809523Y-21135990D01*
X27809523Y-21135990D02*
X27904761Y-21088371D01*
X27904761Y-21088371D02*
X28095237Y-21088371D01*
X28095237Y-21088371D02*
X28190475Y-21135990D01*
X28190475Y-21135990D02*
X28238094Y-21183609D01*
X28238094Y-21183609D02*
X28285713Y-21278847D01*
X74292580Y-61342857D02*
X74768771Y-61676190D01*
X74292580Y-61914285D02*
X75292580Y-61914285D01*
X75292580Y-61914285D02*
X75292580Y-61533333D01*
X75292580Y-61533333D02*
X75244961Y-61438095D01*
X75244961Y-61438095D02*
X75197342Y-61390476D01*
X75197342Y-61390476D02*
X75102104Y-61342857D01*
X75102104Y-61342857D02*
X74959247Y-61342857D01*
X74959247Y-61342857D02*
X74864009Y-61390476D01*
X74864009Y-61390476D02*
X74816390Y-61438095D01*
X74816390Y-61438095D02*
X74768771Y-61533333D01*
X74768771Y-61533333D02*
X74768771Y-61914285D01*
X75292580Y-61009523D02*
X75292580Y-60390476D01*
X75292580Y-60390476D02*
X74911628Y-60723809D01*
X74911628Y-60723809D02*
X74911628Y-60580952D01*
X74911628Y-60580952D02*
X74864009Y-60485714D01*
X74864009Y-60485714D02*
X74816390Y-60438095D01*
X74816390Y-60438095D02*
X74721152Y-60390476D01*
X74721152Y-60390476D02*
X74483057Y-60390476D01*
X74483057Y-60390476D02*
X74387819Y-60438095D01*
X74387819Y-60438095D02*
X74340200Y-60485714D01*
X74340200Y-60485714D02*
X74292580Y-60580952D01*
X74292580Y-60580952D02*
X74292580Y-60866666D01*
X74292580Y-60866666D02*
X74340200Y-60961904D01*
X74340200Y-60961904D02*
X74387819Y-61009523D01*
X74959247Y-59533333D02*
X74292580Y-59533333D01*
X75340200Y-59771428D02*
X74625914Y-60009523D01*
X74625914Y-60009523D02*
X74625914Y-59390476D01*
X130292580Y-33342857D02*
X130768771Y-33676190D01*
X130292580Y-33914285D02*
X131292580Y-33914285D01*
X131292580Y-33914285D02*
X131292580Y-33533333D01*
X131292580Y-33533333D02*
X131244961Y-33438095D01*
X131244961Y-33438095D02*
X131197342Y-33390476D01*
X131197342Y-33390476D02*
X131102104Y-33342857D01*
X131102104Y-33342857D02*
X130959247Y-33342857D01*
X130959247Y-33342857D02*
X130864009Y-33390476D01*
X130864009Y-33390476D02*
X130816390Y-33438095D01*
X130816390Y-33438095D02*
X130768771Y-33533333D01*
X130768771Y-33533333D02*
X130768771Y-33914285D01*
X131292580Y-33009523D02*
X131292580Y-32390476D01*
X131292580Y-32390476D02*
X130911628Y-32723809D01*
X130911628Y-32723809D02*
X130911628Y-32580952D01*
X130911628Y-32580952D02*
X130864009Y-32485714D01*
X130864009Y-32485714D02*
X130816390Y-32438095D01*
X130816390Y-32438095D02*
X130721152Y-32390476D01*
X130721152Y-32390476D02*
X130483057Y-32390476D01*
X130483057Y-32390476D02*
X130387819Y-32438095D01*
X130387819Y-32438095D02*
X130340200Y-32485714D01*
X130340200Y-32485714D02*
X130292580Y-32580952D01*
X130292580Y-32580952D02*
X130292580Y-32866666D01*
X130292580Y-32866666D02*
X130340200Y-32961904D01*
X130340200Y-32961904D02*
X130387819Y-33009523D01*
X131197342Y-32009523D02*
X131244961Y-31961904D01*
X131244961Y-31961904D02*
X131292580Y-31866666D01*
X131292580Y-31866666D02*
X131292580Y-31628571D01*
X131292580Y-31628571D02*
X131244961Y-31533333D01*
X131244961Y-31533333D02*
X131197342Y-31485714D01*
X131197342Y-31485714D02*
X131102104Y-31438095D01*
X131102104Y-31438095D02*
X131006866Y-31438095D01*
X131006866Y-31438095D02*
X130864009Y-31485714D01*
X130864009Y-31485714D02*
X130292580Y-32057142D01*
X130292580Y-32057142D02*
X130292580Y-31438095D01*
X135657142Y-18042580D02*
X135323809Y-18518771D01*
X135085714Y-18042580D02*
X135085714Y-19042580D01*
X135085714Y-19042580D02*
X135466666Y-19042580D01*
X135466666Y-19042580D02*
X135561904Y-18994961D01*
X135561904Y-18994961D02*
X135609523Y-18947342D01*
X135609523Y-18947342D02*
X135657142Y-18852104D01*
X135657142Y-18852104D02*
X135657142Y-18709247D01*
X135657142Y-18709247D02*
X135609523Y-18614009D01*
X135609523Y-18614009D02*
X135561904Y-18566390D01*
X135561904Y-18566390D02*
X135466666Y-18518771D01*
X135466666Y-18518771D02*
X135085714Y-18518771D01*
X136609523Y-18042580D02*
X136038095Y-18042580D01*
X136323809Y-18042580D02*
X136323809Y-19042580D01*
X136323809Y-19042580D02*
X136228571Y-18899723D01*
X136228571Y-18899723D02*
X136133333Y-18804485D01*
X136133333Y-18804485D02*
X136038095Y-18756866D01*
X137466666Y-19042580D02*
X137276190Y-19042580D01*
X137276190Y-19042580D02*
X137180952Y-18994961D01*
X137180952Y-18994961D02*
X137133333Y-18947342D01*
X137133333Y-18947342D02*
X137038095Y-18804485D01*
X137038095Y-18804485D02*
X136990476Y-18614009D01*
X136990476Y-18614009D02*
X136990476Y-18233057D01*
X136990476Y-18233057D02*
X137038095Y-18137819D01*
X137038095Y-18137819D02*
X137085714Y-18090200D01*
X137085714Y-18090200D02*
X137180952Y-18042580D01*
X137180952Y-18042580D02*
X137371428Y-18042580D01*
X137371428Y-18042580D02*
X137466666Y-18090200D01*
X137466666Y-18090200D02*
X137514285Y-18137819D01*
X137514285Y-18137819D02*
X137561904Y-18233057D01*
X137561904Y-18233057D02*
X137561904Y-18471152D01*
X137561904Y-18471152D02*
X137514285Y-18566390D01*
X137514285Y-18566390D02*
X137466666Y-18614009D01*
X137466666Y-18614009D02*
X137371428Y-18661628D01*
X137371428Y-18661628D02*
X137180952Y-18661628D01*
X137180952Y-18661628D02*
X137085714Y-18614009D01*
X137085714Y-18614009D02*
X137038095Y-18566390D01*
X137038095Y-18566390D02*
X136990476Y-18471152D01*
D11*
X98502438Y-18261904D02*
X98454819Y-18166666D01*
X98454819Y-18166666D02*
X98454819Y-18023809D01*
X98454819Y-18023809D02*
X98502438Y-17880952D01*
X98502438Y-17880952D02*
X98597676Y-17785714D01*
X98597676Y-17785714D02*
X98692914Y-17738095D01*
X98692914Y-17738095D02*
X98883390Y-17690476D01*
X98883390Y-17690476D02*
X99026247Y-17690476D01*
X99026247Y-17690476D02*
X99216723Y-17738095D01*
X99216723Y-17738095D02*
X99311961Y-17785714D01*
X99311961Y-17785714D02*
X99407200Y-17880952D01*
X99407200Y-17880952D02*
X99454819Y-18023809D01*
X99454819Y-18023809D02*
X99454819Y-18119047D01*
X99454819Y-18119047D02*
X99407200Y-18261904D01*
X99407200Y-18261904D02*
X99359580Y-18309523D01*
X99359580Y-18309523D02*
X99026247Y-18309523D01*
X99026247Y-18309523D02*
X99026247Y-18119047D01*
X99454819Y-18738095D02*
X98454819Y-18738095D01*
X98454819Y-18738095D02*
X99454819Y-19309523D01*
X99454819Y-19309523D02*
X98454819Y-19309523D01*
X99454819Y-19785714D02*
X98454819Y-19785714D01*
X98454819Y-19785714D02*
X98454819Y-20023809D01*
X98454819Y-20023809D02*
X98502438Y-20166666D01*
X98502438Y-20166666D02*
X98597676Y-20261904D01*
X98597676Y-20261904D02*
X98692914Y-20309523D01*
X98692914Y-20309523D02*
X98883390Y-20357142D01*
X98883390Y-20357142D02*
X99026247Y-20357142D01*
X99026247Y-20357142D02*
X99216723Y-20309523D01*
X99216723Y-20309523D02*
X99311961Y-20261904D01*
X99311961Y-20261904D02*
X99407200Y-20166666D01*
X99407200Y-20166666D02*
X99454819Y-20023809D01*
X99454819Y-20023809D02*
X99454819Y-19785714D01*
X98454819Y-20690476D02*
X98454819Y-21309523D01*
X98454819Y-21309523D02*
X98835771Y-20976190D01*
X98835771Y-20976190D02*
X98835771Y-21119047D01*
X98835771Y-21119047D02*
X98883390Y-21214285D01*
X98883390Y-21214285D02*
X98931009Y-21261904D01*
X98931009Y-21261904D02*
X99026247Y-21309523D01*
X99026247Y-21309523D02*
X99264342Y-21309523D01*
X99264342Y-21309523D02*
X99359580Y-21261904D01*
X99359580Y-21261904D02*
X99407200Y-21214285D01*
X99407200Y-21214285D02*
X99454819Y-21119047D01*
X99454819Y-21119047D02*
X99454819Y-20833333D01*
X99454819Y-20833333D02*
X99407200Y-20738095D01*
X99407200Y-20738095D02*
X99359580Y-20690476D01*
D10*
X65292580Y-33342857D02*
X65768771Y-33676190D01*
X65292580Y-33914285D02*
X66292580Y-33914285D01*
X66292580Y-33914285D02*
X66292580Y-33533333D01*
X66292580Y-33533333D02*
X66244961Y-33438095D01*
X66244961Y-33438095D02*
X66197342Y-33390476D01*
X66197342Y-33390476D02*
X66102104Y-33342857D01*
X66102104Y-33342857D02*
X65959247Y-33342857D01*
X65959247Y-33342857D02*
X65864009Y-33390476D01*
X65864009Y-33390476D02*
X65816390Y-33438095D01*
X65816390Y-33438095D02*
X65768771Y-33533333D01*
X65768771Y-33533333D02*
X65768771Y-33914285D01*
X66197342Y-32961904D02*
X66244961Y-32914285D01*
X66244961Y-32914285D02*
X66292580Y-32819047D01*
X66292580Y-32819047D02*
X66292580Y-32580952D01*
X66292580Y-32580952D02*
X66244961Y-32485714D01*
X66244961Y-32485714D02*
X66197342Y-32438095D01*
X66197342Y-32438095D02*
X66102104Y-32390476D01*
X66102104Y-32390476D02*
X66006866Y-32390476D01*
X66006866Y-32390476D02*
X65864009Y-32438095D01*
X65864009Y-32438095D02*
X65292580Y-33009523D01*
X65292580Y-33009523D02*
X65292580Y-32390476D01*
X65292580Y-31914285D02*
X65292580Y-31723809D01*
X65292580Y-31723809D02*
X65340200Y-31628571D01*
X65340200Y-31628571D02*
X65387819Y-31580952D01*
X65387819Y-31580952D02*
X65530676Y-31485714D01*
X65530676Y-31485714D02*
X65721152Y-31438095D01*
X65721152Y-31438095D02*
X66102104Y-31438095D01*
X66102104Y-31438095D02*
X66197342Y-31485714D01*
X66197342Y-31485714D02*
X66244961Y-31533333D01*
X66244961Y-31533333D02*
X66292580Y-31628571D01*
X66292580Y-31628571D02*
X66292580Y-31819047D01*
X66292580Y-31819047D02*
X66244961Y-31914285D01*
X66244961Y-31914285D02*
X66197342Y-31961904D01*
X66197342Y-31961904D02*
X66102104Y-32009523D01*
X66102104Y-32009523D02*
X65864009Y-32009523D01*
X65864009Y-32009523D02*
X65768771Y-31961904D01*
X65768771Y-31961904D02*
X65721152Y-31914285D01*
X65721152Y-31914285D02*
X65673533Y-31819047D01*
X65673533Y-31819047D02*
X65673533Y-31628571D01*
X65673533Y-31628571D02*
X65721152Y-31533333D01*
X65721152Y-31533333D02*
X65768771Y-31485714D01*
X65768771Y-31485714D02*
X65864009Y-31438095D01*
X121292580Y-33342857D02*
X121768771Y-33676190D01*
X121292580Y-33914285D02*
X122292580Y-33914285D01*
X122292580Y-33914285D02*
X122292580Y-33533333D01*
X122292580Y-33533333D02*
X122244961Y-33438095D01*
X122244961Y-33438095D02*
X122197342Y-33390476D01*
X122197342Y-33390476D02*
X122102104Y-33342857D01*
X122102104Y-33342857D02*
X121959247Y-33342857D01*
X121959247Y-33342857D02*
X121864009Y-33390476D01*
X121864009Y-33390476D02*
X121816390Y-33438095D01*
X121816390Y-33438095D02*
X121768771Y-33533333D01*
X121768771Y-33533333D02*
X121768771Y-33914285D01*
X122292580Y-33009523D02*
X122292580Y-32390476D01*
X122292580Y-32390476D02*
X121911628Y-32723809D01*
X121911628Y-32723809D02*
X121911628Y-32580952D01*
X121911628Y-32580952D02*
X121864009Y-32485714D01*
X121864009Y-32485714D02*
X121816390Y-32438095D01*
X121816390Y-32438095D02*
X121721152Y-32390476D01*
X121721152Y-32390476D02*
X121483057Y-32390476D01*
X121483057Y-32390476D02*
X121387819Y-32438095D01*
X121387819Y-32438095D02*
X121340200Y-32485714D01*
X121340200Y-32485714D02*
X121292580Y-32580952D01*
X121292580Y-32580952D02*
X121292580Y-32866666D01*
X121292580Y-32866666D02*
X121340200Y-32961904D01*
X121340200Y-32961904D02*
X121387819Y-33009523D01*
X121292580Y-31438095D02*
X121292580Y-32009523D01*
X121292580Y-31723809D02*
X122292580Y-31723809D01*
X122292580Y-31723809D02*
X122149723Y-31819047D01*
X122149723Y-31819047D02*
X122054485Y-31914285D01*
X122054485Y-31914285D02*
X122006866Y-32009523D01*
D11*
X106281009Y-19273809D02*
X106281009Y-18940476D01*
X106804819Y-18940476D02*
X105804819Y-18940476D01*
X105804819Y-18940476D02*
X105804819Y-19416666D01*
X106804819Y-20226190D02*
X106281009Y-20226190D01*
X106281009Y-20226190D02*
X106185771Y-20178571D01*
X106185771Y-20178571D02*
X106138152Y-20083333D01*
X106138152Y-20083333D02*
X106138152Y-19892857D01*
X106138152Y-19892857D02*
X106185771Y-19797619D01*
X106757200Y-20226190D02*
X106804819Y-20130952D01*
X106804819Y-20130952D02*
X106804819Y-19892857D01*
X106804819Y-19892857D02*
X106757200Y-19797619D01*
X106757200Y-19797619D02*
X106661961Y-19750000D01*
X106661961Y-19750000D02*
X106566723Y-19750000D01*
X106566723Y-19750000D02*
X106471485Y-19797619D01*
X106471485Y-19797619D02*
X106423866Y-19892857D01*
X106423866Y-19892857D02*
X106423866Y-20130952D01*
X106423866Y-20130952D02*
X106376247Y-20226190D01*
X106804819Y-21130952D02*
X105804819Y-21130952D01*
X106757200Y-21130952D02*
X106804819Y-21035714D01*
X106804819Y-21035714D02*
X106804819Y-20845238D01*
X106804819Y-20845238D02*
X106757200Y-20750000D01*
X106757200Y-20750000D02*
X106709580Y-20702381D01*
X106709580Y-20702381D02*
X106614342Y-20654762D01*
X106614342Y-20654762D02*
X106328628Y-20654762D01*
X106328628Y-20654762D02*
X106233390Y-20702381D01*
X106233390Y-20702381D02*
X106185771Y-20750000D01*
X106185771Y-20750000D02*
X106138152Y-20845238D01*
X106138152Y-20845238D02*
X106138152Y-21035714D01*
X106138152Y-21035714D02*
X106185771Y-21130952D01*
X106757200Y-21988095D02*
X106804819Y-21892857D01*
X106804819Y-21892857D02*
X106804819Y-21702381D01*
X106804819Y-21702381D02*
X106757200Y-21607143D01*
X106757200Y-21607143D02*
X106661961Y-21559524D01*
X106661961Y-21559524D02*
X106281009Y-21559524D01*
X106281009Y-21559524D02*
X106185771Y-21607143D01*
X106185771Y-21607143D02*
X106138152Y-21702381D01*
X106138152Y-21702381D02*
X106138152Y-21892857D01*
X106138152Y-21892857D02*
X106185771Y-21988095D01*
X106185771Y-21988095D02*
X106281009Y-22035714D01*
X106281009Y-22035714D02*
X106376247Y-22035714D01*
X106376247Y-22035714D02*
X106471485Y-21559524D01*
X106804819Y-22464286D02*
X106138152Y-22464286D01*
X106328628Y-22464286D02*
X106233390Y-22511905D01*
X106233390Y-22511905D02*
X106185771Y-22559524D01*
X106185771Y-22559524D02*
X106138152Y-22654762D01*
X106138152Y-22654762D02*
X106138152Y-22750000D01*
X106804819Y-23607143D02*
X106804819Y-23035715D01*
X106804819Y-23321429D02*
X105804819Y-23321429D01*
X105804819Y-23321429D02*
X105947676Y-23226191D01*
X105947676Y-23226191D02*
X106042914Y-23130953D01*
X106042914Y-23130953D02*
X106090533Y-23035715D01*
D10*
X130292580Y-61592857D02*
X130768771Y-61926190D01*
X130292580Y-62164285D02*
X131292580Y-62164285D01*
X131292580Y-62164285D02*
X131292580Y-61783333D01*
X131292580Y-61783333D02*
X131244961Y-61688095D01*
X131244961Y-61688095D02*
X131197342Y-61640476D01*
X131197342Y-61640476D02*
X131102104Y-61592857D01*
X131102104Y-61592857D02*
X130959247Y-61592857D01*
X130959247Y-61592857D02*
X130864009Y-61640476D01*
X130864009Y-61640476D02*
X130816390Y-61688095D01*
X130816390Y-61688095D02*
X130768771Y-61783333D01*
X130768771Y-61783333D02*
X130768771Y-62164285D01*
X131292580Y-61259523D02*
X131292580Y-60640476D01*
X131292580Y-60640476D02*
X130911628Y-60973809D01*
X130911628Y-60973809D02*
X130911628Y-60830952D01*
X130911628Y-60830952D02*
X130864009Y-60735714D01*
X130864009Y-60735714D02*
X130816390Y-60688095D01*
X130816390Y-60688095D02*
X130721152Y-60640476D01*
X130721152Y-60640476D02*
X130483057Y-60640476D01*
X130483057Y-60640476D02*
X130387819Y-60688095D01*
X130387819Y-60688095D02*
X130340200Y-60735714D01*
X130340200Y-60735714D02*
X130292580Y-60830952D01*
X130292580Y-60830952D02*
X130292580Y-61116666D01*
X130292580Y-61116666D02*
X130340200Y-61211904D01*
X130340200Y-61211904D02*
X130387819Y-61259523D01*
X131292580Y-59783333D02*
X131292580Y-59973809D01*
X131292580Y-59973809D02*
X131244961Y-60069047D01*
X131244961Y-60069047D02*
X131197342Y-60116666D01*
X131197342Y-60116666D02*
X131054485Y-60211904D01*
X131054485Y-60211904D02*
X130864009Y-60259523D01*
X130864009Y-60259523D02*
X130483057Y-60259523D01*
X130483057Y-60259523D02*
X130387819Y-60211904D01*
X130387819Y-60211904D02*
X130340200Y-60164285D01*
X130340200Y-60164285D02*
X130292580Y-60069047D01*
X130292580Y-60069047D02*
X130292580Y-59878571D01*
X130292580Y-59878571D02*
X130340200Y-59783333D01*
X130340200Y-59783333D02*
X130387819Y-59735714D01*
X130387819Y-59735714D02*
X130483057Y-59688095D01*
X130483057Y-59688095D02*
X130721152Y-59688095D01*
X130721152Y-59688095D02*
X130816390Y-59735714D01*
X130816390Y-59735714D02*
X130864009Y-59783333D01*
X130864009Y-59783333D02*
X130911628Y-59878571D01*
X130911628Y-59878571D02*
X130911628Y-60069047D01*
X130911628Y-60069047D02*
X130864009Y-60164285D01*
X130864009Y-60164285D02*
X130816390Y-60211904D01*
X130816390Y-60211904D02*
X130721152Y-60259523D01*
X65292580Y-61342857D02*
X65768771Y-61676190D01*
X65292580Y-61914285D02*
X66292580Y-61914285D01*
X66292580Y-61914285D02*
X66292580Y-61533333D01*
X66292580Y-61533333D02*
X66244961Y-61438095D01*
X66244961Y-61438095D02*
X66197342Y-61390476D01*
X66197342Y-61390476D02*
X66102104Y-61342857D01*
X66102104Y-61342857D02*
X65959247Y-61342857D01*
X65959247Y-61342857D02*
X65864009Y-61390476D01*
X65864009Y-61390476D02*
X65816390Y-61438095D01*
X65816390Y-61438095D02*
X65768771Y-61533333D01*
X65768771Y-61533333D02*
X65768771Y-61914285D01*
X66292580Y-61009523D02*
X66292580Y-60390476D01*
X66292580Y-60390476D02*
X65911628Y-60723809D01*
X65911628Y-60723809D02*
X65911628Y-60580952D01*
X65911628Y-60580952D02*
X65864009Y-60485714D01*
X65864009Y-60485714D02*
X65816390Y-60438095D01*
X65816390Y-60438095D02*
X65721152Y-60390476D01*
X65721152Y-60390476D02*
X65483057Y-60390476D01*
X65483057Y-60390476D02*
X65387819Y-60438095D01*
X65387819Y-60438095D02*
X65340200Y-60485714D01*
X65340200Y-60485714D02*
X65292580Y-60580952D01*
X65292580Y-60580952D02*
X65292580Y-60866666D01*
X65292580Y-60866666D02*
X65340200Y-60961904D01*
X65340200Y-60961904D02*
X65387819Y-61009523D01*
X66292580Y-60057142D02*
X66292580Y-59438095D01*
X66292580Y-59438095D02*
X65911628Y-59771428D01*
X65911628Y-59771428D02*
X65911628Y-59628571D01*
X65911628Y-59628571D02*
X65864009Y-59533333D01*
X65864009Y-59533333D02*
X65816390Y-59485714D01*
X65816390Y-59485714D02*
X65721152Y-59438095D01*
X65721152Y-59438095D02*
X65483057Y-59438095D01*
X65483057Y-59438095D02*
X65387819Y-59485714D01*
X65387819Y-59485714D02*
X65340200Y-59533333D01*
X65340200Y-59533333D02*
X65292580Y-59628571D01*
X65292580Y-59628571D02*
X65292580Y-59914285D01*
X65292580Y-59914285D02*
X65340200Y-60009523D01*
X65340200Y-60009523D02*
X65387819Y-60057142D01*
D11*
X92157200Y-17488095D02*
X92204819Y-17630952D01*
X92204819Y-17630952D02*
X92204819Y-17869047D01*
X92204819Y-17869047D02*
X92157200Y-17964285D01*
X92157200Y-17964285D02*
X92109580Y-18011904D01*
X92109580Y-18011904D02*
X92014342Y-18059523D01*
X92014342Y-18059523D02*
X91919104Y-18059523D01*
X91919104Y-18059523D02*
X91823866Y-18011904D01*
X91823866Y-18011904D02*
X91776247Y-17964285D01*
X91776247Y-17964285D02*
X91728628Y-17869047D01*
X91728628Y-17869047D02*
X91681009Y-17678571D01*
X91681009Y-17678571D02*
X91633390Y-17583333D01*
X91633390Y-17583333D02*
X91585771Y-17535714D01*
X91585771Y-17535714D02*
X91490533Y-17488095D01*
X91490533Y-17488095D02*
X91395295Y-17488095D01*
X91395295Y-17488095D02*
X91300057Y-17535714D01*
X91300057Y-17535714D02*
X91252438Y-17583333D01*
X91252438Y-17583333D02*
X91204819Y-17678571D01*
X91204819Y-17678571D02*
X91204819Y-17916666D01*
X91204819Y-17916666D02*
X91252438Y-18059523D01*
X92109580Y-19059523D02*
X92157200Y-19011904D01*
X92157200Y-19011904D02*
X92204819Y-18869047D01*
X92204819Y-18869047D02*
X92204819Y-18773809D01*
X92204819Y-18773809D02*
X92157200Y-18630952D01*
X92157200Y-18630952D02*
X92061961Y-18535714D01*
X92061961Y-18535714D02*
X91966723Y-18488095D01*
X91966723Y-18488095D02*
X91776247Y-18440476D01*
X91776247Y-18440476D02*
X91633390Y-18440476D01*
X91633390Y-18440476D02*
X91442914Y-18488095D01*
X91442914Y-18488095D02*
X91347676Y-18535714D01*
X91347676Y-18535714D02*
X91252438Y-18630952D01*
X91252438Y-18630952D02*
X91204819Y-18773809D01*
X91204819Y-18773809D02*
X91204819Y-18869047D01*
X91204819Y-18869047D02*
X91252438Y-19011904D01*
X91252438Y-19011904D02*
X91300057Y-19059523D01*
X92204819Y-19488095D02*
X91204819Y-19488095D01*
X92204819Y-20059523D02*
X91633390Y-19630952D01*
X91204819Y-20059523D02*
X91776247Y-19488095D01*
X92204819Y-21011904D02*
X92204819Y-20440476D01*
X92204819Y-20726190D02*
X91204819Y-20726190D01*
X91204819Y-20726190D02*
X91347676Y-20630952D01*
X91347676Y-20630952D02*
X91442914Y-20535714D01*
X91442914Y-20535714D02*
X91490533Y-20440476D01*
D10*
X31207419Y-31807142D02*
X30731228Y-31473809D01*
X31207419Y-31235714D02*
X30207419Y-31235714D01*
X30207419Y-31235714D02*
X30207419Y-31616666D01*
X30207419Y-31616666D02*
X30255038Y-31711904D01*
X30255038Y-31711904D02*
X30302657Y-31759523D01*
X30302657Y-31759523D02*
X30397895Y-31807142D01*
X30397895Y-31807142D02*
X30540752Y-31807142D01*
X30540752Y-31807142D02*
X30635990Y-31759523D01*
X30635990Y-31759523D02*
X30683609Y-31711904D01*
X30683609Y-31711904D02*
X30731228Y-31616666D01*
X30731228Y-31616666D02*
X30731228Y-31235714D01*
X31207419Y-32759523D02*
X31207419Y-32188095D01*
X31207419Y-32473809D02*
X30207419Y-32473809D01*
X30207419Y-32473809D02*
X30350276Y-32378571D01*
X30350276Y-32378571D02*
X30445514Y-32283333D01*
X30445514Y-32283333D02*
X30493133Y-32188095D01*
X30540752Y-33616666D02*
X31207419Y-33616666D01*
X30159800Y-33378571D02*
X30874085Y-33140476D01*
X30874085Y-33140476D02*
X30874085Y-33759523D01*
D11*
X95704819Y-18119048D02*
X94704819Y-18119048D01*
X95704819Y-18595238D02*
X94704819Y-18595238D01*
X94704819Y-18595238D02*
X95704819Y-19166666D01*
X95704819Y-19166666D02*
X94704819Y-19166666D01*
X94704819Y-19500000D02*
X94704819Y-20071428D01*
X95704819Y-19785714D02*
X94704819Y-19785714D01*
X95704819Y-20928571D02*
X95704819Y-20357143D01*
X95704819Y-20642857D02*
X94704819Y-20642857D01*
X94704819Y-20642857D02*
X94847676Y-20547619D01*
X94847676Y-20547619D02*
X94942914Y-20452381D01*
X94942914Y-20452381D02*
X94990533Y-20357143D01*
%TO.C,R35*%
D10*
X121750000Y-57550000D02*
X121750000Y-57450000D01*
X121750000Y-63850000D02*
X121750000Y-63950000D01*
X120500000Y-57550000D02*
X123000000Y-57550000D01*
X123000000Y-63850000D01*
X120500000Y-63850000D01*
X120500000Y-57550000D01*
%TO.C,R12*%
X30750000Y-59300000D02*
X30750000Y-59200000D01*
X30750000Y-65600000D02*
X30750000Y-65700000D01*
X29500000Y-59300000D02*
X32000000Y-59300000D01*
X32000000Y-65600000D01*
X29500000Y-65600000D01*
X29500000Y-59300000D01*
%TO.C,R30*%
X74750000Y-29550000D02*
X74750000Y-29450000D01*
X74750000Y-35850000D02*
X74750000Y-35950000D01*
X73500000Y-29550000D02*
X76000000Y-29550000D01*
X76000000Y-35850000D01*
X73500000Y-35850000D01*
X73500000Y-29550000D01*
%TO.C,U1*%
D12*
X94390000Y-37190000D02*
X94390000Y-37435000D01*
X94390000Y-55065000D02*
X94390000Y-55310000D01*
X94390000Y-55310000D02*
X102110000Y-55310000D01*
X102110000Y-37190000D02*
X94390000Y-37190000D01*
X102110000Y-37435000D02*
X102110000Y-37190000D01*
X102110000Y-55310000D02*
X102110000Y-55065000D01*
X93940000Y-55540000D02*
X93260000Y-55540000D01*
X93600000Y-55070000D01*
X93940000Y-55540000D01*
G36*
X93940000Y-55540000D02*
G01*
X93260000Y-55540000D01*
X93600000Y-55070000D01*
X93940000Y-55540000D01*
G37*
%TO.C,C3*%
D10*
X97750000Y-33500000D02*
X102750000Y-33500000D01*
X102750000Y-36500000D01*
X97750000Y-36500000D01*
X97750000Y-33500000D01*
%TO.C,C6*%
X31500000Y-22500000D02*
G75*
G02*
X25500000Y-22500000I-3000000J0D01*
G01*
X25500000Y-22500000D02*
G75*
G02*
X31500000Y-22500000I3000000J0D01*
G01*
%TO.C,R34*%
X74750000Y-57550000D02*
X74750000Y-57450000D01*
X74750000Y-63850000D02*
X74750000Y-63950000D01*
X73500000Y-57550000D02*
X76000000Y-57550000D01*
X76000000Y-63850000D01*
X73500000Y-63850000D01*
X73500000Y-57550000D01*
%TO.C,R32*%
X130750000Y-29550000D02*
X130750000Y-29450000D01*
X130750000Y-35850000D02*
X130750000Y-35950000D01*
X129500000Y-29550000D02*
X132000000Y-29550000D01*
X132000000Y-35850000D01*
X129500000Y-35850000D01*
X129500000Y-29550000D01*
%TO.C,R16*%
X133150000Y-18500000D02*
X133050000Y-18500000D01*
X139450000Y-18500000D02*
X139550000Y-18500000D01*
X133150000Y-17250000D02*
X139450000Y-17250000D01*
X139450000Y-19750000D01*
X133150000Y-19750000D01*
X133150000Y-17250000D01*
%TO.C,R29*%
X65750000Y-29550000D02*
X65750000Y-29450000D01*
X65750000Y-35850000D02*
X65750000Y-35950000D01*
X64500000Y-29550000D02*
X67000000Y-29550000D01*
X67000000Y-35850000D01*
X64500000Y-35850000D01*
X64500000Y-29550000D01*
%TO.C,R31*%
X121750000Y-29550000D02*
X121750000Y-29450000D01*
X121750000Y-35850000D02*
X121750000Y-35950000D01*
X120500000Y-29550000D02*
X123000000Y-29550000D01*
X123000000Y-35850000D01*
X120500000Y-35850000D01*
X120500000Y-29550000D01*
%TO.C,R36*%
X130750000Y-57800000D02*
X130750000Y-57700000D01*
X130750000Y-64100000D02*
X130750000Y-64200000D01*
X129500000Y-57800000D02*
X132000000Y-57800000D01*
X132000000Y-64100000D01*
X129500000Y-64100000D01*
X129500000Y-57800000D01*
%TO.C,R33*%
X65750000Y-57550000D02*
X65750000Y-57450000D01*
X65750000Y-63850000D02*
X65750000Y-63950000D01*
X64500000Y-57550000D02*
X67000000Y-57550000D01*
X67000000Y-63850000D01*
X64500000Y-63850000D01*
X64500000Y-57550000D01*
%TO.C,R14*%
X30750000Y-29300000D02*
X30750000Y-29200000D01*
X30750000Y-35600000D02*
X30750000Y-35700000D01*
X29500000Y-29300000D02*
X32000000Y-29300000D01*
X32000000Y-35600000D01*
X29500000Y-35600000D01*
X29500000Y-29300000D01*
%TD*%
M02*
