M48
; DRILL file KiCad 10.0.0 date 2026-06-20T17:03:42
; FORMAT={-:-/ absolute / metric / decimal}
; #@! TF.CreationDate,2026-06-20T17:03:42-04:00
; #@! TF.GenerationSoftware,Kicad,Pcbnew,10.0.0
; #@! TF.FileFunction,Plated,1,2,PTH
FMAT,2
METRIC
; #@! TA.AperFunction,Plated,PTH,ViaDrill
T1C0.300
; #@! TA.AperFunction,Plated,PTH,ComponentDrill
T2C0.800
; #@! TA.AperFunction,Plated,PTH,ComponentDrill
T3C1.000
; #@! TA.AperFunction,Plated,PTH,ComponentDrill
T4C1.200
; #@! TA.AperFunction,Plated,PTH,ComponentDrill
T5C1.300
%
G90
G05
T1
X23.75Y-19.25
X27.5Y-28.25
X96.8Y-40.876
X105.0Y-41.75
T2
X26.0Y-22.5
X30.75Y-28.15
X30.75Y-36.75
X30.75Y-58.15
X30.75Y-66.75
X31.0Y-22.5
X65.75Y-28.4
X65.75Y-37.0
X65.75Y-56.4
X65.75Y-65.0
X74.75Y-28.4
X74.75Y-37.0
X74.75Y-56.4
X74.75Y-65.0
X97.75Y-35.0
X102.75Y-35.0
X121.75Y-28.4
X121.75Y-37.0
X121.75Y-56.4
X121.75Y-65.0
X130.75Y-28.4
X130.75Y-37.0
X130.75Y-56.65
X130.75Y-65.25
X132.0Y-18.5
X140.6Y-18.5
T3
X144.5Y-14.0
X144.5Y-18.5
X151.0Y-14.0
X151.0Y-18.5
T4
X170.5Y-18.0
X170.5Y-76.5
X174.0Y-76.5
T5
X15.0Y-33.25
X15.0Y-38.25
X15.0Y-63.25
X15.0Y-68.25
X27.5Y-33.25
X27.5Y-38.25
X27.5Y-63.25
X27.5Y-68.25
X50.0Y-34.25
X50.0Y-39.25
X50.0Y-62.25
X50.0Y-67.25
X62.5Y-34.25
X62.5Y-39.25
X62.5Y-62.25
X62.5Y-67.25
X78.0Y-34.25
X78.0Y-39.25
X78.0Y-62.25
X78.0Y-67.25
X90.5Y-34.25
X90.5Y-39.25
X90.5Y-62.25
X90.5Y-67.25
X106.0Y-34.25
X106.0Y-39.25
X106.0Y-62.25
X106.0Y-67.25
X118.5Y-34.25
X118.5Y-39.25
X118.5Y-62.25
X118.5Y-67.25
X134.0Y-34.25
X134.0Y-39.25
X134.0Y-62.25
X134.0Y-67.25
X146.5Y-34.25
X146.5Y-39.25
X146.5Y-62.25
X146.5Y-67.25
M30
