%TF.GenerationSoftware,KiCad,Pcbnew,10.0.0*%
%TF.CreationDate,2026-06-20T17:03:39-04:00*%
%TF.ProjectId,DJ but to separate PCBs,444a2062-7574-4207-946f-207365706172,rev?*%
%TF.SameCoordinates,Original*%
%TF.FileFunction,Soldermask,Bot*%
%TF.FilePolarity,Negative*%
%FSLAX46Y46*%
G04 Gerber Fmt 4.6, Leading zero omitted, Abs format (unit mm)*
G04 Created by KiCad (PCBNEW 10.0.0) date 2026-06-20 17:03:39*
%MOMM*%
%LPD*%
G01*
G04 APERTURE LIST*
G04 Aperture macros list*
%AMRoundRect*
0 Rectangle with rounded corners*
0 $1 Rounding radius*
0 $2 $3 $4 $5 $6 $7 $8 $9 X,Y pos of 4 corners*
0 Add a 4 corners polygon primitive as box body*
4,1,4,$2,$3,$4,$5,$6,$7,$8,$9,$2,$3,0*
0 Add four circle primitives for the rounded corners*
1,1,$1+$1,$2,$3*
1,1,$1+$1,$4,$5*
1,1,$1+$1,$6,$7*
1,1,$1+$1,$8,$9*
0 Add four rect primitives between the rounded corners*
20,1,$1+$1,$2,$3,$4,$5,0*
20,1,$1+$1,$4,$5,$6,$7,0*
20,1,$1+$1,$6,$7,$8,$9,0*
20,1,$1+$1,$8,$9,$2,$3,0*%
G04 Aperture macros list end*
%ADD10C,2.000000*%
%ADD11RoundRect,0.500000X0.500000X1.500000X-0.500000X1.500000X-0.500000X-1.500000X0.500000X-1.500000X0*%
%ADD12C,2.540000*%
%ADD13C,3.200000*%
%ADD14RoundRect,0.150000X-0.875000X-0.150000X0.875000X-0.150000X0.875000X0.150000X-0.875000X0.150000X0*%
%ADD15O,0.500000X1.700000*%
G04 APERTURE END LIST*
D10*
%TO.C,R35*%
X121750000Y-65000000D03*
X121750000Y-56400000D03*
%TD*%
D11*
%TO.C,Lights1*%
X81000000Y-14500000D03*
%TD*%
D12*
%TO.C,SW15*%
X134000000Y-34250000D03*
X146500000Y-34250000D03*
X134000000Y-39250000D03*
X146500000Y-39250000D03*
%TD*%
D10*
%TO.C,R12*%
X30750000Y-58150000D03*
X30750000Y-66750000D03*
%TD*%
D11*
%TO.C,SDA1*%
X88150000Y-14500000D03*
%TD*%
D13*
%TO.C,H13*%
X15500000Y-15250000D03*
%TD*%
D12*
%TO.C,SW10*%
X50000000Y-62250000D03*
X62500000Y-62250000D03*
X50000000Y-67250000D03*
X62500000Y-67250000D03*
%TD*%
D10*
%TO.C,R30*%
X74750000Y-37000000D03*
X74750000Y-28400000D03*
%TD*%
D14*
%TO.C,U1*%
X93600000Y-54505000D03*
X93600000Y-53235000D03*
X93600000Y-51965000D03*
X93600000Y-50695000D03*
X93600000Y-49425000D03*
X93600000Y-48155000D03*
X93600000Y-46885000D03*
X93600000Y-45615000D03*
X93600000Y-44345000D03*
X93600000Y-43075000D03*
X93600000Y-41805000D03*
X93600000Y-40535000D03*
X93600000Y-39265000D03*
X93600000Y-37995000D03*
X102900000Y-37995000D03*
X102900000Y-39265000D03*
X102900000Y-40535000D03*
X102900000Y-41805000D03*
X102900000Y-43075000D03*
X102900000Y-44345000D03*
X102900000Y-45615000D03*
X102900000Y-46885000D03*
X102900000Y-48155000D03*
X102900000Y-49425000D03*
X102900000Y-50695000D03*
X102900000Y-51965000D03*
X102900000Y-53235000D03*
X102900000Y-54505000D03*
%TD*%
D12*
%TO.C,SW9*%
X50000000Y-34250000D03*
X62500000Y-34250000D03*
X50000000Y-39250000D03*
X62500000Y-39250000D03*
%TD*%
%TO.C,SW16*%
X134000000Y-62250000D03*
X146500000Y-62250000D03*
X134000000Y-67250000D03*
X146500000Y-67250000D03*
%TD*%
D13*
%TO.C,H15*%
X15500000Y-75750000D03*
%TD*%
D11*
%TO.C,3.3V1*%
X102500000Y-14500000D03*
%TD*%
D10*
%TO.C,C3*%
X97750000Y-35000000D03*
X102750000Y-35000000D03*
%TD*%
D11*
%TO.C,5V1*%
X84600000Y-14500000D03*
%TD*%
D12*
%TO.C,SW12*%
X78000000Y-62250000D03*
X90500000Y-62250000D03*
X78000000Y-67250000D03*
X90500000Y-67250000D03*
%TD*%
D10*
%TO.C,C6*%
X31000000Y-22500000D03*
X26000000Y-22500000D03*
%TD*%
D12*
%TO.C,SW30*%
X15000000Y-63250000D03*
X27500000Y-63250000D03*
X15000000Y-68250000D03*
X27500000Y-68250000D03*
%TD*%
%TO.C,SW11*%
X78000000Y-34250000D03*
X90500000Y-34250000D03*
X78000000Y-39250000D03*
X90500000Y-39250000D03*
%TD*%
D10*
%TO.C,R34*%
X74750000Y-65000000D03*
X74750000Y-56400000D03*
%TD*%
%TO.C,R32*%
X130750000Y-37000000D03*
X130750000Y-28400000D03*
%TD*%
%TO.C,R16*%
X132000000Y-18500000D03*
X140600000Y-18500000D03*
%TD*%
D15*
%TO.C,RV2*%
X176450000Y-72350000D03*
X168050000Y-71150000D03*
X168050000Y-23350000D03*
X176450000Y-22150000D03*
D12*
X170500000Y-76500000D03*
X174000000Y-76500000D03*
X170500000Y-18000000D03*
%TD*%
D11*
%TO.C,GND3*%
X99000000Y-14500000D03*
%TD*%
D10*
%TO.C,R29*%
X65750000Y-37000000D03*
X65750000Y-28400000D03*
%TD*%
D12*
%TO.C,SW14*%
X106000000Y-34250000D03*
X118500000Y-34250000D03*
X106000000Y-39250000D03*
X118500000Y-39250000D03*
%TD*%
D10*
%TO.C,R31*%
X121750000Y-37000000D03*
X121750000Y-28400000D03*
%TD*%
D11*
%TO.C,Fader1*%
X106000000Y-14500000D03*
%TD*%
D13*
%TO.C,H16*%
X159750000Y-75250000D03*
%TD*%
D12*
%TO.C,SW13*%
X106000000Y-62250000D03*
X118500000Y-62250000D03*
X106000000Y-67250000D03*
X118500000Y-67250000D03*
%TD*%
D10*
%TO.C,R36*%
X130750000Y-65250000D03*
X130750000Y-56650000D03*
%TD*%
D12*
%TO.C,SW33*%
X15000000Y-33250000D03*
X27500000Y-33250000D03*
X15000000Y-38250000D03*
X27500000Y-38250000D03*
%TD*%
D10*
%TO.C,R33*%
X65750000Y-65000000D03*
X65750000Y-56400000D03*
%TD*%
%TO.C,SW23*%
X144500000Y-14000000D03*
X151000000Y-14000000D03*
X144500000Y-18500000D03*
X151000000Y-18500000D03*
%TD*%
D11*
%TO.C,SCK1*%
X91700000Y-14500000D03*
%TD*%
D10*
%TO.C,R14*%
X30750000Y-28150000D03*
X30750000Y-36750000D03*
%TD*%
D13*
%TO.C,H14*%
X159500000Y-15250000D03*
%TD*%
D11*
%TO.C,INT1*%
X95250000Y-14500000D03*
%TD*%
M02*
