%TF.GenerationSoftware,KiCad,Pcbnew,10.0.0*%
%TF.CreationDate,2026-06-20T17:03:39-04:00*%
%TF.ProjectId,DJ but to separate PCBs,444a2062-7574-4207-946f-207365706172,rev?*%
%TF.SameCoordinates,Original*%
%TF.FileFunction,Copper,L2,Bot*%
%TF.FilePolarity,Positive*%
%FSLAX46Y46*%
G04 Gerber Fmt 4.6, Leading zero omitted, Abs format (unit mm)*
G04 Created by KiCad (PCBNEW 10.0.0) date 2026-06-20 17:03:39*
%MOMM*%
%LPD*%
G01*
G04 APERTURE LIST*
G04 Aperture macros list*
%AMRoundRect*
0 Rectangle with rounded corners*
0 $1 Rounding radius*
0 $2 $3 $4 $5 $6 $7 $8 $9 X,Y pos of 4 corners*
0 Add a 4 corners polygon primitive as box body*
4,1,4,$2,$3,$4,$5,$6,$7,$8,$9,$2,$3,0*
0 Add four circle primitives for the rounded corners*
1,1,$1+$1,$2,$3*
1,1,$1+$1,$4,$5*
1,1,$1+$1,$6,$7*
1,1,$1+$1,$8,$9*
0 Add four rect primitives between the rounded corners*
20,1,$1+$1,$2,$3,$4,$5,0*
20,1,$1+$1,$4,$5,$6,$7,0*
20,1,$1+$1,$6,$7,$8,$9,0*
20,1,$1+$1,$8,$9,$2,$3,0*%
G04 Aperture macros list end*
%TA.AperFunction,ComponentPad*%
%ADD10C,2.000000*%
%TD*%
%TA.AperFunction,SMDPad,CuDef*%
%ADD11RoundRect,0.500000X0.500000X1.500000X-0.500000X1.500000X-0.500000X-1.500000X0.500000X-1.500000X0*%
%TD*%
%TA.AperFunction,ComponentPad*%
%ADD12C,2.540000*%
%TD*%
%TA.AperFunction,SMDPad,CuDef*%
%ADD13RoundRect,0.150000X-0.875000X-0.150000X0.875000X-0.150000X0.875000X0.150000X-0.875000X0.150000X0*%
%TD*%
%TA.AperFunction,ViaPad*%
%ADD14C,0.600000*%
%TD*%
%TA.AperFunction,Conductor*%
%ADD15C,0.300000*%
%TD*%
G04 APERTURE END LIST*
D10*
%TO.P,R35,1*%
%TO.N,/Performance Pads I2C/SW_L7*%
X121750000Y-65000000D03*
%TO.P,R35,2*%
%TO.N,+5V*%
X121750000Y-56400000D03*
%TD*%
D11*
%TO.P,Lights1,1*%
%TO.N,Net-(D1-DIN)*%
X81000000Y-14500000D03*
%TD*%
D12*
%TO.P,SW15,1,1_1*%
%TO.N,GND*%
X134000000Y-34250000D03*
X146500000Y-34250000D03*
%TO.P,SW15,2,2_2*%
%TO.N,/Performance Pads I2C/SW_L4*%
X134000000Y-39250000D03*
X146500000Y-39250000D03*
%TD*%
D10*
%TO.P,R12,1*%
%TO.N,+5V*%
X30750000Y-58150000D03*
%TO.P,R12,2*%
%TO.N,/Performance Pads I2C/PlayA*%
X30750000Y-66750000D03*
%TD*%
D11*
%TO.P,SDA1,1*%
%TO.N,Net-(U1-SDA)*%
X88150000Y-14500000D03*
%TD*%
D12*
%TO.P,SW10,1,1_1*%
%TO.N,GND*%
X50000000Y-62250000D03*
X62500000Y-62250000D03*
%TO.P,SW10,2,2_2*%
%TO.N,/Performance Pads I2C/SW_L5*%
X50000000Y-67250000D03*
X62500000Y-67250000D03*
%TD*%
D10*
%TO.P,R30,1*%
%TO.N,/Performance Pads I2C/SW_L2*%
X74750000Y-37000000D03*
%TO.P,R30,2*%
%TO.N,+5V*%
X74750000Y-28400000D03*
%TD*%
D13*
%TO.P,U1,1,GPB0_1*%
%TO.N,unconnected-(U1-GPB0-Pad1)*%
X93600000Y-54505000D03*
%TO.P,U1,2,GPB1_2*%
%TO.N,unconnected-(U1-GPB1-Pad2)*%
X93600000Y-53235000D03*
%TO.P,U1,3,GPB2_3*%
%TO.N,/Performance Pads I2C/SW_L6*%
X93600000Y-51965000D03*
%TO.P,U1,4,GPB3_4*%
%TO.N,/Performance Pads I2C/SW_L5*%
X93600000Y-50695000D03*
%TO.P,U1,5,GPB4_5*%
%TO.N,/Performance Pads I2C/PlayA*%
X93600000Y-49425000D03*
%TO.P,U1,6,GPB5_6*%
%TO.N,/Performance Pads I2C/CueA*%
X93600000Y-48155000D03*
%TO.P,U1,7,GPB6_7*%
%TO.N,/Performance Pads I2C/SW_L1*%
X93600000Y-46885000D03*
%TO.P,U1,8,GPB7_8*%
%TO.N,/Performance Pads I2C/SW_L2*%
X93600000Y-45615000D03*
%TO.P,U1,9,V_{DD}_9*%
%TO.N,+5V*%
X93600000Y-44345000D03*
%TO.P,U1,10,V_{SS}_10*%
%TO.N,GND*%
X93600000Y-43075000D03*
%TO.P,U1,11,NC_11*%
%TO.N,unconnected-(U1-NC-Pad11)*%
X93600000Y-41805000D03*
%TO.P,U1,12,SCK_12*%
%TO.N,Net-(U1-SCK)*%
X93600000Y-40535000D03*
%TO.P,U1,13,SDA_13*%
%TO.N,Net-(U1-SDA)*%
X93600000Y-39265000D03*
%TO.P,U1,14,NC_14*%
%TO.N,unconnected-(U1-NC-Pad14)*%
X93600000Y-37995000D03*
%TO.P,U1,15,A0_15*%
%TO.N,GND*%
X102900000Y-37995000D03*
%TO.P,U1,16,A1_16*%
X102900000Y-39265000D03*
%TO.P,U1,17,A2_17*%
X102900000Y-40535000D03*
%TO.P,U1,18,~{RESET}_18*%
%TO.N,+5V*%
X102900000Y-41805000D03*
%TO.P,U1,19,INTB_19*%
%TO.N,Net-(U1-INTA)*%
X102900000Y-43075000D03*
%TO.P,U1,20,INTA_20*%
X102900000Y-44345000D03*
%TO.P,U1,21,GPA0_21*%
%TO.N,/Performance Pads I2C/SW_L3*%
X102900000Y-45615000D03*
%TO.P,U1,22,GPA1_22*%
%TO.N,/Performance Pads I2C/PModeA*%
X102900000Y-46885000D03*
%TO.P,U1,23,GPA2_23*%
%TO.N,/Performance Pads I2C/SW_L4*%
X102900000Y-48155000D03*
%TO.P,U1,24,GPA3_24*%
%TO.N,/Performance Pads I2C/SW_L8*%
X102900000Y-49425000D03*
%TO.P,U1,25,GPA4_25*%
%TO.N,/Performance Pads I2C/SW_L7*%
X102900000Y-50695000D03*
%TO.P,U1,26,GPA5_26*%
%TO.N,unconnected-(U1-GPA5-Pad26)*%
X102900000Y-51965000D03*
%TO.P,U1,27,GPA6_27*%
%TO.N,unconnected-(U1-GPA6-Pad27)*%
X102900000Y-53235000D03*
%TO.P,U1,28,GPA7_28*%
%TO.N,unconnected-(U1-GPA7-Pad28)*%
X102900000Y-54505000D03*
%TD*%
D12*
%TO.P,SW9,1,1_1*%
%TO.N,GND*%
X50000000Y-34250000D03*
X62500000Y-34250000D03*
%TO.P,SW9,2,2_2*%
%TO.N,/Performance Pads I2C/SW_L1*%
X50000000Y-39250000D03*
X62500000Y-39250000D03*
%TD*%
%TO.P,SW16,1,1_1*%
%TO.N,GND*%
X134000000Y-62250000D03*
X146500000Y-62250000D03*
%TO.P,SW16,2,2_2*%
%TO.N,/Performance Pads I2C/SW_L8*%
X134000000Y-67250000D03*
X146500000Y-67250000D03*
%TD*%
D11*
%TO.P,3.3V1,1*%
%TO.N,+3.3V*%
X102500000Y-14500000D03*
%TD*%
D10*
%TO.P,C3,1*%
%TO.N,+5V*%
X97750000Y-35000000D03*
%TO.P,C3,2*%
%TO.N,GND*%
X102750000Y-35000000D03*
%TD*%
D11*
%TO.P,5V1,1*%
%TO.N,+5V*%
X84600000Y-14500000D03*
%TD*%
D12*
%TO.P,SW12,1,1_1*%
%TO.N,GND*%
X78000000Y-62250000D03*
X90500000Y-62250000D03*
%TO.P,SW12,2,2_2*%
%TO.N,/Performance Pads I2C/SW_L6*%
X78000000Y-67250000D03*
X90500000Y-67250000D03*
%TD*%
D10*
%TO.P,C6,1*%
%TO.N,+5V*%
X31000000Y-22500000D03*
%TO.P,C6,2*%
%TO.N,GND*%
X26000000Y-22500000D03*
%TD*%
D12*
%TO.P,SW30,1,1_1*%
%TO.N,GND*%
X15000000Y-63250000D03*
X27500000Y-63250000D03*
%TO.P,SW30,2,2_2*%
%TO.N,/Performance Pads I2C/PlayA*%
X15000000Y-68250000D03*
X27500000Y-68250000D03*
%TD*%
%TO.P,SW11,1,1_1*%
%TO.N,GND*%
X78000000Y-34250000D03*
X90500000Y-34250000D03*
%TO.P,SW11,2,2_2*%
%TO.N,/Performance Pads I2C/SW_L2*%
X78000000Y-39250000D03*
X90500000Y-39250000D03*
%TD*%
D10*
%TO.P,R34,1*%
%TO.N,/Performance Pads I2C/SW_L6*%
X74750000Y-65000000D03*
%TO.P,R34,2*%
%TO.N,+5V*%
X74750000Y-56400000D03*
%TD*%
%TO.P,R32,1*%
%TO.N,/Performance Pads I2C/SW_L4*%
X130750000Y-37000000D03*
%TO.P,R32,2*%
%TO.N,+5V*%
X130750000Y-28400000D03*
%TD*%
%TO.P,R16,1*%
%TO.N,+5V*%
X132000000Y-18500000D03*
%TO.P,R16,2*%
%TO.N,/Performance Pads I2C/PModeA*%
X140600000Y-18500000D03*
%TD*%
D12*
%TO.P,RV2,1,1_1*%
%TO.N,+3.3V*%
X170500000Y-76500000D03*
%TO.P,RV2,2,2_2*%
%TO.N,Net-(Fader1-Pad1)*%
X174000000Y-76500000D03*
%TO.P,RV2,3,3_3*%
%TO.N,GND*%
X170500000Y-18000000D03*
%TD*%
D11*
%TO.P,GND3,1*%
%TO.N,GND*%
X99000000Y-14500000D03*
%TD*%
D10*
%TO.P,R29,1*%
%TO.N,/Performance Pads I2C/SW_L1*%
X65750000Y-37000000D03*
%TO.P,R29,2*%
%TO.N,+5V*%
X65750000Y-28400000D03*
%TD*%
D12*
%TO.P,SW14,1,1_1*%
%TO.N,GND*%
X106000000Y-34250000D03*
X118500000Y-34250000D03*
%TO.P,SW14,2,2_2*%
%TO.N,/Performance Pads I2C/SW_L3*%
X106000000Y-39250000D03*
X118500000Y-39250000D03*
%TD*%
D10*
%TO.P,R31,1*%
%TO.N,/Performance Pads I2C/SW_L3*%
X121750000Y-37000000D03*
%TO.P,R31,2*%
%TO.N,+5V*%
X121750000Y-28400000D03*
%TD*%
D11*
%TO.P,Fader1,1*%
%TO.N,Net-(Fader1-Pad1)*%
X106000000Y-14500000D03*
%TD*%
D12*
%TO.P,SW13,1,1_1*%
%TO.N,GND*%
X106000000Y-62250000D03*
X118500000Y-62250000D03*
%TO.P,SW13,2,2_2*%
%TO.N,/Performance Pads I2C/SW_L7*%
X106000000Y-67250000D03*
X118500000Y-67250000D03*
%TD*%
D10*
%TO.P,R36,1*%
%TO.N,/Performance Pads I2C/SW_L8*%
X130750000Y-65250000D03*
%TO.P,R36,2*%
%TO.N,+5V*%
X130750000Y-56650000D03*
%TD*%
D12*
%TO.P,SW33,1,1_1*%
%TO.N,GND*%
X15000000Y-33250000D03*
X27500000Y-33250000D03*
%TO.P,SW33,2,2_2*%
%TO.N,/Performance Pads I2C/CueA*%
X15000000Y-38250000D03*
X27500000Y-38250000D03*
%TD*%
D10*
%TO.P,R33,1*%
%TO.N,/Performance Pads I2C/SW_L5*%
X65750000Y-65000000D03*
%TO.P,R33,2*%
%TO.N,+5V*%
X65750000Y-56400000D03*
%TD*%
%TO.P,SW23,1,1_1*%
%TO.N,GND*%
X144500000Y-14000000D03*
X151000000Y-14000000D03*
%TO.P,SW23,2,2_2*%
%TO.N,/Performance Pads I2C/PModeA*%
X144500000Y-18500000D03*
X151000000Y-18500000D03*
%TD*%
D11*
%TO.P,SCK1,1*%
%TO.N,Net-(U1-SCK)*%
X91700000Y-14500000D03*
%TD*%
D10*
%TO.P,R14,1*%
%TO.N,+5V*%
X30750000Y-28150000D03*
%TO.P,R14,2*%
%TO.N,/Performance Pads I2C/CueA*%
X30750000Y-36750000D03*
%TD*%
D11*
%TO.P,INT1,1*%
%TO.N,Net-(U1-INTA)*%
X95250000Y-14500000D03*
%TD*%
D14*
%TO.N,Net-(D1-DIN)*%
X23750000Y-19250000D03*
%TO.N,GND*%
X96800000Y-40875748D03*
X27500000Y-28250000D03*
%TO.N,+5V*%
X105000000Y-41750000D03*
%TD*%
%TO.N,Net-(U1-SDA)*%
D15*
X88150000Y-14500000D02*
X88150000Y-28400000D01*
%TO.N,/Performance Pads I2C/SW_L8*%
X102900000Y-49425000D02*
X120925000Y-49425000D01*
%TO.N,Net-(U1-SDA)*%
X94624999Y-39265000D02*
X93600000Y-39265000D01*
%TO.N,/Performance Pads I2C/SW_L3*%
X119500000Y-39250000D02*
X118500000Y-39250000D01*
%TO.N,Net-(U1-INTA)*%
X100000000Y-41065528D02*
X102009472Y-43075000D01*
%TO.N,GND*%
X102900000Y-37995000D02*
X102750000Y-37845000D01*
%TO.N,+3.3V*%
X112250000Y-26250000D02*
X129118630Y-26250000D01*
%TO.N,GND*%
X102750000Y-37845000D02*
X102750000Y-35000000D01*
%TO.N,/Performance Pads I2C/CueA*%
X30750000Y-36750000D02*
X29250000Y-38250000D01*
%TO.N,/Performance Pads I2C/SW_L2*%
X90500000Y-43539999D02*
X90500000Y-39250000D01*
%TO.N,/Performance Pads I2C/SW_L8*%
X120925000Y-49425000D02*
X130750000Y-59250000D01*
%TO.N,/Performance Pads I2C/PlayA*%
X29250000Y-68250000D02*
X27500000Y-68250000D01*
%TO.N,GND*%
X99000000Y-16500000D02*
X102750000Y-20250000D01*
%TO.N,/Performance Pads I2C/SW_L1*%
X63500000Y-39250000D02*
X62500000Y-39250000D01*
%TO.N,Net-(U1-SDA)*%
X95275000Y-35525000D02*
X95275000Y-38614999D01*
%TO.N,/Performance Pads I2C/PModeA*%
X102900000Y-46885000D02*
X117865000Y-46885000D01*
%TO.N,/Performance Pads I2C/SW_L5*%
X76500000Y-50750000D02*
X65750000Y-61500000D01*
%TO.N,Net-(U1-SDA)*%
X95275000Y-38614999D02*
X94624999Y-39265000D01*
%TO.N,/Performance Pads I2C/PModeA*%
X126250000Y-30250000D02*
X138000000Y-18500000D01*
%TO.N,/Performance Pads I2C/SW_L5*%
X65750000Y-61500000D02*
X65750000Y-65000000D01*
%TO.N,/Performance Pads I2C/SW_L6*%
X74750000Y-65000000D02*
X77000000Y-67250000D01*
%TO.N,/Performance Pads I2C/SW_L5*%
X63500000Y-67250000D02*
X62500000Y-67250000D01*
%TO.N,/Performance Pads I2C/SW_L8*%
X132750000Y-67250000D02*
X134000000Y-67250000D01*
%TO.N,/Performance Pads I2C/SW_L4*%
X119595000Y-48155000D02*
X130750000Y-37000000D01*
%TO.N,/Performance Pads I2C/CueA*%
X93600000Y-48155000D02*
X37405000Y-48155000D01*
%TO.N,/Performance Pads I2C/SW_L6*%
X77000000Y-67250000D02*
X78000000Y-67250000D01*
%TO.N,/Performance Pads I2C/SW_L4*%
X133000000Y-39250000D02*
X134000000Y-39250000D01*
%TO.N,+5V*%
X84600000Y-14500000D02*
X84600000Y-18550000D01*
%TO.N,Net-(U1-SCK)*%
X91700000Y-30818630D02*
X96075000Y-35193629D01*
%TO.N,GND*%
X26000000Y-22500000D02*
X27500000Y-24000000D01*
%TO.N,Net-(Fader1-Pad1)*%
X128750000Y-25450000D02*
X138150000Y-16050000D01*
%TO.N,/Performance Pads I2C/PModeA*%
X138000000Y-18500000D02*
X140600000Y-18500000D01*
%TO.N,/Performance Pads I2C/SW_L6*%
X93600000Y-51965000D02*
X92535000Y-51965000D01*
%TO.N,/Performance Pads I2C/SW_L7*%
X119500000Y-67250000D02*
X118500000Y-67250000D01*
%TO.N,/Performance Pads I2C/PlayA*%
X93600000Y-49425000D02*
X48075000Y-49425000D01*
%TO.N,/Performance Pads I2C/PModeA*%
X140600000Y-18500000D02*
X144500000Y-18500000D01*
%TO.N,/Performance Pads I2C/SW_L3*%
X102900000Y-45615000D02*
X103924999Y-45615000D01*
%TO.N,/Performance Pads I2C/SW_L2*%
X93600000Y-45615000D02*
X92575001Y-45615000D01*
%TO.N,/Performance Pads I2C/SW_L7*%
X121750000Y-65000000D02*
X119500000Y-67250000D01*
%TO.N,/Performance Pads I2C/PModeA*%
X126250000Y-38500000D02*
X126250000Y-30250000D01*
%TO.N,+3.3V*%
X145850000Y-16850000D02*
X170500000Y-41500000D01*
%TO.N,/Performance Pads I2C/SW_L1*%
X65750000Y-37000000D02*
X63500000Y-39250000D01*
%TO.N,/Performance Pads I2C/SW_L2*%
X77000000Y-39250000D02*
X78000000Y-39250000D01*
%TO.N,/Performance Pads I2C/SW_L1*%
X70135000Y-46885000D02*
X62500000Y-39250000D01*
%TO.N,Net-(Fader1-Pad1)*%
X174000000Y-43868629D02*
X174000000Y-76500000D01*
%TO.N,/Performance Pads I2C/CueA*%
X29250000Y-38250000D02*
X27500000Y-38250000D01*
%TO.N,/Performance Pads I2C/PlayA*%
X48075000Y-49425000D02*
X30750000Y-66750000D01*
%TO.N,+3.3V*%
X102500000Y-14500000D02*
X102500000Y-16500000D01*
%TO.N,Net-(U1-SCK)*%
X96075000Y-35193629D02*
X96075000Y-39084999D01*
X94624999Y-40535000D02*
X93600000Y-40535000D01*
%TO.N,/Performance Pads I2C/SW_L5*%
X65750000Y-65000000D02*
X63500000Y-67250000D01*
%TO.N,Net-(D1-DIN)*%
X28500000Y-14500000D02*
X23750000Y-19250000D01*
%TO.N,/Performance Pads I2C/SW_L7*%
X102900000Y-50695000D02*
X103945000Y-50695000D01*
%TO.N,+5V*%
X102900000Y-41805000D02*
X104945000Y-41805000D01*
%TO.N,/Performance Pads I2C/SW_L1*%
X93600000Y-46885000D02*
X70135000Y-46885000D01*
%TO.N,+3.3V*%
X129118630Y-26250000D02*
X138518630Y-16850000D01*
%TO.N,Net-(Fader1-Pad1)*%
X116950000Y-25450000D02*
X128750000Y-25450000D01*
%TO.N,/Performance Pads I2C/SW_L2*%
X74750000Y-37000000D02*
X77000000Y-39250000D01*
%TO.N,/Performance Pads I2C/SW_L3*%
X106000000Y-43539999D02*
X106000000Y-39250000D01*
%TO.N,/Performance Pads I2C/SW_L5*%
X93545000Y-50750000D02*
X76500000Y-50750000D01*
X93600000Y-50695000D02*
X93545000Y-50750000D01*
%TO.N,/Performance Pads I2C/SW_L7*%
X108500000Y-64750000D02*
X106000000Y-67250000D01*
%TO.N,Net-(U1-INTA)*%
X102900000Y-43075000D02*
X102900000Y-44345000D01*
%TO.N,GND*%
X27500000Y-28250000D02*
X27500000Y-33250000D01*
%TO.N,+3.3V*%
X102500000Y-16500000D02*
X112250000Y-26250000D01*
%TO.N,GND*%
X105250000Y-35000000D02*
X106000000Y-34250000D01*
%TO.N,Net-(Fader1-Pad1)*%
X106000000Y-14500000D02*
X116950000Y-25450000D01*
%TO.N,Net-(D1-DIN)*%
X81000000Y-14500000D02*
X28500000Y-14500000D01*
%TO.N,Net-(U1-INTA)*%
X100000000Y-19250000D02*
X100000000Y-41065528D01*
%TO.N,+5V*%
X84600000Y-18550000D02*
X74750000Y-28400000D01*
%TO.N,Net-(U1-SCK)*%
X96075000Y-39084999D02*
X94624999Y-40535000D01*
%TO.N,Net-(Fader1-Pad1)*%
X146181371Y-16050000D02*
X174000000Y-43868629D01*
%TO.N,/Performance Pads I2C/SW_L8*%
X130750000Y-59250000D02*
X130750000Y-65250000D01*
%TO.N,GND*%
X27500000Y-24000000D02*
X27500000Y-28250000D01*
%TO.N,+5V*%
X104945000Y-41805000D02*
X105000000Y-41750000D01*
%TO.N,/Performance Pads I2C/SW_L7*%
X103945000Y-50695000D02*
X108500000Y-55250000D01*
%TO.N,+5V*%
X94750000Y-44345000D02*
X93600000Y-44345000D01*
%TO.N,/Performance Pads I2C/PModeA*%
X117865000Y-46885000D02*
X126250000Y-38500000D01*
%TO.N,+5V*%
X97750000Y-35000000D02*
X97750000Y-41345000D01*
%TO.N,+3.3V*%
X138518630Y-16850000D02*
X145850000Y-16850000D01*
%TO.N,Net-(U1-INTA)*%
X95250000Y-14500000D02*
X100000000Y-19250000D01*
%TO.N,GND*%
X102750000Y-35000000D02*
X105250000Y-35000000D01*
%TO.N,/Performance Pads I2C/SW_L7*%
X108500000Y-55250000D02*
X108500000Y-64750000D01*
%TO.N,/Performance Pads I2C/SW_L4*%
X130750000Y-37000000D02*
X133000000Y-39250000D01*
%TO.N,/Performance Pads I2C/SW_L3*%
X121750000Y-37000000D02*
X119500000Y-39250000D01*
%TO.N,/Performance Pads I2C/SW_L6*%
X87250000Y-64000000D02*
X90500000Y-67250000D01*
X87250000Y-57250000D02*
X87250000Y-64000000D01*
%TO.N,+5V*%
X97750000Y-41345000D02*
X94750000Y-44345000D01*
%TO.N,/Performance Pads I2C/SW_L8*%
X130750000Y-65250000D02*
X132750000Y-67250000D01*
%TO.N,GND*%
X102750000Y-20250000D02*
X102750000Y-35000000D01*
%TO.N,/Performance Pads I2C/PlayA*%
X30750000Y-66750000D02*
X29250000Y-68250000D01*
%TO.N,Net-(Fader1-Pad1)*%
X138150000Y-16050000D02*
X146181371Y-16050000D01*
%TO.N,/Performance Pads I2C/SW_L3*%
X103924999Y-45615000D02*
X106000000Y-43539999D01*
%TO.N,/Performance Pads I2C/SW_L4*%
X102900000Y-48155000D02*
X119595000Y-48155000D01*
%TO.N,/Performance Pads I2C/CueA*%
X37405000Y-48155000D02*
X27500000Y-38250000D01*
%TO.N,+3.3V*%
X170500000Y-41500000D02*
X170500000Y-76500000D01*
%TO.N,/Performance Pads I2C/SW_L6*%
X92535000Y-51965000D02*
X87250000Y-57250000D01*
%TO.N,/Performance Pads I2C/SW_L2*%
X92575001Y-45615000D02*
X90500000Y-43539999D01*
%TO.N,Net-(U1-SDA)*%
X88150000Y-28400000D02*
X95275000Y-35525000D01*
%TO.N,GND*%
X99000000Y-14500000D02*
X99000000Y-16500000D01*
%TO.N,Net-(U1-SCK)*%
X91700000Y-14500000D02*
X91700000Y-30818630D01*
%TO.N,GND*%
X94600748Y-43075000D02*
X96800000Y-40875748D01*
%TO.N,Net-(U1-INTA)*%
X102009472Y-43075000D02*
X102900000Y-43075000D01*
%TO.N,GND*%
X102900000Y-40535000D02*
X102900000Y-37995000D01*
X93600000Y-43075000D02*
X94600748Y-43075000D01*
%TD*%
M02*
