%TF.GenerationSoftware,KiCad,Pcbnew,10.0.0*%
%TF.CreationDate,2026-06-20T17:02:39-04:00*%
%TF.ProjectId,DJ but to separate PCBs,444a2062-7574-4207-946f-207365706172,rev?*%
%TF.SameCoordinates,Original*%
%TF.FileFunction,Soldermask,Top*%
%TF.FilePolarity,Negative*%
%FSLAX46Y46*%
G04 Gerber Fmt 4.6, Leading zero omitted, Abs format (unit mm)*
G04 Created by KiCad (PCBNEW 10.0.0) date 2026-06-20 17:02:39*
%MOMM*%
%LPD*%
G01*
G04 APERTURE LIST*
G04 Aperture macros list*
%AMRoundRect*
0 Rectangle with rounded corners*
0 $1 Rounding radius*
0 $2 $3 $4 $5 $6 $7 $8 $9 X,Y pos of 4 corners*
0 Add a 4 corners polygon primitive as box body*
4,1,4,$2,$3,$4,$5,$6,$7,$8,$9,$2,$3,0*
0 Add four circle primitives for the rounded corners*
1,1,$1+$1,$2,$3*
1,1,$1+$1,$4,$5*
1,1,$1+$1,$6,$7*
1,1,$1+$1,$8,$9*
0 Add four rect primitives between the rounded corners*
20,1,$1+$1,$2,$3,$4,$5,0*
20,1,$1+$1,$4,$5,$6,$7,0*
20,1,$1+$1,$6,$7,$8,$9,0*
20,1,$1+$1,$8,$9,$2,$3,0*%
%AMFreePoly0*
4,1,37,0.603843,0.796157,0.639018,0.796157,0.711114,0.766294,0.766294,0.711114,0.796157,0.639018,0.796157,0.603843,0.800000,0.600000,0.800000,-0.600000,0.796157,-0.603843,0.796157,-0.639018,0.766294,-0.711114,0.711114,-0.766294,0.639018,-0.796157,0.603843,-0.796157,0.600000,-0.800000,0.000000,-0.800000,0.000000,-0.796148,-0.078414,-0.796148,-0.232228,-0.765552,-0.377117,-0.705537,
-0.507515,-0.618408,-0.618408,-0.507515,-0.705537,-0.377117,-0.765552,-0.232228,-0.796148,-0.078414,-0.796148,0.078414,-0.765552,0.232228,-0.705537,0.377117,-0.618408,0.507515,-0.507515,0.618408,-0.377117,0.705537,-0.232228,0.765552,-0.078414,0.796148,0.000000,0.796148,0.000000,0.800000,0.600000,0.800000,0.603843,0.796157,0.603843,0.796157,$1*%
%AMFreePoly1*
4,1,37,0.000000,0.796148,0.078414,0.796148,0.232228,0.765552,0.377117,0.705537,0.507515,0.618408,0.618408,0.507515,0.705537,0.377117,0.765552,0.232228,0.796148,0.078414,0.796148,-0.078414,0.765552,-0.232228,0.705537,-0.377117,0.618408,-0.507515,0.507515,-0.618408,0.377117,-0.705537,0.232228,-0.765552,0.078414,-0.796148,0.000000,-0.796148,0.000000,-0.800000,-0.600000,-0.800000,
-0.603843,-0.796157,-0.639018,-0.796157,-0.711114,-0.766294,-0.766294,-0.711114,-0.796157,-0.639018,-0.796157,-0.603843,-0.800000,-0.600000,-0.800000,0.600000,-0.796157,0.603843,-0.796157,0.639018,-0.766294,0.711114,-0.711114,0.766294,-0.639018,0.796157,-0.603843,0.796157,-0.600000,0.800000,0.000000,0.800000,0.000000,0.796148,0.000000,0.796148,$1*%
G04 Aperture macros list end*
%ADD10C,3.200000*%
%ADD11C,1.800000*%
%ADD12RoundRect,0.250002X-1.699998X1.699998X-1.699998X-1.699998X1.699998X-1.699998X1.699998X1.699998X0*%
%ADD13RoundRect,0.200000X-0.800000X-1.050000X0.800000X-1.050000X0.800000X1.050000X-0.800000X1.050000X0*%
%ADD14RoundRect,0.250002X1.699998X1.699998X-1.699998X1.699998X-1.699998X-1.699998X1.699998X-1.699998X0*%
%ADD15RoundRect,0.200000X0.800000X1.050000X-0.800000X1.050000X-0.800000X-1.050000X0.800000X-1.050000X0*%
%ADD16C,2.000000*%
%ADD17C,2.200000*%
%ADD18C,1.850000*%
%ADD19RoundRect,0.200000X0.600000X0.600000X-0.600000X0.600000X-0.600000X-0.600000X0.600000X-0.600000X0*%
%ADD20C,1.600000*%
%ADD21FreePoly0,180.000000*%
%ADD22FreePoly1,180.000000*%
G04 APERTURE END LIST*
D10*
%TO.C,H4*%
X137455000Y-86455000D03*
%TD*%
%TO.C,H36*%
X81705000Y-89055000D03*
%TD*%
D11*
%TO.C,U6*%
X135795000Y-60085000D03*
X135795000Y-57545000D03*
X135795000Y-55005000D03*
X135795000Y-52465000D03*
X135795000Y-49925000D03*
X135795000Y-47385000D03*
X129445000Y-46785000D03*
X126905000Y-46785000D03*
X124365000Y-46785000D03*
X121825000Y-46785000D03*
X119285000Y-46785000D03*
X116745000Y-46785000D03*
X114205000Y-46785000D03*
X111665000Y-46785000D03*
X109125000Y-46785000D03*
%TD*%
D10*
%TO.C,H2*%
X13705000Y-86455000D03*
%TD*%
%TO.C,H37*%
X105705000Y-89055000D03*
%TD*%
D11*
%TO.C,PCM1808_BOARD1*%
X88455000Y-31335000D03*
X88455000Y-33875000D03*
X88455000Y-36415000D03*
X88455000Y-38955000D03*
X88455000Y-41495000D03*
X88455000Y-44035000D03*
X63455000Y-31335000D03*
X63455000Y-33875000D03*
X63455000Y-36415000D03*
X63455000Y-38955000D03*
X63455000Y-41495000D03*
X63455000Y-44035000D03*
X78495000Y-21685000D03*
X75955000Y-21685000D03*
X73415000Y-21685000D03*
%TD*%
D10*
%TO.C,H1*%
X13705000Y-13955000D03*
%TD*%
D12*
%TO.C,SCK3*%
X55955000Y-18455000D03*
%TD*%
D13*
%TO.C,J7*%
X96455000Y-77205000D03*
X100455000Y-77205000D03*
X92455000Y-77205000D03*
%TD*%
D14*
%TO.C,5V2*%
X21205000Y-14705000D03*
%TD*%
D10*
%TO.C,H3*%
X137455000Y-13955000D03*
%TD*%
D15*
%TO.C,J1*%
X99875000Y-15285000D03*
X107875000Y-15285000D03*
X103875000Y-15285000D03*
%TD*%
D16*
%TO.C,C9*%
X51580000Y-71955000D03*
X51580000Y-76955000D03*
%TD*%
D15*
%TO.C,J9*%
X97705000Y-61205000D03*
X93705000Y-61205000D03*
X101705000Y-61205000D03*
%TD*%
D11*
%TO.C,U5*%
X107105000Y-66185000D03*
X107105000Y-68725000D03*
X107105000Y-71265000D03*
X107105000Y-73805000D03*
X107105000Y-76345000D03*
X107105000Y-78885000D03*
X113455000Y-79485000D03*
X115995000Y-79485000D03*
X118535000Y-79485000D03*
X121075000Y-79485000D03*
X123615000Y-79485000D03*
X126155000Y-79485000D03*
X128695000Y-79485000D03*
X131235000Y-79485000D03*
X133775000Y-79485000D03*
%TD*%
D16*
%TO.C,TR1*%
X98125000Y-37535000D03*
X103125000Y-37535000D03*
X108125000Y-37535000D03*
X103125000Y-25035000D03*
X108125000Y-25035000D03*
X98125000Y-25035000D03*
%TD*%
D14*
%TO.C,3.3V2*%
X21205000Y-27705000D03*
%TD*%
%TO.C,GND10*%
X20955000Y-49455000D03*
%TD*%
D16*
%TO.C,R6*%
X59555000Y-71005000D03*
X59555000Y-62405000D03*
%TD*%
D15*
%TO.C,J2*%
X121955000Y-15285000D03*
X129955000Y-15285000D03*
X125955000Y-15285000D03*
%TD*%
%TO.C,J8*%
X74455000Y-14935000D03*
X82455000Y-14935000D03*
X78455000Y-14935000D03*
%TD*%
D17*
%TO.C,A1*%
X41540000Y-12445000D03*
D18*
X41240000Y-15475000D03*
X36390000Y-15475000D03*
D17*
X36090000Y-12445000D03*
D19*
X47705000Y-12315000D03*
D20*
X47705000Y-14855000D03*
D21*
X47705000Y-17395000D03*
D20*
X47705000Y-19935000D03*
X47705000Y-22475000D03*
X47705000Y-25015000D03*
X47705000Y-27555000D03*
D21*
X47705000Y-30095000D03*
D20*
X47705000Y-32635000D03*
X47705000Y-35175000D03*
X47705000Y-37715000D03*
X47705000Y-40255000D03*
D21*
X47705000Y-42795000D03*
D20*
X47705000Y-45335000D03*
X47705000Y-47875000D03*
X47705000Y-50415000D03*
X47705000Y-52955000D03*
D21*
X47705000Y-55495000D03*
D20*
X47705000Y-58035000D03*
X47705000Y-60575000D03*
X29925000Y-60575000D03*
X29925000Y-58035000D03*
D22*
X29925000Y-55495000D03*
D20*
X29925000Y-52955000D03*
X29925000Y-50415000D03*
X29925000Y-47875000D03*
X29925000Y-45335000D03*
D22*
X29925000Y-42795000D03*
D20*
X29925000Y-40255000D03*
X29925000Y-37715000D03*
X29925000Y-35175000D03*
X29925000Y-32635000D03*
D22*
X29925000Y-30095000D03*
D20*
X29925000Y-27555000D03*
X29925000Y-25015000D03*
X29925000Y-22475000D03*
X29925000Y-19935000D03*
D22*
X29925000Y-17395000D03*
D20*
X29925000Y-14855000D03*
X29925000Y-12315000D03*
%TD*%
D16*
%TO.C,TR2*%
X123125000Y-37035000D03*
X128125000Y-37035000D03*
X133125000Y-37035000D03*
X128125000Y-24535000D03*
X133125000Y-24535000D03*
X123125000Y-24535000D03*
%TD*%
D15*
%TO.C,J10*%
X62455000Y-14935000D03*
X70455000Y-14935000D03*
X66455000Y-14935000D03*
%TD*%
D16*
%TO.C,R5*%
X64205000Y-71005000D03*
X64205000Y-62405000D03*
%TD*%
D14*
%TO.C,3.3V3*%
X21205000Y-21205000D03*
%TD*%
D12*
%TO.C,SDA3*%
X55955000Y-13005000D03*
%TD*%
D14*
%TO.C,GND9*%
X20955000Y-42955000D03*
%TD*%
M02*
