%TF.GenerationSoftware,KiCad,Pcbnew,10.0.0*%
%TF.CreationDate,2026-06-20T17:02:39-04:00*%
%TF.ProjectId,DJ but to separate PCBs,444a2062-7574-4207-946f-207365706172,rev?*%
%TF.SameCoordinates,Original*%
%TF.FileFunction,Legend,Bot*%
%TF.FilePolarity,Positive*%
%FSLAX46Y46*%
G04 Gerber Fmt 4.6, Leading zero omitted, Abs format (unit mm)*
G04 Created by KiCad (PCBNEW 10.0.0) date 2026-06-20 17:02:39*
%MOMM*%
%LPD*%
G01*
G04 APERTURE LIST*
%ADD10C,0.100000*%
%ADD11C,0.150000*%
%ADD12C,0.120000*%
G04 APERTURE END LIST*
D10*
X134787187Y-18037419D02*
X135120520Y-17561228D01*
X135358615Y-18037419D02*
X135358615Y-17037419D01*
X135358615Y-17037419D02*
X134977663Y-17037419D01*
X134977663Y-17037419D02*
X134882425Y-17085038D01*
X134882425Y-17085038D02*
X134834806Y-17132657D01*
X134834806Y-17132657D02*
X134787187Y-17227895D01*
X134787187Y-17227895D02*
X134787187Y-17370752D01*
X134787187Y-17370752D02*
X134834806Y-17465990D01*
X134834806Y-17465990D02*
X134882425Y-17513609D01*
X134882425Y-17513609D02*
X134977663Y-17561228D01*
X134977663Y-17561228D02*
X135358615Y-17561228D01*
X134358615Y-18037419D02*
X134358615Y-17370752D01*
X134358615Y-17037419D02*
X134406234Y-17085038D01*
X134406234Y-17085038D02*
X134358615Y-17132657D01*
X134358615Y-17132657D02*
X134310996Y-17085038D01*
X134310996Y-17085038D02*
X134358615Y-17037419D01*
X134358615Y-17037419D02*
X134358615Y-17132657D01*
X133453854Y-17370752D02*
X133453854Y-18180276D01*
X133453854Y-18180276D02*
X133501473Y-18275514D01*
X133501473Y-18275514D02*
X133549092Y-18323133D01*
X133549092Y-18323133D02*
X133644330Y-18370752D01*
X133644330Y-18370752D02*
X133787187Y-18370752D01*
X133787187Y-18370752D02*
X133882425Y-18323133D01*
X133453854Y-17989800D02*
X133549092Y-18037419D01*
X133549092Y-18037419D02*
X133739568Y-18037419D01*
X133739568Y-18037419D02*
X133834806Y-17989800D01*
X133834806Y-17989800D02*
X133882425Y-17942180D01*
X133882425Y-17942180D02*
X133930044Y-17846942D01*
X133930044Y-17846942D02*
X133930044Y-17561228D01*
X133930044Y-17561228D02*
X133882425Y-17465990D01*
X133882425Y-17465990D02*
X133834806Y-17418371D01*
X133834806Y-17418371D02*
X133739568Y-17370752D01*
X133739568Y-17370752D02*
X133549092Y-17370752D01*
X133549092Y-17370752D02*
X133453854Y-17418371D01*
X132977663Y-18037419D02*
X132977663Y-17037419D01*
X132549092Y-18037419D02*
X132549092Y-17513609D01*
X132549092Y-17513609D02*
X132596711Y-17418371D01*
X132596711Y-17418371D02*
X132691949Y-17370752D01*
X132691949Y-17370752D02*
X132834806Y-17370752D01*
X132834806Y-17370752D02*
X132930044Y-17418371D01*
X132930044Y-17418371D02*
X132977663Y-17465990D01*
X132215758Y-17370752D02*
X131834806Y-17370752D01*
X132072901Y-17037419D02*
X132072901Y-17894561D01*
X132072901Y-17894561D02*
X132025282Y-17989800D01*
X132025282Y-17989800D02*
X131930044Y-18037419D01*
X131930044Y-18037419D02*
X131834806Y-18037419D01*
X88608615Y-17287419D02*
X88608615Y-16287419D01*
X88132425Y-16620752D02*
X88132425Y-17287419D01*
X88132425Y-16715990D02*
X88084806Y-16668371D01*
X88084806Y-16668371D02*
X87989568Y-16620752D01*
X87989568Y-16620752D02*
X87846711Y-16620752D01*
X87846711Y-16620752D02*
X87751473Y-16668371D01*
X87751473Y-16668371D02*
X87703854Y-16763609D01*
X87703854Y-16763609D02*
X87703854Y-17287419D01*
X87227663Y-16620752D02*
X87227663Y-17620752D01*
X87227663Y-16668371D02*
X87132425Y-16620752D01*
X87132425Y-16620752D02*
X86941949Y-16620752D01*
X86941949Y-16620752D02*
X86846711Y-16668371D01*
X86846711Y-16668371D02*
X86799092Y-16715990D01*
X86799092Y-16715990D02*
X86751473Y-16811228D01*
X86751473Y-16811228D02*
X86751473Y-17096942D01*
X86751473Y-17096942D02*
X86799092Y-17192180D01*
X86799092Y-17192180D02*
X86846711Y-17239800D01*
X86846711Y-17239800D02*
X86941949Y-17287419D01*
X86941949Y-17287419D02*
X87132425Y-17287419D01*
X87132425Y-17287419D02*
X87227663Y-17239800D01*
X85894330Y-16620752D02*
X85894330Y-17287419D01*
X86322901Y-16620752D02*
X86322901Y-17144561D01*
X86322901Y-17144561D02*
X86275282Y-17239800D01*
X86275282Y-17239800D02*
X86180044Y-17287419D01*
X86180044Y-17287419D02*
X86037187Y-17287419D01*
X86037187Y-17287419D02*
X85941949Y-17239800D01*
X85941949Y-17239800D02*
X85894330Y-17192180D01*
X85560996Y-16620752D02*
X85180044Y-16620752D01*
X85418139Y-16287419D02*
X85418139Y-17144561D01*
X85418139Y-17144561D02*
X85370520Y-17239800D01*
X85370520Y-17239800D02*
X85275282Y-17287419D01*
X85275282Y-17287419D02*
X85180044Y-17287419D01*
X84894329Y-17239800D02*
X84799091Y-17287419D01*
X84799091Y-17287419D02*
X84608615Y-17287419D01*
X84608615Y-17287419D02*
X84513377Y-17239800D01*
X84513377Y-17239800D02*
X84465758Y-17144561D01*
X84465758Y-17144561D02*
X84465758Y-17096942D01*
X84465758Y-17096942D02*
X84513377Y-17001704D01*
X84513377Y-17001704D02*
X84608615Y-16954085D01*
X84608615Y-16954085D02*
X84751472Y-16954085D01*
X84751472Y-16954085D02*
X84846710Y-16906466D01*
X84846710Y-16906466D02*
X84894329Y-16811228D01*
X84894329Y-16811228D02*
X84894329Y-16763609D01*
X84894329Y-16763609D02*
X84846710Y-16668371D01*
X84846710Y-16668371D02*
X84751472Y-16620752D01*
X84751472Y-16620752D02*
X84608615Y-16620752D01*
X84608615Y-16620752D02*
X84513377Y-16668371D01*
X112882425Y-18287419D02*
X113358615Y-18287419D01*
X113358615Y-18287419D02*
X113358615Y-17287419D01*
X112168139Y-18239800D02*
X112263377Y-18287419D01*
X112263377Y-18287419D02*
X112453853Y-18287419D01*
X112453853Y-18287419D02*
X112549091Y-18239800D01*
X112549091Y-18239800D02*
X112596710Y-18144561D01*
X112596710Y-18144561D02*
X112596710Y-17763609D01*
X112596710Y-17763609D02*
X112549091Y-17668371D01*
X112549091Y-17668371D02*
X112453853Y-17620752D01*
X112453853Y-17620752D02*
X112263377Y-17620752D01*
X112263377Y-17620752D02*
X112168139Y-17668371D01*
X112168139Y-17668371D02*
X112120520Y-17763609D01*
X112120520Y-17763609D02*
X112120520Y-17858847D01*
X112120520Y-17858847D02*
X112596710Y-17954085D01*
X111834805Y-17620752D02*
X111453853Y-17620752D01*
X111691948Y-18287419D02*
X111691948Y-17430276D01*
X111691948Y-17430276D02*
X111644329Y-17335038D01*
X111644329Y-17335038D02*
X111549091Y-17287419D01*
X111549091Y-17287419D02*
X111453853Y-17287419D01*
X111263376Y-17620752D02*
X110882424Y-17620752D01*
X111120519Y-17287419D02*
X111120519Y-18144561D01*
X111120519Y-18144561D02*
X111072900Y-18239800D01*
X111072900Y-18239800D02*
X110977662Y-18287419D01*
X110977662Y-18287419D02*
X110882424Y-18287419D01*
X97787187Y-66787419D02*
X98120520Y-66311228D01*
X98358615Y-66787419D02*
X98358615Y-65787419D01*
X98358615Y-65787419D02*
X97977663Y-65787419D01*
X97977663Y-65787419D02*
X97882425Y-65835038D01*
X97882425Y-65835038D02*
X97834806Y-65882657D01*
X97834806Y-65882657D02*
X97787187Y-65977895D01*
X97787187Y-65977895D02*
X97787187Y-66120752D01*
X97787187Y-66120752D02*
X97834806Y-66215990D01*
X97834806Y-66215990D02*
X97882425Y-66263609D01*
X97882425Y-66263609D02*
X97977663Y-66311228D01*
X97977663Y-66311228D02*
X98358615Y-66311228D01*
X97358615Y-66406466D02*
X96596711Y-66406466D01*
X96977663Y-66787419D02*
X96977663Y-66025514D01*
X95644330Y-66787419D02*
X96120520Y-66787419D01*
X96120520Y-66787419D02*
X96120520Y-65787419D01*
X98608615Y-82537419D02*
X98608615Y-81537419D01*
X98608615Y-81537419D02*
X98227663Y-81537419D01*
X98227663Y-81537419D02*
X98132425Y-81585038D01*
X98132425Y-81585038D02*
X98084806Y-81632657D01*
X98084806Y-81632657D02*
X98037187Y-81727895D01*
X98037187Y-81727895D02*
X98037187Y-81870752D01*
X98037187Y-81870752D02*
X98084806Y-81965990D01*
X98084806Y-81965990D02*
X98132425Y-82013609D01*
X98132425Y-82013609D02*
X98227663Y-82061228D01*
X98227663Y-82061228D02*
X98608615Y-82061228D01*
X97608615Y-82537419D02*
X97608615Y-81537419D01*
X97180044Y-82537419D02*
X97180044Y-82013609D01*
X97180044Y-82013609D02*
X97227663Y-81918371D01*
X97227663Y-81918371D02*
X97322901Y-81870752D01*
X97322901Y-81870752D02*
X97465758Y-81870752D01*
X97465758Y-81870752D02*
X97560996Y-81918371D01*
X97560996Y-81918371D02*
X97608615Y-81965990D01*
X96560996Y-82537419D02*
X96656234Y-82489800D01*
X96656234Y-82489800D02*
X96703853Y-82442180D01*
X96703853Y-82442180D02*
X96751472Y-82346942D01*
X96751472Y-82346942D02*
X96751472Y-82061228D01*
X96751472Y-82061228D02*
X96703853Y-81965990D01*
X96703853Y-81965990D02*
X96656234Y-81918371D01*
X96656234Y-81918371D02*
X96560996Y-81870752D01*
X96560996Y-81870752D02*
X96418139Y-81870752D01*
X96418139Y-81870752D02*
X96322901Y-81918371D01*
X96322901Y-81918371D02*
X96275282Y-81965990D01*
X96275282Y-81965990D02*
X96227663Y-82061228D01*
X96227663Y-82061228D02*
X96227663Y-82346942D01*
X96227663Y-82346942D02*
X96275282Y-82442180D01*
X96275282Y-82442180D02*
X96322901Y-82489800D01*
X96322901Y-82489800D02*
X96418139Y-82537419D01*
X96418139Y-82537419D02*
X96560996Y-82537419D01*
X95799091Y-81870752D02*
X95799091Y-82537419D01*
X95799091Y-81965990D02*
X95751472Y-81918371D01*
X95751472Y-81918371D02*
X95656234Y-81870752D01*
X95656234Y-81870752D02*
X95513377Y-81870752D01*
X95513377Y-81870752D02*
X95418139Y-81918371D01*
X95418139Y-81918371D02*
X95370520Y-82013609D01*
X95370520Y-82013609D02*
X95370520Y-82537419D01*
X94513377Y-82489800D02*
X94608615Y-82537419D01*
X94608615Y-82537419D02*
X94799091Y-82537419D01*
X94799091Y-82537419D02*
X94894329Y-82489800D01*
X94894329Y-82489800D02*
X94941948Y-82394561D01*
X94941948Y-82394561D02*
X94941948Y-82013609D01*
X94941948Y-82013609D02*
X94894329Y-81918371D01*
X94894329Y-81918371D02*
X94799091Y-81870752D01*
X94799091Y-81870752D02*
X94608615Y-81870752D01*
X94608615Y-81870752D02*
X94513377Y-81918371D01*
X94513377Y-81918371D02*
X94465758Y-82013609D01*
X94465758Y-82013609D02*
X94465758Y-82108847D01*
X94465758Y-82108847D02*
X94941948Y-82204085D01*
X94084805Y-82489800D02*
X93989567Y-82537419D01*
X93989567Y-82537419D02*
X93799091Y-82537419D01*
X93799091Y-82537419D02*
X93703853Y-82489800D01*
X93703853Y-82489800D02*
X93656234Y-82394561D01*
X93656234Y-82394561D02*
X93656234Y-82346942D01*
X93656234Y-82346942D02*
X93703853Y-82251704D01*
X93703853Y-82251704D02*
X93799091Y-82204085D01*
X93799091Y-82204085D02*
X93941948Y-82204085D01*
X93941948Y-82204085D02*
X94037186Y-82156466D01*
X94037186Y-82156466D02*
X94084805Y-82061228D01*
X94084805Y-82061228D02*
X94084805Y-82013609D01*
X94084805Y-82013609D02*
X94037186Y-81918371D01*
X94037186Y-81918371D02*
X93941948Y-81870752D01*
X93941948Y-81870752D02*
X93799091Y-81870752D01*
X93799091Y-81870752D02*
X93703853Y-81918371D01*
D11*
X16650595Y-28869819D02*
X16650595Y-29584104D01*
X16650595Y-29584104D02*
X16698214Y-29726961D01*
X16698214Y-29726961D02*
X16793452Y-29822200D01*
X16793452Y-29822200D02*
X16936309Y-29869819D01*
X16936309Y-29869819D02*
X17031547Y-29869819D01*
X16031547Y-29869819D02*
X16126785Y-29822200D01*
X16126785Y-29822200D02*
X16174404Y-29774580D01*
X16174404Y-29774580D02*
X16222023Y-29679342D01*
X16222023Y-29679342D02*
X16222023Y-29393628D01*
X16222023Y-29393628D02*
X16174404Y-29298390D01*
X16174404Y-29298390D02*
X16126785Y-29250771D01*
X16126785Y-29250771D02*
X16031547Y-29203152D01*
X16031547Y-29203152D02*
X15888690Y-29203152D01*
X15888690Y-29203152D02*
X15793452Y-29250771D01*
X15793452Y-29250771D02*
X15745833Y-29298390D01*
X15745833Y-29298390D02*
X15698214Y-29393628D01*
X15698214Y-29393628D02*
X15698214Y-29679342D01*
X15698214Y-29679342D02*
X15745833Y-29774580D01*
X15745833Y-29774580D02*
X15793452Y-29822200D01*
X15793452Y-29822200D02*
X15888690Y-29869819D01*
X15888690Y-29869819D02*
X16031547Y-29869819D01*
X14841071Y-29203152D02*
X14841071Y-30012676D01*
X14841071Y-30012676D02*
X14888690Y-30107914D01*
X14888690Y-30107914D02*
X14936309Y-30155533D01*
X14936309Y-30155533D02*
X15031547Y-30203152D01*
X15031547Y-30203152D02*
X15174404Y-30203152D01*
X15174404Y-30203152D02*
X15269642Y-30155533D01*
X14841071Y-29822200D02*
X14936309Y-29869819D01*
X14936309Y-29869819D02*
X15126785Y-29869819D01*
X15126785Y-29869819D02*
X15222023Y-29822200D01*
X15222023Y-29822200D02*
X15269642Y-29774580D01*
X15269642Y-29774580D02*
X15317261Y-29679342D01*
X15317261Y-29679342D02*
X15317261Y-29393628D01*
X15317261Y-29393628D02*
X15269642Y-29298390D01*
X15269642Y-29298390D02*
X15222023Y-29250771D01*
X15222023Y-29250771D02*
X15126785Y-29203152D01*
X15126785Y-29203152D02*
X14936309Y-29203152D01*
X14936309Y-29203152D02*
X14841071Y-29250771D01*
X14031547Y-29346009D02*
X13888690Y-29393628D01*
X13888690Y-29393628D02*
X13841071Y-29441247D01*
X13841071Y-29441247D02*
X13793452Y-29536485D01*
X13793452Y-29536485D02*
X13793452Y-29679342D01*
X13793452Y-29679342D02*
X13841071Y-29774580D01*
X13841071Y-29774580D02*
X13888690Y-29822200D01*
X13888690Y-29822200D02*
X13983928Y-29869819D01*
X13983928Y-29869819D02*
X14364880Y-29869819D01*
X14364880Y-29869819D02*
X14364880Y-28869819D01*
X14364880Y-28869819D02*
X14031547Y-28869819D01*
X14031547Y-28869819D02*
X13936309Y-28917438D01*
X13936309Y-28917438D02*
X13888690Y-28965057D01*
X13888690Y-28965057D02*
X13841071Y-29060295D01*
X13841071Y-29060295D02*
X13841071Y-29155533D01*
X13841071Y-29155533D02*
X13888690Y-29250771D01*
X13888690Y-29250771D02*
X13936309Y-29298390D01*
X13936309Y-29298390D02*
X14031547Y-29346009D01*
X14031547Y-29346009D02*
X14364880Y-29346009D01*
X13412499Y-28965057D02*
X13364880Y-28917438D01*
X13364880Y-28917438D02*
X13269642Y-28869819D01*
X13269642Y-28869819D02*
X13031547Y-28869819D01*
X13031547Y-28869819D02*
X12936309Y-28917438D01*
X12936309Y-28917438D02*
X12888690Y-28965057D01*
X12888690Y-28965057D02*
X12841071Y-29060295D01*
X12841071Y-29060295D02*
X12841071Y-29155533D01*
X12841071Y-29155533D02*
X12888690Y-29298390D01*
X12888690Y-29298390D02*
X13460118Y-29869819D01*
X13460118Y-29869819D02*
X12841071Y-29869819D01*
D10*
X121987580Y-54496904D02*
X121178057Y-54496904D01*
X121178057Y-54496904D02*
X121082819Y-54449285D01*
X121082819Y-54449285D02*
X121035200Y-54401666D01*
X121035200Y-54401666D02*
X120987580Y-54306428D01*
X120987580Y-54306428D02*
X120987580Y-54115952D01*
X120987580Y-54115952D02*
X121035200Y-54020714D01*
X121035200Y-54020714D02*
X121082819Y-53973095D01*
X121082819Y-53973095D02*
X121178057Y-53925476D01*
X121178057Y-53925476D02*
X121987580Y-53925476D01*
X121987580Y-53020714D02*
X121987580Y-53211190D01*
X121987580Y-53211190D02*
X121939961Y-53306428D01*
X121939961Y-53306428D02*
X121892342Y-53354047D01*
X121892342Y-53354047D02*
X121749485Y-53449285D01*
X121749485Y-53449285D02*
X121559009Y-53496904D01*
X121559009Y-53496904D02*
X121178057Y-53496904D01*
X121178057Y-53496904D02*
X121082819Y-53449285D01*
X121082819Y-53449285D02*
X121035200Y-53401666D01*
X121035200Y-53401666D02*
X120987580Y-53306428D01*
X120987580Y-53306428D02*
X120987580Y-53115952D01*
X120987580Y-53115952D02*
X121035200Y-53020714D01*
X121035200Y-53020714D02*
X121082819Y-52973095D01*
X121082819Y-52973095D02*
X121178057Y-52925476D01*
X121178057Y-52925476D02*
X121416152Y-52925476D01*
X121416152Y-52925476D02*
X121511390Y-52973095D01*
X121511390Y-52973095D02*
X121559009Y-53020714D01*
X121559009Y-53020714D02*
X121606628Y-53115952D01*
X121606628Y-53115952D02*
X121606628Y-53306428D01*
X121606628Y-53306428D02*
X121559009Y-53401666D01*
X121559009Y-53401666D02*
X121511390Y-53449285D01*
X121511390Y-53449285D02*
X121416152Y-53496904D01*
D11*
X28097857Y-63409819D02*
X28431190Y-62933628D01*
X28669285Y-63409819D02*
X28669285Y-62409819D01*
X28669285Y-62409819D02*
X28288333Y-62409819D01*
X28288333Y-62409819D02*
X28193095Y-62457438D01*
X28193095Y-62457438D02*
X28145476Y-62505057D01*
X28145476Y-62505057D02*
X28097857Y-62600295D01*
X28097857Y-62600295D02*
X28097857Y-62743152D01*
X28097857Y-62743152D02*
X28145476Y-62838390D01*
X28145476Y-62838390D02*
X28193095Y-62886009D01*
X28193095Y-62886009D02*
X28288333Y-62933628D01*
X28288333Y-62933628D02*
X28669285Y-62933628D01*
X27669285Y-62886009D02*
X27335952Y-62886009D01*
X27193095Y-63409819D02*
X27669285Y-63409819D01*
X27669285Y-63409819D02*
X27669285Y-62409819D01*
X27669285Y-62409819D02*
X27193095Y-62409819D01*
X26812142Y-63362200D02*
X26669285Y-63409819D01*
X26669285Y-63409819D02*
X26431190Y-63409819D01*
X26431190Y-63409819D02*
X26335952Y-63362200D01*
X26335952Y-63362200D02*
X26288333Y-63314580D01*
X26288333Y-63314580D02*
X26240714Y-63219342D01*
X26240714Y-63219342D02*
X26240714Y-63124104D01*
X26240714Y-63124104D02*
X26288333Y-63028866D01*
X26288333Y-63028866D02*
X26335952Y-62981247D01*
X26335952Y-62981247D02*
X26431190Y-62933628D01*
X26431190Y-62933628D02*
X26621666Y-62886009D01*
X26621666Y-62886009D02*
X26716904Y-62838390D01*
X26716904Y-62838390D02*
X26764523Y-62790771D01*
X26764523Y-62790771D02*
X26812142Y-62695533D01*
X26812142Y-62695533D02*
X26812142Y-62600295D01*
X26812142Y-62600295D02*
X26764523Y-62505057D01*
X26764523Y-62505057D02*
X26716904Y-62457438D01*
X26716904Y-62457438D02*
X26621666Y-62409819D01*
X26621666Y-62409819D02*
X26383571Y-62409819D01*
X26383571Y-62409819D02*
X26240714Y-62457438D01*
X25907380Y-62409819D02*
X25669285Y-63409819D01*
X25669285Y-63409819D02*
X25478809Y-62695533D01*
X25478809Y-62695533D02*
X25288333Y-63409819D01*
X25288333Y-63409819D02*
X25050238Y-62409819D01*
X24716904Y-62505057D02*
X24669285Y-62457438D01*
X24669285Y-62457438D02*
X24574047Y-62409819D01*
X24574047Y-62409819D02*
X24335952Y-62409819D01*
X24335952Y-62409819D02*
X24240714Y-62457438D01*
X24240714Y-62457438D02*
X24193095Y-62505057D01*
X24193095Y-62505057D02*
X24145476Y-62600295D01*
X24145476Y-62600295D02*
X24145476Y-62695533D01*
X24145476Y-62695533D02*
X24193095Y-62838390D01*
X24193095Y-62838390D02*
X24764523Y-63409819D01*
X24764523Y-63409819D02*
X24145476Y-63409819D01*
X23764523Y-62505057D02*
X23716904Y-62457438D01*
X23716904Y-62457438D02*
X23621666Y-62409819D01*
X23621666Y-62409819D02*
X23383571Y-62409819D01*
X23383571Y-62409819D02*
X23288333Y-62457438D01*
X23288333Y-62457438D02*
X23240714Y-62505057D01*
X23240714Y-62505057D02*
X23193095Y-62600295D01*
X23193095Y-62600295D02*
X23193095Y-62695533D01*
X23193095Y-62695533D02*
X23240714Y-62838390D01*
X23240714Y-62838390D02*
X23812142Y-63409819D01*
X23812142Y-63409819D02*
X23193095Y-63409819D01*
X28909819Y-84812142D02*
X28433628Y-84478809D01*
X28909819Y-84240714D02*
X27909819Y-84240714D01*
X27909819Y-84240714D02*
X27909819Y-84621666D01*
X27909819Y-84621666D02*
X27957438Y-84716904D01*
X27957438Y-84716904D02*
X28005057Y-84764523D01*
X28005057Y-84764523D02*
X28100295Y-84812142D01*
X28100295Y-84812142D02*
X28243152Y-84812142D01*
X28243152Y-84812142D02*
X28338390Y-84764523D01*
X28338390Y-84764523D02*
X28386009Y-84716904D01*
X28386009Y-84716904D02*
X28433628Y-84621666D01*
X28433628Y-84621666D02*
X28433628Y-84240714D01*
X28386009Y-85240714D02*
X28386009Y-85574047D01*
X28909819Y-85716904D02*
X28909819Y-85240714D01*
X28909819Y-85240714D02*
X27909819Y-85240714D01*
X27909819Y-85240714D02*
X27909819Y-85716904D01*
X28862200Y-86097857D02*
X28909819Y-86240714D01*
X28909819Y-86240714D02*
X28909819Y-86478809D01*
X28909819Y-86478809D02*
X28862200Y-86574047D01*
X28862200Y-86574047D02*
X28814580Y-86621666D01*
X28814580Y-86621666D02*
X28719342Y-86669285D01*
X28719342Y-86669285D02*
X28624104Y-86669285D01*
X28624104Y-86669285D02*
X28528866Y-86621666D01*
X28528866Y-86621666D02*
X28481247Y-86574047D01*
X28481247Y-86574047D02*
X28433628Y-86478809D01*
X28433628Y-86478809D02*
X28386009Y-86288333D01*
X28386009Y-86288333D02*
X28338390Y-86193095D01*
X28338390Y-86193095D02*
X28290771Y-86145476D01*
X28290771Y-86145476D02*
X28195533Y-86097857D01*
X28195533Y-86097857D02*
X28100295Y-86097857D01*
X28100295Y-86097857D02*
X28005057Y-86145476D01*
X28005057Y-86145476D02*
X27957438Y-86193095D01*
X27957438Y-86193095D02*
X27909819Y-86288333D01*
X27909819Y-86288333D02*
X27909819Y-86526428D01*
X27909819Y-86526428D02*
X27957438Y-86669285D01*
X27909819Y-87002619D02*
X28909819Y-87240714D01*
X28909819Y-87240714D02*
X28195533Y-87431190D01*
X28195533Y-87431190D02*
X28909819Y-87621666D01*
X28909819Y-87621666D02*
X27909819Y-87859762D01*
X28909819Y-88764523D02*
X28909819Y-88193095D01*
X28909819Y-88478809D02*
X27909819Y-88478809D01*
X27909819Y-88478809D02*
X28052676Y-88383571D01*
X28052676Y-88383571D02*
X28147914Y-88288333D01*
X28147914Y-88288333D02*
X28195533Y-88193095D01*
X28005057Y-89145476D02*
X27957438Y-89193095D01*
X27957438Y-89193095D02*
X27909819Y-89288333D01*
X27909819Y-89288333D02*
X27909819Y-89526428D01*
X27909819Y-89526428D02*
X27957438Y-89621666D01*
X27957438Y-89621666D02*
X28005057Y-89669285D01*
X28005057Y-89669285D02*
X28100295Y-89716904D01*
X28100295Y-89716904D02*
X28195533Y-89716904D01*
X28195533Y-89716904D02*
X28338390Y-89669285D01*
X28338390Y-89669285D02*
X28909819Y-89097857D01*
X28909819Y-89097857D02*
X28909819Y-89716904D01*
X33978809Y-65909819D02*
X34312142Y-65433628D01*
X34550237Y-65909819D02*
X34550237Y-64909819D01*
X34550237Y-64909819D02*
X34169285Y-64909819D01*
X34169285Y-64909819D02*
X34074047Y-64957438D01*
X34074047Y-64957438D02*
X34026428Y-65005057D01*
X34026428Y-65005057D02*
X33978809Y-65100295D01*
X33978809Y-65100295D02*
X33978809Y-65243152D01*
X33978809Y-65243152D02*
X34026428Y-65338390D01*
X34026428Y-65338390D02*
X34074047Y-65386009D01*
X34074047Y-65386009D02*
X34169285Y-65433628D01*
X34169285Y-65433628D02*
X34550237Y-65433628D01*
X33550237Y-65386009D02*
X33216904Y-65386009D01*
X33074047Y-65909819D02*
X33550237Y-65909819D01*
X33550237Y-65909819D02*
X33550237Y-64909819D01*
X33550237Y-64909819D02*
X33074047Y-64909819D01*
X32693094Y-65624104D02*
X32216904Y-65624104D01*
X32788332Y-65909819D02*
X32454999Y-64909819D01*
X32454999Y-64909819D02*
X32121666Y-65909819D01*
X31835951Y-65005057D02*
X31788332Y-64957438D01*
X31788332Y-64957438D02*
X31693094Y-64909819D01*
X31693094Y-64909819D02*
X31454999Y-64909819D01*
X31454999Y-64909819D02*
X31359761Y-64957438D01*
X31359761Y-64957438D02*
X31312142Y-65005057D01*
X31312142Y-65005057D02*
X31264523Y-65100295D01*
X31264523Y-65100295D02*
X31264523Y-65195533D01*
X31264523Y-65195533D02*
X31312142Y-65338390D01*
X31312142Y-65338390D02*
X31883570Y-65909819D01*
X31883570Y-65909819D02*
X31264523Y-65909819D01*
X30883570Y-65005057D02*
X30835951Y-64957438D01*
X30835951Y-64957438D02*
X30740713Y-64909819D01*
X30740713Y-64909819D02*
X30502618Y-64909819D01*
X30502618Y-64909819D02*
X30407380Y-64957438D01*
X30407380Y-64957438D02*
X30359761Y-65005057D01*
X30359761Y-65005057D02*
X30312142Y-65100295D01*
X30312142Y-65100295D02*
X30312142Y-65195533D01*
X30312142Y-65195533D02*
X30359761Y-65338390D01*
X30359761Y-65338390D02*
X30931189Y-65909819D01*
X30931189Y-65909819D02*
X30312142Y-65909819D01*
X23431190Y-52909819D02*
X23907380Y-52909819D01*
X23907380Y-52909819D02*
X23907380Y-51909819D01*
X23097856Y-52909819D02*
X23097856Y-52243152D01*
X23097856Y-51909819D02*
X23145475Y-51957438D01*
X23145475Y-51957438D02*
X23097856Y-52005057D01*
X23097856Y-52005057D02*
X23050237Y-51957438D01*
X23050237Y-51957438D02*
X23097856Y-51909819D01*
X23097856Y-51909819D02*
X23097856Y-52005057D01*
X22193095Y-52243152D02*
X22193095Y-53052676D01*
X22193095Y-53052676D02*
X22240714Y-53147914D01*
X22240714Y-53147914D02*
X22288333Y-53195533D01*
X22288333Y-53195533D02*
X22383571Y-53243152D01*
X22383571Y-53243152D02*
X22526428Y-53243152D01*
X22526428Y-53243152D02*
X22621666Y-53195533D01*
X22193095Y-52862200D02*
X22288333Y-52909819D01*
X22288333Y-52909819D02*
X22478809Y-52909819D01*
X22478809Y-52909819D02*
X22574047Y-52862200D01*
X22574047Y-52862200D02*
X22621666Y-52814580D01*
X22621666Y-52814580D02*
X22669285Y-52719342D01*
X22669285Y-52719342D02*
X22669285Y-52433628D01*
X22669285Y-52433628D02*
X22621666Y-52338390D01*
X22621666Y-52338390D02*
X22574047Y-52290771D01*
X22574047Y-52290771D02*
X22478809Y-52243152D01*
X22478809Y-52243152D02*
X22288333Y-52243152D01*
X22288333Y-52243152D02*
X22193095Y-52290771D01*
X21716904Y-52909819D02*
X21716904Y-51909819D01*
X21288333Y-52909819D02*
X21288333Y-52386009D01*
X21288333Y-52386009D02*
X21335952Y-52290771D01*
X21335952Y-52290771D02*
X21431190Y-52243152D01*
X21431190Y-52243152D02*
X21574047Y-52243152D01*
X21574047Y-52243152D02*
X21669285Y-52290771D01*
X21669285Y-52290771D02*
X21716904Y-52338390D01*
X20954999Y-52243152D02*
X20574047Y-52243152D01*
X20812142Y-51909819D02*
X20812142Y-52766961D01*
X20812142Y-52766961D02*
X20764523Y-52862200D01*
X20764523Y-52862200D02*
X20669285Y-52909819D01*
X20669285Y-52909819D02*
X20574047Y-52909819D01*
X20288332Y-52862200D02*
X20193094Y-52909819D01*
X20193094Y-52909819D02*
X20002618Y-52909819D01*
X20002618Y-52909819D02*
X19907380Y-52862200D01*
X19907380Y-52862200D02*
X19859761Y-52766961D01*
X19859761Y-52766961D02*
X19859761Y-52719342D01*
X19859761Y-52719342D02*
X19907380Y-52624104D01*
X19907380Y-52624104D02*
X20002618Y-52576485D01*
X20002618Y-52576485D02*
X20145475Y-52576485D01*
X20145475Y-52576485D02*
X20240713Y-52528866D01*
X20240713Y-52528866D02*
X20288332Y-52433628D01*
X20288332Y-52433628D02*
X20288332Y-52386009D01*
X20288332Y-52386009D02*
X20240713Y-52290771D01*
X20240713Y-52290771D02*
X20145475Y-52243152D01*
X20145475Y-52243152D02*
X20002618Y-52243152D01*
X20002618Y-52243152D02*
X19907380Y-52290771D01*
X18907380Y-52909819D02*
X19478808Y-52909819D01*
X19193094Y-52909819D02*
X19193094Y-51909819D01*
X19193094Y-51909819D02*
X19288332Y-52052676D01*
X19288332Y-52052676D02*
X19383570Y-52147914D01*
X19383570Y-52147914D02*
X19478808Y-52195533D01*
X17954999Y-52909819D02*
X18526427Y-52909819D01*
X18240713Y-52909819D02*
X18240713Y-51909819D01*
X18240713Y-51909819D02*
X18335951Y-52052676D01*
X18335951Y-52052676D02*
X18431189Y-52147914D01*
X18431189Y-52147914D02*
X18526427Y-52195533D01*
X54579166Y-47369819D02*
X54579166Y-48084104D01*
X54579166Y-48084104D02*
X54626785Y-48226961D01*
X54626785Y-48226961D02*
X54722023Y-48322200D01*
X54722023Y-48322200D02*
X54864880Y-48369819D01*
X54864880Y-48369819D02*
X54960118Y-48369819D01*
X53960118Y-48369819D02*
X54055356Y-48322200D01*
X54055356Y-48322200D02*
X54102975Y-48274580D01*
X54102975Y-48274580D02*
X54150594Y-48179342D01*
X54150594Y-48179342D02*
X54150594Y-47893628D01*
X54150594Y-47893628D02*
X54102975Y-47798390D01*
X54102975Y-47798390D02*
X54055356Y-47750771D01*
X54055356Y-47750771D02*
X53960118Y-47703152D01*
X53960118Y-47703152D02*
X53817261Y-47703152D01*
X53817261Y-47703152D02*
X53722023Y-47750771D01*
X53722023Y-47750771D02*
X53674404Y-47798390D01*
X53674404Y-47798390D02*
X53626785Y-47893628D01*
X53626785Y-47893628D02*
X53626785Y-48179342D01*
X53626785Y-48179342D02*
X53674404Y-48274580D01*
X53674404Y-48274580D02*
X53722023Y-48322200D01*
X53722023Y-48322200D02*
X53817261Y-48369819D01*
X53817261Y-48369819D02*
X53960118Y-48369819D01*
X52769642Y-47703152D02*
X52769642Y-48512676D01*
X52769642Y-48512676D02*
X52817261Y-48607914D01*
X52817261Y-48607914D02*
X52864880Y-48655533D01*
X52864880Y-48655533D02*
X52960118Y-48703152D01*
X52960118Y-48703152D02*
X53102975Y-48703152D01*
X53102975Y-48703152D02*
X53198213Y-48655533D01*
X52769642Y-48322200D02*
X52864880Y-48369819D01*
X52864880Y-48369819D02*
X53055356Y-48369819D01*
X53055356Y-48369819D02*
X53150594Y-48322200D01*
X53150594Y-48322200D02*
X53198213Y-48274580D01*
X53198213Y-48274580D02*
X53245832Y-48179342D01*
X53245832Y-48179342D02*
X53245832Y-47893628D01*
X53245832Y-47893628D02*
X53198213Y-47798390D01*
X53198213Y-47798390D02*
X53150594Y-47750771D01*
X53150594Y-47750771D02*
X53055356Y-47703152D01*
X53055356Y-47703152D02*
X52864880Y-47703152D01*
X52864880Y-47703152D02*
X52769642Y-47750771D01*
X52341070Y-48084104D02*
X51864880Y-48084104D01*
X52436308Y-48369819D02*
X52102975Y-47369819D01*
X52102975Y-47369819D02*
X51769642Y-48369819D01*
X50912499Y-48369819D02*
X51483927Y-48369819D01*
X51198213Y-48369819D02*
X51198213Y-47369819D01*
X51198213Y-47369819D02*
X51293451Y-47512676D01*
X51293451Y-47512676D02*
X51388689Y-47607914D01*
X51388689Y-47607914D02*
X51483927Y-47655533D01*
D10*
X82502618Y-38142419D02*
X82502618Y-37142419D01*
X82502618Y-37142419D02*
X82121666Y-37142419D01*
X82121666Y-37142419D02*
X82026428Y-37190038D01*
X82026428Y-37190038D02*
X81978809Y-37237657D01*
X81978809Y-37237657D02*
X81931190Y-37332895D01*
X81931190Y-37332895D02*
X81931190Y-37475752D01*
X81931190Y-37475752D02*
X81978809Y-37570990D01*
X81978809Y-37570990D02*
X82026428Y-37618609D01*
X82026428Y-37618609D02*
X82121666Y-37666228D01*
X82121666Y-37666228D02*
X82502618Y-37666228D01*
X80931190Y-38047180D02*
X80978809Y-38094800D01*
X80978809Y-38094800D02*
X81121666Y-38142419D01*
X81121666Y-38142419D02*
X81216904Y-38142419D01*
X81216904Y-38142419D02*
X81359761Y-38094800D01*
X81359761Y-38094800D02*
X81454999Y-37999561D01*
X81454999Y-37999561D02*
X81502618Y-37904323D01*
X81502618Y-37904323D02*
X81550237Y-37713847D01*
X81550237Y-37713847D02*
X81550237Y-37570990D01*
X81550237Y-37570990D02*
X81502618Y-37380514D01*
X81502618Y-37380514D02*
X81454999Y-37285276D01*
X81454999Y-37285276D02*
X81359761Y-37190038D01*
X81359761Y-37190038D02*
X81216904Y-37142419D01*
X81216904Y-37142419D02*
X81121666Y-37142419D01*
X81121666Y-37142419D02*
X80978809Y-37190038D01*
X80978809Y-37190038D02*
X80931190Y-37237657D01*
X80502618Y-38142419D02*
X80502618Y-37142419D01*
X80502618Y-37142419D02*
X80169285Y-37856704D01*
X80169285Y-37856704D02*
X79835952Y-37142419D01*
X79835952Y-37142419D02*
X79835952Y-38142419D01*
X78835952Y-38142419D02*
X79407380Y-38142419D01*
X79121666Y-38142419D02*
X79121666Y-37142419D01*
X79121666Y-37142419D02*
X79216904Y-37285276D01*
X79216904Y-37285276D02*
X79312142Y-37380514D01*
X79312142Y-37380514D02*
X79407380Y-37428133D01*
X78264523Y-37570990D02*
X78359761Y-37523371D01*
X78359761Y-37523371D02*
X78407380Y-37475752D01*
X78407380Y-37475752D02*
X78454999Y-37380514D01*
X78454999Y-37380514D02*
X78454999Y-37332895D01*
X78454999Y-37332895D02*
X78407380Y-37237657D01*
X78407380Y-37237657D02*
X78359761Y-37190038D01*
X78359761Y-37190038D02*
X78264523Y-37142419D01*
X78264523Y-37142419D02*
X78074047Y-37142419D01*
X78074047Y-37142419D02*
X77978809Y-37190038D01*
X77978809Y-37190038D02*
X77931190Y-37237657D01*
X77931190Y-37237657D02*
X77883571Y-37332895D01*
X77883571Y-37332895D02*
X77883571Y-37380514D01*
X77883571Y-37380514D02*
X77931190Y-37475752D01*
X77931190Y-37475752D02*
X77978809Y-37523371D01*
X77978809Y-37523371D02*
X78074047Y-37570990D01*
X78074047Y-37570990D02*
X78264523Y-37570990D01*
X78264523Y-37570990D02*
X78359761Y-37618609D01*
X78359761Y-37618609D02*
X78407380Y-37666228D01*
X78407380Y-37666228D02*
X78454999Y-37761466D01*
X78454999Y-37761466D02*
X78454999Y-37951942D01*
X78454999Y-37951942D02*
X78407380Y-38047180D01*
X78407380Y-38047180D02*
X78359761Y-38094800D01*
X78359761Y-38094800D02*
X78264523Y-38142419D01*
X78264523Y-38142419D02*
X78074047Y-38142419D01*
X78074047Y-38142419D02*
X77978809Y-38094800D01*
X77978809Y-38094800D02*
X77931190Y-38047180D01*
X77931190Y-38047180D02*
X77883571Y-37951942D01*
X77883571Y-37951942D02*
X77883571Y-37761466D01*
X77883571Y-37761466D02*
X77931190Y-37666228D01*
X77931190Y-37666228D02*
X77978809Y-37618609D01*
X77978809Y-37618609D02*
X78074047Y-37570990D01*
X77264523Y-37142419D02*
X77169285Y-37142419D01*
X77169285Y-37142419D02*
X77074047Y-37190038D01*
X77074047Y-37190038D02*
X77026428Y-37237657D01*
X77026428Y-37237657D02*
X76978809Y-37332895D01*
X76978809Y-37332895D02*
X76931190Y-37523371D01*
X76931190Y-37523371D02*
X76931190Y-37761466D01*
X76931190Y-37761466D02*
X76978809Y-37951942D01*
X76978809Y-37951942D02*
X77026428Y-38047180D01*
X77026428Y-38047180D02*
X77074047Y-38094800D01*
X77074047Y-38094800D02*
X77169285Y-38142419D01*
X77169285Y-38142419D02*
X77264523Y-38142419D01*
X77264523Y-38142419D02*
X77359761Y-38094800D01*
X77359761Y-38094800D02*
X77407380Y-38047180D01*
X77407380Y-38047180D02*
X77454999Y-37951942D01*
X77454999Y-37951942D02*
X77502618Y-37761466D01*
X77502618Y-37761466D02*
X77502618Y-37523371D01*
X77502618Y-37523371D02*
X77454999Y-37332895D01*
X77454999Y-37332895D02*
X77407380Y-37237657D01*
X77407380Y-37237657D02*
X77359761Y-37190038D01*
X77359761Y-37190038D02*
X77264523Y-37142419D01*
X76359761Y-37570990D02*
X76454999Y-37523371D01*
X76454999Y-37523371D02*
X76502618Y-37475752D01*
X76502618Y-37475752D02*
X76550237Y-37380514D01*
X76550237Y-37380514D02*
X76550237Y-37332895D01*
X76550237Y-37332895D02*
X76502618Y-37237657D01*
X76502618Y-37237657D02*
X76454999Y-37190038D01*
X76454999Y-37190038D02*
X76359761Y-37142419D01*
X76359761Y-37142419D02*
X76169285Y-37142419D01*
X76169285Y-37142419D02*
X76074047Y-37190038D01*
X76074047Y-37190038D02*
X76026428Y-37237657D01*
X76026428Y-37237657D02*
X75978809Y-37332895D01*
X75978809Y-37332895D02*
X75978809Y-37380514D01*
X75978809Y-37380514D02*
X76026428Y-37475752D01*
X76026428Y-37475752D02*
X76074047Y-37523371D01*
X76074047Y-37523371D02*
X76169285Y-37570990D01*
X76169285Y-37570990D02*
X76359761Y-37570990D01*
X76359761Y-37570990D02*
X76454999Y-37618609D01*
X76454999Y-37618609D02*
X76502618Y-37666228D01*
X76502618Y-37666228D02*
X76550237Y-37761466D01*
X76550237Y-37761466D02*
X76550237Y-37951942D01*
X76550237Y-37951942D02*
X76502618Y-38047180D01*
X76502618Y-38047180D02*
X76454999Y-38094800D01*
X76454999Y-38094800D02*
X76359761Y-38142419D01*
X76359761Y-38142419D02*
X76169285Y-38142419D01*
X76169285Y-38142419D02*
X76074047Y-38094800D01*
X76074047Y-38094800D02*
X76026428Y-38047180D01*
X76026428Y-38047180D02*
X75978809Y-37951942D01*
X75978809Y-37951942D02*
X75978809Y-37761466D01*
X75978809Y-37761466D02*
X76026428Y-37666228D01*
X76026428Y-37666228D02*
X76074047Y-37618609D01*
X76074047Y-37618609D02*
X76169285Y-37570990D01*
X75788333Y-38237657D02*
X75026428Y-38237657D01*
X74454999Y-37618609D02*
X74312142Y-37666228D01*
X74312142Y-37666228D02*
X74264523Y-37713847D01*
X74264523Y-37713847D02*
X74216904Y-37809085D01*
X74216904Y-37809085D02*
X74216904Y-37951942D01*
X74216904Y-37951942D02*
X74264523Y-38047180D01*
X74264523Y-38047180D02*
X74312142Y-38094800D01*
X74312142Y-38094800D02*
X74407380Y-38142419D01*
X74407380Y-38142419D02*
X74788332Y-38142419D01*
X74788332Y-38142419D02*
X74788332Y-37142419D01*
X74788332Y-37142419D02*
X74454999Y-37142419D01*
X74454999Y-37142419D02*
X74359761Y-37190038D01*
X74359761Y-37190038D02*
X74312142Y-37237657D01*
X74312142Y-37237657D02*
X74264523Y-37332895D01*
X74264523Y-37332895D02*
X74264523Y-37428133D01*
X74264523Y-37428133D02*
X74312142Y-37523371D01*
X74312142Y-37523371D02*
X74359761Y-37570990D01*
X74359761Y-37570990D02*
X74454999Y-37618609D01*
X74454999Y-37618609D02*
X74788332Y-37618609D01*
X73597856Y-37142419D02*
X73407380Y-37142419D01*
X73407380Y-37142419D02*
X73312142Y-37190038D01*
X73312142Y-37190038D02*
X73216904Y-37285276D01*
X73216904Y-37285276D02*
X73169285Y-37475752D01*
X73169285Y-37475752D02*
X73169285Y-37809085D01*
X73169285Y-37809085D02*
X73216904Y-37999561D01*
X73216904Y-37999561D02*
X73312142Y-38094800D01*
X73312142Y-38094800D02*
X73407380Y-38142419D01*
X73407380Y-38142419D02*
X73597856Y-38142419D01*
X73597856Y-38142419D02*
X73693094Y-38094800D01*
X73693094Y-38094800D02*
X73788332Y-37999561D01*
X73788332Y-37999561D02*
X73835951Y-37809085D01*
X73835951Y-37809085D02*
X73835951Y-37475752D01*
X73835951Y-37475752D02*
X73788332Y-37285276D01*
X73788332Y-37285276D02*
X73693094Y-37190038D01*
X73693094Y-37190038D02*
X73597856Y-37142419D01*
X72788332Y-37856704D02*
X72312142Y-37856704D01*
X72883570Y-38142419D02*
X72550237Y-37142419D01*
X72550237Y-37142419D02*
X72216904Y-38142419D01*
X71312142Y-38142419D02*
X71645475Y-37666228D01*
X71883570Y-38142419D02*
X71883570Y-37142419D01*
X71883570Y-37142419D02*
X71502618Y-37142419D01*
X71502618Y-37142419D02*
X71407380Y-37190038D01*
X71407380Y-37190038D02*
X71359761Y-37237657D01*
X71359761Y-37237657D02*
X71312142Y-37332895D01*
X71312142Y-37332895D02*
X71312142Y-37475752D01*
X71312142Y-37475752D02*
X71359761Y-37570990D01*
X71359761Y-37570990D02*
X71407380Y-37618609D01*
X71407380Y-37618609D02*
X71502618Y-37666228D01*
X71502618Y-37666228D02*
X71883570Y-37666228D01*
X70883570Y-38142419D02*
X70883570Y-37142419D01*
X70883570Y-37142419D02*
X70645475Y-37142419D01*
X70645475Y-37142419D02*
X70502618Y-37190038D01*
X70502618Y-37190038D02*
X70407380Y-37285276D01*
X70407380Y-37285276D02*
X70359761Y-37380514D01*
X70359761Y-37380514D02*
X70312142Y-37570990D01*
X70312142Y-37570990D02*
X70312142Y-37713847D01*
X70312142Y-37713847D02*
X70359761Y-37904323D01*
X70359761Y-37904323D02*
X70407380Y-37999561D01*
X70407380Y-37999561D02*
X70502618Y-38094800D01*
X70502618Y-38094800D02*
X70645475Y-38142419D01*
X70645475Y-38142419D02*
X70883570Y-38142419D01*
X69359761Y-38142419D02*
X69931189Y-38142419D01*
X69645475Y-38142419D02*
X69645475Y-37142419D01*
X69645475Y-37142419D02*
X69740713Y-37285276D01*
X69740713Y-37285276D02*
X69835951Y-37380514D01*
X69835951Y-37380514D02*
X69931189Y-37428133D01*
D11*
X58150595Y-51119819D02*
X58150595Y-51834104D01*
X58150595Y-51834104D02*
X58198214Y-51976961D01*
X58198214Y-51976961D02*
X58293452Y-52072200D01*
X58293452Y-52072200D02*
X58436309Y-52119819D01*
X58436309Y-52119819D02*
X58531547Y-52119819D01*
X57531547Y-52119819D02*
X57626785Y-52072200D01*
X57626785Y-52072200D02*
X57674404Y-52024580D01*
X57674404Y-52024580D02*
X57722023Y-51929342D01*
X57722023Y-51929342D02*
X57722023Y-51643628D01*
X57722023Y-51643628D02*
X57674404Y-51548390D01*
X57674404Y-51548390D02*
X57626785Y-51500771D01*
X57626785Y-51500771D02*
X57531547Y-51453152D01*
X57531547Y-51453152D02*
X57388690Y-51453152D01*
X57388690Y-51453152D02*
X57293452Y-51500771D01*
X57293452Y-51500771D02*
X57245833Y-51548390D01*
X57245833Y-51548390D02*
X57198214Y-51643628D01*
X57198214Y-51643628D02*
X57198214Y-51929342D01*
X57198214Y-51929342D02*
X57245833Y-52024580D01*
X57245833Y-52024580D02*
X57293452Y-52072200D01*
X57293452Y-52072200D02*
X57388690Y-52119819D01*
X57388690Y-52119819D02*
X57531547Y-52119819D01*
X56341071Y-51453152D02*
X56341071Y-52262676D01*
X56341071Y-52262676D02*
X56388690Y-52357914D01*
X56388690Y-52357914D02*
X56436309Y-52405533D01*
X56436309Y-52405533D02*
X56531547Y-52453152D01*
X56531547Y-52453152D02*
X56674404Y-52453152D01*
X56674404Y-52453152D02*
X56769642Y-52405533D01*
X56341071Y-52072200D02*
X56436309Y-52119819D01*
X56436309Y-52119819D02*
X56626785Y-52119819D01*
X56626785Y-52119819D02*
X56722023Y-52072200D01*
X56722023Y-52072200D02*
X56769642Y-52024580D01*
X56769642Y-52024580D02*
X56817261Y-51929342D01*
X56817261Y-51929342D02*
X56817261Y-51643628D01*
X56817261Y-51643628D02*
X56769642Y-51548390D01*
X56769642Y-51548390D02*
X56722023Y-51500771D01*
X56722023Y-51500771D02*
X56626785Y-51453152D01*
X56626785Y-51453152D02*
X56436309Y-51453152D01*
X56436309Y-51453152D02*
X56341071Y-51500771D01*
X55531547Y-51596009D02*
X55388690Y-51643628D01*
X55388690Y-51643628D02*
X55341071Y-51691247D01*
X55341071Y-51691247D02*
X55293452Y-51786485D01*
X55293452Y-51786485D02*
X55293452Y-51929342D01*
X55293452Y-51929342D02*
X55341071Y-52024580D01*
X55341071Y-52024580D02*
X55388690Y-52072200D01*
X55388690Y-52072200D02*
X55483928Y-52119819D01*
X55483928Y-52119819D02*
X55864880Y-52119819D01*
X55864880Y-52119819D02*
X55864880Y-51119819D01*
X55864880Y-51119819D02*
X55531547Y-51119819D01*
X55531547Y-51119819D02*
X55436309Y-51167438D01*
X55436309Y-51167438D02*
X55388690Y-51215057D01*
X55388690Y-51215057D02*
X55341071Y-51310295D01*
X55341071Y-51310295D02*
X55341071Y-51405533D01*
X55341071Y-51405533D02*
X55388690Y-51500771D01*
X55388690Y-51500771D02*
X55436309Y-51548390D01*
X55436309Y-51548390D02*
X55531547Y-51596009D01*
X55531547Y-51596009D02*
X55864880Y-51596009D01*
X54341071Y-52119819D02*
X54912499Y-52119819D01*
X54626785Y-52119819D02*
X54626785Y-51119819D01*
X54626785Y-51119819D02*
X54722023Y-51262676D01*
X54722023Y-51262676D02*
X54817261Y-51357914D01*
X54817261Y-51357914D02*
X54912499Y-51405533D01*
X16900594Y-50919819D02*
X16900594Y-49919819D01*
X16900594Y-49919819D02*
X16662499Y-49919819D01*
X16662499Y-49919819D02*
X16519642Y-49967438D01*
X16519642Y-49967438D02*
X16424404Y-50062676D01*
X16424404Y-50062676D02*
X16376785Y-50157914D01*
X16376785Y-50157914D02*
X16329166Y-50348390D01*
X16329166Y-50348390D02*
X16329166Y-50491247D01*
X16329166Y-50491247D02*
X16376785Y-50681723D01*
X16376785Y-50681723D02*
X16424404Y-50776961D01*
X16424404Y-50776961D02*
X16519642Y-50872200D01*
X16519642Y-50872200D02*
X16662499Y-50919819D01*
X16662499Y-50919819D02*
X16900594Y-50919819D01*
X15948213Y-50872200D02*
X15805356Y-50919819D01*
X15805356Y-50919819D02*
X15567261Y-50919819D01*
X15567261Y-50919819D02*
X15472023Y-50872200D01*
X15472023Y-50872200D02*
X15424404Y-50824580D01*
X15424404Y-50824580D02*
X15376785Y-50729342D01*
X15376785Y-50729342D02*
X15376785Y-50634104D01*
X15376785Y-50634104D02*
X15424404Y-50538866D01*
X15424404Y-50538866D02*
X15472023Y-50491247D01*
X15472023Y-50491247D02*
X15567261Y-50443628D01*
X15567261Y-50443628D02*
X15757737Y-50396009D01*
X15757737Y-50396009D02*
X15852975Y-50348390D01*
X15852975Y-50348390D02*
X15900594Y-50300771D01*
X15900594Y-50300771D02*
X15948213Y-50205533D01*
X15948213Y-50205533D02*
X15948213Y-50110295D01*
X15948213Y-50110295D02*
X15900594Y-50015057D01*
X15900594Y-50015057D02*
X15852975Y-49967438D01*
X15852975Y-49967438D02*
X15757737Y-49919819D01*
X15757737Y-49919819D02*
X15519642Y-49919819D01*
X15519642Y-49919819D02*
X15376785Y-49967438D01*
X14995832Y-50872200D02*
X14852975Y-50919819D01*
X14852975Y-50919819D02*
X14614880Y-50919819D01*
X14614880Y-50919819D02*
X14519642Y-50872200D01*
X14519642Y-50872200D02*
X14472023Y-50824580D01*
X14472023Y-50824580D02*
X14424404Y-50729342D01*
X14424404Y-50729342D02*
X14424404Y-50634104D01*
X14424404Y-50634104D02*
X14472023Y-50538866D01*
X14472023Y-50538866D02*
X14519642Y-50491247D01*
X14519642Y-50491247D02*
X14614880Y-50443628D01*
X14614880Y-50443628D02*
X14805356Y-50396009D01*
X14805356Y-50396009D02*
X14900594Y-50348390D01*
X14900594Y-50348390D02*
X14948213Y-50300771D01*
X14948213Y-50300771D02*
X14995832Y-50205533D01*
X14995832Y-50205533D02*
X14995832Y-50110295D01*
X14995832Y-50110295D02*
X14948213Y-50015057D01*
X14948213Y-50015057D02*
X14900594Y-49967438D01*
X14900594Y-49967438D02*
X14805356Y-49919819D01*
X14805356Y-49919819D02*
X14567261Y-49919819D01*
X14567261Y-49919819D02*
X14424404Y-49967438D01*
X14091070Y-49919819D02*
X13852975Y-50919819D01*
X13852975Y-50919819D02*
X13662499Y-50205533D01*
X13662499Y-50205533D02*
X13472023Y-50919819D01*
X13472023Y-50919819D02*
X13233928Y-49919819D01*
X12424404Y-50253152D02*
X12424404Y-50919819D01*
X12662499Y-49872200D02*
X12900594Y-50586485D01*
X12900594Y-50586485D02*
X12281547Y-50586485D01*
X11376785Y-50919819D02*
X11948213Y-50919819D01*
X11662499Y-50919819D02*
X11662499Y-49919819D01*
X11662499Y-49919819D02*
X11757737Y-50062676D01*
X11757737Y-50062676D02*
X11852975Y-50157914D01*
X11852975Y-50157914D02*
X11948213Y-50205533D01*
X22943095Y-31564580D02*
X22990714Y-31612200D01*
X22990714Y-31612200D02*
X23133571Y-31659819D01*
X23133571Y-31659819D02*
X23228809Y-31659819D01*
X23228809Y-31659819D02*
X23371666Y-31612200D01*
X23371666Y-31612200D02*
X23466904Y-31516961D01*
X23466904Y-31516961D02*
X23514523Y-31421723D01*
X23514523Y-31421723D02*
X23562142Y-31231247D01*
X23562142Y-31231247D02*
X23562142Y-31088390D01*
X23562142Y-31088390D02*
X23514523Y-30897914D01*
X23514523Y-30897914D02*
X23466904Y-30802676D01*
X23466904Y-30802676D02*
X23371666Y-30707438D01*
X23371666Y-30707438D02*
X23228809Y-30659819D01*
X23228809Y-30659819D02*
X23133571Y-30659819D01*
X23133571Y-30659819D02*
X22990714Y-30707438D01*
X22990714Y-30707438D02*
X22943095Y-30755057D01*
X22324047Y-30659819D02*
X22133571Y-30659819D01*
X22133571Y-30659819D02*
X22038333Y-30707438D01*
X22038333Y-30707438D02*
X21943095Y-30802676D01*
X21943095Y-30802676D02*
X21895476Y-30993152D01*
X21895476Y-30993152D02*
X21895476Y-31326485D01*
X21895476Y-31326485D02*
X21943095Y-31516961D01*
X21943095Y-31516961D02*
X22038333Y-31612200D01*
X22038333Y-31612200D02*
X22133571Y-31659819D01*
X22133571Y-31659819D02*
X22324047Y-31659819D01*
X22324047Y-31659819D02*
X22419285Y-31612200D01*
X22419285Y-31612200D02*
X22514523Y-31516961D01*
X22514523Y-31516961D02*
X22562142Y-31326485D01*
X22562142Y-31326485D02*
X22562142Y-30993152D01*
X22562142Y-30993152D02*
X22514523Y-30802676D01*
X22514523Y-30802676D02*
X22419285Y-30707438D01*
X22419285Y-30707438D02*
X22324047Y-30659819D01*
X21466904Y-31659819D02*
X21466904Y-30659819D01*
X21466904Y-30659819D02*
X21133571Y-31374104D01*
X21133571Y-31374104D02*
X20800238Y-30659819D01*
X20800238Y-30659819D02*
X20800238Y-31659819D01*
X20371666Y-30755057D02*
X20324047Y-30707438D01*
X20324047Y-30707438D02*
X20228809Y-30659819D01*
X20228809Y-30659819D02*
X19990714Y-30659819D01*
X19990714Y-30659819D02*
X19895476Y-30707438D01*
X19895476Y-30707438D02*
X19847857Y-30755057D01*
X19847857Y-30755057D02*
X19800238Y-30850295D01*
X19800238Y-30850295D02*
X19800238Y-30945533D01*
X19800238Y-30945533D02*
X19847857Y-31088390D01*
X19847857Y-31088390D02*
X20419285Y-31659819D01*
X20419285Y-31659819D02*
X19800238Y-31659819D01*
X18847857Y-31659819D02*
X19419285Y-31659819D01*
X19133571Y-31659819D02*
X19133571Y-30659819D01*
X19133571Y-30659819D02*
X19228809Y-30802676D01*
X19228809Y-30802676D02*
X19324047Y-30897914D01*
X19324047Y-30897914D02*
X19419285Y-30945533D01*
X54362200Y-85716905D02*
X54409819Y-85859762D01*
X54409819Y-85859762D02*
X54409819Y-86097857D01*
X54409819Y-86097857D02*
X54362200Y-86193095D01*
X54362200Y-86193095D02*
X54314580Y-86240714D01*
X54314580Y-86240714D02*
X54219342Y-86288333D01*
X54219342Y-86288333D02*
X54124104Y-86288333D01*
X54124104Y-86288333D02*
X54028866Y-86240714D01*
X54028866Y-86240714D02*
X53981247Y-86193095D01*
X53981247Y-86193095D02*
X53933628Y-86097857D01*
X53933628Y-86097857D02*
X53886009Y-85907381D01*
X53886009Y-85907381D02*
X53838390Y-85812143D01*
X53838390Y-85812143D02*
X53790771Y-85764524D01*
X53790771Y-85764524D02*
X53695533Y-85716905D01*
X53695533Y-85716905D02*
X53600295Y-85716905D01*
X53600295Y-85716905D02*
X53505057Y-85764524D01*
X53505057Y-85764524D02*
X53457438Y-85812143D01*
X53457438Y-85812143D02*
X53409819Y-85907381D01*
X53409819Y-85907381D02*
X53409819Y-86145476D01*
X53409819Y-86145476D02*
X53457438Y-86288333D01*
X53409819Y-86907381D02*
X53409819Y-87002619D01*
X53409819Y-87002619D02*
X53457438Y-87097857D01*
X53457438Y-87097857D02*
X53505057Y-87145476D01*
X53505057Y-87145476D02*
X53600295Y-87193095D01*
X53600295Y-87193095D02*
X53790771Y-87240714D01*
X53790771Y-87240714D02*
X54028866Y-87240714D01*
X54028866Y-87240714D02*
X54219342Y-87193095D01*
X54219342Y-87193095D02*
X54314580Y-87145476D01*
X54314580Y-87145476D02*
X54362200Y-87097857D01*
X54362200Y-87097857D02*
X54409819Y-87002619D01*
X54409819Y-87002619D02*
X54409819Y-86907381D01*
X54409819Y-86907381D02*
X54362200Y-86812143D01*
X54362200Y-86812143D02*
X54314580Y-86764524D01*
X54314580Y-86764524D02*
X54219342Y-86716905D01*
X54219342Y-86716905D02*
X54028866Y-86669286D01*
X54028866Y-86669286D02*
X53790771Y-86669286D01*
X53790771Y-86669286D02*
X53600295Y-86716905D01*
X53600295Y-86716905D02*
X53505057Y-86764524D01*
X53505057Y-86764524D02*
X53457438Y-86812143D01*
X53457438Y-86812143D02*
X53409819Y-86907381D01*
X53409819Y-87574048D02*
X53409819Y-88193095D01*
X53409819Y-88193095D02*
X53790771Y-87859762D01*
X53790771Y-87859762D02*
X53790771Y-88002619D01*
X53790771Y-88002619D02*
X53838390Y-88097857D01*
X53838390Y-88097857D02*
X53886009Y-88145476D01*
X53886009Y-88145476D02*
X53981247Y-88193095D01*
X53981247Y-88193095D02*
X54219342Y-88193095D01*
X54219342Y-88193095D02*
X54314580Y-88145476D01*
X54314580Y-88145476D02*
X54362200Y-88097857D01*
X54362200Y-88097857D02*
X54409819Y-88002619D01*
X54409819Y-88002619D02*
X54409819Y-87716905D01*
X54409819Y-87716905D02*
X54362200Y-87621667D01*
X54362200Y-87621667D02*
X54314580Y-87574048D01*
X50112200Y-85466905D02*
X50159819Y-85609762D01*
X50159819Y-85609762D02*
X50159819Y-85847857D01*
X50159819Y-85847857D02*
X50112200Y-85943095D01*
X50112200Y-85943095D02*
X50064580Y-85990714D01*
X50064580Y-85990714D02*
X49969342Y-86038333D01*
X49969342Y-86038333D02*
X49874104Y-86038333D01*
X49874104Y-86038333D02*
X49778866Y-85990714D01*
X49778866Y-85990714D02*
X49731247Y-85943095D01*
X49731247Y-85943095D02*
X49683628Y-85847857D01*
X49683628Y-85847857D02*
X49636009Y-85657381D01*
X49636009Y-85657381D02*
X49588390Y-85562143D01*
X49588390Y-85562143D02*
X49540771Y-85514524D01*
X49540771Y-85514524D02*
X49445533Y-85466905D01*
X49445533Y-85466905D02*
X49350295Y-85466905D01*
X49350295Y-85466905D02*
X49255057Y-85514524D01*
X49255057Y-85514524D02*
X49207438Y-85562143D01*
X49207438Y-85562143D02*
X49159819Y-85657381D01*
X49159819Y-85657381D02*
X49159819Y-85895476D01*
X49159819Y-85895476D02*
X49207438Y-86038333D01*
X50159819Y-86990714D02*
X50159819Y-86419286D01*
X50159819Y-86705000D02*
X49159819Y-86705000D01*
X49159819Y-86705000D02*
X49302676Y-86609762D01*
X49302676Y-86609762D02*
X49397914Y-86514524D01*
X49397914Y-86514524D02*
X49445533Y-86419286D01*
X49159819Y-87324048D02*
X49159819Y-87943095D01*
X49159819Y-87943095D02*
X49540771Y-87609762D01*
X49540771Y-87609762D02*
X49540771Y-87752619D01*
X49540771Y-87752619D02*
X49588390Y-87847857D01*
X49588390Y-87847857D02*
X49636009Y-87895476D01*
X49636009Y-87895476D02*
X49731247Y-87943095D01*
X49731247Y-87943095D02*
X49969342Y-87943095D01*
X49969342Y-87943095D02*
X50064580Y-87895476D01*
X50064580Y-87895476D02*
X50112200Y-87847857D01*
X50112200Y-87847857D02*
X50159819Y-87752619D01*
X50159819Y-87752619D02*
X50159819Y-87466905D01*
X50159819Y-87466905D02*
X50112200Y-87371667D01*
X50112200Y-87371667D02*
X50064580Y-87324048D01*
X52612200Y-16693095D02*
X52659819Y-16835952D01*
X52659819Y-16835952D02*
X52659819Y-17074047D01*
X52659819Y-17074047D02*
X52612200Y-17169285D01*
X52612200Y-17169285D02*
X52564580Y-17216904D01*
X52564580Y-17216904D02*
X52469342Y-17264523D01*
X52469342Y-17264523D02*
X52374104Y-17264523D01*
X52374104Y-17264523D02*
X52278866Y-17216904D01*
X52278866Y-17216904D02*
X52231247Y-17169285D01*
X52231247Y-17169285D02*
X52183628Y-17074047D01*
X52183628Y-17074047D02*
X52136009Y-16883571D01*
X52136009Y-16883571D02*
X52088390Y-16788333D01*
X52088390Y-16788333D02*
X52040771Y-16740714D01*
X52040771Y-16740714D02*
X51945533Y-16693095D01*
X51945533Y-16693095D02*
X51850295Y-16693095D01*
X51850295Y-16693095D02*
X51755057Y-16740714D01*
X51755057Y-16740714D02*
X51707438Y-16788333D01*
X51707438Y-16788333D02*
X51659819Y-16883571D01*
X51659819Y-16883571D02*
X51659819Y-17121666D01*
X51659819Y-17121666D02*
X51707438Y-17264523D01*
X52564580Y-18264523D02*
X52612200Y-18216904D01*
X52612200Y-18216904D02*
X52659819Y-18074047D01*
X52659819Y-18074047D02*
X52659819Y-17978809D01*
X52659819Y-17978809D02*
X52612200Y-17835952D01*
X52612200Y-17835952D02*
X52516961Y-17740714D01*
X52516961Y-17740714D02*
X52421723Y-17693095D01*
X52421723Y-17693095D02*
X52231247Y-17645476D01*
X52231247Y-17645476D02*
X52088390Y-17645476D01*
X52088390Y-17645476D02*
X51897914Y-17693095D01*
X51897914Y-17693095D02*
X51802676Y-17740714D01*
X51802676Y-17740714D02*
X51707438Y-17835952D01*
X51707438Y-17835952D02*
X51659819Y-17978809D01*
X51659819Y-17978809D02*
X51659819Y-18074047D01*
X51659819Y-18074047D02*
X51707438Y-18216904D01*
X51707438Y-18216904D02*
X51755057Y-18264523D01*
X52659819Y-18693095D02*
X51659819Y-18693095D01*
X52659819Y-19264523D02*
X52088390Y-18835952D01*
X51659819Y-19264523D02*
X52231247Y-18693095D01*
X51659819Y-19597857D02*
X51659819Y-20216904D01*
X51659819Y-20216904D02*
X52040771Y-19883571D01*
X52040771Y-19883571D02*
X52040771Y-20026428D01*
X52040771Y-20026428D02*
X52088390Y-20121666D01*
X52088390Y-20121666D02*
X52136009Y-20169285D01*
X52136009Y-20169285D02*
X52231247Y-20216904D01*
X52231247Y-20216904D02*
X52469342Y-20216904D01*
X52469342Y-20216904D02*
X52564580Y-20169285D01*
X52564580Y-20169285D02*
X52612200Y-20121666D01*
X52612200Y-20121666D02*
X52659819Y-20026428D01*
X52659819Y-20026428D02*
X52659819Y-19740714D01*
X52659819Y-19740714D02*
X52612200Y-19645476D01*
X52612200Y-19645476D02*
X52564580Y-19597857D01*
X16900594Y-55369819D02*
X16900594Y-54369819D01*
X16900594Y-54369819D02*
X16662499Y-54369819D01*
X16662499Y-54369819D02*
X16519642Y-54417438D01*
X16519642Y-54417438D02*
X16424404Y-54512676D01*
X16424404Y-54512676D02*
X16376785Y-54607914D01*
X16376785Y-54607914D02*
X16329166Y-54798390D01*
X16329166Y-54798390D02*
X16329166Y-54941247D01*
X16329166Y-54941247D02*
X16376785Y-55131723D01*
X16376785Y-55131723D02*
X16424404Y-55226961D01*
X16424404Y-55226961D02*
X16519642Y-55322200D01*
X16519642Y-55322200D02*
X16662499Y-55369819D01*
X16662499Y-55369819D02*
X16900594Y-55369819D01*
X15948213Y-55322200D02*
X15805356Y-55369819D01*
X15805356Y-55369819D02*
X15567261Y-55369819D01*
X15567261Y-55369819D02*
X15472023Y-55322200D01*
X15472023Y-55322200D02*
X15424404Y-55274580D01*
X15424404Y-55274580D02*
X15376785Y-55179342D01*
X15376785Y-55179342D02*
X15376785Y-55084104D01*
X15376785Y-55084104D02*
X15424404Y-54988866D01*
X15424404Y-54988866D02*
X15472023Y-54941247D01*
X15472023Y-54941247D02*
X15567261Y-54893628D01*
X15567261Y-54893628D02*
X15757737Y-54846009D01*
X15757737Y-54846009D02*
X15852975Y-54798390D01*
X15852975Y-54798390D02*
X15900594Y-54750771D01*
X15900594Y-54750771D02*
X15948213Y-54655533D01*
X15948213Y-54655533D02*
X15948213Y-54560295D01*
X15948213Y-54560295D02*
X15900594Y-54465057D01*
X15900594Y-54465057D02*
X15852975Y-54417438D01*
X15852975Y-54417438D02*
X15757737Y-54369819D01*
X15757737Y-54369819D02*
X15519642Y-54369819D01*
X15519642Y-54369819D02*
X15376785Y-54417438D01*
X14995832Y-55322200D02*
X14852975Y-55369819D01*
X14852975Y-55369819D02*
X14614880Y-55369819D01*
X14614880Y-55369819D02*
X14519642Y-55322200D01*
X14519642Y-55322200D02*
X14472023Y-55274580D01*
X14472023Y-55274580D02*
X14424404Y-55179342D01*
X14424404Y-55179342D02*
X14424404Y-55084104D01*
X14424404Y-55084104D02*
X14472023Y-54988866D01*
X14472023Y-54988866D02*
X14519642Y-54941247D01*
X14519642Y-54941247D02*
X14614880Y-54893628D01*
X14614880Y-54893628D02*
X14805356Y-54846009D01*
X14805356Y-54846009D02*
X14900594Y-54798390D01*
X14900594Y-54798390D02*
X14948213Y-54750771D01*
X14948213Y-54750771D02*
X14995832Y-54655533D01*
X14995832Y-54655533D02*
X14995832Y-54560295D01*
X14995832Y-54560295D02*
X14948213Y-54465057D01*
X14948213Y-54465057D02*
X14900594Y-54417438D01*
X14900594Y-54417438D02*
X14805356Y-54369819D01*
X14805356Y-54369819D02*
X14567261Y-54369819D01*
X14567261Y-54369819D02*
X14424404Y-54417438D01*
X14091070Y-54369819D02*
X13852975Y-55369819D01*
X13852975Y-55369819D02*
X13662499Y-54655533D01*
X13662499Y-54655533D02*
X13472023Y-55369819D01*
X13472023Y-55369819D02*
X13233928Y-54369819D01*
X12900594Y-54465057D02*
X12852975Y-54417438D01*
X12852975Y-54417438D02*
X12757737Y-54369819D01*
X12757737Y-54369819D02*
X12519642Y-54369819D01*
X12519642Y-54369819D02*
X12424404Y-54417438D01*
X12424404Y-54417438D02*
X12376785Y-54465057D01*
X12376785Y-54465057D02*
X12329166Y-54560295D01*
X12329166Y-54560295D02*
X12329166Y-54655533D01*
X12329166Y-54655533D02*
X12376785Y-54798390D01*
X12376785Y-54798390D02*
X12948213Y-55369819D01*
X12948213Y-55369819D02*
X12329166Y-55369819D01*
X11376785Y-55369819D02*
X11948213Y-55369819D01*
X11662499Y-55369819D02*
X11662499Y-54369819D01*
X11662499Y-54369819D02*
X11757737Y-54512676D01*
X11757737Y-54512676D02*
X11852975Y-54607914D01*
X11852975Y-54607914D02*
X11948213Y-54655533D01*
X16579166Y-35869819D02*
X16579166Y-36584104D01*
X16579166Y-36584104D02*
X16626785Y-36726961D01*
X16626785Y-36726961D02*
X16722023Y-36822200D01*
X16722023Y-36822200D02*
X16864880Y-36869819D01*
X16864880Y-36869819D02*
X16960118Y-36869819D01*
X15960118Y-36869819D02*
X16055356Y-36822200D01*
X16055356Y-36822200D02*
X16102975Y-36774580D01*
X16102975Y-36774580D02*
X16150594Y-36679342D01*
X16150594Y-36679342D02*
X16150594Y-36393628D01*
X16150594Y-36393628D02*
X16102975Y-36298390D01*
X16102975Y-36298390D02*
X16055356Y-36250771D01*
X16055356Y-36250771D02*
X15960118Y-36203152D01*
X15960118Y-36203152D02*
X15817261Y-36203152D01*
X15817261Y-36203152D02*
X15722023Y-36250771D01*
X15722023Y-36250771D02*
X15674404Y-36298390D01*
X15674404Y-36298390D02*
X15626785Y-36393628D01*
X15626785Y-36393628D02*
X15626785Y-36679342D01*
X15626785Y-36679342D02*
X15674404Y-36774580D01*
X15674404Y-36774580D02*
X15722023Y-36822200D01*
X15722023Y-36822200D02*
X15817261Y-36869819D01*
X15817261Y-36869819D02*
X15960118Y-36869819D01*
X14769642Y-36203152D02*
X14769642Y-37012676D01*
X14769642Y-37012676D02*
X14817261Y-37107914D01*
X14817261Y-37107914D02*
X14864880Y-37155533D01*
X14864880Y-37155533D02*
X14960118Y-37203152D01*
X14960118Y-37203152D02*
X15102975Y-37203152D01*
X15102975Y-37203152D02*
X15198213Y-37155533D01*
X14769642Y-36822200D02*
X14864880Y-36869819D01*
X14864880Y-36869819D02*
X15055356Y-36869819D01*
X15055356Y-36869819D02*
X15150594Y-36822200D01*
X15150594Y-36822200D02*
X15198213Y-36774580D01*
X15198213Y-36774580D02*
X15245832Y-36679342D01*
X15245832Y-36679342D02*
X15245832Y-36393628D01*
X15245832Y-36393628D02*
X15198213Y-36298390D01*
X15198213Y-36298390D02*
X15150594Y-36250771D01*
X15150594Y-36250771D02*
X15055356Y-36203152D01*
X15055356Y-36203152D02*
X14864880Y-36203152D01*
X14864880Y-36203152D02*
X14769642Y-36250771D01*
X14341070Y-36584104D02*
X13864880Y-36584104D01*
X14436308Y-36869819D02*
X14102975Y-35869819D01*
X14102975Y-35869819D02*
X13769642Y-36869819D01*
X13483927Y-35965057D02*
X13436308Y-35917438D01*
X13436308Y-35917438D02*
X13341070Y-35869819D01*
X13341070Y-35869819D02*
X13102975Y-35869819D01*
X13102975Y-35869819D02*
X13007737Y-35917438D01*
X13007737Y-35917438D02*
X12960118Y-35965057D01*
X12960118Y-35965057D02*
X12912499Y-36060295D01*
X12912499Y-36060295D02*
X12912499Y-36155533D01*
X12912499Y-36155533D02*
X12960118Y-36298390D01*
X12960118Y-36298390D02*
X13531546Y-36869819D01*
X13531546Y-36869819D02*
X12912499Y-36869819D01*
X41612200Y-85466905D02*
X41659819Y-85609762D01*
X41659819Y-85609762D02*
X41659819Y-85847857D01*
X41659819Y-85847857D02*
X41612200Y-85943095D01*
X41612200Y-85943095D02*
X41564580Y-85990714D01*
X41564580Y-85990714D02*
X41469342Y-86038333D01*
X41469342Y-86038333D02*
X41374104Y-86038333D01*
X41374104Y-86038333D02*
X41278866Y-85990714D01*
X41278866Y-85990714D02*
X41231247Y-85943095D01*
X41231247Y-85943095D02*
X41183628Y-85847857D01*
X41183628Y-85847857D02*
X41136009Y-85657381D01*
X41136009Y-85657381D02*
X41088390Y-85562143D01*
X41088390Y-85562143D02*
X41040771Y-85514524D01*
X41040771Y-85514524D02*
X40945533Y-85466905D01*
X40945533Y-85466905D02*
X40850295Y-85466905D01*
X40850295Y-85466905D02*
X40755057Y-85514524D01*
X40755057Y-85514524D02*
X40707438Y-85562143D01*
X40707438Y-85562143D02*
X40659819Y-85657381D01*
X40659819Y-85657381D02*
X40659819Y-85895476D01*
X40659819Y-85895476D02*
X40707438Y-86038333D01*
X40659819Y-86371667D02*
X40659819Y-86990714D01*
X40659819Y-86990714D02*
X41040771Y-86657381D01*
X41040771Y-86657381D02*
X41040771Y-86800238D01*
X41040771Y-86800238D02*
X41088390Y-86895476D01*
X41088390Y-86895476D02*
X41136009Y-86943095D01*
X41136009Y-86943095D02*
X41231247Y-86990714D01*
X41231247Y-86990714D02*
X41469342Y-86990714D01*
X41469342Y-86990714D02*
X41564580Y-86943095D01*
X41564580Y-86943095D02*
X41612200Y-86895476D01*
X41612200Y-86895476D02*
X41659819Y-86800238D01*
X41659819Y-86800238D02*
X41659819Y-86514524D01*
X41659819Y-86514524D02*
X41612200Y-86419286D01*
X41612200Y-86419286D02*
X41564580Y-86371667D01*
X40659819Y-87324048D02*
X40659819Y-87943095D01*
X40659819Y-87943095D02*
X41040771Y-87609762D01*
X41040771Y-87609762D02*
X41040771Y-87752619D01*
X41040771Y-87752619D02*
X41088390Y-87847857D01*
X41088390Y-87847857D02*
X41136009Y-87895476D01*
X41136009Y-87895476D02*
X41231247Y-87943095D01*
X41231247Y-87943095D02*
X41469342Y-87943095D01*
X41469342Y-87943095D02*
X41564580Y-87895476D01*
X41564580Y-87895476D02*
X41612200Y-87847857D01*
X41612200Y-87847857D02*
X41659819Y-87752619D01*
X41659819Y-87752619D02*
X41659819Y-87466905D01*
X41659819Y-87466905D02*
X41612200Y-87371667D01*
X41612200Y-87371667D02*
X41564580Y-87324048D01*
X22562142Y-65909819D02*
X22562142Y-64909819D01*
X22085952Y-65909819D02*
X22085952Y-64909819D01*
X22085952Y-64909819D02*
X21514524Y-65909819D01*
X21514524Y-65909819D02*
X21514524Y-64909819D01*
X21181190Y-64909819D02*
X20609762Y-64909819D01*
X20895476Y-65909819D02*
X20895476Y-64909819D01*
X19752619Y-65909819D02*
X20324047Y-65909819D01*
X20038333Y-65909819D02*
X20038333Y-64909819D01*
X20038333Y-64909819D02*
X20133571Y-65052676D01*
X20133571Y-65052676D02*
X20228809Y-65147914D01*
X20228809Y-65147914D02*
X20324047Y-65195533D01*
X18800238Y-65909819D02*
X19371666Y-65909819D01*
X19085952Y-65909819D02*
X19085952Y-64909819D01*
X19085952Y-64909819D02*
X19181190Y-65052676D01*
X19181190Y-65052676D02*
X19276428Y-65147914D01*
X19276428Y-65147914D02*
X19371666Y-65195533D01*
X45862200Y-85716905D02*
X45909819Y-85859762D01*
X45909819Y-85859762D02*
X45909819Y-86097857D01*
X45909819Y-86097857D02*
X45862200Y-86193095D01*
X45862200Y-86193095D02*
X45814580Y-86240714D01*
X45814580Y-86240714D02*
X45719342Y-86288333D01*
X45719342Y-86288333D02*
X45624104Y-86288333D01*
X45624104Y-86288333D02*
X45528866Y-86240714D01*
X45528866Y-86240714D02*
X45481247Y-86193095D01*
X45481247Y-86193095D02*
X45433628Y-86097857D01*
X45433628Y-86097857D02*
X45386009Y-85907381D01*
X45386009Y-85907381D02*
X45338390Y-85812143D01*
X45338390Y-85812143D02*
X45290771Y-85764524D01*
X45290771Y-85764524D02*
X45195533Y-85716905D01*
X45195533Y-85716905D02*
X45100295Y-85716905D01*
X45100295Y-85716905D02*
X45005057Y-85764524D01*
X45005057Y-85764524D02*
X44957438Y-85812143D01*
X44957438Y-85812143D02*
X44909819Y-85907381D01*
X44909819Y-85907381D02*
X44909819Y-86145476D01*
X44909819Y-86145476D02*
X44957438Y-86288333D01*
X45005057Y-86669286D02*
X44957438Y-86716905D01*
X44957438Y-86716905D02*
X44909819Y-86812143D01*
X44909819Y-86812143D02*
X44909819Y-87050238D01*
X44909819Y-87050238D02*
X44957438Y-87145476D01*
X44957438Y-87145476D02*
X45005057Y-87193095D01*
X45005057Y-87193095D02*
X45100295Y-87240714D01*
X45100295Y-87240714D02*
X45195533Y-87240714D01*
X45195533Y-87240714D02*
X45338390Y-87193095D01*
X45338390Y-87193095D02*
X45909819Y-86621667D01*
X45909819Y-86621667D02*
X45909819Y-87240714D01*
X44909819Y-87574048D02*
X44909819Y-88193095D01*
X44909819Y-88193095D02*
X45290771Y-87859762D01*
X45290771Y-87859762D02*
X45290771Y-88002619D01*
X45290771Y-88002619D02*
X45338390Y-88097857D01*
X45338390Y-88097857D02*
X45386009Y-88145476D01*
X45386009Y-88145476D02*
X45481247Y-88193095D01*
X45481247Y-88193095D02*
X45719342Y-88193095D01*
X45719342Y-88193095D02*
X45814580Y-88145476D01*
X45814580Y-88145476D02*
X45862200Y-88097857D01*
X45862200Y-88097857D02*
X45909819Y-88002619D01*
X45909819Y-88002619D02*
X45909819Y-87716905D01*
X45909819Y-87716905D02*
X45862200Y-87621667D01*
X45862200Y-87621667D02*
X45814580Y-87574048D01*
X29044819Y-72843095D02*
X29854342Y-72843095D01*
X29854342Y-72843095D02*
X29949580Y-72890714D01*
X29949580Y-72890714D02*
X29997200Y-72938333D01*
X29997200Y-72938333D02*
X30044819Y-73033571D01*
X30044819Y-73033571D02*
X30044819Y-73224047D01*
X30044819Y-73224047D02*
X29997200Y-73319285D01*
X29997200Y-73319285D02*
X29949580Y-73366904D01*
X29949580Y-73366904D02*
X29854342Y-73414523D01*
X29854342Y-73414523D02*
X29044819Y-73414523D01*
X29378152Y-74319285D02*
X30044819Y-74319285D01*
X28997200Y-74081190D02*
X29711485Y-73843095D01*
X29711485Y-73843095D02*
X29711485Y-74462142D01*
D10*
X96121666Y-80747580D02*
X96121666Y-80033295D01*
X96121666Y-80033295D02*
X96074047Y-79890438D01*
X96074047Y-79890438D02*
X95978809Y-79795200D01*
X95978809Y-79795200D02*
X95835952Y-79747580D01*
X95835952Y-79747580D02*
X95740714Y-79747580D01*
X96502619Y-80747580D02*
X97169285Y-80747580D01*
X97169285Y-80747580D02*
X96740714Y-79747580D01*
X91788333Y-75237342D02*
X91835952Y-75284961D01*
X91835952Y-75284961D02*
X91931190Y-75332580D01*
X91931190Y-75332580D02*
X92169285Y-75332580D01*
X92169285Y-75332580D02*
X92264523Y-75284961D01*
X92264523Y-75284961D02*
X92312142Y-75237342D01*
X92312142Y-75237342D02*
X92359761Y-75142104D01*
X92359761Y-75142104D02*
X92359761Y-75046866D01*
X92359761Y-75046866D02*
X92312142Y-74904009D01*
X92312142Y-74904009D02*
X91740714Y-74332580D01*
X91740714Y-74332580D02*
X92359761Y-74332580D01*
X92645476Y-75332580D02*
X93216904Y-75332580D01*
X92931190Y-74332580D02*
X92931190Y-75332580D01*
X95621667Y-75332580D02*
X96240714Y-75332580D01*
X96240714Y-75332580D02*
X95907381Y-74951628D01*
X95907381Y-74951628D02*
X96050238Y-74951628D01*
X96050238Y-74951628D02*
X96145476Y-74904009D01*
X96145476Y-74904009D02*
X96193095Y-74856390D01*
X96193095Y-74856390D02*
X96240714Y-74761152D01*
X96240714Y-74761152D02*
X96240714Y-74523057D01*
X96240714Y-74523057D02*
X96193095Y-74427819D01*
X96193095Y-74427819D02*
X96145476Y-74380200D01*
X96145476Y-74380200D02*
X96050238Y-74332580D01*
X96050238Y-74332580D02*
X95764524Y-74332580D01*
X95764524Y-74332580D02*
X95669286Y-74380200D01*
X95669286Y-74380200D02*
X95621667Y-74427819D01*
X97240714Y-74332580D02*
X96907381Y-74808771D01*
X96669286Y-74332580D02*
X96669286Y-75332580D01*
X96669286Y-75332580D02*
X97050238Y-75332580D01*
X97050238Y-75332580D02*
X97145476Y-75284961D01*
X97145476Y-75284961D02*
X97193095Y-75237342D01*
X97193095Y-75237342D02*
X97240714Y-75142104D01*
X97240714Y-75142104D02*
X97240714Y-74999247D01*
X97240714Y-74999247D02*
X97193095Y-74904009D01*
X97193095Y-74904009D02*
X97145476Y-74856390D01*
X97145476Y-74856390D02*
X97050238Y-74808771D01*
X97050238Y-74808771D02*
X96669286Y-74808771D01*
X100264523Y-74332580D02*
X99693095Y-74332580D01*
X99978809Y-74332580D02*
X99978809Y-75332580D01*
X99978809Y-75332580D02*
X99883571Y-75189723D01*
X99883571Y-75189723D02*
X99788333Y-75094485D01*
X99788333Y-75094485D02*
X99693095Y-75046866D01*
X100645476Y-74380200D02*
X100788333Y-74332580D01*
X100788333Y-74332580D02*
X101026428Y-74332580D01*
X101026428Y-74332580D02*
X101121666Y-74380200D01*
X101121666Y-74380200D02*
X101169285Y-74427819D01*
X101169285Y-74427819D02*
X101216904Y-74523057D01*
X101216904Y-74523057D02*
X101216904Y-74618295D01*
X101216904Y-74618295D02*
X101169285Y-74713533D01*
X101169285Y-74713533D02*
X101121666Y-74761152D01*
X101121666Y-74761152D02*
X101026428Y-74808771D01*
X101026428Y-74808771D02*
X100835952Y-74856390D01*
X100835952Y-74856390D02*
X100740714Y-74904009D01*
X100740714Y-74904009D02*
X100693095Y-74951628D01*
X100693095Y-74951628D02*
X100645476Y-75046866D01*
X100645476Y-75046866D02*
X100645476Y-75142104D01*
X100645476Y-75142104D02*
X100693095Y-75237342D01*
X100693095Y-75237342D02*
X100740714Y-75284961D01*
X100740714Y-75284961D02*
X100835952Y-75332580D01*
X100835952Y-75332580D02*
X101074047Y-75332580D01*
X101074047Y-75332580D02*
X101216904Y-75284961D01*
D11*
X21978809Y-73814580D02*
X22026428Y-73862200D01*
X22026428Y-73862200D02*
X22169285Y-73909819D01*
X22169285Y-73909819D02*
X22264523Y-73909819D01*
X22264523Y-73909819D02*
X22407380Y-73862200D01*
X22407380Y-73862200D02*
X22502618Y-73766961D01*
X22502618Y-73766961D02*
X22550237Y-73671723D01*
X22550237Y-73671723D02*
X22597856Y-73481247D01*
X22597856Y-73481247D02*
X22597856Y-73338390D01*
X22597856Y-73338390D02*
X22550237Y-73147914D01*
X22550237Y-73147914D02*
X22502618Y-73052676D01*
X22502618Y-73052676D02*
X22407380Y-72957438D01*
X22407380Y-72957438D02*
X22264523Y-72909819D01*
X22264523Y-72909819D02*
X22169285Y-72909819D01*
X22169285Y-72909819D02*
X22026428Y-72957438D01*
X22026428Y-72957438D02*
X21978809Y-73005057D01*
X21121666Y-73243152D02*
X21121666Y-73909819D01*
X21550237Y-73243152D02*
X21550237Y-73766961D01*
X21550237Y-73766961D02*
X21502618Y-73862200D01*
X21502618Y-73862200D02*
X21407380Y-73909819D01*
X21407380Y-73909819D02*
X21264523Y-73909819D01*
X21264523Y-73909819D02*
X21169285Y-73862200D01*
X21169285Y-73862200D02*
X21121666Y-73814580D01*
X20264523Y-73862200D02*
X20359761Y-73909819D01*
X20359761Y-73909819D02*
X20550237Y-73909819D01*
X20550237Y-73909819D02*
X20645475Y-73862200D01*
X20645475Y-73862200D02*
X20693094Y-73766961D01*
X20693094Y-73766961D02*
X20693094Y-73386009D01*
X20693094Y-73386009D02*
X20645475Y-73290771D01*
X20645475Y-73290771D02*
X20550237Y-73243152D01*
X20550237Y-73243152D02*
X20359761Y-73243152D01*
X20359761Y-73243152D02*
X20264523Y-73290771D01*
X20264523Y-73290771D02*
X20216904Y-73386009D01*
X20216904Y-73386009D02*
X20216904Y-73481247D01*
X20216904Y-73481247D02*
X20693094Y-73576485D01*
X19835951Y-73005057D02*
X19788332Y-72957438D01*
X19788332Y-72957438D02*
X19693094Y-72909819D01*
X19693094Y-72909819D02*
X19454999Y-72909819D01*
X19454999Y-72909819D02*
X19359761Y-72957438D01*
X19359761Y-72957438D02*
X19312142Y-73005057D01*
X19312142Y-73005057D02*
X19264523Y-73100295D01*
X19264523Y-73100295D02*
X19264523Y-73195533D01*
X19264523Y-73195533D02*
X19312142Y-73338390D01*
X19312142Y-73338390D02*
X19883570Y-73909819D01*
X19883570Y-73909819D02*
X19264523Y-73909819D01*
X18312142Y-73909819D02*
X18883570Y-73909819D01*
X18597856Y-73909819D02*
X18597856Y-72909819D01*
X18597856Y-72909819D02*
X18693094Y-73052676D01*
X18693094Y-73052676D02*
X18788332Y-73147914D01*
X18788332Y-73147914D02*
X18883570Y-73195533D01*
X21871666Y-11009819D02*
X22347856Y-11009819D01*
X22347856Y-11009819D02*
X22395475Y-11486009D01*
X22395475Y-11486009D02*
X22347856Y-11438390D01*
X22347856Y-11438390D02*
X22252618Y-11390771D01*
X22252618Y-11390771D02*
X22014523Y-11390771D01*
X22014523Y-11390771D02*
X21919285Y-11438390D01*
X21919285Y-11438390D02*
X21871666Y-11486009D01*
X21871666Y-11486009D02*
X21824047Y-11581247D01*
X21824047Y-11581247D02*
X21824047Y-11819342D01*
X21824047Y-11819342D02*
X21871666Y-11914580D01*
X21871666Y-11914580D02*
X21919285Y-11962200D01*
X21919285Y-11962200D02*
X22014523Y-12009819D01*
X22014523Y-12009819D02*
X22252618Y-12009819D01*
X22252618Y-12009819D02*
X22347856Y-11962200D01*
X22347856Y-11962200D02*
X22395475Y-11914580D01*
X21538332Y-11009819D02*
X21204999Y-12009819D01*
X21204999Y-12009819D02*
X20871666Y-11009819D01*
X20585951Y-11105057D02*
X20538332Y-11057438D01*
X20538332Y-11057438D02*
X20443094Y-11009819D01*
X20443094Y-11009819D02*
X20204999Y-11009819D01*
X20204999Y-11009819D02*
X20109761Y-11057438D01*
X20109761Y-11057438D02*
X20062142Y-11105057D01*
X20062142Y-11105057D02*
X20014523Y-11200295D01*
X20014523Y-11200295D02*
X20014523Y-11295533D01*
X20014523Y-11295533D02*
X20062142Y-11438390D01*
X20062142Y-11438390D02*
X20633570Y-12009819D01*
X20633570Y-12009819D02*
X20014523Y-12009819D01*
X22693095Y-35814580D02*
X22740714Y-35862200D01*
X22740714Y-35862200D02*
X22883571Y-35909819D01*
X22883571Y-35909819D02*
X22978809Y-35909819D01*
X22978809Y-35909819D02*
X23121666Y-35862200D01*
X23121666Y-35862200D02*
X23216904Y-35766961D01*
X23216904Y-35766961D02*
X23264523Y-35671723D01*
X23264523Y-35671723D02*
X23312142Y-35481247D01*
X23312142Y-35481247D02*
X23312142Y-35338390D01*
X23312142Y-35338390D02*
X23264523Y-35147914D01*
X23264523Y-35147914D02*
X23216904Y-35052676D01*
X23216904Y-35052676D02*
X23121666Y-34957438D01*
X23121666Y-34957438D02*
X22978809Y-34909819D01*
X22978809Y-34909819D02*
X22883571Y-34909819D01*
X22883571Y-34909819D02*
X22740714Y-34957438D01*
X22740714Y-34957438D02*
X22693095Y-35005057D01*
X22074047Y-34909819D02*
X21883571Y-34909819D01*
X21883571Y-34909819D02*
X21788333Y-34957438D01*
X21788333Y-34957438D02*
X21693095Y-35052676D01*
X21693095Y-35052676D02*
X21645476Y-35243152D01*
X21645476Y-35243152D02*
X21645476Y-35576485D01*
X21645476Y-35576485D02*
X21693095Y-35766961D01*
X21693095Y-35766961D02*
X21788333Y-35862200D01*
X21788333Y-35862200D02*
X21883571Y-35909819D01*
X21883571Y-35909819D02*
X22074047Y-35909819D01*
X22074047Y-35909819D02*
X22169285Y-35862200D01*
X22169285Y-35862200D02*
X22264523Y-35766961D01*
X22264523Y-35766961D02*
X22312142Y-35576485D01*
X22312142Y-35576485D02*
X22312142Y-35243152D01*
X22312142Y-35243152D02*
X22264523Y-35052676D01*
X22264523Y-35052676D02*
X22169285Y-34957438D01*
X22169285Y-34957438D02*
X22074047Y-34909819D01*
X21216904Y-35909819D02*
X21216904Y-34909819D01*
X21216904Y-34909819D02*
X20883571Y-35624104D01*
X20883571Y-35624104D02*
X20550238Y-34909819D01*
X20550238Y-34909819D02*
X20550238Y-35909819D01*
X19550238Y-35909819D02*
X20121666Y-35909819D01*
X19835952Y-35909819D02*
X19835952Y-34909819D01*
X19835952Y-34909819D02*
X19931190Y-35052676D01*
X19931190Y-35052676D02*
X20026428Y-35147914D01*
X20026428Y-35147914D02*
X20121666Y-35195533D01*
X18597857Y-35909819D02*
X19169285Y-35909819D01*
X18883571Y-35909819D02*
X18883571Y-34909819D01*
X18883571Y-34909819D02*
X18978809Y-35052676D01*
X18978809Y-35052676D02*
X19074047Y-35147914D01*
X19074047Y-35147914D02*
X19169285Y-35195533D01*
D10*
X104208333Y-11742419D02*
X104208333Y-12456704D01*
X104208333Y-12456704D02*
X104255952Y-12599561D01*
X104255952Y-12599561D02*
X104351190Y-12694800D01*
X104351190Y-12694800D02*
X104494047Y-12742419D01*
X104494047Y-12742419D02*
X104589285Y-12742419D01*
X103208333Y-12742419D02*
X103779761Y-12742419D01*
X103494047Y-12742419D02*
X103494047Y-11742419D01*
X103494047Y-11742419D02*
X103589285Y-11885276D01*
X103589285Y-11885276D02*
X103684523Y-11980514D01*
X103684523Y-11980514D02*
X103779761Y-12028133D01*
X100065476Y-18157419D02*
X100636904Y-18157419D01*
X100351190Y-18157419D02*
X100351190Y-17157419D01*
X100351190Y-17157419D02*
X100446428Y-17300276D01*
X100446428Y-17300276D02*
X100541666Y-17395514D01*
X100541666Y-17395514D02*
X100636904Y-17443133D01*
X99684523Y-18109800D02*
X99541666Y-18157419D01*
X99541666Y-18157419D02*
X99303571Y-18157419D01*
X99303571Y-18157419D02*
X99208333Y-18109800D01*
X99208333Y-18109800D02*
X99160714Y-18062180D01*
X99160714Y-18062180D02*
X99113095Y-17966942D01*
X99113095Y-17966942D02*
X99113095Y-17871704D01*
X99113095Y-17871704D02*
X99160714Y-17776466D01*
X99160714Y-17776466D02*
X99208333Y-17728847D01*
X99208333Y-17728847D02*
X99303571Y-17681228D01*
X99303571Y-17681228D02*
X99494047Y-17633609D01*
X99494047Y-17633609D02*
X99589285Y-17585990D01*
X99589285Y-17585990D02*
X99636904Y-17538371D01*
X99636904Y-17538371D02*
X99684523Y-17443133D01*
X99684523Y-17443133D02*
X99684523Y-17347895D01*
X99684523Y-17347895D02*
X99636904Y-17252657D01*
X99636904Y-17252657D02*
X99589285Y-17205038D01*
X99589285Y-17205038D02*
X99494047Y-17157419D01*
X99494047Y-17157419D02*
X99255952Y-17157419D01*
X99255952Y-17157419D02*
X99113095Y-17205038D01*
X104708332Y-17157419D02*
X104089285Y-17157419D01*
X104089285Y-17157419D02*
X104422618Y-17538371D01*
X104422618Y-17538371D02*
X104279761Y-17538371D01*
X104279761Y-17538371D02*
X104184523Y-17585990D01*
X104184523Y-17585990D02*
X104136904Y-17633609D01*
X104136904Y-17633609D02*
X104089285Y-17728847D01*
X104089285Y-17728847D02*
X104089285Y-17966942D01*
X104089285Y-17966942D02*
X104136904Y-18062180D01*
X104136904Y-18062180D02*
X104184523Y-18109800D01*
X104184523Y-18109800D02*
X104279761Y-18157419D01*
X104279761Y-18157419D02*
X104565475Y-18157419D01*
X104565475Y-18157419D02*
X104660713Y-18109800D01*
X104660713Y-18109800D02*
X104708332Y-18062180D01*
X103089285Y-18157419D02*
X103422618Y-17681228D01*
X103660713Y-18157419D02*
X103660713Y-17157419D01*
X103660713Y-17157419D02*
X103279761Y-17157419D01*
X103279761Y-17157419D02*
X103184523Y-17205038D01*
X103184523Y-17205038D02*
X103136904Y-17252657D01*
X103136904Y-17252657D02*
X103089285Y-17347895D01*
X103089285Y-17347895D02*
X103089285Y-17490752D01*
X103089285Y-17490752D02*
X103136904Y-17585990D01*
X103136904Y-17585990D02*
X103184523Y-17633609D01*
X103184523Y-17633609D02*
X103279761Y-17681228D01*
X103279761Y-17681228D02*
X103660713Y-17681228D01*
X108541666Y-17252657D02*
X108494047Y-17205038D01*
X108494047Y-17205038D02*
X108398809Y-17157419D01*
X108398809Y-17157419D02*
X108160714Y-17157419D01*
X108160714Y-17157419D02*
X108065476Y-17205038D01*
X108065476Y-17205038D02*
X108017857Y-17252657D01*
X108017857Y-17252657D02*
X107970238Y-17347895D01*
X107970238Y-17347895D02*
X107970238Y-17443133D01*
X107970238Y-17443133D02*
X108017857Y-17585990D01*
X108017857Y-17585990D02*
X108589285Y-18157419D01*
X108589285Y-18157419D02*
X107970238Y-18157419D01*
X107684523Y-17157419D02*
X107113095Y-17157419D01*
X107398809Y-18157419D02*
X107398809Y-17157419D01*
D11*
X33159819Y-85359761D02*
X32683628Y-85026428D01*
X33159819Y-84788333D02*
X32159819Y-84788333D01*
X32159819Y-84788333D02*
X32159819Y-85169285D01*
X32159819Y-85169285D02*
X32207438Y-85264523D01*
X32207438Y-85264523D02*
X32255057Y-85312142D01*
X32255057Y-85312142D02*
X32350295Y-85359761D01*
X32350295Y-85359761D02*
X32493152Y-85359761D01*
X32493152Y-85359761D02*
X32588390Y-85312142D01*
X32588390Y-85312142D02*
X32636009Y-85264523D01*
X32636009Y-85264523D02*
X32683628Y-85169285D01*
X32683628Y-85169285D02*
X32683628Y-84788333D01*
X32636009Y-85788333D02*
X32636009Y-86121666D01*
X33159819Y-86264523D02*
X33159819Y-85788333D01*
X33159819Y-85788333D02*
X32159819Y-85788333D01*
X32159819Y-85788333D02*
X32159819Y-86264523D01*
X32636009Y-87026428D02*
X32683628Y-87169285D01*
X32683628Y-87169285D02*
X32731247Y-87216904D01*
X32731247Y-87216904D02*
X32826485Y-87264523D01*
X32826485Y-87264523D02*
X32969342Y-87264523D01*
X32969342Y-87264523D02*
X33064580Y-87216904D01*
X33064580Y-87216904D02*
X33112200Y-87169285D01*
X33112200Y-87169285D02*
X33159819Y-87074047D01*
X33159819Y-87074047D02*
X33159819Y-86693095D01*
X33159819Y-86693095D02*
X32159819Y-86693095D01*
X32159819Y-86693095D02*
X32159819Y-87026428D01*
X32159819Y-87026428D02*
X32207438Y-87121666D01*
X32207438Y-87121666D02*
X32255057Y-87169285D01*
X32255057Y-87169285D02*
X32350295Y-87216904D01*
X32350295Y-87216904D02*
X32445533Y-87216904D01*
X32445533Y-87216904D02*
X32540771Y-87169285D01*
X32540771Y-87169285D02*
X32588390Y-87121666D01*
X32588390Y-87121666D02*
X32636009Y-87026428D01*
X32636009Y-87026428D02*
X32636009Y-86693095D01*
X33159819Y-88216904D02*
X33159819Y-87645476D01*
X33159819Y-87931190D02*
X32159819Y-87931190D01*
X32159819Y-87931190D02*
X32302676Y-87835952D01*
X32302676Y-87835952D02*
X32397914Y-87740714D01*
X32397914Y-87740714D02*
X32445533Y-87645476D01*
X32255057Y-88597857D02*
X32207438Y-88645476D01*
X32207438Y-88645476D02*
X32159819Y-88740714D01*
X32159819Y-88740714D02*
X32159819Y-88978809D01*
X32159819Y-88978809D02*
X32207438Y-89074047D01*
X32207438Y-89074047D02*
X32255057Y-89121666D01*
X32255057Y-89121666D02*
X32350295Y-89169285D01*
X32350295Y-89169285D02*
X32445533Y-89169285D01*
X32445533Y-89169285D02*
X32588390Y-89121666D01*
X32588390Y-89121666D02*
X33159819Y-88550238D01*
X33159819Y-88550238D02*
X33159819Y-89169285D01*
D10*
X53717819Y-74621666D02*
X53670200Y-74669285D01*
X53670200Y-74669285D02*
X53622580Y-74812142D01*
X53622580Y-74812142D02*
X53622580Y-74907380D01*
X53622580Y-74907380D02*
X53670200Y-75050237D01*
X53670200Y-75050237D02*
X53765438Y-75145475D01*
X53765438Y-75145475D02*
X53860676Y-75193094D01*
X53860676Y-75193094D02*
X54051152Y-75240713D01*
X54051152Y-75240713D02*
X54194009Y-75240713D01*
X54194009Y-75240713D02*
X54384485Y-75193094D01*
X54384485Y-75193094D02*
X54479723Y-75145475D01*
X54479723Y-75145475D02*
X54574961Y-75050237D01*
X54574961Y-75050237D02*
X54622580Y-74907380D01*
X54622580Y-74907380D02*
X54622580Y-74812142D01*
X54622580Y-74812142D02*
X54574961Y-74669285D01*
X54574961Y-74669285D02*
X54527342Y-74621666D01*
X53622580Y-74145475D02*
X53622580Y-73954999D01*
X53622580Y-73954999D02*
X53670200Y-73859761D01*
X53670200Y-73859761D02*
X53717819Y-73812142D01*
X53717819Y-73812142D02*
X53860676Y-73716904D01*
X53860676Y-73716904D02*
X54051152Y-73669285D01*
X54051152Y-73669285D02*
X54432104Y-73669285D01*
X54432104Y-73669285D02*
X54527342Y-73716904D01*
X54527342Y-73716904D02*
X54574961Y-73764523D01*
X54574961Y-73764523D02*
X54622580Y-73859761D01*
X54622580Y-73859761D02*
X54622580Y-74050237D01*
X54622580Y-74050237D02*
X54574961Y-74145475D01*
X54574961Y-74145475D02*
X54527342Y-74193094D01*
X54527342Y-74193094D02*
X54432104Y-74240713D01*
X54432104Y-74240713D02*
X54194009Y-74240713D01*
X54194009Y-74240713D02*
X54098771Y-74193094D01*
X54098771Y-74193094D02*
X54051152Y-74145475D01*
X54051152Y-74145475D02*
X54003533Y-74050237D01*
X54003533Y-74050237D02*
X54003533Y-73859761D01*
X54003533Y-73859761D02*
X54051152Y-73764523D01*
X54051152Y-73764523D02*
X54098771Y-73716904D01*
X54098771Y-73716904D02*
X54194009Y-73669285D01*
X98038333Y-57662419D02*
X98038333Y-58376704D01*
X98038333Y-58376704D02*
X98085952Y-58519561D01*
X98085952Y-58519561D02*
X98181190Y-58614800D01*
X98181190Y-58614800D02*
X98324047Y-58662419D01*
X98324047Y-58662419D02*
X98419285Y-58662419D01*
X97514523Y-58662419D02*
X97324047Y-58662419D01*
X97324047Y-58662419D02*
X97228809Y-58614800D01*
X97228809Y-58614800D02*
X97181190Y-58567180D01*
X97181190Y-58567180D02*
X97085952Y-58424323D01*
X97085952Y-58424323D02*
X97038333Y-58233847D01*
X97038333Y-58233847D02*
X97038333Y-57852895D01*
X97038333Y-57852895D02*
X97085952Y-57757657D01*
X97085952Y-57757657D02*
X97133571Y-57710038D01*
X97133571Y-57710038D02*
X97228809Y-57662419D01*
X97228809Y-57662419D02*
X97419285Y-57662419D01*
X97419285Y-57662419D02*
X97514523Y-57710038D01*
X97514523Y-57710038D02*
X97562142Y-57757657D01*
X97562142Y-57757657D02*
X97609761Y-57852895D01*
X97609761Y-57852895D02*
X97609761Y-58090990D01*
X97609761Y-58090990D02*
X97562142Y-58186228D01*
X97562142Y-58186228D02*
X97514523Y-58233847D01*
X97514523Y-58233847D02*
X97419285Y-58281466D01*
X97419285Y-58281466D02*
X97228809Y-58281466D01*
X97228809Y-58281466D02*
X97133571Y-58233847D01*
X97133571Y-58233847D02*
X97085952Y-58186228D01*
X97085952Y-58186228D02*
X97038333Y-58090990D01*
X93895476Y-64077419D02*
X94466904Y-64077419D01*
X94181190Y-64077419D02*
X94181190Y-63077419D01*
X94181190Y-63077419D02*
X94276428Y-63220276D01*
X94276428Y-63220276D02*
X94371666Y-63315514D01*
X94371666Y-63315514D02*
X94466904Y-63363133D01*
X93514523Y-64029800D02*
X93371666Y-64077419D01*
X93371666Y-64077419D02*
X93133571Y-64077419D01*
X93133571Y-64077419D02*
X93038333Y-64029800D01*
X93038333Y-64029800D02*
X92990714Y-63982180D01*
X92990714Y-63982180D02*
X92943095Y-63886942D01*
X92943095Y-63886942D02*
X92943095Y-63791704D01*
X92943095Y-63791704D02*
X92990714Y-63696466D01*
X92990714Y-63696466D02*
X93038333Y-63648847D01*
X93038333Y-63648847D02*
X93133571Y-63601228D01*
X93133571Y-63601228D02*
X93324047Y-63553609D01*
X93324047Y-63553609D02*
X93419285Y-63505990D01*
X93419285Y-63505990D02*
X93466904Y-63458371D01*
X93466904Y-63458371D02*
X93514523Y-63363133D01*
X93514523Y-63363133D02*
X93514523Y-63267895D01*
X93514523Y-63267895D02*
X93466904Y-63172657D01*
X93466904Y-63172657D02*
X93419285Y-63125038D01*
X93419285Y-63125038D02*
X93324047Y-63077419D01*
X93324047Y-63077419D02*
X93085952Y-63077419D01*
X93085952Y-63077419D02*
X92943095Y-63125038D01*
X98538332Y-63077419D02*
X97919285Y-63077419D01*
X97919285Y-63077419D02*
X98252618Y-63458371D01*
X98252618Y-63458371D02*
X98109761Y-63458371D01*
X98109761Y-63458371D02*
X98014523Y-63505990D01*
X98014523Y-63505990D02*
X97966904Y-63553609D01*
X97966904Y-63553609D02*
X97919285Y-63648847D01*
X97919285Y-63648847D02*
X97919285Y-63886942D01*
X97919285Y-63886942D02*
X97966904Y-63982180D01*
X97966904Y-63982180D02*
X98014523Y-64029800D01*
X98014523Y-64029800D02*
X98109761Y-64077419D01*
X98109761Y-64077419D02*
X98395475Y-64077419D01*
X98395475Y-64077419D02*
X98490713Y-64029800D01*
X98490713Y-64029800D02*
X98538332Y-63982180D01*
X96919285Y-64077419D02*
X97252618Y-63601228D01*
X97490713Y-64077419D02*
X97490713Y-63077419D01*
X97490713Y-63077419D02*
X97109761Y-63077419D01*
X97109761Y-63077419D02*
X97014523Y-63125038D01*
X97014523Y-63125038D02*
X96966904Y-63172657D01*
X96966904Y-63172657D02*
X96919285Y-63267895D01*
X96919285Y-63267895D02*
X96919285Y-63410752D01*
X96919285Y-63410752D02*
X96966904Y-63505990D01*
X96966904Y-63505990D02*
X97014523Y-63553609D01*
X97014523Y-63553609D02*
X97109761Y-63601228D01*
X97109761Y-63601228D02*
X97490713Y-63601228D01*
X102371666Y-63172657D02*
X102324047Y-63125038D01*
X102324047Y-63125038D02*
X102228809Y-63077419D01*
X102228809Y-63077419D02*
X101990714Y-63077419D01*
X101990714Y-63077419D02*
X101895476Y-63125038D01*
X101895476Y-63125038D02*
X101847857Y-63172657D01*
X101847857Y-63172657D02*
X101800238Y-63267895D01*
X101800238Y-63267895D02*
X101800238Y-63363133D01*
X101800238Y-63363133D02*
X101847857Y-63505990D01*
X101847857Y-63505990D02*
X102419285Y-64077419D01*
X102419285Y-64077419D02*
X101800238Y-64077419D01*
X101514523Y-63077419D02*
X100943095Y-63077419D01*
X101228809Y-64077419D02*
X101228809Y-63077419D01*
D11*
X23193094Y-86409819D02*
X23193094Y-85409819D01*
X23193094Y-85409819D02*
X22954999Y-85409819D01*
X22954999Y-85409819D02*
X22812142Y-85457438D01*
X22812142Y-85457438D02*
X22716904Y-85552676D01*
X22716904Y-85552676D02*
X22669285Y-85647914D01*
X22669285Y-85647914D02*
X22621666Y-85838390D01*
X22621666Y-85838390D02*
X22621666Y-85981247D01*
X22621666Y-85981247D02*
X22669285Y-86171723D01*
X22669285Y-86171723D02*
X22716904Y-86266961D01*
X22716904Y-86266961D02*
X22812142Y-86362200D01*
X22812142Y-86362200D02*
X22954999Y-86409819D01*
X22954999Y-86409819D02*
X23193094Y-86409819D01*
X22240713Y-86362200D02*
X22097856Y-86409819D01*
X22097856Y-86409819D02*
X21859761Y-86409819D01*
X21859761Y-86409819D02*
X21764523Y-86362200D01*
X21764523Y-86362200D02*
X21716904Y-86314580D01*
X21716904Y-86314580D02*
X21669285Y-86219342D01*
X21669285Y-86219342D02*
X21669285Y-86124104D01*
X21669285Y-86124104D02*
X21716904Y-86028866D01*
X21716904Y-86028866D02*
X21764523Y-85981247D01*
X21764523Y-85981247D02*
X21859761Y-85933628D01*
X21859761Y-85933628D02*
X22050237Y-85886009D01*
X22050237Y-85886009D02*
X22145475Y-85838390D01*
X22145475Y-85838390D02*
X22193094Y-85790771D01*
X22193094Y-85790771D02*
X22240713Y-85695533D01*
X22240713Y-85695533D02*
X22240713Y-85600295D01*
X22240713Y-85600295D02*
X22193094Y-85505057D01*
X22193094Y-85505057D02*
X22145475Y-85457438D01*
X22145475Y-85457438D02*
X22050237Y-85409819D01*
X22050237Y-85409819D02*
X21812142Y-85409819D01*
X21812142Y-85409819D02*
X21669285Y-85457438D01*
X21288332Y-86362200D02*
X21145475Y-86409819D01*
X21145475Y-86409819D02*
X20907380Y-86409819D01*
X20907380Y-86409819D02*
X20812142Y-86362200D01*
X20812142Y-86362200D02*
X20764523Y-86314580D01*
X20764523Y-86314580D02*
X20716904Y-86219342D01*
X20716904Y-86219342D02*
X20716904Y-86124104D01*
X20716904Y-86124104D02*
X20764523Y-86028866D01*
X20764523Y-86028866D02*
X20812142Y-85981247D01*
X20812142Y-85981247D02*
X20907380Y-85933628D01*
X20907380Y-85933628D02*
X21097856Y-85886009D01*
X21097856Y-85886009D02*
X21193094Y-85838390D01*
X21193094Y-85838390D02*
X21240713Y-85790771D01*
X21240713Y-85790771D02*
X21288332Y-85695533D01*
X21288332Y-85695533D02*
X21288332Y-85600295D01*
X21288332Y-85600295D02*
X21240713Y-85505057D01*
X21240713Y-85505057D02*
X21193094Y-85457438D01*
X21193094Y-85457438D02*
X21097856Y-85409819D01*
X21097856Y-85409819D02*
X20859761Y-85409819D01*
X20859761Y-85409819D02*
X20716904Y-85457438D01*
X20383570Y-85409819D02*
X20145475Y-86409819D01*
X20145475Y-86409819D02*
X19954999Y-85695533D01*
X19954999Y-85695533D02*
X19764523Y-86409819D01*
X19764523Y-86409819D02*
X19526428Y-85409819D01*
X19240713Y-85409819D02*
X18621666Y-85409819D01*
X18621666Y-85409819D02*
X18954999Y-85790771D01*
X18954999Y-85790771D02*
X18812142Y-85790771D01*
X18812142Y-85790771D02*
X18716904Y-85838390D01*
X18716904Y-85838390D02*
X18669285Y-85886009D01*
X18669285Y-85886009D02*
X18621666Y-85981247D01*
X18621666Y-85981247D02*
X18621666Y-86219342D01*
X18621666Y-86219342D02*
X18669285Y-86314580D01*
X18669285Y-86314580D02*
X18716904Y-86362200D01*
X18716904Y-86362200D02*
X18812142Y-86409819D01*
X18812142Y-86409819D02*
X19097856Y-86409819D01*
X19097856Y-86409819D02*
X19193094Y-86362200D01*
X19193094Y-86362200D02*
X19240713Y-86314580D01*
X17669285Y-86409819D02*
X18240713Y-86409819D01*
X17954999Y-86409819D02*
X17954999Y-85409819D01*
X17954999Y-85409819D02*
X18050237Y-85552676D01*
X18050237Y-85552676D02*
X18145475Y-85647914D01*
X18145475Y-85647914D02*
X18240713Y-85695533D01*
X22562142Y-61709819D02*
X22562142Y-60709819D01*
X22085952Y-61709819D02*
X22085952Y-60709819D01*
X22085952Y-60709819D02*
X21514524Y-61709819D01*
X21514524Y-61709819D02*
X21514524Y-60709819D01*
X21181190Y-60709819D02*
X20609762Y-60709819D01*
X20895476Y-61709819D02*
X20895476Y-60709819D01*
X20324047Y-60805057D02*
X20276428Y-60757438D01*
X20276428Y-60757438D02*
X20181190Y-60709819D01*
X20181190Y-60709819D02*
X19943095Y-60709819D01*
X19943095Y-60709819D02*
X19847857Y-60757438D01*
X19847857Y-60757438D02*
X19800238Y-60805057D01*
X19800238Y-60805057D02*
X19752619Y-60900295D01*
X19752619Y-60900295D02*
X19752619Y-60995533D01*
X19752619Y-60995533D02*
X19800238Y-61138390D01*
X19800238Y-61138390D02*
X20371666Y-61709819D01*
X20371666Y-61709819D02*
X19752619Y-61709819D01*
X18800238Y-61709819D02*
X19371666Y-61709819D01*
X19085952Y-61709819D02*
X19085952Y-60709819D01*
X19085952Y-60709819D02*
X19181190Y-60852676D01*
X19181190Y-60852676D02*
X19276428Y-60947914D01*
X19276428Y-60947914D02*
X19371666Y-60995533D01*
D10*
X120912419Y-71773095D02*
X121721942Y-71773095D01*
X121721942Y-71773095D02*
X121817180Y-71820714D01*
X121817180Y-71820714D02*
X121864800Y-71868333D01*
X121864800Y-71868333D02*
X121912419Y-71963571D01*
X121912419Y-71963571D02*
X121912419Y-72154047D01*
X121912419Y-72154047D02*
X121864800Y-72249285D01*
X121864800Y-72249285D02*
X121817180Y-72296904D01*
X121817180Y-72296904D02*
X121721942Y-72344523D01*
X121721942Y-72344523D02*
X120912419Y-72344523D01*
X120912419Y-73296904D02*
X120912419Y-72820714D01*
X120912419Y-72820714D02*
X121388609Y-72773095D01*
X121388609Y-72773095D02*
X121340990Y-72820714D01*
X121340990Y-72820714D02*
X121293371Y-72915952D01*
X121293371Y-72915952D02*
X121293371Y-73154047D01*
X121293371Y-73154047D02*
X121340990Y-73249285D01*
X121340990Y-73249285D02*
X121388609Y-73296904D01*
X121388609Y-73296904D02*
X121483847Y-73344523D01*
X121483847Y-73344523D02*
X121721942Y-73344523D01*
X121721942Y-73344523D02*
X121817180Y-73296904D01*
X121817180Y-73296904D02*
X121864800Y-73249285D01*
X121864800Y-73249285D02*
X121912419Y-73154047D01*
X121912419Y-73154047D02*
X121912419Y-72915952D01*
X121912419Y-72915952D02*
X121864800Y-72820714D01*
X121864800Y-72820714D02*
X121817180Y-72773095D01*
X101863095Y-31827580D02*
X102434523Y-31827580D01*
X102148809Y-30827580D02*
X102148809Y-31827580D01*
X103339285Y-30827580D02*
X103005952Y-31303771D01*
X102767857Y-30827580D02*
X102767857Y-31827580D01*
X102767857Y-31827580D02*
X103148809Y-31827580D01*
X103148809Y-31827580D02*
X103244047Y-31779961D01*
X103244047Y-31779961D02*
X103291666Y-31732342D01*
X103291666Y-31732342D02*
X103339285Y-31637104D01*
X103339285Y-31637104D02*
X103339285Y-31494247D01*
X103339285Y-31494247D02*
X103291666Y-31399009D01*
X103291666Y-31399009D02*
X103244047Y-31351390D01*
X103244047Y-31351390D02*
X103148809Y-31303771D01*
X103148809Y-31303771D02*
X102767857Y-31303771D01*
X104291666Y-30827580D02*
X103720238Y-30827580D01*
X104005952Y-30827580D02*
X104005952Y-31827580D01*
X104005952Y-31827580D02*
X103910714Y-31684723D01*
X103910714Y-31684723D02*
X103815476Y-31589485D01*
X103815476Y-31589485D02*
X103720238Y-31541866D01*
D11*
X21978809Y-78064580D02*
X22026428Y-78112200D01*
X22026428Y-78112200D02*
X22169285Y-78159819D01*
X22169285Y-78159819D02*
X22264523Y-78159819D01*
X22264523Y-78159819D02*
X22407380Y-78112200D01*
X22407380Y-78112200D02*
X22502618Y-78016961D01*
X22502618Y-78016961D02*
X22550237Y-77921723D01*
X22550237Y-77921723D02*
X22597856Y-77731247D01*
X22597856Y-77731247D02*
X22597856Y-77588390D01*
X22597856Y-77588390D02*
X22550237Y-77397914D01*
X22550237Y-77397914D02*
X22502618Y-77302676D01*
X22502618Y-77302676D02*
X22407380Y-77207438D01*
X22407380Y-77207438D02*
X22264523Y-77159819D01*
X22264523Y-77159819D02*
X22169285Y-77159819D01*
X22169285Y-77159819D02*
X22026428Y-77207438D01*
X22026428Y-77207438D02*
X21978809Y-77255057D01*
X21121666Y-77493152D02*
X21121666Y-78159819D01*
X21550237Y-77493152D02*
X21550237Y-78016961D01*
X21550237Y-78016961D02*
X21502618Y-78112200D01*
X21502618Y-78112200D02*
X21407380Y-78159819D01*
X21407380Y-78159819D02*
X21264523Y-78159819D01*
X21264523Y-78159819D02*
X21169285Y-78112200D01*
X21169285Y-78112200D02*
X21121666Y-78064580D01*
X20264523Y-78112200D02*
X20359761Y-78159819D01*
X20359761Y-78159819D02*
X20550237Y-78159819D01*
X20550237Y-78159819D02*
X20645475Y-78112200D01*
X20645475Y-78112200D02*
X20693094Y-78016961D01*
X20693094Y-78016961D02*
X20693094Y-77636009D01*
X20693094Y-77636009D02*
X20645475Y-77540771D01*
X20645475Y-77540771D02*
X20550237Y-77493152D01*
X20550237Y-77493152D02*
X20359761Y-77493152D01*
X20359761Y-77493152D02*
X20264523Y-77540771D01*
X20264523Y-77540771D02*
X20216904Y-77636009D01*
X20216904Y-77636009D02*
X20216904Y-77731247D01*
X20216904Y-77731247D02*
X20693094Y-77826485D01*
X19883570Y-77159819D02*
X19264523Y-77159819D01*
X19264523Y-77159819D02*
X19597856Y-77540771D01*
X19597856Y-77540771D02*
X19454999Y-77540771D01*
X19454999Y-77540771D02*
X19359761Y-77588390D01*
X19359761Y-77588390D02*
X19312142Y-77636009D01*
X19312142Y-77636009D02*
X19264523Y-77731247D01*
X19264523Y-77731247D02*
X19264523Y-77969342D01*
X19264523Y-77969342D02*
X19312142Y-78064580D01*
X19312142Y-78064580D02*
X19359761Y-78112200D01*
X19359761Y-78112200D02*
X19454999Y-78159819D01*
X19454999Y-78159819D02*
X19740713Y-78159819D01*
X19740713Y-78159819D02*
X19835951Y-78112200D01*
X19835951Y-78112200D02*
X19883570Y-78064580D01*
X18312142Y-78159819D02*
X18883570Y-78159819D01*
X18597856Y-78159819D02*
X18597856Y-77159819D01*
X18597856Y-77159819D02*
X18693094Y-77302676D01*
X18693094Y-77302676D02*
X18788332Y-77397914D01*
X18788332Y-77397914D02*
X18883570Y-77445533D01*
X23157380Y-24009819D02*
X22538333Y-24009819D01*
X22538333Y-24009819D02*
X22871666Y-24390771D01*
X22871666Y-24390771D02*
X22728809Y-24390771D01*
X22728809Y-24390771D02*
X22633571Y-24438390D01*
X22633571Y-24438390D02*
X22585952Y-24486009D01*
X22585952Y-24486009D02*
X22538333Y-24581247D01*
X22538333Y-24581247D02*
X22538333Y-24819342D01*
X22538333Y-24819342D02*
X22585952Y-24914580D01*
X22585952Y-24914580D02*
X22633571Y-24962200D01*
X22633571Y-24962200D02*
X22728809Y-25009819D01*
X22728809Y-25009819D02*
X23014523Y-25009819D01*
X23014523Y-25009819D02*
X23109761Y-24962200D01*
X23109761Y-24962200D02*
X23157380Y-24914580D01*
X22109761Y-24914580D02*
X22062142Y-24962200D01*
X22062142Y-24962200D02*
X22109761Y-25009819D01*
X22109761Y-25009819D02*
X22157380Y-24962200D01*
X22157380Y-24962200D02*
X22109761Y-24914580D01*
X22109761Y-24914580D02*
X22109761Y-25009819D01*
X21728809Y-24009819D02*
X21109762Y-24009819D01*
X21109762Y-24009819D02*
X21443095Y-24390771D01*
X21443095Y-24390771D02*
X21300238Y-24390771D01*
X21300238Y-24390771D02*
X21205000Y-24438390D01*
X21205000Y-24438390D02*
X21157381Y-24486009D01*
X21157381Y-24486009D02*
X21109762Y-24581247D01*
X21109762Y-24581247D02*
X21109762Y-24819342D01*
X21109762Y-24819342D02*
X21157381Y-24914580D01*
X21157381Y-24914580D02*
X21205000Y-24962200D01*
X21205000Y-24962200D02*
X21300238Y-25009819D01*
X21300238Y-25009819D02*
X21585952Y-25009819D01*
X21585952Y-25009819D02*
X21681190Y-24962200D01*
X21681190Y-24962200D02*
X21728809Y-24914580D01*
X20824047Y-24009819D02*
X20490714Y-25009819D01*
X20490714Y-25009819D02*
X20157381Y-24009819D01*
X19871666Y-24105057D02*
X19824047Y-24057438D01*
X19824047Y-24057438D02*
X19728809Y-24009819D01*
X19728809Y-24009819D02*
X19490714Y-24009819D01*
X19490714Y-24009819D02*
X19395476Y-24057438D01*
X19395476Y-24057438D02*
X19347857Y-24105057D01*
X19347857Y-24105057D02*
X19300238Y-24200295D01*
X19300238Y-24200295D02*
X19300238Y-24295533D01*
X19300238Y-24295533D02*
X19347857Y-24438390D01*
X19347857Y-24438390D02*
X19919285Y-25009819D01*
X19919285Y-25009819D02*
X19300238Y-25009819D01*
X37409819Y-85431190D02*
X36933628Y-85097857D01*
X37409819Y-84859762D02*
X36409819Y-84859762D01*
X36409819Y-84859762D02*
X36409819Y-85240714D01*
X36409819Y-85240714D02*
X36457438Y-85335952D01*
X36457438Y-85335952D02*
X36505057Y-85383571D01*
X36505057Y-85383571D02*
X36600295Y-85431190D01*
X36600295Y-85431190D02*
X36743152Y-85431190D01*
X36743152Y-85431190D02*
X36838390Y-85383571D01*
X36838390Y-85383571D02*
X36886009Y-85335952D01*
X36886009Y-85335952D02*
X36933628Y-85240714D01*
X36933628Y-85240714D02*
X36933628Y-84859762D01*
X36886009Y-85859762D02*
X36886009Y-86193095D01*
X37409819Y-86335952D02*
X37409819Y-85859762D01*
X37409819Y-85859762D02*
X36409819Y-85859762D01*
X36409819Y-85859762D02*
X36409819Y-86335952D01*
X37124104Y-86716905D02*
X37124104Y-87193095D01*
X37409819Y-86621667D02*
X36409819Y-86955000D01*
X36409819Y-86955000D02*
X37409819Y-87288333D01*
X37409819Y-88145476D02*
X37409819Y-87574048D01*
X37409819Y-87859762D02*
X36409819Y-87859762D01*
X36409819Y-87859762D02*
X36552676Y-87764524D01*
X36552676Y-87764524D02*
X36647914Y-87669286D01*
X36647914Y-87669286D02*
X36695533Y-87574048D01*
X36505057Y-88526429D02*
X36457438Y-88574048D01*
X36457438Y-88574048D02*
X36409819Y-88669286D01*
X36409819Y-88669286D02*
X36409819Y-88907381D01*
X36409819Y-88907381D02*
X36457438Y-89002619D01*
X36457438Y-89002619D02*
X36505057Y-89050238D01*
X36505057Y-89050238D02*
X36600295Y-89097857D01*
X36600295Y-89097857D02*
X36695533Y-89097857D01*
X36695533Y-89097857D02*
X36838390Y-89050238D01*
X36838390Y-89050238D02*
X37409819Y-88478810D01*
X37409819Y-88478810D02*
X37409819Y-89097857D01*
X22669285Y-45807438D02*
X22764523Y-45759819D01*
X22764523Y-45759819D02*
X22907380Y-45759819D01*
X22907380Y-45759819D02*
X23050237Y-45807438D01*
X23050237Y-45807438D02*
X23145475Y-45902676D01*
X23145475Y-45902676D02*
X23193094Y-45997914D01*
X23193094Y-45997914D02*
X23240713Y-46188390D01*
X23240713Y-46188390D02*
X23240713Y-46331247D01*
X23240713Y-46331247D02*
X23193094Y-46521723D01*
X23193094Y-46521723D02*
X23145475Y-46616961D01*
X23145475Y-46616961D02*
X23050237Y-46712200D01*
X23050237Y-46712200D02*
X22907380Y-46759819D01*
X22907380Y-46759819D02*
X22812142Y-46759819D01*
X22812142Y-46759819D02*
X22669285Y-46712200D01*
X22669285Y-46712200D02*
X22621666Y-46664580D01*
X22621666Y-46664580D02*
X22621666Y-46331247D01*
X22621666Y-46331247D02*
X22812142Y-46331247D01*
X22193094Y-46759819D02*
X22193094Y-45759819D01*
X22193094Y-45759819D02*
X21621666Y-46759819D01*
X21621666Y-46759819D02*
X21621666Y-45759819D01*
X21145475Y-46759819D02*
X21145475Y-45759819D01*
X21145475Y-45759819D02*
X20907380Y-45759819D01*
X20907380Y-45759819D02*
X20764523Y-45807438D01*
X20764523Y-45807438D02*
X20669285Y-45902676D01*
X20669285Y-45902676D02*
X20621666Y-45997914D01*
X20621666Y-45997914D02*
X20574047Y-46188390D01*
X20574047Y-46188390D02*
X20574047Y-46331247D01*
X20574047Y-46331247D02*
X20621666Y-46521723D01*
X20621666Y-46521723D02*
X20669285Y-46616961D01*
X20669285Y-46616961D02*
X20764523Y-46712200D01*
X20764523Y-46712200D02*
X20907380Y-46759819D01*
X20907380Y-46759819D02*
X21145475Y-46759819D01*
X19621666Y-46759819D02*
X20193094Y-46759819D01*
X19907380Y-46759819D02*
X19907380Y-45759819D01*
X19907380Y-45759819D02*
X20002618Y-45902676D01*
X20002618Y-45902676D02*
X20097856Y-45997914D01*
X20097856Y-45997914D02*
X20193094Y-46045533D01*
X19002618Y-45759819D02*
X18907380Y-45759819D01*
X18907380Y-45759819D02*
X18812142Y-45807438D01*
X18812142Y-45807438D02*
X18764523Y-45855057D01*
X18764523Y-45855057D02*
X18716904Y-45950295D01*
X18716904Y-45950295D02*
X18669285Y-46140771D01*
X18669285Y-46140771D02*
X18669285Y-46378866D01*
X18669285Y-46378866D02*
X18716904Y-46569342D01*
X18716904Y-46569342D02*
X18764523Y-46664580D01*
X18764523Y-46664580D02*
X18812142Y-46712200D01*
X18812142Y-46712200D02*
X18907380Y-46759819D01*
X18907380Y-46759819D02*
X19002618Y-46759819D01*
X19002618Y-46759819D02*
X19097856Y-46712200D01*
X19097856Y-46712200D02*
X19145475Y-46664580D01*
X19145475Y-46664580D02*
X19193094Y-46569342D01*
X19193094Y-46569342D02*
X19240713Y-46378866D01*
X19240713Y-46378866D02*
X19240713Y-46140771D01*
X19240713Y-46140771D02*
X19193094Y-45950295D01*
X19193094Y-45950295D02*
X19145475Y-45855057D01*
X19145475Y-45855057D02*
X19097856Y-45807438D01*
X19097856Y-45807438D02*
X19002618Y-45759819D01*
X21978809Y-82064580D02*
X22026428Y-82112200D01*
X22026428Y-82112200D02*
X22169285Y-82159819D01*
X22169285Y-82159819D02*
X22264523Y-82159819D01*
X22264523Y-82159819D02*
X22407380Y-82112200D01*
X22407380Y-82112200D02*
X22502618Y-82016961D01*
X22502618Y-82016961D02*
X22550237Y-81921723D01*
X22550237Y-81921723D02*
X22597856Y-81731247D01*
X22597856Y-81731247D02*
X22597856Y-81588390D01*
X22597856Y-81588390D02*
X22550237Y-81397914D01*
X22550237Y-81397914D02*
X22502618Y-81302676D01*
X22502618Y-81302676D02*
X22407380Y-81207438D01*
X22407380Y-81207438D02*
X22264523Y-81159819D01*
X22264523Y-81159819D02*
X22169285Y-81159819D01*
X22169285Y-81159819D02*
X22026428Y-81207438D01*
X22026428Y-81207438D02*
X21978809Y-81255057D01*
X21121666Y-81493152D02*
X21121666Y-82159819D01*
X21550237Y-81493152D02*
X21550237Y-82016961D01*
X21550237Y-82016961D02*
X21502618Y-82112200D01*
X21502618Y-82112200D02*
X21407380Y-82159819D01*
X21407380Y-82159819D02*
X21264523Y-82159819D01*
X21264523Y-82159819D02*
X21169285Y-82112200D01*
X21169285Y-82112200D02*
X21121666Y-82064580D01*
X20264523Y-82112200D02*
X20359761Y-82159819D01*
X20359761Y-82159819D02*
X20550237Y-82159819D01*
X20550237Y-82159819D02*
X20645475Y-82112200D01*
X20645475Y-82112200D02*
X20693094Y-82016961D01*
X20693094Y-82016961D02*
X20693094Y-81636009D01*
X20693094Y-81636009D02*
X20645475Y-81540771D01*
X20645475Y-81540771D02*
X20550237Y-81493152D01*
X20550237Y-81493152D02*
X20359761Y-81493152D01*
X20359761Y-81493152D02*
X20264523Y-81540771D01*
X20264523Y-81540771D02*
X20216904Y-81636009D01*
X20216904Y-81636009D02*
X20216904Y-81731247D01*
X20216904Y-81731247D02*
X20693094Y-81826485D01*
X19359761Y-81493152D02*
X19359761Y-82159819D01*
X19597856Y-81112200D02*
X19835951Y-81826485D01*
X19835951Y-81826485D02*
X19216904Y-81826485D01*
X18312142Y-82159819D02*
X18883570Y-82159819D01*
X18597856Y-82159819D02*
X18597856Y-81159819D01*
X18597856Y-81159819D02*
X18693094Y-81302676D01*
X18693094Y-81302676D02*
X18788332Y-81397914D01*
X18788332Y-81397914D02*
X18883570Y-81445533D01*
X29193094Y-75909819D02*
X29193094Y-74909819D01*
X29193094Y-74909819D02*
X28954999Y-74909819D01*
X28954999Y-74909819D02*
X28812142Y-74957438D01*
X28812142Y-74957438D02*
X28716904Y-75052676D01*
X28716904Y-75052676D02*
X28669285Y-75147914D01*
X28669285Y-75147914D02*
X28621666Y-75338390D01*
X28621666Y-75338390D02*
X28621666Y-75481247D01*
X28621666Y-75481247D02*
X28669285Y-75671723D01*
X28669285Y-75671723D02*
X28716904Y-75766961D01*
X28716904Y-75766961D02*
X28812142Y-75862200D01*
X28812142Y-75862200D02*
X28954999Y-75909819D01*
X28954999Y-75909819D02*
X29193094Y-75909819D01*
X28240713Y-75862200D02*
X28097856Y-75909819D01*
X28097856Y-75909819D02*
X27859761Y-75909819D01*
X27859761Y-75909819D02*
X27764523Y-75862200D01*
X27764523Y-75862200D02*
X27716904Y-75814580D01*
X27716904Y-75814580D02*
X27669285Y-75719342D01*
X27669285Y-75719342D02*
X27669285Y-75624104D01*
X27669285Y-75624104D02*
X27716904Y-75528866D01*
X27716904Y-75528866D02*
X27764523Y-75481247D01*
X27764523Y-75481247D02*
X27859761Y-75433628D01*
X27859761Y-75433628D02*
X28050237Y-75386009D01*
X28050237Y-75386009D02*
X28145475Y-75338390D01*
X28145475Y-75338390D02*
X28193094Y-75290771D01*
X28193094Y-75290771D02*
X28240713Y-75195533D01*
X28240713Y-75195533D02*
X28240713Y-75100295D01*
X28240713Y-75100295D02*
X28193094Y-75005057D01*
X28193094Y-75005057D02*
X28145475Y-74957438D01*
X28145475Y-74957438D02*
X28050237Y-74909819D01*
X28050237Y-74909819D02*
X27812142Y-74909819D01*
X27812142Y-74909819D02*
X27669285Y-74957438D01*
X27288332Y-75862200D02*
X27145475Y-75909819D01*
X27145475Y-75909819D02*
X26907380Y-75909819D01*
X26907380Y-75909819D02*
X26812142Y-75862200D01*
X26812142Y-75862200D02*
X26764523Y-75814580D01*
X26764523Y-75814580D02*
X26716904Y-75719342D01*
X26716904Y-75719342D02*
X26716904Y-75624104D01*
X26716904Y-75624104D02*
X26764523Y-75528866D01*
X26764523Y-75528866D02*
X26812142Y-75481247D01*
X26812142Y-75481247D02*
X26907380Y-75433628D01*
X26907380Y-75433628D02*
X27097856Y-75386009D01*
X27097856Y-75386009D02*
X27193094Y-75338390D01*
X27193094Y-75338390D02*
X27240713Y-75290771D01*
X27240713Y-75290771D02*
X27288332Y-75195533D01*
X27288332Y-75195533D02*
X27288332Y-75100295D01*
X27288332Y-75100295D02*
X27240713Y-75005057D01*
X27240713Y-75005057D02*
X27193094Y-74957438D01*
X27193094Y-74957438D02*
X27097856Y-74909819D01*
X27097856Y-74909819D02*
X26859761Y-74909819D01*
X26859761Y-74909819D02*
X26716904Y-74957438D01*
X26383570Y-74909819D02*
X26145475Y-75909819D01*
X26145475Y-75909819D02*
X25954999Y-75195533D01*
X25954999Y-75195533D02*
X25764523Y-75909819D01*
X25764523Y-75909819D02*
X25526428Y-74909819D01*
X24621666Y-75909819D02*
X25193094Y-75909819D01*
X24907380Y-75909819D02*
X24907380Y-74909819D01*
X24907380Y-74909819D02*
X25002618Y-75052676D01*
X25002618Y-75052676D02*
X25097856Y-75147914D01*
X25097856Y-75147914D02*
X25193094Y-75195533D01*
X23669285Y-75909819D02*
X24240713Y-75909819D01*
X23954999Y-75909819D02*
X23954999Y-74909819D01*
X23954999Y-74909819D02*
X24050237Y-75052676D01*
X24050237Y-75052676D02*
X24145475Y-75147914D01*
X24145475Y-75147914D02*
X24240713Y-75195533D01*
D10*
X59097580Y-66871666D02*
X59573771Y-67204999D01*
X59097580Y-67443094D02*
X60097580Y-67443094D01*
X60097580Y-67443094D02*
X60097580Y-67062142D01*
X60097580Y-67062142D02*
X60049961Y-66966904D01*
X60049961Y-66966904D02*
X60002342Y-66919285D01*
X60002342Y-66919285D02*
X59907104Y-66871666D01*
X59907104Y-66871666D02*
X59764247Y-66871666D01*
X59764247Y-66871666D02*
X59669009Y-66919285D01*
X59669009Y-66919285D02*
X59621390Y-66966904D01*
X59621390Y-66966904D02*
X59573771Y-67062142D01*
X59573771Y-67062142D02*
X59573771Y-67443094D01*
X60097580Y-66014523D02*
X60097580Y-66204999D01*
X60097580Y-66204999D02*
X60049961Y-66300237D01*
X60049961Y-66300237D02*
X60002342Y-66347856D01*
X60002342Y-66347856D02*
X59859485Y-66443094D01*
X59859485Y-66443094D02*
X59669009Y-66490713D01*
X59669009Y-66490713D02*
X59288057Y-66490713D01*
X59288057Y-66490713D02*
X59192819Y-66443094D01*
X59192819Y-66443094D02*
X59145200Y-66395475D01*
X59145200Y-66395475D02*
X59097580Y-66300237D01*
X59097580Y-66300237D02*
X59097580Y-66109761D01*
X59097580Y-66109761D02*
X59145200Y-66014523D01*
X59145200Y-66014523D02*
X59192819Y-65966904D01*
X59192819Y-65966904D02*
X59288057Y-65919285D01*
X59288057Y-65919285D02*
X59526152Y-65919285D01*
X59526152Y-65919285D02*
X59621390Y-65966904D01*
X59621390Y-65966904D02*
X59669009Y-66014523D01*
X59669009Y-66014523D02*
X59716628Y-66109761D01*
X59716628Y-66109761D02*
X59716628Y-66300237D01*
X59716628Y-66300237D02*
X59669009Y-66395475D01*
X59669009Y-66395475D02*
X59621390Y-66443094D01*
X59621390Y-66443094D02*
X59526152Y-66490713D01*
X126288333Y-11742419D02*
X126288333Y-12456704D01*
X126288333Y-12456704D02*
X126335952Y-12599561D01*
X126335952Y-12599561D02*
X126431190Y-12694800D01*
X126431190Y-12694800D02*
X126574047Y-12742419D01*
X126574047Y-12742419D02*
X126669285Y-12742419D01*
X125859761Y-11837657D02*
X125812142Y-11790038D01*
X125812142Y-11790038D02*
X125716904Y-11742419D01*
X125716904Y-11742419D02*
X125478809Y-11742419D01*
X125478809Y-11742419D02*
X125383571Y-11790038D01*
X125383571Y-11790038D02*
X125335952Y-11837657D01*
X125335952Y-11837657D02*
X125288333Y-11932895D01*
X125288333Y-11932895D02*
X125288333Y-12028133D01*
X125288333Y-12028133D02*
X125335952Y-12170990D01*
X125335952Y-12170990D02*
X125907380Y-12742419D01*
X125907380Y-12742419D02*
X125288333Y-12742419D01*
X122145476Y-18157419D02*
X122716904Y-18157419D01*
X122431190Y-18157419D02*
X122431190Y-17157419D01*
X122431190Y-17157419D02*
X122526428Y-17300276D01*
X122526428Y-17300276D02*
X122621666Y-17395514D01*
X122621666Y-17395514D02*
X122716904Y-17443133D01*
X121764523Y-18109800D02*
X121621666Y-18157419D01*
X121621666Y-18157419D02*
X121383571Y-18157419D01*
X121383571Y-18157419D02*
X121288333Y-18109800D01*
X121288333Y-18109800D02*
X121240714Y-18062180D01*
X121240714Y-18062180D02*
X121193095Y-17966942D01*
X121193095Y-17966942D02*
X121193095Y-17871704D01*
X121193095Y-17871704D02*
X121240714Y-17776466D01*
X121240714Y-17776466D02*
X121288333Y-17728847D01*
X121288333Y-17728847D02*
X121383571Y-17681228D01*
X121383571Y-17681228D02*
X121574047Y-17633609D01*
X121574047Y-17633609D02*
X121669285Y-17585990D01*
X121669285Y-17585990D02*
X121716904Y-17538371D01*
X121716904Y-17538371D02*
X121764523Y-17443133D01*
X121764523Y-17443133D02*
X121764523Y-17347895D01*
X121764523Y-17347895D02*
X121716904Y-17252657D01*
X121716904Y-17252657D02*
X121669285Y-17205038D01*
X121669285Y-17205038D02*
X121574047Y-17157419D01*
X121574047Y-17157419D02*
X121335952Y-17157419D01*
X121335952Y-17157419D02*
X121193095Y-17205038D01*
X126788332Y-17157419D02*
X126169285Y-17157419D01*
X126169285Y-17157419D02*
X126502618Y-17538371D01*
X126502618Y-17538371D02*
X126359761Y-17538371D01*
X126359761Y-17538371D02*
X126264523Y-17585990D01*
X126264523Y-17585990D02*
X126216904Y-17633609D01*
X126216904Y-17633609D02*
X126169285Y-17728847D01*
X126169285Y-17728847D02*
X126169285Y-17966942D01*
X126169285Y-17966942D02*
X126216904Y-18062180D01*
X126216904Y-18062180D02*
X126264523Y-18109800D01*
X126264523Y-18109800D02*
X126359761Y-18157419D01*
X126359761Y-18157419D02*
X126645475Y-18157419D01*
X126645475Y-18157419D02*
X126740713Y-18109800D01*
X126740713Y-18109800D02*
X126788332Y-18062180D01*
X125169285Y-18157419D02*
X125502618Y-17681228D01*
X125740713Y-18157419D02*
X125740713Y-17157419D01*
X125740713Y-17157419D02*
X125359761Y-17157419D01*
X125359761Y-17157419D02*
X125264523Y-17205038D01*
X125264523Y-17205038D02*
X125216904Y-17252657D01*
X125216904Y-17252657D02*
X125169285Y-17347895D01*
X125169285Y-17347895D02*
X125169285Y-17490752D01*
X125169285Y-17490752D02*
X125216904Y-17585990D01*
X125216904Y-17585990D02*
X125264523Y-17633609D01*
X125264523Y-17633609D02*
X125359761Y-17681228D01*
X125359761Y-17681228D02*
X125740713Y-17681228D01*
X130621666Y-17252657D02*
X130574047Y-17205038D01*
X130574047Y-17205038D02*
X130478809Y-17157419D01*
X130478809Y-17157419D02*
X130240714Y-17157419D01*
X130240714Y-17157419D02*
X130145476Y-17205038D01*
X130145476Y-17205038D02*
X130097857Y-17252657D01*
X130097857Y-17252657D02*
X130050238Y-17347895D01*
X130050238Y-17347895D02*
X130050238Y-17443133D01*
X130050238Y-17443133D02*
X130097857Y-17585990D01*
X130097857Y-17585990D02*
X130669285Y-18157419D01*
X130669285Y-18157419D02*
X130050238Y-18157419D01*
X129764523Y-17157419D02*
X129193095Y-17157419D01*
X129478809Y-18157419D02*
X129478809Y-17157419D01*
D11*
X23431190Y-57409819D02*
X23907380Y-57409819D01*
X23907380Y-57409819D02*
X23907380Y-56409819D01*
X23097856Y-57409819D02*
X23097856Y-56743152D01*
X23097856Y-56409819D02*
X23145475Y-56457438D01*
X23145475Y-56457438D02*
X23097856Y-56505057D01*
X23097856Y-56505057D02*
X23050237Y-56457438D01*
X23050237Y-56457438D02*
X23097856Y-56409819D01*
X23097856Y-56409819D02*
X23097856Y-56505057D01*
X22193095Y-56743152D02*
X22193095Y-57552676D01*
X22193095Y-57552676D02*
X22240714Y-57647914D01*
X22240714Y-57647914D02*
X22288333Y-57695533D01*
X22288333Y-57695533D02*
X22383571Y-57743152D01*
X22383571Y-57743152D02*
X22526428Y-57743152D01*
X22526428Y-57743152D02*
X22621666Y-57695533D01*
X22193095Y-57362200D02*
X22288333Y-57409819D01*
X22288333Y-57409819D02*
X22478809Y-57409819D01*
X22478809Y-57409819D02*
X22574047Y-57362200D01*
X22574047Y-57362200D02*
X22621666Y-57314580D01*
X22621666Y-57314580D02*
X22669285Y-57219342D01*
X22669285Y-57219342D02*
X22669285Y-56933628D01*
X22669285Y-56933628D02*
X22621666Y-56838390D01*
X22621666Y-56838390D02*
X22574047Y-56790771D01*
X22574047Y-56790771D02*
X22478809Y-56743152D01*
X22478809Y-56743152D02*
X22288333Y-56743152D01*
X22288333Y-56743152D02*
X22193095Y-56790771D01*
X21716904Y-57409819D02*
X21716904Y-56409819D01*
X21288333Y-57409819D02*
X21288333Y-56886009D01*
X21288333Y-56886009D02*
X21335952Y-56790771D01*
X21335952Y-56790771D02*
X21431190Y-56743152D01*
X21431190Y-56743152D02*
X21574047Y-56743152D01*
X21574047Y-56743152D02*
X21669285Y-56790771D01*
X21669285Y-56790771D02*
X21716904Y-56838390D01*
X20954999Y-56743152D02*
X20574047Y-56743152D01*
X20812142Y-56409819D02*
X20812142Y-57266961D01*
X20812142Y-57266961D02*
X20764523Y-57362200D01*
X20764523Y-57362200D02*
X20669285Y-57409819D01*
X20669285Y-57409819D02*
X20574047Y-57409819D01*
X20288332Y-57362200D02*
X20193094Y-57409819D01*
X20193094Y-57409819D02*
X20002618Y-57409819D01*
X20002618Y-57409819D02*
X19907380Y-57362200D01*
X19907380Y-57362200D02*
X19859761Y-57266961D01*
X19859761Y-57266961D02*
X19859761Y-57219342D01*
X19859761Y-57219342D02*
X19907380Y-57124104D01*
X19907380Y-57124104D02*
X20002618Y-57076485D01*
X20002618Y-57076485D02*
X20145475Y-57076485D01*
X20145475Y-57076485D02*
X20240713Y-57028866D01*
X20240713Y-57028866D02*
X20288332Y-56933628D01*
X20288332Y-56933628D02*
X20288332Y-56886009D01*
X20288332Y-56886009D02*
X20240713Y-56790771D01*
X20240713Y-56790771D02*
X20145475Y-56743152D01*
X20145475Y-56743152D02*
X20002618Y-56743152D01*
X20002618Y-56743152D02*
X19907380Y-56790771D01*
X19478808Y-56505057D02*
X19431189Y-56457438D01*
X19431189Y-56457438D02*
X19335951Y-56409819D01*
X19335951Y-56409819D02*
X19097856Y-56409819D01*
X19097856Y-56409819D02*
X19002618Y-56457438D01*
X19002618Y-56457438D02*
X18954999Y-56505057D01*
X18954999Y-56505057D02*
X18907380Y-56600295D01*
X18907380Y-56600295D02*
X18907380Y-56695533D01*
X18907380Y-56695533D02*
X18954999Y-56838390D01*
X18954999Y-56838390D02*
X19526427Y-57409819D01*
X19526427Y-57409819D02*
X18907380Y-57409819D01*
X17954999Y-57409819D02*
X18526427Y-57409819D01*
X18240713Y-57409819D02*
X18240713Y-56409819D01*
X18240713Y-56409819D02*
X18335951Y-56552676D01*
X18335951Y-56552676D02*
X18431189Y-56647914D01*
X18431189Y-56647914D02*
X18526427Y-56695533D01*
D10*
X78788333Y-11392419D02*
X78788333Y-12106704D01*
X78788333Y-12106704D02*
X78835952Y-12249561D01*
X78835952Y-12249561D02*
X78931190Y-12344800D01*
X78931190Y-12344800D02*
X79074047Y-12392419D01*
X79074047Y-12392419D02*
X79169285Y-12392419D01*
X78169285Y-11820990D02*
X78264523Y-11773371D01*
X78264523Y-11773371D02*
X78312142Y-11725752D01*
X78312142Y-11725752D02*
X78359761Y-11630514D01*
X78359761Y-11630514D02*
X78359761Y-11582895D01*
X78359761Y-11582895D02*
X78312142Y-11487657D01*
X78312142Y-11487657D02*
X78264523Y-11440038D01*
X78264523Y-11440038D02*
X78169285Y-11392419D01*
X78169285Y-11392419D02*
X77978809Y-11392419D01*
X77978809Y-11392419D02*
X77883571Y-11440038D01*
X77883571Y-11440038D02*
X77835952Y-11487657D01*
X77835952Y-11487657D02*
X77788333Y-11582895D01*
X77788333Y-11582895D02*
X77788333Y-11630514D01*
X77788333Y-11630514D02*
X77835952Y-11725752D01*
X77835952Y-11725752D02*
X77883571Y-11773371D01*
X77883571Y-11773371D02*
X77978809Y-11820990D01*
X77978809Y-11820990D02*
X78169285Y-11820990D01*
X78169285Y-11820990D02*
X78264523Y-11868609D01*
X78264523Y-11868609D02*
X78312142Y-11916228D01*
X78312142Y-11916228D02*
X78359761Y-12011466D01*
X78359761Y-12011466D02*
X78359761Y-12201942D01*
X78359761Y-12201942D02*
X78312142Y-12297180D01*
X78312142Y-12297180D02*
X78264523Y-12344800D01*
X78264523Y-12344800D02*
X78169285Y-12392419D01*
X78169285Y-12392419D02*
X77978809Y-12392419D01*
X77978809Y-12392419D02*
X77883571Y-12344800D01*
X77883571Y-12344800D02*
X77835952Y-12297180D01*
X77835952Y-12297180D02*
X77788333Y-12201942D01*
X77788333Y-12201942D02*
X77788333Y-12011466D01*
X77788333Y-12011466D02*
X77835952Y-11916228D01*
X77835952Y-11916228D02*
X77883571Y-11868609D01*
X77883571Y-11868609D02*
X77978809Y-11820990D01*
X74645476Y-17807419D02*
X75216904Y-17807419D01*
X74931190Y-17807419D02*
X74931190Y-16807419D01*
X74931190Y-16807419D02*
X75026428Y-16950276D01*
X75026428Y-16950276D02*
X75121666Y-17045514D01*
X75121666Y-17045514D02*
X75216904Y-17093133D01*
X74264523Y-17759800D02*
X74121666Y-17807419D01*
X74121666Y-17807419D02*
X73883571Y-17807419D01*
X73883571Y-17807419D02*
X73788333Y-17759800D01*
X73788333Y-17759800D02*
X73740714Y-17712180D01*
X73740714Y-17712180D02*
X73693095Y-17616942D01*
X73693095Y-17616942D02*
X73693095Y-17521704D01*
X73693095Y-17521704D02*
X73740714Y-17426466D01*
X73740714Y-17426466D02*
X73788333Y-17378847D01*
X73788333Y-17378847D02*
X73883571Y-17331228D01*
X73883571Y-17331228D02*
X74074047Y-17283609D01*
X74074047Y-17283609D02*
X74169285Y-17235990D01*
X74169285Y-17235990D02*
X74216904Y-17188371D01*
X74216904Y-17188371D02*
X74264523Y-17093133D01*
X74264523Y-17093133D02*
X74264523Y-16997895D01*
X74264523Y-16997895D02*
X74216904Y-16902657D01*
X74216904Y-16902657D02*
X74169285Y-16855038D01*
X74169285Y-16855038D02*
X74074047Y-16807419D01*
X74074047Y-16807419D02*
X73835952Y-16807419D01*
X73835952Y-16807419D02*
X73693095Y-16855038D01*
X79288332Y-16807419D02*
X78669285Y-16807419D01*
X78669285Y-16807419D02*
X79002618Y-17188371D01*
X79002618Y-17188371D02*
X78859761Y-17188371D01*
X78859761Y-17188371D02*
X78764523Y-17235990D01*
X78764523Y-17235990D02*
X78716904Y-17283609D01*
X78716904Y-17283609D02*
X78669285Y-17378847D01*
X78669285Y-17378847D02*
X78669285Y-17616942D01*
X78669285Y-17616942D02*
X78716904Y-17712180D01*
X78716904Y-17712180D02*
X78764523Y-17759800D01*
X78764523Y-17759800D02*
X78859761Y-17807419D01*
X78859761Y-17807419D02*
X79145475Y-17807419D01*
X79145475Y-17807419D02*
X79240713Y-17759800D01*
X79240713Y-17759800D02*
X79288332Y-17712180D01*
X77669285Y-17807419D02*
X78002618Y-17331228D01*
X78240713Y-17807419D02*
X78240713Y-16807419D01*
X78240713Y-16807419D02*
X77859761Y-16807419D01*
X77859761Y-16807419D02*
X77764523Y-16855038D01*
X77764523Y-16855038D02*
X77716904Y-16902657D01*
X77716904Y-16902657D02*
X77669285Y-16997895D01*
X77669285Y-16997895D02*
X77669285Y-17140752D01*
X77669285Y-17140752D02*
X77716904Y-17235990D01*
X77716904Y-17235990D02*
X77764523Y-17283609D01*
X77764523Y-17283609D02*
X77859761Y-17331228D01*
X77859761Y-17331228D02*
X78240713Y-17331228D01*
X83121666Y-16902657D02*
X83074047Y-16855038D01*
X83074047Y-16855038D02*
X82978809Y-16807419D01*
X82978809Y-16807419D02*
X82740714Y-16807419D01*
X82740714Y-16807419D02*
X82645476Y-16855038D01*
X82645476Y-16855038D02*
X82597857Y-16902657D01*
X82597857Y-16902657D02*
X82550238Y-16997895D01*
X82550238Y-16997895D02*
X82550238Y-17093133D01*
X82550238Y-17093133D02*
X82597857Y-17235990D01*
X82597857Y-17235990D02*
X83169285Y-17807419D01*
X83169285Y-17807419D02*
X82550238Y-17807419D01*
X82264523Y-16807419D02*
X81693095Y-16807419D01*
X81978809Y-17807419D02*
X81978809Y-16807419D01*
D11*
X24659819Y-85359761D02*
X24183628Y-85026428D01*
X24659819Y-84788333D02*
X23659819Y-84788333D01*
X23659819Y-84788333D02*
X23659819Y-85169285D01*
X23659819Y-85169285D02*
X23707438Y-85264523D01*
X23707438Y-85264523D02*
X23755057Y-85312142D01*
X23755057Y-85312142D02*
X23850295Y-85359761D01*
X23850295Y-85359761D02*
X23993152Y-85359761D01*
X23993152Y-85359761D02*
X24088390Y-85312142D01*
X24088390Y-85312142D02*
X24136009Y-85264523D01*
X24136009Y-85264523D02*
X24183628Y-85169285D01*
X24183628Y-85169285D02*
X24183628Y-84788333D01*
X24136009Y-85788333D02*
X24136009Y-86121666D01*
X24659819Y-86264523D02*
X24659819Y-85788333D01*
X24659819Y-85788333D02*
X23659819Y-85788333D01*
X23659819Y-85788333D02*
X23659819Y-86264523D01*
X24136009Y-87026428D02*
X24183628Y-87169285D01*
X24183628Y-87169285D02*
X24231247Y-87216904D01*
X24231247Y-87216904D02*
X24326485Y-87264523D01*
X24326485Y-87264523D02*
X24469342Y-87264523D01*
X24469342Y-87264523D02*
X24564580Y-87216904D01*
X24564580Y-87216904D02*
X24612200Y-87169285D01*
X24612200Y-87169285D02*
X24659819Y-87074047D01*
X24659819Y-87074047D02*
X24659819Y-86693095D01*
X24659819Y-86693095D02*
X23659819Y-86693095D01*
X23659819Y-86693095D02*
X23659819Y-87026428D01*
X23659819Y-87026428D02*
X23707438Y-87121666D01*
X23707438Y-87121666D02*
X23755057Y-87169285D01*
X23755057Y-87169285D02*
X23850295Y-87216904D01*
X23850295Y-87216904D02*
X23945533Y-87216904D01*
X23945533Y-87216904D02*
X24040771Y-87169285D01*
X24040771Y-87169285D02*
X24088390Y-87121666D01*
X24088390Y-87121666D02*
X24136009Y-87026428D01*
X24136009Y-87026428D02*
X24136009Y-86693095D01*
X23755057Y-87645476D02*
X23707438Y-87693095D01*
X23707438Y-87693095D02*
X23659819Y-87788333D01*
X23659819Y-87788333D02*
X23659819Y-88026428D01*
X23659819Y-88026428D02*
X23707438Y-88121666D01*
X23707438Y-88121666D02*
X23755057Y-88169285D01*
X23755057Y-88169285D02*
X23850295Y-88216904D01*
X23850295Y-88216904D02*
X23945533Y-88216904D01*
X23945533Y-88216904D02*
X24088390Y-88169285D01*
X24088390Y-88169285D02*
X24659819Y-87597857D01*
X24659819Y-87597857D02*
X24659819Y-88216904D01*
X23755057Y-88597857D02*
X23707438Y-88645476D01*
X23707438Y-88645476D02*
X23659819Y-88740714D01*
X23659819Y-88740714D02*
X23659819Y-88978809D01*
X23659819Y-88978809D02*
X23707438Y-89074047D01*
X23707438Y-89074047D02*
X23755057Y-89121666D01*
X23755057Y-89121666D02*
X23850295Y-89169285D01*
X23850295Y-89169285D02*
X23945533Y-89169285D01*
X23945533Y-89169285D02*
X24088390Y-89121666D01*
X24088390Y-89121666D02*
X24659819Y-88550238D01*
X24659819Y-88550238D02*
X24659819Y-89169285D01*
X26778339Y-61379104D02*
X26302149Y-61379104D01*
X26873577Y-61664819D02*
X26540244Y-60664819D01*
X26540244Y-60664819D02*
X26206911Y-61664819D01*
X25349768Y-61664819D02*
X25921196Y-61664819D01*
X25635482Y-61664819D02*
X25635482Y-60664819D01*
X25635482Y-60664819D02*
X25730720Y-60807676D01*
X25730720Y-60807676D02*
X25825958Y-60902914D01*
X25825958Y-60902914D02*
X25921196Y-60950533D01*
D10*
X126863095Y-31327580D02*
X127434523Y-31327580D01*
X127148809Y-30327580D02*
X127148809Y-31327580D01*
X128339285Y-30327580D02*
X128005952Y-30803771D01*
X127767857Y-30327580D02*
X127767857Y-31327580D01*
X127767857Y-31327580D02*
X128148809Y-31327580D01*
X128148809Y-31327580D02*
X128244047Y-31279961D01*
X128244047Y-31279961D02*
X128291666Y-31232342D01*
X128291666Y-31232342D02*
X128339285Y-31137104D01*
X128339285Y-31137104D02*
X128339285Y-30994247D01*
X128339285Y-30994247D02*
X128291666Y-30899009D01*
X128291666Y-30899009D02*
X128244047Y-30851390D01*
X128244047Y-30851390D02*
X128148809Y-30803771D01*
X128148809Y-30803771D02*
X127767857Y-30803771D01*
X128720238Y-31232342D02*
X128767857Y-31279961D01*
X128767857Y-31279961D02*
X128863095Y-31327580D01*
X128863095Y-31327580D02*
X129101190Y-31327580D01*
X129101190Y-31327580D02*
X129196428Y-31279961D01*
X129196428Y-31279961D02*
X129244047Y-31232342D01*
X129244047Y-31232342D02*
X129291666Y-31137104D01*
X129291666Y-31137104D02*
X129291666Y-31041866D01*
X129291666Y-31041866D02*
X129244047Y-30899009D01*
X129244047Y-30899009D02*
X128672619Y-30327580D01*
X128672619Y-30327580D02*
X129291666Y-30327580D01*
X67264523Y-11392419D02*
X67264523Y-12106704D01*
X67264523Y-12106704D02*
X67312142Y-12249561D01*
X67312142Y-12249561D02*
X67407380Y-12344800D01*
X67407380Y-12344800D02*
X67550237Y-12392419D01*
X67550237Y-12392419D02*
X67645475Y-12392419D01*
X66264523Y-12392419D02*
X66835951Y-12392419D01*
X66550237Y-12392419D02*
X66550237Y-11392419D01*
X66550237Y-11392419D02*
X66645475Y-11535276D01*
X66645475Y-11535276D02*
X66740713Y-11630514D01*
X66740713Y-11630514D02*
X66835951Y-11678133D01*
X65645475Y-11392419D02*
X65550237Y-11392419D01*
X65550237Y-11392419D02*
X65454999Y-11440038D01*
X65454999Y-11440038D02*
X65407380Y-11487657D01*
X65407380Y-11487657D02*
X65359761Y-11582895D01*
X65359761Y-11582895D02*
X65312142Y-11773371D01*
X65312142Y-11773371D02*
X65312142Y-12011466D01*
X65312142Y-12011466D02*
X65359761Y-12201942D01*
X65359761Y-12201942D02*
X65407380Y-12297180D01*
X65407380Y-12297180D02*
X65454999Y-12344800D01*
X65454999Y-12344800D02*
X65550237Y-12392419D01*
X65550237Y-12392419D02*
X65645475Y-12392419D01*
X65645475Y-12392419D02*
X65740713Y-12344800D01*
X65740713Y-12344800D02*
X65788332Y-12297180D01*
X65788332Y-12297180D02*
X65835951Y-12201942D01*
X65835951Y-12201942D02*
X65883570Y-12011466D01*
X65883570Y-12011466D02*
X65883570Y-11773371D01*
X65883570Y-11773371D02*
X65835951Y-11582895D01*
X65835951Y-11582895D02*
X65788332Y-11487657D01*
X65788332Y-11487657D02*
X65740713Y-11440038D01*
X65740713Y-11440038D02*
X65645475Y-11392419D01*
X62645476Y-17807419D02*
X63216904Y-17807419D01*
X62931190Y-17807419D02*
X62931190Y-16807419D01*
X62931190Y-16807419D02*
X63026428Y-16950276D01*
X63026428Y-16950276D02*
X63121666Y-17045514D01*
X63121666Y-17045514D02*
X63216904Y-17093133D01*
X62264523Y-17759800D02*
X62121666Y-17807419D01*
X62121666Y-17807419D02*
X61883571Y-17807419D01*
X61883571Y-17807419D02*
X61788333Y-17759800D01*
X61788333Y-17759800D02*
X61740714Y-17712180D01*
X61740714Y-17712180D02*
X61693095Y-17616942D01*
X61693095Y-17616942D02*
X61693095Y-17521704D01*
X61693095Y-17521704D02*
X61740714Y-17426466D01*
X61740714Y-17426466D02*
X61788333Y-17378847D01*
X61788333Y-17378847D02*
X61883571Y-17331228D01*
X61883571Y-17331228D02*
X62074047Y-17283609D01*
X62074047Y-17283609D02*
X62169285Y-17235990D01*
X62169285Y-17235990D02*
X62216904Y-17188371D01*
X62216904Y-17188371D02*
X62264523Y-17093133D01*
X62264523Y-17093133D02*
X62264523Y-16997895D01*
X62264523Y-16997895D02*
X62216904Y-16902657D01*
X62216904Y-16902657D02*
X62169285Y-16855038D01*
X62169285Y-16855038D02*
X62074047Y-16807419D01*
X62074047Y-16807419D02*
X61835952Y-16807419D01*
X61835952Y-16807419D02*
X61693095Y-16855038D01*
X67288332Y-16807419D02*
X66669285Y-16807419D01*
X66669285Y-16807419D02*
X67002618Y-17188371D01*
X67002618Y-17188371D02*
X66859761Y-17188371D01*
X66859761Y-17188371D02*
X66764523Y-17235990D01*
X66764523Y-17235990D02*
X66716904Y-17283609D01*
X66716904Y-17283609D02*
X66669285Y-17378847D01*
X66669285Y-17378847D02*
X66669285Y-17616942D01*
X66669285Y-17616942D02*
X66716904Y-17712180D01*
X66716904Y-17712180D02*
X66764523Y-17759800D01*
X66764523Y-17759800D02*
X66859761Y-17807419D01*
X66859761Y-17807419D02*
X67145475Y-17807419D01*
X67145475Y-17807419D02*
X67240713Y-17759800D01*
X67240713Y-17759800D02*
X67288332Y-17712180D01*
X65669285Y-17807419D02*
X66002618Y-17331228D01*
X66240713Y-17807419D02*
X66240713Y-16807419D01*
X66240713Y-16807419D02*
X65859761Y-16807419D01*
X65859761Y-16807419D02*
X65764523Y-16855038D01*
X65764523Y-16855038D02*
X65716904Y-16902657D01*
X65716904Y-16902657D02*
X65669285Y-16997895D01*
X65669285Y-16997895D02*
X65669285Y-17140752D01*
X65669285Y-17140752D02*
X65716904Y-17235990D01*
X65716904Y-17235990D02*
X65764523Y-17283609D01*
X65764523Y-17283609D02*
X65859761Y-17331228D01*
X65859761Y-17331228D02*
X66240713Y-17331228D01*
X71121666Y-16902657D02*
X71074047Y-16855038D01*
X71074047Y-16855038D02*
X70978809Y-16807419D01*
X70978809Y-16807419D02*
X70740714Y-16807419D01*
X70740714Y-16807419D02*
X70645476Y-16855038D01*
X70645476Y-16855038D02*
X70597857Y-16902657D01*
X70597857Y-16902657D02*
X70550238Y-16997895D01*
X70550238Y-16997895D02*
X70550238Y-17093133D01*
X70550238Y-17093133D02*
X70597857Y-17235990D01*
X70597857Y-17235990D02*
X71169285Y-17807419D01*
X71169285Y-17807419D02*
X70550238Y-17807419D01*
X70264523Y-16807419D02*
X69693095Y-16807419D01*
X69978809Y-17807419D02*
X69978809Y-16807419D01*
D11*
X22228809Y-69814580D02*
X22276428Y-69862200D01*
X22276428Y-69862200D02*
X22419285Y-69909819D01*
X22419285Y-69909819D02*
X22514523Y-69909819D01*
X22514523Y-69909819D02*
X22657380Y-69862200D01*
X22657380Y-69862200D02*
X22752618Y-69766961D01*
X22752618Y-69766961D02*
X22800237Y-69671723D01*
X22800237Y-69671723D02*
X22847856Y-69481247D01*
X22847856Y-69481247D02*
X22847856Y-69338390D01*
X22847856Y-69338390D02*
X22800237Y-69147914D01*
X22800237Y-69147914D02*
X22752618Y-69052676D01*
X22752618Y-69052676D02*
X22657380Y-68957438D01*
X22657380Y-68957438D02*
X22514523Y-68909819D01*
X22514523Y-68909819D02*
X22419285Y-68909819D01*
X22419285Y-68909819D02*
X22276428Y-68957438D01*
X22276428Y-68957438D02*
X22228809Y-69005057D01*
X21371666Y-69243152D02*
X21371666Y-69909819D01*
X21800237Y-69243152D02*
X21800237Y-69766961D01*
X21800237Y-69766961D02*
X21752618Y-69862200D01*
X21752618Y-69862200D02*
X21657380Y-69909819D01*
X21657380Y-69909819D02*
X21514523Y-69909819D01*
X21514523Y-69909819D02*
X21419285Y-69862200D01*
X21419285Y-69862200D02*
X21371666Y-69814580D01*
X20514523Y-69862200D02*
X20609761Y-69909819D01*
X20609761Y-69909819D02*
X20800237Y-69909819D01*
X20800237Y-69909819D02*
X20895475Y-69862200D01*
X20895475Y-69862200D02*
X20943094Y-69766961D01*
X20943094Y-69766961D02*
X20943094Y-69386009D01*
X20943094Y-69386009D02*
X20895475Y-69290771D01*
X20895475Y-69290771D02*
X20800237Y-69243152D01*
X20800237Y-69243152D02*
X20609761Y-69243152D01*
X20609761Y-69243152D02*
X20514523Y-69290771D01*
X20514523Y-69290771D02*
X20466904Y-69386009D01*
X20466904Y-69386009D02*
X20466904Y-69481247D01*
X20466904Y-69481247D02*
X20943094Y-69576485D01*
X19514523Y-69909819D02*
X20085951Y-69909819D01*
X19800237Y-69909819D02*
X19800237Y-68909819D01*
X19800237Y-68909819D02*
X19895475Y-69052676D01*
X19895475Y-69052676D02*
X19990713Y-69147914D01*
X19990713Y-69147914D02*
X20085951Y-69195533D01*
X18562142Y-69909819D02*
X19133570Y-69909819D01*
X18847856Y-69909819D02*
X18847856Y-68909819D01*
X18847856Y-68909819D02*
X18943094Y-69052676D01*
X18943094Y-69052676D02*
X19038332Y-69147914D01*
X19038332Y-69147914D02*
X19133570Y-69195533D01*
D10*
X63747580Y-66871666D02*
X64223771Y-67204999D01*
X63747580Y-67443094D02*
X64747580Y-67443094D01*
X64747580Y-67443094D02*
X64747580Y-67062142D01*
X64747580Y-67062142D02*
X64699961Y-66966904D01*
X64699961Y-66966904D02*
X64652342Y-66919285D01*
X64652342Y-66919285D02*
X64557104Y-66871666D01*
X64557104Y-66871666D02*
X64414247Y-66871666D01*
X64414247Y-66871666D02*
X64319009Y-66919285D01*
X64319009Y-66919285D02*
X64271390Y-66966904D01*
X64271390Y-66966904D02*
X64223771Y-67062142D01*
X64223771Y-67062142D02*
X64223771Y-67443094D01*
X64747580Y-65966904D02*
X64747580Y-66443094D01*
X64747580Y-66443094D02*
X64271390Y-66490713D01*
X64271390Y-66490713D02*
X64319009Y-66443094D01*
X64319009Y-66443094D02*
X64366628Y-66347856D01*
X64366628Y-66347856D02*
X64366628Y-66109761D01*
X64366628Y-66109761D02*
X64319009Y-66014523D01*
X64319009Y-66014523D02*
X64271390Y-65966904D01*
X64271390Y-65966904D02*
X64176152Y-65919285D01*
X64176152Y-65919285D02*
X63938057Y-65919285D01*
X63938057Y-65919285D02*
X63842819Y-65966904D01*
X63842819Y-65966904D02*
X63795200Y-66014523D01*
X63795200Y-66014523D02*
X63747580Y-66109761D01*
X63747580Y-66109761D02*
X63747580Y-66347856D01*
X63747580Y-66347856D02*
X63795200Y-66443094D01*
X63795200Y-66443094D02*
X63842819Y-66490713D01*
D11*
X23157380Y-17509819D02*
X22538333Y-17509819D01*
X22538333Y-17509819D02*
X22871666Y-17890771D01*
X22871666Y-17890771D02*
X22728809Y-17890771D01*
X22728809Y-17890771D02*
X22633571Y-17938390D01*
X22633571Y-17938390D02*
X22585952Y-17986009D01*
X22585952Y-17986009D02*
X22538333Y-18081247D01*
X22538333Y-18081247D02*
X22538333Y-18319342D01*
X22538333Y-18319342D02*
X22585952Y-18414580D01*
X22585952Y-18414580D02*
X22633571Y-18462200D01*
X22633571Y-18462200D02*
X22728809Y-18509819D01*
X22728809Y-18509819D02*
X23014523Y-18509819D01*
X23014523Y-18509819D02*
X23109761Y-18462200D01*
X23109761Y-18462200D02*
X23157380Y-18414580D01*
X22109761Y-18414580D02*
X22062142Y-18462200D01*
X22062142Y-18462200D02*
X22109761Y-18509819D01*
X22109761Y-18509819D02*
X22157380Y-18462200D01*
X22157380Y-18462200D02*
X22109761Y-18414580D01*
X22109761Y-18414580D02*
X22109761Y-18509819D01*
X21728809Y-17509819D02*
X21109762Y-17509819D01*
X21109762Y-17509819D02*
X21443095Y-17890771D01*
X21443095Y-17890771D02*
X21300238Y-17890771D01*
X21300238Y-17890771D02*
X21205000Y-17938390D01*
X21205000Y-17938390D02*
X21157381Y-17986009D01*
X21157381Y-17986009D02*
X21109762Y-18081247D01*
X21109762Y-18081247D02*
X21109762Y-18319342D01*
X21109762Y-18319342D02*
X21157381Y-18414580D01*
X21157381Y-18414580D02*
X21205000Y-18462200D01*
X21205000Y-18462200D02*
X21300238Y-18509819D01*
X21300238Y-18509819D02*
X21585952Y-18509819D01*
X21585952Y-18509819D02*
X21681190Y-18462200D01*
X21681190Y-18462200D02*
X21728809Y-18414580D01*
X20824047Y-17509819D02*
X20490714Y-18509819D01*
X20490714Y-18509819D02*
X20157381Y-17509819D01*
X19919285Y-17509819D02*
X19300238Y-17509819D01*
X19300238Y-17509819D02*
X19633571Y-17890771D01*
X19633571Y-17890771D02*
X19490714Y-17890771D01*
X19490714Y-17890771D02*
X19395476Y-17938390D01*
X19395476Y-17938390D02*
X19347857Y-17986009D01*
X19347857Y-17986009D02*
X19300238Y-18081247D01*
X19300238Y-18081247D02*
X19300238Y-18319342D01*
X19300238Y-18319342D02*
X19347857Y-18414580D01*
X19347857Y-18414580D02*
X19395476Y-18462200D01*
X19395476Y-18462200D02*
X19490714Y-18509819D01*
X19490714Y-18509819D02*
X19776428Y-18509819D01*
X19776428Y-18509819D02*
X19871666Y-18462200D01*
X19871666Y-18462200D02*
X19919285Y-18414580D01*
X52612200Y-11314524D02*
X52659819Y-11457381D01*
X52659819Y-11457381D02*
X52659819Y-11695476D01*
X52659819Y-11695476D02*
X52612200Y-11790714D01*
X52612200Y-11790714D02*
X52564580Y-11838333D01*
X52564580Y-11838333D02*
X52469342Y-11885952D01*
X52469342Y-11885952D02*
X52374104Y-11885952D01*
X52374104Y-11885952D02*
X52278866Y-11838333D01*
X52278866Y-11838333D02*
X52231247Y-11790714D01*
X52231247Y-11790714D02*
X52183628Y-11695476D01*
X52183628Y-11695476D02*
X52136009Y-11505000D01*
X52136009Y-11505000D02*
X52088390Y-11409762D01*
X52088390Y-11409762D02*
X52040771Y-11362143D01*
X52040771Y-11362143D02*
X51945533Y-11314524D01*
X51945533Y-11314524D02*
X51850295Y-11314524D01*
X51850295Y-11314524D02*
X51755057Y-11362143D01*
X51755057Y-11362143D02*
X51707438Y-11409762D01*
X51707438Y-11409762D02*
X51659819Y-11505000D01*
X51659819Y-11505000D02*
X51659819Y-11743095D01*
X51659819Y-11743095D02*
X51707438Y-11885952D01*
X52659819Y-12314524D02*
X51659819Y-12314524D01*
X51659819Y-12314524D02*
X51659819Y-12552619D01*
X51659819Y-12552619D02*
X51707438Y-12695476D01*
X51707438Y-12695476D02*
X51802676Y-12790714D01*
X51802676Y-12790714D02*
X51897914Y-12838333D01*
X51897914Y-12838333D02*
X52088390Y-12885952D01*
X52088390Y-12885952D02*
X52231247Y-12885952D01*
X52231247Y-12885952D02*
X52421723Y-12838333D01*
X52421723Y-12838333D02*
X52516961Y-12790714D01*
X52516961Y-12790714D02*
X52612200Y-12695476D01*
X52612200Y-12695476D02*
X52659819Y-12552619D01*
X52659819Y-12552619D02*
X52659819Y-12314524D01*
X52374104Y-13266905D02*
X52374104Y-13743095D01*
X52659819Y-13171667D02*
X51659819Y-13505000D01*
X51659819Y-13505000D02*
X52659819Y-13838333D01*
X51659819Y-14076429D02*
X51659819Y-14695476D01*
X51659819Y-14695476D02*
X52040771Y-14362143D01*
X52040771Y-14362143D02*
X52040771Y-14505000D01*
X52040771Y-14505000D02*
X52088390Y-14600238D01*
X52088390Y-14600238D02*
X52136009Y-14647857D01*
X52136009Y-14647857D02*
X52231247Y-14695476D01*
X52231247Y-14695476D02*
X52469342Y-14695476D01*
X52469342Y-14695476D02*
X52564580Y-14647857D01*
X52564580Y-14647857D02*
X52612200Y-14600238D01*
X52612200Y-14600238D02*
X52659819Y-14505000D01*
X52659819Y-14505000D02*
X52659819Y-14219286D01*
X52659819Y-14219286D02*
X52612200Y-14124048D01*
X52612200Y-14124048D02*
X52564580Y-14076429D01*
X22193095Y-39307438D02*
X22288333Y-39259819D01*
X22288333Y-39259819D02*
X22431190Y-39259819D01*
X22431190Y-39259819D02*
X22574047Y-39307438D01*
X22574047Y-39307438D02*
X22669285Y-39402676D01*
X22669285Y-39402676D02*
X22716904Y-39497914D01*
X22716904Y-39497914D02*
X22764523Y-39688390D01*
X22764523Y-39688390D02*
X22764523Y-39831247D01*
X22764523Y-39831247D02*
X22716904Y-40021723D01*
X22716904Y-40021723D02*
X22669285Y-40116961D01*
X22669285Y-40116961D02*
X22574047Y-40212200D01*
X22574047Y-40212200D02*
X22431190Y-40259819D01*
X22431190Y-40259819D02*
X22335952Y-40259819D01*
X22335952Y-40259819D02*
X22193095Y-40212200D01*
X22193095Y-40212200D02*
X22145476Y-40164580D01*
X22145476Y-40164580D02*
X22145476Y-39831247D01*
X22145476Y-39831247D02*
X22335952Y-39831247D01*
X21716904Y-40259819D02*
X21716904Y-39259819D01*
X21716904Y-39259819D02*
X21145476Y-40259819D01*
X21145476Y-40259819D02*
X21145476Y-39259819D01*
X20669285Y-40259819D02*
X20669285Y-39259819D01*
X20669285Y-39259819D02*
X20431190Y-39259819D01*
X20431190Y-39259819D02*
X20288333Y-39307438D01*
X20288333Y-39307438D02*
X20193095Y-39402676D01*
X20193095Y-39402676D02*
X20145476Y-39497914D01*
X20145476Y-39497914D02*
X20097857Y-39688390D01*
X20097857Y-39688390D02*
X20097857Y-39831247D01*
X20097857Y-39831247D02*
X20145476Y-40021723D01*
X20145476Y-40021723D02*
X20193095Y-40116961D01*
X20193095Y-40116961D02*
X20288333Y-40212200D01*
X20288333Y-40212200D02*
X20431190Y-40259819D01*
X20431190Y-40259819D02*
X20669285Y-40259819D01*
X19621666Y-40259819D02*
X19431190Y-40259819D01*
X19431190Y-40259819D02*
X19335952Y-40212200D01*
X19335952Y-40212200D02*
X19288333Y-40164580D01*
X19288333Y-40164580D02*
X19193095Y-40021723D01*
X19193095Y-40021723D02*
X19145476Y-39831247D01*
X19145476Y-39831247D02*
X19145476Y-39450295D01*
X19145476Y-39450295D02*
X19193095Y-39355057D01*
X19193095Y-39355057D02*
X19240714Y-39307438D01*
X19240714Y-39307438D02*
X19335952Y-39259819D01*
X19335952Y-39259819D02*
X19526428Y-39259819D01*
X19526428Y-39259819D02*
X19621666Y-39307438D01*
X19621666Y-39307438D02*
X19669285Y-39355057D01*
X19669285Y-39355057D02*
X19716904Y-39450295D01*
X19716904Y-39450295D02*
X19716904Y-39688390D01*
X19716904Y-39688390D02*
X19669285Y-39783628D01*
X19669285Y-39783628D02*
X19621666Y-39831247D01*
X19621666Y-39831247D02*
X19526428Y-39878866D01*
X19526428Y-39878866D02*
X19335952Y-39878866D01*
X19335952Y-39878866D02*
X19240714Y-39831247D01*
X19240714Y-39831247D02*
X19193095Y-39783628D01*
X19193095Y-39783628D02*
X19145476Y-39688390D01*
%TO.C,U6*%
D10*
X105545000Y-46885000D02*
X105545000Y-46885000D01*
G75*
G02*
X107345000Y-45085000I1800000J0D01*
G01*
X135545000Y-45085000D01*
G75*
G02*
X137345000Y-46885000I0J-1800000D01*
G01*
X137345000Y-60585000D01*
G75*
G02*
X135545000Y-62385000I-1800000J0D01*
G01*
X107345000Y-62385000D01*
G75*
G02*
X105545000Y-60585000I0J1800000D01*
G01*
X105545000Y-46885000D01*
%TO.C,PCM1808_BOARD1*%
X62455000Y-20685000D02*
X89455000Y-20685000D01*
X89455000Y-54685000D01*
X62455000Y-54685000D01*
X62455000Y-20685000D01*
%TO.C,U4*%
D12*
X30430000Y-69745000D02*
X30430000Y-77465000D01*
X30430000Y-77465000D02*
X30675000Y-77465000D01*
X30675000Y-69745000D02*
X30430000Y-69745000D01*
X48305000Y-77465000D02*
X48550000Y-77465000D01*
X48550000Y-69745000D02*
X48305000Y-69745000D01*
X48550000Y-77465000D02*
X48550000Y-69745000D01*
X30670000Y-68955000D02*
X30200000Y-69295000D01*
X30200000Y-68615000D01*
X30670000Y-68955000D01*
G36*
X30670000Y-68955000D02*
G01*
X30200000Y-69295000D01*
X30200000Y-68615000D01*
X30670000Y-68955000D01*
G37*
%TO.C,C9*%
D10*
X50080000Y-71955000D02*
X53080000Y-71955000D01*
X53080000Y-76955000D01*
X50080000Y-76955000D01*
X50080000Y-71955000D01*
%TO.C,U5*%
X105555000Y-65685000D02*
X105555000Y-65685000D01*
G75*
G02*
X107355000Y-63885000I1800000J0D01*
G01*
X135555000Y-63885000D01*
G75*
G02*
X137355000Y-65685000I0J-1800000D01*
G01*
X137355000Y-79385000D01*
G75*
G02*
X135555000Y-81185000I-1800000J0D01*
G01*
X107355000Y-81185000D01*
G75*
G02*
X105555000Y-79385000I0J1800000D01*
G01*
X105555000Y-65685000D01*
%TO.C,TR1*%
X92125000Y-23285000D02*
X92125000Y-23285000D01*
G75*
G02*
X95125000Y-20285000I3000000J0D01*
G01*
X111125000Y-20285000D01*
G75*
G02*
X114125000Y-23285000I0J-3000000D01*
G01*
X114125000Y-39285000D01*
G75*
G02*
X111125000Y-42285000I-3000000J0D01*
G01*
X95125000Y-42285000D01*
G75*
G02*
X92125000Y-39285000I0J3000000D01*
G01*
X92125000Y-23285000D01*
%TO.C,R6*%
X59555000Y-63555000D02*
X59555000Y-63455000D01*
X59555000Y-69855000D02*
X59555000Y-69955000D01*
X58305000Y-63555000D02*
X60805000Y-63555000D01*
X60805000Y-69855000D01*
X58305000Y-69855000D01*
X58305000Y-63555000D01*
%TO.C,A1*%
D12*
X28205000Y-13375000D02*
X28205000Y-13795000D01*
X28205000Y-15915000D02*
X28205000Y-16335000D01*
X28205000Y-18455000D02*
X28205000Y-18875000D01*
X28205000Y-20995000D02*
X28205000Y-21415000D01*
X28205000Y-23535000D02*
X28205000Y-23955000D01*
X28205000Y-26075000D02*
X28205000Y-26495000D01*
X28205000Y-28615000D02*
X28205000Y-29035000D01*
X28205000Y-31155000D02*
X28205000Y-31575000D01*
X28205000Y-33695000D02*
X28205000Y-34115000D01*
X28205000Y-36235000D02*
X28205000Y-36655000D01*
X28205000Y-38775000D02*
X28205000Y-39195000D01*
X28205000Y-41315000D02*
X28205000Y-41735000D01*
X28205000Y-43855000D02*
X28205000Y-44275000D01*
X28205000Y-46395000D02*
X28205000Y-46815000D01*
X28205000Y-48935000D02*
X28205000Y-49355000D01*
X28205000Y-51475000D02*
X28205000Y-51895000D01*
X28205000Y-54015000D02*
X28205000Y-54435000D01*
X28205000Y-56555000D02*
X28205000Y-56975000D01*
X28205000Y-59095000D02*
X28205000Y-59515000D01*
X28545000Y-11255063D02*
X28545000Y-10898000D01*
X28545000Y-13375000D02*
X28545000Y-13795000D01*
X28545000Y-15915000D02*
X28545000Y-16335000D01*
X28545000Y-18455000D02*
X28545000Y-18875000D01*
X28545000Y-20995000D02*
X28545000Y-21415000D01*
X28545000Y-23535000D02*
X28545000Y-23955000D01*
X28545000Y-26075000D02*
X28545000Y-26495000D01*
X28545000Y-28615000D02*
X28545000Y-29035000D01*
X28545000Y-31155000D02*
X28545000Y-31575000D01*
X28545000Y-33695000D02*
X28545000Y-34115000D01*
X28545000Y-36235000D02*
X28545000Y-36655000D01*
X28545000Y-38775000D02*
X28545000Y-39195000D01*
X28545000Y-41315000D02*
X28545000Y-41735000D01*
X28545000Y-43855000D02*
X28545000Y-44275000D01*
X28545000Y-46395000D02*
X28545000Y-46815000D01*
X28545000Y-48935000D02*
X28545000Y-49355000D01*
X28545000Y-51475000D02*
X28545000Y-51895000D01*
X28545000Y-54015000D02*
X28545000Y-54435000D01*
X28545000Y-56555000D02*
X28545000Y-56975000D01*
X28545000Y-59095000D02*
X28545000Y-59515000D01*
X28545000Y-61634937D02*
X28545000Y-61992000D01*
X28815000Y-10835000D02*
X31305000Y-10835000D01*
X31305000Y-10835000D02*
X31305000Y-11748520D01*
X31305000Y-14141480D02*
X31305000Y-58748520D01*
X31305000Y-61141480D02*
X31305000Y-62055000D01*
X32652939Y-10835000D02*
X31305000Y-10835000D01*
X32652939Y-62055000D02*
X28815000Y-62055000D01*
X33577061Y-62055000D02*
X35215000Y-62055000D01*
X34580000Y-10835000D02*
X33577061Y-10835000D01*
X34915000Y-10835000D02*
X34915000Y-11751000D01*
X34915000Y-14139000D02*
X34915000Y-15355000D01*
X35211090Y-15355000D02*
X34915000Y-15355000D01*
X35215000Y-62055000D02*
X42415000Y-62055000D01*
X40061090Y-15355000D02*
X37568910Y-15355000D01*
X42415000Y-62055000D02*
X44052939Y-62055000D01*
X42715000Y-10835000D02*
X42715000Y-11751000D01*
X42715000Y-14139000D02*
X42715000Y-15355000D01*
X42715000Y-15355000D02*
X42418910Y-15355000D01*
X43050000Y-10835000D02*
X34580000Y-10835000D01*
X44052939Y-10835000D02*
X43050000Y-10835000D01*
X46325000Y-10835000D02*
X44977060Y-10835000D01*
X46325000Y-10835000D02*
X46325000Y-11748520D01*
X46325000Y-14141480D02*
X46325000Y-58748520D01*
X46325000Y-61141480D02*
X46325000Y-62055000D01*
X48815000Y-10835000D02*
X46325000Y-10835000D01*
X48815000Y-62055000D02*
X44977061Y-62055000D01*
X49085000Y-11255063D02*
X49085000Y-10898000D01*
X49085000Y-13375000D02*
X49085000Y-13795000D01*
X49085000Y-15915000D02*
X49085000Y-16335000D01*
X49085000Y-18455000D02*
X49085000Y-18875000D01*
X49085000Y-20995000D02*
X49085000Y-21415000D01*
X49085000Y-23535000D02*
X49085000Y-23955000D01*
X49085000Y-26075000D02*
X49085000Y-26495000D01*
X49085000Y-28615000D02*
X49085000Y-29035000D01*
X49085000Y-31155000D02*
X49085000Y-31575000D01*
X49085000Y-33695000D02*
X49085000Y-34115000D01*
X49085000Y-36235000D02*
X49085000Y-36655000D01*
X49085000Y-38775000D02*
X49085000Y-39195000D01*
X49085000Y-41315000D02*
X49085000Y-41735000D01*
X49085000Y-43855000D02*
X49085000Y-44275000D01*
X49085000Y-46395000D02*
X49085000Y-46815000D01*
X49085000Y-48935000D02*
X49085000Y-49355000D01*
X49085000Y-51475000D02*
X49085000Y-51895000D01*
X49085000Y-54015000D02*
X49085000Y-54435000D01*
X49085000Y-56555000D02*
X49085000Y-56975000D01*
X49085000Y-59095000D02*
X49085000Y-59515000D01*
X49085000Y-61634937D02*
X49085000Y-61992000D01*
X49394676Y-11255000D02*
X49905000Y-11255000D01*
X49425000Y-13375000D02*
X49425000Y-13795000D01*
X49425000Y-13375000D02*
X49905000Y-13375000D01*
X49425000Y-15915000D02*
X49425000Y-16335000D01*
X49425000Y-18455000D02*
X49425000Y-18875000D01*
X49425000Y-20995000D02*
X49425000Y-21415000D01*
X49425000Y-23535000D02*
X49425000Y-23955000D01*
X49425000Y-26075000D02*
X49425000Y-26495000D01*
X49425000Y-28615000D02*
X49425000Y-29035000D01*
X49425000Y-31155000D02*
X49425000Y-31575000D01*
X49425000Y-33695000D02*
X49425000Y-34115000D01*
X49425000Y-36235000D02*
X49425000Y-36655000D01*
X49425000Y-38775000D02*
X49425000Y-39195000D01*
X49425000Y-41315000D02*
X49425000Y-41735000D01*
X49425000Y-43855000D02*
X49425000Y-44275000D01*
X49425000Y-46395000D02*
X49425000Y-46815000D01*
X49425000Y-48935000D02*
X49425000Y-49355000D01*
X49425000Y-51475000D02*
X49425000Y-51895000D01*
X49425000Y-54015000D02*
X49425000Y-54435000D01*
X49425000Y-56555000D02*
X49425000Y-56975000D01*
X49425000Y-59095000D02*
X49425000Y-59515000D01*
X28235324Y-11255063D02*
G75*
G02*
X28815000Y-10835000I579676J-189937D01*
G01*
X28815000Y-62055000D02*
G75*
G02*
X28235349Y-61634929I100J610100D01*
G01*
X48815000Y-10835000D02*
G75*
G02*
X49394676Y-11255000I-16J-610051D01*
G01*
X49394676Y-61634937D02*
G75*
G02*
X48815000Y-62055000I-579677J189939D01*
G01*
%TO.C,TR2*%
D10*
X117125000Y-22785000D02*
X117125000Y-22785000D01*
G75*
G02*
X120125000Y-19785000I3000000J0D01*
G01*
X136125000Y-19785000D01*
G75*
G02*
X139125000Y-22785000I0J-3000000D01*
G01*
X139125000Y-38785000D01*
G75*
G02*
X136125000Y-41785000I-3000000J0D01*
G01*
X120125000Y-41785000D01*
G75*
G02*
X117125000Y-38785000I0J3000000D01*
G01*
X117125000Y-22785000D01*
%TO.C,R5*%
X64205000Y-63555000D02*
X64205000Y-63455000D01*
X64205000Y-69855000D02*
X64205000Y-69955000D01*
X62955000Y-63555000D02*
X65455000Y-63555000D01*
X65455000Y-69855000D01*
X62955000Y-69855000D01*
X62955000Y-63555000D01*
%TD*%
M02*
