M48
; DRILL file KiCad 10.0.0 date 2026-06-20T17:02:42
; FORMAT={-:-/ absolute / metric / decimal}
; #@! TF.CreationDate,2026-06-20T17:02:42-04:00
; #@! TF.GenerationSoftware,Kicad,Pcbnew,10.0.0
; #@! TF.FileFunction,Plated,1,2,PTH
FMAT,2
METRIC
; #@! TA.AperFunction,Plated,PTH,ViaDrill
T1C0.300
; #@! TA.AperFunction,Plated,PTH,ComponentDrill
T2C0.800
; #@! TA.AperFunction,Plated,PTH,ComponentDrill
T3C1.000
; #@! TA.AperFunction,Plated,PTH,ComponentDrill
T4C1.500
; #@! TA.AperFunction,Plated,PTH,ComponentDrill
T5C2.150
%
G90
G05
T1
X17.412Y-52.665
X17.412Y-56.915
X45.14Y-65.455
X47.455Y-64.205
X52.955Y-59.955
X72.955Y-48.455
T2
X51.58Y-71.955
X51.58Y-76.955
X59.555Y-62.405
X59.555Y-71.005
X64.205Y-62.405
X64.205Y-71.005
T3
X29.925Y-12.315
X29.925Y-14.855
X29.925Y-17.395
X29.925Y-19.935
X29.925Y-22.475
X29.925Y-25.015
X29.925Y-27.555
X29.925Y-30.095
X29.925Y-32.635
X29.925Y-35.175
X29.925Y-37.715
X29.925Y-40.255
X29.925Y-42.795
X29.925Y-45.335
X29.925Y-47.875
X29.925Y-50.415
X29.925Y-52.955
X29.925Y-55.495
X29.925Y-58.035
X29.925Y-60.575
X47.705Y-12.315
X47.705Y-14.855
X47.705Y-17.395
X47.705Y-19.935
X47.705Y-22.475
X47.705Y-25.015
X47.705Y-27.555
X47.705Y-30.095
X47.705Y-32.635
X47.705Y-35.175
X47.705Y-37.715
X47.705Y-40.255
X47.705Y-42.795
X47.705Y-45.335
X47.705Y-47.875
X47.705Y-50.415
X47.705Y-52.955
X47.705Y-55.495
X47.705Y-58.035
X47.705Y-60.575
X63.455Y-31.335
X63.455Y-33.875
X63.455Y-36.415
X63.455Y-38.955
X63.455Y-41.495
X63.455Y-44.035
X73.415Y-21.685
X75.955Y-21.685
X78.495Y-21.685
X88.455Y-31.335
X88.455Y-33.875
X88.455Y-36.415
X88.455Y-38.955
X88.455Y-41.495
X88.455Y-44.035
X98.125Y-25.035
X98.125Y-37.535
X103.125Y-25.035
X103.125Y-37.535
X107.105Y-66.185
X107.105Y-68.725
X107.105Y-71.265
X107.105Y-73.805
X107.105Y-76.345
X107.105Y-78.885
X108.125Y-25.035
X108.125Y-37.535
X109.125Y-46.785
X111.665Y-46.785
X113.455Y-79.485
X114.205Y-46.785
X115.995Y-79.485
X116.745Y-46.785
X118.535Y-79.485
X119.285Y-46.785
X121.075Y-79.485
X121.825Y-46.785
X123.125Y-24.535
X123.125Y-37.035
X123.615Y-79.485
X124.365Y-46.785
X126.155Y-79.485
X126.905Y-46.785
X128.125Y-24.535
X128.125Y-37.035
X128.695Y-79.485
X129.445Y-46.785
X131.235Y-79.485
X133.125Y-24.535
X133.125Y-37.035
X133.775Y-79.485
X135.795Y-47.385
X135.795Y-49.925
X135.795Y-52.465
X135.795Y-55.005
X135.795Y-57.545
X135.795Y-60.085
T4
X62.455Y-14.935
X66.455Y-14.935
X70.455Y-14.935
X74.455Y-14.935
X78.455Y-14.935
X82.455Y-14.935
X92.455Y-77.205
X93.705Y-61.205
X96.455Y-77.205
X97.705Y-61.205
X99.875Y-15.285
X100.455Y-77.205
X101.705Y-61.205
X103.875Y-15.285
X107.875Y-15.285
X121.955Y-15.285
X125.955Y-15.285
X129.955Y-15.285
T5
X20.955Y-42.955
X20.955Y-49.455
X21.205Y-14.705
X21.205Y-21.205
X21.205Y-27.705
X55.955Y-13.005
X55.955Y-18.455
M30
