%TF.GenerationSoftware,KiCad,Pcbnew,10.0.0*%
%TF.CreationDate,2026-06-20T17:02:39-04:00*%
%TF.ProjectId,DJ but to separate PCBs,444a2062-7574-4207-946f-207365706172,rev?*%
%TF.SameCoordinates,Original*%
%TF.FileFunction,Copper,L2,Bot*%
%TF.FilePolarity,Positive*%
%FSLAX46Y46*%
G04 Gerber Fmt 4.6, Leading zero omitted, Abs format (unit mm)*
G04 Created by KiCad (PCBNEW 10.0.0) date 2026-06-20 17:02:39*
%MOMM*%
%LPD*%
G01*
G04 APERTURE LIST*
G04 Aperture macros list*
%AMRoundRect*
0 Rectangle with rounded corners*
0 $1 Rounding radius*
0 $2 $3 $4 $5 $6 $7 $8 $9 X,Y pos of 4 corners*
0 Add a 4 corners polygon primitive as box body*
4,1,4,$2,$3,$4,$5,$6,$7,$8,$9,$2,$3,0*
0 Add four circle primitives for the rounded corners*
1,1,$1+$1,$2,$3*
1,1,$1+$1,$4,$5*
1,1,$1+$1,$6,$7*
1,1,$1+$1,$8,$9*
0 Add four rect primitives between the rounded corners*
20,1,$1+$1,$2,$3,$4,$5,0*
20,1,$1+$1,$4,$5,$6,$7,0*
20,1,$1+$1,$6,$7,$8,$9,0*
20,1,$1+$1,$8,$9,$2,$3,0*%
%AMFreePoly0*
4,1,37,0.800000,0.796148,0.878414,0.796148,1.032228,0.765552,1.177117,0.705537,1.307515,0.618408,1.418408,0.507515,1.505537,0.377117,1.565552,0.232228,1.596148,0.078414,1.596148,-0.078414,1.565552,-0.232228,1.505537,-0.377117,1.418408,-0.507515,1.307515,-0.618408,1.177117,-0.705537,1.032228,-0.765552,0.878414,-0.796148,0.800000,-0.796148,0.800000,-0.800000,-1.400000,-0.800000,
-1.403843,-0.796157,-1.439018,-0.796157,-1.511114,-0.766294,-1.566294,-0.711114,-1.596157,-0.639018,-1.596157,-0.603843,-1.600000,-0.600000,-1.600000,0.600000,-1.596157,0.603843,-1.596157,0.639018,-1.566294,0.711114,-1.511114,0.766294,-1.439018,0.796157,-1.403843,0.796157,-1.400000,0.800000,0.800000,0.800000,0.800000,0.796148,0.800000,0.796148,$1*%
%AMFreePoly1*
4,1,37,1.403843,0.796157,1.439018,0.796157,1.511114,0.766294,1.566294,0.711114,1.596157,0.639018,1.596157,0.603843,1.600000,0.600000,1.600000,-0.600000,1.596157,-0.603843,1.596157,-0.639018,1.566294,-0.711114,1.511114,-0.766294,1.439018,-0.796157,1.403843,-0.796157,1.400000,-0.800000,-0.800000,-0.800000,-0.800000,-0.796148,-0.878414,-0.796148,-1.032228,-0.765552,-1.177117,-0.705537,
-1.307515,-0.618408,-1.418408,-0.507515,-1.505537,-0.377117,-1.565552,-0.232228,-1.596148,-0.078414,-1.596148,0.078414,-1.565552,0.232228,-1.505537,0.377117,-1.418408,0.507515,-1.307515,0.618408,-1.177117,0.705537,-1.032228,0.765552,-0.878414,0.796148,-0.800000,0.796148,-0.800000,0.800000,1.400000,0.800000,1.403843,0.796157,1.403843,0.796157,$1*%
%AMFreePoly2*
4,1,37,0.603843,0.796157,0.639018,0.796157,0.711114,0.766294,0.766294,0.711114,0.796157,0.639018,0.796157,0.603843,0.800000,0.600000,0.800000,-0.600000,0.796157,-0.603843,0.796157,-0.639018,0.766294,-0.711114,0.711114,-0.766294,0.639018,-0.796157,0.603843,-0.796157,0.600000,-0.800000,0.000000,-0.800000,0.000000,-0.796148,-0.078414,-0.796148,-0.232228,-0.765552,-0.377117,-0.705537,
-0.507515,-0.618408,-0.618408,-0.507515,-0.705537,-0.377117,-0.765552,-0.232228,-0.796148,-0.078414,-0.796148,0.078414,-0.765552,0.232228,-0.705537,0.377117,-0.618408,0.507515,-0.507515,0.618408,-0.377117,0.705537,-0.232228,0.765552,-0.078414,0.796148,0.000000,0.796148,0.000000,0.800000,0.600000,0.800000,0.603843,0.796157,0.603843,0.796157,$1*%
%AMFreePoly3*
4,1,37,0.000000,0.796148,0.078414,0.796148,0.232228,0.765552,0.377117,0.705537,0.507515,0.618408,0.618408,0.507515,0.705537,0.377117,0.765552,0.232228,0.796148,0.078414,0.796148,-0.078414,0.765552,-0.232228,0.705537,-0.377117,0.618408,-0.507515,0.507515,-0.618408,0.377117,-0.705537,0.232228,-0.765552,0.078414,-0.796148,0.000000,-0.796148,0.000000,-0.800000,-0.600000,-0.800000,
-0.603843,-0.796157,-0.639018,-0.796157,-0.711114,-0.766294,-0.766294,-0.711114,-0.796157,-0.639018,-0.796157,-0.603843,-0.800000,-0.600000,-0.800000,0.600000,-0.796157,0.603843,-0.796157,0.639018,-0.766294,0.711114,-0.711114,0.766294,-0.639018,0.796157,-0.603843,0.796157,-0.600000,0.800000,0.000000,0.800000,0.000000,0.796148,0.000000,0.796148,$1*%
G04 Aperture macros list end*
%TA.AperFunction,SMDPad,CuDef*%
%ADD10RoundRect,0.500000X0.500000X1.500000X-0.500000X1.500000X-0.500000X-1.500000X0.500000X-1.500000X0*%
%TD*%
%TA.AperFunction,ComponentPad*%
%ADD11C,1.800000*%
%TD*%
%TA.AperFunction,SMDPad,CuDef*%
%ADD12RoundRect,0.500000X-1.500000X0.500000X-1.500000X-0.500000X1.500000X-0.500000X1.500000X0.500000X0*%
%TD*%
%TA.AperFunction,SMDPad,CuDef*%
%ADD13RoundRect,0.500000X1.500000X-0.500000X1.500000X0.500000X-1.500000X0.500000X-1.500000X-0.500000X0*%
%TD*%
%TA.AperFunction,ComponentPad*%
%ADD14RoundRect,0.250002X-1.699998X1.699998X-1.699998X-1.699998X1.699998X-1.699998X1.699998X1.699998X0*%
%TD*%
%TA.AperFunction,SMDPad,CuDef*%
%ADD15RoundRect,0.150000X-0.150000X0.875000X-0.150000X-0.875000X0.150000X-0.875000X0.150000X0.875000X0*%
%TD*%
%TA.AperFunction,ComponentPad*%
%ADD16RoundRect,0.200000X-0.800000X-1.050000X0.800000X-1.050000X0.800000X1.050000X-0.800000X1.050000X0*%
%TD*%
%TA.AperFunction,ComponentPad*%
%ADD17RoundRect,0.250002X1.699998X1.699998X-1.699998X1.699998X-1.699998X-1.699998X1.699998X-1.699998X0*%
%TD*%
%TA.AperFunction,ComponentPad*%
%ADD18RoundRect,0.200000X0.800000X1.050000X-0.800000X1.050000X-0.800000X-1.050000X0.800000X-1.050000X0*%
%TD*%
%TA.AperFunction,ComponentPad*%
%ADD19C,2.000000*%
%TD*%
%TA.AperFunction,SMDPad,CuDef*%
%ADD20RoundRect,0.500000X-0.500000X-1.500000X0.500000X-1.500000X0.500000X1.500000X-0.500000X1.500000X0*%
%TD*%
%TA.AperFunction,SMDPad,CuDef*%
%ADD21FreePoly0,180.000000*%
%TD*%
%TA.AperFunction,ComponentPad*%
%ADD22RoundRect,0.200000X0.600000X0.600000X-0.600000X0.600000X-0.600000X-0.600000X0.600000X-0.600000X0*%
%TD*%
%TA.AperFunction,SMDPad,CuDef*%
%ADD23RoundRect,0.800000X0.800000X0.000010X-0.800000X0.000010X-0.800000X-0.000010X0.800000X-0.000010X0*%
%TD*%
%TA.AperFunction,ComponentPad*%
%ADD24C,1.600000*%
%TD*%
%TA.AperFunction,SMDPad,CuDef*%
%ADD25FreePoly1,180.000000*%
%TD*%
%TA.AperFunction,ComponentPad*%
%ADD26FreePoly2,180.000000*%
%TD*%
%TA.AperFunction,ComponentPad*%
%ADD27FreePoly3,180.000000*%
%TD*%
%TA.AperFunction,ViaPad*%
%ADD28C,0.600000*%
%TD*%
%TA.AperFunction,Conductor*%
%ADD29C,0.300000*%
%TD*%
G04 APERTURE END LIST*
D10*
%TO.P,JogB2,1*%
%TO.N,Net-(A1-GPIO28_ADC2)*%
X14912500Y-32665000D03*
%TD*%
D11*
%TO.P,U6,1,SCK_1*%
%TO.N,unconnected-(U6-SCK-Pad1)*%
X135795000Y-60085000D03*
%TO.P,U6,2,BCK_2*%
%TO.N,/DAC Outputs/MBCK*%
X135795000Y-57545000D03*
%TO.P,U6,3,DIN_3*%
%TO.N,/DAC Outputs/MDIN*%
X135795000Y-55005000D03*
%TO.P,U6,4,LRCK_4*%
%TO.N,/DAC Outputs/MLRCK*%
X135795000Y-52465000D03*
%TO.P,U6,5,GND_5*%
%TO.N,GND*%
X135795000Y-49925000D03*
%TO.P,U6,6,VIN_6*%
%TO.N,+3.3V*%
X135795000Y-47385000D03*
%TO.P,U6,7,FLT_7*%
%TO.N,unconnected-(U6-FLT-Pad7)*%
X129445000Y-46785000D03*
%TO.P,U6,8,DEMP_8*%
%TO.N,unconnected-(U6-DEMP-Pad8)*%
X126905000Y-46785000D03*
%TO.P,U6,9,XSMT_9*%
%TO.N,unconnected-(U6-XSMT-Pad9)*%
X124365000Y-46785000D03*
%TO.P,U6,10,FMT_10*%
%TO.N,unconnected-(U6-FMT-Pad10)*%
X121825000Y-46785000D03*
%TO.P,U6,11,A3V3_11*%
%TO.N,unconnected-(U6-A3V3-Pad11)*%
X119285000Y-46785000D03*
%TO.P,U6,12,AGND_12*%
%TO.N,unconnected-(U6-AGND-Pad12)*%
X116745000Y-46785000D03*
%TO.P,U6,13,ROUT_13*%
%TO.N,Net-(U6-ROUT)*%
X114205000Y-46785000D03*
%TO.P,U6,14,AGND_14*%
%TO.N,Net-(J9-PadS)*%
X111665000Y-46785000D03*
%TO.P,U6,15,LROUT_15*%
%TO.N,Net-(U6-LROUT)*%
X109125000Y-46785000D03*
%TD*%
D10*
%TO.P,RESW22,1*%
%TO.N,Net-(U4-GPB1)*%
X25455000Y-65955000D03*
%TD*%
%TO.P,RESW12,1*%
%TO.N,Net-(U4-GPA6)*%
X30455000Y-86955000D03*
%TD*%
%TO.P,REA22,1*%
%TO.N,Net-(U4-GPB0)*%
X28955000Y-66205000D03*
%TD*%
D12*
%TO.P,Lights11,1*%
%TO.N,Net-(A1-GPIO21)*%
X20955000Y-54705000D03*
%TD*%
D10*
%TO.P,JogA1,1*%
%TO.N,Net-(A1-GPIO12)*%
X52912500Y-51415000D03*
%TD*%
D11*
%TO.P,PCM1808_BOARD1,1,FMY_1*%
%TO.N,GND*%
X88455000Y-31335000D03*
%TO.P,PCM1808_BOARD1,2,MD1_2*%
X88455000Y-33875000D03*
%TO.P,PCM1808_BOARD1,3,MD0_3*%
X88455000Y-36415000D03*
%TO.P,PCM1808_BOARD1,4,GND_4*%
X88455000Y-38955000D03*
%TO.P,PCM1808_BOARD1,5,3.3V_5*%
%TO.N,unconnected-(PCM1808_BOARD1-3.3V-Pad5)*%
X88455000Y-41495000D03*
%TO.P,PCM1808_BOARD1,6,+5V_6*%
%TO.N,+5V*%
X88455000Y-44035000D03*
%TO.P,PCM1808_BOARD1,7,BCK_7*%
%TO.N,/Mic Inputs/BCK*%
X63455000Y-31335000D03*
%TO.P,PCM1808_BOARD1,8,OUT_8*%
%TO.N,/Mic Inputs/OUT*%
X63455000Y-33875000D03*
%TO.P,PCM1808_BOARD1,9,LRC_9*%
%TO.N,/Mic Inputs/LRC*%
X63455000Y-36415000D03*
%TO.P,PCM1808_BOARD1,10,SCK_10*%
%TO.N,/Mic Inputs/SCK*%
X63455000Y-38955000D03*
%TO.P,PCM1808_BOARD1,11,GND_11*%
%TO.N,GND*%
X63455000Y-41495000D03*
%TO.P,PCM1808_BOARD1,12,3.3V_12*%
%TO.N,+3.3V*%
X63455000Y-44035000D03*
%TO.P,PCM1808_BOARD1,13,RIN_13*%
%TO.N,Net-(PCM1808_BOARD1-RIN)*%
X78495000Y-21685000D03*
%TO.P,PCM1808_BOARD1,14,-_14*%
%TO.N,Net-(PCM1808_BOARD1--)*%
X75955000Y-21685000D03*
%TO.P,PCM1808_BOARD1,15,LIN_15*%
%TO.N,Net-(PCM1808_BOARD1-LIN)*%
X73415000Y-21685000D03*
%TD*%
D10*
%TO.P,JogB1,1*%
%TO.N,Net-(A1-GPIO13)*%
X56412500Y-55165000D03*
%TD*%
D13*
%TO.P,DSSW41,1*%
%TO.N,Net-(A1-GPIO19)*%
X14162500Y-52665000D03*
%TD*%
D12*
%TO.P,COM21,1*%
%TO.N,/COM*%
X21205000Y-33205000D03*
%TD*%
D10*
%TO.P,S03,1*%
%TO.N,/S0*%
X55955000Y-86955000D03*
%TD*%
%TO.P,S13,1*%
%TO.N,/S1*%
X51705000Y-86955000D03*
%TD*%
D14*
%TO.P,SCK3,1*%
%TO.N,/SCK*%
X55955000Y-18455000D03*
%TD*%
D13*
%TO.P,DSSW21,1*%
%TO.N,Net-(A1-GPIO18)*%
X14162500Y-56915000D03*
%TD*%
D10*
%TO.P,JogA2,1*%
%TO.N,Net-(A1-GPIO22)*%
X14912500Y-39665000D03*
%TD*%
%TO.P,S33,1*%
%TO.N,/S3*%
X43205000Y-86955000D03*
%TD*%
D13*
%TO.P,INT11,1*%
%TO.N,/INT1*%
X20705000Y-67455000D03*
%TD*%
D10*
%TO.P,S23,1*%
%TO.N,/S2*%
X47455000Y-86955000D03*
%TD*%
D15*
%TO.P,U4,1,GPB0_1*%
%TO.N,Net-(U4-GPB0)*%
X31235000Y-68955000D03*
%TO.P,U4,2,GPB1_2*%
%TO.N,Net-(U4-GPB1)*%
X32505000Y-68955000D03*
%TO.P,U4,3,GPB2_3*%
%TO.N,Net-(U4-GPB2)*%
X33775000Y-68955000D03*
%TO.P,U4,4,GPB3_4*%
%TO.N,Net-(U4-GPB3)*%
X35045000Y-68955000D03*
%TO.P,U4,5,GPB4_5*%
%TO.N,Net-(U4-GPB4)*%
X36315000Y-68955000D03*
%TO.P,U4,6,GPB5_6*%
%TO.N,Net-(U4-GPB5)*%
X37585000Y-68955000D03*
%TO.P,U4,7,GPB6_7*%
%TO.N,Net-(U4-GPB6)*%
X38855000Y-68955000D03*
%TO.P,U4,8,GPB7_8*%
%TO.N,Net-(U4-GPB7)*%
X40125000Y-68955000D03*
%TO.P,U4,9,V_{DD}_9*%
%TO.N,+3.3V*%
X41395000Y-68955000D03*
%TO.P,U4,10,V_{SS}_10*%
%TO.N,GND*%
X42665000Y-68955000D03*
%TO.P,U4,11,NC_11*%
%TO.N,unconnected-(U4-NC-Pad11)*%
X43935000Y-68955000D03*
%TO.P,U4,12,SCK_12*%
%TO.N,/SCK*%
X45205000Y-68955000D03*
%TO.P,U4,13,SDA_13*%
%TO.N,/SDA*%
X46475000Y-68955000D03*
%TO.P,U4,14,NC_14*%
%TO.N,unconnected-(U4-NC-Pad14)*%
X47745000Y-68955000D03*
%TO.P,U4,15,A0_15*%
%TO.N,GND*%
X47745000Y-78255000D03*
%TO.P,U4,16,A1_16*%
%TO.N,+3.3V*%
X46475000Y-78255000D03*
%TO.P,U4,17,A2_17*%
%TO.N,GND*%
X45205000Y-78255000D03*
%TO.P,U4,18,~{RESET}_18*%
%TO.N,+3.3V*%
X43935000Y-78255000D03*
%TO.P,U4,19,INTB_19*%
%TO.N,Net-(A1-GPIO14)*%
X42665000Y-78255000D03*
%TO.P,U4,20,INTA_20*%
X41395000Y-78255000D03*
%TO.P,U4,21,GPA0_21*%
%TO.N,/S0*%
X40125000Y-78255000D03*
%TO.P,U4,22,GPA1_22*%
%TO.N,/S1*%
X38855000Y-78255000D03*
%TO.P,U4,23,GPA2_23*%
%TO.N,/S2*%
X37585000Y-78255000D03*
%TO.P,U4,24,GPA3_24*%
%TO.N,/S3*%
X36315000Y-78255000D03*
%TO.P,U4,25,GPA4_25*%
%TO.N,Net-(U4-GPA4)*%
X35045000Y-78255000D03*
%TO.P,U4,26,GPA5_26*%
%TO.N,Net-(U4-GPA5)*%
X33775000Y-78255000D03*
%TO.P,U4,27,GPA6_27*%
%TO.N,Net-(U4-GPA6)*%
X32505000Y-78255000D03*
%TO.P,U4,28,GPA7_28*%
%TO.N,Net-(U4-GPA7)*%
X31235000Y-78255000D03*
%TD*%
D16*
%TO.P,J7,R*%
%TO.N,Net-(U5-ROUT)*%
X96455000Y-77205000D03*
%TO.P,J7,S*%
%TO.N,Net-(J7-PadS)*%
X100455000Y-77205000D03*
%TO.P,J7,T*%
%TO.N,Net-(U5-LROUT)*%
X92455000Y-77205000D03*
%TD*%
D12*
%TO.P,Cue21,1*%
%TO.N,Net-(U4-GPB3)*%
X20455000Y-75455000D03*
%TD*%
D17*
%TO.P,5V2,1*%
%TO.N,+5V*%
X21205000Y-14705000D03*
%TD*%
D12*
%TO.P,COM11,1*%
%TO.N,/COM_1*%
X20955000Y-37705000D03*
%TD*%
D18*
%TO.P,J1,1*%
%TO.N,Net-(J1-Pad1)*%
X99875000Y-15285000D03*
%TO.P,J1,2*%
%TO.N,Net-(J1-Pad2)*%
X107875000Y-15285000D03*
%TO.P,J1,3*%
%TO.N,Net-(J1-Pad3)*%
X103875000Y-15285000D03*
%TD*%
D10*
%TO.P,REB12,1*%
%TO.N,Net-(U4-GPA5)*%
X34705000Y-86955000D03*
%TD*%
D19*
%TO.P,C9,1*%
%TO.N,+3.3V*%
X51580000Y-71955000D03*
%TO.P,C9,2*%
%TO.N,GND*%
X51580000Y-76955000D03*
%TD*%
D18*
%TO.P,J9,R*%
%TO.N,Net-(U6-ROUT)*%
X97705000Y-61205000D03*
%TO.P,J9,S*%
%TO.N,Net-(J9-PadS)*%
X93705000Y-61205000D03*
%TO.P,J9,T*%
%TO.N,Net-(U6-LROUT)*%
X101705000Y-61205000D03*
%TD*%
D12*
%TO.P,DSSW31,1*%
%TO.N,Net-(U4-GPB7)*%
X20455000Y-87955000D03*
%TD*%
D13*
%TO.P,INT21,1*%
%TO.N,/INT2*%
X20705000Y-63205000D03*
%TD*%
D11*
%TO.P,U5,1,SCK_1*%
%TO.N,unconnected-(U5-SCK-Pad1)*%
X107105000Y-66185000D03*
%TO.P,U5,2,BCK_2*%
%TO.N,/DAC Outputs/PBCK*%
X107105000Y-68725000D03*
%TO.P,U5,3,DIN_3*%
%TO.N,/DAC Outputs/PDIN*%
X107105000Y-71265000D03*
%TO.P,U5,4,LRCK_4*%
%TO.N,/DAC Outputs/PLRCK*%
X107105000Y-73805000D03*
%TO.P,U5,5,GND_5*%
%TO.N,GND*%
X107105000Y-76345000D03*
%TO.P,U5,6,VIN_6*%
%TO.N,+3.3V*%
X107105000Y-78885000D03*
%TO.P,U5,7,FLT_7*%
%TO.N,unconnected-(U5-FLT-Pad7)*%
X113455000Y-79485000D03*
%TO.P,U5,8,DEMP_8*%
%TO.N,unconnected-(U5-DEMP-Pad8)*%
X115995000Y-79485000D03*
%TO.P,U5,9,XSMT_9*%
%TO.N,unconnected-(U5-XSMT-Pad9)*%
X118535000Y-79485000D03*
%TO.P,U5,10,FMT_10*%
%TO.N,unconnected-(U5-FMT-Pad10)*%
X121075000Y-79485000D03*
%TO.P,U5,11,A3V3_11*%
%TO.N,unconnected-(U5-A3V3-Pad11)*%
X123615000Y-79485000D03*
%TO.P,U5,12,AGND_12*%
%TO.N,unconnected-(U5-AGND-Pad12)*%
X126155000Y-79485000D03*
%TO.P,U5,13,ROUT_13*%
%TO.N,Net-(U5-ROUT)*%
X128695000Y-79485000D03*
%TO.P,U5,14,AGND_14*%
%TO.N,Net-(J7-PadS)*%
X131235000Y-79485000D03*
%TO.P,U5,15,LROUT_15*%
%TO.N,Net-(U5-LROUT)*%
X133775000Y-79485000D03*
%TD*%
D19*
%TO.P,TR1,1*%
%TO.N,Net-(J9-PadS)*%
X98125000Y-37535000D03*
%TO.P,TR1,2*%
%TO.N,unconnected-(TR1-Pad2)*%
X103125000Y-37535000D03*
%TO.P,TR1,3*%
%TO.N,Net-(U6-LROUT)*%
X108125000Y-37535000D03*
%TO.P,TR1,4*%
%TO.N,Net-(J1-Pad2)*%
X103125000Y-25035000D03*
%TO.P,TR1,5*%
%TO.N,Net-(J1-Pad1)*%
X108125000Y-25035000D03*
%TO.P,TR1,6*%
%TO.N,Net-(J1-Pad3)*%
X98125000Y-25035000D03*
%TD*%
D12*
%TO.P,Cue31,1*%
%TO.N,Net-(U4-GPB4)*%
X20455000Y-79705000D03*
%TD*%
D17*
%TO.P,3.3V2,1*%
%TO.N,+3.3V*%
X21205000Y-27705000D03*
%TD*%
D10*
%TO.P,REA12,1*%
%TO.N,Net-(U4-GPA4)*%
X38955000Y-86955000D03*
%TD*%
D17*
%TO.P,GND10,1*%
%TO.N,GND*%
X20955000Y-49455000D03*
%TD*%
D12*
%TO.P,Cue41,1*%
%TO.N,Net-(U4-GPB5)*%
X20455000Y-83705000D03*
%TD*%
D20*
%TO.P,DSSW11,1*%
%TO.N,Net-(U4-GPB6)*%
X26455000Y-78705000D03*
%TD*%
D19*
%TO.P,R6,1*%
%TO.N,+3.3V*%
X59555000Y-71005000D03*
%TO.P,R6,2*%
%TO.N,/SCK*%
X59555000Y-62405000D03*
%TD*%
D18*
%TO.P,J2,1*%
%TO.N,Net-(J2-Pad1)*%
X121955000Y-15285000D03*
%TO.P,J2,2*%
%TO.N,Net-(J2-Pad2)*%
X129955000Y-15285000D03*
%TO.P,J2,3*%
%TO.N,Net-(J2-Pad3)*%
X125955000Y-15285000D03*
%TD*%
D12*
%TO.P,Lights21,1*%
%TO.N,Net-(A1-GPIO20)*%
X20955000Y-59205000D03*
%TD*%
D18*
%TO.P,J8,1*%
%TO.N,Net-(PCM1808_BOARD1--)*%
X74455000Y-14935000D03*
%TO.P,J8,2*%
%TO.N,Net-(PCM1808_BOARD1-RIN)*%
X82455000Y-14935000D03*
%TO.P,J8,3*%
%TO.N,Net-(PCM1808_BOARD1--)*%
X78455000Y-14935000D03*
%TD*%
D10*
%TO.P,REB22,1*%
%TO.N,Net-(U4-GPA7)*%
X26205000Y-86955000D03*
%TD*%
D21*
%TO.P,A1,1,GPIO0_1*%
%TO.N,/SDA*%
X48505000Y-12315000D03*
D22*
X47705000Y-12315000D03*
D23*
%TO.P,A1,2,GPIO1_2*%
%TO.N,/SCK*%
X48505000Y-14855000D03*
D24*
X47705000Y-14855000D03*
D25*
%TO.P,A1,3,GND_3*%
%TO.N,GND*%
X48505000Y-17395000D03*
D26*
X47705000Y-17395000D03*
D23*
%TO.P,A1,4,GPIO2_4*%
%TO.N,/Mic Inputs/BCK*%
X48505000Y-19935000D03*
D24*
X47705000Y-19935000D03*
D23*
%TO.P,A1,5,GPIO3_5*%
%TO.N,/Mic Inputs/OUT*%
X48505000Y-22475000D03*
D24*
X47705000Y-22475000D03*
D23*
%TO.P,A1,6,GPIO4_6*%
%TO.N,/Mic Inputs/LRC*%
X48505000Y-25015000D03*
D24*
X47705000Y-25015000D03*
D23*
%TO.P,A1,7,GPIO5_7*%
%TO.N,/Mic Inputs/SCK*%
X48505000Y-27555000D03*
D24*
X47705000Y-27555000D03*
D25*
%TO.P,A1,8,GND_8*%
%TO.N,GND*%
X48505000Y-30095000D03*
D26*
X47705000Y-30095000D03*
D23*
%TO.P,A1,9,GPIO6_9*%
%TO.N,/DAC Outputs/MLRCK*%
X48505000Y-32635000D03*
D24*
X47705000Y-32635000D03*
D23*
%TO.P,A1,10,GPIO7_10*%
%TO.N,/DAC Outputs/MDIN*%
X48505000Y-35175000D03*
D24*
X47705000Y-35175000D03*
D23*
%TO.P,A1,11,GPIO8_11*%
%TO.N,/DAC Outputs/MBCK*%
X48505000Y-37715000D03*
D24*
X47705000Y-37715000D03*
D23*
%TO.P,A1,12,GPIO9_12*%
%TO.N,/DAC Outputs/PBCK*%
X48505000Y-40255000D03*
D24*
X47705000Y-40255000D03*
D25*
%TO.P,A1,13,GND_13*%
%TO.N,GND*%
X48505000Y-42795000D03*
D26*
X47705000Y-42795000D03*
D23*
%TO.P,A1,14,GPIO10_14*%
%TO.N,/DAC Outputs/PDIN*%
X48505000Y-45335000D03*
D24*
X47705000Y-45335000D03*
D23*
%TO.P,A1,15,GPIO11_15*%
%TO.N,/DAC Outputs/PLRCK*%
X48505000Y-47875000D03*
D24*
X47705000Y-47875000D03*
D23*
%TO.P,A1,16,GPIO12_16*%
%TO.N,Net-(A1-GPIO12)*%
X48505000Y-50415000D03*
D24*
X47705000Y-50415000D03*
D23*
%TO.P,A1,17,GPIO13_17*%
%TO.N,Net-(A1-GPIO13)*%
X48505000Y-52955000D03*
D24*
X47705000Y-52955000D03*
D25*
%TO.P,A1,18,GND_18*%
%TO.N,GND*%
X48505000Y-55495000D03*
D26*
X47705000Y-55495000D03*
D23*
%TO.P,A1,19,GPIO14_19*%
%TO.N,Net-(A1-GPIO14)*%
X48505000Y-58035000D03*
D24*
X47705000Y-58035000D03*
D23*
%TO.P,A1,20,GPIO15_20*%
%TO.N,unconnected-(A1-GPIO15-Pad20)_1*%
X48505000Y-60575000D03*
D24*
%TO.N,unconnected-(A1-GPIO15-Pad20)*%
X47705000Y-60575000D03*
%TO.P,A1,21,GPIO16_21*%
%TO.N,/INT1*%
X29925000Y-60575000D03*
D23*
X29125000Y-60575000D03*
D24*
%TO.P,A1,22,GPIO17_22*%
%TO.N,/INT2*%
X29925000Y-58035000D03*
D23*
X29125000Y-58035000D03*
D27*
%TO.P,A1,23,GND_23*%
%TO.N,GND*%
X29925000Y-55495000D03*
D21*
X29125000Y-55495000D03*
D24*
%TO.P,A1,24,GPIO18_24*%
%TO.N,Net-(A1-GPIO18)*%
X29925000Y-52955000D03*
D23*
X29125000Y-52955000D03*
D24*
%TO.P,A1,25,GPIO19_25*%
%TO.N,Net-(A1-GPIO19)*%
X29925000Y-50415000D03*
D23*
X29125000Y-50415000D03*
D24*
%TO.P,A1,26,GPIO20_26*%
%TO.N,Net-(A1-GPIO20)*%
X29925000Y-47875000D03*
D23*
X29125000Y-47875000D03*
D24*
%TO.P,A1,27,GPIO21_27*%
%TO.N,Net-(A1-GPIO21)*%
X29925000Y-45335000D03*
D23*
X29125000Y-45335000D03*
D27*
%TO.P,A1,28,GND_28*%
%TO.N,GND*%
X29925000Y-42795000D03*
D21*
X29125000Y-42795000D03*
D24*
%TO.P,A1,29,GPIO22_29*%
%TO.N,Net-(A1-GPIO22)*%
X29925000Y-40255000D03*
D23*
X29125000Y-40255000D03*
D24*
%TO.P,A1,30,RUN_30*%
%TO.N,unconnected-(A1-RUN-Pad30)_1*%
X29925000Y-37715000D03*
D23*
%TO.N,unconnected-(A1-RUN-Pad30)*%
X29125000Y-37715000D03*
D24*
%TO.P,A1,31,GPIO26_ADC0_31*%
%TO.N,/COM_1*%
X29925000Y-35175000D03*
D23*
X29125000Y-35175000D03*
D24*
%TO.P,A1,32,GPIO27_ADC1_32*%
%TO.N,/COM*%
X29925000Y-32635000D03*
D23*
X29125000Y-32635000D03*
D27*
%TO.P,A1,33,AGND_33*%
%TO.N,unconnected-(A1-AGND-Pad33)*%
X29925000Y-30095000D03*
D21*
%TO.N,unconnected-(A1-AGND-Pad33)_1*%
X29125000Y-30095000D03*
D24*
%TO.P,A1,34,GPIO28_ADC2_34*%
%TO.N,Net-(A1-GPIO28_ADC2)*%
X29925000Y-27555000D03*
D23*
X29125000Y-27555000D03*
D24*
%TO.P,A1,35,ADC_VREF_35*%
%TO.N,unconnected-(A1-ADC_VREF-Pad35)*%
X29925000Y-25015000D03*
D23*
%TO.N,unconnected-(A1-ADC_VREF-Pad35)_1*%
X29125000Y-25015000D03*
D24*
%TO.P,A1,36,3V3_36*%
%TO.N,+3.3V*%
X29925000Y-22475000D03*
D23*
X29125000Y-22475000D03*
D24*
%TO.P,A1,37,3V3_EN_37*%
%TO.N,unconnected-(A1-3V3_EN-Pad37)*%
X29925000Y-19935000D03*
D23*
%TO.N,unconnected-(A1-3V3_EN-Pad37)_1*%
X29125000Y-19935000D03*
D27*
%TO.P,A1,38,GND_38*%
%TO.N,GND*%
X29925000Y-17395000D03*
D21*
X29125000Y-17395000D03*
D24*
%TO.P,A1,39,VSYS_39*%
%TO.N,unconnected-(A1-VSYS-Pad39)_1*%
X29925000Y-14855000D03*
D23*
%TO.N,unconnected-(A1-VSYS-Pad39)*%
X29125000Y-14855000D03*
D24*
%TO.P,A1,40,VBUS_40*%
%TO.N,+5V*%
X29925000Y-12315000D03*
D23*
X29125000Y-12315000D03*
%TD*%
D19*
%TO.P,TR2,1*%
%TO.N,Net-(J9-PadS)*%
X123125000Y-37035000D03*
%TO.P,TR2,2*%
%TO.N,unconnected-(TR2-Pad2)*%
X128125000Y-37035000D03*
%TO.P,TR2,3*%
%TO.N,Net-(U6-ROUT)*%
X133125000Y-37035000D03*
%TO.P,TR2,4*%
%TO.N,Net-(J2-Pad2)*%
X128125000Y-24535000D03*
%TO.P,TR2,5*%
%TO.N,Net-(J2-Pad1)*%
X133125000Y-24535000D03*
%TO.P,TR2,6*%
%TO.N,Net-(J2-Pad3)*%
X123125000Y-24535000D03*
%TD*%
D18*
%TO.P,J10,1*%
%TO.N,Net-(PCM1808_BOARD1--)*%
X62455000Y-14935000D03*
%TO.P,J10,2*%
%TO.N,Net-(PCM1808_BOARD1-LIN)*%
X70455000Y-14935000D03*
%TO.P,J10,3*%
%TO.N,Net-(PCM1808_BOARD1--)*%
X66455000Y-14935000D03*
%TD*%
D12*
%TO.P,Cue11,1*%
%TO.N,Net-(U4-GPB2)*%
X20705000Y-71455000D03*
%TD*%
D19*
%TO.P,R5,1*%
%TO.N,+3.3V*%
X64205000Y-71005000D03*
%TO.P,R5,2*%
%TO.N,/SDA*%
X64205000Y-62405000D03*
%TD*%
D17*
%TO.P,3.3V3,1*%
%TO.N,+3.3V*%
X21205000Y-21205000D03*
%TD*%
D14*
%TO.P,SDA3,1*%
%TO.N,/SDA*%
X55955000Y-13005000D03*
%TD*%
D17*
%TO.P,GND9,1*%
%TO.N,GND*%
X20955000Y-42955000D03*
%TD*%
D28*
%TO.N,GND*%
X52955000Y-59955000D03*
%TO.N,+3.3V*%
X72955000Y-48455000D03*
%TO.N,Net-(A1-GPIO18)*%
X17412500Y-56915000D03*
%TO.N,Net-(A1-GPIO19)*%
X17412500Y-52665000D03*
%TO.N,+3.3V*%
X47455000Y-64205000D03*
%TO.N,GND*%
X45140001Y-65455000D03*
%TD*%
%TO.N,Net-(PCM1808_BOARD1-RIN)*%
D29*
X78495000Y-18895000D02*
X82455000Y-14935000D01*
%TO.N,+3.3V*%
X51580000Y-71955000D02*
X46475000Y-77060000D01*
%TO.N,/DAC Outputs/PLRCK*%
X79805000Y-73805000D02*
X53875000Y-47875000D01*
%TO.N,Net-(U4-GPB1)*%
X31854999Y-70630000D02*
X32505000Y-69979999D01*
%TO.N,Net-(J1-Pad2)*%
X107875000Y-20285000D02*
X107875000Y-15285000D01*
%TO.N,Net-(U4-GPB1)*%
X25455000Y-67955000D02*
X28130000Y-70630000D01*
%TO.N,+3.3V*%
X41395000Y-67810000D02*
X46250000Y-62955000D01*
%TO.N,Net-(U4-GPB2)*%
X33775000Y-69979999D02*
X33775000Y-68955000D01*
%TO.N,/DAC Outputs/PDIN*%
X52585000Y-45335000D02*
X48505000Y-45335000D01*
%TO.N,GND*%
X42665000Y-67930001D02*
X45140001Y-65455000D01*
%TO.N,Net-(U5-ROUT)*%
X126225000Y-81955000D02*
X128695000Y-79485000D01*
%TO.N,/Mic Inputs/SCK*%
X63455000Y-38955000D02*
X52055000Y-27555000D01*
%TO.N,GND*%
X45205000Y-79279999D02*
X45205000Y-78255000D01*
%TO.N,Net-(J9-PadS)*%
X123125000Y-37035000D02*
X121125000Y-35035000D01*
%TO.N,Net-(U4-GPB5)*%
X33309999Y-74255000D02*
X37585000Y-69979999D01*
%TO.N,/S0*%
X50705000Y-81705000D02*
X42550001Y-81705000D01*
%TO.N,Net-(J7-PadS)*%
X112705000Y-77205000D02*
X128955000Y-77205000D01*
%TO.N,Net-(U5-ROUT)*%
X101205000Y-81955000D02*
X126225000Y-81955000D01*
%TO.N,/SCK*%
X46680001Y-66455000D02*
X55505000Y-66455000D01*
%TO.N,/S0*%
X55955000Y-86955000D02*
X50705000Y-81705000D01*
%TO.N,Net-(A1-GPIO28_ADC2)*%
X23162500Y-31165000D02*
X26772500Y-27555000D01*
%TO.N,Net-(U4-GPB4)*%
X20455000Y-79705000D02*
X26705000Y-73455000D01*
%TO.N,Net-(U4-GPB3)*%
X32569999Y-72455000D02*
X35045000Y-69979999D01*
%TO.N,Net-(A1-GPIO19)*%
X14162500Y-52665000D02*
X17412500Y-52665000D01*
%TO.N,Net-(U4-GPA5)*%
X33775000Y-86025000D02*
X33775000Y-78255000D01*
%TO.N,GND*%
X88455000Y-38955000D02*
X65995000Y-38955000D01*
X50280000Y-78255000D02*
X47745000Y-78255000D01*
%TO.N,/DAC Outputs/PDIN*%
X78515000Y-71265000D02*
X52585000Y-45335000D01*
%TO.N,Net-(U4-GPB5)*%
X27036370Y-74255000D02*
X33309999Y-74255000D01*
%TO.N,Net-(U4-GPA6)*%
X30455000Y-86955000D02*
X32505000Y-84905000D01*
%TO.N,Net-(J2-Pad2)*%
X129955000Y-22705000D02*
X129955000Y-15285000D01*
%TO.N,Net-(U4-GPB7)*%
X28955000Y-80455000D02*
X28955000Y-77455000D01*
%TO.N,Net-(J7-PadS)*%
X100455000Y-77205000D02*
X103955000Y-80705000D01*
%TO.N,Net-(J1-Pad2)*%
X103125000Y-25035000D02*
X107875000Y-20285000D01*
%TO.N,Net-(A1-GPIO28_ADC2)*%
X14912500Y-32665000D02*
X16412500Y-31165000D01*
%TO.N,/DAC Outputs/PLRCK*%
X107105000Y-73805000D02*
X79805000Y-73805000D01*
%TO.N,GND*%
X88455000Y-38955000D02*
X88455000Y-31335000D01*
%TO.N,/DAC Outputs/MBCK*%
X70054240Y-57545000D02*
X50224240Y-37715000D01*
%TO.N,Net-(J7-PadS)*%
X109205000Y-80705000D02*
X112705000Y-77205000D01*
%TO.N,Net-(A1-GPIO21)*%
X27525000Y-45335000D02*
X29125000Y-45335000D01*
%TO.N,Net-(PCM1808_BOARD1-RIN)*%
X78495000Y-21685000D02*
X78495000Y-18895000D01*
%TO.N,/S3*%
X36315000Y-80065000D02*
X36315000Y-78255000D01*
%TO.N,Net-(U4-GPB4)*%
X32839999Y-73455000D02*
X36315000Y-69979999D01*
%TO.N,/S1*%
X51705000Y-86955000D02*
X47705000Y-82955000D01*
%TO.N,Net-(A1-GPIO21)*%
X20955000Y-54705000D02*
X26075000Y-49585000D01*
X26075000Y-46785000D02*
X27525000Y-45335000D01*
%TO.N,Net-(U4-GPA4)*%
X38955000Y-86955000D02*
X35045000Y-83045000D01*
%TO.N,Net-(A1-GPIO12)*%
X52912500Y-51415000D02*
X51912500Y-50415000D01*
%TO.N,+3.3V*%
X47455000Y-64205000D02*
X46250000Y-63000000D01*
%TO.N,Net-(U5-LROUT)*%
X130305000Y-82955000D02*
X133775000Y-79485000D01*
%TO.N,/INT1*%
X26585000Y-60575000D02*
X29125000Y-60575000D01*
%TO.N,Net-(J1-Pad3)*%
X103875000Y-19285000D02*
X103875000Y-15285000D01*
%TO.N,Net-(PCM1808_BOARD1--)*%
X75955000Y-21685000D02*
X75955000Y-17435000D01*
%TO.N,Net-(A1-GPIO14)*%
X66705000Y-65705000D02*
X66705000Y-61955000D01*
%TO.N,+3.3V*%
X134725000Y-48455000D02*
X72955000Y-48455000D01*
X43935000Y-78255000D02*
X43935000Y-77230001D01*
%TO.N,GND*%
X45855001Y-79930000D02*
X45205000Y-79279999D01*
%TO.N,Net-(A1-GPIO13)*%
X52412500Y-55165000D02*
X50202500Y-52955000D01*
%TO.N,Net-(PCM1808_BOARD1--)*%
X74455000Y-14935000D02*
X74455000Y-14205000D01*
%TO.N,Net-(A1-GPIO20)*%
X20955000Y-59205000D02*
X26875000Y-53285000D01*
X26875000Y-48525000D02*
X27525000Y-47875000D01*
%TO.N,GND*%
X52955000Y-62705000D02*
X52955000Y-59955000D01*
%TO.N,/SDA*%
X46475000Y-68955000D02*
X46475000Y-67930001D01*
%TO.N,GND*%
X45140001Y-65455000D02*
X50205000Y-65455000D01*
%TO.N,/S2*%
X37585000Y-79835000D02*
X37585000Y-78255000D01*
%TO.N,GND*%
X42665000Y-68955000D02*
X42665000Y-67930001D01*
%TO.N,Net-(U4-GPB4)*%
X26705000Y-73455000D02*
X32839999Y-73455000D01*
%TO.N,Net-(PCM1808_BOARD1-LIN)*%
X73415000Y-21685000D02*
X73415000Y-17895000D01*
%TO.N,Net-(A1-GPIO22)*%
X25002500Y-40255000D02*
X29125000Y-40255000D01*
%TO.N,+3.3V*%
X44585001Y-76580000D02*
X45995000Y-76580000D01*
%TO.N,/Mic Inputs/OUT*%
X63455000Y-33875000D02*
X52055000Y-22475000D01*
%TO.N,Net-(U4-GPB1)*%
X32505000Y-69979999D02*
X32505000Y-68955000D01*
%TO.N,Net-(A1-GPIO14)*%
X51190001Y-68705000D02*
X63705000Y-68705000D01*
%TO.N,GND*%
X71885000Y-49925000D02*
X63455000Y-41495000D01*
X50205000Y-65455000D02*
X52955000Y-62705000D01*
%TO.N,Net-(A1-GPIO13)*%
X56412500Y-55165000D02*
X52412500Y-55165000D01*
%TO.N,/DAC Outputs/PBCK*%
X77292684Y-68725000D02*
X48822684Y-40255000D01*
%TO.N,Net-(U6-LROUT)*%
X109125000Y-38535000D02*
X108125000Y-37535000D01*
%TO.N,Net-(A1-GPIO18)*%
X14162500Y-56915000D02*
X17412500Y-56915000D01*
%TO.N,Net-(U4-GPB3)*%
X35045000Y-69979999D02*
X35045000Y-68955000D01*
%TO.N,Net-(U4-GPB2)*%
X32299999Y-71455000D02*
X33775000Y-69979999D01*
%TO.N,Net-(U6-ROUT)*%
X126125000Y-44035000D02*
X133125000Y-37035000D01*
%TO.N,Net-(PCM1808_BOARD1--)*%
X78455000Y-14935000D02*
X74455000Y-14935000D01*
%TO.N,+3.3V*%
X36715000Y-37965000D02*
X46250000Y-47500000D01*
%TO.N,Net-(U5-ROUT)*%
X96455000Y-77205000D02*
X101205000Y-81955000D01*
%TO.N,Net-(J1-Pad3)*%
X98125000Y-25035000D02*
X103875000Y-19285000D01*
%TO.N,/DAC Outputs/MBCK*%
X135795000Y-57545000D02*
X70054240Y-57545000D01*
%TO.N,/INT1*%
X23705000Y-64455000D02*
X23705000Y-63455000D01*
%TO.N,/DAC Outputs/PDIN*%
X107105000Y-71265000D02*
X78515000Y-71265000D01*
%TO.N,Net-(U4-GPB6)*%
X38855000Y-69979999D02*
X38855000Y-68955000D01*
%TO.N,/Mic Inputs/BCK*%
X63455000Y-31335000D02*
X52055000Y-19935000D01*
%TO.N,Net-(PCM1808_BOARD1--)*%
X66455000Y-14935000D02*
X62455000Y-14935000D01*
%TO.N,Net-(U5-LROUT)*%
X98205000Y-82955000D02*
X130305000Y-82955000D01*
%TO.N,/S2*%
X44455000Y-83955000D02*
X41705000Y-83955000D01*
%TO.N,/INT1*%
X23705000Y-63455000D02*
X26585000Y-60575000D01*
%TO.N,+3.3V*%
X43935000Y-77230001D02*
X44585001Y-76580000D01*
%TO.N,Net-(U4-GPA5)*%
X34705000Y-86955000D02*
X33775000Y-86025000D01*
%TO.N,/S1*%
X38855000Y-79279999D02*
X38855000Y-78255000D01*
%TO.N,Net-(U4-GPA7)*%
X31235000Y-81925000D02*
X31235000Y-78255000D01*
%TO.N,Net-(U4-GPB7)*%
X40125000Y-70035000D02*
X40125000Y-68955000D01*
%TO.N,Net-(U4-GPB3)*%
X26205000Y-72455000D02*
X32569999Y-72455000D01*
%TO.N,/S1*%
X42530001Y-82955000D02*
X38855000Y-79279999D01*
%TO.N,/SDA*%
X47125001Y-67280000D02*
X59330000Y-67280000D01*
%TO.N,/Mic Inputs/OUT*%
X52055000Y-22475000D02*
X48505000Y-22475000D01*
%TO.N,Net-(U4-GPB1)*%
X28130000Y-70630000D02*
X31854999Y-70630000D01*
%TO.N,Net-(U4-GPB5)*%
X20455000Y-83705000D02*
X24395685Y-79764315D01*
%TO.N,/SCK*%
X45205000Y-67930001D02*
X46680001Y-66455000D01*
%TO.N,/DAC Outputs/PLRCK*%
X53875000Y-47875000D02*
X48505000Y-47875000D01*
%TO.N,GND*%
X47745000Y-78255000D02*
X47745000Y-79145528D01*
%TO.N,/COM*%
X28555000Y-33205000D02*
X29125000Y-32635000D01*
%TO.N,/Mic Inputs/SCK*%
X52055000Y-27555000D02*
X48505000Y-27555000D01*
%TO.N,/SCK*%
X55505000Y-66455000D02*
X59555000Y-62405000D01*
%TO.N,Net-(U4-GPA7)*%
X26205000Y-86955000D02*
X31235000Y-81925000D01*
%TO.N,Net-(U4-GPB2)*%
X20705000Y-71455000D02*
X32299999Y-71455000D01*
%TO.N,/INT1*%
X20705000Y-67455000D02*
X23705000Y-64455000D01*
%TO.N,Net-(A1-GPIO28_ADC2)*%
X26772500Y-27555000D02*
X29125000Y-27555000D01*
%TO.N,Net-(U4-GPB7)*%
X23955000Y-84455000D02*
X23955000Y-83705000D01*
%TO.N,/SCK*%
X45205000Y-68955000D02*
X45205000Y-67930001D01*
%TO.N,Net-(U5-LROUT)*%
X92455000Y-77205000D02*
X98205000Y-82955000D01*
%TO.N,Net-(U6-LROUT)*%
X109125000Y-46785000D02*
X109125000Y-38535000D01*
%TO.N,GND*%
X51580000Y-76955000D02*
X50280000Y-78255000D01*
%TO.N,Net-(U4-GPB7)*%
X27705000Y-81705000D02*
X28955000Y-80455000D01*
%TO.N,Net-(J2-Pad3)*%
X123125000Y-24535000D02*
X125955000Y-21705000D01*
%TO.N,Net-(U4-GPB7)*%
X30555000Y-75855000D02*
X34305000Y-75855000D01*
X28955000Y-77455000D02*
X30555000Y-75855000D01*
%TO.N,Net-(J9-PadS)*%
X121415000Y-37035000D02*
X123125000Y-37035000D01*
%TO.N,/S0*%
X40125000Y-79279999D02*
X40125000Y-78255000D01*
%TO.N,Net-(A1-GPIO28_ADC2)*%
X16412500Y-31165000D02*
X23162500Y-31165000D01*
%TO.N,/DAC Outputs/MLRCK*%
X69692968Y-52465000D02*
X49862968Y-32635000D01*
%TO.N,Net-(A1-GPIO14)*%
X63705000Y-68705000D02*
X66705000Y-65705000D01*
%TO.N,Net-(PCM1808_BOARD1--)*%
X74455000Y-14205000D02*
X72205000Y-11955000D01*
%TO.N,+3.3V*%
X46475000Y-77060000D02*
X46475000Y-78255000D01*
%TO.N,Net-(PCM1808_BOARD1--)*%
X72205000Y-11955000D02*
X68705000Y-11955000D01*
%TO.N,Net-(U4-GPB4)*%
X36315000Y-69979999D02*
X36315000Y-68955000D01*
%TO.N,Net-(U4-GPB7)*%
X20455000Y-87955000D02*
X23955000Y-84455000D01*
%TO.N,Net-(A1-GPIO13)*%
X50202500Y-52955000D02*
X48505000Y-52955000D01*
%TO.N,Net-(A1-GPIO21)*%
X26075000Y-49585000D02*
X26075000Y-46785000D01*
%TO.N,/COM_1*%
X20955000Y-37705000D02*
X23485000Y-35175000D01*
%TO.N,/S1*%
X47705000Y-82955000D02*
X42530001Y-82955000D01*
%TO.N,Net-(J9-PadS)*%
X111665000Y-46785000D02*
X121415000Y-37035000D01*
%TO.N,Net-(U4-GPB0)*%
X31235000Y-68485000D02*
X31235000Y-68955000D01*
%TO.N,Net-(A1-GPIO12)*%
X51912500Y-50415000D02*
X48505000Y-50415000D01*
%TO.N,Net-(U4-GPB5)*%
X37585000Y-69979999D02*
X37585000Y-68955000D01*
%TO.N,/S2*%
X47455000Y-86955000D02*
X44455000Y-83955000D01*
%TO.N,/DAC Outputs/MLRCK*%
X49862968Y-32635000D02*
X48505000Y-32635000D01*
%TO.N,Net-(A1-GPIO14)*%
X42665000Y-78255000D02*
X42665000Y-77230001D01*
%TO.N,Net-(U4-GPB1)*%
X25455000Y-65955000D02*
X25455000Y-67955000D01*
%TO.N,GND*%
X52055000Y-30095000D02*
X48505000Y-30095000D01*
%TO.N,Net-(A1-GPIO14)*%
X62785000Y-58035000D02*
X48505000Y-58035000D01*
%TO.N,Net-(U4-GPB7)*%
X34305000Y-75855000D02*
X40125000Y-70035000D01*
%TO.N,+3.3V*%
X46250000Y-47500000D02*
X46250000Y-62955000D01*
%TO.N,GND*%
X63455000Y-41495000D02*
X52055000Y-30095000D01*
%TO.N,/SDA*%
X59330000Y-67280000D02*
X64205000Y-62405000D01*
%TO.N,Net-(U4-GPB5)*%
X24395685Y-76895685D02*
X27036370Y-74255000D01*
%TO.N,Net-(U4-GPA6)*%
X32505000Y-84905000D02*
X32505000Y-78255000D01*
%TO.N,/COM_1*%
X23485000Y-35175000D02*
X29125000Y-35175000D01*
%TO.N,Net-(U4-GPB3)*%
X20455000Y-75455000D02*
X23205000Y-75455000D01*
%TO.N,Net-(J7-PadS)*%
X128955000Y-77205000D02*
X131235000Y-79485000D01*
%TO.N,Net-(A1-GPIO14)*%
X66705000Y-61955000D02*
X62785000Y-58035000D01*
%TO.N,+3.3V*%
X41395000Y-68955000D02*
X41395000Y-67810000D01*
%TO.N,GND*%
X65995000Y-38955000D02*
X63455000Y-41495000D01*
%TO.N,Net-(U4-GPA4)*%
X35045000Y-83045000D02*
X35045000Y-78255000D01*
%TO.N,GND*%
X46960528Y-79930000D02*
X45855001Y-79930000D01*
%TO.N,Net-(A1-GPIO20)*%
X27525000Y-47875000D02*
X29125000Y-47875000D01*
%TO.N,Net-(J9-PadS)*%
X100625000Y-35035000D02*
X98125000Y-37535000D01*
%TO.N,/DAC Outputs/PBCK*%
X48822684Y-40255000D02*
X48505000Y-40255000D01*
%TO.N,GND*%
X135795000Y-49925000D02*
X71885000Y-49925000D01*
%TO.N,/INT2*%
X27993630Y-58035000D02*
X29125000Y-58035000D01*
%TO.N,Net-(U4-GPB3)*%
X23205000Y-75455000D02*
X26205000Y-72455000D01*
%TO.N,Net-(U4-GPB6)*%
X33779999Y-75055000D02*
X38855000Y-69979999D01*
%TO.N,+3.3V*%
X36715000Y-29265000D02*
X36715000Y-37965000D01*
%TO.N,Net-(U4-GPB7)*%
X25955000Y-81705000D02*
X27705000Y-81705000D01*
%TO.N,Net-(J7-PadS)*%
X103955000Y-80705000D02*
X109205000Y-80705000D01*
%TO.N,/DAC Outputs/MBCK*%
X50224240Y-37715000D02*
X48505000Y-37715000D01*
%TO.N,/INT2*%
X22823629Y-63205000D02*
X27993630Y-58035000D01*
%TO.N,+3.3V*%
X46250000Y-63000000D02*
X46250000Y-62955000D01*
%TO.N,/DAC Outputs/MDIN*%
X68645610Y-55005000D02*
X48815610Y-35175000D01*
X135795000Y-55005000D02*
X68645610Y-55005000D01*
%TO.N,/Mic Inputs/BCK*%
X52055000Y-19935000D02*
X48505000Y-19935000D01*
%TO.N,GND*%
X47745000Y-79145528D02*
X46960528Y-79930000D01*
%TO.N,+3.3V*%
X29925000Y-22475000D02*
X36715000Y-29265000D01*
%TO.N,Net-(J2-Pad2)*%
X128125000Y-24535000D02*
X129955000Y-22705000D01*
%TO.N,/DAC Outputs/PBCK*%
X107105000Y-68725000D02*
X77292684Y-68725000D01*
%TO.N,Net-(U4-GPB6)*%
X30105000Y-75055000D02*
X33779999Y-75055000D01*
%TO.N,/S2*%
X41705000Y-83955000D02*
X37585000Y-79835000D01*
%TO.N,Net-(J2-Pad3)*%
X125955000Y-21705000D02*
X125955000Y-15285000D01*
%TO.N,Net-(A1-GPIO14)*%
X41395000Y-78255000D02*
X42665000Y-78255000D01*
%TO.N,Net-(PCM1808_BOARD1-LIN)*%
X73415000Y-17895000D02*
X70455000Y-14935000D01*
%TO.N,/S3*%
X43205000Y-86955000D02*
X36315000Y-80065000D01*
%TO.N,Net-(A1-GPIO22)*%
X14912500Y-39665000D02*
X24412500Y-39665000D01*
%TO.N,/Mic Inputs/LRC*%
X52055000Y-25015000D02*
X48505000Y-25015000D01*
%TO.N,+3.3V*%
X45995000Y-76580000D02*
X46475000Y-77060000D01*
%TO.N,/SDA*%
X46475000Y-67930001D02*
X47125001Y-67280000D01*
%TO.N,+3.3V*%
X135795000Y-47385000D02*
X134725000Y-48455000D01*
%TO.N,/Mic Inputs/LRC*%
X63455000Y-36415000D02*
X52055000Y-25015000D01*
%TO.N,/COM*%
X21205000Y-33205000D02*
X28555000Y-33205000D01*
%TO.N,/DAC Outputs/MDIN*%
X48815610Y-35175000D02*
X48505000Y-35175000D01*
%TO.N,Net-(U4-GPB6)*%
X26455000Y-78705000D02*
X30105000Y-75055000D01*
%TO.N,Net-(J9-PadS)*%
X121125000Y-35035000D02*
X100625000Y-35035000D01*
%TO.N,Net-(U4-GPB7)*%
X23955000Y-83705000D02*
X25955000Y-81705000D01*
%TO.N,Net-(U6-ROUT)*%
X114205000Y-46785000D02*
X116955000Y-44035000D01*
%TO.N,Net-(PCM1808_BOARD1--)*%
X68705000Y-11955000D02*
X66455000Y-14205000D01*
X75955000Y-17435000D02*
X78455000Y-14935000D01*
%TO.N,/DAC Outputs/MLRCK*%
X135795000Y-52465000D02*
X69692968Y-52465000D01*
%TO.N,Net-(U4-GPB0)*%
X28955000Y-66205000D02*
X31235000Y-68485000D01*
%TO.N,Net-(PCM1808_BOARD1--)*%
X66455000Y-14205000D02*
X66455000Y-14935000D01*
%TO.N,/INT2*%
X20705000Y-63205000D02*
X22823629Y-63205000D01*
%TO.N,/S0*%
X42550001Y-81705000D02*
X40125000Y-79279999D01*
%TO.N,Net-(U6-ROUT)*%
X116955000Y-44035000D02*
X126125000Y-44035000D01*
%TO.N,Net-(A1-GPIO20)*%
X26875000Y-53285000D02*
X26875000Y-48525000D01*
%TO.N,Net-(U4-GPB5)*%
X24395685Y-79764315D02*
X24395685Y-76895685D01*
%TO.N,Net-(A1-GPIO22)*%
X24412500Y-39665000D02*
X25002500Y-40255000D01*
%TO.N,Net-(A1-GPIO14)*%
X42665000Y-77230001D02*
X51190001Y-68705000D01*
%TD*%
M02*
